<svg width="109" height="109" viewBox="0 0 109 109" fill="none" xmlns="http://www.w3.org/2000/svg">
<path d="M69.7039 52.4708C69.0489 51.624 68.7128 51.8674 66.6637 51.5302C64.6145 51.193 49.0412 49.0237 36.5313 50.4392C24.0213 51.8548 25.8644 54.5955 25.8644 54.5955C26.0262 54.7808 26.3355 56.053 27.063 56.4959C27.7904 56.9388 27.6286 56.7536 29.7678 55.6137C31.907 54.4739 33.2797 53.691 44.4294 52.4445C55.5792 51.1979 68.2537 54.1169 69.447 54.222C70.6402 54.3271 70.3525 53.3282 69.7039 52.4708ZM82.1097 55.6887C82.0053 54.8158 74.6419 47.0664 73.6548 47.4771C71.9631 48.1668 70.8204 58.2087 71.1682 59.4177C71.516 60.6266 82.2077 56.5721 82.1097 55.6887ZM73.0917 56.6146C72.9625 55.6399 74.0804 50.0774 74.3963 50.0096C75.3017 49.7805 79.8369 54.5794 79.1689 55.0832C78.5009 55.5869 73.2566 57.6254 73.0917 56.6146Z" fill="white"/>
</svg>
