<svg width="160" height="215" viewBox="0 0 160 215" fill="none" xmlns="http://www.w3.org/2000/svg">
<g opacity="0.7" clip-path="url(#clip0_6059_27715)">
<path d="M249.823 4.2012C250.305 4.21057 250.787 4.21934 251.269 4.22743C251.931 4.23908 252.592 4.25437 253.254 4.26981C253.628 4.27789 254.003 4.28598 254.389 4.29431C255.638 4.38757 256.704 4.60987 257.9 4.8912C258.237 6.46641 258.574 8.04169 258.911 9.61704C259.025 10.1523 259.14 10.6876 259.255 11.2228C259.42 11.9947 259.585 12.7666 259.75 13.5385C259.801 13.7756 259.852 14.0127 259.904 14.257C261.612 22.2792 260.15 30.1474 258.919 38.1548C258.558 40.5115 258.206 42.8691 257.855 45.2267C257.733 46.038 257.608 46.8491 257.483 47.6602C257.028 50.6487 256.69 53.6247 256.522 56.6301C262.779 57.4951 269.068 58.1977 275.365 58.8764C275.934 58.9377 276.502 58.9991 277.071 59.0605C279.409 59.3128 281.748 59.5648 284.087 59.814C285.54 59.9689 286.993 60.1255 288.445 60.2832C288.993 60.3424 289.541 60.4009 290.089 60.4587C290.847 60.5388 291.606 60.6211 292.364 60.704C292.794 60.75 293.224 60.7961 293.667 60.8435C294.631 60.9875 295.317 61.1187 296.133 61.5208C296.557 62.1674 296.557 62.1674 296.926 63.0422C296.996 63.2079 297.066 63.3737 297.138 63.5445C298.343 66.48 299.314 69.4704 300.331 72.4446C300.549 73.0792 300.768 73.7139 300.987 74.3485C302.008 77.3146 302.008 77.3146 302.441 78.5937C302.586 79.0142 302.734 79.4338 302.891 79.8518C304.663 84.6748 302.814 90.0883 301.77 94.9176C301.437 96.4566 301.111 97.9964 300.791 99.5368C300.679 100.066 300.563 100.595 300.447 101.123C300.007 103.214 299.828 105.223 299.922 107.339C305.112 107.464 310.218 107.075 315.379 106.696C316.652 106.603 317.925 106.511 319.198 106.42C319.984 106.364 320.769 106.307 321.554 106.249C328.707 105.737 328.707 105.737 330.922 107.082C332.036 108.435 332.002 109.441 331.611 110.943C331.217 112.152 330.771 113.349 330.319 114.547C330.194 114.883 330.069 115.22 329.944 115.556C329.359 117.125 328.752 118.686 328.063 120.231C326.155 124.516 326.923 128.62 328.02 132.97C328.547 135.067 328.994 137.12 329.027 139.258C329.037 139.525 329.037 139.525 329.046 139.797C329 142.863 327.286 145.962 325.97 148.829C324.424 152.205 322.972 155.601 321.579 159.014C321.496 159.215 321.414 159.417 321.329 159.624C321.094 160.197 320.861 160.77 320.629 161.343C320.56 161.512 320.491 161.681 320.42 161.855C320.069 162.726 319.77 163.589 319.555 164.484C322.441 164.327 325.165 163.782 327.951 163.229C328.419 163.137 328.888 163.046 329.356 162.954C329.816 162.864 330.276 162.774 330.736 162.684C330.961 162.64 331.185 162.596 331.417 162.551C332.417 162.354 333.413 162.149 334.404 161.929C334.723 161.858 335.042 161.787 335.37 161.715C335.771 161.622 335.771 161.622 336.18 161.527C337.066 161.403 337.833 161.382 338.731 161.387C339.01 161.388 339.289 161.389 339.577 161.39C339.79 161.392 340.003 161.393 340.222 161.395C340.233 167.106 340.24 172.817 340.243 178.529C340.244 178.856 340.244 178.856 340.244 179.19C340.255 196.436 340.154 213.681 340.006 230.927C340 231.636 339.994 232.344 339.988 233.052C339.971 235.029 339.954 237.005 339.936 238.982C339.915 241.253 339.896 243.524 339.881 245.796C339.879 246.161 339.876 246.527 339.874 246.892C339.866 247.979 339.86 249.066 339.856 250.153C339.854 250.638 339.851 251.123 339.847 251.608C339.84 255.445 340.034 259.354 340.932 263.136C341.229 264.396 341.342 265.59 341.298 266.868C341.295 267.05 341.292 267.233 341.289 267.421C341.281 267.858 341.269 268.296 341.255 268.734C339.808 269.332 338.628 269.627 336.987 269.759C336.554 269.795 336.122 269.831 335.676 269.868C335.203 269.904 334.73 269.94 334.257 269.976C333.757 270.015 333.256 270.054 332.756 270.093C331.698 270.176 330.641 270.256 329.583 270.334C328.533 270.412 327.484 270.494 326.435 270.58C308.372 272.064 290.085 271.182 271.957 270.864C268.167 270.797 264.376 270.732 260.585 270.667C260.08 270.658 260.08 270.658 259.565 270.649C253.07 270.538 246.576 270.428 240.081 270.32C238.754 270.298 237.427 270.276 236.1 270.253C213.913 269.878 191.754 269.92 169.574 270.459C167.568 270.507 165.562 270.554 163.556 270.601C146.442 270.995 129.329 271.431 112.216 271.869C110.669 271.909 109.123 271.949 107.576 271.988C104.475 272.068 101.373 272.147 98.2716 272.227C98.0151 272.234 97.7587 272.24 97.4945 272.247C91.0643 272.412 84.6343 272.579 78.2043 272.748C74.2805 272.851 70.3567 272.953 66.4328 273.054C64.1436 273.114 61.8544 273.174 59.5653 273.235C43.4734 273.664 43.4734 273.664 37.4323 273.697C36.7524 273.701 36.0727 273.709 35.3929 273.716C34.8033 273.716 34.8033 273.716 34.2018 273.716C33.8697 273.717 33.5375 273.718 33.1953 273.72C32.1045 273.605 31.4539 273.332 30.5664 272.852C29.3441 271.025 30.4203 268.149 30.8247 266.223C30.8859 265.919 30.947 265.615 31.01 265.301C31.204 264.338 31.4014 263.374 31.5997 262.411C31.861 261.14 32.1188 259.869 32.3747 258.597C32.4651 258.166 32.4651 258.166 32.5574 257.726C33.1638 255.005 33.1638 255.005 32.806 252.288C31.342 247.69 32.9946 241.943 33.5145 237.258C33.6399 236.123 33.762 234.988 33.8846 233.853C34.0904 231.951 34.2986 230.048 34.5083 228.147C34.7497 225.957 34.988 223.768 35.2244 221.578C35.478 219.229 35.7339 216.881 35.9905 214.532C36.0635 213.862 36.1362 213.192 36.2087 212.522C36.3232 211.466 36.4393 210.409 36.5565 209.353C36.5989 208.968 36.6408 208.584 36.6822 208.199C37.6208 199.495 37.6207 199.495 42.0918 196.079C49.4277 190.158 54.2042 183.596 54.6553 175.512C54.6881 174.927 54.7261 174.343 54.7652 173.759C54.8616 172.306 54.9501 170.852 55.0378 169.399C55.5045 161.684 56.418 154.17 58.6601 146.61C59.2047 144.765 59.7244 142.917 60.1886 141.06C60.2429 140.844 60.2972 140.629 60.3531 140.407C61.7782 134.435 61.3745 128.276 61.3723 122.236C61.3718 120.661 61.3765 119.087 61.389 117.512C61.3927 116.782 61.3886 116.052 61.3843 115.322C61.3873 114.874 61.3908 114.426 61.3947 113.978C61.3897 113.678 61.3897 113.678 61.3846 113.373C61.413 111.745 61.9974 110.348 63.5843 109.188C65.1728 108.509 66.6389 108.125 68.4647 107.958C68.74 107.929 69.0153 107.9 69.2989 107.87C73.4008 107.456 77.5228 107.148 81.6394 106.827C83.1367 106.711 84.6336 106.591 86.1305 106.472C86.6308 106.432 87.1311 106.392 87.6314 106.352C87.8772 106.332 88.123 106.313 88.3762 106.292C91.1664 106.07 93.9568 105.848 96.7475 105.629C98.1399 105.519 99.5318 105.406 100.923 105.29C101.6 105.234 102.277 105.182 102.954 105.13C108.933 104.624 113.767 102.971 117.715 99.5276C120.294 96.956 121.379 94.0846 121.739 90.9216C121.799 90.4583 121.799 90.4583 121.859 89.9856C122.277 86.5822 122.523 83.1702 122.757 79.7575C122.891 77.8049 123.036 75.8527 123.183 73.9005C123.198 73.7002 123.213 73.4999 123.228 73.2936C123.567 68.787 123.988 64.2854 124.435 59.7841C124.492 59.2062 124.549 58.6283 124.605 58.0503C124.711 56.9762 124.818 55.9022 124.927 54.8282C124.958 54.5105 124.99 54.1928 125.022 53.8655C125.067 53.4263 125.067 53.4263 125.113 52.9781C125.139 52.725 125.165 52.4718 125.191 52.2109C125.293 51.4455 125.453 50.6948 125.633 49.9375C128.182 49.4934 130.664 49.3097 133.275 49.2216C133.875 49.1991 133.875 49.1991 134.487 49.1761C135.341 49.1443 136.196 49.1134 137.051 49.0833C138.39 49.0361 139.729 48.9864 141.068 48.936C145.205 48.7818 149.342 48.639 153.481 48.5137C154.461 48.4829 155.442 48.4519 156.423 48.4209C157.322 48.3937 158.22 48.3704 159.119 48.3473C164.155 48.2439 164.155 48.2439 168.344 46.3338C169.467 45.0317 170.027 43.8899 170.428 42.3792C170.489 42.1651 170.549 41.951 170.611 41.7304C170.814 41.0078 171.011 40.2843 171.207 39.5608C171.352 39.0387 171.498 38.5167 171.644 37.9947C172.159 36.1422 172.663 34.2881 173.166 32.4338C173.241 32.1593 173.241 32.1593 173.317 31.8792C173.641 30.6857 173.964 29.4921 174.287 28.2985C174.4 27.8829 174.512 27.4674 174.625 27.0518C175.185 24.9821 175.745 22.9122 176.3 20.8415C177.682 15.6785 179.155 10.536 180.744 5.40602C186.909 4.9807 193.062 4.75867 199.249 4.63252C199.981 4.61745 200.713 4.60177 201.445 4.58592C233.767 3.88756 233.767 3.88756 249.823 4.2012Z" fill="#FFBB4E"/>
</g>
<defs>
<clipPath id="clip0_6059_27715">
<rect width="393" height="215" fill="white"/>
</clipPath>
</defs>
</svg>
