<svg width="126" height="126" viewBox="0 0 126 126" fill="none" xmlns="http://www.w3.org/2000/svg">
<path d="M39.8434 100.795V92.7851H17.5602L12.1308 100.795H39.8434ZM83.8549 92.7851V100.795H111.559L106.136 92.7851H83.8549ZM39.8434 109.084V103.677H14.694V126H22.8125V110.528C22.8125 109.727 23.4549 109.084 24.2509 109.084H39.8434ZM39.8434 126V111.963H25.6787V126H39.8434ZM83.8549 111.963V126H98.011V111.963H83.8549ZM83.8549 103.677V109.084H99.4473C100.235 109.084 100.875 109.727 100.875 110.528V126H108.994V103.677H83.8549ZM39.2095 79.8089H84.4887V76.2933H39.2095V79.8089ZM80.8435 73.4247L61.8491 59.011L42.8547 73.4247H80.8435ZM50.0235 126V114.026C50.0235 107.486 55.3398 102.143 61.8491 102.143C68.3584 102.143 73.6769 107.486 73.6769 114.026V126H80.9908V82.6882H42.7096V126H50.0235ZM70.8106 126V114.026C70.8106 109.075 66.7749 105.014 61.8491 105.014C56.9234 105.014 52.8812 109.078 52.8812 114.026V126H70.8106ZM63.5629 89.4516H60.1375V92.8922H63.5629V89.4516ZM58.6991 86.5787H64.9907C65.7867 86.5787 66.4291 87.2235 66.4291 88.014V94.3361C66.4291 95.1288 65.7867 95.7715 64.9907 95.7715H58.6991C57.9115 95.7715 57.2713 95.1288 57.2713 94.3361V88.014C57.2713 87.2235 57.9115 86.5787 58.6991 86.5787ZM75.4376 89.4516H72.0207V92.8922H75.4376V89.4516ZM70.5844 86.5787H76.876C77.6636 86.5787 78.3038 87.2235 78.3038 88.014V94.3361C78.3038 95.1288 77.6636 95.7715 76.876 95.7715H70.5844C69.7969 95.7715 69.1545 95.1288 69.1545 94.3361V88.014C69.1545 87.2235 69.7969 86.5787 70.5844 86.5787ZM51.6775 89.4516H48.2521V92.8922H51.6775V89.4516ZM46.8244 86.5787H53.1074C53.9035 86.5787 54.5438 87.2235 54.5438 88.014V94.3361C54.5438 95.1288 53.9035 95.7715 53.1074 95.7715H46.8244C46.0283 95.7715 45.3859 95.1288 45.3859 94.3361V88.014C45.3859 87.2235 46.0283 86.5787 46.8244 86.5787ZM44.4298 18.3363V15.4827H44.4213C44.4213 12.0636 49.1122 9.99191 55.12 9.19495C59.4161 8.61652 64.2757 8.61652 68.5697 9.19495C74.5796 9.99619 79.2685 12.0678 79.2685 15.4827V18.3363L90.6971 13.1326L61.8491 0L32.9926 13.1326L44.4298 18.3363ZM50.0278 22.2761C56.6033 19.7374 67.0907 19.7374 73.6662 22.2761C74.7056 22.6767 75.6297 23.1395 76.4087 23.6537V15.4827C76.4087 13.8331 72.804 12.6506 68.2005 12.0421C64.2416 11.5108 59.4503 11.5108 55.4892 12.0421C50.8793 12.6548 47.2832 13.8374 47.2832 15.4827H47.2747L47.2832 23.6537C48.0665 23.1395 48.9842 22.6767 50.0278 22.2761ZM61.8491 23.2552C57.6021 23.2552 53.7883 23.9065 51.0458 24.9669C46.0539 26.8907 46.0539 29.0695 51.0458 30.9955C56.9618 33.2792 66.73 33.2792 72.6461 30.9955C77.6465 29.0695 77.6465 26.8907 72.6461 24.9669C69.91 23.9065 66.0855 23.2552 61.8491 23.2552ZM23.5829 44.518C19.72 40.6446 13.0955 43.4018 13.0955 48.8819C13.0955 54.3642 19.72 57.1214 23.5829 53.248C25.9775 50.84 25.9775 46.9238 23.5829 44.518ZM19.242 39.8369C26.2549 39.8369 30.5425 47.5537 26.9614 53.5394C31.1038 54.3963 34.1707 58.0812 34.1707 62.413V66.1471C40.3961 58.4647 39.8199 47.288 32.8475 40.2826C25.3287 32.7286 13.1445 32.7286 5.63642 40.2826C-1.33601 47.288 -1.91224 58.4625 4.31322 66.1471V62.413C4.31322 58.0812 7.38006 54.3963 11.5119 53.5394C7.94136 47.5515 12.2204 39.8369 19.242 39.8369ZM10.7073 71.2866V64.9324C10.7073 63.0386 13.5735 63.0386 13.5735 64.9324V72.4285C17.2507 73.5703 21.2289 73.5703 24.9061 72.4285V64.9324C24.9061 63.0386 27.7724 63.0386 27.7724 64.9324V71.2866C29.0294 70.6589 30.216 69.8898 31.3023 69.0093V62.413C31.3023 59.011 28.5279 56.228 25.1494 56.228H24.49C23.0131 57.2971 21.2033 57.9269 19.2377 57.9269C17.2742 57.9269 15.4644 57.2992 13.979 56.228H13.3281C9.94324 56.228 7.17518 59.011 7.17518 62.413V69.0093C8.26576 69.8898 9.4417 70.6589 10.7073 71.2866ZM120.369 40.2847C112.852 32.7329 100.666 32.7329 93.1579 40.2847C85.6412 47.83 85.6412 60.0736 93.1579 67.6253C100.666 75.1707 112.852 75.1707 120.369 67.6253C127.877 60.0736 127.877 47.83 120.369 40.2847ZM110.75 44.2652C110.133 44.0124 109.476 43.8067 108.802 43.6782V43.6696C107.803 43.4725 107.666 42.5663 107.399 41.7265H106.125C105.856 42.5577 105.726 43.4725 104.727 43.6739C103.541 43.9031 102.006 44.4901 101.05 45.1778C100.147 45.8205 99.5007 45.3064 98.6065 44.8586L97.7058 45.7563L98.1754 46.6753C98.4016 47.1252 98.3867 47.6801 98.0857 48.13C97.3302 49.2633 96.7945 50.5423 96.5278 51.9048C96.3335 52.9074 95.4308 53.0381 94.5899 53.3145V54.5849C95.4265 54.8569 96.3335 54.9855 96.5278 55.9967C96.7625 57.1878 97.3473 58.7217 98.0281 59.6901C98.6705 60.5877 98.1583 61.2476 97.7058 62.1452L98.6065 63.0429L99.5242 62.5715V62.5801C99.9702 62.3509 100.523 62.3659 100.969 62.6594C102.089 63.4199 103.372 63.9576 104.727 64.2254C105.726 64.4204 105.856 65.333 106.125 66.1728H107.399C107.668 65.3416 107.796 64.4204 108.802 64.2254C109.988 63.9898 111.514 63.4028 112.479 62.7172C113.373 62.0724 114.028 62.5887 114.922 63.0429L115.815 62.1452L115.345 61.2154H115.354C115.127 60.7655 115.142 60.2107 115.435 59.7715C116.19 58.6382 116.726 57.3485 116.993 55.9967C117.187 54.9919 118.09 54.8527 118.93 54.5849V53.3145C118.094 53.0381 117.187 52.9053 116.993 51.9048C116.758 50.7136 116.173 49.1712 115.492 48.2092C114.85 47.303 115.362 46.6539 115.815 45.7563L114.922 44.8586L113.996 45.3235C113.55 45.5506 112.997 45.5356 112.56 45.2335C111.999 44.8607 111.39 44.5351 110.75 44.2652ZM110.18 41.0517C111.316 41.3537 112.404 41.8015 113.418 42.397C114.321 41.9322 115.317 41.1888 116.201 42.0864L118.572 44.4601C119.466 45.3578 118.711 46.3775 118.254 47.2666C118.847 48.2842 119.304 49.3682 119.603 50.5123C120.561 50.8315 121.788 51.0093 121.788 52.2733H121.797V55.6325C121.797 56.8965 120.546 57.0871 119.607 57.3849C119.306 58.5289 118.852 59.6215 118.258 60.6391C118.721 61.5518 119.46 62.548 118.576 63.4456L116.205 65.8193C115.311 66.717 114.297 65.9564 113.422 65.5001C112.408 66.0957 111.32 66.552 110.182 66.8541C109.873 67.816 109.687 69.05 108.439 69.05V69.0586H105.094C103.829 69.0586 103.647 67.801 103.34 66.8584C102.205 66.5563 101.125 66.0978 100.111 65.5023C99.204 65.9693 98.2031 66.7105 97.3195 65.8215L94.9485 63.4478C94.0542 62.5415 94.8183 61.5239 95.2664 60.6434C94.6731 59.6237 94.2271 58.5311 93.9176 57.3892C92.9594 57.0786 91.7322 56.89 91.7322 55.6368V52.2754C91.7322 51.0029 92.9829 50.8229 93.9176 50.5144C94.2271 49.3725 94.6731 48.2864 95.2664 47.2687C94.8012 46.3561 94.0628 45.3621 94.957 44.4644L97.3195 42.0886C98.2116 41.1823 99.2254 41.9514 100.111 42.4013C101.125 41.8036 102.205 41.3559 103.34 41.0538C103.658 40.0833 103.837 38.8515 105.094 38.8515H108.439C109.694 38.8493 109.873 40.1047 110.18 41.0517ZM109.719 50.9771C107.09 48.3356 102.576 50.2188 102.576 53.955C102.576 57.6934 107.09 59.5658 109.719 56.9243C111.348 55.2854 111.348 52.6182 109.719 50.9771ZM106.763 46.866C113.023 46.866 116.171 54.5077 111.747 58.9617C107.314 63.407 99.7077 60.2428 99.7077 53.955C99.7099 50.0388 102.866 46.866 106.763 46.866ZM20.0999 75.1771C19.6133 73.3497 22.375 72.6063 22.8616 74.4337L27.1705 90.5999C27.6571 92.4251 24.8976 93.1685 24.411 91.3411L20.0999 75.1771ZM63.279 56.9971C63.279 58.891 60.4128 58.891 60.4128 56.9971V34.6396C60.4128 32.7458 63.279 32.7458 63.279 34.6396V56.9971ZM100.83 74.4337C101.317 72.6063 104.085 73.3497 103.598 75.1771L99.2894 91.3261C98.8028 93.1535 96.0412 92.4123 96.5278 90.5849L100.83 74.4337Z" fill="#FFBB4F"/>
</svg>
