<svg width="109" height="189" viewBox="0 0 109 189" fill="none" xmlns="http://www.w3.org/2000/svg">
<g opacity="0.7" clip-path="url(#clip0_5634_12592)">
<path d="M105.349 9.22415C105.342 8.87807 105.335 8.53195 105.328 8.18584C105.319 7.71097 105.307 7.23619 105.295 6.76144C105.289 6.49257 105.283 6.22369 105.276 5.94667C105.203 5.04988 105.029 4.28519 104.808 3.42683C103.573 3.18448 102.337 2.94255 101.102 2.70103C100.682 2.61891 100.263 2.53667 99.8429 2.4543C99.2376 2.33554 98.6323 2.21722 98.027 2.09898C97.8411 2.06241 97.6551 2.02582 97.4636 1.98813C91.1728 0.762192 85.0028 1.81158 78.7236 2.69528C76.8755 2.95457 75.0268 3.20685 73.178 3.45924C72.5418 3.54675 71.9057 3.63612 71.2697 3.72586C68.9262 4.05252 66.5925 4.29506 64.2358 4.41573C63.5574 -0.0751343 63.0065 -4.58939 62.4743 -9.10907C62.4262 -9.51704 62.378 -9.92502 62.3299 -10.333C62.1321 -12.0115 61.9345 -13.6901 61.739 -15.369C61.6176 -16.4118 61.4948 -17.4545 61.3711 -18.4969C61.3247 -18.89 61.2788 -19.2832 61.2335 -19.6765C61.1706 -20.2211 61.1061 -20.7654 61.0411 -21.3097C61.005 -21.6182 60.9689 -21.9268 60.9317 -22.2447C60.8188 -22.9367 60.7159 -23.4292 60.4006 -24.0148C59.8935 -24.3193 59.8935 -24.3193 59.2076 -24.5836C59.0776 -24.6339 58.9476 -24.6841 58.8136 -24.7359C56.5117 -25.6013 54.1668 -26.298 51.8345 -27.0278C51.3368 -27.1847 50.8391 -27.3416 50.3415 -27.4986C48.0156 -28.2318 48.0156 -28.2318 47.0125 -28.5424C46.6828 -28.6461 46.3537 -28.7529 46.0259 -28.8653C42.2439 -30.1374 37.9988 -28.81 34.2117 -28.0605C33.0049 -27.8219 31.7974 -27.5878 30.5895 -27.3577C30.1745 -27.2778 29.76 -27.1946 29.3456 -27.1112C27.7059 -26.7953 26.1302 -26.6666 24.4709 -26.7343C24.3733 -30.4594 24.6781 -34.1245 24.9756 -37.8284C25.0483 -38.742 25.1206 -39.6556 25.1915 -40.5694C25.2354 -41.1333 25.2803 -41.6972 25.3263 -42.2609C25.7277 -47.3942 25.7277 -47.3942 24.6728 -48.9843C23.6118 -49.784 22.8231 -49.7594 21.645 -49.4787C20.6968 -49.1962 19.7583 -48.876 18.8191 -48.5516C18.5552 -48.4619 18.2914 -48.3722 18.0275 -48.2826C16.797 -47.8626 15.5735 -47.427 14.3615 -46.9324C11.0014 -45.5627 7.78322 -46.1138 4.3724 -46.9015C2.72761 -47.2795 1.11781 -47.6004 -0.558685 -47.6246C-0.768082 -47.6313 -0.768082 -47.6313 -0.981705 -47.6382C-3.38566 -47.6045 -5.81586 -46.3745 -8.06389 -45.4303C-10.7114 -44.3201 -13.3743 -43.2785 -16.0508 -42.2784C-16.2088 -42.2191 -16.3667 -42.1599 -16.5295 -42.0988C-16.9784 -41.9306 -17.4276 -41.7634 -17.8769 -41.5966C-18.0095 -41.547 -18.1421 -41.4974 -18.2787 -41.4464C-18.9614 -41.1948 -19.6383 -40.9801 -20.3402 -40.8259C-20.217 -42.8974 -19.79 -44.8525 -19.3561 -46.852C-19.2843 -47.188 -19.2125 -47.5241 -19.1409 -47.8602C-19.0702 -48.1905 -18.9995 -48.5208 -18.9288 -48.851C-18.8943 -49.0122 -18.8598 -49.1734 -18.8243 -49.3395C-18.6697 -50.0576 -18.5096 -50.7721 -18.3364 -51.4838C-18.2811 -51.7125 -18.2257 -51.9413 -18.1687 -52.1769C-18.0956 -52.4645 -18.0956 -52.4645 -18.0211 -52.7579C-17.9241 -53.3938 -17.9076 -53.9445 -17.9115 -54.5891C-17.9124 -54.7895 -17.9134 -54.9899 -17.9143 -55.1963C-17.9155 -55.3491 -17.9167 -55.5019 -17.9179 -55.6593C-22.3965 -55.6672 -26.8751 -55.672 -31.3537 -55.6747C-31.6105 -55.6749 -31.6105 -55.6749 -31.8725 -55.6751C-45.3964 -55.6833 -58.9196 -55.6108 -72.4432 -55.5044C-72.9987 -55.5 -73.5542 -55.4957 -74.1097 -55.4913C-75.6596 -55.4792 -77.2095 -55.4669 -78.7594 -55.4538C-80.5405 -55.4387 -82.3217 -55.4253 -84.1028 -55.4146C-84.3894 -55.4129 -84.676 -55.4111 -84.9626 -55.4092C-85.8148 -55.4036 -86.667 -55.3992 -87.5192 -55.3966C-87.8998 -55.3952 -88.2803 -55.3928 -88.6609 -55.3903C-91.6697 -55.385 -94.7351 -55.524 -97.7007 -56.1692C-98.6889 -56.3822 -99.6252 -56.4629 -100.627 -56.4318C-100.77 -56.4296 -100.913 -56.4274 -101.06 -56.4251C-101.404 -56.4194 -101.747 -56.4105 -102.09 -56.4009C-102.559 -55.3625 -102.791 -54.515 -102.894 -53.3372C-102.922 -53.0267 -102.951 -52.7163 -102.98 -52.3964C-103.008 -52.0571 -103.036 -51.7177 -103.064 -51.3783C-103.095 -51.019 -103.125 -50.6598 -103.156 -50.3006C-103.221 -49.5416 -103.284 -48.7825 -103.345 -48.0231C-103.406 -47.2695 -103.471 -46.5164 -103.538 -45.7636C-104.702 -32.7991 -104.01 -19.674 -103.76 -6.66301C-103.708 -3.94228 -103.657 -1.2215 -103.606 1.49927C-103.599 1.86168 -103.599 1.86168 -103.592 2.2314C-103.505 6.89299 -103.418 11.5546 -103.334 16.2163C-103.317 17.1686 -103.299 18.1209 -103.282 19.0732C-102.987 34.9982 -103.02 50.9021 -103.443 66.8222C-103.481 68.2617 -103.518 69.7013 -103.554 71.1409C-103.863 83.4249 -104.205 95.7075 -104.549 107.99C-104.58 109.1 -104.611 110.21 -104.642 111.32C-104.705 113.547 -104.767 115.773 -104.829 117.999C-104.835 118.183 -104.84 118.367 -104.845 118.556C-104.975 123.172 -105.105 127.787 -105.238 132.402C-105.319 135.218 -105.399 138.034 -105.478 140.851C-105.525 142.494 -105.572 144.137 -105.62 145.78C-105.956 157.33 -105.956 157.33 -105.982 161.666C-105.986 162.153 -105.991 162.641 -105.997 163.129C-105.997 163.552 -105.997 163.552 -105.997 163.984C-105.998 164.223 -105.999 164.461 -106 164.707C-105.91 165.49 -105.696 165.956 -105.32 166.593C-103.887 167.471 -101.631 166.698 -100.121 166.408C-99.8828 166.364 -99.6443 166.32 -99.3986 166.275C-98.6429 166.136 -97.8875 165.994 -97.1322 165.852C-96.1355 165.664 -95.1386 165.479 -94.1414 165.296C-93.8033 165.231 -93.8033 165.231 -93.4583 165.164C-91.3244 164.729 -91.3244 164.729 -89.194 164.986C-85.5884 166.037 -81.0814 164.851 -77.4077 164.477C-76.5177 164.387 -75.6275 164.3 -74.7374 164.212C-73.2457 164.064 -71.7542 163.915 -70.2627 163.764C-68.5459 163.591 -66.8289 163.42 -65.1119 163.25C-63.2701 163.068 -61.4284 162.885 -59.5867 162.7C-59.0614 162.648 -58.536 162.596 -58.0106 162.544C-57.1821 162.462 -56.3537 162.378 -55.5253 162.294C-55.2238 162.264 -54.9223 162.234 -54.6207 162.204C-47.7949 161.53 -47.7949 161.53 -45.1159 158.321C-40.473 153.056 -35.3272 149.628 -28.988 149.304C-28.5297 149.28 -28.0717 149.253 -27.6136 149.225C-26.474 149.156 -25.3342 149.092 -24.1944 149.029C-18.1446 148.694 -12.2526 148.039 -6.32407 146.429C-4.87696 146.039 -3.42842 145.666 -1.97164 145.332C-1.80266 145.293 -1.63367 145.254 -1.45956 145.214C3.22294 144.191 8.05273 144.481 12.7896 144.483C14.0243 144.483 15.2589 144.48 16.4936 144.471C17.0661 144.468 17.6385 144.471 18.211 144.474C18.5624 144.472 18.9139 144.47 19.2654 144.467C19.5001 144.47 19.5001 144.47 19.7395 144.474C21.0164 144.454 22.1113 144.034 23.0214 142.895C23.554 141.755 23.855 140.703 23.986 139.392C24.0087 139.195 24.0313 138.997 24.0546 138.794C24.3794 135.849 24.6209 132.891 24.8725 129.936C24.964 128.862 25.0574 127.787 25.1513 126.713C25.1826 126.354 25.2139 125.995 25.2453 125.636C25.2607 125.459 25.2761 125.283 25.2919 125.101C25.4666 123.098 25.6404 121.096 25.8126 119.093C25.8986 118.093 25.9871 117.094 26.0781 116.095C26.1217 115.61 26.1625 115.124 26.2032 114.638C26.6001 110.347 27.8965 106.877 30.5967 104.043C32.6133 102.192 34.865 101.414 37.3453 101.155C37.7086 101.112 37.7086 101.112 38.0793 101.069C40.7481 100.769 43.4237 100.592 46.0998 100.424C47.6311 100.328 49.1619 100.224 50.6928 100.119C50.8498 100.108 51.0069 100.097 51.1687 100.086C54.7026 99.8429 58.2327 99.5406 61.7625 99.2203C62.2156 99.1792 62.6689 99.1385 63.1221 99.0978C63.9644 99.022 64.8066 98.9448 65.6487 98.8672C65.8979 98.8445 66.147 98.8219 66.4037 98.7986C66.7481 98.7662 66.7481 98.7662 67.0995 98.7332C67.2981 98.7148 67.4966 98.6964 67.7011 98.6774C68.3014 98.6039 68.8901 98.4893 69.4839 98.3602C69.8322 96.5304 69.9762 94.7493 70.0453 92.8749C70.063 92.4445 70.063 92.4445 70.081 92.0054C70.1059 91.392 70.1301 90.7786 70.1537 90.1651C70.1907 89.204 70.2298 88.243 70.2692 87.2821C70.3902 84.3128 70.5021 81.3433 70.6004 78.3728C70.6246 77.6688 70.6489 76.9649 70.6732 76.2609C70.6945 75.616 70.7128 74.971 70.7309 74.326C70.812 70.7114 70.812 70.7114 72.3098 67.7046C73.3309 66.899 74.2263 66.4971 75.4109 66.2087C75.5788 66.1653 75.7467 66.122 75.9197 66.0773C76.4863 65.9318 77.0537 65.7907 77.6211 65.6496C78.0305 65.5454 78.4398 65.441 78.8491 65.3364C80.3018 64.9667 81.7557 64.6045 83.2098 64.2435C83.4251 64.19 83.4251 64.19 83.6447 64.1355C84.5806 63.9032 85.5166 63.6711 86.4526 63.4391C86.7785 63.3584 87.1044 63.2776 87.4302 63.1968C89.0533 62.7945 90.6764 62.3926 92.3002 61.9947C96.3489 61.0022 100.382 59.9452 104.404 58.8046C104.738 54.3801 104.912 49.9638 105.011 45.5229C105.023 44.9974 105.035 44.472 105.047 43.9466C105.595 20.7478 105.595 20.7478 105.349 9.22415Z" fill="#FFBB4E"/>
</g>
<defs>
<clipPath id="clip0_5634_12592">
<rect width="189" height="217.507" fill="white" transform="matrix(0 -1 -1 0 108.507 189)"/>
</clipPath>
</defs>
</svg>
