<svg width="119" height="127" viewBox="0 0 119 127" fill="none" xmlns="http://www.w3.org/2000/svg">
<path d="M118.204 82.8853C118.15 83.0639 118.097 83.2425 118.042 83.4266C116.157 89.6271 113.354 95.4662 109.591 100.612C109.507 100.729 109.424 100.845 109.337 100.965C109.212 101.137 109.212 101.137 109.085 101.312C109.013 101.412 108.941 101.511 108.866 101.614C106.662 104.438 103.983 106.071 100.919 107.655C100.559 107.843 100.2 108.031 99.8408 108.219C93.8352 111.347 88.0472 113.567 81.3042 113.523C80.9735 113.523 80.6427 113.523 80.312 113.523C79.6257 113.523 78.9395 113.521 78.2532 113.518C77.3827 113.513 76.5123 113.513 75.6418 113.514C74.9611 113.515 74.2804 113.513 73.5998 113.511C73.2791 113.511 72.9584 113.51 72.6378 113.511C69.9673 113.511 67.3341 113.367 64.75 112.581C64.5249 112.515 64.5249 112.515 64.2952 112.448C63.8261 112.309 63.3582 112.167 62.8907 112.023C62.7377 111.976 62.5847 111.929 62.4271 111.88C61.4948 111.592 60.5654 111.294 59.6375 110.991C59.1716 110.839 58.7051 110.69 58.2385 110.54C54.3915 109.296 50.8133 107.59 47.2202 105.681C43.6244 103.411 43.6244 103.411 39.7318 102.242C39.4171 102.677 39.1434 103.103 38.8705 103.567C38.6988 103.849 38.5268 104.132 38.3547 104.414C38.266 104.561 38.1774 104.708 38.0861 104.859C36.0585 108.185 33.8988 111.405 31.3104 114.264C31.1836 114.41 31.0568 114.555 30.9261 114.705C26.8814 119.227 21.0853 121.867 15.7715 124.248C15.6503 124.303 15.5292 124.357 15.4044 124.413C9.62099 127.004 4.55204 127.523 -1.62755 126.527C-2.01958 126.466 -2.41165 126.406 -2.80375 126.345C-3.62045 126.219 -4.4368 126.091 -5.25294 125.96C-6.2743 125.797 -7.29616 125.639 -8.31826 125.481C-14.9339 124.46 -21.5187 123.298 -28.0581 121.816C-28.4432 121.729 -28.8284 121.642 -29.2136 121.556C-29.9811 121.383 -30.7484 121.209 -31.5155 121.034C-32.4012 120.832 -33.2876 120.635 -34.1743 120.438C-34.8111 120.296 -35.4473 120.152 -36.0833 120.006C-36.3744 119.94 -36.6657 119.875 -36.9571 119.811C-39.7817 119.189 -41.6464 118.102 -43.5125 115.769C-43.9993 115.171 -44.5028 114.59 -45.0085 114.009C-45.2086 113.779 -45.4088 113.549 -45.6089 113.319C-45.7582 113.148 -45.7582 113.148 -45.9105 112.973C-46.4521 112.349 -46.991 111.723 -47.5293 111.096C-47.9675 110.586 -48.4069 110.077 -48.8492 109.571C-49.8462 108.427 -50.8006 107.259 -51.7201 106.043C-52.1369 105.504 -52.5693 104.987 -53.0112 104.471C-53.6902 103.676 -54.329 102.859 -54.9536 102.015C-55.3936 101.425 -55.8403 100.841 -56.2884 100.257C-57.3211 98.9113 -58.3333 97.553 -59.3236 96.1718C-59.9951 95.2357 -60.6812 94.3118 -61.3661 93.3868C-61.7211 92.9074 -62.0744 92.4266 -62.4263 91.9446C-62.6014 91.7052 -62.7766 91.4659 -62.9519 91.2267C-63.0383 91.1085 -63.1247 90.9903 -63.2137 90.8685C-63.7319 90.1655 -64.2686 89.4865 -64.8235 88.8162C-67.3836 85.7057 -68.3544 82.2622 -69.2611 78.3031C-69.3866 77.7572 -69.5152 77.2122 -69.644 76.6671C-71.9211 66.8683 -71.0797 56.4214 -68.9701 46.681C-68.6075 44.9519 -68.3576 43.2096 -68.1084 41.4589C-67.1777 34.9282 -65.7676 28.7467 -63.0475 22.7767C-62.9906 22.6473 -62.9337 22.5179 -62.8751 22.3846C-61.5861 19.4631 -59.4525 17.12 -56.8272 15.5178C-56.6891 15.4324 -56.5511 15.3471 -56.4088 15.2591C-54.6817 14.2043 -52.9086 13.2411 -51.1385 12.2713C-50.6497 12.0012 -50.1638 11.7263 -49.679 11.4482C-46.2485 9.4811 -42.8463 7.763 -39.082 6.64911C-37.9534 6.31291 -36.8664 5.95086 -35.7887 5.45961C-34.2442 4.75761 -32.7119 4.20644 -31.0808 3.77625C-30.8529 3.71601 -30.625 3.65576 -30.3902 3.59369C-27.139 2.75867 -23.846 2.13644 -20.5568 1.49741C-19.848 1.35903 -19.1397 1.2182 -18.4313 1.07739C-17.7428 0.940837 -17.0541 0.805707 -16.3653 0.671014C-16.0396 0.607165 -15.7139 0.542912 -15.3883 0.478225C-14.9361 0.388627 -14.4837 0.300928 -14.0311 0.213721C-13.9 0.187382 -13.769 0.161047 -13.634 0.13391C-10.3395 -0.490527 -7.40321 1.20076 -4.41273 2.48386C-3.78003 2.75521 -3.14664 3.02469 -2.51313 3.29392C-0.661613 4.08335 1.18472 4.88243 3.00855 5.7422C3.14262 5.80528 3.27667 5.86837 3.41479 5.93336C7.67789 7.97219 11.0962 11.1309 14.4686 14.5039C15.2906 15.3217 16.1455 16.083 17.0238 16.8319C17.5603 17.3018 18.0716 17.7931 18.5826 18.294C19.4226 19.1162 20.2877 19.8911 21.1754 20.6539C21.8236 21.219 22.4583 21.7991 23.0924 22.3819C23.9792 23.1954 24.8758 23.9896 25.7943 24.7625C26.5188 25.3789 27.2338 26.0071 27.949 26.6354C28.1612 26.8217 28.1612 26.8217 28.3778 27.0119C28.6548 27.2552 28.9319 27.4986 29.2089 27.7419C30.0349 28.4667 30.8642 29.1873 31.6932 29.9082C32.2903 30.4274 32.8872 30.947 33.4835 31.4673C33.7107 31.6654 33.9379 31.8634 34.1652 32.0614C34.9972 32.7865 35.8272 33.5141 36.6551 34.2445C36.9045 34.4644 37.1543 34.6838 37.4046 34.9026C38.6794 36.0188 39.8663 37.1763 41.0095 38.4455C42.9928 40.6379 45.0141 42.3368 47.9618 42.745C48.7387 42.6727 49.0658 42.469 49.5767 41.8535C52.826 38.2333 57.1714 35.8172 61.2262 33.3888C62.3897 32.6918 63.5495 31.9881 64.7089 31.2836C64.8206 31.2158 64.9323 31.148 65.0473 31.0781C66.807 30.0091 68.552 28.9165 70.2848 27.799C70.4877 27.6685 70.4877 27.6685 70.6947 27.5354C71.0012 27.3368 71.3065 27.1361 71.6109 26.934C71.7763 26.8255 71.9417 26.7169 72.112 26.6051C72.261 26.5063 72.41 26.4074 72.5635 26.3055C75.2562 24.7696 78.65 25.7925 81.465 26.4332C81.8454 26.5173 82.226 26.6012 82.6065 26.6848C83.3996 26.8598 84.1922 27.0371 84.9845 27.2162C85.9877 27.4429 86.9917 27.6652 87.996 27.886C88.7809 28.0588 89.5655 28.2333 90.3499 28.4084C90.7194 28.4908 91.089 28.5728 91.4586 28.6545C93.3912 29.0829 95.3054 29.5531 97.206 30.123C97.3674 30.171 97.5289 30.2189 97.6952 30.2683C99.8028 30.9184 101.712 31.9631 103.598 33.1429C105.076 34.0674 106.629 34.794 108.195 35.5331C108.363 35.6143 108.531 35.6956 108.705 35.7793C109.038 35.939 109.372 36.0941 109.709 36.2443C111.976 37.3226 112.93 39.2511 113.933 41.5734C114.037 41.8053 114.141 42.0372 114.248 42.2762C115.597 45.3295 116.464 48.0575 116.653 51.427C116.681 51.892 116.71 52.357 116.739 52.8221C116.753 53.0644 116.768 53.3067 116.783 53.5564C117.025 57.5508 117.312 61.5362 117.725 65.5149C117.745 65.7081 117.765 65.9013 117.786 66.1004C118.029 68.4179 118.315 70.7235 118.647 73.0285C119.132 76.4581 119.232 79.5563 118.204 82.8853Z" fill="#AEC441" fill-opacity="0.7"/>
</svg>
