<svg width="130" height="211" viewBox="0 0 130 211" fill="none" xmlns="http://www.w3.org/2000/svg">
<path d="M219.823 0.201196C220.305 0.21057 220.787 0.219339 221.269 0.227433C221.931 0.239076 222.592 0.25437 223.254 0.269805C223.628 0.277893 224.003 0.285981 224.389 0.294314C225.638 0.387568 226.704 0.609868 227.9 0.891203C228.237 2.46641 228.574 4.04169 228.911 5.61704C229.025 6.15232 229.14 6.68758 229.255 7.22282C229.42 7.99466 229.585 8.76656 229.75 9.53848C229.801 9.7756 229.852 10.0127 229.904 10.257C231.612 18.2792 230.15 26.1474 228.919 34.1548C228.558 36.5115 228.206 38.8691 227.855 41.2267C227.733 42.038 227.608 42.8491 227.483 43.6602C227.028 46.6487 226.69 49.6247 226.522 52.6301C232.779 53.4951 239.068 54.1977 245.365 54.8764C245.934 54.9377 246.502 54.9991 247.071 55.0605C249.409 55.3128 251.748 55.5648 254.087 55.814C255.54 55.9689 256.993 56.1255 258.445 56.2832C258.993 56.3424 259.541 56.4009 260.089 56.4587C260.847 56.5388 261.606 56.6211 262.364 56.704C262.794 56.75 263.224 56.7961 263.667 56.8435C264.631 56.9875 265.317 57.1187 266.133 57.5208C266.557 58.1674 266.557 58.1674 266.926 59.0422C266.996 59.2079 267.066 59.3737 267.138 59.5445C268.343 62.48 269.314 65.4704 270.331 68.4446C270.549 69.0792 270.768 69.7139 270.987 70.3485C272.008 73.3146 272.008 73.3146 272.441 74.5937C272.586 75.0142 272.734 75.4338 272.891 75.8518C274.663 80.6748 272.814 86.0883 271.77 90.9176C271.437 92.4566 271.111 93.9964 270.791 95.5368C270.679 96.066 270.563 96.5945 270.447 97.1231C270.007 99.214 269.828 101.223 269.922 103.339C275.112 103.464 280.218 103.075 285.379 102.696C286.652 102.603 287.925 102.511 289.198 102.42C289.984 102.364 290.769 102.307 291.554 102.249C298.707 101.737 298.707 101.737 300.922 103.082C302.036 104.435 302.002 105.441 301.611 106.943C301.217 108.152 300.771 109.349 300.319 110.547C300.194 110.883 300.069 111.22 299.944 111.556C299.359 113.125 298.752 114.686 298.063 116.231C296.155 120.516 296.923 124.62 298.02 128.97C298.547 131.067 298.994 133.12 299.027 135.258C299.037 135.525 299.037 135.525 299.046 135.797C299 138.863 297.286 141.962 295.97 144.829C294.424 148.205 292.972 151.601 291.579 155.014C291.496 155.215 291.414 155.417 291.329 155.624C291.094 156.197 290.861 156.77 290.629 157.343C290.56 157.512 290.491 157.681 290.42 157.855C290.069 158.726 289.77 159.589 289.555 160.484C292.441 160.327 295.165 159.782 297.951 159.229C298.419 159.137 298.888 159.046 299.356 158.954C299.816 158.864 300.276 158.774 300.736 158.684C300.961 158.64 301.185 158.596 301.417 158.551C302.417 158.354 303.413 158.149 304.404 157.929C304.723 157.858 305.042 157.787 305.37 157.715C305.771 157.622 305.771 157.622 306.18 157.527C307.066 157.403 307.833 157.382 308.731 157.387C309.01 157.388 309.289 157.389 309.577 157.39C309.79 157.392 310.003 157.393 310.222 157.395C310.233 163.106 310.24 168.817 310.243 174.529C310.244 174.856 310.244 174.856 310.244 175.19C310.255 192.436 310.154 209.681 310.006 226.927C310 227.636 309.994 228.344 309.988 229.052C309.971 231.029 309.954 233.005 309.936 234.982C309.915 237.253 309.896 239.524 309.881 241.796C309.879 242.161 309.876 242.527 309.874 242.892C309.866 243.979 309.86 245.066 309.856 246.153C309.854 246.638 309.851 247.123 309.847 247.608C309.84 251.445 310.034 255.354 310.932 259.136C311.229 260.396 311.342 261.59 311.298 262.868C311.295 263.05 311.292 263.233 311.289 263.421C311.281 263.858 311.269 264.296 311.255 264.734C309.808 265.332 308.628 265.627 306.987 265.759C306.554 265.795 306.122 265.831 305.676 265.868C305.203 265.904 304.73 265.94 304.257 265.976C303.757 266.015 303.256 266.054 302.756 266.093C301.698 266.176 300.641 266.256 299.583 266.334C298.533 266.412 297.484 266.494 296.435 266.58C278.372 268.064 260.085 267.182 241.957 266.864C238.167 266.797 234.376 266.732 230.585 266.667C230.08 266.658 230.08 266.658 229.565 266.649C223.07 266.538 216.576 266.428 210.081 266.32C208.754 266.298 207.427 266.276 206.1 266.253C183.913 265.878 161.754 265.92 139.574 266.459C137.568 266.507 135.562 266.554 133.556 266.601C116.442 266.995 99.3289 267.431 82.2162 267.869C80.6695 267.909 79.1228 267.949 77.576 267.988C74.4745 268.068 71.3731 268.147 68.2716 268.227C68.0151 268.234 67.7587 268.24 67.4945 268.247C61.0643 268.412 54.6343 268.579 48.2043 268.748C44.2805 268.851 40.3567 268.953 36.4328 269.054C34.1436 269.114 31.8544 269.174 29.5653 269.235C13.4734 269.664 13.4734 269.664 7.43229 269.697C6.75245 269.701 6.07265 269.709 5.39287 269.716C4.80331 269.716 4.8033 269.716 4.20184 269.716C3.86967 269.717 3.5375 269.718 3.19527 269.72C2.10445 269.605 1.45393 269.332 0.566375 268.852C-0.655915 267.025 0.42025 264.149 0.824709 262.223C0.885871 261.919 0.947034 261.615 1.01005 261.301C1.20398 260.338 1.40143 259.374 1.59971 258.411C1.86097 257.14 2.11878 255.869 2.37471 254.597C2.46512 254.166 2.46512 254.166 2.55736 253.726C3.16378 251.005 3.16378 251.005 2.80604 248.288C1.34205 243.69 2.99456 237.943 3.51455 233.258C3.63993 232.123 3.76201 230.988 3.88455 229.853C4.0904 227.951 4.29858 226.048 4.50831 224.147C4.74972 221.957 4.98796 219.768 5.22439 217.578C5.47802 215.229 5.73391 212.881 5.99049 210.532C6.06354 209.862 6.13617 209.192 6.20871 208.522C6.32323 207.466 6.43928 206.409 6.55646 205.353C6.59889 204.968 6.64085 204.584 6.68224 204.199C7.62075 195.495 7.62074 195.495 12.0918 192.079C19.4277 186.158 24.2042 179.596 24.6553 171.512C24.6881 170.927 24.7261 170.343 24.7652 169.759C24.8616 168.306 24.9501 166.852 25.0378 165.399C25.5045 157.684 26.418 150.17 28.6601 142.61C29.2047 140.765 29.7244 138.917 30.1886 137.06C30.2429 136.844 30.2972 136.629 30.3531 136.407C31.7782 130.435 31.3745 124.276 31.3723 118.236C31.3718 116.661 31.3765 115.087 31.389 113.512C31.3927 112.782 31.3886 112.052 31.3843 111.322C31.3873 110.874 31.3908 110.426 31.3947 109.978C31.3897 109.678 31.3897 109.678 31.3846 109.373C31.413 107.745 31.9974 106.348 33.5843 105.188C35.1728 104.509 36.6389 104.125 38.4647 103.958C38.74 103.929 39.0153 103.9 39.2989 103.87C43.4008 103.456 47.5228 103.148 51.6394 102.827C53.1367 102.711 54.6336 102.591 56.1305 102.472C56.6308 102.432 57.1311 102.392 57.6314 102.352C57.8772 102.332 58.123 102.313 58.3762 102.292C61.1664 102.07 63.9568 101.848 66.7475 101.629C68.1399 101.519 69.5318 101.406 70.9233 101.29C71.5998 101.234 72.2767 101.182 72.9536 101.13C78.9329 100.624 83.7666 98.971 87.7149 95.5276C90.2943 92.956 91.3786 90.0846 91.7392 86.9216C91.7987 86.4583 91.7987 86.4583 91.8593 85.9856C92.2766 82.5822 92.523 79.1702 92.7571 75.7575C92.8912 73.8049 93.0365 71.8527 93.1829 69.9005C93.1979 69.7002 93.2129 69.4999 93.2283 69.2936C93.5673 64.787 93.9884 60.2854 94.4346 55.7841C94.4919 55.2062 94.5486 54.6283 94.6053 54.0503C94.7109 52.9762 94.8185 51.9022 94.9267 50.8282C94.9582 50.5105 94.9897 50.1928 95.0222 49.8655C95.0673 49.4263 95.0673 49.4263 95.1133 48.9781C95.1389 48.725 95.1646 48.4718 95.1911 48.2109C95.2935 47.4455 95.4531 46.6948 95.633 45.9375C98.1824 45.4934 100.664 45.3097 103.275 45.2216C103.875 45.1991 103.875 45.1991 104.487 45.1761C105.341 45.1443 106.196 45.1134 107.051 45.0833C108.39 45.0361 109.729 44.9864 111.068 44.936C115.205 44.7818 119.342 44.639 123.481 44.5137C124.461 44.4829 125.442 44.4519 126.423 44.4209C127.322 44.3937 128.22 44.3704 129.119 44.3473C134.155 44.2439 134.155 44.2439 138.344 42.3338C139.467 41.0317 140.027 39.8899 140.428 38.3792C140.489 38.1651 140.549 37.951 140.611 37.7304C140.814 37.0078 141.011 36.2843 141.207 35.5608C141.352 35.0387 141.498 34.5167 141.644 33.9947C142.159 32.1422 142.663 30.2881 143.166 28.4338C143.241 28.1593 143.241 28.1593 143.317 27.8792C143.641 26.6857 143.964 25.4921 144.287 24.2985C144.4 23.8829 144.512 23.4674 144.625 23.0518C145.185 20.9821 145.745 18.9122 146.3 16.8415C147.682 11.6785 149.155 6.53597 150.744 1.40602C156.909 0.980697 163.062 0.758668 169.249 0.632521C169.981 0.617447 170.713 0.601773 171.445 0.585924C203.767 -0.112438 203.767 -0.112438 219.823 0.201196Z" fill="#FFBB4E"/>
</svg>
