<svg width="513" height="189" viewBox="0 0 513 189" fill="none" xmlns="http://www.w3.org/2000/svg">
<path d="M510.751 223.731C510.606 224.213 510.462 224.695 510.313 225.192C505.226 241.929 497.658 257.69 487.501 271.581C487.275 271.895 487.048 272.209 486.815 272.532C486.478 272.996 486.478 272.996 486.134 273.469C485.939 273.738 485.744 274.007 485.543 274.284C479.593 281.908 472.361 286.314 464.089 290.59C463.119 291.098 462.15 291.606 461.18 292.114C444.968 300.556 429.343 306.549 411.141 306.43C410.248 306.43 409.355 306.43 408.462 306.431C406.61 306.431 404.757 306.426 402.905 306.416C400.555 306.403 398.205 306.403 395.855 306.406C394.018 306.408 392.18 306.405 390.343 306.399C389.477 306.397 388.612 306.396 387.746 306.397C380.537 306.399 373.429 306.01 366.453 303.887C365.846 303.709 365.846 303.709 365.225 303.528C363.959 303.154 362.696 302.77 361.434 302.381C361.021 302.254 360.608 302.127 360.183 301.996C357.666 301.218 355.157 300.415 352.652 299.595C351.395 299.185 350.135 298.782 348.876 298.379C338.491 295.019 328.832 290.414 319.132 285.262C309.425 279.136 309.425 279.136 298.917 275.981C298.068 277.155 297.329 278.304 296.592 279.556C296.129 280.319 295.665 281.081 295.2 281.844C294.961 282.239 294.721 282.635 294.475 283.043C289.001 292.022 283.171 300.714 276.184 308.431C275.842 308.823 275.499 309.216 275.147 309.621C264.228 321.827 248.582 328.954 234.237 335.381C233.91 335.528 233.583 335.675 233.246 335.827C217.634 342.819 203.951 344.221 187.269 341.532C186.211 341.368 185.152 341.204 184.094 341.041C181.889 340.701 179.685 340.354 177.482 340.002C174.725 339.562 171.967 339.133 169.208 338.708C151.349 335.953 133.573 332.816 115.921 328.815C114.881 328.581 113.841 328.347 112.801 328.113C110.729 327.646 108.658 327.176 106.587 326.705C104.196 326.161 101.804 325.626 99.4099 325.096C97.691 324.713 95.9736 324.323 94.2565 323.931C93.4708 323.752 92.6846 323.577 91.8978 323.404C84.2729 321.724 79.2392 318.792 74.2018 312.493C72.8875 310.877 71.5284 309.31 70.1633 307.743C69.623 307.122 69.0828 306.501 68.5426 305.88C68.1396 305.417 68.1396 305.417 67.7285 304.945C66.2663 303.262 64.8118 301.571 63.3586 299.879C62.1757 298.503 60.9894 297.13 59.7956 295.763C57.1042 292.676 54.5276 289.522 52.0456 286.239C50.9205 284.785 49.7533 283.388 48.5602 281.996C46.7273 279.85 45.0028 277.646 43.3168 275.368C42.1291 273.774 40.9232 272.197 39.7135 270.621C36.9258 266.989 34.1933 263.323 31.5202 259.595C29.7074 257.068 27.8554 254.574 26.0064 252.077C25.0482 250.783 24.0945 249.485 23.1446 248.184C22.6718 247.538 22.1989 246.892 21.7258 246.246C21.4925 245.927 21.2592 245.608 21.0189 245.28C19.6202 243.382 18.1714 241.549 16.6732 239.74C9.76239 231.344 7.14172 222.049 4.69418 211.362C4.35535 209.888 4.00818 208.417 3.66058 206.946C-2.48645 180.496 -0.215088 152.297 5.47977 126.005C6.45837 121.338 7.13315 116.635 7.80576 111.909C10.3182 94.2809 14.1247 77.5955 21.4674 61.4807C21.621 61.1314 21.7746 60.7821 21.9329 60.4223C25.4127 52.5364 31.1721 46.2115 38.2591 41.8869C38.6318 41.6565 39.0045 41.4261 39.3885 41.1887C44.0509 38.3413 48.8373 35.7415 53.6155 33.1237C54.935 32.3946 56.2467 31.6527 57.5554 30.902C66.816 25.5921 76.0003 20.9545 86.1619 17.9478C89.2083 17.0403 92.1427 16.063 95.052 14.737C99.2214 12.8421 103.358 11.3543 107.761 10.1932C108.376 10.0305 108.991 9.86792 109.625 9.70037C118.402 7.44643 127.291 5.76684 136.17 4.04192C138.083 3.6684 139.996 3.28826 141.908 2.90818C143.766 2.53958 145.625 2.17483 147.485 1.81125C148.364 1.63891 149.243 1.46547 150.122 1.29086C151.343 1.04901 152.564 0.812289 153.786 0.576893C154.14 0.505798 154.494 0.434711 154.858 0.361461C163.751 -1.32407 171.678 3.24118 179.75 6.70464C181.458 7.43708 183.168 8.16448 184.878 8.89121C189.876 11.0221 194.861 13.179 199.784 15.4998C200.146 15.6701 200.508 15.8404 200.881 16.0158C212.389 21.5192 221.616 30.0454 230.72 39.1501C232.939 41.3575 235.247 43.4126 237.618 45.434C239.066 46.7023 240.446 48.0285 241.826 49.3807C244.093 51.6 246.429 53.6917 248.825 55.7508C250.575 57.2759 252.288 58.842 254 60.415C256.394 62.611 258.814 64.7547 261.294 66.841C263.249 68.5047 265.179 70.2003 267.11 71.8963C267.683 72.3994 267.683 72.3994 268.267 72.9126C269.015 73.5694 269.763 74.2263 270.511 74.8831C272.741 76.8395 274.979 78.7848 277.217 80.7307C278.829 82.1322 280.441 83.5346 282.05 84.9389C282.664 85.4737 283.277 86.0083 283.89 86.5427C286.136 88.5 288.377 90.4638 290.612 92.4356C291.285 93.0291 291.96 93.6214 292.635 94.2118C296.077 97.2247 299.281 100.349 302.367 103.775C307.72 109.693 313.177 114.279 321.134 115.381C323.231 115.186 324.114 114.636 325.493 112.974C334.265 103.202 345.995 96.6806 356.941 90.1258C360.082 88.2443 363.213 86.3447 366.342 84.4432C366.644 84.2601 366.945 84.0771 367.256 83.8886C372.006 81.003 376.717 78.0538 381.394 75.0373C381.942 74.685 381.942 74.685 382.501 74.3256C383.328 73.7896 384.152 73.2479 384.974 72.7025C385.421 72.4095 385.867 72.1165 386.327 71.8146C386.729 71.5478 387.131 71.281 387.546 71.006C394.814 66.8601 403.976 69.6213 411.575 71.3506C412.602 71.5777 413.629 71.804 414.656 72.0297C416.797 72.5021 418.937 72.9806 421.076 73.4641C423.784 74.0761 426.494 74.6762 429.205 75.2721C431.324 75.7386 433.442 76.2097 435.56 76.6823C436.557 76.9046 437.555 77.1261 438.552 77.3464C443.769 78.5028 448.937 79.7722 454.067 81.3105C454.503 81.4399 454.939 81.5693 455.388 81.7026C461.077 83.4573 466.232 86.2773 471.323 89.4619C475.313 91.9573 479.504 93.9188 483.731 95.9137C484.185 96.133 484.64 96.3523 485.108 96.5783C486.006 97.0094 486.91 97.4281 487.819 97.8336C493.939 100.744 496.515 105.95 499.223 112.218C499.503 112.844 499.783 113.47 500.071 114.115C503.714 122.357 506.053 129.721 506.563 138.816C506.64 140.071 506.717 141.326 506.795 142.581C506.834 143.236 506.874 143.89 506.914 144.564C507.568 155.346 508.344 166.103 509.459 176.843C509.513 177.365 509.567 177.886 509.623 178.423C510.278 184.679 511.052 190.902 511.946 197.124C513.256 206.382 513.525 214.745 510.751 223.731Z" fill="#883D05"/>
</svg>
