<svg width="309" height="335" viewBox="0 0 309 335" fill="none" xmlns="http://www.w3.org/2000/svg">
<g opacity="0.7">
<path d="M173.187 208.497C173.26 209.376 173.242 210.078 172.771 210.818C170.15 213.529 166.112 214.224 162.69 214.997C162.457 215.051 162.225 215.104 161.985 215.16C157.878 216.094 153.794 216.595 149.608 216.871C149.393 216.885 149.178 216.899 148.956 216.913C148.38 216.95 147.805 216.982 147.229 217.013C146.139 217.09 145.072 217.266 143.991 217.444C141.224 217.853 138.471 217.854 135.682 217.868C135.116 217.873 134.55 217.878 133.984 217.884C132.504 217.898 131.024 217.908 129.545 217.918C127.179 217.935 124.814 217.955 122.449 217.977C121.633 217.984 120.816 217.989 120 217.994C117.462 218.013 114.94 218.081 112.408 218.261C110.623 218.386 108.846 218.41 107.058 218.401C106.583 218.4 106.583 218.4 106.098 218.399C105.107 218.398 104.116 218.394 103.125 218.39C102.444 218.388 101.764 218.387 101.083 218.386C99.433 218.382 97.7832 218.377 96.1334 218.37C95.4917 220.048 95.4748 221.546 95.4919 223.331C95.4943 223.796 95.4943 223.796 95.4969 224.27C95.5404 228.215 95.8048 232.146 96.0575 236.08C96.1815 238.026 96.2988 239.973 96.4162 241.919C96.4356 242.241 96.4356 242.241 96.4555 242.569C96.695 246.54 96.866 250.512 97.0096 254.488C97.2805 261.787 97.8398 268.977 98.894 276.2C100.023 284.184 100.023 284.184 99.2806 287.232C85.4638 287.292 85.4638 287.292 80.6119 287.115C80.3158 287.106 80.0197 287.096 79.7147 287.086C78.3575 287.027 77.0695 286.89 75.7365 286.608C72.6385 286.083 69.496 286.218 66.3689 286.229C65.6702 286.23 64.9714 286.23 64.2727 286.23C62.8115 286.23 61.3504 286.233 59.8892 286.237C58.0332 286.242 56.1772 286.244 54.3212 286.243C52.8783 286.243 51.4354 286.245 49.9924 286.247C49.3091 286.248 48.6257 286.249 47.9423 286.249C44.4512 286.252 40.9709 286.283 37.4853 286.512C35.855 286.615 34.2479 286.59 32.6167 286.514C27.9135 286.395 23.207 287.569 18.5973 288.472C17.5923 286.394 17.4197 284.253 17.1645 281.945C17.1153 281.519 17.0659 281.093 17.0163 280.667C16.9131 279.776 16.8118 278.884 16.712 277.993C16.5853 276.86 16.4555 275.728 16.3244 274.596C16.1981 273.505 16.0732 272.413 15.9485 271.321C15.9026 270.92 15.8568 270.518 15.8094 270.105C15.4012 266.462 15.1193 262.914 15.1964 259.243C15.3195 250.664 15.1659 242.209 14.395 233.666C14.376 233.455 14.3569 233.243 14.3372 233.025C13.7881 226.97 13.1705 220.919 12.4384 214.886C11.9928 211.171 11.7657 207.767 12.589 204.102C16.2707 203.641 19.9376 203.326 23.64 203.152C24.0278 203.133 24.0278 203.133 24.4235 203.114C30.797 202.805 37.1733 202.658 43.5523 202.563C44.3038 202.552 45.0553 202.538 45.8068 202.524C50.6404 202.436 55.3895 202.553 60.2023 203.062C63.8136 203.444 67.404 203.599 71.031 203.67C74.6895 203.742 78.3355 203.899 81.9888 204.121C85.0464 204.304 88.0991 204.474 91.1622 204.49C91.5509 204.494 91.5509 204.494 91.9474 204.498C93.1855 204.492 94.1486 204.42 95.2751 203.792C95.7165 201.46 95.3191 199.451 94.8817 197.142C94.1768 193.31 93.789 189.77 93.7909 185.859C93.7907 185.458 93.7905 185.057 93.7903 184.644C93.8014 182.442 93.8814 180.289 94.1306 178.105C94.4027 175.577 94.5343 173.049 94.581 170.506C94.5905 170.074 94.6041 169.642 94.6221 169.209C94.7443 166.149 94.2888 164.317 92.6921 161.877C91.1603 159.459 90.9005 156.888 90.9063 154.032C90.9068 153.731 90.9073 153.43 90.9079 153.119C90.9578 148.387 91.3328 143.664 91.6697 138.948C91.7699 137.544 91.8647 136.139 91.9581 134.734C92.0316 133.64 92.1082 132.546 92.1857 131.452C92.222 130.934 92.2573 130.416 92.2914 129.897C92.3393 129.175 92.3917 128.454 92.445 127.733C92.4645 127.419 92.4645 127.419 92.4843 127.099C92.6734 124.688 93.2624 122.866 94.989 121.282C95.8367 120.823 96.602 120.931 97.5461 120.933C97.9027 120.933 98.2594 120.932 98.6268 120.931C99.5127 120.947 100.38 121.026 101.261 121.127C103.133 121.315 104.993 121.328 106.872 121.328C107.246 121.329 107.621 121.33 108.007 121.331C109.027 121.333 110.047 121.334 111.067 121.334C111.709 121.335 112.351 121.335 112.994 121.336C115.248 121.339 117.503 121.34 119.757 121.34C121.834 121.34 123.912 121.343 125.989 121.348C127.789 121.352 129.59 121.354 131.391 121.353C132.458 121.353 133.526 121.354 134.593 121.358C141.794 121.379 148.974 121.151 156.109 120.003C163.117 118.892 163.117 118.892 165.372 120.042C165.759 120.767 165.759 120.767 165.997 121.676C166.086 122.012 166.175 122.348 166.267 122.694C166.679 124.459 167.059 126.225 167.393 128.01C167.466 128.398 167.54 128.787 167.616 129.188C168.812 135.722 169.385 142.34 169.458 148.998C169.464 149.376 169.469 149.755 169.474 150.145C169.491 151.342 169.506 152.539 169.521 153.736C169.591 160.064 169.591 160.064 169.797 166.388C169.807 166.631 169.818 166.874 169.829 167.125C169.911 168.777 170.126 170.378 170.398 172.006C170.588 173.179 170.671 174.062 170.522 175.255C170.128 175.779 170.128 175.779 169.646 176.302C168.97 177.064 168.97 177.064 168.747 178.066C169.004 180.373 169.578 182.534 170.2 184.754C171.66 190.121 172.501 195.233 172.668 200.826C172.745 203.396 172.848 205.95 173.187 208.497Z" fill="#5894A9"/>
<path d="M298.44 237.227C298.438 237.662 298.438 237.662 298.436 238.105C298.418 241.712 298.365 245.319 298.307 248.926C298.289 250.11 298.272 251.295 298.255 252.479C298.062 265.216 298.062 265.216 296.697 267.069C295.685 267.82 294.821 268.17 293.62 268.413C293.128 268.514 293.128 268.514 292.627 268.618C292.095 268.722 292.095 268.722 291.552 268.829C291.175 268.905 290.798 268.981 290.421 269.058C289.409 269.262 288.397 269.462 287.384 269.66C286.755 269.784 286.126 269.908 285.497 270.033C279.917 271.14 274.33 272.162 268.712 273.021C268.424 273.065 268.136 273.109 267.84 273.155C264.021 273.734 260.257 274.206 256.397 274.255C251.604 274.316 247.08 274.755 242.369 275.736C240.983 276.013 239.735 276.233 238.331 276.065C237.647 275.46 237.334 274.716 236.9 273.894C234.707 274.07 232.728 274.657 230.624 275.328C224.525 277.207 218.316 278.513 212.071 279.682C211.522 279.784 210.974 279.889 210.425 279.994C210.093 280.054 209.762 280.113 209.42 280.175C208.987 280.254 208.987 280.254 208.545 280.335C207.416 280.434 206.386 280.43 205.477 279.647C203.648 277.14 203.414 274.834 203.322 271.67C203.305 271.17 203.287 270.669 203.269 270.169C203.26 269.907 203.25 269.645 203.241 269.376C203.073 264.87 202.758 260.44 202.138 255.98C201.492 251.304 201.081 246.669 200.85 241.944C200.825 241.463 200.799 240.981 200.773 240.499C200.208 229.91 199.791 219.369 201.207 208.835C201.255 208.477 201.255 208.477 201.304 208.111C201.435 207.132 201.567 206.153 201.702 205.174C202.134 202.015 202.448 198.953 202.228 195.75C202.162 194.494 202.211 193.965 202.924 192.944C204.255 191.88 205.303 191.978 206.937 192.042C207.14 192.05 207.344 192.057 207.554 192.065C207.99 192.08 208.426 192.097 208.862 192.114C210.003 192.158 211.145 192.194 212.287 192.231C212.512 192.239 212.737 192.246 212.969 192.254C217.065 192.387 220.96 192.402 225.017 191.726C231.023 190.778 236.971 191.616 242.944 192.47C244.064 192.626 245.184 192.781 246.304 192.935C246.993 193.03 247.682 193.126 248.371 193.225C248.681 193.268 248.991 193.311 249.31 193.356C249.581 193.395 249.851 193.433 250.129 193.473C250.975 193.561 251.787 193.602 252.636 193.556C253.188 193.069 253.188 193.069 253.602 192.392C254.803 190.76 256.193 189.937 258.072 189.523C262.885 189.129 267.705 189.982 272.468 190.648C273.631 190.81 274.793 190.966 275.956 191.121C276.868 191.243 277.78 191.367 278.691 191.493C279.119 191.552 279.547 191.61 279.976 191.667C289.219 192.903 289.219 192.903 291.756 196.026C294.204 199.649 294.529 204.255 295.1 208.563C295.187 209.204 295.275 209.845 295.363 210.486C295.545 211.823 295.726 213.161 295.904 214.498C296.133 216.206 296.364 217.914 296.597 219.621C296.82 221.26 297.042 222.899 297.264 224.538C297.306 224.847 297.348 225.156 297.391 225.474C297.51 226.355 297.628 227.237 297.746 228.118C297.78 228.374 297.815 228.63 297.851 228.893C298.22 231.676 298.46 234.415 298.44 237.227Z" fill="#5894A9"/>
<path d="M296.125 125.625C295.549 126.641 295.072 127.054 294.042 127.45C293.793 127.548 293.544 127.646 293.288 127.747C293.017 127.849 292.745 127.951 292.466 128.056C292.181 128.166 291.897 128.277 291.604 128.39C290.668 128.752 289.731 129.108 288.793 129.464C288.143 129.713 287.493 129.962 286.844 130.211C285.521 130.718 284.197 131.222 282.873 131.724C281.399 132.282 279.927 132.847 278.456 133.415C273.865 135.185 269.344 136.888 264.554 137.911C259.406 139.056 254.411 140.971 249.417 142.72C248.664 142.984 247.912 143.246 247.159 143.508C242.023 145.302 236.964 147.21 231.98 149.459C230.638 150.062 229.289 150.648 227.941 151.235C227.705 151.339 227.469 151.442 227.226 151.549C227.009 151.644 226.791 151.739 226.567 151.837C226.379 151.919 226.191 152.002 225.997 152.087C224.532 152.666 223.122 152.84 221.59 152.409C219.434 151.143 218.609 146.903 217.917 144.508C217.831 144.211 217.745 143.915 217.656 143.61C216.735 140.404 215.926 137.169 215.138 133.922C215.026 133.468 215.026 133.468 214.913 133.005C213.976 129.181 213.088 125.354 212.3 121.49C211.838 119.256 211.284 117.061 210.685 114.865C210.6 114.554 210.515 114.242 210.427 113.922C210.131 112.841 209.834 111.761 209.529 110.683C208.966 108.681 208.557 106.816 208.438 104.734C208.164 100.327 207.011 96.2104 205.875 91.9893C205.58 90.8781 205.287 89.7664 204.994 88.6545C204.814 87.9697 204.632 87.2854 204.448 86.6016C203.543 83.2079 202.787 79.8953 202.584 76.3637C202.44 74.2593 202.204 72.2878 201.672 70.257C201.108 68.0282 200.459 65.1528 201.411 62.9532C202.326 62.0031 203.372 61.919 204.593 61.6808C204.854 61.6257 205.116 61.5705 205.385 61.5137C206.239 61.3346 207.094 61.1625 207.949 60.9902C208.537 60.8674 209.126 60.7441 209.714 60.6203C211.432 60.2598 213.15 59.9068 214.869 59.5556C221.843 58.1335 221.843 58.1335 228.603 55.8334C233.089 53.9909 237.609 52.414 242.211 50.9479C246.488 49.5835 250.756 48.198 254.996 46.7023C255.224 46.6221 255.452 46.542 255.686 46.4594C258.476 45.4741 261.249 44.4436 264.013 43.3799C264.295 43.2721 264.576 43.1642 264.865 43.0531C266.231 42.5288 267.595 42.0002 268.957 41.4631C269.45 41.272 269.944 41.0809 270.437 40.8899C270.658 40.801 270.879 40.712 271.107 40.6204C272.542 40.0709 273.715 39.8486 275.239 40.0139C276.133 40.6187 276.285 41.4123 276.529 42.4906C276.603 42.8186 276.677 43.1467 276.754 43.4847C276.832 43.8492 276.911 44.2136 276.991 44.5891C277.076 44.9728 277.16 45.3565 277.247 45.7517C278.225 50.2808 278.991 54.8602 279.76 59.4353C280.362 63.0643 280.362 63.0643 281.288 66.6075C282.059 69.1285 282.186 71.7355 282.392 74.3669C282.695 78.2115 283.186 81.8771 284.108 85.6111C284.23 86.1103 284.23 86.1103 284.355 86.6195C285.068 89.5257 285.8 92.4257 286.54 95.3238C286.597 95.547 286.654 95.7703 286.713 96.0002C288.111 101.478 289.516 106.951 291.172 112.345C291.268 112.665 291.268 112.665 291.367 112.992C292.403 116.389 293.676 119.704 295.535 122.678C296.141 123.693 296.331 124.398 296.125 125.625Z" fill="#5894A9"/>
</g>
</svg>
