<svg width="158" height="159" viewBox="0 0 158 159" fill="none" xmlns="http://www.w3.org/2000/svg">
<mask id="mask0_7151_6462" style="mask-type:luminance" maskUnits="userSpaceOnUse" x="0" y="0" width="159" height="159">
<path d="M0 0H158.002V159H0V0Z" fill="white"/>
</mask>
<g mask="url(#mask0_7151_6462)">
<path fill-rule="evenodd" clip-rule="evenodd" d="M153.19 152.286C153.19 153.325 152.343 154.175 151.306 154.175H126.074C125.035 154.175 124.191 153.325 124.191 152.286V108.066C124.191 105.839 119.641 91.9562 117.549 88.433C116.947 87.4222 115.562 85.658 113.161 82.6284C110.713 79.5364 107.666 75.6857 105.244 72.217C102.019 67.5946 101.458 65.8304 101.362 65.3237C102.048 64.0817 103.513 63.0788 104.974 62.8502C105.636 62.7462 106.561 62.7644 107.211 63.4374L129.265 86.1283C128.673 94.7442 135.821 101.884 144.159 101.453L148.667 106.094C151.473 108.972 153.19 110.88 153.19 113.668V152.286ZM100.733 106.569C103.043 103.132 107.697 96.2148 112.161 89.1553L106.813 82.34L96.4799 95.082C93.7854 98.4 91.2807 100.975 88.8746 102.856C86.2582 105.662 82.5348 107.416 78.4035 107.416C73.4356 107.416 69.0497 104.872 66.4748 101.019C64.9262 99.5744 63.3386 97.8492 61.7043 95.8381L51.111 82.8154L45.6988 89.7295C49.999 96.4227 54.4395 102.976 56.6454 106.231C57.4041 107.354 57.903 108.092 58.1264 108.437C60.1687 111.558 64.3935 123.349 64.3935 125.329V152.949C64.3935 153.601 65.1366 154.175 65.9837 154.175H91.6262C92.4759 154.175 93.2164 153.601 93.2164 152.949V125.329C93.2164 123.349 97.4438 111.558 99.4809 108.437C99.6784 108.133 100.117 107.489 100.733 106.569ZM34.1052 108.066V152.286C34.1052 153.325 33.2582 154.175 32.2162 154.175H6.98941C5.95009 154.175 5.10305 153.325 5.10305 152.286V113.668C5.10305 110.88 6.82312 108.972 9.62408 106.094L14.1269 101.463C14.1971 101.463 14.2724 101.469 14.3426 101.469C22.5246 101.469 29.0775 94.5519 28.6722 86.4972L51.0851 63.4374C51.7346 62.7644 52.6596 62.7462 53.317 62.8502C54.785 63.0788 56.2427 64.0817 56.9312 65.3237C56.8351 65.8304 56.2765 67.5946 53.0468 72.217C50.6278 75.6857 47.58 79.5364 45.1324 82.6284C42.7315 85.658 41.3467 87.4222 40.7464 88.433C38.6548 91.9562 34.1052 105.839 34.1052 108.066ZM4.81464 87.113C4.81464 92.3746 9.08883 96.6514 14.3426 96.6514C19.5989 96.6514 23.8731 92.3746 23.8731 87.113C23.8731 81.8541 19.5989 77.5773 14.3426 77.5773C9.08883 77.5773 4.81464 81.8541 4.81464 87.113ZM19.3391 65.4225H42.4379L47.6345 60.0778C49.2585 58.4045 51.5424 57.6977 54.0549 58.0901C57.0741 58.5604 59.8855 60.5585 61.2548 63.1957C61.6419 63.8349 61.8134 64.5676 61.764 65.4225H68.0233V50.3446H65.4354C60.3246 50.3446 56.1595 46.1795 56.1595 41.0609C56.1595 35.9422 60.3246 31.7798 65.4354 31.7798H68.0233V16.6993H52.9584V19.2872C52.9584 24.4058 48.796 28.5709 43.6825 28.5709C38.5691 28.5709 34.404 24.4058 34.404 19.2872V16.6993H19.3391V65.4225ZM78.4035 83.5248C83.6599 83.5248 87.9341 87.8042 87.9341 93.0605C87.9341 95.4328 87.0636 97.6049 85.6242 99.2756C83.135 101.154 80.8719 102.061 78.7309 102.061C78.7283 102.061 78.7257 102.061 78.7257 102.061C76.0858 102.061 73.3135 100.731 70.2215 97.9401C69.3667 96.5085 68.8756 94.8429 68.8756 93.0605C68.8756 87.8042 73.1498 83.5248 78.4035 83.5248ZM90.2699 65.4225H96.5266C96.4799 64.565 96.6539 63.8349 97.0385 63.1957C98.4104 60.5585 101.222 58.5604 104.236 58.0875C106.754 57.6977 109.035 58.4019 110.661 60.0778L115.853 65.4225H138.954V16.6993H121.481C120.15 16.6993 119.075 15.621 119.075 14.2906V9.28892C119.075 6.82833 117.074 4.82505 114.613 4.82505C112.153 4.82505 110.152 6.82833 110.152 9.28892V14.2906C110.152 15.621 109.074 16.6993 107.746 16.6993H90.2699V34.1884C90.2699 35.5187 89.1916 36.597 87.8639 36.597H82.8674C80.4094 36.597 78.4061 38.5977 78.4061 41.0609C78.4061 43.5214 80.4094 45.5247 82.8674 45.5247H87.8639C89.1916 45.5247 90.2699 46.6056 90.2699 47.9333V65.4225ZM143.571 77.5773C138.315 77.5773 134.041 81.8541 134.041 87.113C134.041 92.3746 138.315 96.6514 143.571 96.6514C148.825 96.6514 153.099 92.3746 153.099 87.113C153.099 81.8541 148.822 77.5773 143.571 77.5773ZM152.115 102.731L149.592 100.136C154.502 97.8518 157.914 92.8786 157.914 87.113C157.914 79.1986 151.478 72.7574 143.571 72.7574C137.951 72.7574 133.082 76.0079 130.728 80.7264L120.535 70.2423H141.36C142.688 70.2423 143.769 69.1614 143.769 67.8311V14.2906C143.769 12.9577 142.688 11.8794 141.36 11.8794H123.887V9.28892C123.887 4.17028 119.729 0.0078125 114.613 0.0078125C109.497 0.0078125 105.337 4.17028 105.337 9.28892V11.8794H87.8639C86.5362 11.8794 85.4579 12.9551 85.4579 14.2906V31.7798H82.8674C77.7565 31.7798 73.5941 35.9422 73.5941 41.0609C73.5941 46.1795 77.7565 50.3446 82.8674 50.3446H85.4579V67.8337C85.4579 69.1614 86.5362 70.2423 87.8639 70.2423H98.2675C99.4653 72.3963 101.292 75.0595 103.799 78.4087L92.7097 92.081C92.2057 84.6239 85.9827 78.7075 78.4035 78.7075C71.1101 78.7075 65.0717 84.1873 64.1805 91.2495L54.1303 78.892C56.8273 75.3116 58.7734 72.5002 60.0232 70.2423H70.432C71.7597 70.2423 72.8406 69.1614 72.8406 67.8337V47.9333C72.8406 46.6056 71.7597 45.5247 70.432 45.5247H65.4354C62.9775 45.5247 60.9742 43.5214 60.9742 41.0609C60.9742 38.5977 62.9775 36.597 65.4354 36.597H70.432C71.7597 36.597 72.8406 35.5187 72.8406 34.1884V14.2906C72.8406 12.9577 71.7597 11.8794 70.432 11.8794H50.5498C49.2195 11.8794 48.1438 12.9551 48.1438 14.2906V19.2872C48.1438 21.7477 46.1405 23.7536 43.6825 23.7536C41.2219 23.7536 39.2187 21.7477 39.2187 19.2872V14.2906C39.2187 12.9577 38.1456 11.8794 36.8126 11.8794H16.9331C15.6054 11.8794 14.5271 12.9551 14.5271 14.2906V67.8311C14.5271 69.1614 15.6054 70.2423 16.9331 70.2423H37.7558L27.3107 80.9862C25.0086 76.1274 20.064 72.7574 14.3426 72.7574C6.43338 72.7574 0 79.1986 0 87.113C0 92.98 3.53368 98.0311 8.58476 100.258L6.17874 102.731C3.28424 105.701 0.288411 108.775 0.288411 113.668V152.289C0.288411 155.986 3.29724 158.995 6.98941 158.995H32.2162C35.911 158.995 38.9172 155.986 38.9172 152.289V108.128C39.0835 106.699 41.3025 99.5303 43.1785 94.7026C47.0005 100.58 50.7005 106.049 52.6596 108.936C53.3768 109.996 53.8964 110.763 54.0991 111.077C55.762 113.613 59.3009 123.666 59.5815 125.43V152.949C59.5815 156.282 62.4526 158.995 65.9837 158.995H91.6262C95.1573 158.995 98.031 156.282 98.031 152.949V125.43C98.3117 123.666 101.853 113.613 103.511 111.077C103.703 110.781 104.129 110.152 104.727 109.258C106.808 106.164 110.776 100.263 114.816 93.9465C116.744 98.7482 119.197 106.621 119.379 108.128V152.286C119.379 155.986 122.38 158.992 126.074 158.992H151.306C154.999 158.992 158.002 155.986 158.002 152.286V113.668C158.002 108.775 155.009 105.701 152.115 102.731Z" fill="#FFBB4F"/>
</g>
</svg>
