<svg width="273" height="343" viewBox="0 0 273 343" fill="none" xmlns="http://www.w3.org/2000/svg">
<path d="M270.75 223.731C270.606 224.213 270.462 224.695 270.313 225.192C265.226 241.929 257.658 257.69 247.5 271.581C247.274 271.895 247.048 272.209 246.815 272.532C246.478 272.996 246.478 272.996 246.134 273.469C245.939 273.738 245.744 274.007 245.543 274.284C239.592 281.908 232.361 286.314 224.089 290.59C223.119 291.098 222.149 291.606 221.18 292.114C204.968 300.556 189.343 306.549 171.141 306.43C170.248 306.43 169.355 306.43 168.462 306.431C166.61 306.431 164.757 306.426 162.905 306.416C160.555 306.403 158.205 306.403 155.855 306.406C154.018 306.408 152.18 306.405 150.343 306.399C149.477 306.397 148.612 306.396 147.746 306.397C140.537 306.399 133.429 306.01 126.453 303.887C125.845 303.709 125.845 303.709 125.225 303.528C123.959 303.154 122.696 302.77 121.434 302.381C121.021 302.254 120.608 302.127 120.182 301.996C117.666 301.218 115.157 300.415 112.652 299.595C111.394 299.185 110.135 298.782 108.875 298.379C98.4907 295.019 88.8313 290.414 79.1318 285.262C69.425 279.136 69.425 279.136 58.9172 275.981C58.0677 277.155 57.3287 278.304 56.5922 279.556C56.1286 280.319 55.6643 281.081 55.1996 281.844C54.9603 282.239 54.7211 282.635 54.4745 283.043C49.0012 292.022 43.1712 300.714 36.1838 308.431C35.8415 308.823 35.4992 309.216 35.1465 309.621C24.2279 321.827 8.58139 328.954 -5.76303 335.381C-6.09006 335.528 -6.41708 335.675 -6.754 335.827C-22.3661 342.819 -36.0496 344.221 -52.7313 341.532C-53.7895 341.368 -54.8479 341.204 -55.9064 341.041C-58.111 340.701 -60.3148 340.354 -62.5179 340.002C-65.275 339.562 -68.0335 339.133 -70.7926 338.708C-88.6515 335.953 -106.427 332.816 -124.08 328.815C-125.119 328.581 -126.159 328.347 -127.199 328.113C-129.271 327.646 -131.342 327.176 -133.413 326.705C-135.804 326.161 -138.197 325.626 -140.59 325.096C-142.309 324.713 -144.027 324.323 -145.744 323.931C-146.529 323.752 -147.316 323.577 -148.102 323.404C-155.727 321.724 -160.761 318.792 -165.798 312.493C-167.113 310.877 -168.472 309.31 -169.837 307.743C-170.377 307.122 -170.917 306.501 -171.458 305.88C-171.861 305.417 -171.861 305.417 -172.272 304.945C-173.734 303.262 -175.188 301.571 -176.642 299.879C-177.825 298.503 -179.011 297.13 -180.205 295.763C-182.896 292.676 -185.473 289.522 -187.955 286.239C-189.08 284.785 -190.247 283.388 -191.44 281.996C-193.273 279.85 -194.997 277.646 -196.683 275.368C-197.871 273.774 -199.077 272.197 -200.287 270.621C-203.074 266.989 -205.807 263.323 -208.48 259.595C-210.293 257.068 -212.145 254.574 -213.994 252.077C-214.952 250.783 -215.906 249.485 -216.856 248.184C-217.328 247.538 -217.801 246.892 -218.274 246.246C-218.508 245.927 -218.741 245.608 -218.981 245.28C-220.38 243.382 -221.829 241.549 -223.327 239.74C-230.238 231.344 -232.859 222.049 -235.306 211.362C-235.645 209.888 -235.992 208.417 -236.34 206.946C-242.487 180.496 -240.215 152.297 -234.52 126.005C-233.542 121.338 -232.867 116.635 -232.194 111.909C-229.682 94.2809 -225.876 77.5955 -218.533 61.4807C-218.379 61.1314 -218.226 60.7821 -218.067 60.4223C-214.588 52.5364 -208.828 46.2115 -201.741 41.8869C-201.368 41.6565 -200.996 41.4261 -200.612 41.1887C-195.949 38.3413 -191.163 35.7415 -186.385 33.1237C-185.065 32.3946 -183.754 31.6527 -182.445 30.902C-173.184 25.5921 -164 20.9545 -153.838 17.9478C-150.792 17.0403 -147.858 16.063 -144.948 14.737C-140.779 12.8421 -136.642 11.3543 -132.239 10.1932C-131.624 10.0305 -131.009 9.86792 -130.375 9.70037C-121.599 7.44643 -112.709 5.76684 -103.83 4.04192C-101.917 3.6684 -100.005 3.28826 -98.0924 2.90818C-96.2339 2.53958 -94.3748 2.17483 -92.5155 1.81125C-91.6361 1.63891 -90.757 1.46547 -89.8781 1.29086C-88.6574 1.04901 -87.436 0.812289 -86.2142 0.576893C-85.8604 0.505798 -85.5067 0.434711 -85.1422 0.361461C-76.2489 -1.32407 -68.3225 3.24118 -60.2498 6.70464C-58.5418 7.43708 -56.832 8.16448 -55.1219 8.89121C-50.1237 11.0221 -45.1396 13.179 -40.2162 15.4998C-39.8543 15.6701 -39.4924 15.8404 -39.1196 16.0158C-27.6115 21.5192 -18.3839 30.0454 -9.28018 39.1501C-7.06113 41.3575 -4.75348 43.4126 -2.38251 45.434C-0.934326 46.7023 0.446045 48.0285 1.8255 49.3807C4.09314 51.6 6.42831 53.6917 8.82474 55.7508C10.5745 57.2759 12.2877 58.842 13.9995 60.415C16.3933 62.611 18.8139 64.7547 21.2934 66.841C23.2489 68.5047 25.179 70.2003 27.1099 71.8963C27.6828 72.3994 27.6828 72.3994 28.2672 72.9126C29.0151 73.5694 29.763 74.2263 30.5108 74.8831C32.7408 76.8395 34.9792 78.7848 37.2172 80.7307C38.8291 82.1322 40.4403 83.5346 42.0501 84.9389C42.6633 85.4737 43.2767 86.0083 43.8902 86.5427C46.1362 88.5 48.3769 90.4638 50.6117 92.4356C51.285 93.0291 51.9593 93.6214 52.6349 94.2118C56.0763 97.2247 59.2803 100.349 62.3663 103.775C67.7202 109.693 73.1764 114.279 81.1339 115.381C83.2311 115.186 84.1141 114.636 85.4932 112.974C94.2646 103.202 105.995 96.6806 116.941 90.1258C120.081 88.2443 123.212 86.3447 126.342 84.4432C126.644 84.2601 126.945 84.0771 127.256 83.8886C132.006 81.003 136.716 78.0538 141.394 75.0373C141.942 74.685 141.942 74.685 142.501 74.3256C143.328 73.7896 144.152 73.2479 144.974 72.7025C145.42 72.4095 145.867 72.1165 146.327 71.8146C146.729 71.5478 147.131 71.281 147.545 71.006C154.814 66.8601 163.976 69.6213 171.575 71.3506C172.602 71.5777 173.629 71.804 174.656 72.0297C176.797 72.5021 178.937 72.9806 181.076 73.4641C183.784 74.0761 186.494 74.6762 189.205 75.2721C191.324 75.7386 193.442 76.2097 195.559 76.6823C196.557 76.9046 197.554 77.1261 198.552 77.3464C203.769 78.5028 208.937 79.7722 214.067 81.3105C214.503 81.4399 214.939 81.5693 215.388 81.7026C221.077 83.4573 226.232 86.2773 231.322 89.4619C235.313 91.9573 239.504 93.9188 243.73 95.9137C244.185 96.133 244.64 96.3523 245.108 96.5783C246.006 97.0094 246.91 97.4281 247.818 97.8336C253.939 100.744 256.515 105.95 259.222 112.218C259.502 112.844 259.782 113.47 260.071 114.115C263.714 122.357 266.053 129.721 266.563 138.816C266.64 140.071 266.717 141.326 266.795 142.581C266.834 143.236 266.873 143.89 266.914 144.564C267.568 155.346 268.343 166.103 269.459 176.843C269.513 177.365 269.567 177.886 269.623 178.423C270.278 184.679 271.051 190.902 271.945 197.124C273.255 206.382 273.524 214.745 270.75 223.731Z" fill="#AEC441"/>
</svg>
