<svg width="190" height="430" viewBox="0 0 190 430" fill="none" xmlns="http://www.w3.org/2000/svg">
<path d="M76.7608 1.80159C77.2192 1.92268 77.6777 2.04378 78.1501 2.16855C94.0664 6.43325 109.055 12.7783 122.265 21.2937C122.563 21.4833 122.862 21.673 123.169 21.8684C123.61 22.1509 123.611 22.1509 124.06 22.4392C124.316 22.6027 124.572 22.7662 124.836 22.9347C132.085 27.9236 136.276 33.986 140.342 40.9212C140.825 41.7342 141.308 42.5472 141.791 43.3602C149.819 56.9519 155.518 70.0512 155.406 85.3114C155.405 86.06 155.406 86.8085 155.406 87.5571C155.406 89.1103 155.401 90.6633 155.391 92.2165C155.38 94.1865 155.379 96.1565 155.383 98.1265C155.385 99.667 155.381 101.207 155.376 102.748C155.374 103.474 155.373 104.199 155.374 104.925C155.375 110.969 155.006 116.928 152.987 122.776C152.818 123.286 152.818 123.286 152.645 123.806C152.29 124.867 151.924 125.926 151.554 126.984C151.434 127.331 151.313 127.677 151.189 128.033C150.449 130.143 149.685 132.247 148.905 134.347C148.515 135.401 148.132 136.457 147.749 137.513C144.554 146.219 140.175 154.317 135.275 162.449C129.45 170.587 129.45 170.587 126.449 179.396C127.565 180.109 128.658 180.728 129.849 181.346C130.574 181.734 131.3 182.124 132.024 182.513C132.401 182.714 132.777 182.914 133.165 183.121C141.704 187.71 149.97 192.597 157.308 198.455C157.681 198.742 158.055 199.029 158.44 199.325C170.048 208.479 176.825 221.596 182.936 233.622C183.076 233.897 183.216 234.171 183.36 234.453C190.01 247.542 191.343 259.014 188.786 272.999C188.63 273.886 188.474 274.774 188.32 275.661C187.995 277.509 187.666 279.357 187.331 281.204C186.913 283.516 186.505 285.828 186.101 288.141C183.481 303.114 180.497 318.016 176.693 332.816C176.47 333.687 176.248 334.559 176.025 335.431C175.581 337.168 175.134 338.904 174.686 340.64C174.168 342.645 173.66 344.651 173.156 346.658C172.792 348.099 172.421 349.539 172.048 350.978C171.878 351.637 171.711 352.296 171.547 352.956C169.949 359.348 167.161 363.568 161.171 367.791C159.635 368.893 158.144 370.033 156.654 371.177C156.064 371.63 155.473 372.083 154.883 372.536C154.442 372.874 154.442 372.874 153.993 373.218C152.393 374.444 150.785 375.664 149.176 376.882C147.867 377.874 146.561 378.868 145.262 379.869C142.326 382.126 139.326 384.286 136.205 386.367C134.821 387.31 133.493 388.288 132.17 389.289C130.129 390.825 128.032 392.271 125.867 393.685C124.35 394.68 122.851 395.691 121.352 396.705C117.898 399.043 114.412 401.333 110.866 403.574C108.463 405.094 106.092 406.647 103.717 408.197C102.487 409 101.253 409.8 100.015 410.596C99.4009 410.993 98.7866 411.389 98.1724 411.786C97.869 411.981 97.5657 412.177 97.2531 412.378C95.4484 413.551 93.7056 414.766 91.9849 416.022C84.0005 421.816 75.1612 424.013 64.9985 426.065C63.5972 426.349 62.1982 426.64 60.7991 426.931C35.6462 432.085 8.82985 430.18 -16.1733 425.406C-20.6118 424.586 -25.0841 424.02 -29.5779 423.456C-46.3418 421.35 -62.2092 418.158 -77.5338 412.002C-77.866 411.874 -78.1981 411.745 -78.5403 411.612C-86.0395 408.695 -92.0543 403.866 -96.1669 397.925C-96.386 397.612 -96.6051 397.3 -96.8309 396.978C-99.5387 393.069 -102.011 389.056 -104.5 385.05C-105.194 383.944 -105.899 382.844 -106.613 381.747C-111.663 373.983 -116.073 366.284 -118.932 357.764C-119.795 355.21 -120.725 352.75 -121.986 350.311C-123.788 346.816 -125.202 343.348 -126.307 339.656C-126.461 339.141 -126.616 338.625 -126.775 338.094C-128.919 330.736 -130.516 323.283 -132.156 315.839C-132.511 314.235 -132.873 312.632 -133.234 311.029C-133.585 309.471 -133.932 307.912 -134.278 306.353C-134.441 305.616 -134.606 304.879 -134.772 304.142C-135.002 303.119 -135.228 302.095 -135.451 301.07C-135.519 300.774 -135.587 300.477 -135.656 300.172C-137.259 292.716 -132.918 286.07 -129.624 279.303C-128.928 277.871 -128.236 276.437 -127.545 275.003C-125.518 270.813 -123.467 266.635 -121.26 262.507C-121.098 262.204 -120.936 261.9 -120.769 261.588C-115.536 251.94 -107.428 244.203 -98.7695 236.571C-96.6703 234.711 -94.716 232.776 -92.7937 230.788C-91.5876 229.574 -90.3264 228.417 -89.0406 227.26C-86.9301 225.359 -84.9409 223.402 -82.9828 221.392C-81.5324 219.925 -80.0432 218.489 -78.5472 217.054C-76.4589 215.047 -74.4203 213.018 -72.4363 210.939C-70.8542 209.3 -69.2417 207.682 -67.6289 206.063C-67.1505 205.582 -67.1505 205.582 -66.6624 205.092C-66.0378 204.465 -65.4132 203.838 -64.7885 203.211C-62.928 201.342 -61.0782 199.465 -59.2277 197.589C-57.8949 196.238 -56.5613 194.887 -55.2258 193.537C-54.7172 193.023 -54.2088 192.509 -53.7006 191.995C-51.8393 190.112 -49.9718 188.233 -48.0967 186.36C-47.5323 185.795 -46.969 185.23 -46.4075 184.663C-43.5424 181.778 -40.571 179.092 -37.3131 176.505C-31.6855 172.016 -27.3245 167.442 -26.2766 160.771C-26.4621 159.012 -26.985 158.272 -28.5649 157.116C-37.8578 149.762 -44.0598 139.928 -50.2932 130.751C-52.0824 128.118 -53.8889 125.493 -55.6972 122.869C-55.8713 122.617 -56.0453 122.364 -56.2246 122.103C-58.9687 118.121 -61.7733 114.172 -64.6419 110.25C-64.9769 109.791 -64.9769 109.791 -65.3187 109.323C-65.8284 108.629 -66.3436 107.938 -66.8622 107.249C-67.1409 106.875 -67.4195 106.5 -67.7066 106.115C-67.9603 105.778 -68.2141 105.441 -68.4755 105.093C-72.4181 98.9992 -69.7924 91.3184 -68.1479 84.9477C-67.9319 84.0866 -67.7167 83.2255 -67.502 82.3642C-67.0528 80.5693 -66.5977 78.7755 -66.138 76.9825C-65.556 74.7121 -64.9853 72.4399 -64.4186 70.1669C-63.975 68.3905 -63.527 66.615 -63.0776 64.8396C-62.8661 64.0034 -62.6555 63.1671 -62.446 62.3306C-61.3464 57.9568 -60.1392 53.6246 -58.6763 49.3234C-58.5533 48.958 -58.4302 48.5926 -58.3034 48.2161C-56.6347 43.4463 -53.953 39.1247 -50.9246 34.857C-48.5515 31.5117 -46.6862 27.9979 -44.7891 24.4544C-44.5806 24.0733 -44.372 23.6922 -44.1571 23.2996C-43.7471 22.5466 -43.349 21.789 -42.9634 21.0272C-40.1956 15.8961 -35.2453 13.7363 -29.2841 11.4664C-28.6888 11.2316 -28.0934 10.9968 -27.48 10.7549C-19.6423 7.701 -12.6398 5.73986 -3.99057 5.31254C-2.79688 5.24783 -1.6032 5.18296 -0.409531 5.11796C0.212509 5.08501 0.834534 5.05207 1.47542 5.01813C11.7289 4.46979 21.959 3.81965 32.1722 2.88448C32.6681 2.83919 33.164 2.79389 33.675 2.74722C39.624 2.19808 45.5422 1.54937 51.4591 0.79991C60.2625 -0.298402 68.2154 -0.523927 76.7608 1.80159Z" fill="#883D05"/>
</svg>
