<svg width="123" height="123" viewBox="0 0 123 123" fill="none" xmlns="http://www.w3.org/2000/svg">
<path d="M110.929 17.4417C113.245 15.6637 114.743 12.8664 114.743 9.72511C114.743 4.36295 110.38 0 105.018 0C99.6561 0 95.2931 4.36295 95.2931 9.72511C95.2931 12.8744 96.798 15.6759 99.1262 17.4538C97.0893 18.1152 95.192 19.1468 93.5273 20.4838C93.6042 19.9903 93.6447 19.4866 93.6447 18.9708C93.6447 13.6087 89.2817 9.24573 83.9195 9.24573C78.5574 9.24573 74.1944 13.6087 74.1944 18.9708C74.1944 19.4866 74.2349 19.9903 74.3117 20.4838C72.6511 19.1468 70.7518 18.1132 68.7129 17.4538C71.0411 15.6759 72.5459 12.8744 72.5459 9.72511C72.5459 4.36295 68.183 0 62.8208 0C57.4587 0 53.0957 4.36295 53.0957 9.72511C53.0957 12.8664 54.5945 15.6637 56.9105 17.4417C49.916 19.6828 44.8411 26.2465 44.8411 33.9732V49.7987C44.8411 50.6442 45.5268 51.3299 46.3723 51.3299H65.9398V59.0444C65.9398 59.8899 66.6255 60.5756 67.471 60.5756H100.368C101.214 60.5756 101.899 59.8899 101.899 59.0444V51.3299H121.467C122.312 51.3299 122.998 50.6442 122.998 49.7987V33.9732C122.998 26.2465 117.921 19.6828 110.929 17.4417ZM105.018 3.06236C108.693 3.06236 111.681 6.04988 111.681 9.72511C111.681 13.4003 108.693 16.3879 105.018 16.3879C101.343 16.3879 98.3555 13.4003 98.3555 9.72511C98.3555 6.04988 101.343 3.06236 105.018 3.06236ZM83.9195 12.3081C87.5948 12.3081 90.5823 15.2956 90.5823 18.9708C90.5823 22.6441 87.5948 25.6336 83.9195 25.6336C80.2443 25.6336 77.2568 22.6441 77.2568 18.9708C77.2568 15.2956 80.2443 12.3081 83.9195 12.3081ZM62.8208 3.06236C66.4961 3.06236 69.4836 6.04988 69.4836 9.72511C69.4836 13.4003 66.4961 16.3879 62.8208 16.3879C59.1456 16.3879 56.1581 13.4003 56.1581 9.72511C56.1581 6.04988 59.1476 3.06236 62.8208 3.06236ZM53.7571 48.2675V30.4152C53.7571 29.5698 53.0694 28.8841 52.226 28.8841C51.3805 28.8841 50.6948 29.5698 50.6948 30.4152V48.2675H47.9035V33.9732C47.9035 26.0907 54.3154 19.6768 62.1978 19.6768H63.4438C68.7635 19.6768 73.6867 22.731 76.1322 27.4136C70.1248 30.1482 65.9358 36.2001 65.9358 43.2189V48.2675H53.7571ZM98.8369 57.5153H96.0456V39.663C96.0456 38.8175 95.3599 38.1318 94.5144 38.1318C93.671 38.1318 92.9832 38.8175 92.9832 39.663V57.5153H74.8559V39.663C74.8559 38.8175 74.1681 38.1318 73.3247 38.1318C72.4792 38.1318 71.7935 38.8175 71.7935 39.663V57.5153H69.0022V43.2209C69.0022 35.3385 75.4141 28.9245 83.2965 28.9245H84.5425C92.425 28.9245 98.8369 35.3385 98.8369 43.2209V57.5153ZM119.936 48.2675H117.144V30.4152C117.144 29.5698 116.459 28.8841 115.613 28.8841C114.77 28.8841 114.082 29.5698 114.082 30.4152V48.2675H101.903V43.2189C101.903 36.2001 97.7143 30.1482 91.7069 27.4136C94.1524 22.731 99.0756 19.6768 104.395 19.6768H105.641C113.524 19.6768 119.936 26.0907 119.936 33.9732V48.2675ZM23.89 89.1077C26.206 87.3298 27.7048 84.5324 27.7048 81.3912C27.7048 76.029 23.3419 71.6661 17.9797 71.6661C12.6176 71.6661 8.25461 76.029 8.25461 81.3912C8.25461 84.5324 9.75141 87.3298 12.0694 89.1077C5.07696 91.3509 0 97.9125 0 105.641V121.469C0 122.312 0.685693 123 1.52916 123H34.4303C35.2758 123 35.9615 122.312 35.9615 121.469V105.641C35.9615 97.9125 30.8845 91.3509 23.89 89.1077ZM17.9797 74.7304C21.655 74.7304 24.6425 77.72 24.6425 81.3932C24.6425 85.0684 21.655 88.0559 17.9797 88.0559C14.3045 88.0559 11.317 85.0684 11.317 81.3932C11.317 77.72 14.3065 74.7304 17.9797 74.7304ZM32.9011 119.938H30.1078V102.083C30.1078 101.24 29.4221 100.552 28.5766 100.552C27.7332 100.552 27.0454 101.24 27.0454 102.083V119.938H8.91603V102.083C8.91603 101.24 8.22832 100.552 7.38485 100.552C6.53937 100.552 5.85368 101.24 5.85368 102.083V119.938H3.06034V105.641C3.06034 97.7588 9.4743 91.3469 17.3567 91.3469H18.6027C26.4852 91.3469 32.8971 97.7588 32.8971 105.641V119.938H32.9011ZM15.9004 28.3157C15.6132 28.0285 15.2228 27.8666 14.8183 27.8666C14.4117 27.8666 14.0213 28.0264 13.7361 28.3157L6.57173 35.478C5.97504 36.0747 5.97504 37.0456 6.57173 37.6444L85.3557 116.428C85.655 116.728 86.0474 116.877 86.4378 116.877C86.8302 116.877 87.2226 116.728 87.5199 116.428L94.6823 109.266C94.9715 108.977 95.1334 108.588 95.1334 108.184C95.1334 107.777 94.9715 107.387 94.6823 107.102L15.9004 28.3157ZM86.4378 113.178L9.82018 36.5602L14.8183 31.5641L91.4338 108.18L86.4378 113.178Z" fill="#FFBB4F"/>
</svg>
