<svg width="67" height="55" viewBox="0 0 67 55" fill="none" xmlns="http://www.w3.org/2000/svg">
<g clip-path="url(#clip0_5831_21497)">
<path d="M37.7118 44.0112C38.0337 43.9858 38.2905 43.9919 38.5616 44.1557C39.5543 45.0663 39.8091 46.469 40.0921 47.6581C40.1117 47.739 40.1313 47.8199 40.1515 47.9032C40.4936 49.3299 40.6773 50.7491 40.7781 52.2031C40.7833 52.278 40.7885 52.3528 40.7939 52.4299C40.8071 52.6298 40.8188 52.8297 40.8304 53.0297C40.8584 53.4086 40.923 53.7793 40.988 54.1547C41.138 55.1161 41.1383 56.0728 41.1433 57.0418C41.1451 57.2384 41.1471 57.4351 41.1491 57.6317C41.1543 58.1458 41.1582 58.6599 41.1619 59.174C41.1678 59.9957 41.1753 60.8175 41.1833 61.6392C41.1858 61.9229 41.1877 62.2066 41.1895 62.4903C41.1964 63.3718 41.2213 64.2482 41.2874 65.1279C41.3332 65.7481 41.3421 66.3653 41.3385 66.9865C41.3383 67.1517 41.3383 67.1517 41.338 67.3203C41.3374 67.6645 41.336 68.0087 41.3345 68.353C41.334 68.5895 41.3334 68.826 41.333 69.0626C41.3317 69.6358 41.3298 70.209 41.3274 70.7822C41.9419 71.0051 42.4905 71.011 43.1441 71.0051C43.3144 71.0042 43.3144 71.0042 43.4881 71.0033C44.9326 70.9882 46.3724 70.8964 47.8131 70.8086C48.5257 70.7655 49.2385 70.7247 49.9514 70.6839C50.0692 70.6772 50.0692 70.6772 50.1894 70.6703C51.6436 70.5871 53.0981 70.5277 54.5542 70.4777C57.2275 70.3836 59.8606 70.1893 62.5055 69.8231C65.4296 69.4307 65.4296 69.4307 66.5456 69.6887C66.5677 74.4892 66.5677 74.4892 66.503 76.1749C66.4995 76.2778 66.496 76.3806 66.4924 76.4866C66.4709 76.9581 66.4205 77.4056 66.3171 77.8687C66.125 78.9451 66.1746 80.0369 66.1787 81.1234C66.1788 81.3661 66.1788 81.6089 66.1788 81.8517C66.179 82.3593 66.1799 82.867 66.1815 83.3746C66.1834 84.0195 66.1838 84.6643 66.1837 85.3092C66.1838 85.8105 66.1844 86.3118 66.1852 86.8131C66.1856 87.0506 66.1858 87.288 66.1859 87.5254C66.1868 88.7383 66.1982 89.9475 66.2821 91.1585C66.3197 91.725 66.3107 92.2833 66.2829 92.85C66.2394 94.4841 66.6692 96.1193 67 97.7209C66.2388 98.07 65.4549 98.13 64.6096 98.2187C64.4536 98.2358 64.2975 98.2529 64.1415 98.2702C63.8151 98.306 63.4887 98.3412 63.1621 98.3759C62.7474 98.4199 62.3329 98.465 61.9184 98.5106C61.5186 98.5545 61.1188 98.5978 60.719 98.6412C60.572 98.6571 60.4249 98.673 60.2735 98.6895C58.9395 98.8313 57.6401 98.9292 56.2958 98.9025C53.154 98.8597 50.0576 98.9131 46.9291 99.1809C46.8516 99.1875 46.7741 99.1941 46.6943 99.201C44.4768 99.3917 42.2606 99.6063 40.0514 99.8607C38.6909 100.016 37.4443 100.094 36.102 99.8084C35.9333 98.5292 35.818 97.2552 35.7541 95.9689C35.7472 95.8341 35.7472 95.8341 35.7401 95.6967C35.627 93.4823 35.5731 91.2669 35.5386 89.0506C35.5343 88.7895 35.5294 88.5285 35.5242 88.2674C35.492 86.588 35.5349 84.938 35.7213 83.2659C35.8609 82.0112 35.9178 80.7638 35.9439 79.5036C35.9703 78.2325 36.0278 76.9658 36.1091 75.6965C36.176 74.6342 36.2384 73.5736 36.244 72.5093C36.2456 72.3743 36.2456 72.3743 36.2472 72.2365C36.2448 71.8064 36.2185 71.4718 35.9884 71.0804C35.1344 70.927 34.3989 71.0651 33.5532 71.2171C32.15 71.462 30.8535 71.5967 29.4212 71.5961C29.2743 71.5961 29.1274 71.5962 28.9761 71.5962C28.1698 71.5924 27.3812 71.5646 26.5813 71.478C25.6557 71.3835 24.73 71.3378 23.7987 71.3215C23.6403 71.3182 23.482 71.3135 23.3238 71.3073C22.203 71.2648 21.5321 71.423 20.6383 71.9778C19.7532 72.51 18.8113 72.6003 17.7657 72.5983C17.6553 72.5981 17.5449 72.5979 17.4311 72.5977C15.6981 72.5804 13.9687 72.4501 12.2415 72.333C11.7272 72.2982 11.2128 72.2653 10.6983 72.2328C10.2976 72.2073 9.89694 72.1807 9.49636 72.1537C9.30659 72.1411 9.11679 72.1289 8.92696 72.117C8.66261 72.1004 8.39846 72.0822 8.13428 72.0636C8.01946 72.0569 8.01946 72.0569 7.90233 72.05C7.01912 71.9843 6.35207 71.7796 5.77204 71.1798C5.60375 70.8853 5.64348 70.6194 5.64424 70.2914C5.64395 70.1675 5.64366 70.0435 5.64336 69.9159C5.64925 69.6081 5.67809 69.3067 5.71515 69.0006C5.78406 68.3503 5.78882 67.704 5.78854 67.0513C5.78892 66.9211 5.7893 66.791 5.7897 66.6569C5.79069 66.3025 5.79097 65.9481 5.79104 65.5937C5.79112 65.3706 5.79136 65.1475 5.79166 64.9244C5.79271 64.1411 5.79318 63.3577 5.79309 62.5744C5.79302 61.8528 5.79421 61.1311 5.79601 60.4095C5.79752 59.7838 5.79811 59.1582 5.79804 58.5326C5.79801 58.1617 5.7983 57.7909 5.79953 57.42C5.80726 54.918 5.72372 52.4234 5.30346 49.9444C4.89651 47.5098 4.89651 47.5098 5.31766 46.7262C5.58337 46.5917 5.58337 46.5917 5.91625 46.5092C6.0392 46.4782 6.16215 46.4472 6.28882 46.4152C6.9354 46.2723 7.58205 46.1403 8.23564 46.0242C8.37805 45.9986 8.52047 45.9731 8.6672 45.9468C11.06 45.5312 13.4837 45.3321 15.922 45.3066C16.0606 45.3048 16.1992 45.3029 16.342 45.301C16.7803 45.2953 17.2186 45.29 17.657 45.2848C19.9744 45.2603 19.9744 45.2603 22.2904 45.1889C22.3795 45.1853 22.4686 45.1816 22.5604 45.1778C23.1654 45.1494 23.7518 45.0747 24.348 44.98C24.7774 44.9141 25.101 44.8851 25.5377 44.9369C25.7298 45.074 25.7298 45.074 25.921 45.2414C26.2004 45.4762 26.2004 45.4762 26.5671 45.5537C27.4121 45.4646 28.2036 45.2649 29.0165 45.0488C30.9818 44.5417 32.854 44.2496 34.9022 44.1914C35.8434 44.1645 36.7787 44.1288 37.7118 44.0112Z" fill="#5894A9" fill-opacity="0.7"/>
<path d="M51.344 0.000421546C51.5015 0.000984988 51.5015 0.000984988 51.6623 0.00155981C52.971 0.00784173 54.2796 0.0262218 55.5882 0.0462062C56.018 0.0526851 56.4477 0.0585867 56.8775 0.0644668C61.4984 0.131163 61.4984 0.131163 62.171 0.603724C62.4435 0.954283 62.5705 1.25334 62.6585 1.66937C62.6952 1.83945 62.6952 1.83945 62.7327 2.01296C62.7706 2.19731 62.7706 2.19731 62.8093 2.38538C62.837 2.51589 62.8646 2.64639 62.8924 2.77687C62.9665 3.12718 63.0389 3.47773 63.1109 3.82837C63.1558 4.04631 63.201 4.26419 63.2464 4.48205C63.648 6.41414 64.0187 8.34855 64.3304 10.2937C64.3464 10.3934 64.3624 10.493 64.3789 10.5957C64.5892 11.918 64.7603 13.2213 64.778 14.5579C64.8 16.2176 64.9594 17.7838 65.3155 19.4152C65.4159 19.8948 65.4958 20.3271 65.4347 20.8134C65.2152 21.05 64.9453 21.1586 64.6469 21.3087C64.7108 22.0681 64.924 22.7532 65.1674 23.482C65.8491 25.5935 66.3228 27.7437 66.7469 29.9057C66.7842 30.0958 66.8222 30.2859 66.8602 30.4759C66.8818 30.5907 66.9035 30.7055 66.9258 30.8238C66.9545 30.9737 66.9545 30.9737 66.9839 31.1267C67.0198 31.5176 67.0184 31.8743 66.7342 32.1891C65.8249 32.8224 64.9882 32.9035 63.8402 32.9352C63.6586 32.9412 63.477 32.9473 63.2954 32.9535C63.2005 32.9568 63.1056 32.96 63.0078 32.9634C61.373 33.0214 59.7659 33.1307 58.1478 33.3454C56.4512 33.569 54.7695 33.7111 53.0554 33.7912C52.8805 33.8 52.7057 33.8089 52.5309 33.8178C48.689 34.0137 44.8646 34.1578 41.0427 33.6677C40.9127 33.6511 40.9127 33.6511 40.7802 33.6341C40.4249 33.5885 40.0697 33.5429 39.7146 33.4963C38.5683 33.3465 37.4574 33.238 36.2955 33.3142C35.8396 33.3368 35.6479 33.3199 35.2772 33.0729C34.8915 32.6123 34.927 32.2492 34.9502 31.6837C34.9528 31.6132 34.9555 31.5427 34.9583 31.47C34.964 31.319 34.97 31.168 34.9763 31.0171C34.9923 30.6218 35.0054 30.2265 35.0187 29.8312C35.0214 29.7532 35.0241 29.6752 35.0269 29.5948C35.0754 28.1768 35.0807 26.8282 34.8355 25.4234C34.4917 23.3438 34.7957 21.2842 35.1053 19.2159C35.162 18.8282 35.2181 18.4405 35.2739 18.0526C35.3084 17.814 35.3434 17.5754 35.3791 17.3368C35.3949 17.2295 35.4107 17.1222 35.4269 17.0116C35.4409 16.9181 35.4549 16.8245 35.4693 16.7281C35.5013 16.4351 35.5162 16.1541 35.4992 15.86C35.3227 15.669 35.3227 15.669 35.0772 15.5257C34.4851 15.1096 34.1864 14.6284 34.0362 13.9778C33.8934 12.3113 34.2028 10.6423 34.4442 8.99309C34.5031 8.59069 34.5599 8.18807 34.6159 7.78534C34.6601 7.46965 34.7054 7.15408 34.7509 6.83853C34.7722 6.69029 34.7932 6.54201 34.8139 6.3937C35.2625 3.19301 35.2625 3.19301 36.3956 2.31456C37.71 1.4672 39.3811 1.35452 40.9442 1.15672C41.1768 1.12651 41.4093 1.09622 41.6419 1.06584C42.127 1.00268 42.6122 0.940213 43.0976 0.878311C43.7172 0.799273 44.3367 0.719106 44.9562 0.638497C45.5507 0.561155 46.1453 0.484291 46.74 0.407525C46.8521 0.393032 46.9642 0.378539 47.0796 0.363607C47.3994 0.32237 47.7192 0.281461 48.0391 0.240664C48.1318 0.228674 48.2246 0.216683 48.3201 0.20433C49.3298 0.0763292 50.3235 -0.00667086 51.344 0.000421546Z" fill="#5894A9" fill-opacity="0.7"/>
<path d="M8.1677 0.0285262C8.53718 0.234175 8.68777 0.404238 8.83178 0.77178C8.86737 0.860607 8.90296 0.949434 8.93963 1.04095C8.97673 1.13775 9.01382 1.23454 9.05203 1.33427C9.09222 1.43581 9.13242 1.53734 9.17382 1.64196C9.30549 1.97577 9.43497 2.31024 9.56429 2.6448C9.65492 2.87675 9.74562 3.10867 9.8364 3.34057C10.0208 3.81257 10.2041 4.2849 10.3866 4.75751C10.5897 5.28354 10.7953 5.80877 11.002 6.33366C11.646 7.972 12.2657 9.58536 12.6379 11.2946C13.0543 13.1317 13.7509 14.9141 14.3874 16.6963C14.4833 16.9648 14.5788 17.2333 14.6742 17.502C15.3267 19.3347 16.0211 21.14 16.8393 22.9187C17.0588 23.3975 17.272 23.8787 17.4854 24.3598C17.5232 24.4441 17.5609 24.5283 17.5999 24.6151C17.6344 24.6926 17.6689 24.7701 17.7045 24.85C17.7345 24.9172 17.7646 24.9843 17.7955 25.0535C18.006 25.5765 18.0695 26.0796 17.9125 26.6263C17.4521 27.3955 15.9092 27.6901 15.0378 27.9369C14.93 27.9676 14.8222 27.9984 14.7111 28.03C13.5448 28.3587 12.3677 28.6474 11.1866 28.9287C11.0213 28.9685 11.0213 28.9685 10.8526 29.009C9.46131 29.3432 8.06892 29.66 6.66329 29.9413C5.85027 30.1063 5.05191 30.3038 4.25301 30.5177C4.13967 30.548 4.02633 30.5783 3.90956 30.6096C3.5164 30.7154 3.12336 30.8215 2.73116 30.9302C2.00299 31.1309 1.32422 31.2769 0.566662 31.3197C-1.03673 31.4172 -2.53435 31.8285 -4.07012 32.2342C-4.47443 32.3393 -4.87889 32.4439 -5.28343 32.5483C-5.53258 32.6128 -5.78158 32.6778 -6.03037 32.7433C-7.26509 33.0663 -8.47034 33.336 -9.75524 33.4083C-10.5209 33.4598 -11.2382 33.5439 -11.9771 33.7338C-12.788 33.9353 -13.8341 34.1667 -14.6344 33.8272C-14.9801 33.5006 -15.0107 33.1274 -15.0974 32.6916C-15.1175 32.5983 -15.1375 32.505 -15.1582 32.4089C-15.2234 32.1042 -15.286 31.7991 -15.3487 31.494C-15.3933 31.284 -15.4382 31.074 -15.4833 30.8641C-15.6144 30.2512 -15.7428 29.6379 -15.8706 29.0245C-16.388 26.5359 -16.388 26.5359 -17.2249 24.1237C-17.8953 22.5227 -18.469 20.9097 -19.0024 19.2677C-19.4988 17.7412 -20.0029 16.2183 -20.5471 14.7052C-20.5763 14.6239 -20.6054 14.5427 -20.6355 14.459C-20.994 13.4636 -21.3689 12.4741 -21.7559 11.4875C-21.7951 11.3871 -21.8344 11.2868 -21.8748 11.1834C-22.0656 10.6961 -22.2579 10.2093 -22.4533 9.72338C-22.5228 9.54729 -22.5923 9.37117 -22.6618 9.19505C-22.6942 9.11621 -22.7266 9.03737 -22.7599 8.95615C-22.9598 8.44418 -23.0407 8.02552 -22.9805 7.48171C-22.7605 7.16248 -22.4718 7.10832 -22.0795 7.02147C-21.9601 6.99492 -21.8407 6.96838 -21.7178 6.94103C-21.5851 6.91309 -21.4525 6.88514 -21.3159 6.85635C-21.1763 6.82624 -21.0367 6.79613 -20.8929 6.7651C-19.2451 6.41617 -17.579 6.14264 -15.9144 5.86822C-14.594 5.65335 -14.594 5.65335 -13.3049 5.32289C-12.3877 5.04793 -11.4391 5.0026 -10.4817 4.92925C-9.08294 4.82114 -7.7493 4.64577 -6.39072 4.31666C-6.20911 4.2731 -6.20911 4.2731 -6.02383 4.22867C-4.96647 3.97434 -3.91136 3.71287 -2.85692 3.44882C-2.7757 3.42851 -2.69449 3.40819 -2.61081 3.38726C-0.617834 2.88839 1.37341 2.38679 3.33605 1.7961C3.45245 1.76156 3.45245 1.76156 3.57121 1.72631C4.80731 1.35676 6.01358 0.902563 7.09557 0.239104C7.46486 0.0227995 7.72124 -0.0449103 8.1677 0.0285262Z" fill="#5894A9" fill-opacity="0.7"/>
</g>
<defs>
<clipPath id="clip0_5831_21497">
<rect width="92" height="55" fill="white" transform="matrix(-1 0 0 -1 67 55)"/>
</clipPath>
</defs>
</svg>
