<svg width="102" height="167" viewBox="0 0 102 167" fill="none" xmlns="http://www.w3.org/2000/svg">
<path d="M101.349 9.22415C101.342 8.87807 101.335 8.53195 101.328 8.18584C101.319 7.71097 101.307 7.23619 101.295 6.76144C101.289 6.49257 101.283 6.22369 101.276 5.94667C101.203 5.04988 101.029 4.28519 100.808 3.42683C99.5727 3.18448 98.3375 2.94255 97.1021 2.70103C96.6824 2.61891 96.2626 2.53667 95.8429 2.4543C95.2376 2.33554 94.6323 2.21722 94.027 2.09898C93.8411 2.06241 93.6551 2.02582 93.4636 1.98813C87.1728 0.762192 81.0028 1.81158 74.7236 2.69528C72.8755 2.95457 71.0268 3.20685 69.178 3.45924C68.5418 3.54675 67.9057 3.63612 67.2697 3.72586C64.9262 4.05252 62.5925 4.29506 60.2358 4.41573C59.5574 -0.0751343 59.0065 -4.58939 58.4743 -9.10907C58.4262 -9.51704 58.378 -9.92502 58.3299 -10.333C58.1321 -12.0115 57.9345 -13.6901 57.739 -15.369C57.6176 -16.4118 57.4948 -17.4545 57.3711 -18.4969C57.3247 -18.89 57.2788 -19.2832 57.2335 -19.6765C57.1706 -20.2211 57.1061 -20.7654 57.0411 -21.3097C57.005 -21.6182 56.9689 -21.9268 56.9317 -22.2447C56.8188 -22.9367 56.7159 -23.4292 56.4006 -24.0148C55.8935 -24.3193 55.8935 -24.3193 55.2076 -24.5836C55.0776 -24.6339 54.9476 -24.6841 54.8136 -24.7359C52.5117 -25.6013 50.1668 -26.298 47.8345 -27.0278C47.3368 -27.1847 46.8391 -27.3416 46.3415 -27.4986C44.0156 -28.2318 44.0156 -28.2318 43.0125 -28.5424C42.6828 -28.6461 42.3537 -28.7529 42.0259 -28.8653C38.2439 -30.1374 33.9988 -28.81 30.2117 -28.0605C29.0049 -27.8219 27.7974 -27.5878 26.5895 -27.3577C26.1745 -27.2778 25.76 -27.1946 25.3456 -27.1112C23.7059 -26.7953 22.1302 -26.6666 20.4709 -26.7343C20.3733 -30.4594 20.6781 -34.1245 20.9756 -37.8284C21.0483 -38.742 21.1206 -39.6556 21.1915 -40.5694C21.2354 -41.1333 21.2803 -41.6972 21.3263 -42.2609C21.7277 -47.3942 21.7277 -47.3942 20.6728 -48.9843C19.6118 -49.784 18.8231 -49.7594 17.645 -49.4787C16.6968 -49.1962 15.7583 -48.876 14.8191 -48.5516C14.5552 -48.4619 14.2914 -48.3722 14.0275 -48.2826C12.797 -47.8626 11.5735 -47.427 10.3615 -46.9324C7.00144 -45.5627 3.78322 -46.1138 0.372398 -46.9015C-1.27239 -47.2795 -2.88219 -47.6004 -4.55869 -47.6246C-4.76808 -47.6313 -4.76808 -47.6313 -4.9817 -47.6382C-7.38566 -47.6045 -9.81586 -46.3745 -12.0639 -45.4303C-14.7114 -44.3201 -17.3743 -43.2785 -20.0508 -42.2784C-20.2088 -42.2191 -20.3667 -42.1599 -20.5295 -42.0988C-20.9784 -41.9306 -21.4276 -41.7634 -21.8769 -41.5966C-22.0095 -41.547 -22.1421 -41.4974 -22.2787 -41.4464C-22.9614 -41.1948 -23.6383 -40.9801 -24.3402 -40.8259C-24.217 -42.8974 -23.79 -44.8525 -23.3561 -46.852C-23.2843 -47.188 -23.2125 -47.5241 -23.1409 -47.8602C-23.0702 -48.1905 -22.9995 -48.5208 -22.9288 -48.851C-22.8943 -49.0122 -22.8598 -49.1734 -22.8243 -49.3395C-22.6697 -50.0576 -22.5096 -50.7721 -22.3364 -51.4838C-22.2811 -51.7125 -22.2257 -51.9413 -22.1687 -52.1769C-22.0956 -52.4645 -22.0956 -52.4645 -22.0211 -52.7579C-21.9241 -53.3938 -21.9076 -53.9445 -21.9115 -54.5891C-21.9124 -54.7895 -21.9134 -54.9899 -21.9143 -55.1963C-21.9155 -55.3491 -21.9167 -55.5019 -21.9179 -55.6593C-26.3965 -55.6672 -30.8751 -55.672 -35.3537 -55.6747C-35.6105 -55.6749 -35.6105 -55.6749 -35.8725 -55.6751C-49.3964 -55.6833 -62.9196 -55.6108 -76.4432 -55.5044C-76.9987 -55.5 -77.5542 -55.4957 -78.1097 -55.4913C-79.6596 -55.4792 -81.2095 -55.4669 -82.7594 -55.4538C-84.5405 -55.4387 -86.3217 -55.4253 -88.1028 -55.4146C-88.3894 -55.4129 -88.676 -55.4111 -88.9626 -55.4092C-89.8148 -55.4036 -90.667 -55.3992 -91.5192 -55.3966C-91.8998 -55.3952 -92.2803 -55.3928 -92.6609 -55.3903C-95.6697 -55.385 -98.7351 -55.524 -101.701 -56.1692C-102.689 -56.3822 -103.625 -56.4629 -104.627 -56.4318C-104.77 -56.4296 -104.913 -56.4274 -105.06 -56.4251C-105.404 -56.4194 -105.747 -56.4105 -106.09 -56.4009C-106.559 -55.3625 -106.791 -54.515 -106.894 -53.3372C-106.922 -53.0267 -106.951 -52.7163 -106.98 -52.3964C-107.008 -52.0571 -107.036 -51.7177 -107.064 -51.3783C-107.095 -51.019 -107.125 -50.6598 -107.156 -50.3006C-107.221 -49.5416 -107.284 -48.7825 -107.345 -48.0231C-107.406 -47.2695 -107.471 -46.5164 -107.538 -45.7636C-108.702 -32.7991 -108.01 -19.674 -107.76 -6.66301C-107.708 -3.94228 -107.657 -1.2215 -107.606 1.49927C-107.599 1.86168 -107.599 1.86168 -107.592 2.2314C-107.505 6.89299 -107.418 11.5546 -107.334 16.2163C-107.317 17.1686 -107.299 18.1209 -107.282 19.0732C-106.987 34.9982 -107.02 50.9021 -107.443 66.8222C-107.481 68.2617 -107.518 69.7013 -107.554 71.1409C-107.863 83.4249 -108.205 95.7075 -108.549 107.99C-108.58 109.1 -108.611 110.21 -108.642 111.32C-108.705 113.547 -108.767 115.773 -108.829 117.999C-108.835 118.183 -108.84 118.367 -108.845 118.556C-108.975 123.172 -109.105 127.787 -109.238 132.402C-109.319 135.218 -109.399 138.034 -109.478 140.851C-109.525 142.494 -109.572 144.137 -109.62 145.78C-109.956 157.33 -109.956 157.33 -109.982 161.666C-109.986 162.153 -109.991 162.641 -109.997 163.129C-109.997 163.552 -109.997 163.552 -109.997 163.984C-109.998 164.223 -109.999 164.461 -110 164.707C-109.91 165.49 -109.696 165.956 -109.32 166.593C-107.887 167.471 -105.631 166.698 -104.121 166.408C-103.883 166.364 -103.644 166.32 -103.399 166.275C-102.643 166.136 -101.888 165.994 -101.132 165.852C-100.136 165.664 -99.1386 165.479 -98.1414 165.296C-97.8033 165.231 -97.8033 165.231 -97.4583 165.164C-95.3244 164.729 -95.3244 164.729 -93.194 164.986C-89.5884 166.037 -85.0814 164.851 -81.4077 164.477C-80.5177 164.387 -79.6275 164.3 -78.7374 164.212C-77.2457 164.064 -75.7542 163.915 -74.2627 163.764C-72.5459 163.591 -70.8289 163.42 -69.1119 163.25C-67.2701 163.068 -65.4284 162.885 -63.5867 162.7C-63.0614 162.648 -62.536 162.596 -62.0106 162.544C-61.1821 162.462 -60.3537 162.378 -59.5253 162.294C-59.2238 162.264 -58.9223 162.234 -58.6207 162.204C-51.7949 161.53 -51.7949 161.53 -49.1159 158.321C-44.473 153.056 -39.3272 149.628 -32.988 149.304C-32.5297 149.28 -32.0717 149.253 -31.6136 149.225C-30.474 149.156 -29.3342 149.092 -28.1944 149.029C-22.1446 148.694 -16.2526 148.039 -10.3241 146.429C-8.87696 146.039 -7.42842 145.666 -5.97164 145.332C-5.80266 145.293 -5.63367 145.254 -5.45956 145.214C-0.777061 144.191 4.05273 144.481 8.78958 144.483C10.0243 144.483 11.2589 144.48 12.4936 144.471C13.0661 144.468 13.6385 144.471 14.211 144.474C14.5624 144.472 14.9139 144.47 15.2654 144.467C15.5001 144.47 15.5001 144.47 15.7395 144.474C17.0164 144.454 18.1113 144.034 19.0214 142.895C19.554 141.755 19.855 140.703 19.986 139.392C20.0087 139.195 20.0313 138.997 20.0546 138.794C20.3794 135.849 20.6209 132.891 20.8725 129.936C20.964 128.862 21.0574 127.787 21.1513 126.713C21.1826 126.354 21.2139 125.995 21.2453 125.636C21.2607 125.459 21.2761 125.283 21.2919 125.101C21.4666 123.098 21.6404 121.096 21.8126 119.093C21.8986 118.093 21.9871 117.094 22.0781 116.095C22.1217 115.61 22.1625 115.124 22.2032 114.638C22.6001 110.347 23.8965 106.877 26.5967 104.043C28.6133 102.192 30.865 101.414 33.3453 101.155C33.7086 101.112 33.7086 101.112 34.0793 101.069C36.7481 100.769 39.4237 100.592 42.0998 100.424C43.6311 100.328 45.1619 100.224 46.6928 100.119C46.8498 100.108 47.0069 100.097 47.1687 100.086C50.7026 99.8429 54.2327 99.5406 57.7625 99.2203C58.2156 99.1792 58.6689 99.1385 59.1221 99.0978C59.9644 99.022 60.8066 98.9448 61.6487 98.8672C61.8979 98.8445 62.147 98.8219 62.4037 98.7986C62.7481 98.7662 62.7481 98.7662 63.0995 98.7332C63.2981 98.7148 63.4966 98.6964 63.7011 98.6774C64.3014 98.6039 64.8901 98.4893 65.4839 98.3602C65.8322 96.5304 65.9762 94.7493 66.0453 92.8749C66.063 92.4445 66.063 92.4445 66.081 92.0054C66.1059 91.392 66.1301 90.7786 66.1537 90.1651C66.1907 89.204 66.2298 88.243 66.2692 87.2821C66.3902 84.3128 66.5021 81.3433 66.6004 78.3728C66.6246 77.6688 66.6489 76.9649 66.6732 76.2609C66.6945 75.616 66.7128 74.971 66.7309 74.326C66.812 70.7114 66.812 70.7114 68.3098 67.7046C69.3309 66.899 70.2263 66.4971 71.4109 66.2087C71.5788 66.1653 71.7467 66.122 71.9197 66.0773C72.4863 65.9318 73.0537 65.7907 73.6211 65.6496C74.0305 65.5454 74.4398 65.441 74.8491 65.3364C76.3018 64.9667 77.7557 64.6045 79.2098 64.2435C79.4251 64.19 79.4251 64.19 79.6447 64.1355C80.5806 63.9032 81.5166 63.6711 82.4526 63.4391C82.7785 63.3584 83.1044 63.2776 83.4302 63.1968C85.0533 62.7945 86.6764 62.3926 88.3002 61.9947C92.3489 61.0022 96.3815 59.9452 100.404 58.8046C100.738 54.3801 100.912 49.9638 101.011 45.5229C101.023 44.9974 101.035 44.472 101.047 43.9466C101.595 20.7478 101.595 20.7478 101.349 9.22415Z" fill="#FFBB4E"/>
</svg>
