<svg width="290" height="433" viewBox="0 0 290 433" fill="none" xmlns="http://www.w3.org/2000/svg">
<path d="M-153.354 0.344238C-7.28534 0.344238 138.783 0.344238 289.278 0.344238C289.818 121.672 289.818 121.672 289.756 160.681C289.753 162.369 289.751 164.057 289.748 165.746C289.747 166.191 289.747 166.637 289.746 167.095C289.738 172.542 289.731 177.988 289.724 183.434C289.685 215.159 289.637 246.884 289.583 278.608C289.578 281.589 289.573 284.569 289.568 287.549C289.566 288.288 289.565 289.028 289.564 289.79C289.543 301.955 289.525 314.121 289.507 326.287C289.488 338.909 289.468 351.531 289.445 364.153C289.433 371.19 289.422 378.227 289.412 385.264C289.404 391.2 289.394 397.135 289.383 403.071C289.377 406.093 289.372 409.116 289.369 412.138C289.366 414.897 289.361 417.656 289.354 420.415C289.352 421.417 289.351 422.419 289.35 423.421C289.35 424.772 289.346 426.124 289.342 427.475C289.341 428.228 289.339 428.982 289.338 429.757C289.278 431.424 289.278 431.424 288.816 432.041C287.402 432.104 286 432.126 284.586 432.121C284.142 432.122 283.698 432.124 283.241 432.125C281.765 432.127 280.289 432.126 278.813 432.123C277.792 432.124 276.77 432.125 275.749 432.125C273.604 432.126 271.459 432.125 269.314 432.122C266.561 432.118 263.809 432.12 261.056 432.124C258.945 432.126 256.834 432.126 254.723 432.124C253.708 432.124 252.693 432.124 251.678 432.126C250.259 432.127 248.841 432.125 247.423 432.121C247.001 432.123 246.579 432.124 246.144 432.125C245.758 432.123 245.372 432.122 244.974 432.12C244.471 432.12 244.471 432.12 243.958 432.119C243.074 432.041 243.074 432.041 241.688 431.424C241.244 427.45 241.162 423.586 241.173 419.572C241.173 418.875 241.173 418.178 241.173 417.46C241.173 415.509 241.176 413.557 241.18 411.605C241.183 409.898 241.185 408.19 241.186 406.483C241.214 376.875 241.362 347.266 241.482 317.658C241.518 308.731 241.553 299.805 241.587 290.878C241.589 290.207 241.592 289.536 241.595 288.844C241.705 259.377 241.714 229.911 241.688 200.444C222.19 200.365 202.692 200.286 183.194 200.208C180.881 200.199 178.568 200.19 176.254 200.18C175.794 200.179 175.333 200.177 174.859 200.175C167.449 200.145 160.04 200.115 152.63 200.085C145 200.054 137.371 200.023 129.741 199.993C125.467 199.976 121.192 199.959 116.918 199.941C91.5161 199.835 91.5161 199.835 66.1139 199.827C66.0461 211.165 65.9819 222.503 65.9195 233.841C65.9118 235.254 65.9039 236.667 65.8961 238.079C65.74 266.238 65.6257 294.396 65.5417 322.555C65.5321 325.745 65.5224 328.935 65.5127 332.124C65.4691 346.48 65.4264 360.835 65.3897 375.191C65.374 381.283 65.3568 387.376 65.3384 393.468C65.3257 397.726 65.3149 401.984 65.3056 406.241C65.2994 408.848 65.2914 411.455 65.2828 414.061C65.2792 415.263 65.2764 416.465 65.2744 417.666C65.2716 419.3 65.266 420.934 65.2598 422.568C65.2596 423.04 65.2595 423.512 65.2594 423.999C65.2464 426.537 65.0965 428.933 64.7278 431.424C51.363 431.438 37.9983 431.449 24.6336 431.455C23.0455 431.456 21.4574 431.457 19.8692 431.458C19.5531 431.458 19.237 431.458 18.9114 431.458C13.8347 431.461 8.7581 431.466 3.68147 431.471C-1.5517 431.477 -6.78487 431.481 -12.018 431.482C-14.9473 431.483 -17.8765 431.485 -20.8057 431.489C-24.0985 431.494 -27.3913 431.496 -30.6841 431.494C-31.2 431.494 -31.7158 431.493 -32.2472 431.493C-39.7025 431.484 -47.1491 431.337 -54.5995 430.969C-55.0903 430.946 -55.0903 430.946 -55.5911 430.923C-56.454 430.882 -57.3169 430.837 -58.1797 430.792C-59.3857 430.804 -60.2617 431 -61.4084 431.424C-62.0821 431.477 -62.7575 431.5 -63.4324 431.499C-63.8377 431.5 -64.2429 431.501 -64.6604 431.502C-65.1045 431.499 -65.5486 431.497 -66.0062 431.495C-66.4809 431.495 -66.9557 431.495 -67.4448 431.495C-69.0472 431.494 -70.6495 431.488 -72.2518 431.482C-73.4024 431.479 -74.5531 431.477 -75.7037 431.475C-90.1995 431.44 -104.695 431.292 -119.19 431.149C-123.082 431.11 -126.973 431.074 -130.864 431.037C-138.823 430.961 -146.781 430.884 -154.74 430.806C-154.782 375.794 -154.806 320.781 -154.56 213.241C-154.545 207.92 -154.531 202.598 -154.517 197.277C-154.389 148.306 -154.152 99.3381 -153.816 50.3692C-152.711 51.8458 -152.744 52.3049 -152.627 54.3312C-152.593 54.9022 -152.558 55.4731 -152.522 56.0614C-152.489 56.6885 -152.456 57.3156 -152.422 57.9617C-152.384 58.6209 -152.346 59.2801 -152.307 59.9593C-151.85 68.1405 -151.509 76.3315 -151.17 84.5226C-151.099 86.216 -151.028 87.9093 -150.956 89.6027C-150.808 93.1199 -150.662 96.6373 -150.516 100.155C-150.348 104.201 -150.178 108.248 -150.007 112.294C-149.841 116.226 -149.677 120.158 -149.513 124.09C-149.444 125.748 -149.374 127.406 -149.304 129.064C-149.207 131.377 -149.111 133.69 -149.016 136.003C-148.987 136.677 -148.958 137.351 -148.928 138.046C-148.761 142.177 -148.708 146.282 -148.733 150.419C-145.836 150.419 -142.939 150.419 -139.955 150.419C-140.254 176.553 -140.932 202.668 -141.606 228.789C-141.714 232.95 -141.82 237.111 -141.925 241.273C-142.749 273.78 -143.631 306.284 -144.575 338.785C-144.006 338.802 -144.006 338.802 -143.426 338.82C-128.308 339.286 -113.194 339.969 -98.08 340.642C-94.2743 340.812 -90.4685 340.98 -86.6628 341.149C-79.8637 341.45 -73.0647 341.752 -66.2656 342.054C-59.7063 342.346 -53.1469 342.637 -46.5875 342.927C-46.1825 342.945 -45.7775 342.963 -45.3602 342.982C-44.9559 342.999 -44.5515 343.017 -44.1348 343.036C-43.3201 343.072 -42.5054 343.108 -41.6907 343.144C-41.2887 343.162 -40.8867 343.18 -40.4725 343.198C-34.1627 343.477 -27.853 343.757 -21.5433 344.037C-19.2774 344.138 -17.0116 344.238 -14.7457 344.339C-11.1532 344.498 -7.56059 344.658 -3.96803 344.817C-2.33255 344.89 -0.697067 344.963 0.938431 345.035C4.40025 345.189 7.86205 345.344 11.3237 345.503C12.4465 345.554 13.5692 345.605 14.6919 345.655C16.3656 345.731 18.0393 345.809 19.7129 345.888C20.204 345.91 20.6952 345.932 21.2012 345.954C24.6297 346.119 28.0424 346.432 31.4611 346.814C31.485 345.845 31.485 345.845 31.5095 344.857C32.6049 300.626 33.7694 256.399 34.9582 212.172C35.013 210.133 35.0678 208.093 35.1226 206.053C35.3501 197.577 35.5782 189.1 35.8066 180.624C35.8551 178.824 35.9035 177.024 35.952 175.223C36.0422 171.868 36.1327 168.514 36.2235 165.159C36.2376 164.637 36.2517 164.116 36.2662 163.579C36.4531 156.685 36.6473 149.791 36.8634 142.899C37.0573 136.646 37.1629 130.39 37.2654 124.133C37.2855 122.954 37.3056 121.774 37.3259 120.595C37.3603 118.591 37.3939 116.588 37.427 114.584C37.4404 113.773 37.4538 112.963 37.4676 112.128C36.9844 112.132 36.5013 112.135 36.0036 112.138C31.4593 112.159 26.9248 112.06 22.3828 111.855C21.701 111.825 21.0192 111.796 20.3375 111.767C18.5134 111.688 16.6894 111.607 14.8654 111.525C13.3347 111.457 11.804 111.39 10.2732 111.323C6.66241 111.164 3.05164 111.004 -0.559128 110.843C-4.27261 110.677 -7.98616 110.514 -11.6998 110.353C-14.9042 110.213 -18.1087 110.072 -21.3131 109.929C-23.2202 109.845 -25.1273 109.76 -27.0344 109.678C-28.8245 109.6 -30.6146 109.52 -32.4046 109.439C-33.0585 109.41 -33.7124 109.381 -34.3664 109.353C-37.7054 109.21 -40.9989 108.996 -44.313 108.423C-45.1769 105.941 -45.3964 103.828 -45.5029 101.103C-45.5204 100.685 -45.5378 100.268 -45.5558 99.837C-45.6131 98.4414 -45.6647 97.0456 -45.7164 95.6497C-45.7564 94.6472 -45.7967 93.6448 -45.8374 92.6424C-45.9242 90.4865 -46.0084 88.3305 -46.0908 86.1743C-46.2208 82.7671 -46.3566 79.3604 -46.4931 75.9537C-46.7083 70.5682 -46.9197 65.1825 -47.1295 59.7967C-47.5056 50.1435 -47.886 40.4906 -48.2708 30.838C-48.4057 27.4488 -48.5383 24.0595 -48.6692 20.67C-48.7507 18.5659 -48.8339 16.4619 -48.9176 14.358C-48.9561 13.3796 -48.9939 12.4012 -49.031 11.4227C-49.0815 10.0911 -49.1345 8.75986 -49.1882 7.42858C-49.2172 6.68226 -49.2463 5.93595 -49.2762 5.16702C-49.314 3.4627 -49.314 3.4627 -49.8574 2.19702C-60.5047 3.01456 -71.1482 3.89886 -81.7907 4.82093C-84.3812 5.04527 -86.9718 5.26806 -89.5624 5.49055C-90.0052 5.52858 -90.448 5.56662 -90.9043 5.60581C-91.8072 5.68337 -92.7102 5.76092 -93.6132 5.83848C-99.6151 6.354 -105.617 6.87048 -111.619 7.39107C-115.711 7.74598 -119.802 8.09848 -123.895 8.44827C-126.045 8.63219 -128.195 8.81727 -130.346 9.00534C-132.361 9.18163 -134.377 9.35471 -136.393 9.52547C-137.125 9.58804 -137.857 9.65172 -138.589 9.71669C-143.518 10.1533 -148.415 10.2987 -153.354 10.2257C-153.785 8.49801 -153.878 7.41987 -153.874 5.63237C-153.875 5.16187 -153.876 4.69137 -153.877 4.2066C-153.816 2.81461 -153.816 2.81461 -153.354 0.344238ZM152.977 8.37294C153.734 14.0273 153.734 14.0273 154.825 19.4896C153.265 18.8991 151.706 18.3067 150.147 17.714C149.707 17.5476 149.268 17.3813 148.815 17.2098C148.172 16.965 148.172 16.965 147.515 16.7153C147.098 16.5565 146.681 16.3978 146.25 16.2343C145.352 15.8756 144.465 15.4625 143.584 15.0314C142.179 14.4822 141.198 14.5406 139.751 14.7805C134.935 15.4234 131.132 15.3935 126.509 13.2365C125.254 12.6014 125.254 12.6014 123.868 12.6961C124.126 18.467 124.409 24.2298 124.793 29.9887C124.542 29.9326 124.291 29.8764 124.032 29.8186C117.471 28.3711 111.852 27.3604 105.329 29.5641C104.94 29.6954 104.55 29.8268 104.149 29.9621C103.784 30.0959 103.42 30.2296 103.044 30.3674C102.717 30.4871 102.389 30.6068 102.051 30.7301C101.059 31.2087 101.059 31.2087 100.305 33.0766C100.105 34.3147 99.9453 35.5648 99.8101 36.8184C99.7297 37.5536 99.6493 38.2888 99.5664 39.0463C99.486 39.815 99.4056 40.5836 99.3228 41.3755C99.2388 42.1418 99.1548 42.9081 99.0683 43.6975C98.6078 47.9432 98.6078 47.9432 98.4565 52.222C97.9286 52.1375 97.4007 52.0529 96.8568 51.9658C94.8542 51.6495 92.85 51.3543 90.8451 51.0648C89.9859 50.9379 89.127 50.8056 88.2687 50.6673C82.1512 49.687 76.7683 49.8934 70.7342 51.6044C70.6849 59.8469 70.7578 68.0801 70.9067 76.3202C70.9265 77.419 70.9455 78.5178 70.9639 79.6167C70.9903 81.1797 71.0197 82.7426 71.0501 84.3055C71.0578 84.7797 71.0655 85.254 71.0735 85.7426C71.1143 87.687 71.1951 89.273 71.6583 91.1303C73.0303 91.7705 73.0303 91.7705 74.7265 92.1918C75.0398 92.2808 75.3531 92.3697 75.6758 92.4613C76.6842 92.7459 77.6941 93.0192 78.7044 93.2919C79.3639 93.4753 80.0232 93.6594 80.6825 93.8444C81.6588 94.1181 82.6351 94.391 83.6122 94.6598C86.1777 95.3672 88.7266 96.1538 91.2728 96.977C92.4756 97.3695 92.4756 97.3695 93.8361 97.3063C93.8307 97.8389 93.8254 98.3715 93.8198 98.9202C93.794 103.587 93.8518 108.238 94.0093 112.9C94.0236 113.408 94.0379 113.915 94.0526 114.438C94.1422 116.824 94.2118 118.131 95.2222 120.157C96.4314 120.524 96.4314 120.524 97.8719 120.594C98.4269 120.644 98.9818 120.693 99.5536 120.744C100.456 120.81 100.456 120.81 101.377 120.879C101.997 120.93 102.617 120.983 103.237 121.037C104.87 121.175 106.503 121.304 108.137 121.43C109.803 121.56 111.469 121.7 113.135 121.84C116.404 122.112 119.674 122.373 122.944 122.628C122.97 123.225 122.996 123.822 123.022 124.437C123.295 130.647 123.796 136.797 124.359 142.97C124.447 143.939 124.533 144.908 124.62 145.878C124.83 148.215 125.042 150.553 125.255 152.89C126.66 153.516 127.529 153.555 128.994 153.502C134.82 153.359 140.278 153.678 146.001 155.122C150.304 156.177 154.623 156.749 158.991 156.948C162.425 157.143 165.19 157.951 168.08 160.494C168.491 160.848 168.903 161.202 169.327 161.567C170.534 162.771 170.534 162.771 171.464 164.339C173.437 166.512 175.171 166.479 177.665 166.679C178.378 166.753 178.378 166.753 179.105 166.828C180.627 166.981 182.15 167.115 183.673 167.249C184.668 167.347 185.662 167.447 186.656 167.548C191.83 168.061 197.005 168.465 202.189 168.728C205.047 168.88 207.885 169.188 210.731 169.565C210.837 154.628 210.571 139.744 210.139 124.82C209.367 98.0558 209.115 71.4034 209.643 44.6248C210.037 29.8161 210.037 29.8161 209.374 15.0507C209.334 14.5304 209.294 14.0101 209.252 13.4741C209.071 10.8408 209.071 10.8408 208.421 8.37294C190.125 8.37294 171.828 8.37294 152.977 8.37294Z" fill="#FFBB4E"/>
</svg>
