<svg width="405" height="320" viewBox="0 0 405 320" fill="none" xmlns="http://www.w3.org/2000/svg">
<path d="M243.95 319.978C243.355 315.207 242.94 310.433 242.582 305.649C242.56 305.35 242.537 305.051 242.514 304.744C242.328 302.251 242.144 299.757 241.961 297.264C241.824 295.389 241.685 293.514 241.544 291.639C241.48 290.769 241.417 289.898 241.354 289.028C241.314 288.496 241.274 287.965 241.235 287.433C241.218 287.194 241.201 286.955 241.184 286.708C241.092 285.507 240.932 284.356 240.587 283.183C235.345 282.373 230.04 282.245 224.718 282.044C224.195 282.023 223.672 282.003 223.134 281.982C210.405 281.486 197.665 281.201 184.926 280.921C174.323 280.688 163.724 280.431 153.145 279.792C149.362 279.567 145.581 279.431 141.79 279.329C141.132 279.31 140.474 279.291 139.816 279.273C138.4 279.233 136.984 279.194 135.567 279.155C133.272 279.091 130.976 279.027 128.681 278.962C125.377 278.87 122.073 278.778 118.769 278.686C113.661 278.543 108.554 278.399 103.447 278.255C101.725 278.206 100.002 278.157 98.2796 278.109C97.6363 278.09 97.6363 278.09 96.98 278.072C92.1437 277.935 87.3073 277.799 82.4709 277.663C81.8122 277.644 81.8122 277.644 81.1401 277.625C80.7007 277.613 80.2612 277.6 79.8084 277.588C78.919 277.563 78.0296 277.538 77.1403 277.512C76.6994 277.5 76.2585 277.488 75.8043 277.475C72.2075 277.374 68.6107 277.272 65.0138 277.171C61.4521 277.07 57.8905 276.97 54.3288 276.87C52.17 276.809 50.0111 276.748 47.8523 276.687C36.1041 276.355 36.1041 276.355 24.3551 276.039C23.4646 276.016 22.5741 275.992 21.6836 275.968C19.0796 275.9 16.4755 275.832 13.8713 275.766C12.9878 275.743 12.1042 275.72 11.2207 275.696C10.8402 275.687 10.4596 275.678 10.0675 275.669C8.16925 275.618 6.27554 275.539 4.3815 275.426C3.82602 275.393 3.82599 275.393 3.25931 275.36C2.16107 275.218 1.45648 275.084 0.555359 274.565C0.149475 273.395 0.102509 272.332 0.168152 271.126C0.194702 270.603 0.194672 270.603 0.221771 270.069C0.243408 269.693 0.265045 269.317 0.287354 268.93C0.318542 268.335 0.318542 268.335 0.350372 267.728C0.394562 266.889 0.43985 266.051 0.486176 265.213C0.551758 264.022 0.614258 262.832 0.675354 261.642C0.800629 259.209 0.930389 256.776 1.06039 254.343C1.1095 253.421 1.15848 252.499 1.20749 251.578C1.32565 249.357 1.44415 247.136 1.56274 244.915C1.66037 243.087 1.7579 241.259 1.85535 239.431C2.24802 232.066 2.64157 224.701 3.03577 217.337C3.07672 216.571 3.11768 215.806 3.1586 215.041C3.93051 200.617 4.70764 186.194 5.49005 171.77C5.54608 170.737 5.60208 169.704 5.65808 168.672C7.24847 139.334 8.87784 109.999 12.0105 55.414C12.0367 54.9579 12.0367 54.9579 12.0636 54.4927C12.5813 45.5105 13.0999 36.5284 13.6197 27.5463C13.6349 27.2837 13.6501 27.0211 13.6657 26.7506C13.8666 23.2796 14.0677 19.8086 14.2691 16.3376C14.3073 15.6794 14.3454 15.0213 14.3835 14.3631C14.4969 12.4067 14.6107 10.4503 14.7257 8.49402C14.8064 7.11957 14.8843 5.74506 14.9599 4.37042C14.9951 3.74765 15.0304 3.12485 15.0656 2.50208C15.0801 2.22775 15.0945 1.9534 15.1094 1.67075C15.2041 0.026062 15.4046 -1.58548 15.6887 -3.21677C17.6826 -3.84955 19.1544 -3.90988 21.2849 -3.75543C24.2625 -3.56265 27.1952 -3.53076 30.1816 -3.56897C31.7222 -3.56982 33.2438 -3.48816 34.7797 -3.39539C37.7869 -3.22186 40.7938 -3.09705 43.8059 -2.99017C44.3562 -2.97037 44.9064 -2.95053 45.4734 -2.93011C46.9626 -2.87674 48.4519 -2.82446 49.9412 -2.77261C50.8745 -2.74005 51.8078 -2.70721 52.7411 -2.67435C63.468 -2.29788 74.1966 -2.01398 84.9304 -1.79221C85.8031 -1.77411 86.6757 -1.75552 87.5484 -1.73679C88.6074 -1.71426 89.6665 -1.69278 90.7256 -1.67261C93.3436 -1.61676 95.903 -1.48373 98.5016 -1.22787C99.692 -1.15536 100.882 -1.10562 102.075 -1.06213C102.431 -1.04868 102.787 -1.03522 103.154 -1.02136C105.966 -0.92395 108.777 -0.86496 111.591 -0.813538C111.97 -0.80658 112.349 -0.799622 112.74 -0.79245C114.664 -0.75766 116.589 -0.725006 118.514 -0.695068C119.24 -0.68277 119.967 -0.670471 120.694 -0.658142C121.185 -0.651428 121.185 -0.651428 121.686 -0.644562C123.315 -0.615967 124.92 -0.544464 126.54 -0.404541C128.598 -0.238251 130.649 -0.146606 132.716 -0.0847778C133.278 -0.0667725 133.278 -0.0667725 133.851 -0.0484314C135.094 -0.00881958 136.337 0.0293579 137.58 0.0675354C138.477 0.0957947 139.374 0.124176 140.271 0.152618C142.706 0.229584 145.141 0.305298 147.576 0.380768C150.151 0.460754 152.726 0.541779 155.301 0.622681C159.646 0.759064 163.991 0.894653 168.336 1.02975C173.292 1.18384 178.247 1.33893 183.202 1.49463C188.542 1.66241 193.882 1.82944 199.222 1.99622C200.724 2.04318 202.226 2.0903 203.728 2.13742C215.819 2.51657 227.91 2.87112 240.004 3.19135C246.74 3.37018 253.472 3.57861 260.204 3.83102C263.086 3.93887 265.968 4.04251 268.85 4.14575C269.15 4.15649 269.449 4.16724 269.758 4.17834C274.705 4.35541 279.653 4.51611 284.601 4.66885C284.95 4.67966 285.3 4.69046 285.66 4.70157C289.066 4.80661 292.472 4.91031 295.878 5.01208C303.114 5.2287 310.347 5.478 317.58 5.76538C323.269 5.9903 328.96 6.17734 334.653 6.34479C335.995 6.38437 337.338 6.42456 338.681 6.46497C339.576 6.49188 340.472 6.51883 341.367 6.54575C341.811 6.55908 342.255 6.57242 342.712 6.58618C345.002 6.65472 347.291 6.72159 349.581 6.78552C351.85 6.84903 354.118 6.9169 356.387 6.98773C357.238 7.01352 358.09 7.03769 358.942 7.06021C360.119 7.09149 361.297 7.12836 362.474 7.16653C362.989 7.17822 362.989 7.17819 363.515 7.19012C365.692 7.26822 367.266 7.61951 369.22 8.38507C369.324 15.9547 369.095 23.4797 368.589 31.0386C368.407 33.7596 368.238 36.4812 368.068 39.2027C368.028 39.8377 367.989 40.4727 367.949 41.1078C367.496 48.3423 367.12 55.5789 366.76 62.8167C366.729 63.4441 366.698 64.0716 366.667 64.699C366.494 68.1611 366.324 71.6232 366.155 75.0853C365.998 78.2776 365.84 81.4698 365.681 84.662C365.315 92.0529 364.953 99.4439 364.596 106.835C364.584 107.082 364.572 107.329 364.56 107.584C364.422 110.432 364.286 113.28 364.152 116.127C364.117 116.864 364.082 117.601 364.047 118.338C363.829 122.9 363.682 127.46 363.591 132.025C363.484 137.138 363.224 142.218 362.731 147.317C362.214 152.667 361.841 158.012 361.575 163.373C361.557 163.714 361.539 164.054 361.52 164.404C361.197 170.629 361.196 176.848 361.233 183.076C361.82 183.045 361.82 183.045 362.42 183.013C366.135 182.816 369.851 182.621 373.567 182.428C375.477 182.328 377.387 182.228 379.297 182.127C381.145 182.028 382.993 181.932 384.841 181.836C385.541 181.8 386.241 181.763 386.94 181.725C391.272 181.493 395.565 181.368 399.907 181.418C400.649 182.696 400.889 183.773 400.99 185.172C401.022 185.595 401.055 186.018 401.088 186.454C401.12 186.921 401.152 187.388 401.184 187.854C401.22 188.348 401.257 188.841 401.294 189.335C401.394 190.675 401.489 192.016 401.583 193.357C401.683 194.768 401.787 196.178 401.891 197.589C402.064 199.964 402.235 202.34 402.405 204.716C402.641 208.038 402.883 211.361 403.126 214.684C403.295 217.008 403.463 219.333 403.631 221.657C403.672 222.214 403.712 222.771 403.752 223.328C403.868 224.925 403.983 226.522 404.097 228.119C404.131 228.597 404.165 229.076 404.2 229.554C404.686 236.271 405.016 242.975 404.999 249.704C404.999 250.391 404.999 251.078 405 251.765C405 253.602 404.997 255.438 404.994 257.274C404.992 259.204 404.991 261.134 404.991 263.063C404.99 266.705 404.986 270.346 404.982 273.988C404.977 278.139 404.975 282.29 404.973 286.441C404.968 294.968 404.961 303.495 404.952 312.022C401.834 312.425 398.747 312.78 395.592 312.921C395.059 312.947 395.059 312.947 394.515 312.974C393.335 313.031 392.155 313.086 390.974 313.141C390.108 313.183 389.242 313.225 388.376 313.267C386.493 313.358 384.609 313.448 382.726 313.537C378.029 313.76 373.332 313.989 368.635 314.217C367.211 314.286 365.787 314.354 364.362 314.423C354.841 314.884 345.322 315.357 335.802 315.837C335.45 315.854 335.097 315.872 334.733 315.891C331.509 316.053 328.285 316.215 325.061 316.378C320.045 316.631 315.028 316.883 310.012 317.135C309.488 317.162 309.488 317.162 308.954 317.188C305.848 317.344 302.742 317.5 299.636 317.656C297.658 317.755 295.68 317.855 293.702 317.954C293.385 317.97 293.069 317.986 292.743 318.002C288.122 318.234 283.501 318.467 278.88 318.701C275.58 318.867 272.28 319.033 268.98 319.197C267.241 319.283 265.503 319.37 263.765 319.459C257.156 319.797 250.576 320.084 243.95 319.978ZM238.485 248.378C238.671 247.693 238.671 247.693 238.63 246.891C238.629 246.426 238.629 246.426 238.628 245.952C238.62 245.613 238.612 245.273 238.603 244.924C238.598 244.569 238.594 244.214 238.589 243.849C238.51 239.683 238.189 235.528 237.856 231.371C237.791 230.527 237.726 229.683 237.661 228.839C237.509 226.864 237.354 224.888 237.198 222.913C237.005 220.463 236.815 218.012 236.625 215.561C236.431 213.049 236.236 210.536 236.039 208.024C235.782 204.759 235.526 201.494 235.292 198.229C235.275 197.994 235.258 197.76 235.24 197.518C235.114 195.727 235.071 193.943 235.096 192.15C235.098 191.877 235.1 191.603 235.102 191.321C235.106 190.672 235.114 190.023 235.122 189.374C235.666 189.381 236.209 189.387 236.769 189.394C240.052 189.393 243.324 189.21 246.6 189.05C247.33 189.015 248.06 188.98 248.791 188.945C250.763 188.851 252.735 188.755 254.707 188.659C255.94 188.6 257.173 188.54 258.406 188.48C262.71 188.272 267.013 188.063 271.317 187.853C275.326 187.657 279.336 187.464 283.346 187.272C286.793 187.107 290.24 186.94 293.687 186.771C295.744 186.67 297.801 186.571 299.858 186.473C301.79 186.381 303.722 186.287 305.654 186.191C306.362 186.156 307.071 186.122 307.78 186.089C308.748 186.044 309.715 185.995 310.682 185.946C311.223 185.92 311.765 185.893 312.322 185.866C313.653 185.735 314.647 185.552 315.833 185.065C316.281 184.328 316.281 184.328 316.424 183.432C316.502 183.096 316.579 182.76 316.659 182.413C316.733 182.051 316.807 181.688 316.884 181.315C317.055 180.557 317.228 179.8 317.403 179.042C317.489 178.661 317.576 178.281 317.665 177.888C318.122 176.008 318.725 174.156 319.359 172.309C321.01 167.2 320.332 162.053 319.774 156.868C319.736 156.5 319.697 156.132 319.657 155.753C318.788 147.547 317.085 139.637 314.771 131.612C312.957 125.312 311.606 118.987 310.689 112.567C310.644 112.26 310.6 111.952 310.554 111.635C310.336 110.12 310.127 108.605 309.932 107.088C309.245 101.967 307.605 97.5259 304.693 92.8921C304.477 92.5424 304.261 92.1926 304.038 91.8323C301.899 88.4219 299.551 85.1116 297.121 81.8262C296.558 81.0638 296.004 80.2982 295.453 79.5306C291.213 73.6682 286.378 68.0596 281.142 62.7239C280.484 62.0463 279.843 61.3604 279.203 60.6724C274.629 55.7862 269.477 51.7668 263.287 48.1628C263.062 48.0299 262.837 47.897 262.605 47.76C258.77 45.4981 254.741 43.4825 250.691 41.4711C248.9 40.582 247.118 39.6834 245.341 38.7778C244.868 38.5372 244.395 38.2966 243.922 38.0561C243.016 37.5951 242.111 37.1332 241.207 36.6703C240.027 36.071 238.839 35.4842 237.644 34.9036C237.37 34.764 237.097 34.6244 236.815 34.4805C232.391 32.4447 225.727 32.7364 220.701 32.4382C220.012 32.3964 219.324 32.3545 218.635 32.3125C216.815 32.2022 214.996 32.0939 213.176 31.9865C212.048 31.9199 210.92 31.8529 209.791 31.7858C193.675 30.8268 193.675 30.8268 177.531 30.2628C177 30.2501 176.469 30.2373 175.922 30.2242C163.689 29.9688 151.583 30.8892 139.514 32.3968C139.126 32.4448 138.738 32.4929 138.337 32.5424C129.412 33.6409 129.412 33.6409 120.991 36.1259C120.696 36.2392 120.4 36.3525 120.095 36.4692C117.27 37.5724 114.58 38.8302 111.913 40.1521C111.086 40.5515 110.247 40.9276 109.402 41.3015C105.448 43.085 102.713 45.0829 99.926 47.9115C99.1804 48.6562 98.3945 49.3696 97.6046 50.0851C94.7834 52.6517 92.1627 55.336 89.6739 58.1073C89.4154 58.3924 89.4154 58.3924 89.1517 58.6833C82.9301 65.6987 80.2653 74.6127 79.0761 83.003C78.8685 84.4638 78.6468 85.9233 78.4224 87.3825C78.3572 87.8066 78.3572 87.8066 78.2908 88.2392C77.9538 90.3816 77.5116 92.497 76.9577 94.6117C75.9886 98.3524 75.5411 101.768 76.4026 105.562C77.1172 109.356 77.1622 113.18 77.1679 117.007C77.1687 117.286 77.1696 117.565 77.1704 117.853C77.1753 124.602 76.6119 131.319 76.0349 138.05C75.8131 140.694 75.6548 143.339 75.525 145.987C75.4507 147.477 75.3535 148.963 75.2113 150.45C73.9954 163.588 82.2469 178.797 88.4128 190.7C89.0103 191.859 89.6056 193.02 90.1993 194.18C90.334 194.442 90.4687 194.703 90.6074 194.972C91.4463 196.618 92.1939 198.278 92.9041 199.962C94.8727 204.596 97.4928 207.596 101.937 210.997C103.377 212.1 104.723 213.164 105.884 214.463C107.789 216.53 110.434 218.073 112.898 219.706C113.842 220.341 114.75 221.005 115.658 221.673C124.751 228.103 135.309 233.271 145.715 238.267C146.18 238.491 146.645 238.715 147.124 238.946C154.744 242.558 161.74 244.127 170.445 245.169C172.776 245.449 175.106 245.737 177.436 246.025C177.905 246.083 178.374 246.14 178.857 246.2C183.996 246.837 189.117 247.553 194.233 248.292C202.084 249.416 209.671 249.812 217.66 249.79C219.228 249.786 220.797 249.79 222.366 249.794C230.728 250.179 230.728 250.179 238.485 248.378Z" fill="#F46F0D"/>
</svg>
