<svg width="58" height="79" viewBox="0 0 58 79" fill="none" xmlns="http://www.w3.org/2000/svg">
<g clip-path="url(#clip0_7010_10778)">
<path d="M47.912 -17.1475C47.9079 -17.3365 47.904 -17.5255 47.9005 -17.7145C47.8954 -17.9738 47.8887 -18.233 47.882 -18.4922C47.8784 -18.639 47.8749 -18.7858 47.8712 -18.9371C47.8304 -19.4267 47.7332 -19.8443 47.6101 -20.3129C46.921 -20.4453 46.2318 -20.5774 45.5426 -20.7092C45.3084 -20.7541 45.0742 -20.799 44.8401 -20.844C44.5024 -20.9088 44.1647 -20.9734 43.827 -21.038C43.7233 -21.0579 43.6195 -21.0779 43.5126 -21.0985C40.003 -21.7679 36.5607 -21.1949 33.0576 -20.7124C32.0265 -20.5708 30.9951 -20.4331 29.9637 -20.2952C29.6087 -20.2475 29.2539 -20.1987 28.899 -20.1497C27.5916 -19.9713 26.2896 -19.8389 24.9748 -19.773C24.5963 -22.2251 24.289 -24.6899 23.9921 -27.1577C23.9652 -27.3805 23.9384 -27.6032 23.9115 -27.826C23.8011 -28.7425 23.6909 -29.659 23.5819 -30.5757C23.5141 -31.1451 23.4456 -31.7144 23.3766 -32.2836C23.3507 -32.4982 23.3251 -32.7129 23.2998 -32.9276C23.2648 -33.225 23.2287 -33.5222 23.1925 -33.8194C23.1723 -33.9879 23.1522 -34.1563 23.1314 -34.3299C23.0685 -34.7078 23.0111 -34.9767 22.8351 -35.2964C22.5522 -35.4627 22.5522 -35.4627 22.1696 -35.607C22.097 -35.6344 22.0245 -35.6619 21.9498 -35.6901C20.6655 -36.1627 19.3573 -36.5431 18.0561 -36.9416C17.7784 -37.0272 17.5008 -37.1129 17.2231 -37.1986C15.9255 -37.599 15.9255 -37.599 15.3659 -37.7685C15.1819 -37.8251 14.9983 -37.8835 14.8155 -37.9449C12.7055 -38.6394 10.3371 -37.9146 8.22432 -37.5054C7.55101 -37.3751 6.87737 -37.2473 6.20344 -37.1217C5.97194 -37.078 5.74071 -37.0326 5.50946 -36.9871C4.59473 -36.8146 3.71564 -36.7443 2.78991 -36.7813C2.73546 -38.8152 2.90549 -40.8164 3.07145 -42.8388C3.11203 -43.3376 3.15233 -43.8365 3.19194 -44.3354C3.21641 -44.6433 3.24144 -44.9512 3.26713 -45.259C3.49103 -48.0618 3.49103 -48.0618 2.90253 -48.93C2.31057 -49.3667 1.87059 -49.3532 1.21333 -49.2C0.684334 -49.0457 0.160694 -48.8709 -0.363266 -48.6938C-0.510475 -48.6448 -0.657692 -48.5958 -0.80492 -48.5469C-1.49138 -48.3176 -2.174 -48.0798 -2.85014 -47.8097C-4.72475 -47.0619 -6.5202 -47.3627 -8.42311 -47.7928C-9.34074 -47.9992 -10.2389 -48.1744 -11.1742 -48.1876C-11.291 -48.1913 -11.291 -48.1913 -11.4102 -48.1951C-12.7513 -48.1767 -14.1072 -47.5051 -15.3613 -46.9895C-16.8384 -46.3833 -18.3241 -45.8147 -19.8173 -45.2685C-19.9054 -45.2362 -19.9935 -45.2038 -20.0843 -45.1705C-20.3348 -45.0787 -20.5854 -44.9873 -20.8361 -44.8963C-20.91 -44.8692 -20.984 -44.8421 -21.0602 -44.8142C-21.4411 -44.6769 -21.8187 -44.5597 -22.2103 -44.4755C-22.1416 -45.6065 -21.9034 -46.6741 -21.6613 -47.7658C-21.6212 -47.9493 -21.5812 -48.1328 -21.5412 -48.3163C-21.5018 -48.4966 -21.4623 -48.677 -21.4229 -48.8573C-21.4036 -48.9453 -21.3844 -49.0333 -21.3646 -49.124C-21.2783 -49.5161 -21.189 -49.9062 -21.0924 -50.2948C-21.0615 -50.4197 -21.0306 -50.5446 -20.9988 -50.6733C-20.9581 -50.8303 -20.9581 -50.8303 -20.9165 -50.9905C-20.8624 -51.3377 -20.8532 -51.6384 -20.8553 -51.9903C-20.8559 -52.0997 -20.8564 -52.2092 -20.8569 -52.3219C-20.8576 -52.4053 -20.8582 -52.4887 -20.8589 -52.5747C-23.3575 -52.579 -25.8562 -52.5816 -28.3548 -52.5831C-28.498 -52.5832 -28.498 -52.5832 -28.6442 -52.5833C-36.1892 -52.5878 -43.7338 -52.5482 -51.2787 -52.4901C-51.5886 -52.4877 -51.8985 -52.4854 -52.2084 -52.483C-53.0731 -52.4763 -53.9378 -52.4696 -54.8025 -52.4625C-55.7962 -52.4542 -56.7899 -52.4469 -57.7836 -52.4411C-57.9435 -52.4402 -58.1034 -52.4392 -58.2633 -52.4381C-58.7387 -52.4351 -59.2142 -52.4327 -59.6896 -52.4313C-59.9019 -52.4305 -60.1143 -52.4292 -60.3266 -52.4278C-62.0052 -52.4249 -63.7154 -52.5008 -65.3699 -52.8531C-65.9212 -52.9694 -66.4436 -53.0135 -67.0023 -52.9965C-67.0822 -52.9953 -67.162 -52.9941 -67.2443 -52.9928C-67.4358 -52.9897 -67.6273 -52.9849 -67.8188 -52.9796C-68.0805 -52.4126 -68.2096 -51.9499 -68.2673 -51.3068C-68.2831 -51.1373 -68.2989 -50.9678 -68.3151 -50.7931C-68.3308 -50.6078 -68.3465 -50.4225 -68.3621 -50.2372C-68.3792 -50.0411 -68.3964 -49.8449 -68.4136 -49.6488C-68.4497 -49.2344 -68.4846 -48.8198 -68.5189 -48.4052C-68.5531 -47.9937 -68.5889 -47.5825 -68.6267 -47.1715C-69.2757 -40.0928 -68.8899 -32.9263 -68.7507 -25.8221C-68.7215 -24.3366 -68.693 -22.851 -68.6645 -21.3654C-68.6607 -21.1675 -68.6607 -21.1675 -68.6568 -20.9657C-68.608 -18.4204 -68.5598 -15.8751 -68.5127 -13.3297C-68.503 -12.8098 -68.4934 -12.2898 -68.4835 -11.7698C-68.3193 -3.07456 -68.3376 5.60913 -68.5734 14.3017C-68.5947 15.0877 -68.6153 15.8737 -68.6355 16.6598C-68.8079 23.367 -68.9986 30.0734 -69.1906 36.7798C-69.208 37.386 -69.2253 37.9921 -69.2426 38.5983C-69.2774 39.8137 -69.3122 41.0292 -69.347 42.2447C-69.3499 42.3452 -69.3528 42.4457 -69.3557 42.5492C-69.428 45.0691 -69.5009 47.5891 -69.5748 50.1089C-69.6199 51.6466 -69.6646 53.1844 -69.709 54.7221C-69.735 55.6193 -69.7611 56.5164 -69.7879 57.4135C-69.9757 63.7198 -69.9757 63.7198 -69.9903 66.0873C-69.9921 66.3537 -69.9952 66.6202 -69.9985 66.8866C-69.9985 67.1176 -69.9985 67.1176 -69.9985 67.3533C-69.999 67.4835 -69.9995 67.6137 -70 67.7478C-69.95 68.1753 -69.8305 68.4302 -69.6206 68.778C-68.8214 69.2571 -67.5629 68.8353 -66.7204 68.6768C-66.5873 68.6528 -66.4543 68.6289 -66.3172 68.6042C-65.8955 68.5282 -65.4741 68.4508 -65.0527 68.3731C-64.4967 68.2707 -63.9405 68.1697 -63.3842 68.0694C-63.1955 68.0339 -63.1955 68.0339 -63.003 67.9978C-61.8125 67.7601 -61.8125 67.7601 -60.624 67.9003C-58.6124 68.4741 -56.098 67.8264 -54.0484 67.6227C-53.5518 67.5735 -53.0552 67.5257 -52.5586 67.4777C-51.7264 67.397 -50.8943 67.3154 -50.0622 67.2332C-49.1044 67.1386 -48.1465 67.0452 -47.1885 66.9526C-46.161 66.8532 -45.1335 66.7529 -44.106 66.6524C-43.8129 66.6237 -43.5198 66.5953 -43.2267 66.5668C-42.7645 66.522 -42.3023 66.4765 -41.8402 66.4306C-41.6719 66.4139 -41.5037 66.3975 -41.3355 66.3813C-37.5274 66.0135 -37.5274 66.0135 -36.0327 64.2613C-33.4424 61.3863 -30.5716 59.5145 -27.0349 59.3377C-26.7793 59.3248 -26.5237 59.3099 -26.2681 59.2946C-25.6324 59.2568 -24.9965 59.2222 -24.3606 59.1878C-20.9854 59.0049 -17.6982 58.6469 -14.3907 57.7682C-13.5833 57.5548 -12.7752 57.3511 -11.9625 57.1692C-11.8682 57.1479 -11.7739 57.1267 -11.6768 57.1048C-9.06439 56.5462 -6.36985 56.7044 -3.72714 56.7053C-3.0383 56.7055 -2.3495 56.7037 -1.66067 56.6988C-1.34127 56.6973 -1.02194 56.6989 -0.702538 56.7006C-0.506454 56.6994 -0.310368 56.6981 -0.114285 56.6965C0.0166473 56.6985 0.0166473 56.6985 0.150223 56.7005C0.862633 56.6894 1.47346 56.4603 1.98122 55.8385C2.27837 55.2159 2.4463 54.6414 2.51938 53.9259C2.532 53.818 2.54462 53.7101 2.55762 53.5989C2.73882 51.9914 2.87359 50.376 3.01394 48.7627C3.06501 48.176 3.11712 47.5893 3.16946 47.0027C3.18694 46.8066 3.20443 46.6106 3.22192 46.4145C3.23051 46.3182 3.23909 46.2219 3.24794 46.1226C3.34539 45.0291 3.44238 43.9356 3.5384 42.8419C3.58641 42.2963 3.63575 41.7508 3.68653 41.2054C3.71086 40.9404 3.73364 40.6751 3.75634 40.4098C3.9778 38.0665 4.70105 36.1722 6.20747 34.6249C7.33252 33.614 8.58876 33.1891 9.97255 33.0478C10.1752 33.0245 10.1752 33.0245 10.382 33.0007C11.871 32.8372 13.3637 32.7406 14.8567 32.6489C15.711 32.5963 16.5651 32.5394 17.4191 32.482C17.5067 32.4761 17.5944 32.4703 17.6847 32.4642C19.6562 32.3314 21.6257 32.1663 23.5949 31.9915C23.8478 31.969 24.1006 31.9468 24.3535 31.9246C24.8234 31.8832 25.2932 31.841 25.7631 31.7986C25.9021 31.7863 26.0411 31.7739 26.1843 31.7612C26.3764 31.7435 26.3764 31.7435 26.5725 31.7255C26.6833 31.7154 26.794 31.7054 26.9081 31.695C27.243 31.6549 27.5714 31.5923 27.9027 31.5218C28.097 30.5227 28.1774 29.5502 28.2159 28.5268C28.2258 28.2918 28.2258 28.2918 28.2358 28.0521C28.2497 27.7171 28.2633 27.3822 28.2764 27.0472C28.2971 26.5224 28.3188 25.9977 28.3409 25.473C28.4083 23.8518 28.4708 22.2304 28.5256 20.6085C28.5391 20.2241 28.5527 19.8397 28.5662 19.4553C28.5781 19.1032 28.5883 18.7511 28.5984 18.3989C28.6437 16.4252 28.6437 16.4252 29.4793 14.7835C30.049 14.3436 30.5485 14.1242 31.2094 13.9667C31.3031 13.9431 31.3968 13.9194 31.4933 13.895C31.8094 13.8155 32.1259 13.7385 32.4425 13.6614C32.6709 13.6045 32.8992 13.5475 33.1276 13.4904C33.9381 13.2886 34.7492 13.0908 35.5605 12.8937C35.6806 12.8645 35.6806 12.8645 35.8031 12.8347C36.3252 12.7079 36.8474 12.5811 37.3696 12.4545C37.5514 12.4104 37.7332 12.3663 37.915 12.3222C38.8205 12.1025 39.7261 11.8831 40.632 11.6658C42.8908 11.1239 45.1406 10.5468 47.3849 9.92399C47.571 7.50814 47.6681 5.09682 47.7233 2.67201C47.7299 2.38511 47.7367 2.09822 47.7437 1.81133C48.0492 -10.8555 48.0492 -10.8555 47.912 -17.1475Z" fill="#FFBB4E" fill-opacity="0.7"/>
</g>
<defs>
<clipPath id="clip0_7010_10778">
<rect width="138" height="79" fill="white" transform="translate(-80)"/>
</clipPath>
</defs>
</svg>
