<svg width="111" height="112" viewBox="0 0 111 112" fill="none" xmlns="http://www.w3.org/2000/svg">
<mask id="mask0_7151_6474" style="mask-type:luminance" maskUnits="userSpaceOnUse" x="0" y="0" width="111" height="112">
<path d="M0 0H110.109V112H0V0Z" fill="white"/>
</mask>
<g mask="url(#mask0_7151_6474)">
<path d="M63.6185 111.821C63.2525 111.925 62.8809 111.971 62.5002 111.958C59.7237 111.848 57.7726 108.33 58.1533 104.102C58.653 99.2595 59.1856 94.4074 59.7512 89.5444C59.8518 88.6164 60.0348 87.7049 60.3002 86.8099C60.5675 85.9149 60.9134 85.051 61.338 84.2201C61.7608 83.3891 62.2568 82.6021 62.8242 81.8609C63.3934 81.1196 64.023 80.4369 64.7149 79.811L65.6044 79.0404C68.0203 76.8898 70.4509 74.6111 72.8944 72.2062C75.8521 69.3052 79.0166 66.4079 82.3862 63.516C84.3226 61.8541 87.2455 61.5064 88.858 62.7235C90.4339 63.9187 90.0239 66.2541 88.1625 67.9435C84.6356 71.086 81.3374 74.2396 78.268 77.406C79.3388 76.7873 80.4278 76.176 81.5314 75.5574C87.9264 71.9627 93.7449 66.0326 96.2377 59.6926L98.4871 53.8869C99.4114 51.4746 102.73 49.5272 105.931 49.5345C109.132 49.5419 110.84 51.4673 109.756 53.8723C108.369 56.9911 106.98 60.1135 105.59 63.2378C101.987 71.3221 95.0993 79.2271 87.8367 85.4153C86.3414 86.68 84.8955 87.9484 83.4971 89.2186C81.4234 91.0854 79.5602 93.1427 77.9038 95.3884C76.2493 97.636 74.8363 100.026 73.6649 102.559C71.4997 107.113 68.11 110.596 64.8613 111.486L63.6185 111.821ZM46.7727 111.821L45.5372 111.493C42.2958 110.603 38.9007 107.12 36.7409 102.567C35.5677 100.034 34.1529 97.6433 32.4965 95.3976C30.8383 93.15 28.9751 91.0928 26.9014 89.2241C25.5122 87.9502 24.0663 86.6818 22.5618 85.4226C15.2993 79.2545 8.41195 71.3295 4.80813 63.2653C3.41896 60.1465 2.02978 57.024 0.642429 53.8998C-0.420961 51.4472 1.27387 49.5492 4.50248 49.5419C7.73108 49.5345 11.0219 51.482 11.9462 53.8943L14.1956 59.6981C16.6884 66.04 22.527 71.9701 28.9019 75.5629C30.0055 76.1833 31.0945 76.7947 32.1653 77.4133C29.0959 74.2524 25.7977 71.0988 22.2708 67.9508C20.3746 66.2614 19.9646 63.926 21.5405 62.729C23.1383 61.5137 26.0759 61.8615 28.0124 63.5215C31.3874 66.4152 34.5501 69.3107 37.5042 72.2135C39.9439 74.591 42.3672 76.866 44.774 79.0404L45.6617 79.8402C46.3554 80.4644 46.985 81.1489 47.5524 81.8883C48.1198 82.6296 48.6158 83.4166 49.0404 84.2475C49.465 85.0803 49.8109 85.9424 50.0763 86.8374C50.3435 87.7324 50.5266 88.6439 50.6272 89.5718C51.191 94.4294 51.7236 99.2832 52.2232 104.13C52.6058 108.358 50.6419 111.876 47.8782 111.987C47.5011 111.987 47.1332 111.932 46.7727 111.821ZM44.9406 29.742H64.6947C69.5541 29.742 73.8589 31.8266 75.9985 34.8722L55.1883 43.7985L34.3579 34.8448C36.2193 31.8138 40.1288 29.742 44.9406 29.742ZM55.245 27.1961C54.8003 27.1961 54.3573 27.1723 53.9144 27.1265C53.4715 27.0807 53.034 27.0149 52.5984 26.927C52.1628 26.8373 51.7327 26.7293 51.3063 26.5975C50.8816 26.4676 50.4643 26.3157 50.0544 26.1455C49.6444 25.9734 49.2435 25.7812 48.8519 25.5708C48.462 25.3603 48.0813 25.1297 47.7116 24.8808C47.3437 24.6337 46.9886 24.3664 46.6446 24.0846C46.3023 23.8009 45.9747 23.5007 45.6617 23.1859C45.3469 22.8693 45.0504 22.5398 44.7704 22.1939C44.4885 21.8498 44.2249 21.4911 43.9797 21.1214C43.7326 20.7498 43.5056 20.3691 43.297 19.9756C43.0902 19.5821 42.9016 19.1794 42.7314 18.7676C42.563 18.3577 42.4148 17.9385 42.2867 17.5121C42.1586 17.0856 42.0524 16.6537 41.9664 16.2181C41.8803 15.7806 41.8163 15.3414 41.7742 14.8984C41.7321 14.4555 41.7101 14.0108 41.712 13.566C41.7138 13.1212 41.7358 12.6765 41.7797 12.2336C41.8254 11.7906 41.8913 11.3514 41.9792 10.9158C42.067 10.4802 42.175 10.0482 42.305 9.62358C42.4349 9.19713 42.585 8.77983 42.7571 8.36802C42.9273 7.95803 43.1176 7.55537 43.3281 7.16369C43.5386 6.77202 43.7674 6.39132 44.0145 6.0216C44.2634 5.65189 44.5288 5.29498 44.8106 4.95272C45.0925 4.60863 45.3926 4.27918 45.7075 3.96621C46.0223 3.6514 46.3517 3.35306 46.6958 3.0712C47.0399 2.78934 47.3968 2.52578 47.7665 2.27869C48.1362 2.0316 48.5169 1.80465 48.9104 1.596C49.3021 1.38552 49.7029 1.197 50.1148 1.02678C50.5247 0.856569 50.9439 0.708317 51.3685 0.580197C51.7949 0.450247 52.2251 0.344092 52.6607 0.258069C53.0981 0.172046 53.5374 0.106156 53.9785 0.0640596C54.4214 0.020133 54.8643 0 55.3091 0C55.7538 0 56.1968 0.0219633 56.6397 0.0658899C57.0808 0.111647 57.5201 0.175706 57.9557 0.26356C58.3931 0.351413 58.8232 0.459399 59.2478 0.589348C59.6725 0.719298 60.0916 0.869381 60.5016 1.0396C60.9115 1.20981 61.3124 1.40016 61.7041 1.61064C62.0976 1.82112 62.4783 2.04991 62.8461 2.29699C63.2159 2.54408 63.5728 2.80947 63.915 3.09133C64.2591 3.37503 64.5886 3.67336 64.9016 3.98817C65.2164 4.30298 65.5147 4.63243 65.7966 4.97652C66.0784 5.32061 66.342 5.67751 66.5891 6.04906C66.8361 6.41877 67.0631 6.79947 67.2736 7.19298C67.4822 7.58466 67.6726 7.98732 67.8428 8.3973C68.0112 8.80911 68.1613 9.22824 68.2912 9.65287C68.4193 10.0793 68.5273 10.5113 68.6133 10.9469C68.7012 11.3843 68.7653 11.8236 68.8092 12.2665C68.8531 12.7094 68.8751 13.1524 68.8751 13.5989C68.8732 14.0437 68.8513 14.4885 68.8055 14.9332C68.7616 15.378 68.6957 15.8172 68.6079 16.2547C68.52 16.6921 68.4102 17.124 68.2802 17.5505C68.1503 17.9788 68.0002 18.3979 67.8282 18.8097C67.6579 19.2215 67.4658 19.6242 67.2553 20.0159C67.0448 20.4094 66.8142 20.7919 66.5671 21.1616C66.3182 21.5332 66.0528 21.8901 65.7691 22.2342C65.4854 22.5783 65.1871 22.9077 64.8704 23.2225C64.5556 23.5373 64.2243 23.8357 63.8803 24.1194C63.5362 24.4012 63.1774 24.6666 62.8059 24.9137C62.4362 25.1608 62.0536 25.3896 61.6601 25.5982C61.2666 25.8087 60.864 25.9991 60.4521 26.1674C60.0403 26.3377 59.6212 26.4877 59.1947 26.6159C58.7683 26.7458 58.3363 26.8538 57.8989 26.9398C57.4615 27.0258 57.0222 27.0899 56.5775 27.1338C56.1345 27.1759 55.6898 27.1979 55.245 27.1961ZM55.1883 71.2325L31.9145 59.2808C31.7351 59.1819 31.6217 59.03 31.5741 58.8305L27.2766 35.9503C27.2473 35.802 27.2619 35.6574 27.3187 35.5183C27.3535 35.4323 27.4047 35.3572 27.4706 35.2932C27.5383 35.2273 27.6134 35.1779 27.6994 35.1431C27.7854 35.1083 27.8751 35.0919 27.9684 35.0937C28.0599 35.0937 28.1496 35.1138 28.2357 35.1504L55.1883 46.7196L82.1501 35.1504C82.2342 35.1138 82.3239 35.0937 82.4173 35.0937C82.5088 35.0919 82.5985 35.1083 82.6845 35.1431C82.7705 35.1779 82.8474 35.2273 82.9133 35.2932C82.9792 35.3572 83.0304 35.4323 83.067 35.5183C83.1274 35.6574 83.1421 35.802 83.1073 35.9503L78.797 58.8305C78.7494 59.03 78.6359 59.1819 78.4566 59.2808L55.1883 71.2325Z" fill="#FFBB4F"/>
</g>
</svg>
