<svg width="232" height="136" viewBox="0 0 232 136" fill="none" xmlns="http://www.w3.org/2000/svg">
<g clip-path="url(#clip0_5634_12570)">
<path d="M152.243 135.927C151.286 135.399 150.895 134.963 150.522 134.02C150.43 133.792 150.338 133.564 150.243 133.329C150.147 133.081 150.051 132.832 149.952 132.576C149.847 132.316 149.743 132.055 149.636 131.787C149.295 130.93 148.959 130.072 148.624 129.214C148.389 128.618 148.154 128.023 147.919 127.428C147.441 126.217 146.966 125.005 146.494 123.793C145.967 122.443 145.435 121.095 144.899 119.748C143.23 115.544 141.625 111.404 140.66 107.019C139.581 102.305 137.776 97.7312 136.127 93.1583C135.879 92.4694 135.631 91.7802 135.384 91.091C133.693 86.3883 131.894 81.756 129.774 77.192C129.206 75.9632 128.653 74.7286 128.1 73.494C128.002 73.2779 127.904 73.0617 127.804 72.839C127.714 72.6401 127.625 72.4412 127.533 72.2363C127.455 72.064 127.377 71.8916 127.297 71.7141C126.751 70.3722 126.587 69.0812 126.993 67.6783C128.187 65.7047 132.184 64.9489 134.442 64.3155C134.721 64.2366 135.001 64.1578 135.289 64.0765C138.31 63.2331 141.36 62.4924 144.421 61.7704C144.849 61.6686 144.849 61.6686 145.286 61.5646C148.891 60.7071 152.499 59.8942 156.141 59.1722C158.247 58.749 160.316 58.2422 162.386 57.6934C162.68 57.6156 162.973 57.5377 163.276 57.4575C164.295 57.186 165.313 56.9138 166.329 56.6349C168.216 56.1198 169.975 55.7453 171.938 55.6355C176.092 55.3853 179.972 54.3297 183.952 53.2889C184.999 53.0191 186.047 52.7506 187.095 52.4828C187.741 52.3174 188.386 52.1507 189.031 51.9824C192.23 51.1537 195.353 50.4617 198.682 50.2761C200.666 50.1441 202.525 49.9281 204.439 49.4411C206.54 48.924 209.251 48.3302 211.324 49.2012C212.22 50.0394 212.299 50.9968 212.524 52.1151C212.576 52.3545 212.628 52.5939 212.681 52.8405C212.85 53.6224 213.013 54.4053 213.175 55.1882C213.291 55.7271 213.407 56.2658 213.524 56.8044C213.864 58.377 214.196 59.9508 214.527 61.5248C215.868 67.9104 215.868 67.9104 218.036 74.0998C219.773 78.2081 221.26 82.3469 222.642 86.5602C223.928 90.477 225.234 94.3847 226.644 98.2674C226.72 98.4758 226.796 98.6843 226.873 98.8991C227.802 101.453 228.774 103.992 229.776 106.524C229.878 106.781 229.98 107.039 230.084 107.304C230.579 108.555 231.077 109.804 231.583 111.05C231.764 111.502 231.944 111.954 232.124 112.406C232.208 112.608 232.291 112.811 232.378 113.019C232.896 114.333 233.105 115.407 232.95 116.802C232.379 117.621 231.631 117.76 230.615 117.983C230.306 118.051 229.996 118.12 229.678 118.19C229.334 118.261 228.99 118.333 228.636 118.407C228.275 118.484 227.913 118.562 227.54 118.641C223.271 119.536 218.954 120.238 214.641 120.942C211.22 121.494 211.22 121.494 207.88 122.342C205.503 123.047 203.045 123.164 200.565 123.352C196.94 123.629 193.485 124.079 189.964 124.924C189.494 125.035 189.494 125.035 189.014 125.149C186.274 125.802 183.54 126.473 180.808 127.151C180.598 127.203 180.387 127.255 180.171 127.308C175.007 128.589 169.847 129.876 164.762 131.391C164.46 131.48 164.46 131.48 164.153 131.57C160.95 132.519 157.824 133.684 155.021 135.386C154.064 135.941 153.4 136.115 152.243 135.927Z" fill="#5894A9" fill-opacity="0.7"/>
<path d="M40.2512 135.999C39.8468 135.997 39.8468 135.997 39.4342 135.996C36.0751 135.979 32.7164 135.931 29.3578 135.878C28.2548 135.861 27.1517 135.845 26.0486 135.829C14.1883 135.653 14.1883 135.653 12.4619 134.402C11.7627 133.475 11.4368 132.684 11.2109 131.583C11.1166 131.133 11.1166 131.133 11.0204 130.673C10.923 130.186 10.923 130.186 10.8236 129.688C10.7528 129.343 10.6817 128.997 10.6105 128.652C10.4204 127.725 10.2344 126.797 10.0496 125.87C9.93451 125.293 9.81839 124.716 9.70197 124.14C8.67101 119.027 7.71976 113.909 6.91966 108.761C6.8786 108.498 6.83754 108.234 6.79523 107.962C6.25542 104.463 5.8162 101.015 5.7708 97.4779C5.71425 93.0862 5.30521 88.9417 4.39111 84.6248C4.13358 83.3556 3.92852 82.2119 4.08533 80.9251C4.6487 80.299 5.34151 80.0115 6.10728 79.6144C5.94326 77.6048 5.39617 75.7922 4.77135 73.8636C3.02177 68.2762 1.80579 62.5866 0.717415 56.8655C0.621696 56.3625 0.524155 55.8597 0.426559 55.3569C0.370964 55.0531 0.315369 54.7493 0.258087 54.4362C0.184364 54.0395 0.184372 54.0395 0.109154 53.6347C0.0168991 52.6004 0.0205154 51.6565 0.750031 50.8236C3.08379 49.1476 5.23129 48.9331 8.17773 48.8493C8.64384 48.8334 9.10992 48.8172 9.576 48.8007C9.81961 48.7921 10.0632 48.7835 10.3142 48.7746C14.5102 48.6211 18.6351 48.3319 22.7883 47.7639C27.1427 47.1721 31.4591 46.7961 35.8587 46.5842C36.3074 46.5609 36.7561 46.5374 37.2048 46.5137C47.0655 45.9954 56.8814 45.614 66.691 46.9109C67.0245 46.9549 67.0245 46.9549 67.3648 46.9998C68.2766 47.1204 69.1884 47.2411 70.0997 47.3645C73.0418 47.7608 75.8931 48.0478 78.8753 47.8464C80.0455 47.7865 80.5375 47.8312 81.4889 48.4847C82.479 49.7037 82.3879 50.6645 82.3283 52.1609C82.3215 52.3475 82.3146 52.534 82.3075 52.7262C82.2928 53.1258 82.2774 53.5253 82.2614 53.9248C82.2203 54.9707 82.1867 56.0167 82.1523 57.0628C82.1455 57.2692 82.1386 57.4755 82.1315 57.6882C82.007 61.4405 81.9934 65.0091 82.6227 68.7263C83.5052 74.2293 82.7249 79.6791 81.93 85.1521C81.7847 86.1781 81.6405 87.2042 81.4974 88.2304C81.4089 88.8619 81.319 89.4933 81.2274 90.1244C81.1869 90.4084 81.1464 90.6924 81.1047 90.985C81.0688 91.2326 81.0328 91.4803 80.9958 91.7354C80.9137 92.5105 80.8754 93.2543 80.9191 94.0323C81.3722 94.5379 81.3722 94.5379 82.0023 94.917C83.5219 96.0179 84.2887 97.2913 84.6741 99.013C85.0407 103.423 84.2465 107.839 83.6269 112.203C83.4757 113.268 83.3301 114.333 83.1862 115.399C83.0728 116.234 82.9567 117.069 82.8397 117.904C82.785 118.297 82.7311 118.689 82.6781 119.081C81.5266 127.551 81.5266 127.551 78.6184 129.875C75.2449 132.118 70.9558 132.416 66.9438 132.939C66.3469 133.019 65.75 133.099 65.1531 133.18C63.908 133.347 62.6626 133.512 61.4169 133.676C59.8263 133.885 58.2363 134.097 56.6465 134.31C55.1205 134.515 53.5943 134.719 52.0681 134.922C51.7804 134.96 51.4927 134.998 51.1962 135.038C50.3755 135.147 49.5547 135.255 48.7338 135.363C48.4957 135.395 48.2576 135.427 48.0124 135.459C45.421 135.798 42.8704 136.018 40.2512 135.999Z" fill="#5894A9" fill-opacity="0.7"/>
<path d="M148.926 23.0023C148.098 23.0684 147.438 23.0527 146.741 22.626C144.19 20.2542 143.535 16.6006 142.808 13.5035C142.757 13.2929 142.707 13.0823 142.655 12.8653C141.776 9.14925 141.304 5.45282 141.045 1.66557C141.031 1.47067 141.018 1.27577 141.004 1.07496C140.97 0.554384 140.94 0.0335999 140.91 -0.487194C140.838 -1.4743 140.672 -2.4396 140.505 -3.41738C140.12 -5.92161 140.119 -8.41336 140.106 -10.9372C140.101 -11.4494 140.096 -11.9615 140.091 -12.4737C140.078 -13.8127 140.068 -15.1517 140.058 -16.4908C140.043 -18.6311 140.024 -20.7713 140.003 -22.9116C139.997 -23.6505 139.992 -24.3894 139.987 -25.1283C139.97 -27.4244 139.906 -29.7071 139.736 -31.9984C139.618 -33.6137 139.595 -35.2212 139.604 -36.8394C139.605 -37.2697 139.605 -37.2697 139.606 -37.7086C139.607 -38.6052 139.611 -39.5018 139.615 -40.3984C139.616 -41.0145 139.617 -41.6306 139.619 -42.2467C139.622 -43.7396 139.627 -45.2326 139.633 -46.7255C138.053 -47.3062 136.643 -47.3215 134.964 -47.306C134.526 -47.3038 134.526 -47.3038 134.08 -47.3015C130.367 -47.2621 126.666 -47.0229 122.964 -46.7942C121.132 -46.6819 119.3 -46.5758 117.468 -46.4696C117.165 -46.452 117.165 -46.452 116.856 -46.434C113.119 -46.2173 109.38 -46.0626 105.638 -45.9326C98.7673 -45.6875 91.9998 -45.1813 85.2018 -44.2274C77.6865 -43.2054 77.6865 -43.2054 74.8181 -43.8775C74.7614 -56.3808 74.7614 -56.3808 74.9276 -60.7714C74.9366 -61.0393 74.9456 -61.3072 74.9549 -61.5833C75.0102 -62.8114 75.1397 -63.977 75.4054 -65.1832C75.8992 -67.9867 75.7717 -70.8305 75.7613 -73.6603C75.761 -74.2926 75.7608 -74.9249 75.7609 -75.5572C75.7604 -76.8794 75.758 -78.2017 75.7541 -79.5239C75.7492 -81.2035 75.748 -82.883 75.7483 -84.5626C75.7482 -85.8683 75.7466 -87.1741 75.7445 -88.4798C75.7435 -89.0982 75.743 -89.7167 75.7427 -90.3351C75.7404 -93.4943 75.7111 -96.6436 75.4954 -99.7979C75.3987 -101.273 75.422 -102.728 75.4933 -104.204C75.6051 -108.46 74.5005 -112.719 73.6503 -116.89C75.6068 -117.8 77.6216 -117.956 79.794 -118.187C80.1951 -118.231 80.5961 -118.276 80.9972 -118.321C81.836 -118.414 82.675 -118.506 83.5142 -118.596C84.5801 -118.711 85.6456 -118.828 86.7109 -118.947C87.7383 -119.061 88.7659 -119.174 89.7935 -119.287C90.1714 -119.329 90.5492 -119.37 90.9385 -119.413C94.3671 -119.782 97.7068 -120.037 101.162 -119.968C109.237 -119.856 117.195 -119.995 125.236 -120.693C125.435 -120.71 125.634 -120.727 125.839 -120.745C131.539 -121.242 137.234 -121.801 142.912 -122.464C146.409 -122.867 149.613 -123.072 153.063 -122.327C153.497 -118.996 153.793 -115.677 153.957 -112.327C153.975 -111.976 153.975 -111.976 153.993 -111.618C154.284 -105.85 154.422 -100.08 154.511 -94.3077C154.522 -93.6276 154.535 -92.9476 154.548 -92.2675C154.631 -87.8935 154.52 -83.5959 154.041 -79.2406C153.683 -75.9726 153.536 -72.7236 153.469 -69.4414C153.401 -66.1307 153.254 -62.8313 153.045 -59.5254C152.873 -56.7585 152.713 -53.996 152.698 -51.2241C152.694 -50.8724 152.694 -50.8724 152.69 -50.5135C152.696 -49.3932 152.764 -48.5217 153.355 -47.5022C155.55 -47.1028 157.44 -47.4624 159.614 -47.8582C163.22 -48.4961 166.552 -48.847 170.234 -48.8453C170.611 -48.8455 170.989 -48.8457 171.378 -48.8458C173.45 -48.8358 175.477 -48.7635 177.533 -48.5379C179.912 -48.2917 182.291 -48.1726 184.684 -48.1303C185.091 -48.1217 185.498 -48.1094 185.905 -48.0931C188.786 -47.9826 190.51 -48.3947 192.807 -49.8396C195.082 -51.2258 197.503 -51.4609 200.19 -51.4557C200.474 -51.4552 200.758 -51.4547 201.05 -51.4542C205.504 -51.4091 209.949 -51.0697 214.388 -50.7648C215.71 -50.6742 217.032 -50.5884 218.355 -50.5039C219.384 -50.4374 220.414 -50.368 221.444 -50.2979C221.931 -50.265 222.419 -50.2331 222.907 -50.2022C223.587 -50.1589 224.265 -50.1115 224.944 -50.0632C225.24 -50.0456 225.24 -50.0456 225.541 -50.0277C227.811 -49.8566 229.525 -49.3235 231.016 -47.7611C231.448 -46.994 231.346 -46.3014 231.344 -45.4471C231.345 -45.1244 231.346 -44.8017 231.346 -44.4691C231.331 -43.6674 231.257 -42.8825 231.162 -42.0853C230.985 -40.3915 230.973 -38.708 230.973 -37.008C230.972 -36.669 230.971 -36.33 230.97 -35.9808C230.968 -35.0577 230.967 -34.1346 230.967 -33.2115C230.967 -32.6304 230.966 -32.0493 230.965 -31.4682C230.963 -29.428 230.961 -27.3878 230.962 -25.3475C230.962 -23.4679 230.959 -21.5883 230.954 -19.7087C230.95 -18.0792 230.949 -16.4497 230.949 -14.8202C230.949 -13.8542 230.948 -12.8882 230.945 -11.9222C230.925 -5.40554 231.14 1.0918 232.22 7.54857C233.266 13.8899 233.266 13.8899 232.184 15.9308C231.501 16.2812 231.501 16.2812 230.645 16.4961C230.329 16.5769 230.013 16.6576 229.688 16.7408C228.026 17.113 226.364 17.4567 224.684 17.7593C224.318 17.8258 223.952 17.8923 223.575 17.9608C217.425 19.0434 211.196 19.5618 204.929 19.6284C204.573 19.6331 204.216 19.6379 203.849 19.6428C202.723 19.6578 201.596 19.6716 200.47 19.685C194.513 19.7488 194.513 19.7488 188.561 19.9348C188.332 19.9443 188.103 19.9539 187.867 19.9637C186.312 20.0378 184.805 20.2324 183.273 20.4789C182.169 20.6505 181.337 20.7261 180.215 20.5912C179.721 20.2342 179.721 20.2342 179.23 19.7983C178.512 19.1866 178.512 19.1866 177.569 18.9848C175.397 19.2168 173.363 19.737 171.274 20.2999C166.223 21.6207 161.411 22.3814 156.147 22.533C153.728 22.6029 151.324 22.6961 148.926 23.0023Z" fill="#5894A9" fill-opacity="0.7"/>
</g>
<defs>
<clipPath id="clip0_5634_12570">
<rect width="233" height="136" fill="white" transform="matrix(-1 0 0 -1 233 136)"/>
</clipPath>
</defs>
</svg>
