<svg width="138" height="230" viewBox="0 0 138 230" fill="none" xmlns="http://www.w3.org/2000/svg">
<path d="M100.507 0.96364C100.723 1.02841 100.94 1.09318 101.163 1.15992C108.682 3.44104 115.762 6.83489 122.002 11.3897C122.143 11.4911 122.284 11.5925 122.43 11.697C122.638 11.8482 122.638 11.8482 122.851 12.0024C122.971 12.0898 123.092 12.1773 123.217 12.2674C126.642 14.9359 128.621 18.1786 130.542 21.8881C130.77 22.323 130.998 22.7578 131.227 23.1927C135.019 30.4626 137.711 37.4692 137.658 45.6317C137.658 46.0321 137.658 46.4325 137.658 46.8329C137.658 47.6636 137.656 48.4943 137.651 49.3251C137.646 50.3788 137.645 51.4325 137.647 52.4863C137.648 53.3103 137.646 54.1342 137.644 54.9582C137.643 55.3463 137.643 55.7345 137.643 56.1227C137.644 59.3554 137.469 62.5429 136.515 65.671C136.435 65.9436 136.435 65.9436 136.354 66.2217C136.186 66.7895 136.013 67.3558 135.839 67.9218C135.782 68.107 135.725 68.2922 135.666 68.483C135.316 69.6116 134.955 70.7366 134.587 71.8599C134.403 72.4238 134.222 72.9886 134.041 73.5534C132.532 78.2102 130.463 82.5418 128.148 86.8914C125.396 91.2442 125.396 91.2442 123.979 95.9562C124.506 96.3372 125.023 96.6686 125.585 96.9988C125.928 97.2067 126.27 97.4149 126.613 97.6233C126.791 97.7306 126.968 97.8379 127.151 97.9484C131.185 100.403 135.09 103.017 138.556 106.151C138.733 106.304 138.909 106.458 139.091 106.616C144.575 111.512 147.776 118.528 150.663 124.961C150.729 125.107 150.795 125.254 150.863 125.405C154.005 132.406 154.634 138.542 153.426 146.023C153.353 146.497 153.279 146.972 153.206 147.447C153.053 148.435 152.897 149.423 152.739 150.411C152.542 151.648 152.349 152.885 152.158 154.122C150.921 162.131 149.511 170.102 147.714 178.018C147.609 178.484 147.503 178.95 147.398 179.416C147.189 180.346 146.978 181.274 146.766 182.203C146.521 183.275 146.281 184.348 146.043 185.422C145.871 186.192 145.696 186.962 145.52 187.732C145.439 188.085 145.361 188.437 145.283 188.79C144.528 192.209 143.211 194.467 140.382 196.726C139.656 197.315 138.952 197.924 138.248 198.537C137.969 198.779 137.69 199.021 137.411 199.263C137.203 199.444 137.203 199.444 136.991 199.628C136.234 200.284 135.475 200.936 134.715 201.588C134.096 202.119 133.48 202.65 132.866 203.186C131.479 204.393 130.062 205.548 128.587 206.661C127.934 207.166 127.306 207.689 126.681 208.224C125.717 209.046 124.727 209.819 123.704 210.575C122.988 211.108 122.279 211.649 121.571 212.191C119.94 213.441 118.293 214.667 116.618 215.865C115.483 216.678 114.362 217.509 113.241 218.338C112.659 218.768 112.076 219.195 111.492 219.621C111.202 219.833 110.911 220.045 110.621 220.258C110.478 220.362 110.335 220.467 110.187 220.574C109.335 221.202 108.511 221.851 107.698 222.523C103.927 225.622 99.751 226.797 94.9502 227.895C94.2882 228.047 93.6274 228.203 92.9664 228.358C81.0844 231.115 68.4165 230.096 56.6053 227.543C54.5086 227.104 52.3959 226.801 50.273 226.5C42.3539 225.373 34.8582 223.666 27.619 220.373C27.4621 220.304 27.3052 220.236 27.1435 220.165C23.6009 218.604 20.7596 216.021 18.8169 212.843C18.7134 212.676 18.6099 212.509 18.5032 212.337C17.2241 210.246 16.0562 208.1 14.8802 205.957C14.5527 205.365 14.2193 204.777 13.8821 204.19C11.4968 200.038 9.4134 195.919 8.0627 191.362C7.65503 189.996 7.216 188.68 6.62032 187.376C5.76907 185.506 5.10072 183.651 4.57908 181.677C4.50602 181.401 4.43297 181.125 4.3577 180.841C3.34516 176.905 2.59064 172.919 1.81575 168.937C1.64796 168.079 1.47719 167.222 1.30644 166.364C1.14086 165.531 0.976998 164.697 0.81367 163.863C0.736247 163.469 0.658335 163.075 0.579894 162.681C0.471249 162.133 0.364905 161.585 0.259158 161.038C0.22722 160.879 0.195285 160.72 0.16238 160.557C-0.594812 156.569 1.45604 153.014 3.01193 149.394C3.34096 148.628 3.66773 147.862 3.9942 147.095C4.95146 144.854 5.92043 142.618 6.96298 140.411C7.03948 140.248 7.11597 140.086 7.19478 139.919C9.66707 134.758 13.4973 130.62 17.5874 126.538C18.579 125.543 19.5023 124.508 20.4103 123.445C20.9801 122.795 21.5759 122.176 22.1833 121.558C23.1803 120.541 24.12 119.494 25.0449 118.419C25.7301 117.635 26.4336 116.866 27.1403 116.099C28.1268 115.025 29.0898 113.94 30.027 112.828C30.7744 111.951 31.5361 111.085 32.298 110.22C32.524 109.963 32.524 109.963 32.7546 109.701C33.0496 109.365 33.3447 109.03 33.6398 108.694C34.5187 107.695 35.3925 106.691 36.2667 105.687C36.8963 104.964 37.5263 104.242 38.1571 103.52C38.3974 103.245 38.6375 102.97 38.8776 102.695C39.7569 101.688 40.6391 100.683 41.5249 99.6807C41.7915 99.3787 42.0576 99.0764 42.3228 98.7734C43.6763 97.2302 45.08 95.7934 46.619 94.4095C49.2774 92.0087 51.3375 89.5619 51.8325 85.9936C51.7449 85.0531 51.4979 84.6572 50.7515 84.0387C46.3617 80.1053 43.4319 74.8452 40.4872 69.9367C39.642 68.5283 38.7887 67.1243 37.9344 65.7208C37.8522 65.5856 37.77 65.4504 37.6853 65.3111C36.389 63.181 35.0641 61.0687 33.709 58.971C33.5508 58.7254 33.5508 58.7254 33.3893 58.4748C33.1485 58.1038 32.9052 57.7343 32.6602 57.3657C32.5285 57.1655 32.3969 56.9654 32.2613 56.7591C32.1414 56.5788 32.0216 56.3984 31.8981 56.2126C30.0356 52.9531 31.276 48.8447 32.0528 45.4371C32.1549 44.9766 32.2565 44.5159 32.3579 44.0553C32.5702 43.0952 32.7851 42.1357 33.0023 41.1767C33.2772 39.9623 33.5468 38.7469 33.8145 37.5311C34.0241 36.581 34.2357 35.6313 34.448 34.6817C34.5479 34.2344 34.6474 33.787 34.7464 33.3396C35.2658 31.0001 35.8361 28.6829 36.5271 26.3823C36.5853 26.1868 36.6434 25.9914 36.7033 25.79C37.4916 23.2387 38.7584 20.9272 40.189 18.6444C41.31 16.8551 42.1912 14.9756 43.0873 13.0803C43.1859 12.8764 43.2844 12.6726 43.3859 12.4626C43.5796 12.0598 43.7677 11.6546 43.9498 11.2471C45.2573 8.50255 47.5958 7.34731 50.4118 6.13321C50.693 6.00762 50.9743 5.88203 51.264 5.75264C54.9665 4.11914 58.2744 3.07016 62.3603 2.84159C62.9242 2.80698 63.4881 2.77228 64.0519 2.73751C64.3458 2.71989 64.6396 2.70227 64.9424 2.68411C69.786 2.39082 74.6187 2.04307 79.4433 1.54286C79.6776 1.51863 79.9118 1.49441 80.1532 1.46944C82.9635 1.17572 85.7592 0.828734 88.5543 0.427859C92.713 -0.15961 96.4698 -0.28024 100.507 0.96364Z" fill="#AEC441" fill-opacity="0.7"/>
</svg>
