<svg width="284" height="235" viewBox="0 0 284 235" fill="none" xmlns="http://www.w3.org/2000/svg">
<g opacity="0.7" clip-path="url(#clip0_5634_12540)">
<path d="M103.95 221.978C103.355 217.207 102.94 212.433 102.582 207.649C102.56 207.35 102.537 207.051 102.514 206.744C102.328 204.251 102.144 201.757 101.961 199.264C101.824 197.389 101.685 195.514 101.544 193.639C101.48 192.769 101.417 191.898 101.354 191.028C101.314 190.496 101.274 189.965 101.235 189.433C101.218 189.194 101.201 188.955 101.184 188.708C101.092 187.507 100.932 186.356 100.587 185.183C95.3454 184.373 90.0399 184.245 84.7179 184.044C84.1952 184.023 83.6724 184.003 83.1339 183.982C70.4049 183.486 57.6654 183.201 44.9263 182.921C34.3234 182.688 23.7235 182.431 13.1448 181.792C9.36195 181.567 5.58072 181.431 1.79007 181.329C1.13205 181.31 0.47406 181.291 -0.183929 181.273C-1.60013 181.233 -3.01636 181.194 -4.43259 181.155C-6.72824 181.091 -9.02383 181.027 -11.3194 180.962C-14.6234 180.87 -17.9274 180.778 -21.2314 180.686C-26.3385 180.543 -31.4456 180.399 -36.5526 180.255C-38.2752 180.206 -39.9978 180.157 -41.7204 180.109C-42.3637 180.09 -42.3637 180.09 -43.02 180.072C-47.8563 179.935 -52.6927 179.799 -57.5291 179.663C-58.1878 179.644 -58.1878 179.644 -58.8599 179.625C-59.2993 179.613 -59.7388 179.6 -60.1916 179.588C-61.081 179.563 -61.9704 179.538 -62.8597 179.512C-63.3006 179.5 -63.7415 179.488 -64.1957 179.475C-67.7925 179.374 -71.3893 179.272 -74.9862 179.171C-78.5479 179.07 -82.1095 178.97 -85.6712 178.87C-87.83 178.809 -89.9889 178.748 -92.1477 178.687C-103.896 178.355 -103.896 178.355 -115.645 178.039C-116.535 178.016 -117.426 177.992 -118.316 177.968C-120.92 177.9 -123.525 177.832 -126.129 177.766C-127.012 177.743 -127.896 177.72 -128.779 177.696C-129.16 177.687 -129.54 177.678 -129.932 177.669C-131.831 177.618 -133.724 177.539 -135.618 177.426C-136.174 177.393 -136.174 177.393 -136.741 177.36C-137.839 177.218 -138.544 177.084 -139.445 176.565C-139.851 175.395 -139.897 174.332 -139.832 173.126C-139.805 172.603 -139.805 172.603 -139.778 172.069C-139.757 171.693 -139.735 171.317 -139.713 170.93C-139.681 170.335 -139.681 170.335 -139.65 169.728C-139.605 168.889 -139.56 168.051 -139.514 167.213C-139.448 166.022 -139.386 164.832 -139.325 163.642C-139.199 161.209 -139.07 158.776 -138.94 156.343C-138.891 155.421 -138.842 154.499 -138.793 153.578C-138.674 151.357 -138.556 149.136 -138.437 146.915C-138.34 145.087 -138.242 143.259 -138.145 141.431C-137.752 134.066 -137.358 126.701 -136.964 119.337C-136.923 118.571 -136.882 117.806 -136.841 117.041C-136.069 102.617 -135.292 88.1938 -134.51 73.7704C-134.454 72.7374 -134.398 71.7045 -134.342 70.6715C-132.752 41.3345 -131.122 11.9989 -127.99 -42.586C-127.963 -43.0421 -127.963 -43.0421 -127.936 -43.5073C-127.419 -52.4895 -126.9 -61.4716 -126.38 -70.4537C-126.365 -70.7163 -126.35 -70.9789 -126.334 -71.2494C-126.133 -74.7204 -125.932 -78.1914 -125.731 -81.6624C-125.693 -82.3206 -125.655 -82.9787 -125.616 -83.6369C-125.503 -85.5933 -125.389 -87.5497 -125.274 -89.506C-125.194 -90.8804 -125.116 -92.2549 -125.04 -93.6296C-125.005 -94.2523 -124.97 -94.8752 -124.934 -95.4979C-124.92 -95.7722 -124.905 -96.0466 -124.891 -96.3293C-124.796 -97.9739 -124.595 -99.5855 -124.311 -101.217C-122.317 -101.85 -120.846 -101.91 -118.715 -101.755C-115.738 -101.563 -112.805 -101.531 -109.818 -101.569C-108.278 -101.57 -106.756 -101.488 -105.22 -101.395C-102.213 -101.222 -99.2062 -101.097 -96.1941 -100.99C-95.6438 -100.97 -95.0936 -100.951 -94.5266 -100.93C-93.0374 -100.877 -91.5481 -100.824 -90.0588 -100.773C-89.1255 -100.74 -88.1922 -100.707 -87.2589 -100.674C-76.532 -100.298 -65.8034 -100.014 -55.0696 -99.7922C-54.1969 -99.7741 -53.3243 -99.7555 -52.4516 -99.7368C-51.3926 -99.7143 -50.3335 -99.6928 -49.2744 -99.6726C-46.6564 -99.6168 -44.097 -99.4837 -41.4984 -99.2279C-40.308 -99.1554 -39.1178 -99.1056 -37.9252 -99.0621C-37.569 -99.0487 -37.2128 -99.0352 -36.8458 -99.0214C-34.0345 -98.924 -31.2226 -98.865 -28.4094 -98.8135C-28.0302 -98.8066 -27.651 -98.7996 -27.2604 -98.7924C-25.3358 -98.7577 -23.4112 -98.725 -21.4864 -98.6951C-20.7595 -98.6828 -20.0326 -98.6705 -19.3057 -98.6581C-18.8148 -98.6514 -18.8148 -98.6514 -18.3138 -98.6446C-16.6848 -98.616 -15.0804 -98.5445 -13.4603 -98.4045C-11.4017 -98.2383 -9.35092 -98.1466 -7.28351 -98.0848C-6.72202 -98.0668 -6.72202 -98.0668 -6.14914 -98.0484C-4.90625 -98.0088 -3.6633 -97.9706 -2.42032 -97.9325C-1.52325 -97.9042 -0.626221 -97.8758 0.270844 -97.8474C2.70572 -97.7704 5.14069 -97.6947 7.57565 -97.6192C10.1506 -97.5392 12.7256 -97.4582 15.3005 -97.3773C19.6457 -97.2409 23.9909 -97.1053 28.3361 -96.9702C33.2915 -96.8162 38.2469 -96.6611 43.2022 -96.5054C48.5423 -96.3376 53.8824 -96.1706 59.2225 -96.0038C60.7244 -95.9568 62.2264 -95.9097 63.7284 -95.8626C75.819 -95.4834 87.9103 -95.1289 100.004 -94.8087C106.74 -94.6298 113.472 -94.4214 120.204 -94.169C123.086 -94.0611 125.968 -93.9575 128.85 -93.8542C129.15 -93.8435 129.449 -93.8328 129.758 -93.8217C134.705 -93.6446 139.653 -93.4839 144.601 -93.3311C144.95 -93.3203 145.3 -93.3095 145.66 -93.2984C149.066 -93.1934 152.472 -93.0897 155.878 -92.9879C163.114 -92.7713 170.347 -92.522 177.58 -92.2346C183.269 -92.0097 188.96 -91.8227 194.653 -91.6552C195.995 -91.6156 197.338 -91.5754 198.681 -91.535C199.576 -91.5081 200.472 -91.4812 201.367 -91.4543C201.811 -91.4409 202.255 -91.4276 202.712 -91.4138C205.002 -91.3453 207.291 -91.2784 209.581 -91.2145C211.85 -91.151 214.118 -91.0831 216.387 -91.0123C217.238 -90.9865 218.09 -90.9623 218.942 -90.9398C220.119 -90.9085 221.297 -90.8716 222.474 -90.8335C222.989 -90.8218 222.989 -90.8218 223.515 -90.8099C225.692 -90.7318 227.266 -90.3805 229.22 -89.6149C229.324 -82.0453 229.095 -74.5203 228.589 -66.9614C228.407 -64.2404 228.238 -61.5188 228.068 -58.7973C228.028 -58.1623 227.989 -57.5273 227.949 -56.8922C227.496 -49.6577 227.12 -42.4211 226.76 -35.1833C226.729 -34.5559 226.698 -33.9284 226.667 -33.301C226.494 -29.8389 226.324 -26.3768 226.155 -22.9147C225.998 -19.7224 225.84 -16.5302 225.681 -13.338C225.315 -5.94714 224.953 1.44389 224.596 8.83507C224.584 9.08226 224.572 9.32947 224.56 9.58415C224.422 12.4319 224.286 15.2796 224.152 18.1274C224.117 18.8642 224.082 19.6009 224.047 20.3377C223.829 24.8998 223.682 29.4604 223.591 34.0252C223.484 39.1379 223.224 44.2184 222.731 49.3172C222.214 54.6666 221.841 60.0125 221.575 65.3734C221.557 65.7136 221.539 66.0539 221.52 66.4045C221.197 72.6288 221.196 78.8476 221.233 85.0758C221.82 85.0447 221.82 85.0447 222.42 85.0129C226.135 84.816 229.851 84.6209 233.567 84.4275C235.477 84.328 237.387 84.228 239.297 84.1265C241.145 84.0284 242.993 83.9318 244.841 83.8364C245.541 83.7999 246.241 83.7629 246.94 83.7253C251.272 83.4931 255.565 83.3685 259.907 83.4184C260.649 84.6956 260.889 85.7732 260.99 87.1721C261.022 87.5952 261.055 88.0183 261.088 88.4543C261.12 88.9209 261.152 89.3876 261.184 89.8542C261.22 90.3477 261.257 90.8413 261.294 91.3348C261.394 92.6754 261.489 94.0161 261.583 95.3569C261.683 96.7677 261.787 98.1782 261.891 99.5888C262.064 101.964 262.235 104.34 262.405 106.716C262.641 110.038 262.883 113.361 263.126 116.684C263.295 119.008 263.463 121.333 263.631 123.657C263.672 124.214 263.712 124.771 263.752 125.328C263.868 126.925 263.983 128.522 264.097 130.119C264.131 130.597 264.165 131.076 264.2 131.554C264.686 138.271 265.016 144.975 264.999 151.704C264.999 152.391 264.999 153.078 265 153.765C265 155.602 264.997 157.438 264.994 159.274C264.992 161.204 264.991 163.134 264.991 165.063C264.99 168.705 264.986 172.346 264.982 175.988C264.977 180.139 264.975 184.29 264.973 188.441C264.968 196.968 264.961 205.495 264.952 214.022C261.834 214.425 258.747 214.78 255.592 214.921C255.059 214.947 255.059 214.947 254.515 214.974C253.335 215.031 252.155 215.086 250.974 215.141C250.108 215.183 249.242 215.225 248.376 215.267C246.493 215.358 244.609 215.448 242.726 215.537C238.029 215.76 233.332 215.989 228.635 216.217C227.211 216.286 225.787 216.354 224.362 216.423C214.841 216.884 205.322 217.357 195.802 217.837C195.45 217.854 195.097 217.872 194.733 217.891C191.509 218.053 188.285 218.215 185.061 218.378C180.045 218.631 175.028 218.883 170.012 219.135C169.488 219.162 169.488 219.162 168.954 219.188C165.848 219.344 162.742 219.5 159.636 219.656C157.658 219.755 155.68 219.855 153.702 219.954C153.385 219.97 153.069 219.986 152.743 220.002C148.122 220.234 143.501 220.467 138.88 220.701C135.58 220.867 132.28 221.033 128.98 221.197C127.241 221.283 125.503 221.37 123.765 221.459C117.156 221.797 110.576 222.084 103.95 221.978ZM98.485 150.378C98.6705 149.693 98.6705 149.693 98.6303 148.891C98.6291 148.426 98.6291 148.426 98.628 147.952C98.6198 147.613 98.6116 147.273 98.6031 146.924C98.5985 146.569 98.5938 146.214 98.589 145.849C98.5104 141.683 98.1888 137.528 97.8561 133.371C97.7908 132.527 97.7259 131.683 97.6612 130.839C97.5091 128.864 97.3543 126.888 97.1982 124.913C97.0046 122.463 96.815 120.012 96.6254 117.561C96.4309 115.049 96.2361 112.536 96.0387 110.024C95.7823 106.759 95.5262 103.494 95.292 100.229C95.2749 99.9942 95.2578 99.7597 95.2402 99.5181C95.1143 97.7274 95.0705 95.9431 95.0958 94.1501C95.0977 93.8766 95.0995 93.6032 95.1015 93.3214C95.1063 92.6722 95.1138 92.0231 95.122 91.3739C95.6656 91.3806 96.2092 91.3873 96.7693 91.3942C100.052 91.3928 103.324 91.2097 106.6 91.0498C107.33 91.0148 108.06 90.98 108.791 90.9452C110.763 90.851 112.735 90.7554 114.707 90.6595C115.94 90.5995 117.173 90.5398 118.406 90.4802C122.71 90.2721 127.013 90.0628 131.317 89.8525C135.326 89.6566 139.336 89.4636 143.346 89.2718C146.793 89.1069 150.24 88.9398 153.687 88.771C155.744 88.6703 157.801 88.5706 159.858 88.473C161.79 88.3813 163.722 88.287 165.654 88.1906C166.362 88.1557 167.071 88.1217 167.78 88.0888C168.748 88.0437 169.715 87.9952 170.682 87.9458C171.223 87.9195 171.765 87.8932 172.322 87.8662C173.653 87.7353 174.647 87.5515 175.833 87.0647C176.281 86.3284 176.281 86.3284 176.424 85.4319C176.502 85.0958 176.579 84.7596 176.659 84.4133C176.733 84.0508 176.807 83.6883 176.884 83.3148C177.055 82.5571 177.228 81.7996 177.403 81.0423C177.489 80.6615 177.576 80.2806 177.665 79.8882C178.122 78.0081 178.725 76.156 179.359 74.3087C181.01 69.1995 180.332 64.053 179.774 58.868C179.736 58.5001 179.697 58.1322 179.657 57.7531C178.788 49.547 177.085 41.6372 174.771 33.612C172.957 27.3124 171.606 20.9872 170.689 14.5674C170.644 14.2596 170.6 13.9519 170.554 13.6349C170.336 12.12 170.127 10.6049 169.932 9.08804C169.245 3.96678 167.605 -0.474136 164.693 -5.10786C164.477 -5.45761 164.261 -5.80736 164.038 -6.16771C161.899 -9.57806 159.551 -12.8884 157.121 -16.1738C156.558 -16.9362 156.004 -17.7018 155.453 -18.4694C151.213 -24.3318 146.378 -29.9404 141.142 -35.2761C140.484 -35.9537 139.843 -36.6396 139.203 -37.3276C134.629 -42.2138 129.477 -46.2332 123.287 -49.8372C123.062 -49.9701 122.837 -50.103 122.605 -50.24C118.77 -52.5019 114.741 -54.5175 110.691 -56.5289C108.9 -57.418 107.118 -58.3166 105.341 -59.2222C104.868 -59.4628 104.395 -59.7034 103.922 -59.9439C103.016 -60.4049 102.111 -60.8668 101.207 -61.3297C100.027 -61.929 98.8391 -62.5158 97.6443 -63.0964C97.3705 -63.236 97.0967 -63.3756 96.8146 -63.5195C92.3912 -65.5553 85.727 -65.2636 80.7014 -65.5618C80.0124 -65.6036 79.3235 -65.6455 78.6346 -65.6875C76.8154 -65.7978 74.996 -65.9061 73.1765 -66.0135C72.048 -66.0801 70.9196 -66.1471 69.7912 -66.2142C53.6754 -67.1732 53.6754 -67.1732 37.5313 -67.7372C37.0002 -67.7499 36.4691 -67.7627 35.9219 -67.7758C23.6889 -68.0312 11.5834 -67.1108 -0.485962 -65.6032C-0.874207 -65.5552 -1.26248 -65.5071 -1.66251 -65.4576C-10.5879 -64.3591 -10.5879 -64.3591 -19.0085 -61.8741C-19.3044 -61.7608 -19.6002 -61.6475 -19.905 -61.5308C-22.73 -60.4276 -25.4198 -59.1698 -28.0871 -57.8479C-28.9137 -57.4485 -29.7527 -57.0724 -30.5983 -56.6985C-34.5516 -54.915 -37.2871 -52.9171 -40.074 -50.0885C-40.8196 -49.3438 -41.6055 -48.6304 -42.3954 -47.9149C-45.2166 -45.3483 -47.8373 -42.664 -50.3261 -39.8927C-50.5846 -39.6076 -50.5846 -39.6076 -50.8483 -39.3167C-57.0699 -32.3013 -59.7347 -23.3873 -60.9239 -14.997C-61.1315 -13.5362 -61.3532 -12.0767 -61.5776 -10.6175C-61.6428 -10.1934 -61.6428 -10.1934 -61.7092 -9.76085C-62.0462 -7.61836 -62.4884 -5.50301 -63.0423 -3.38831C-64.0114 0.352356 -64.4589 3.76819 -63.5974 7.56223C-62.8828 11.3557 -62.8378 15.1801 -62.8321 19.0074C-62.8313 19.2864 -62.8304 19.5654 -62.8296 19.8528C-62.8247 26.6016 -63.3881 33.3193 -63.9651 40.0498C-64.1869 42.6941 -64.3452 45.3391 -64.475 47.9871C-64.5493 49.4773 -64.6465 50.9625 -64.7887 52.4498C-66.0046 65.5875 -57.7531 80.7973 -51.5872 92.6999C-50.9897 93.8594 -50.3944 95.0197 -49.8007 96.1804C-49.666 96.4417 -49.5313 96.703 -49.3926 96.9722C-48.5537 98.6184 -47.8061 100.278 -47.0959 101.962C-45.1273 106.596 -42.5072 109.596 -38.0633 112.997C-36.6227 114.1 -35.2771 115.164 -34.1156 116.463C-32.211 118.53 -29.5662 120.073 -27.1023 121.706C-26.1576 122.341 -25.25 123.005 -24.342 123.673C-15.2488 130.103 -4.69128 135.271 5.71451 140.267C6.17966 140.491 6.64478 140.715 7.12402 140.946C14.7438 144.558 21.7397 146.127 30.4447 147.169C32.7763 147.449 35.1061 147.737 37.4361 148.025C37.905 148.083 38.3739 148.14 38.857 148.2C43.996 148.837 49.1166 149.553 54.2334 150.292C62.0845 151.416 69.6714 151.812 77.6597 151.79C79.2284 151.786 80.7969 151.79 82.3656 151.794C90.7276 152.179 90.7276 152.179 98.485 150.378Z" fill="#F46F0D"/>
</g>
<defs>
<clipPath id="clip0_5634_12540">
<rect width="443" height="235" fill="white" transform="matrix(-1 0 0 -1 284 235)"/>
</clipPath>
</defs>
</svg>
