<svg width="189" height="132" viewBox="0 0 189 132" fill="none" xmlns="http://www.w3.org/2000/svg">
<g opacity="0.7" clip-path="url(#clip0_6059_27728)">
<path d="M185.349 -47.7758C185.342 -48.1219 185.335 -48.468 185.328 -48.8142C185.319 -49.289 185.307 -49.7638 185.295 -50.2386C185.289 -50.5074 185.283 -50.7763 185.276 -51.0533C185.203 -51.9501 185.029 -52.7148 184.808 -53.5732C183.573 -53.8155 182.337 -54.0574 181.102 -54.299C180.682 -54.3811 180.263 -54.4633 179.843 -54.5457C179.238 -54.6645 178.632 -54.7828 178.027 -54.901C177.841 -54.9376 177.655 -54.9742 177.464 -55.0119C171.173 -56.2378 165.003 -55.1884 158.724 -54.3047C156.875 -54.0454 155.027 -53.7932 153.178 -53.5408C152.542 -53.4532 151.906 -53.3639 151.27 -53.2741C148.926 -52.9475 146.592 -52.7049 144.236 -52.5843C143.557 -57.0751 143.007 -61.5894 142.474 -66.1091C142.426 -66.517 142.378 -66.925 142.33 -67.333C142.132 -69.0115 141.934 -70.6901 141.739 -72.369C141.618 -73.4118 141.495 -74.4545 141.371 -75.4969C141.325 -75.89 141.279 -76.2832 141.233 -76.6765C141.171 -77.2211 141.106 -77.7654 141.041 -78.3097C141.005 -78.6182 140.969 -78.9268 140.932 -79.2447C140.819 -79.9367 140.716 -80.4292 140.401 -81.0148C139.894 -81.3193 139.894 -81.3193 139.208 -81.5836C139.078 -81.6339 138.948 -81.6841 138.814 -81.7359C136.512 -82.6013 134.167 -83.298 131.834 -84.0278C131.337 -84.1847 130.839 -84.3416 130.341 -84.4986C128.016 -85.2318 128.016 -85.2318 127.012 -85.5424C126.683 -85.6461 126.354 -85.7529 126.026 -85.8653C122.244 -87.1374 117.999 -85.81 114.212 -85.0605C113.005 -84.8219 111.797 -84.5878 110.589 -84.3577C110.175 -84.2778 109.76 -84.1946 109.346 -84.1112C107.706 -83.7953 106.13 -83.6666 104.471 -83.7343C104.373 -87.4594 104.678 -91.1245 104.976 -94.8284C105.048 -95.742 105.121 -96.6556 105.192 -97.5694C105.235 -98.1333 105.28 -98.6972 105.326 -99.2609C105.728 -104.394 105.728 -104.394 104.673 -105.984C103.612 -106.784 102.823 -106.759 101.645 -106.479C100.697 -106.196 99.7583 -105.876 98.8191 -105.552C98.5552 -105.462 98.2914 -105.372 98.0275 -105.283C96.797 -104.863 95.5735 -104.427 94.3615 -103.932C91.0014 -102.563 87.7832 -103.114 84.3724 -103.902C82.7276 -104.279 81.1178 -104.6 79.4413 -104.625C79.2319 -104.631 79.2319 -104.631 79.0183 -104.638C76.6143 -104.605 74.1841 -103.375 71.9361 -102.43C69.2886 -101.32 66.6257 -100.279 63.9492 -99.2784C63.7912 -99.2191 63.6333 -99.1599 63.4705 -99.0988C63.0216 -98.9306 62.5724 -98.7634 62.1231 -98.5966C61.9905 -98.547 61.8579 -98.4974 61.7213 -98.4464C61.0386 -98.1948 60.3617 -97.9801 59.6598 -97.8259C59.783 -99.8974 60.21 -101.853 60.6439 -103.852C60.7157 -104.188 60.7875 -104.524 60.8591 -104.86C60.9298 -105.19 61.0005 -105.521 61.0712 -105.851C61.1057 -106.012 61.1402 -106.173 61.1757 -106.34C61.3303 -107.058 61.4904 -107.772 61.6636 -108.484C61.7189 -108.713 61.7743 -108.941 61.8313 -109.177C61.9044 -109.465 61.9044 -109.465 61.9789 -109.758C62.0759 -110.394 62.0924 -110.944 62.0885 -111.589C62.0876 -111.789 62.0866 -111.99 62.0857 -112.196C62.0845 -112.349 62.0833 -112.502 62.0821 -112.659C57.6035 -112.667 53.1249 -112.672 48.6463 -112.675C48.3895 -112.675 48.3895 -112.675 48.1275 -112.675C34.6036 -112.683 21.0804 -112.611 7.55678 -112.504C7.0013 -112.5 6.4458 -112.496 5.89032 -112.491C4.34041 -112.479 2.7905 -112.467 1.2406 -112.454C-0.540527 -112.439 -2.32167 -112.425 -4.10281 -112.415C-4.3894 -112.413 -4.67599 -112.411 -4.96259 -112.409C-5.8148 -112.404 -6.66699 -112.399 -7.51921 -112.397C-7.89978 -112.395 -8.28035 -112.393 -8.66092 -112.39C-11.6697 -112.385 -14.7351 -112.524 -17.7007 -113.169C-18.6889 -113.382 -19.6252 -113.463 -20.6267 -113.432C-20.7699 -113.43 -20.9129 -113.427 -21.0604 -113.425C-21.4037 -113.419 -21.7469 -113.411 -22.0902 -113.401C-22.5592 -112.362 -22.7907 -111.515 -22.8941 -110.337C-22.9224 -110.027 -22.9507 -109.716 -22.9798 -109.396C-23.008 -109.057 -23.0361 -108.718 -23.0639 -108.378C-23.0947 -108.019 -23.1255 -107.66 -23.1564 -107.301C-23.221 -106.542 -23.2836 -105.782 -23.3451 -105.023C-23.4063 -104.269 -23.4706 -103.516 -23.5383 -102.764C-24.7016 -89.7991 -24.0101 -76.674 -23.7605 -63.663C-23.7083 -60.9423 -23.6571 -58.2215 -23.606 -55.5007C-23.5992 -55.1383 -23.5992 -55.1383 -23.5923 -54.7686C-23.5048 -50.107 -23.4184 -45.4454 -23.3339 -40.7837C-23.3166 -39.8314 -23.2993 -38.8791 -23.2817 -37.9268C-22.9872 -22.0018 -23.02 -6.0979 -23.4428 9.82217C-23.481 11.2617 -23.5179 12.7013 -23.554 14.1409C-23.863 26.4249 -24.2049 38.7075 -24.5491 50.99C-24.5802 52.1001 -24.6112 53.2103 -24.6423 54.3204C-24.7046 56.5465 -24.767 58.7726 -24.8294 60.9986C-24.8346 61.1827 -24.8397 61.3667 -24.845 61.5564C-24.9745 66.1716 -25.1052 70.7867 -25.2377 75.4017C-25.3185 78.218 -25.3987 81.0343 -25.4783 83.8506C-25.5248 85.4937 -25.5717 87.1368 -25.6196 88.7798C-25.9563 100.33 -25.9563 100.33 -25.9825 104.666C-25.9857 105.153 -25.9913 105.641 -25.9971 106.129C-25.9971 106.552 -25.9971 106.552 -25.9972 106.984C-25.9981 107.223 -25.9989 107.461 -25.9998 107.707C-25.9102 108.49 -25.6961 108.956 -25.3198 109.593C-23.8872 110.471 -21.6315 109.698 -20.1213 109.408C-19.8828 109.364 -19.6443 109.32 -19.3986 109.275C-18.6429 109.136 -17.8875 108.994 -17.1322 108.852C-16.1355 108.664 -15.1386 108.479 -14.1414 108.296C-13.8033 108.231 -13.8033 108.231 -13.4583 108.164C-11.3244 107.729 -11.3244 107.729 -9.194 107.986C-5.58842 109.037 -1.08144 107.851 2.59233 107.477C3.48232 107.387 4.37247 107.3 5.26259 107.212C6.75426 107.064 8.2458 106.915 9.73729 106.764C11.4541 106.591 13.1711 106.42 14.8881 106.25C16.7299 106.068 18.5716 105.885 20.4133 105.7C20.9386 105.648 21.464 105.596 21.9894 105.544C22.8179 105.462 23.6463 105.378 24.4747 105.294C24.7762 105.264 25.0777 105.234 25.3793 105.204C32.2051 104.53 32.2051 104.53 34.8841 101.321C39.527 96.0559 44.6728 92.6276 51.012 92.3038C51.4703 92.2803 51.9283 92.253 52.3864 92.225C53.526 92.1558 54.6658 92.0923 55.8056 92.0293C61.8554 91.6943 67.7474 91.0387 73.6759 89.4294C75.123 89.0386 76.5716 88.6655 78.0284 88.3324C78.1973 88.2934 78.3663 88.2545 78.5404 88.2143C83.2229 87.1914 88.0527 87.4812 92.7896 87.4828C94.0243 87.4832 95.2589 87.4798 96.4936 87.4708C97.0661 87.4681 97.6385 87.4711 98.211 87.4742C98.5624 87.472 98.9139 87.4695 99.2654 87.4667C99.5001 87.4703 99.5001 87.4703 99.7395 87.474C101.016 87.4536 102.111 87.0341 103.021 85.8952C103.554 84.755 103.855 83.7027 103.986 82.3923C104.009 82.1947 104.031 81.9971 104.055 81.7935C104.379 78.8494 104.621 75.8909 104.872 72.9362C104.964 71.8616 105.057 70.7872 105.151 69.7128C105.183 69.3537 105.214 68.9946 105.245 68.6355C105.261 68.4591 105.276 68.2827 105.292 68.101C105.467 66.0983 105.64 64.0955 105.813 62.0925C105.899 61.0931 105.987 60.0941 106.078 59.0953C106.122 58.6099 106.163 58.124 106.203 57.6381C106.6 53.3466 107.897 49.8772 110.597 47.0434C112.613 45.192 114.865 44.4138 117.345 44.1549C117.709 44.1123 117.709 44.1123 118.079 44.0687C120.748 43.7692 123.424 43.5924 126.1 43.4243C127.631 43.3281 129.162 43.2238 130.693 43.1187C130.85 43.108 131.007 43.0972 131.169 43.0861C134.703 42.8429 138.233 42.5406 141.762 42.2203C142.216 42.1792 142.669 42.1385 143.122 42.0978C143.964 42.022 144.807 41.9448 145.649 41.8672C145.898 41.8445 146.147 41.8219 146.404 41.7986C146.748 41.7662 146.748 41.7662 147.1 41.7332C147.298 41.7148 147.497 41.6964 147.701 41.6774C148.301 41.6039 148.89 41.4893 149.484 41.3602C149.832 39.5304 149.976 37.7493 150.045 35.8749C150.063 35.4445 150.063 35.4445 150.081 35.0054C150.106 34.392 150.13 33.7786 150.154 33.1651C150.191 32.204 150.23 31.243 150.269 30.2821C150.39 27.3128 150.502 24.3433 150.6 21.3728C150.625 20.6688 150.649 19.9649 150.673 19.2609C150.694 18.616 150.713 17.971 150.731 17.326C150.812 13.7114 150.812 13.7114 152.31 10.7046C153.331 9.89896 154.226 9.49711 155.411 9.20872C155.579 9.16534 155.747 9.12198 155.92 9.07729C156.486 8.93179 157.054 8.79069 157.621 8.64957C158.03 8.54539 158.44 8.44099 158.849 8.33637C160.302 7.96671 161.756 7.6045 163.21 7.24349C163.425 7.19003 163.425 7.19004 163.645 7.13551C164.581 6.90315 165.517 6.67107 166.453 6.43915C166.778 6.3584 167.104 6.27763 167.43 6.19685C169.053 5.79452 170.676 5.39259 172.3 4.99471C176.349 4.00217 180.382 2.94521 184.404 1.8046C184.738 -2.61994 184.912 -7.03617 185.011 -11.4771C185.023 -12.0026 185.035 -12.528 185.047 -13.0534C185.595 -36.2522 185.595 -36.2522 185.349 -47.7758Z" fill="#FFBB4E"/>
</g>
<defs>
<clipPath id="clip0_6059_27728">
<rect width="132" height="217.507" fill="white" transform="matrix(0 -1 -1 0 188.507 132)"/>
</clipPath>
</defs>
</svg>
