<svg width="301" height="270" viewBox="0 0 301 270" fill="none" xmlns="http://www.w3.org/2000/svg">
<path d="M81.1775 0.201196C80.6953 0.21057 80.213 0.219339 79.7308 0.227433C79.0692 0.239076 78.4077 0.25437 77.7463 0.269805C77.3717 0.277893 76.997 0.285981 76.6111 0.294314C75.3616 0.387568 74.2962 0.609868 73.1003 0.891203C72.7626 2.46641 72.4256 4.04169 72.0891 5.61704C71.9747 6.15232 71.8601 6.68758 71.7453 7.22282C71.5798 7.99466 71.415 8.76656 71.2502 9.53848C71.1993 9.7756 71.1483 10.0127 71.0958 10.257C69.3878 18.2792 70.8498 26.1474 72.0811 34.1548C72.4423 36.5115 72.7938 38.8691 73.1454 41.2267C73.2674 42.038 73.3919 42.8491 73.5169 43.6602C73.972 46.6487 74.31 49.6247 74.4781 52.6301C68.2211 53.4951 61.9316 54.1977 55.6345 54.8764C55.0661 54.9377 54.4977 54.9991 53.9293 55.0605C51.5907 55.3128 49.252 55.5648 46.9128 55.814C45.4599 55.9689 44.0073 56.1255 42.5548 56.2832C42.0072 56.3424 41.4594 56.4009 40.9114 56.4587C40.1526 56.5388 39.3942 56.6211 38.6359 56.704C38.206 56.75 37.7761 56.7961 37.3332 56.8435C36.3691 56.9875 35.6829 57.1187 34.867 57.5208C34.4427 58.1674 34.4427 58.1674 34.0745 59.0422C34.0045 59.2079 33.9344 59.3737 33.8623 59.5445C32.6566 62.48 31.6859 65.4704 30.669 68.4446C30.4506 69.0792 30.2319 69.7139 30.0131 70.3485C28.9916 73.3146 28.9916 73.3146 28.5589 74.5937C28.4145 75.0142 28.2656 75.4338 28.1089 75.8518C26.3367 80.6748 28.186 86.0883 29.2303 90.9176C29.5628 92.4566 29.8889 93.9964 30.2094 95.5368C30.3209 96.066 30.4366 96.5945 30.5529 97.1231C30.9931 99.214 31.1723 101.223 31.0781 103.339C25.8881 103.464 20.7816 103.075 15.6211 102.696C14.3483 102.603 13.0753 102.511 11.8022 102.42C11.0164 102.364 10.2309 102.307 9.44553 102.249C2.29349 101.737 2.29349 101.737 0.078064 103.082C-1.03613 104.435 -1.00183 105.441 -0.610809 106.943C-0.217133 108.152 0.228973 109.349 0.680847 110.547C0.805908 110.883 0.930847 111.22 1.05566 111.556C1.64078 113.125 2.24777 114.686 2.9368 116.231C4.84515 120.516 4.07733 124.62 2.97986 128.97C2.45328 131.067 2.00623 133.12 1.9725 135.258C1.9631 135.525 1.9631 135.525 1.95352 135.797C2.00043 138.863 3.71408 141.962 5.02972 144.829C6.57648 148.205 8.02765 151.601 9.42111 155.014C9.50369 155.215 9.58624 155.417 9.6713 155.624C9.90564 156.197 10.1387 156.77 10.371 157.343C10.4401 157.512 10.5092 157.681 10.5804 157.855C10.9308 158.726 11.2299 159.589 11.4447 160.484C8.55872 160.327 5.83466 159.782 3.04889 159.229C2.58072 159.137 2.11249 159.046 1.64423 158.954C1.18405 158.864 0.723877 158.774 0.263733 158.684C0.0391541 158.64 -0.185455 158.596 -0.41687 158.551C-1.4173 158.354 -2.41278 158.149 -3.40439 157.929C-3.72308 157.858 -4.04175 157.787 -4.37012 157.715C-4.77081 157.622 -4.77081 157.622 -5.1796 157.527C-6.06558 157.403 -6.83276 157.382 -7.73083 157.387C-8.01004 157.388 -8.28925 157.389 -8.57693 157.39C-8.78979 157.392 -9.00262 157.393 -9.22192 157.395C-9.23297 163.106 -9.23965 168.817 -9.24347 174.529C-9.24368 174.856 -9.24368 174.856 -9.24393 175.19C-9.2554 192.436 -9.15439 209.681 -9.00613 226.927C-9.00006 227.636 -8.99399 228.344 -8.98795 229.052C-8.97101 231.029 -8.95389 233.005 -8.93561 234.982C-8.91461 237.253 -8.89597 239.524 -8.8811 241.796C-8.87866 242.161 -8.87613 242.527 -8.8735 242.892C-8.86566 243.979 -8.85953 245.066 -8.85596 246.153C-8.85403 246.638 -8.85062 247.123 -8.84714 247.608C-8.83978 251.445 -9.03351 255.354 -9.93234 259.136C-10.2291 260.396 -10.3416 261.59 -10.2983 262.868C-10.2952 263.05 -10.2921 263.233 -10.2889 263.421C-10.281 263.858 -10.2686 264.296 -10.2552 264.734C-8.80841 265.332 -7.62766 265.627 -5.98663 265.759C-5.55408 265.795 -5.12155 265.831 -4.6759 265.868C-4.20309 265.904 -3.73026 265.94 -3.25739 265.976C-2.7569 266.015 -2.25641 266.054 -1.75592 266.093C-0.698486 266.176 0.359253 266.256 1.41724 266.334C2.46725 266.412 3.51648 266.494 4.56534 266.58C22.6281 268.064 40.9149 267.182 59.0425 266.864C62.8332 266.797 66.624 266.732 70.4147 266.667C70.9196 266.658 70.9196 266.658 71.4348 266.649C77.9296 266.538 84.4244 266.428 90.9193 266.32C92.2461 266.298 93.5729 266.276 94.8997 266.253C117.087 265.878 139.246 265.92 161.426 266.459C163.432 266.507 165.438 266.554 167.444 266.601C184.558 266.995 201.671 267.431 218.784 267.869C220.331 267.909 221.877 267.949 223.424 267.988C226.525 268.068 229.627 268.147 232.728 268.227C232.985 268.234 233.241 268.24 233.506 268.247C239.936 268.412 246.366 268.579 252.796 268.748C256.719 268.851 260.643 268.953 264.567 269.054C266.856 269.114 269.146 269.174 271.435 269.235C287.527 269.664 287.527 269.664 293.568 269.697C294.248 269.701 294.927 269.709 295.607 269.716C296.197 269.716 296.197 269.716 296.798 269.716C297.13 269.717 297.463 269.718 297.805 269.72C298.896 269.605 299.546 269.332 300.434 268.852C301.656 267.025 300.58 264.149 300.175 262.223C300.114 261.919 300.053 261.615 299.99 261.301C299.796 260.338 299.599 259.374 299.4 258.411C299.139 257.14 298.881 255.869 298.625 254.597C298.535 254.166 298.535 254.166 298.443 253.726C297.836 251.005 297.836 251.005 298.194 248.288C299.658 243.69 298.005 237.943 297.485 233.258C297.36 232.123 297.238 230.988 297.115 229.853C296.91 227.951 296.701 226.048 296.492 224.147C296.25 221.957 296.012 219.768 295.776 217.578C295.522 215.229 295.266 212.881 295.01 210.532C294.936 209.862 294.864 209.192 294.791 208.522C294.677 207.466 294.561 206.409 294.444 205.353C294.401 204.968 294.359 204.584 294.318 204.199C293.379 195.495 293.379 195.495 288.908 192.079C281.572 186.158 276.796 179.596 276.345 171.512C276.312 170.927 276.274 170.343 276.235 169.759C276.138 168.306 276.05 166.852 275.962 165.399C275.495 157.684 274.582 150.17 272.34 142.61C271.795 140.765 271.276 138.917 270.811 137.06C270.757 136.844 270.703 136.629 270.647 136.407C269.222 130.435 269.625 124.276 269.628 118.236C269.628 116.661 269.624 115.087 269.611 113.512C269.607 112.782 269.611 112.052 269.616 111.322C269.613 110.874 269.609 110.426 269.605 109.978C269.61 109.678 269.61 109.678 269.615 109.373C269.587 107.745 269.003 106.348 267.416 105.188C265.827 104.509 264.361 104.125 262.535 103.958C262.26 103.929 261.985 103.9 261.701 103.87C257.599 103.456 253.477 103.148 249.361 102.827C247.863 102.711 246.366 102.591 244.87 102.472C244.369 102.432 243.869 102.392 243.369 102.352C243.123 102.332 242.877 102.313 242.624 102.292C239.834 102.07 237.043 101.848 234.253 101.629C232.86 101.519 231.468 101.406 230.077 101.29C229.4 101.234 228.723 101.182 228.046 101.13C222.067 100.624 217.233 98.971 213.285 95.5276C210.706 92.956 209.621 90.0846 209.261 86.9216C209.201 86.4583 209.201 86.4583 209.141 85.9856C208.723 82.5822 208.477 79.1702 208.243 75.7575C208.109 73.8049 207.964 71.8527 207.817 69.9005C207.802 69.7002 207.787 69.4999 207.772 69.2936C207.433 64.787 207.012 60.2854 206.565 55.7841C206.508 55.2062 206.451 54.6283 206.395 54.0503C206.289 52.9762 206.182 51.9022 206.073 50.8282C206.042 50.5105 206.01 50.1928 205.978 49.8655C205.933 49.4263 205.933 49.4263 205.887 48.9781C205.861 48.725 205.835 48.4718 205.809 48.2109C205.707 47.4455 205.547 46.6948 205.367 45.9375C202.818 45.4934 200.336 45.3097 197.725 45.2216C197.125 45.1991 197.125 45.1991 196.513 45.1761C195.659 45.1443 194.804 45.1134 193.949 45.0833C192.61 45.0361 191.271 44.9864 189.932 44.936C185.795 44.7818 181.658 44.639 177.519 44.5137C176.539 44.4829 175.558 44.4519 174.577 44.4209C173.678 44.3937 172.78 44.3704 171.881 44.3473C166.845 44.2439 166.845 44.2439 162.656 42.3338C161.533 41.0317 160.973 39.8899 160.572 38.3792C160.511 38.1651 160.451 37.951 160.389 37.7304C160.186 37.0078 159.989 36.2843 159.793 35.5608C159.648 35.0387 159.502 34.5167 159.356 33.9947C158.841 32.1422 158.337 30.2881 157.834 28.4338C157.759 28.1593 157.759 28.1593 157.683 27.8792C157.359 26.6857 157.036 25.4921 156.713 24.2985C156.6 23.8829 156.488 23.4674 156.375 23.0518C155.815 20.9821 155.255 18.9122 154.7 16.8415C153.318 11.6785 151.845 6.53597 150.256 1.40602C144.091 0.980697 137.938 0.758668 131.751 0.632521C131.019 0.617447 130.287 0.601773 129.555 0.585924C97.2329 -0.112438 97.2329 -0.112438 81.1775 0.201196Z" fill="#FFBB4E"/>
</svg>
