<svg width="382" height="308" viewBox="0 0 382 308" fill="none" xmlns="http://www.w3.org/2000/svg">
<g opacity="0.7" clip-path="url(#clip0_6053_12302)">
<path d="M359.751 342.731C359.606 343.213 359.462 343.695 359.313 344.192C354.226 360.929 346.658 376.69 336.501 390.581C336.275 390.895 336.048 391.209 335.815 391.532C335.478 391.996 335.478 391.996 335.134 392.469C334.939 392.738 334.744 393.007 334.543 393.284C328.593 400.908 321.361 405.314 313.089 409.59C312.119 410.098 311.15 410.606 310.18 411.114C293.968 419.556 278.343 425.549 260.141 425.43C259.248 425.43 258.355 425.43 257.462 425.431C255.61 425.431 253.757 425.426 251.905 425.416C249.555 425.403 247.205 425.403 244.855 425.406C243.018 425.408 241.18 425.405 239.343 425.399C238.477 425.397 237.612 425.396 236.746 425.397C229.537 425.399 222.429 425.01 215.453 422.887C214.846 422.709 214.846 422.709 214.225 422.528C212.959 422.154 211.696 421.77 210.434 421.381C210.021 421.254 209.608 421.127 209.183 420.996C206.666 420.218 204.157 419.415 201.652 418.595C200.395 418.185 199.135 417.782 197.876 417.379C187.491 414.019 177.832 409.414 168.132 404.262C158.425 398.136 158.425 398.136 147.917 394.981C147.068 396.155 146.329 397.304 145.592 398.556C145.129 399.319 144.665 400.081 144.2 400.844C143.961 401.239 143.721 401.635 143.475 402.043C138.001 411.022 132.171 419.714 125.184 427.431C124.842 427.823 124.499 428.216 124.147 428.621C113.228 440.827 97.5816 447.954 83.2372 454.381C82.9102 454.528 82.5832 454.675 82.2462 454.827C66.6341 461.819 52.9506 463.221 36.269 460.532C35.2107 460.368 34.1523 460.204 33.0939 460.041C30.8892 459.701 28.6855 459.354 26.4823 459.002C23.7252 458.562 20.9667 458.133 18.2076 457.708C0.348755 454.953 -17.4266 451.816 -35.0794 447.815C-36.1192 447.581 -37.159 447.347 -38.1988 447.113C-40.2706 446.646 -42.3419 446.176 -44.4128 445.705C-46.8037 445.161 -49.1964 444.626 -51.5901 444.096C-53.309 443.713 -55.0264 443.323 -56.7435 442.931C-57.5292 442.752 -58.3154 442.577 -59.1022 442.404C-66.7271 440.724 -71.7608 437.792 -76.7982 431.493C-78.1125 429.877 -79.4716 428.31 -80.8367 426.743C-81.377 426.122 -81.9172 425.501 -82.4574 424.88C-82.8604 424.417 -82.8604 424.417 -83.2715 423.945C-84.7337 422.262 -86.1882 420.571 -87.6414 418.879C-88.8243 417.503 -90.0106 416.13 -91.2044 414.763C-93.8958 411.676 -96.4724 408.522 -98.9544 405.239C-100.079 403.785 -101.247 402.388 -102.44 400.996C-104.273 398.85 -105.997 396.646 -107.683 394.368C-108.871 392.774 -110.077 391.197 -111.287 389.621C-114.074 385.989 -116.807 382.323 -119.48 378.595C-121.293 376.068 -123.145 373.574 -124.994 371.077C-125.952 369.783 -126.906 368.485 -127.855 367.184C-128.328 366.538 -128.801 365.892 -129.274 365.246C-129.508 364.927 -129.741 364.608 -129.981 364.28C-131.38 362.382 -132.829 360.549 -134.327 358.74C-141.238 350.344 -143.858 341.049 -146.306 330.362C-146.645 328.888 -146.992 327.417 -147.339 325.946C-153.486 299.496 -151.215 271.297 -145.52 245.005C-144.542 240.338 -143.867 235.635 -143.194 230.909C-140.682 213.281 -136.875 196.595 -129.533 180.481C-129.379 180.131 -129.225 179.782 -129.067 179.422C-125.587 171.536 -119.828 165.212 -112.741 160.887C-112.368 160.656 -111.995 160.426 -111.611 160.189C-106.949 157.341 -102.163 154.742 -97.3845 152.124C-96.065 151.395 -94.7533 150.653 -93.4446 149.902C-84.184 144.592 -74.9997 139.954 -64.8381 136.948C-61.7917 136.04 -58.8573 135.063 -55.948 133.737C-51.7786 131.842 -47.6422 130.354 -43.2391 129.193C-42.624 129.031 -42.0089 128.868 -41.3751 128.7C-32.5984 126.446 -23.709 124.767 -14.8301 123.042C-12.9167 122.668 -11.0045 122.288 -9.09219 121.908C-7.2337 121.54 -5.37457 121.175 -3.51523 120.811C-2.63589 120.639 -1.75681 120.465 -0.877869 120.291C0.342804 120.049 1.56427 119.812 2.78607 119.577C3.1398 119.506 3.49353 119.435 3.858 119.361C12.7514 117.676 20.6778 122.241 28.7505 125.705C30.4584 126.437 32.1682 127.164 33.8784 127.891C38.8765 130.022 43.8606 132.179 48.784 134.5C49.1459 134.67 49.5078 134.84 49.8806 135.016C61.3887 140.519 70.6163 149.045 79.7201 158.15C81.9391 160.357 84.2468 162.413 86.6177 164.434C88.0659 165.702 89.4463 167.028 90.8257 168.381C93.0934 170.6 95.4286 172.692 97.825 174.751C99.5748 176.276 101.288 177.842 103 179.415C105.394 181.611 107.814 183.755 110.294 185.841C112.249 187.505 114.179 189.2 116.11 190.896C116.683 191.399 116.683 191.399 117.267 191.913C118.015 192.569 118.763 193.226 119.511 193.883C121.741 195.84 123.979 197.785 126.217 199.731C127.829 201.132 129.441 202.535 131.05 203.939C131.664 204.474 132.277 205.008 132.89 205.543C135.136 207.5 137.377 209.464 139.612 211.436C140.285 212.029 140.96 212.621 141.635 213.212C145.077 216.225 148.281 219.349 151.367 222.775C156.72 228.693 162.177 233.279 170.134 234.381C172.231 234.186 173.114 233.636 174.493 231.974C183.265 222.202 194.995 215.681 205.941 209.126C209.082 207.244 212.213 205.345 215.342 203.443C215.644 203.26 215.945 203.077 216.256 202.889C221.006 200.003 225.717 197.054 230.394 194.037C230.942 193.685 230.942 193.685 231.501 193.326C232.328 192.79 233.152 192.248 233.974 191.702C234.421 191.409 234.867 191.117 235.327 190.815C235.729 190.548 236.131 190.281 236.546 190.006C243.814 185.86 252.976 188.621 260.575 190.351C261.602 190.578 262.629 190.804 263.656 191.03C265.797 191.502 267.937 191.981 270.076 192.464C272.784 193.076 275.494 193.676 278.205 194.272C280.324 194.739 282.442 195.21 284.56 195.682C285.557 195.905 286.555 196.126 287.552 196.346C292.769 197.503 297.937 198.772 303.067 200.31C303.503 200.44 303.939 200.569 304.388 200.703C310.077 202.457 315.232 205.277 320.323 208.462C324.313 210.957 328.504 212.919 332.731 214.914C333.185 215.133 333.64 215.352 334.108 215.578C335.006 216.009 335.91 216.428 336.819 216.834C342.939 219.744 345.515 224.95 348.223 231.218C348.503 231.844 348.783 232.47 349.071 233.115C352.714 241.357 355.053 248.721 355.563 257.816C355.64 259.071 355.717 260.326 355.795 261.581C355.834 262.236 355.874 262.89 355.914 263.564C356.568 274.346 357.344 285.103 358.459 295.843C358.513 296.365 358.567 296.886 358.623 297.423C359.278 303.679 360.052 309.902 360.946 316.124C362.256 325.382 362.525 333.745 359.751 342.731Z" fill="#883D05"/>
</g>
<defs>
<clipPath id="clip0_6053_12302">
<rect width="308" height="552.9" fill="white" transform="matrix(0 1 -1 0 381.9 0)"/>
</clipPath>
</defs>
</svg>
