<svg width="553" height="308" viewBox="0 0 553 308" fill="none" xmlns="http://www.w3.org/2000/svg">
<g opacity="0.7">
<g clip-path="url(#clip0_7156_6832)">
<path d="M530.751 342.731C530.606 343.213 530.462 343.695 530.313 344.192C525.226 360.929 517.658 376.69 507.501 390.581C507.275 390.895 507.048 391.209 506.815 391.532C506.478 391.996 506.478 391.996 506.134 392.469C505.939 392.738 505.744 393.007 505.543 393.284C499.593 400.908 492.361 405.314 484.089 409.59C483.119 410.098 482.15 410.606 481.18 411.114C464.968 419.556 449.343 425.549 431.141 425.43C430.248 425.43 429.355 425.43 428.462 425.431C426.61 425.431 424.757 425.426 422.905 425.416C420.555 425.403 418.205 425.403 415.855 425.406C414.018 425.408 412.18 425.405 410.343 425.399C409.477 425.397 408.612 425.396 407.746 425.397C400.537 425.399 393.429 425.01 386.453 422.887C385.846 422.709 385.846 422.709 385.225 422.528C383.959 422.154 382.696 421.77 381.434 421.381C381.021 421.254 380.608 421.127 380.183 420.996C377.666 420.218 375.157 419.415 372.652 418.595C371.395 418.185 370.135 417.782 368.876 417.379C358.491 414.019 348.832 409.414 339.132 404.262C329.425 398.136 329.425 398.136 318.917 394.981C318.068 396.155 317.329 397.304 316.592 398.556C316.129 399.319 315.665 400.081 315.2 400.844C314.961 401.239 314.721 401.635 314.475 402.043C309.001 411.022 303.171 419.714 296.184 427.431C295.842 427.823 295.499 428.216 295.147 428.621C284.228 440.827 268.582 447.954 254.237 454.381C253.91 454.528 253.583 454.675 253.246 454.827C237.634 461.819 223.951 463.221 207.269 460.532C206.211 460.368 205.152 460.204 204.094 460.041C201.889 459.701 199.685 459.354 197.482 459.002C194.725 458.562 191.967 458.133 189.208 457.708C171.349 454.953 153.573 451.816 135.921 447.815C134.881 447.581 133.841 447.347 132.801 447.113C130.729 446.646 128.658 446.176 126.587 445.705C124.196 445.161 121.804 444.626 119.41 444.096C117.691 443.713 115.974 443.323 114.257 442.931C113.471 442.752 112.685 442.577 111.898 442.404C104.273 440.724 99.2392 437.792 94.2018 431.493C92.8875 429.877 91.5284 428.31 90.1633 426.743C89.623 426.122 89.0828 425.501 88.5426 424.88C88.1396 424.417 88.1396 424.417 87.7285 423.945C86.2663 422.262 84.8118 420.571 83.3586 418.879C82.1757 417.503 80.9894 416.13 79.7956 414.763C77.1042 411.676 74.5276 408.522 72.0456 405.239C70.9205 403.785 69.7533 402.388 68.5602 400.996C66.7273 398.85 65.0028 396.646 63.3168 394.368C62.1291 392.774 60.9232 391.197 59.7135 389.621C56.9258 385.989 54.1933 382.323 51.5202 378.595C49.7074 376.068 47.8554 373.574 46.0064 371.077C45.0482 369.783 44.0945 368.485 43.1446 367.184C42.6718 366.538 42.1989 365.892 41.7258 365.246C41.4925 364.927 41.2592 364.608 41.0189 364.28C39.6202 362.382 38.1714 360.549 36.6732 358.74C29.7624 350.344 27.1417 341.049 24.6942 330.362C24.3553 328.888 24.0082 327.417 23.6606 325.946C17.5135 299.496 19.7849 271.297 25.4798 245.005C26.4584 240.338 27.1331 235.635 27.8058 230.909C30.3182 213.281 34.1247 196.595 41.4674 180.481C41.621 180.131 41.7746 179.782 41.9329 179.422C45.4127 171.536 51.1721 165.212 58.2591 160.887C58.6318 160.656 59.0045 160.426 59.3885 160.189C64.0509 157.341 68.8373 154.742 73.6155 152.124C74.935 151.395 76.2467 150.653 77.5554 149.902C86.816 144.592 96.0003 139.954 106.162 136.948C109.208 136.04 112.143 135.063 115.052 133.737C119.221 131.842 123.358 130.354 127.761 129.193C128.376 129.031 128.991 128.868 129.625 128.7C138.402 126.446 147.291 124.767 156.17 123.042C158.083 122.668 159.996 122.288 161.908 121.908C163.766 121.54 165.625 121.175 167.485 120.811C168.364 120.639 169.243 120.465 170.122 120.291C171.343 120.049 172.564 119.812 173.786 119.577C174.14 119.506 174.494 119.435 174.858 119.361C183.751 117.676 191.678 122.241 199.75 125.705C201.458 126.437 203.168 127.164 204.878 127.891C209.876 130.022 214.861 132.179 219.784 134.5C220.146 134.67 220.508 134.84 220.881 135.016C232.389 140.519 241.616 149.045 250.72 158.15C252.939 160.357 255.247 162.413 257.618 164.434C259.066 165.702 260.446 167.028 261.826 168.381C264.093 170.6 266.429 172.692 268.825 174.751C270.575 176.276 272.288 177.842 274 179.415C276.394 181.611 278.814 183.755 281.294 185.841C283.249 187.505 285.179 189.2 287.11 190.896C287.683 191.399 287.683 191.399 288.267 191.913C289.015 192.569 289.763 193.226 290.511 193.883C292.741 195.84 294.979 197.785 297.217 199.731C298.829 201.132 300.441 202.535 302.05 203.939C302.664 204.474 303.277 205.008 303.89 205.543C306.136 207.5 308.377 209.464 310.612 211.436C311.285 212.029 311.96 212.621 312.635 213.212C316.077 216.225 319.281 219.349 322.367 222.775C327.72 228.693 333.177 233.279 341.134 234.381C343.231 234.186 344.114 233.636 345.493 231.974C354.265 222.202 365.995 215.681 376.941 209.126C380.082 207.244 383.213 205.345 386.342 203.443C386.644 203.26 386.945 203.077 387.256 202.889C392.006 200.003 396.717 197.054 401.394 194.037C401.942 193.685 401.942 193.685 402.501 193.326C403.328 192.79 404.152 192.248 404.974 191.702C405.421 191.409 405.867 191.117 406.327 190.815C406.729 190.548 407.131 190.281 407.546 190.006C414.814 185.86 423.976 188.621 431.575 190.351C432.602 190.578 433.629 190.804 434.656 191.03C436.797 191.502 438.937 191.981 441.076 192.464C443.784 193.076 446.494 193.676 449.205 194.272C451.324 194.739 453.442 195.21 455.56 195.682C456.557 195.905 457.555 196.126 458.552 196.346C463.769 197.503 468.937 198.772 474.067 200.31C474.503 200.44 474.939 200.569 475.388 200.703C481.077 202.457 486.232 205.277 491.323 208.462C495.313 210.957 499.504 212.919 503.731 214.914C504.185 215.133 504.64 215.352 505.108 215.578C506.006 216.009 506.91 216.428 507.819 216.834C513.939 219.744 516.515 224.95 519.223 231.218C519.503 231.844 519.783 232.47 520.071 233.115C523.714 241.357 526.053 248.721 526.563 257.816C526.64 259.071 526.717 260.326 526.795 261.581C526.834 262.236 526.874 262.89 526.914 263.564C527.568 274.346 528.344 285.103 529.459 295.843C529.513 296.365 529.567 296.886 529.623 297.423C530.278 303.679 531.052 309.902 531.946 316.124C533.256 325.382 533.525 333.745 530.751 342.731Z" fill="#883D05"/>
</g>
</g>
<defs>
<clipPath id="clip0_7156_6832">
<rect x="552.9" width="308" height="552.9" rx="12" transform="rotate(90 552.9 0)" fill="white"/>
</clipPath>
</defs>
</svg>
