<svg width="247" height="451" viewBox="0 0 247 451" fill="none" xmlns="http://www.w3.org/2000/svg">
<g opacity="0.7" clip-path="url(#clip0_6699_13714)">
<path d="M18.3103 269.978C17.8836 270.75 17.4801 271.324 16.6772 271.678C12.9929 272.48 9.24744 270.82 5.97106 269.564C5.74767 269.48 5.52428 269.395 5.29412 269.308C1.35917 267.808 -2.31798 265.96 -5.9531 263.868C-6.14017 263.76 -6.32725 263.652 -6.51999 263.541C-7.01876 263.253 -7.51534 262.96 -8.01171 262.667C-8.96177 262.126 -9.9473 261.681 -10.9447 261.229C-13.4745 260.035 -15.7662 258.509 -18.0945 256.973C-18.5682 256.663 -19.0421 256.354 -19.5161 256.045C-20.7552 255.236 -21.9924 254.424 -23.2292 253.611C-25.2062 252.313 -27.1855 251.018 -29.1656 249.725C-29.8489 249.278 -30.5311 248.829 -31.2133 248.38C-33.3351 246.989 -35.4717 245.646 -37.6787 244.392C-39.2334 243.506 -40.725 242.541 -42.2075 241.541C-42.6028 241.277 -42.6028 241.277 -43.006 241.007C-43.8295 240.456 -44.6518 239.903 -45.474 239.351C-46.0396 238.972 -46.6053 238.593 -47.1711 238.214C-48.542 237.296 -49.9119 236.377 -51.2811 235.456C-52.7457 236.497 -53.5906 237.734 -54.5662 239.228C-54.822 239.617 -54.822 239.617 -55.0831 240.013C-57.2345 243.319 -59.1952 246.737 -61.1668 250.151C-62.1428 251.839 -63.1248 253.523 -64.1068 255.208C-64.269 255.486 -64.269 255.486 -64.4345 255.771C-66.4376 259.207 -68.4982 262.607 -70.584 265.995C-74.4072 272.219 -77.9297 278.512 -81.0583 285.107C-84.5471 292.377 -84.5471 292.377 -86.8553 294.501C-98.3857 286.888 -98.3857 286.888 -102.325 284.05C-102.566 283.877 -102.807 283.705 -103.055 283.528C-104.152 282.726 -105.148 281.897 -106.1 280.923C-108.387 278.768 -111.077 277.138 -113.685 275.413C-114.267 275.026 -114.848 274.638 -115.43 274.251C-116.646 273.441 -117.863 272.632 -119.081 271.825C-120.628 270.8 -122.173 269.772 -123.718 268.742C-124.918 267.942 -126.12 267.143 -127.322 266.345C-127.891 265.967 -128.46 265.588 -129.029 265.209C-131.935 263.275 -134.848 261.371 -137.876 259.628C-139.289 258.809 -140.613 257.897 -141.928 256.93C-145.776 254.222 -150.343 252.588 -154.679 250.783C-154.363 248.496 -153.319 246.619 -152.251 244.557C-152.056 244.175 -151.861 243.793 -151.666 243.411C-151.257 242.613 -150.847 241.815 -150.436 241.017C-149.913 240.005 -149.393 238.991 -148.874 237.976C-148.374 236.998 -147.873 236.02 -147.371 235.043C-147.186 234.683 -147.002 234.324 -146.812 233.953C-145.131 230.696 -143.398 227.587 -141.298 224.576C-136.437 217.505 -131.875 210.385 -127.779 202.849C-127.677 202.662 -127.576 202.476 -127.471 202.283C-124.57 196.94 -121.727 191.562 -118.99 186.137C-117.301 182.798 -115.602 179.84 -112.884 177.247C-109.565 178.905 -106.339 180.677 -103.161 182.586C-102.828 182.785 -102.828 182.785 -102.488 182.988C-97.0135 186.266 -91.6263 189.68 -86.2661 193.14C-85.6343 193.547 -85.0015 193.953 -84.3684 194.358C-80.2976 196.965 -76.411 199.697 -72.6886 202.79C-69.895 205.11 -66.9937 207.231 -64.0152 209.302C-61.011 211.391 -58.0642 213.544 -55.1476 215.755C-52.7047 217.603 -50.259 219.437 -47.7187 221.149C-47.3977 221.368 -47.3977 221.368 -47.0701 221.592C-46.0364 222.273 -45.1951 222.747 -43.9094 222.85C-42.2486 221.154 -41.4654 219.262 -40.5486 217.098C-39.01 213.519 -37.3691 210.358 -35.1983 207.105C-34.9759 206.771 -34.7536 206.437 -34.5245 206.093C-33.2943 204.267 -32.0333 202.52 -30.6145 200.841C-28.9863 198.889 -27.4749 196.858 -26.0254 194.768C-25.7777 194.414 -25.5267 194.061 -25.272 193.712C-23.473 191.233 -22.8358 189.456 -22.8108 186.54C-22.7448 183.679 -21.5346 181.395 -19.9462 179.022C-19.7785 178.772 -19.6109 178.521 -19.4382 178.263C-16.772 174.353 -13.8407 170.632 -10.9446 166.894C-10.0823 165.781 -9.22428 164.665 -8.36733 163.548C-7.69934 162.678 -7.02886 161.81 -6.35765 160.943C-6.04005 160.532 -5.72327 160.12 -5.40737 159.708C-4.96712 159.134 -4.52352 158.563 -4.07899 157.992C-3.88892 157.742 -3.88892 157.742 -3.69501 157.487C-2.20005 155.585 -0.699686 154.396 1.61539 154.036C2.57567 154.123 3.1523 154.638 3.9367 155.164C4.2339 155.361 4.5311 155.558 4.83731 155.761C5.56556 156.266 6.24364 156.812 6.92055 157.385C8.37364 158.58 9.91444 159.623 11.4781 160.664C11.7892 160.872 12.1003 161.081 12.4208 161.296C13.2681 161.864 14.1164 162.43 14.9651 162.996C15.4993 163.353 16.0333 163.709 16.5672 164.066C18.4416 165.319 20.3169 166.571 22.1931 167.821C23.9215 168.973 25.648 170.128 27.3736 171.284C28.8697 172.286 30.3671 173.286 31.8655 174.285C32.7538 174.877 33.6416 175.469 34.528 176.064C40.5084 180.076 46.6093 183.868 53.1829 186.871C59.6302 189.833 59.6302 189.833 60.8689 192.041C60.7887 192.859 60.7887 192.859 60.4822 193.747C60.3702 194.076 60.2582 194.405 60.1429 194.744C59.5059 196.441 58.8426 198.121 58.131 199.791C57.9764 200.156 57.8219 200.52 57.6626 200.895C55.0342 206.996 51.8401 212.82 48.2086 218.401C48.0031 218.719 47.7975 219.037 47.5858 219.364C46.9358 220.369 46.2845 221.374 45.633 222.378C42.1819 227.683 42.1819 227.683 38.8453 233.059C38.7192 233.267 38.593 233.475 38.463 233.69C37.615 235.11 36.9057 236.562 36.2294 238.067C35.7369 239.148 35.3164 239.93 34.531 240.839C33.9117 241.057 33.9117 241.057 33.2212 241.224C32.2357 241.484 32.2357 241.484 31.4948 242.194C30.4283 244.256 29.708 246.373 28.9944 248.565C27.2323 253.84 25.0965 258.56 22.1339 263.307C20.7727 265.488 19.4418 267.67 18.3103 269.978Z" fill="#5894A9"/>
<path d="M106.597 363.354C106.355 363.714 106.355 363.714 106.108 364.082C104.092 367.074 102.048 370.045 99.9991 373.014C99.3266 373.99 98.6554 374.966 97.9842 375.942C90.7599 386.433 90.7599 386.433 88.596 387.219C87.3371 387.282 86.4243 387.094 85.29 386.63C84.8251 386.441 84.8251 386.441 84.3509 386.25C83.8498 386.041 83.8498 386.041 83.3387 385.829C82.9828 385.683 82.6269 385.537 82.2709 385.392C81.3159 385.001 80.3627 384.606 79.41 384.209C78.8177 383.963 78.2249 383.718 77.632 383.473C72.3749 381.299 67.1597 379.05 62.0087 376.649C61.7448 376.526 61.4808 376.404 61.2089 376.277C57.7097 374.641 54.316 372.946 51.0771 370.846C47.0549 368.237 43.0474 366.094 38.5825 364.298C37.2765 363.76 36.1157 363.25 35.0404 362.331C34.8074 361.449 34.9589 360.656 35.0544 359.731C33.1317 358.661 31.1597 358.053 29.036 357.444C22.9197 355.625 17.0283 353.267 11.1844 350.776C10.6705 350.557 10.1558 350.34 9.64106 350.123C9.33204 349.989 9.02301 349.855 8.70462 349.716C8.30039 349.542 8.30039 349.542 7.88799 349.364C6.89369 348.82 6.03865 348.246 5.71672 347.09C5.58465 343.99 6.66892 341.941 8.34775 339.258C8.61093 338.831 8.8738 338.405 9.1364 337.979C9.27369 337.756 9.41099 337.533 9.55244 337.303C11.9122 333.461 14.1064 329.6 16.0642 325.545C18.1202 321.296 20.3497 317.211 22.7777 313.152C23.0238 312.737 23.2696 312.322 23.5154 311.906C28.9179 302.782 34.4179 293.78 41.4383 285.799C41.677 285.528 41.677 285.528 41.9204 285.251C42.573 284.509 43.2256 283.768 43.8806 283.028C45.9928 280.639 47.9517 278.265 49.5451 275.478C50.1876 274.396 50.5212 273.984 51.6814 273.529C53.3781 273.382 54.1964 274.045 55.52 275.005C55.6853 275.124 55.8506 275.243 56.021 275.365C56.375 275.62 56.7287 275.876 57.082 276.132C58.0073 276.802 58.9373 277.465 59.8669 278.129C60.0502 278.26 60.2335 278.391 60.4224 278.526C63.756 280.909 66.9888 283.081 70.7394 284.769C76.2627 287.312 80.7473 291.308 85.2443 295.332C86.0894 296.083 86.9354 296.832 87.7821 297.582C88.303 298.043 88.8228 298.506 89.3414 298.969C89.5752 299.178 89.809 299.386 90.0499 299.6C90.2534 299.782 90.4569 299.964 90.6666 300.152C91.3215 300.694 91.9742 301.179 92.7068 301.611C93.4359 301.512 93.4359 301.512 94.1554 301.178C96.0603 300.487 97.6735 300.572 99.4667 301.27C103.69 303.612 107.227 306.995 110.822 310.191C111.699 310.97 112.58 311.745 113.462 312.519C114.153 313.126 114.842 313.735 115.531 314.345C115.854 314.632 116.178 314.917 116.503 315.202C123.509 321.358 123.509 321.358 123.888 325.364C123.915 329.736 121.631 333.749 119.717 337.65C119.434 338.232 119.151 338.814 118.869 339.396C118.279 340.61 117.687 341.823 117.094 343.035C116.337 344.583 115.582 346.132 114.829 347.682C114.106 349.169 113.382 350.656 112.657 352.143C112.521 352.423 112.384 352.703 112.244 352.992C111.854 353.792 111.463 354.591 111.072 355.389C110.959 355.621 110.846 355.853 110.73 356.092C109.494 358.613 108.174 361.025 106.597 363.354Z" fill="#5894A9"/>
<path d="M166.57 269.207C165.528 269.732 164.902 269.813 163.825 269.571C163.564 269.514 163.302 269.457 163.033 269.399C162.751 269.333 162.468 269.268 162.178 269.2C161.88 269.134 161.582 269.068 161.275 269C160.295 268.783 159.318 268.559 158.341 268.335C157.662 268.182 156.983 268.028 156.304 267.876C154.922 267.564 153.541 267.249 152.161 266.932C150.625 266.579 149.087 266.232 147.548 265.889C142.746 264.816 138.039 263.725 133.486 261.92C128.567 260.017 123.349 258.84 118.223 257.526C117.451 257.328 116.679 257.128 115.908 256.929C110.639 255.573 105.371 254.355 99.9766 253.462C98.5253 253.219 97.0783 252.959 95.6311 252.699C95.3771 252.655 95.1231 252.61 94.8614 252.564C94.628 252.523 94.3946 252.481 94.1542 252.439C93.9518 252.403 93.7494 252.367 93.5408 252.33C92.0007 251.999 90.7306 251.362 89.6949 250.154C88.6034 247.905 90.2686 243.919 91.0214 241.542C91.1141 241.248 91.2067 240.953 91.3022 240.65C92.3137 237.472 93.4351 234.331 94.5795 231.193C94.7389 230.753 94.7389 230.753 94.9016 230.304C96.2432 226.603 97.6271 222.926 99.1138 219.274C99.9686 217.158 100.725 215.025 101.444 212.866C101.546 212.56 101.648 212.253 101.753 211.938C102.106 210.874 102.458 209.81 102.802 208.744C103.444 206.767 104.139 204.988 105.194 203.189C107.411 199.37 108.734 195.306 110.13 191.163C110.501 190.075 110.873 188.987 111.247 187.9C111.476 187.23 111.704 186.559 111.931 185.888C113.06 182.563 114.268 179.387 116.058 176.336C117.106 174.505 118.003 172.734 118.687 170.749C119.453 168.581 120.508 165.829 122.52 164.526C123.808 164.243 124.725 164.753 125.873 165.232C126.121 165.332 126.37 165.431 126.625 165.533C127.435 165.857 128.242 166.188 129.049 166.519C129.607 166.744 130.165 166.967 130.723 167.19C132.352 167.843 133.978 168.503 135.603 169.164C142.195 171.848 142.195 171.848 149.095 173.684C153.85 174.639 158.486 175.834 163.128 177.166C167.444 178.403 171.763 179.618 176.121 180.725C176.355 180.784 176.589 180.844 176.83 180.905C179.698 181.633 182.577 182.313 185.467 182.961C185.761 183.028 186.055 183.094 186.357 183.162C187.785 183.483 189.213 183.8 190.644 184.108C191.16 184.223 191.677 184.338 192.194 184.453C192.427 184.501 192.66 184.55 192.9 184.6C194.399 184.938 195.498 185.404 196.675 186.387C197.083 187.386 196.77 188.131 196.374 189.163C196.254 189.477 196.134 189.791 196.01 190.115C195.873 190.462 195.736 190.808 195.595 191.166C195.453 191.532 195.31 191.898 195.163 192.275C193.465 196.586 191.563 200.821 189.665 205.055C188.153 208.408 188.153 208.408 186.959 211.87C186.201 214.395 184.861 216.635 183.573 218.939C181.692 222.306 180.068 225.628 178.765 229.247C178.589 229.73 178.589 229.73 178.411 230.223C177.392 233.036 176.393 235.856 175.401 238.678C175.325 238.895 175.248 239.112 175.17 239.336C173.295 244.67 171.429 250.003 169.814 255.41C169.717 255.73 169.717 255.73 169.619 256.056C168.596 259.457 167.816 262.922 167.714 266.428C167.655 267.609 167.422 268.3 166.57 269.207Z" fill="#5894A9"/>
</g>
<defs>
<clipPath id="clip0_6699_13714">
<rect width="335" height="309" fill="white" transform="translate(246.96 171.816) rotate(123.686)"/>
</clipPath>
</defs>
</svg>
