<svg width="59" height="81" viewBox="0 0 59 81" fill="none" xmlns="http://www.w3.org/2000/svg">
<path d="M0.0880214 86.1475C0.0921227 86.3365 0.0959589 86.5255 0.0994999 86.7145C0.104594 86.9738 0.111285 87.233 0.118037 87.4922C0.121576 87.639 0.125114 87.7858 0.12876 87.9371C0.169557 88.4267 0.266812 88.8443 0.389894 89.3129C1.07903 89.4453 1.76821 89.5774 2.45741 89.7092C2.69159 89.7541 2.92576 89.799 3.15992 89.844C3.49759 89.9088 3.8353 89.9734 4.17301 90.038C4.27674 90.0579 4.38047 90.0779 4.48735 90.0985C7.99699 90.7679 11.4393 90.1949 14.9424 89.7124C15.9735 89.5708 17.0049 89.4331 18.0363 89.2952C18.3913 89.2475 18.7461 89.1987 19.101 89.1497C20.4084 88.9713 21.7104 88.8389 23.0252 88.773C23.4037 91.2251 23.711 93.6899 24.0079 96.1577C24.0348 96.3805 24.0616 96.6032 24.0885 96.826C24.1989 97.7425 24.3091 98.659 24.4181 99.5757C24.4859 100.145 24.5544 100.714 24.6234 101.284C24.6493 101.498 24.6749 101.713 24.7002 101.928C24.7352 102.225 24.7713 102.522 24.8075 102.819C24.8277 102.988 24.8478 103.156 24.8686 103.33C24.9315 103.708 24.9889 103.977 25.1649 104.296C25.4478 104.463 25.4478 104.463 25.8304 104.607C25.903 104.634 25.9755 104.662 26.0502 104.69C27.3345 105.163 28.6427 105.543 29.9439 105.942C30.2216 106.027 30.4992 106.113 30.7769 106.199C32.0745 106.599 32.0745 106.599 32.6341 106.769C32.8181 106.825 33.0017 106.883 33.1845 106.945C35.2945 107.639 37.6629 106.915 39.7757 106.505C40.449 106.375 41.1226 106.247 41.7966 106.122C42.0281 106.078 42.2593 106.033 42.4905 105.987C43.4053 105.815 44.2844 105.744 45.2101 105.781C45.2645 107.815 45.0945 109.816 44.9286 111.839C44.888 112.338 44.8477 112.836 44.8081 113.335C44.7836 113.643 44.7586 113.951 44.7329 114.259C44.509 117.062 44.509 117.062 45.0975 117.93C45.6894 118.367 46.1294 118.353 46.7867 118.2C47.3157 118.046 47.8393 117.871 48.3633 117.694C48.5105 117.645 48.6577 117.596 48.8049 117.547C49.4914 117.318 50.174 117.08 50.8501 116.81C52.7248 116.062 54.5202 116.363 56.4231 116.793C57.3407 116.999 58.2389 117.174 59.1742 117.188C59.291 117.191 59.291 117.191 59.4102 117.195C60.7513 117.177 62.1072 116.505 63.3613 115.99C64.8384 115.383 66.3241 114.815 67.8173 114.269C67.9054 114.236 67.9935 114.204 68.0843 114.171C68.3348 114.079 68.5854 113.987 68.8361 113.896C68.91 113.869 68.984 113.842 69.0602 113.814C69.4411 113.677 69.8187 113.56 70.2103 113.476C70.1416 114.607 69.9034 115.674 69.6613 116.766C69.6212 116.949 69.5812 117.133 69.5412 117.316C69.5018 117.497 69.4623 117.677 69.4229 117.857C69.4036 117.945 69.3844 118.033 69.3646 118.124C69.2783 118.516 69.189 118.906 69.0924 119.295C69.0615 119.42 69.0306 119.545 68.9988 119.673C68.9581 119.83 68.9581 119.83 68.9165 119.991C68.8624 120.338 68.8532 120.638 68.8553 120.99C68.8559 121.1 68.8564 121.209 68.8569 121.322C68.8576 121.405 68.8582 121.489 68.8589 121.575C71.3575 121.579 73.8562 121.582 76.3548 121.583C76.498 121.583 76.498 121.583 76.6442 121.583C84.1892 121.588 91.7338 121.548 99.2787 121.49C99.5886 121.488 99.8985 121.485 100.208 121.483C101.073 121.476 101.938 121.47 102.803 121.462C103.796 121.454 104.79 121.447 105.784 121.441C105.943 121.44 106.103 121.439 106.263 121.438C106.739 121.435 107.214 121.433 107.69 121.431C107.902 121.431 108.114 121.429 108.327 121.428C110.005 121.425 111.715 121.501 113.37 121.853C113.921 121.969 114.444 122.013 115.002 121.997C115.082 121.995 115.162 121.994 115.244 121.993C115.436 121.99 115.627 121.985 115.819 121.98C116.08 121.413 116.21 120.95 116.267 120.307C116.283 120.137 116.299 119.968 116.315 119.793C116.331 119.608 116.347 119.423 116.362 119.237C116.379 119.041 116.396 118.845 116.414 118.649C116.45 118.234 116.485 117.82 116.519 117.405C116.553 116.994 116.589 116.583 116.627 116.172C117.276 109.093 116.89 101.926 116.751 94.8221C116.722 93.3366 116.693 91.851 116.664 90.3654C116.661 90.1675 116.661 90.1675 116.657 89.9657C116.608 87.4204 116.56 84.8751 116.513 82.3297C116.503 81.8098 116.493 81.2898 116.484 80.7698C116.319 72.0746 116.338 63.3909 116.573 54.6983C116.595 53.9123 116.615 53.1263 116.635 52.3402C116.808 45.633 116.999 38.9266 117.191 32.2202C117.208 31.614 117.225 31.0079 117.243 30.4017C117.277 29.1863 117.312 27.9708 117.347 26.7553C117.35 26.6548 117.353 26.5543 117.356 26.4508C117.428 23.9309 117.501 21.4109 117.575 18.8911C117.62 17.3534 117.665 15.8156 117.709 14.2779C117.735 13.3807 117.761 12.4836 117.788 11.5865C117.976 5.28018 117.976 5.28019 117.99 2.91268C117.992 2.64626 117.995 2.37985 117.998 2.11344C117.998 1.8824 117.998 1.88239 117.999 1.64668C117.999 1.51651 118 1.38633 118 1.25221C117.95 0.824726 117.831 0.569791 117.621 0.22196C116.821 -0.25705 115.563 0.164694 114.72 0.3232C114.587 0.347169 114.454 0.371139 114.317 0.395834C113.896 0.471833 113.474 0.549213 113.053 0.626919C112.497 0.729306 111.94 0.830341 111.384 0.930638C111.196 0.96607 111.196 0.96607 111.003 1.00222C109.813 1.23987 109.813 1.23987 108.624 1.09968C106.612 0.525943 104.098 1.17356 102.048 1.37734C101.552 1.42647 101.055 1.47431 100.559 1.52234C99.7264 1.60301 98.8943 1.68459 98.0622 1.76679C97.1044 1.8614 96.1465 1.95476 95.1885 2.04741C94.161 2.14681 93.1335 2.2471 92.106 2.34765C91.8129 2.37628 91.5198 2.40474 91.2267 2.43317C90.7645 2.47805 90.3023 2.52353 89.8402 2.56945C89.6719 2.58608 89.5037 2.60252 89.3355 2.61874C85.5274 2.98654 85.5274 2.98654 84.0327 4.73873C81.4424 7.61365 78.5716 9.48553 75.0349 9.66233C74.7793 9.67517 74.5237 9.69006 74.2681 9.70539C73.6324 9.74316 72.9965 9.77783 72.3606 9.81219C68.9854 9.99512 65.6982 10.3531 62.3907 11.2318C61.5833 11.4452 60.7752 11.6489 59.9625 11.8308C59.8682 11.8521 59.7739 11.8733 59.6768 11.8952C57.0644 12.4538 54.3698 12.2956 51.7271 12.2947C51.0383 12.2945 50.3495 12.2963 49.6607 12.3012C49.3413 12.3027 49.0219 12.3011 48.7025 12.2994C48.5065 12.3006 48.3104 12.3019 48.1143 12.3035C47.9834 12.3015 47.9834 12.3015 47.8498 12.2995C47.1374 12.3106 46.5265 12.5397 46.0188 13.1615C45.7216 13.7841 45.5537 14.3586 45.4806 15.0741C45.468 15.182 45.4554 15.2899 45.4424 15.4011C45.2612 17.0086 45.1264 18.624 44.9861 20.2373C44.935 20.824 44.8829 21.4107 44.8305 21.9973C44.8131 22.1934 44.7956 22.3894 44.7781 22.5855C44.7695 22.6818 44.7609 22.7781 44.7521 22.8774C44.6546 23.9709 44.5576 25.0644 44.4616 26.1581C44.4136 26.7037 44.3643 27.2492 44.3135 27.7946C44.2891 28.0596 44.2664 28.3249 44.2437 28.5902C44.0222 30.9335 43.299 32.8278 41.7925 34.3751C40.6675 35.386 39.4112 35.8109 38.0275 35.9522C37.8248 35.9755 37.8248 35.9755 37.618 35.9993C36.129 36.1628 34.6363 36.2594 33.1433 36.3511C32.289 36.4037 31.4349 36.4606 30.5809 36.518C30.4933 36.5239 30.4056 36.5297 30.3153 36.5358C28.3438 36.6686 26.3743 36.8337 24.4051 37.0085C24.1522 37.031 23.8994 37.0532 23.6465 37.0754C23.1766 37.1168 22.7068 37.159 22.2369 37.2014C22.0979 37.2137 21.9589 37.2261 21.8157 37.2388C21.6236 37.2565 21.6236 37.2565 21.4275 37.2745C21.3167 37.2846 21.206 37.2946 21.0919 37.305C20.757 37.3451 20.4286 37.4077 20.0973 37.4782C19.903 38.4773 19.8226 39.4498 19.7841 40.4732C19.7742 40.7082 19.7742 40.7082 19.7642 40.9479C19.7503 41.2829 19.7367 41.6178 19.7236 41.9528C19.7029 42.4776 19.6812 43.0023 19.6591 43.527C19.5917 45.1482 19.5292 46.7696 19.4744 48.3915C19.4609 48.7759 19.4473 49.1603 19.4338 49.5447C19.4219 49.8968 19.4117 50.2489 19.4016 50.6011C19.3563 52.5748 19.3563 52.5748 18.5207 54.2165C17.951 54.6564 17.4515 54.8758 16.7906 55.0333C16.6969 55.0569 16.6032 55.0806 16.5067 55.105C16.1906 55.1845 15.8741 55.2615 15.5575 55.3386C15.3291 55.3955 15.1008 55.4525 14.8724 55.5096C14.0619 55.7114 13.2508 55.9092 12.4395 56.1063C12.3194 56.1355 12.3194 56.1355 12.1969 56.1653C11.6748 56.2921 11.1526 56.4189 10.6304 56.5455C10.4486 56.5896 10.2668 56.6337 10.085 56.6778C9.17947 56.8975 8.27394 57.1169 7.36803 57.3342C5.10922 57.8761 2.85943 58.4532 0.615121 59.076C0.429047 61.4919 0.331911 63.9032 0.276722 66.328C0.270128 66.6149 0.263271 66.9018 0.256337 67.1887C-0.0491906 79.8555 -0.0491906 79.8555 0.0880214 86.1475Z" fill="#FFBB4E" fill-opacity="0.7"/>
</svg>
