<svg width="78" height="55" viewBox="0 0 78 55" fill="none" xmlns="http://www.w3.org/2000/svg">
<g clip-path="url(#clip0_5831_21493)">
<path d="M29.2882 10.9888C28.9663 11.0142 28.7095 11.0081 28.4384 10.8443C27.4457 9.93371 27.1909 8.53096 26.9079 7.34187C26.8883 7.261 26.8687 7.18014 26.8485 7.09682C26.5064 5.67011 26.3227 4.25092 26.2219 2.79687C26.2167 2.72204 26.2115 2.64721 26.2061 2.57011C26.1929 2.37024 26.1812 2.1703 26.1696 1.97034C26.1416 1.59136 26.077 1.22075 26.012 0.845343C25.862 -0.116119 25.8617 -1.07279 25.8567 -2.04179C25.8549 -2.23842 25.8529 -2.43505 25.8509 -2.63168C25.8457 -3.14578 25.8418 -3.65989 25.8381 -4.174C25.8322 -4.99573 25.8247 -5.81746 25.8167 -6.63918C25.8142 -6.92287 25.8123 -7.20656 25.8105 -7.49026C25.8036 -8.37181 25.7787 -9.24819 25.7126 -10.1279C25.6668 -10.7481 25.6579 -11.3653 25.6615 -11.9865C25.6617 -12.1517 25.6617 -12.1517 25.662 -12.3203C25.6626 -12.6645 25.664 -13.0087 25.6655 -13.353C25.666 -13.5895 25.6666 -13.826 25.667 -14.0626C25.6683 -14.6358 25.6702 -15.209 25.6726 -15.7822C25.0581 -16.0051 24.5095 -16.011 23.8559 -16.0051C23.6856 -16.0042 23.6856 -16.0042 23.5119 -16.0033C22.0674 -15.9882 20.6276 -15.8964 19.1869 -15.8086C18.4743 -15.7655 17.7615 -15.7247 17.0486 -15.6839C16.9308 -15.6772 16.9308 -15.6772 16.8106 -15.6703C15.3564 -15.5871 13.9019 -15.5277 12.4458 -15.4777C9.77254 -15.3836 7.13943 -15.1893 4.49448 -14.8231C1.5704 -14.4307 1.5704 -14.4307 0.45438 -14.6887C0.432301 -19.4892 0.432301 -19.4892 0.496979 -21.1749C0.500484 -21.2778 0.50399 -21.3806 0.507599 -21.4866C0.529106 -21.9581 0.579475 -22.4056 0.682877 -22.8687C0.875015 -23.9451 0.825382 -25.0369 0.821346 -26.1234C0.821213 -26.3661 0.821159 -26.6089 0.821186 -26.8517C0.821011 -27.3593 0.820076 -27.867 0.818546 -28.3746C0.816624 -29.0195 0.816185 -29.6643 0.816273 -30.3092C0.816242 -30.8105 0.815613 -31.3118 0.814796 -31.8131C0.814438 -32.0506 0.814209 -32.288 0.814121 -32.5254C0.81321 -33.7383 0.801811 -34.9475 0.717888 -36.1585C0.68026 -36.725 0.689346 -37.2833 0.717072 -37.85C0.760574 -39.4841 0.330791 -41.1193 0 -42.7209C0.761238 -43.07 1.54514 -43.13 2.39038 -43.2187C2.54644 -43.2358 2.70249 -43.2529 2.85853 -43.2702C3.18489 -43.306 3.51133 -43.3412 3.83787 -43.3759C4.25259 -43.4199 4.66714 -43.465 5.08165 -43.5106C5.48139 -43.5545 5.8812 -43.5978 6.28103 -43.6412C6.42804 -43.6571 6.57505 -43.673 6.72652 -43.6895C8.06052 -43.8313 9.35993 -43.9292 10.7042 -43.9025C13.846 -43.8597 16.9424 -43.9131 20.0709 -44.1809C20.1484 -44.1875 20.2259 -44.1941 20.3057 -44.201C22.5232 -44.3917 24.7394 -44.6063 26.9486 -44.8607C28.3091 -45.0155 29.5557 -45.0944 30.898 -44.8084C31.0667 -43.5292 31.182 -42.2552 31.2459 -40.9689C31.2528 -40.8341 31.2528 -40.8341 31.2599 -40.6967C31.373 -38.4823 31.4269 -36.2669 31.4614 -34.0506C31.4657 -33.7895 31.4706 -33.5285 31.4758 -33.2674C31.508 -31.588 31.4651 -29.938 31.2787 -28.2659C31.1391 -27.0112 31.0822 -25.7638 31.0561 -24.5036C31.0297 -23.2325 30.9722 -21.9658 30.8909 -20.6965C30.824 -19.6342 30.7616 -18.5736 30.756 -17.5093C30.7544 -17.3743 30.7544 -17.3743 30.7528 -17.2365C30.7552 -16.8064 30.7815 -16.4718 31.0116 -16.0804C31.8656 -15.927 32.6011 -16.0651 33.4468 -16.2171C34.85 -16.462 36.1465 -16.5967 37.5788 -16.5961C37.7257 -16.5961 37.8726 -16.5962 38.0239 -16.5962C38.8302 -16.5924 39.6188 -16.5646 40.4187 -16.478C41.3443 -16.3835 42.27 -16.3378 43.2013 -16.3215C43.3597 -16.3182 43.518 -16.3135 43.6762 -16.3073C44.797 -16.2648 45.4679 -16.423 46.3617 -16.9778C47.2468 -17.51 48.1887 -17.6003 49.2343 -17.5983C49.3447 -17.5981 49.4551 -17.5979 49.5689 -17.5977C51.3019 -17.5804 53.0313 -17.4501 54.7585 -17.333C55.2728 -17.2982 55.7872 -17.2653 56.3017 -17.2328C56.7024 -17.2073 57.1031 -17.1807 57.5036 -17.1537C57.6934 -17.1411 57.8832 -17.1289 58.073 -17.117C58.3374 -17.1004 58.6015 -17.0822 58.8657 -17.0636C58.9805 -17.0569 58.9805 -17.0569 59.0977 -17.05C59.9809 -16.9843 60.6479 -16.7796 61.228 -16.1798C61.3963 -15.8853 61.3565 -15.6194 61.3558 -15.2914C61.356 -15.1675 61.3563 -15.0435 61.3566 -14.9159C61.3507 -14.6081 61.3219 -14.3067 61.2848 -14.0006C61.2159 -13.3503 61.2112 -12.704 61.2115 -12.0513C61.2111 -11.9211 61.2107 -11.791 61.2103 -11.6569C61.2093 -11.3025 61.209 -10.9481 61.209 -10.5937C61.2089 -10.3706 61.2086 -10.1475 61.2083 -9.92437C61.2073 -9.14105 61.2068 -8.35773 61.2069 -7.57441C61.207 -6.85276 61.2058 -6.13111 61.204 -5.40946C61.2025 -4.78384 61.2019 -4.15822 61.202 -3.53261C61.202 -3.16173 61.2017 -2.79085 61.2005 -2.41997C61.1927 0.0820179 61.2763 2.57658 61.6965 5.05556C62.1035 7.49023 62.1035 7.49023 61.6823 8.27379C61.4166 8.40831 61.4166 8.40831 61.0837 8.49085C60.9608 8.52184 60.8379 8.55284 60.7112 8.58477C60.0646 8.72768 59.4179 8.85966 58.7644 8.97584C58.6219 9.00136 58.4795 9.02688 58.3328 9.05318C55.94 9.46884 53.5163 9.66786 51.078 9.69341C50.9394 9.69524 50.8008 9.69707 50.658 9.69896C50.2197 9.70473 49.7814 9.71 49.343 9.71516C47.0256 9.73965 47.0256 9.73965 44.7096 9.81107C44.6205 9.81473 44.5314 9.81839 44.4396 9.82216C43.8346 9.85061 43.2482 9.92532 42.652 10.02C42.2226 10.0859 41.899 10.1149 41.4623 10.0631C41.2702 9.92601 41.2702 9.92601 41.079 9.75865C40.7996 9.52382 40.7996 9.52382 40.4329 9.44633C39.5879 9.53541 38.7964 9.73511 37.9835 9.95125C36.0182 10.4583 34.146 10.7504 32.0978 10.8086C31.1566 10.8355 30.2213 10.8712 29.2882 10.9888Z" fill="#5894A9" fill-opacity="0.7"/>
<path d="M15.656 54.9996C15.4985 54.999 15.4985 54.999 15.3377 54.9984C14.029 54.9922 12.7204 54.9738 11.4118 54.9538C10.982 54.9473 10.5523 54.9414 10.1225 54.9355C5.50157 54.8688 5.50157 54.8688 4.82896 54.3963C4.55654 54.0457 4.42954 53.7467 4.34155 53.3306C4.3048 53.1606 4.3048 53.1606 4.26732 52.987C4.22937 52.8027 4.22937 52.8027 4.19065 52.6146C4.16305 52.4841 4.13537 52.3536 4.10762 52.2231C4.03354 51.8728 3.96107 51.5223 3.88907 51.1716C3.84424 50.9537 3.79899 50.7358 3.75364 50.518C3.35196 48.5859 2.98134 46.6514 2.66961 44.7063C2.65361 44.6066 2.63762 44.507 2.62113 44.4043C2.41081 43.082 2.23969 41.7787 2.222 40.4421C2.19997 38.7824 2.0406 37.2162 1.68445 35.5848C1.58412 35.1052 1.50422 34.6729 1.56532 34.1866C1.78482 33.95 2.05474 33.8414 2.3531 33.6913C2.28919 32.9319 2.07604 32.2468 1.8326 31.518C1.15094 29.4065 0.677181 27.2563 0.253132 25.0943C0.215843 24.9042 0.177837 24.7141 0.139812 24.5241C0.118153 24.4093 0.0964928 24.2945 0.074173 24.1762C0.0454521 24.0263 0.0454521 24.0263 0.0161476 23.8733C-0.0197945 23.4824 -0.0183868 23.1257 0.265842 22.8109C1.17511 22.1776 2.0118 22.0965 3.15977 22.0648C3.34137 22.0588 3.52297 22.0527 3.70456 22.0465C3.79947 22.0432 3.89439 22.04 3.99218 22.0366C5.627 21.9786 7.23412 21.8693 8.85224 21.6546C10.5488 21.431 12.2305 21.2889 13.9446 21.2088C14.1195 21.2 14.2943 21.1911 14.4691 21.1822C18.311 20.9863 22.1354 20.8422 25.9573 21.3323C26.0873 21.3489 26.0873 21.3489 26.2198 21.3659C26.5751 21.4115 26.9303 21.4571 27.2854 21.5037C28.4317 21.6535 29.5426 21.762 30.7045 21.6858C31.1604 21.6632 31.3521 21.6801 31.7228 21.9271C32.1085 22.3877 32.073 22.7508 32.0498 23.3163C32.0472 23.3868 32.0445 23.4573 32.0417 23.53C32.036 23.681 32.03 23.832 32.0237 23.9829C32.0077 24.3782 31.9946 24.7735 31.9813 25.1688C31.9786 25.2468 31.9759 25.3248 31.9731 25.4052C31.9246 26.8232 31.9193 28.1718 32.1645 29.5766C32.5083 31.6562 32.2043 33.7158 31.8947 35.7841C31.838 36.1718 31.7819 36.5595 31.7261 36.9474C31.6916 37.186 31.6566 37.4246 31.6209 37.6632C31.6051 37.7705 31.5893 37.8778 31.5731 37.9884C31.5591 38.0819 31.5451 38.1755 31.5307 38.2719C31.4987 38.5649 31.4838 38.8459 31.5008 39.14C31.6773 39.331 31.6773 39.331 31.9228 39.4743C32.5149 39.8904 32.8136 40.3716 32.9638 41.0222C33.1066 42.6887 32.7972 44.3577 32.5558 46.0069C32.4969 46.4093 32.4401 46.8119 32.3841 47.2147C32.3399 47.5304 32.2946 47.8459 32.2491 48.1615C32.2278 48.3097 32.2068 48.458 32.1861 48.6063C31.7375 51.807 31.7375 51.807 30.6044 52.6854C29.29 53.5328 27.6189 53.6455 26.0558 53.8433C25.8232 53.8735 25.5907 53.9038 25.3581 53.9342C24.873 53.9973 24.3878 54.0598 23.9024 54.1217C23.2828 54.2007 22.6633 54.2809 22.0438 54.3615C21.4493 54.4388 20.8547 54.5157 20.26 54.5925C20.1479 54.607 20.0358 54.6215 19.9204 54.6364C19.6006 54.6776 19.2808 54.7185 18.9609 54.7593C18.8682 54.7713 18.7754 54.7833 18.6799 54.7957C17.6702 54.9237 16.6765 55.0067 15.656 54.9996Z" fill="#5894A9" fill-opacity="0.7"/>
<path d="M58.8323 54.9715C58.4628 54.7658 58.3122 54.5958 58.1682 54.2282C58.1326 54.1394 58.097 54.0506 58.0604 53.959C58.0233 53.8623 57.9862 53.7655 57.948 53.6657C57.9078 53.5642 57.8676 53.4627 57.8262 53.358C57.6945 53.0242 57.565 52.6898 57.4357 52.3552C57.3451 52.1233 57.2544 51.8913 57.1636 51.6594C56.9792 51.1874 56.7959 50.7151 56.6134 50.2425C56.4103 49.7165 56.2047 49.1912 55.998 48.6663C55.354 47.028 54.7343 45.4146 54.3621 43.7054C53.9457 41.8683 53.2491 40.0859 52.6126 38.3037C52.5167 38.0352 52.4212 37.7667 52.3258 37.498C51.6733 35.6653 50.9789 33.86 50.1607 32.0813C49.9412 31.6025 49.728 31.1213 49.5146 30.6402C49.4768 30.5559 49.4391 30.4717 49.4001 30.3849C49.3656 30.3074 49.3311 30.2299 49.2955 30.15C49.2655 30.0828 49.2354 30.0157 49.2045 29.9465C48.994 29.4235 48.9305 28.9204 49.0875 28.3737C49.5479 27.6045 51.0908 27.3099 51.9622 27.0631C52.07 27.0324 52.1778 27.0016 52.2889 26.97C53.4552 26.6413 54.6323 26.3526 55.8134 26.0713C55.9787 26.0315 55.9787 26.0315 56.1474 25.991C57.5387 25.6568 58.9311 25.34 60.3367 25.0587C61.1497 24.8937 61.9481 24.6962 62.747 24.4823C62.8603 24.452 62.9737 24.4217 63.0904 24.3904C63.4836 24.2846 63.8766 24.1785 64.2688 24.0698C64.997 23.8691 65.6758 23.7231 66.4333 23.6803C68.0367 23.5828 69.5344 23.1715 71.0701 22.7658C71.4744 22.6607 71.8789 22.5561 72.2834 22.4517C72.5326 22.3872 72.7816 22.3222 73.0304 22.2567C74.2651 21.9337 75.4703 21.664 76.7552 21.5917C77.5209 21.5402 78.2382 21.4561 78.9771 21.2662C79.788 21.0647 80.8341 20.8333 81.6344 21.1728C81.9801 21.4994 82.0107 21.8726 82.0974 22.3084C82.1175 22.4017 82.1375 22.495 82.1582 22.5911C82.2234 22.8958 82.286 23.2009 82.3487 23.506C82.3933 23.716 82.4382 23.926 82.4833 24.1359C82.6144 24.7488 82.7428 25.3621 82.8706 25.9755C83.388 28.4641 83.388 28.4641 84.2249 30.8763C84.8953 32.4773 85.469 34.0903 86.0024 35.7323C86.4988 37.2588 87.0029 38.7817 87.5471 40.2948C87.5763 40.3761 87.6054 40.4573 87.6355 40.541C87.994 41.5364 88.3689 42.5259 88.7559 43.5125C88.7951 43.6129 88.8344 43.7132 88.8748 43.8166C89.0656 44.3039 89.2579 44.7907 89.4533 45.2766C89.5228 45.4527 89.5923 45.6288 89.6618 45.805C89.6942 45.8838 89.7266 45.9626 89.7599 46.0439C89.9598 46.5558 90.0407 46.9745 89.9805 47.5183C89.7605 47.8375 89.4718 47.8917 89.0795 47.9785C88.9601 48.0051 88.8407 48.0316 88.7178 48.059C88.5851 48.0869 88.4525 48.1149 88.3159 48.1436C88.1763 48.1738 88.0367 48.2039 87.8929 48.2349C86.2451 48.5838 84.579 48.8574 82.9144 49.1318C81.594 49.3467 81.594 49.3467 80.3049 49.6771C79.3877 49.9521 78.4391 49.9974 77.4817 50.0708C76.0829 50.1789 74.7493 50.3542 73.3907 50.6833C73.2091 50.7269 73.2091 50.7269 73.0238 50.7713C71.9665 51.0257 70.9114 51.2871 69.8569 51.5512C69.7757 51.5715 69.6945 51.5918 69.6108 51.6127C67.6178 52.1116 65.6266 52.6132 63.6639 53.2039C63.5475 53.2384 63.5475 53.2384 63.4288 53.2737C62.1927 53.6432 60.9864 54.0974 59.9044 54.7609C59.5351 54.9772 59.2788 55.0449 58.8323 54.9715Z" fill="#5894A9" fill-opacity="0.7"/>
</g>
<defs>
<clipPath id="clip0_5831_21493">
<rect width="92" height="55" fill="white"/>
</clipPath>
</defs>
</svg>
