<svg width="207" height="335" viewBox="0 0 207 335" fill="none" xmlns="http://www.w3.org/2000/svg">
<g opacity="0.7">
<path d="M71.1865 208.497C71.2596 209.376 71.2421 210.078 70.7707 210.818C68.1497 213.529 64.1123 214.224 60.6898 214.997C60.457 215.051 60.2243 215.104 59.9845 215.16C55.878 216.094 51.7933 216.595 47.6081 216.871C47.3928 216.885 47.1774 216.899 46.9555 216.913C46.3802 216.95 45.8047 216.982 45.2292 217.013C44.1384 217.09 43.0717 217.266 41.9912 217.444C39.2239 217.853 36.4703 217.854 33.6813 217.868C33.1154 217.873 32.5494 217.878 31.9835 217.884C30.5038 217.898 29.024 217.908 27.5443 217.918C25.1792 217.935 22.814 217.955 20.4489 217.977C19.6324 217.984 18.8159 217.989 17.9993 217.994C15.462 218.013 12.9395 218.081 10.4075 218.261C8.62243 218.386 6.84605 218.41 5.05791 218.401C4.58242 218.4 4.58242 218.4 4.09733 218.399C3.10654 218.398 2.11578 218.394 1.12501 218.39C0.444191 218.388 -0.236626 218.387 -0.91745 218.386C-2.56725 218.382 -4.21705 218.377 -5.86684 218.37C-6.50852 220.048 -6.52547 221.546 -6.50835 223.331C-6.5059 223.796 -6.5059 223.796 -6.50339 224.27C-6.4598 228.215 -6.19548 232.146 -5.94276 236.08C-5.8187 238.026 -5.70144 239.973 -5.58408 241.919C-5.5646 242.241 -5.5646 242.241 -5.54472 242.569C-5.30524 246.54 -5.13428 250.512 -4.99062 254.488C-4.71975 261.787 -4.16043 268.977 -3.10625 276.2C-1.97691 284.184 -1.97691 284.184 -2.71962 287.232C-16.5365 287.292 -16.5365 287.292 -21.3884 287.115C-21.6844 287.106 -21.9805 287.096 -22.2855 287.086C-23.6427 287.027 -24.9307 286.89 -26.2637 286.608C-29.3617 286.083 -32.5042 286.218 -35.6313 286.229C-36.3301 286.23 -37.0288 286.23 -37.7275 286.23C-39.1887 286.23 -40.6499 286.233 -42.111 286.237C-43.967 286.242 -45.823 286.244 -47.6791 286.243C-49.122 286.243 -50.5649 286.245 -52.0078 286.247C-52.6912 286.248 -53.3746 286.249 -54.058 286.249C-57.5491 286.252 -61.0293 286.283 -64.5149 286.512C-66.1453 286.615 -67.7524 286.59 -69.3835 286.514C-74.0868 286.395 -78.7932 287.569 -83.403 288.472C-84.4079 286.394 -84.5805 284.253 -84.8357 281.945C-84.8849 281.519 -84.9343 281.093 -84.984 280.667C-85.0872 279.776 -85.1885 278.884 -85.2882 277.993C-85.4149 276.86 -85.5448 275.728 -85.6758 274.596C-85.8022 273.505 -85.927 272.413 -86.0517 271.321C-86.0976 270.92 -86.1435 270.518 -86.1908 270.105C-86.5991 266.462 -86.8809 262.914 -86.8039 259.243C-86.6808 250.664 -86.8344 242.209 -87.6052 233.666C-87.6243 233.455 -87.6433 233.243 -87.663 233.025C-88.2121 226.97 -88.8298 220.919 -89.5618 214.886C-90.0075 211.171 -90.2345 207.767 -89.4113 204.102C-85.7295 203.641 -82.0626 203.326 -78.3602 203.152C-77.9724 203.133 -77.9724 203.133 -77.5768 203.114C-71.2032 202.805 -64.8269 202.658 -58.4479 202.563C-57.6964 202.552 -56.9449 202.538 -56.1935 202.524C-51.3599 202.436 -46.6108 202.553 -41.7979 203.062C-38.1866 203.444 -34.5963 203.599 -30.9692 203.67C-27.3108 203.742 -23.6647 203.899 -20.0115 204.121C-16.9539 204.304 -13.9012 204.474 -10.838 204.49C-10.4493 204.494 -10.4493 204.494 -10.0528 204.498C-8.81479 204.492 -7.85169 204.42 -6.72517 203.792C-6.28379 201.46 -6.68117 199.451 -7.11858 197.142C-7.82349 193.31 -8.21127 189.77 -8.20937 185.859C-8.20956 185.458 -8.20974 185.057 -8.20993 184.644C-8.19881 182.442 -8.11889 180.289 -7.86961 178.105C-7.59759 175.577 -7.46598 173.049 -7.41921 170.506C-7.4097 170.074 -7.39616 169.642 -7.37814 169.209C-7.25597 166.149 -7.7114 164.317 -9.30814 161.877C-10.8399 159.459 -11.0998 156.888 -11.094 154.032C-11.0934 153.731 -11.0929 153.43 -11.0924 153.119C-11.0425 148.387 -10.6674 143.664 -10.3306 138.948C-10.2303 137.544 -10.1355 136.139 -10.0421 134.734C-9.96869 133.64 -9.89207 132.546 -9.81452 131.452C-9.77823 130.934 -9.74298 130.416 -9.70885 129.897C-9.6609 129.175 -9.60859 128.454 -9.5552 127.733C-9.53575 127.419 -9.53575 127.419 -9.51591 127.099C-9.32683 124.688 -8.73781 122.866 -7.01128 121.282C-6.16354 120.823 -5.39822 120.931 -4.45416 120.933C-4.09752 120.933 -3.74088 120.932 -3.37343 120.931C-2.4875 120.947 -1.62009 121.026 -0.739136 121.127C1.13259 121.315 2.99297 121.328 4.87162 121.328C5.24619 121.329 5.62076 121.33 6.00668 121.331C7.02675 121.333 8.04681 121.334 9.06689 121.334C9.70904 121.335 10.3512 121.335 10.9933 121.336C13.2479 121.339 15.5025 121.34 17.7571 121.34C19.8342 121.34 21.9113 121.343 23.9884 121.348C25.789 121.352 27.5897 121.354 29.3904 121.353C30.4579 121.353 31.5253 121.354 32.5928 121.358C39.7942 121.379 46.9741 121.151 54.1092 120.003C61.1168 118.892 61.1168 118.892 63.3721 120.042C63.7592 120.767 63.7592 120.767 63.9968 121.676C64.086 122.012 64.1752 122.348 64.2671 122.694C64.6785 124.459 65.0583 126.225 65.3927 128.01C65.4662 128.398 65.5396 128.787 65.6153 129.188C66.8117 135.722 67.3845 142.34 67.4581 148.998C67.4633 149.376 67.4686 149.755 67.474 150.145C67.4906 151.342 67.5058 152.539 67.5207 153.736C67.5912 160.064 67.5912 160.064 67.7967 166.388C67.8073 166.631 67.8178 166.874 67.8286 167.125C67.9105 168.777 68.1256 170.378 68.398 172.006C68.5877 173.179 68.6712 174.062 68.5221 175.255C68.1275 175.779 68.1275 175.779 67.6458 176.302C66.9699 177.064 66.9699 177.064 66.7469 178.066C67.0033 180.373 67.5781 182.534 68.2002 184.754C69.6597 190.121 70.5004 195.233 70.6679 200.826C70.7451 203.396 70.8481 205.95 71.1865 208.497Z" fill="#5894A9"/>
<path d="M196.44 237.227C196.438 237.662 196.438 237.662 196.436 238.105C196.418 241.712 196.365 245.319 196.307 248.926C196.289 250.11 196.272 251.295 196.255 252.479C196.062 265.216 196.062 265.216 194.697 267.069C193.685 267.82 192.821 268.17 191.62 268.413C191.128 268.514 191.128 268.514 190.627 268.618C190.095 268.722 190.095 268.722 189.552 268.829C189.175 268.905 188.798 268.981 188.421 269.058C187.409 269.262 186.397 269.462 185.384 269.66C184.755 269.784 184.126 269.908 183.497 270.033C177.917 271.14 172.33 272.162 166.712 273.021C166.424 273.065 166.136 273.109 165.84 273.155C162.021 273.734 158.257 274.206 154.397 274.255C149.604 274.316 145.08 274.755 140.369 275.736C138.983 276.013 137.735 276.233 136.331 276.065C135.647 275.46 135.334 274.716 134.9 273.894C132.707 274.07 130.728 274.657 128.624 275.328C122.525 277.207 116.316 278.513 110.071 279.682C109.522 279.784 108.974 279.889 108.425 279.994C108.093 280.054 107.762 280.113 107.42 280.175C106.987 280.254 106.987 280.254 106.545 280.335C105.416 280.434 104.386 280.43 103.477 279.647C101.648 277.14 101.414 274.834 101.322 271.67C101.305 271.17 101.287 270.669 101.269 270.169C101.26 269.907 101.25 269.645 101.241 269.376C101.073 264.87 100.758 260.44 100.138 255.98C99.4917 251.304 99.0814 246.669 98.8501 241.944C98.8247 241.463 98.799 240.981 98.7731 240.499C98.2075 229.91 97.7912 219.369 99.2066 208.835C99.2547 208.477 99.2547 208.477 99.3037 208.111C99.4353 207.132 99.567 206.153 99.7018 205.174C100.134 202.015 100.448 198.953 100.228 195.75C100.162 194.494 100.211 193.965 100.924 192.944C102.255 191.88 103.303 191.978 104.937 192.042C105.14 192.05 105.344 192.057 105.554 192.065C105.99 192.08 106.426 192.097 106.862 192.114C108.003 192.158 109.145 192.194 110.287 192.231C110.512 192.239 110.737 192.246 110.969 192.254C115.065 192.387 118.96 192.402 123.017 191.726C129.023 190.778 134.971 191.616 140.944 192.47C142.064 192.626 143.184 192.781 144.304 192.935C144.993 193.03 145.682 193.126 146.371 193.225C146.681 193.268 146.991 193.311 147.31 193.356C147.581 193.395 147.851 193.433 148.129 193.473C148.975 193.561 149.787 193.602 150.636 193.556C151.188 193.069 151.188 193.069 151.602 192.392C152.803 190.76 154.193 189.937 156.072 189.523C160.885 189.129 165.705 189.982 170.468 190.648C171.631 190.81 172.793 190.966 173.956 191.121C174.868 191.243 175.78 191.367 176.691 191.493C177.119 191.552 177.547 191.61 177.976 191.667C187.219 192.903 187.219 192.903 189.756 196.026C192.204 199.649 192.529 204.255 193.1 208.563C193.187 209.204 193.275 209.845 193.363 210.486C193.545 211.823 193.726 213.161 193.904 214.498C194.133 216.206 194.364 217.914 194.597 219.621C194.82 221.26 195.042 222.899 195.264 224.538C195.306 224.847 195.348 225.156 195.391 225.474C195.51 226.355 195.628 227.237 195.746 228.118C195.78 228.374 195.815 228.63 195.851 228.893C196.22 231.676 196.46 234.415 196.44 237.227Z" fill="#5894A9"/>
<path d="M194.125 125.625C193.549 126.641 193.072 127.054 192.042 127.45C191.793 127.548 191.544 127.646 191.288 127.747C191.017 127.849 190.746 127.951 190.466 128.056C190.182 128.166 189.897 128.277 189.604 128.39C188.668 128.752 187.731 129.108 186.794 129.464C186.144 129.713 185.494 129.962 184.844 130.211C183.521 130.718 182.197 131.222 180.873 131.724C179.399 132.282 177.927 132.847 176.456 133.415C171.865 135.185 167.344 136.888 162.554 137.911C157.406 139.056 152.411 140.971 147.417 142.72C146.665 142.984 145.912 143.246 145.159 143.508C140.023 145.302 134.964 147.21 129.98 149.459C128.638 150.062 127.29 150.648 125.941 151.235C125.705 151.339 125.469 151.442 125.226 151.549C125.009 151.644 124.792 151.739 124.568 151.837C124.38 151.919 124.191 152.002 123.997 152.087C122.532 152.666 121.122 152.84 119.59 152.409C117.434 151.143 116.609 146.903 115.917 144.508C115.831 144.211 115.745 143.915 115.656 143.61C114.735 140.404 113.926 137.169 113.138 133.922C113.027 133.468 113.027 133.468 112.913 133.005C111.976 129.181 111.089 125.354 110.3 121.49C109.838 119.256 109.285 117.061 108.685 114.865C108.6 114.554 108.515 114.242 108.428 113.922C108.131 112.841 107.834 111.761 107.529 110.683C106.967 108.681 106.558 106.816 106.438 104.734C106.165 100.327 105.012 96.2104 103.875 91.9893C103.58 90.8781 103.287 89.7664 102.995 88.6545C102.814 87.9697 102.632 87.2854 102.448 86.6016C101.543 83.2079 100.787 79.8953 100.585 76.3637C100.44 74.2593 100.205 72.2878 99.6727 70.257C99.108 68.0282 98.4595 65.1528 99.4108 62.9532C100.326 62.0031 101.372 61.919 102.593 61.6808C102.854 61.6257 103.116 61.5705 103.385 61.5137C104.239 61.3346 105.094 61.1625 105.949 60.9902C106.538 60.8674 107.126 60.7441 107.714 60.6203C109.432 60.2598 111.15 59.9068 112.87 59.5556C119.843 58.1335 119.843 58.1335 126.603 55.8334C131.09 53.9909 135.61 52.414 140.211 50.9479C144.489 49.5835 148.756 48.198 152.997 46.7023C153.224 46.6221 153.452 46.542 153.687 46.4594C156.476 45.4741 159.249 44.4436 162.014 43.3799C162.295 43.2721 162.576 43.1642 162.866 43.0531C164.231 42.5288 165.596 42.0002 166.957 41.4631C167.451 41.272 167.944 41.0809 168.438 40.8899C168.659 40.801 168.88 40.712 169.107 40.6204C170.542 40.0709 171.715 39.8486 173.239 40.0139C174.134 40.6187 174.285 41.4123 174.529 42.4906C174.603 42.8186 174.678 43.1467 174.754 43.4847C174.832 43.8492 174.911 44.2136 174.991 44.5891C175.076 44.9728 175.16 45.3565 175.247 45.7517C176.225 50.2808 176.992 54.8602 177.761 59.4353C178.363 63.0643 178.363 63.0643 179.289 66.6075C180.059 69.1285 180.186 71.7355 180.392 74.3669C180.695 78.2115 181.186 81.8771 182.108 85.6111C182.231 86.1103 182.231 86.1103 182.355 86.6195C183.068 89.5257 183.8 92.4257 184.54 95.3238C184.597 95.547 184.654 95.7703 184.713 96.0002C186.111 101.478 187.517 106.951 189.172 112.345C189.269 112.665 189.269 112.665 189.367 112.992C190.403 116.389 191.676 119.704 193.535 122.678C194.141 123.693 194.331 124.398 194.125 125.625Z" fill="#5894A9"/>
</g>
</svg>
