<svg width="63" height="110" viewBox="0 0 63 110" fill="none" xmlns="http://www.w3.org/2000/svg">
<path d="M86.1475 -3.91198C86.3365 -3.90788 86.5255 -3.90404 86.7145 -3.9005C86.9738 -3.89541 87.233 -3.88872 87.4922 -3.88196C87.639 -3.87842 87.7858 -3.87489 87.9371 -3.87124C88.4267 -3.83044 88.8443 -3.73319 89.3129 -3.61011C89.4453 -2.92097 89.5774 -2.23179 89.7092 -1.54259C89.7541 -1.30841 89.799 -1.07424 89.844 -0.840077C89.9088 -0.502406 89.9734 -0.164704 90.038 0.173005C90.0579 0.27674 90.0779 0.380474 90.0985 0.487352C90.7679 3.99699 90.1949 7.43927 89.7124 10.9424C89.5708 11.9735 89.4331 13.0049 89.2952 14.0363C89.2475 14.3913 89.1987 14.7461 89.1497 15.101C88.9713 16.4084 88.8389 17.7104 88.773 19.0252C91.2251 19.4037 93.6899 19.711 96.1577 20.0079C96.3805 20.0348 96.6032 20.0616 96.826 20.0885C97.7425 20.1989 98.659 20.3091 99.5757 20.4181C100.145 20.4859 100.714 20.5544 101.284 20.6234C101.498 20.6493 101.713 20.6749 101.928 20.7002C102.225 20.7352 102.522 20.7713 102.819 20.8075C102.988 20.8277 103.156 20.8478 103.33 20.8686C103.708 20.9315 103.977 20.9889 104.296 21.1649C104.463 21.4478 104.463 21.4478 104.607 21.8304C104.634 21.903 104.662 21.9755 104.69 22.0502C105.163 23.3345 105.543 24.6427 105.942 25.9439C106.027 26.2216 106.113 26.4992 106.199 26.7769C106.599 28.0745 106.599 28.0745 106.769 28.6341C106.825 28.8181 106.883 29.0017 106.945 29.1845C107.639 31.2945 106.915 33.6629 106.505 35.7757C106.375 36.449 106.247 37.1226 106.122 37.7966C106.078 38.0281 106.033 38.2593 105.987 38.4905C105.815 39.4053 105.744 40.2844 105.781 41.2101C107.815 41.2645 109.816 41.0945 111.839 40.9286C112.338 40.888 112.836 40.8477 113.335 40.8081C113.643 40.7836 113.951 40.7586 114.259 40.7329C117.062 40.509 117.062 40.509 117.93 41.0975C118.367 41.6894 118.353 42.1294 118.2 42.7867C118.046 43.3157 117.871 43.8393 117.694 44.3633C117.645 44.5105 117.596 44.6577 117.547 44.8049C117.318 45.4914 117.08 46.174 116.81 46.8501C116.062 48.7248 116.363 50.5202 116.793 52.4231C116.999 53.3407 117.174 54.2389 117.188 55.1742C117.191 55.291 117.191 55.291 117.195 55.4102C117.177 56.7513 116.505 58.1072 115.99 59.3613C115.383 60.8384 114.815 62.3241 114.269 63.8173C114.236 63.9054 114.204 63.9935 114.171 64.0843C114.079 64.3348 113.987 64.5854 113.896 64.8361C113.869 64.91 113.842 64.984 113.814 65.0602C113.677 65.4411 113.56 65.8187 113.476 66.2103C114.607 66.1416 115.674 65.9034 116.766 65.6613C116.949 65.6212 117.133 65.5812 117.316 65.5412C117.497 65.5018 117.677 65.4623 117.857 65.4229C117.945 65.4036 118.033 65.3844 118.124 65.3646C118.516 65.2783 118.906 65.189 119.295 65.0924C119.42 65.0615 119.545 65.0306 119.673 64.9988C119.83 64.9581 119.83 64.9581 119.991 64.9165C120.338 64.8624 120.638 64.8532 120.99 64.8553C121.1 64.8559 121.209 64.8564 121.322 64.8569C121.405 64.8576 121.489 64.8582 121.575 64.8589C121.579 67.3575 121.582 69.8562 121.583 72.3548C121.583 72.498 121.583 72.498 121.583 72.6442C121.588 80.1892 121.548 87.7338 121.49 95.2787C121.488 95.5886 121.485 95.8985 121.483 96.2084C121.476 97.0731 121.47 97.9378 121.462 98.8025C121.454 99.7962 121.447 100.79 121.441 101.784C121.44 101.943 121.439 102.103 121.438 102.263C121.435 102.739 121.433 103.214 121.431 103.69C121.431 103.902 121.429 104.114 121.428 104.327C121.425 106.005 121.501 107.715 121.853 109.37C121.969 109.921 122.013 110.444 121.997 111.002C121.995 111.082 121.994 111.162 121.993 111.244C121.99 111.436 121.985 111.627 121.98 111.819C121.413 112.08 120.95 112.21 120.307 112.267C120.137 112.283 119.968 112.299 119.793 112.315C119.608 112.331 119.423 112.347 119.237 112.362C119.041 112.379 118.845 112.396 118.649 112.414C118.234 112.45 117.82 112.485 117.405 112.519C116.994 112.553 116.583 112.589 116.172 112.627C109.093 113.276 101.926 112.89 94.8221 112.751C93.3366 112.722 91.851 112.693 90.3654 112.664C90.1675 112.661 90.1675 112.661 89.9657 112.657C87.4204 112.608 84.8751 112.56 82.3297 112.513C81.8098 112.503 81.2898 112.493 80.7698 112.484C72.0746 112.319 63.3909 112.338 54.6983 112.573C53.9123 112.595 53.1263 112.615 52.3402 112.635C45.633 112.808 38.9266 112.999 32.2202 113.191C31.614 113.208 31.0079 113.225 30.4017 113.243C29.1863 113.277 27.9708 113.312 26.7553 113.347C26.6548 113.35 26.5543 113.353 26.4508 113.356C23.9309 113.428 21.4109 113.501 18.8911 113.575C17.3534 113.62 15.8156 113.665 14.2779 113.709C13.3807 113.735 12.4836 113.761 11.5865 113.788C5.28018 113.976 5.28019 113.976 2.91268 113.99C2.64626 113.992 2.37985 113.995 2.11344 113.998C1.8824 113.998 1.88239 113.998 1.64668 113.999C1.51651 113.999 1.38633 114 1.25221 114C0.824726 113.95 0.569791 113.831 0.22196 113.621C-0.25705 112.821 0.164694 111.563 0.3232 110.72C0.347169 110.587 0.371139 110.454 0.395834 110.317C0.471833 109.896 0.549213 109.474 0.626919 109.053C0.729306 108.497 0.830341 107.94 0.930638 107.384C0.96607 107.196 0.96607 107.196 1.00222 107.003C1.23987 105.813 1.23987 105.813 1.09968 104.624C0.525943 102.612 1.17356 100.098 1.37734 98.0484C1.42647 97.5518 1.47431 97.0552 1.52234 96.5586C1.60301 95.7264 1.68459 94.8943 1.76679 94.0622C1.8614 93.1044 1.95476 92.1465 2.04741 91.1885C2.14681 90.161 2.2471 89.1335 2.34765 88.106C2.37628 87.8129 2.40474 87.5198 2.43317 87.2267C2.47805 86.7645 2.52353 86.3023 2.56945 85.8402C2.58608 85.6719 2.60252 85.5037 2.61874 85.3355C2.98654 81.5274 2.98654 81.5274 4.73873 80.0327C7.61365 77.4424 9.48553 74.5716 9.66233 71.0349C9.67517 70.7793 9.69006 70.5237 9.70539 70.2681C9.74316 69.6324 9.77783 68.9965 9.81219 68.3606C9.99512 64.9854 10.3531 61.6982 11.2318 58.3907C11.4452 57.5833 11.6489 56.7752 11.8308 55.9625C11.8521 55.8682 11.8733 55.7739 11.8952 55.6768C12.4538 53.0644 12.2956 50.3698 12.2947 47.7271C12.2945 47.0383 12.2963 46.3495 12.3012 45.6607C12.3027 45.3413 12.3011 45.0219 12.2994 44.7025C12.3006 44.5065 12.3019 44.3104 12.3035 44.1143C12.3015 43.9834 12.3015 43.9834 12.2995 43.8498C12.3106 43.1374 12.5397 42.5265 13.1615 42.0188C13.7841 41.7216 14.3586 41.5537 15.0741 41.4806C15.182 41.468 15.2899 41.4554 15.4011 41.4424C17.0086 41.2612 18.624 41.1264 20.2373 40.9861C20.824 40.935 21.4107 40.8829 21.9973 40.8305C22.1934 40.8131 22.3894 40.7956 22.5855 40.7781C22.6818 40.7695 22.7781 40.7609 22.8774 40.7521C23.9709 40.6546 25.0644 40.5576 26.1581 40.4616C26.7037 40.4136 27.2492 40.3643 27.7946 40.3135C28.0596 40.2891 28.3249 40.2664 28.5902 40.2437C30.9335 40.0222 32.8278 39.299 34.3751 37.7925C35.386 36.6675 35.8109 35.4112 35.9522 34.0275C35.9755 33.8248 35.9755 33.8248 35.9993 33.618C36.1628 32.129 36.2594 30.6363 36.3511 29.1433C36.4037 28.289 36.4606 27.4349 36.518 26.5809C36.5239 26.4933 36.5297 26.4056 36.5358 26.3153C36.6686 24.3438 36.8337 22.3743 37.0085 20.4051C37.031 20.1522 37.0532 19.8994 37.0754 19.6465C37.1168 19.1766 37.159 18.7068 37.2014 18.2369C37.2137 18.0979 37.2261 17.9589 37.2388 17.8157C37.2565 17.6236 37.2565 17.6236 37.2745 17.4275C37.2846 17.3167 37.2946 17.206 37.305 17.0919C37.3451 16.757 37.4077 16.4286 37.4782 16.0973C38.4773 15.903 39.4498 15.8226 40.4732 15.7841C40.7082 15.7742 40.7082 15.7742 40.9479 15.7642C41.2829 15.7503 41.6178 15.7367 41.9528 15.7236C42.4776 15.7029 43.0023 15.6812 43.527 15.6591C45.1482 15.5917 46.7696 15.5292 48.3915 15.4744C48.7759 15.4609 49.1603 15.4473 49.5447 15.4338C49.8968 15.4219 50.2489 15.4117 50.6011 15.4016C52.5748 15.3563 52.5748 15.3563 54.2165 14.5207C54.6564 13.951 54.8758 13.4515 55.0333 12.7906C55.0569 12.6969 55.0806 12.6032 55.105 12.5067C55.1845 12.1906 55.2615 11.8741 55.3386 11.5575C55.3955 11.3291 55.4525 11.1008 55.5096 10.8724C55.7114 10.0619 55.9092 9.2508 56.1063 8.43954C56.1355 8.31944 56.1355 8.31944 56.1653 8.19691C56.2921 7.67476 56.4189 7.15259 56.5455 6.63039C56.5896 6.44858 56.6337 6.26678 56.6778 6.08497C56.8975 5.17947 57.1169 4.27394 57.3342 3.36803C57.8761 1.10922 58.4532 -1.14057 59.076 -3.38488C61.4919 -3.57095 63.9032 -3.66809 66.328 -3.72328C66.6149 -3.72987 66.9018 -3.73673 67.1887 -3.74366C79.8555 -4.04919 79.8555 -4.04919 86.1475 -3.91198Z" fill="#FFBB4E" fill-opacity="0.7"/>
</svg>
