<svg width="425" height="558" viewBox="0 0 425 558" fill="none" xmlns="http://www.w3.org/2000/svg">
<g opacity="0.7">
<path d="M343.2 26.8667C343.682 27.0111 344.164 27.1556 344.661 27.3044C361.398 32.3913 377.159 39.9596 391.05 50.1167C391.364 50.3429 391.678 50.5691 392.001 50.8021C392.465 51.1392 392.465 51.1392 392.938 51.483C393.207 51.678 393.476 51.8731 393.754 52.074C401.377 58.0248 405.783 65.256 410.059 73.5281C410.567 74.4979 411.075 75.4677 411.584 76.4374C420.025 92.6494 426.018 108.274 425.9 126.476C425.899 127.369 425.9 128.262 425.901 129.155C425.9 131.008 425.895 132.86 425.885 134.713C425.872 137.063 425.872 139.412 425.876 141.762C425.878 143.6 425.874 145.437 425.868 147.274C425.866 148.14 425.866 149.006 425.867 149.871C425.868 157.08 425.48 164.188 423.356 171.164C423.178 171.772 423.178 171.772 422.997 172.392C422.623 173.658 422.239 174.921 421.85 176.183C421.723 176.596 421.596 177.009 421.466 177.435C420.687 179.951 419.884 182.46 419.064 184.965C418.654 186.223 418.251 187.482 417.848 188.742C414.489 199.126 409.883 208.786 404.731 218.485C398.605 228.192 398.605 228.192 395.45 238.7C396.624 239.549 397.773 240.289 399.025 241.025C399.788 241.489 400.551 241.953 401.313 242.418C401.709 242.657 402.104 242.896 402.512 243.143C411.491 248.616 420.184 254.446 427.9 261.433C428.293 261.776 428.685 262.118 429.09 262.471C441.297 273.389 448.423 289.036 454.85 303.38C454.997 303.707 455.144 304.034 455.296 304.371C462.289 319.983 463.69 333.667 461.001 350.348C460.837 351.407 460.673 352.465 460.511 353.524C460.17 355.728 459.823 357.932 459.472 360.135C459.032 362.892 458.603 365.651 458.177 368.41C455.423 386.269 452.285 404.044 448.284 421.697C448.05 422.737 447.816 423.776 447.582 424.816C447.115 426.888 446.646 428.959 446.174 431.03C445.63 433.421 445.096 435.814 444.565 438.207C444.182 439.926 443.792 441.644 443.4 443.361C443.222 444.147 443.046 444.933 442.873 445.72C441.193 453.345 438.261 458.378 431.963 463.416C430.347 464.73 428.779 466.089 427.212 467.454C426.591 467.994 425.971 468.535 425.35 469.075C424.887 469.478 424.887 469.478 424.414 469.889C422.731 471.351 421.041 472.806 419.349 474.259C417.972 475.442 416.599 476.628 415.233 477.822C412.145 480.513 408.991 483.09 405.709 485.572C404.254 486.697 402.857 487.864 401.465 489.057C399.32 490.89 397.115 492.615 394.838 494.301C393.243 495.488 391.666 496.694 390.091 497.904C386.459 500.692 382.792 503.424 379.064 506.097C376.537 507.91 374.043 509.762 371.546 511.611C370.252 512.569 368.954 513.523 367.653 514.473C367.007 514.946 366.361 515.419 365.715 515.892C365.396 516.125 365.077 516.358 364.749 516.599C362.851 517.997 361.018 519.446 359.209 520.944C350.813 527.855 341.518 530.476 330.831 532.923C329.358 533.262 327.886 533.609 326.415 533.957C299.965 540.104 271.766 537.833 245.474 532.138C240.807 531.159 236.104 530.484 231.378 529.812C213.75 527.299 197.065 523.493 180.95 516.15C180.601 515.996 180.251 515.843 179.892 515.685C172.006 512.205 165.681 506.445 161.356 499.358C161.126 498.986 160.895 498.613 160.658 498.229C157.81 493.567 155.211 488.78 152.593 484.002C151.864 482.682 151.122 481.371 150.371 480.062C145.061 470.801 140.424 461.617 137.417 451.456C136.51 448.409 135.532 445.475 134.206 442.565C132.311 438.396 130.824 434.26 129.662 429.857C129.5 429.241 129.337 428.626 129.17 427.993C126.916 419.216 125.236 410.326 123.511 401.448C123.138 399.534 122.758 397.622 122.377 395.71C122.009 393.851 121.644 391.992 121.28 390.133C121.108 389.253 120.935 388.374 120.76 387.495C120.518 386.275 120.282 385.053 120.046 383.831C119.975 383.478 119.904 383.124 119.831 382.759C118.145 373.866 122.71 365.94 126.174 357.867C126.906 356.159 127.634 354.449 128.36 352.739C130.491 347.741 132.648 342.757 134.969 337.833C135.139 337.472 135.31 337.11 135.485 336.737C140.988 325.229 149.515 316.001 158.619 306.897C160.827 304.678 162.882 302.371 164.903 300C166.172 298.552 167.498 297.171 168.85 295.792C171.069 293.524 173.161 291.189 175.22 288.792C176.745 287.043 178.311 285.329 179.884 283.618C182.08 281.224 184.224 278.803 186.31 276.324C187.974 274.368 189.67 272.438 191.366 270.507C191.869 269.934 191.869 269.934 192.382 269.35C193.039 268.602 193.696 267.854 194.352 267.106C196.309 264.876 198.254 262.638 200.2 260.4C201.601 258.788 203.004 257.177 204.408 255.567C204.943 254.954 205.478 254.341 206.012 253.727C207.969 251.481 209.933 249.24 211.905 247.006C212.498 246.332 213.091 245.658 213.681 244.982C216.694 241.541 219.819 238.337 223.244 235.251C229.162 229.897 233.748 224.441 234.85 216.483C234.655 214.386 234.105 213.503 232.444 212.124C222.672 203.353 216.15 191.622 209.595 180.676C207.714 177.536 205.814 174.405 203.912 171.275C203.729 170.974 203.546 170.672 203.358 170.361C200.472 165.611 197.523 160.901 194.507 156.223C194.154 155.675 194.154 155.675 193.795 155.117C193.259 154.289 192.717 153.465 192.172 152.643C191.879 152.197 191.586 151.75 191.284 151.291C191.017 150.888 190.75 150.486 190.475 150.072C186.329 142.803 189.09 133.641 190.82 126.042C191.047 125.015 191.273 123.988 191.499 122.961C191.971 120.82 192.45 118.68 192.933 116.542C193.545 113.834 194.145 111.123 194.741 108.412C195.208 106.293 195.679 104.175 196.151 102.058C196.374 101.06 196.595 100.063 196.816 99.065C197.972 93.8481 199.241 88.6806 200.78 83.5502C200.909 83.1143 201.039 82.6785 201.172 82.2294C202.927 76.54 205.747 71.3853 208.931 66.2948C211.427 62.3046 213.388 58.1134 215.383 53.8867C215.602 53.4322 215.822 52.9776 216.048 52.5093C216.479 51.6111 216.897 50.7075 217.303 49.7988C220.213 43.6784 225.419 41.1023 231.687 38.3948C232.313 38.1148 232.939 37.8347 233.584 37.5461C241.826 33.9034 249.19 31.5642 258.285 31.0545C259.54 30.9773 260.796 30.9 262.051 30.8224C262.705 30.7831 263.359 30.7438 264.033 30.7033C274.815 30.0493 285.573 29.2738 296.312 28.1584C296.834 28.1043 297.355 28.0503 297.893 27.9946C304.148 27.3396 310.372 26.5659 316.594 25.6719C325.851 24.3618 334.214 24.0928 343.2 26.8667Z" fill="#AEC441"/>
</g>
</svg>
