<svg width="84" height="134" viewBox="0 0 84 134" fill="none" xmlns="http://www.w3.org/2000/svg">
<path opacity="0.7" d="M11.6011 133.991C11.3337 132.017 11.1473 130.041 10.9862 128.061C10.9762 127.938 10.9661 127.814 10.9557 127.687C10.8719 126.655 10.7895 125.624 10.7073 124.592C10.6454 123.816 10.583 123.04 10.5198 122.264C10.4907 121.904 10.4624 121.544 10.4341 121.184C10.4163 120.964 10.3984 120.744 10.3805 120.524C10.3729 120.425 10.3654 120.326 10.3576 120.224C10.3163 119.727 10.2444 119.251 10.0893 118.765C7.73308 118.43 5.34804 118.377 2.95557 118.294C2.72059 118.285 2.48561 118.277 2.24351 118.268C-3.47874 118.063 -9.20565 117.945 -14.9324 117.829C-19.6989 117.733 -24.464 117.626 -29.2196 117.362C-30.9201 117.269 -32.6199 117.213 -34.324 117.17C-34.6198 117.162 -34.9156 117.155 -35.2114 117.147C-35.848 117.131 -36.4847 117.114 -37.1213 117.098C-38.1533 117.072 -39.1853 117.045 -40.2172 117.019C-41.7025 116.98 -43.1878 116.942 -44.6731 116.904C-46.969 116.845 -49.2648 116.786 -51.5606 116.726C-52.335 116.706 -53.1094 116.685 -53.8838 116.665C-54.1729 116.658 -54.173 116.658 -54.468 116.65C-56.6421 116.593 -58.8163 116.537 -60.9904 116.481C-61.2866 116.473 -61.2866 116.473 -61.5887 116.465C-61.7863 116.46 -61.9838 116.455 -62.1874 116.45C-62.5872 116.439 -62.987 116.429 -63.3868 116.419C-63.585 116.413 -63.7832 116.408 -63.9874 116.403C-65.6043 116.361 -67.2212 116.319 -68.8382 116.277C-70.4393 116.236 -72.0404 116.194 -73.6415 116.153C-74.612 116.127 -75.5825 116.102 -76.553 116.077C-81.8343 115.94 -81.8343 115.94 -87.1159 115.809C-87.5163 115.799 -87.9166 115.789 -88.3169 115.78C-89.4875 115.751 -90.6582 115.723 -91.8289 115.696C-92.2261 115.686 -92.6232 115.677 -93.0204 115.667C-93.1915 115.663 -93.3626 115.66 -93.5388 115.656C-94.3922 115.635 -95.2435 115.602 -96.0949 115.555C-96.3447 115.542 -96.3447 115.542 -96.5994 115.528C-97.0931 115.469 -97.4099 115.414 -97.8149 115.199C-97.9974 114.715 -98.0185 114.275 -97.989 113.776C-97.9771 113.559 -97.9771 113.559 -97.9649 113.339C-97.9552 113.183 -97.9454 113.027 -97.9354 112.867C-97.9214 112.621 -97.9214 112.621 -97.9071 112.37C-97.8872 112.023 -97.8669 111.676 -97.8461 111.329C-97.8166 110.836 -97.7885 110.344 -97.761 109.851C-97.7047 108.844 -97.6464 107.838 -97.5879 106.831C-97.5658 106.45 -97.5438 106.068 -97.5218 105.687C-97.4687 104.768 -97.4154 103.849 -97.3621 102.93C-97.3182 102.173 -97.2744 101.417 -97.2305 100.66C-97.054 97.6128 -96.8771 94.5653 -96.6999 91.5177C-96.6815 91.2011 -96.6631 90.8845 -96.6447 90.5679C-96.2977 84.5993 -95.9483 78.6308 -95.5966 72.6624C-95.5714 72.2349 -95.5462 71.8075 -95.5211 71.3801C-94.8061 59.2404 -94.0736 47.1013 -92.6654 24.514C-92.6536 24.3252 -92.6536 24.3252 -92.6415 24.1327C-92.4088 20.4159 -92.1757 16.6991 -91.942 12.9823C-91.9352 12.8736 -91.9283 12.7649 -91.9213 12.653C-91.831 11.2167 -91.7406 9.78038 -91.65 8.34409C-91.6329 8.07174 -91.6157 7.79939 -91.5986 7.52705C-91.5476 6.71749 -91.4965 5.90794 -91.4448 5.09842C-91.4085 4.52966 -91.3735 3.96088 -91.3395 3.39206C-91.3237 3.13435 -91.3078 2.87665 -91.292 2.61894C-91.2855 2.50542 -91.279 2.39189 -91.2723 2.27493C-91.2297 1.59436 -91.1396 0.92749 -91.0119 0.252472C-90.1155 -0.00938416 -89.4539 -0.0343323 -88.4962 0.0295715C-87.1576 0.109344 -85.8392 0.122543 -84.4967 0.10672C-83.8041 0.106369 -83.1201 0.140167 -82.4296 0.178558C-81.0778 0.250366 -79.7261 0.302002 -78.372 0.346237C-78.1246 0.354431 -77.8773 0.36264 -77.6224 0.371094C-76.9529 0.393173 -76.2834 0.41481 -75.6139 0.436264C-75.1944 0.449738 -74.7748 0.463318 -74.3553 0.476929C-69.5331 0.632706 -64.7101 0.750183 -59.8848 0.841949C-59.4925 0.849457 -59.1002 0.857132 -58.7079 0.864883C-58.2318 0.874207 -57.7557 0.883102 -57.2796 0.891449C-56.1027 0.914551 -54.9522 0.969604 -53.784 1.07547C-53.2488 1.10548 -52.7138 1.12607 -52.1777 1.14406C-52.0175 1.14963 -51.8574 1.1552 -51.6924 1.16093C-50.4286 1.20123 -49.1646 1.22566 -47.8999 1.24693C-47.7295 1.24982 -47.559 1.25269 -47.3834 1.25566C-46.5182 1.27005 -45.653 1.28357 -44.7877 1.29596C-44.461 1.30104 -44.1342 1.30614 -43.8074 1.31123C-43.5867 1.31401 -43.5867 1.31401 -43.3615 1.31685C-42.6292 1.32869 -41.908 1.35828 -41.1797 1.41617C-40.2542 1.48499 -39.3323 1.5229 -38.4029 1.54849C-38.1505 1.55594 -38.1505 1.55594 -37.893 1.56354C-37.3343 1.57993 -36.7755 1.59572 -36.2167 1.61151C-35.8135 1.62321 -35.4102 1.63496 -35.0069 1.64673C-33.9123 1.67857 -32.8177 1.7099 -31.7231 1.74113C-30.5656 1.77423 -29.408 1.80777 -28.2505 1.84125C-26.2971 1.89767 -24.3438 1.95378 -22.3904 2.00969C-20.1628 2.07344 -17.9351 2.13762 -15.7075 2.20206C-13.3069 2.27148 -10.9063 2.34059 -8.50569 2.40962C-7.83049 2.42905 -7.1553 2.44853 -6.48009 2.46805C-1.04485 2.62494 4.39069 2.77165 9.82719 2.90414C12.8552 2.97815 15.8817 3.06441 18.9081 3.16885C20.2036 3.21349 21.4993 3.25636 22.7949 3.29909C22.9296 3.30354 23.0643 3.30798 23.2031 3.31258C25.4269 3.38585 27.6511 3.45235 29.8755 3.51555C30.0326 3.52002 30.1897 3.52449 30.3515 3.52908C31.8826 3.57256 33.4137 3.61546 34.9448 3.65758C38.198 3.74721 41.4495 3.85037 44.7009 3.9693C47.2586 4.06238 49.8168 4.13977 52.3759 4.20905C52.9795 4.22543 53.5831 4.24207 54.1867 4.25879C54.5893 4.26993 54.9919 4.28107 55.3944 4.29221C55.594 4.29773 55.7935 4.30325 55.9991 4.30894C57.0283 4.33731 58.0575 4.36497 59.0868 4.39143C60.1067 4.41771 61.1265 4.4458 62.1462 4.4751C62.5291 4.48578 62.9119 4.49579 63.2949 4.5051C63.8243 4.51804 64.3535 4.53329 64.8827 4.5491C65.1145 4.55392 65.1145 4.55392 65.3508 4.55885C66.3292 4.59117 67.0369 4.73653 67.9155 5.05333C67.9621 8.18568 67.8591 11.2995 67.6316 14.4274C67.5498 15.5533 67.4738 16.6795 67.3975 17.8057C67.3797 18.0685 67.3619 18.3312 67.344 18.594C67.1403 21.5877 66.9714 24.5822 66.8097 27.5772C66.7956 27.8368 66.7816 28.0965 66.7675 28.3561C66.69 29.7887 66.6135 31.2213 66.5373 32.654C66.4671 33.9749 66.3958 35.2959 66.3246 36.6168C66.1598 39.6752 65.9972 42.7336 65.8367 45.7921C65.8314 45.8944 65.826 45.9967 65.8205 46.102C65.7586 47.2804 65.6973 48.4588 65.6371 49.6373C65.6216 49.9421 65.6059 50.247 65.59 50.5519C65.4921 52.4397 65.426 54.3269 65.3847 56.2158C65.3368 58.3314 65.2198 60.4337 64.9982 62.5436C64.7657 64.7572 64.5984 66.9693 64.4785 69.1877C64.4704 69.3285 64.4624 69.4693 64.4541 69.6144C64.3085 72.19 64.3081 74.7634 64.325 77.3406C64.589 77.3277 64.589 77.3277 64.8583 77.3145C66.5287 77.2331 68.1992 77.1524 69.8697 77.0723C70.7283 77.0312 71.5868 76.9898 72.4453 76.9478C73.276 76.9071 74.1067 76.8672 74.9375 76.8277C75.2522 76.8126 75.5668 76.7973 75.8815 76.7818C77.8286 76.6857 79.7586 76.6341 81.7106 76.6547C82.0441 77.1833 82.1517 77.6292 82.1973 78.2081C82.2118 78.3831 82.2264 78.5582 82.2414 78.7386C82.2558 78.9317 82.2702 79.1248 82.2846 79.3179C82.3009 79.5221 82.3174 79.7263 82.3341 79.9306C82.3789 80.4853 82.4216 81.0401 82.4641 81.5949C82.509 82.1787 82.5557 82.7624 82.6023 83.3461C82.6803 84.3291 82.7572 85.3121 82.8333 86.2951C82.9397 87.6702 83.0484 89.0451 83.1574 90.42C83.2336 91.3818 83.3092 92.3437 83.3848 93.3056C83.4029 93.5361 83.421 93.7666 83.4391 93.9971C83.4911 94.6579 83.5428 95.3187 83.5939 95.9795C83.6092 96.1775 83.6247 96.3754 83.6403 96.5733C83.8589 99.3528 84.0073 102.127 83.9997 104.912C83.9997 105.196 83.9997 105.48 83.9998 105.764C83.9999 106.524 83.9988 107.284 83.9974 108.044C83.9962 108.842 83.9961 109.641 83.9959 110.44C83.9953 111.946 83.9938 113.453 83.9919 114.96C83.9898 116.678 83.9887 118.395 83.9878 120.113C83.9858 123.642 83.9825 127.17 83.9783 130.699C82.5766 130.865 81.189 131.012 79.7706 131.071C79.531 131.081 79.531 131.081 79.2864 131.092C78.756 131.116 78.2254 131.139 77.6949 131.162C77.3055 131.179 76.9162 131.196 76.5269 131.214C75.6802 131.252 74.8336 131.289 73.9869 131.326C71.8753 131.418 69.7639 131.512 67.6524 131.607C67.0122 131.635 66.3719 131.664 65.7316 131.692C61.4516 131.883 57.1721 132.079 52.8927 132.277C52.7342 132.285 52.5756 132.292 52.4122 132.3C50.9628 132.367 49.5134 132.434 48.064 132.501C45.809 132.606 43.554 132.71 41.2989 132.815C41.0635 132.825 41.0635 132.825 40.8232 132.837C39.427 132.901 38.0308 132.966 36.6345 133.03C35.7453 133.071 34.856 133.112 33.9667 133.153C33.8246 133.16 33.6824 133.166 33.536 133.173C31.4585 133.269 29.3811 133.366 27.3036 133.462C25.8202 133.531 24.3367 133.6 22.8531 133.668C22.0717 133.703 21.2903 133.739 20.509 133.776C17.5378 133.916 14.58 134.035 11.6011 133.991ZM9.14448 104.363C9.22787 104.079 9.22787 104.079 9.20978 103.747C9.20927 103.555 9.20927 103.555 9.20875 103.359C9.20506 103.218 9.20138 103.078 9.19758 102.934C9.19548 102.787 9.19339 102.64 9.19123 102.488C9.15591 100.765 9.0113 99.0455 8.86175 97.3252C8.83242 96.9761 8.80322 96.6269 8.77414 96.2777C8.70576 95.4602 8.6362 94.6427 8.566 93.8253C8.47898 92.8113 8.39372 91.7971 8.30849 90.783C8.22105 89.7433 8.1335 88.7037 8.04475 87.6641C7.92948 86.3132 7.81436 84.9623 7.70908 83.6109C7.7014 83.5139 7.69372 83.4168 7.68581 83.3168C7.62921 82.5758 7.60954 81.8375 7.62087 81.0955C7.62172 80.9824 7.62257 80.8692 7.62345 80.7526C7.6256 80.484 7.62899 80.2154 7.63268 79.9468C7.87704 79.9495 8.12141 79.9523 8.37318 79.9552C9.8491 79.9546 11.32 79.8788 12.7924 79.8126C13.1207 79.7982 13.449 79.7837 13.7773 79.7694C14.6639 79.7304 15.5505 79.6908 16.4371 79.6511C16.9914 79.6263 17.5457 79.6016 18.1 79.5769C20.0347 79.4908 21.9692 79.4042 23.9038 79.3172C25.7063 79.2361 27.5088 79.1563 29.3114 79.0769C30.8611 79.0086 32.4106 78.9395 33.9601 78.8697C34.8848 78.828 35.8094 78.7867 36.7342 78.7464C37.6028 78.7084 38.4712 78.6694 39.3396 78.6295C39.6582 78.6151 39.9769 78.601 40.2956 78.5874C40.7305 78.5687 41.1653 78.5486 41.6001 78.5282C41.8435 78.5173 42.0868 78.5064 42.3375 78.4952C42.9358 78.4411 43.3823 78.365 43.9157 78.1636C44.117 77.8589 44.117 77.8589 44.1815 77.4879C44.2163 77.3488 44.251 77.2098 44.2869 77.0665C44.3203 76.9164 44.3537 76.7664 44.3882 76.6119C44.4652 76.2983 44.543 75.9849 44.6214 75.6715C44.6603 75.5139 44.6991 75.3563 44.7392 75.1939C44.9448 74.416 45.2156 73.6496 45.501 72.8852C46.2429 70.771 45.9382 68.6413 45.6874 66.4958C45.67 66.3435 45.6527 66.1913 45.6348 66.0344C45.2441 62.6387 44.4784 59.3657 43.4383 56.0448C42.6228 53.438 42.0155 50.8206 41.603 48.1641C41.583 48.0368 41.5631 47.9094 41.5425 47.7782C41.4446 47.1514 41.3504 46.5244 41.2629 45.8968C40.9539 43.7776 40.2169 41.9399 38.9079 40.0225C38.8106 39.8777 38.7133 39.733 38.6131 39.5839C37.6517 38.1727 36.5962 36.8029 35.5037 35.4434C35.2509 35.1279 35.0018 34.8111 34.7542 34.4934C32.848 32.0676 30.6745 29.7467 28.3205 27.5388C28.025 27.2584 27.7367 26.9746 27.4491 26.6899C25.3928 24.668 23.0767 23.0047 20.294 21.5134C20.1929 21.4584 20.0918 21.4034 19.9876 21.3467C18.2634 20.4108 16.4524 19.5767 14.6314 18.7444C13.8265 18.3764 13.0253 18.0046 12.2264 17.6299C12.0137 17.5303 11.8011 17.4308 11.5885 17.3312C11.1813 17.1405 10.7745 16.9493 10.3681 16.7578C9.83768 16.5098 9.30364 16.267 8.76653 16.0267C8.64345 15.9689 8.52037 15.9112 8.39356 15.8516C6.40504 15.0092 3.4092 15.1299 1.14998 15.0065C0.840279 14.9892 0.530586 14.9719 0.220894 14.9545C-0.596924 14.9089 -1.41483 14.8641 -2.23278 14.8196C-2.74007 14.7921 -3.24734 14.7643 -3.75462 14.7366C-10.9993 14.3397 -10.9993 14.3397 -18.2568 14.1064C-18.4955 14.1011 -18.7343 14.0958 -18.9803 14.0904C-24.4795 13.9847 -29.9214 14.3656 -35.3471 14.9894C-35.5217 15.0093 -35.6962 15.0292 -35.8761 15.0497C-39.8884 15.5042 -39.8884 15.5042 -43.6738 16.5325C-43.8068 16.5794 -43.9398 16.6263 -44.0768 16.6746C-45.3468 17.1311 -46.556 17.6516 -47.755 18.1986C-48.1266 18.3639 -48.5038 18.5195 -48.8839 18.6742C-50.6611 19.4122 -51.8908 20.2389 -53.1437 21.4094C-53.4788 21.7176 -53.8321 22.0128 -54.1872 22.3089C-55.4555 23.3709 -56.6336 24.4817 -57.7524 25.6284C-57.8686 25.7464 -57.8686 25.7464 -57.9872 25.8668C-60.784 28.7698 -61.9819 32.4584 -62.5166 35.9303C-62.6099 36.5348 -62.7096 37.1387 -62.8104 37.7426C-62.8397 37.918 -62.8397 37.918 -62.8696 38.0971C-63.0211 38.9836 -63.2198 39.859 -63.4689 40.734C-63.9045 42.2819 -64.1057 43.6954 -63.7184 45.2654C-63.3972 46.8351 -63.377 48.4176 -63.3744 50.0014C-63.374 50.1168 -63.3736 50.2323 -63.3732 50.3512C-63.371 53.1439 -63.6243 55.9237 -63.8837 58.7088C-63.9834 59.803 -64.0546 60.8975 -64.1129 61.9932C-64.1463 62.6099 -64.19 63.2245 -64.2539 63.8399C-64.8005 69.2763 -61.0912 75.5701 -58.3193 80.4954C-58.0507 80.9753 -57.7831 81.4554 -57.5162 81.9357C-57.4557 82.0438 -57.3951 82.1519 -57.3327 82.2633C-56.9556 82.9445 -56.6196 83.6314 -56.3003 84.328C-55.4153 86.2459 -54.2375 87.4871 -52.2398 88.8946C-51.5921 89.351 -50.9872 89.7913 -50.4651 90.3286C-49.6089 91.1839 -48.42 91.8223 -47.3123 92.4982C-46.8876 92.761 -46.4796 93.0358 -46.0714 93.312C-41.9837 95.9729 -37.2376 98.1113 -32.5598 100.179C-32.3507 100.272 -32.1416 100.364 -31.9261 100.46C-28.5007 101.955 -25.3558 102.604 -21.4425 103.035C-20.3943 103.151 -19.347 103.27 -18.2996 103.389C-18.0888 103.413 -17.878 103.437 -17.6608 103.461C-15.3506 103.725 -13.0487 104.021 -10.7485 104.327C-7.21911 104.792 -3.80844 104.956 -0.217361 104.947C0.487831 104.946 1.19293 104.947 1.89812 104.949C5.6572 105.108 5.6572 105.108 9.14448 104.363Z" fill="#F46F0B"/>
</svg>
