<svg width="96" height="78" viewBox="0 0 96 78" fill="none" xmlns="http://www.w3.org/2000/svg">
<mask id="mask0_7151_6805" style="mask-type:luminance" maskUnits="userSpaceOnUse" x="19" y="0" width="55" height="74">
<path d="M19.5726 0H73.2327V73.6755H19.5726V0Z" fill="white"/>
</mask>
<g mask="url(#mask0_7151_6805)">
<path fill-rule="evenodd" clip-rule="evenodd" d="M22.5481 0.0253906H61.0422L72.9711 11.9558V70.7144C72.9711 72.2242 71.7355 73.4598 70.2257 73.4598H22.5481C21.0383 73.4598 19.8027 72.2242 19.8027 70.7144V2.77081C19.8027 1.26099 21.0383 0.0253906 22.5481 0.0253906Z" fill="#CCCCCC"/>
</g>
<mask id="mask1_7151_6805" style="mask-type:luminance" maskUnits="userSpaceOnUse" x="60" y="0" width="14" height="13">
<path d="M60.7254 0H73.2327V12.3496H60.7254V0Z" fill="white"/>
</mask>
<g mask="url(#mask1_7151_6805)">
<path fill-rule="evenodd" clip-rule="evenodd" d="M72.9711 11.9558H63.7861C62.2763 11.9558 61.0422 10.7218 61.0422 9.2104V0.0253906L72.9711 11.9558Z" fill="#5893A9"/>
</g>
<path fill-rule="evenodd" clip-rule="evenodd" d="M26.2076 39.7059V48.4481C26.2076 52.7064 27.0964 56.3533 29.057 60.1342L34.3587 70.361V73.4436H5.24658V70.361L10.5483 60.1342C12.5089 56.3533 13.3977 52.7064 13.3977 48.4481V39.7059C13.3977 34.8313 12.0219 30.6438 9.12988 26.718L7.01802 23.8512C5.81868 22.2216 5.24658 20.4848 5.24658 18.4612C5.24658 14.7986 5.24658 11.1359 5.24658 7.47168H11.07V12.7135H16.8918V7.47168H22.7135V12.7135H28.5353V7.47168H34.3587C34.3587 11.1359 34.3587 14.7986 34.3587 18.4612C34.3587 20.4848 33.7866 22.2216 32.5873 23.8512L30.4754 26.718C27.5834 30.6438 26.2076 34.8313 26.2076 39.7059Z" fill="#60B7FE"/>
<path fill-rule="evenodd" clip-rule="evenodd" d="M7.82179 24.9418L7.01802 23.8512C5.81868 22.2216 5.24658 20.4848 5.24658 18.4612C5.24658 14.7986 5.24658 11.1359 5.24658 7.47168H11.07V12.7135H16.8918V7.47168H22.7135V12.7135H28.5353V7.47168H34.3587C34.3587 11.1359 34.3587 14.7986 34.3587 18.4612C34.3587 20.4848 33.7866 22.2216 32.5873 23.8512L31.7835 24.9418H7.82179Z" fill="#5893A9"/>
<mask id="mask2_7151_6805" style="mask-type:luminance" maskUnits="userSpaceOnUse" x="0" y="69" width="40" height="9">
<path d="M0 69.6406H39.7455V77.9998H0V69.6406Z" fill="white"/>
</mask>
<g mask="url(#mask2_7151_6805)">
<path fill-rule="evenodd" clip-rule="evenodd" d="M1.91957 69.7588H37.6856C38.74 69.7588 39.5989 70.6177 39.5989 71.6705V77.9509H0.00628662V71.6705C0.00628662 70.6177 0.865214 69.7588 1.91957 69.7588Z" fill="#5893A9"/>
</g>
<path fill-rule="evenodd" clip-rule="evenodd" d="M10.6964 44.7393H28.9088C30.7812 44.7393 32.313 46.2711 32.313 48.1434C32.313 50.0158 30.7812 51.5476 28.9088 51.5476H10.6964C8.82412 51.5476 7.29224 50.0158 7.29224 48.1434C7.29224 46.2711 8.82412 44.7393 10.6964 44.7393Z" fill="#5893A9"/>
<mask id="mask3_7151_6805" style="mask-type:luminance" maskUnits="userSpaceOnUse" x="39" y="24" width="57" height="27">
<path d="M39.342 24.0498H95.8374V50.6781H39.342V24.0498Z" fill="white"/>
</mask>
<g mask="url(#mask3_7151_6805)">
<path fill-rule="evenodd" clip-rule="evenodd" d="M41.9362 24.292H93.3316C94.72 24.292 95.8563 25.4283 95.8563 26.8168V47.814C95.8563 49.2025 94.72 50.3388 93.3316 50.3388H41.9362C40.5477 50.3388 39.413 49.2025 39.413 47.814V26.8168C39.413 25.4283 40.5477 24.292 41.9362 24.292Z" fill="#FFBB4F"/>
</g>
<path fill-rule="evenodd" clip-rule="evenodd" d="M64.232 43.0498C63.9247 43.8142 63.0563 44.1861 62.2904 43.8804C61.5244 43.5731 61.1525 42.7031 61.4582 41.9372L65.8396 31.0059C66.3407 29.753 68.1153 29.7656 68.6118 31.0059L72.9931 41.9372C73.3004 42.7031 72.9269 43.5731 72.1625 43.8804C71.3966 44.1877 70.5266 43.8142 70.2193 43.0498L67.2265 35.578L64.232 43.0498ZM48.0306 33.0595C47.2048 33.0595 46.5334 32.3897 46.5334 31.5623C46.5334 30.7349 47.2048 30.0635 48.0306 30.0635H56.7917C57.6191 30.0635 58.2889 30.7349 58.2889 31.5623C58.2889 32.3897 57.6191 33.0595 56.7917 33.0595H53.9028V42.4935C53.9028 43.3178 53.2346 43.9844 52.4119 43.9844C51.5877 43.9844 50.9194 43.3162 50.9194 42.4935V33.0595H48.0306ZM76.4966 32.4984C75.9796 31.8554 76.0821 30.9145 76.7235 30.3976C77.3665 29.8807 78.3074 29.9831 78.8243 30.6261L82.041 34.6386L85.2561 30.6261C85.773 29.9831 86.7139 29.8807 87.3569 30.3976C87.9999 30.9145 88.1023 31.8554 87.5854 32.4984L83.9543 37.0279L87.5854 41.5573C88.1023 42.2004 87.9999 43.1397 87.3569 43.6582C86.7139 44.1751 85.773 44.0727 85.2561 43.4297L82.041 39.4155L78.8243 43.4297C78.3074 44.0727 77.3665 44.1751 76.7235 43.6582C76.0821 43.1397 75.9796 42.2004 76.4966 41.5573L80.1261 37.0279L76.4966 32.4984Z" fill="#5893A9"/>
</svg>
