<svg width="85" height="92" viewBox="0 0 85 92" fill="none" xmlns="http://www.w3.org/2000/svg">
<mask id="mask0_7151_6768" style="mask-type:luminance" maskUnits="userSpaceOnUse" x="4" y="29" width="76" height="63">
<path d="M4.24402 29.6729H79.7217V91.8719H4.24402V29.6729Z" fill="white"/>
</mask>
<g mask="url(#mask0_7151_6768)">
<path d="M4.53467 29.9697H79.6456V89.327C79.6456 90.7334 78.6642 91.8726 77.4433 91.8726H6.73693C5.52299 91.8726 4.53467 90.7265 4.53467 89.327V29.9697Z" fill="#5893A9"/>
</g>
<path d="M4.53461 30.3154H79.6455V52.1429H4.53461V30.3154Z" fill="#5893A9"/>
<mask id="mask1_7151_6768" style="mask-type:luminance" maskUnits="userSpaceOnUse" x="0" y="29" width="85" height="19">
<path d="M0 29.6729H84.1733V47.3906H0V29.6729Z" fill="white"/>
</mask>
<g mask="url(#mask1_7151_6768)">
<path d="M2.26316 29.9697H81.9101C83.1517 29.9697 84.1608 30.7933 84.1608 31.8052V45.3704C84.1608 46.3836 83.1517 47.2058 81.9101 47.2058H2.26316C1.02153 47.2058 0.0124512 46.3836 0.0124512 45.3704V31.8052C0.0124512 30.7864 1.02153 29.9697 2.26316 29.9697Z" fill="#5893A9"/>
</g>
<path d="M12.3748 35.7793H71.7916V39.9208H12.3748V35.7793Z" fill="#F46F0D"/>
<path d="M59.9262 19.366C59.9262 19.9529 59.8971 20.537 59.8404 21.1198C59.7836 21.7025 59.6978 22.2825 59.5829 22.8569C59.4694 23.4314 59.3282 23.9989 59.1579 24.5595C58.9877 25.1201 58.7911 25.671 58.5683 26.2122C58.344 26.7535 58.0949 27.2836 57.8194 27.7999C57.544 28.3162 57.2436 28.8187 56.9197 29.3059C56.5944 29.7932 56.247 30.2624 55.8774 30.715C55.5064 31.1691 55.1147 31.6023 54.7008 32.0162C54.2883 32.4301 53.8551 32.8232 53.4038 33.1955C52.9526 33.5665 52.4833 33.9153 51.9975 34.2406C51.5116 34.5673 51.0119 34.8677 50.4956 35.1431C49.9807 35.4199 49.4533 35.6705 48.9135 35.8947C48.3736 36.119 47.8241 36.3155 47.2649 36.4858C46.7057 36.656 46.1395 36.7986 45.5665 36.9121C44.9934 37.027 44.4162 37.1128 43.8348 37.1696C43.2535 37.2277 42.6707 37.2568 42.0866 37.2568C41.5025 37.2568 40.9197 37.2277 40.3383 37.1696C39.757 37.1128 39.1798 37.027 38.6067 36.9121C38.0337 36.7986 37.4675 36.656 36.9083 36.4858C36.3491 36.3155 35.7996 36.119 35.2597 35.8947C34.7199 35.6705 34.1925 35.4199 33.6776 35.1431C33.1613 34.8677 32.6616 34.5673 32.1757 34.2406C31.6899 33.9153 31.2206 33.5665 30.7694 33.1955C30.3181 32.8232 29.8849 32.4301 29.4724 32.0162C29.0585 31.6023 28.6668 31.1691 28.2958 30.715C27.9262 30.2624 27.5774 29.7932 27.2535 29.3059C26.9282 28.8187 26.6292 28.3162 26.3538 27.7999C26.0783 27.2836 25.8278 26.7535 25.6049 26.2122C25.3807 25.671 25.1841 25.1201 25.0152 24.5595C24.845 23.9989 24.7038 23.4314 24.5903 22.8569C24.4754 22.2825 24.3896 21.7025 24.3328 21.1198C24.2761 20.537 24.247 19.9529 24.247 19.366C24.247 18.7805 24.2761 18.1963 24.3328 17.6136C24.3896 17.0294 24.4754 16.4509 24.5903 15.8764C24.7038 15.302 24.845 14.7344 25.0152 14.1738C25.1841 13.6132 25.3807 13.0623 25.6049 12.5211C25.8278 11.9799 26.0783 11.4497 26.3538 10.9334C26.6292 10.4171 26.9282 9.91465 27.2535 9.42741C27.5774 8.94018 27.9262 8.47093 28.2958 8.0183C28.6668 7.56428 29.0585 7.13102 29.4724 6.71715C29.8849 6.30189 30.3181 5.91016 30.7694 5.53781C31.2206 5.16684 31.6899 4.81802 32.1757 4.49274C32.6616 4.16607 33.1613 3.86569 33.6776 3.58885C34.1925 3.3134 34.7199 3.06286 35.2597 2.83862C35.7996 2.61438 36.3491 2.41782 36.9083 2.24756C37.4675 2.07731 38.0337 1.93473 38.6067 1.82123C39.1798 1.70634 39.757 1.62052 40.3383 1.56377C40.9197 1.50563 41.5025 1.47656 42.0866 1.47656C42.6707 1.47656 43.2535 1.50563 43.8348 1.56377C44.4162 1.62052 44.9934 1.70634 45.5665 1.82123C46.1395 1.93473 46.7057 2.07731 47.2649 2.24756C47.8241 2.41782 48.3736 2.61438 48.9135 2.83862C49.4533 3.06286 49.9807 3.3134 50.4956 3.58885C51.0119 3.86569 51.5116 4.16607 51.9975 4.49274C52.4833 4.81802 52.9526 5.16684 53.4038 5.53781C53.8551 5.91016 54.2883 6.30189 54.7008 6.71715C55.1147 7.13102 55.5064 7.56428 55.8774 8.0183C56.247 8.47093 56.5944 8.94018 56.9197 9.42741C57.2436 9.91465 57.544 10.4171 57.8194 10.9334C58.0949 11.4497 58.344 11.9799 58.5683 12.5211C58.7911 13.0623 58.9877 13.6132 59.1579 14.1738C59.3282 14.7344 59.4694 15.302 59.5829 15.8764C59.6978 16.4509 59.7836 17.0294 59.8404 17.6136C59.8971 18.1963 59.9262 18.7805 59.9262 19.366Z" fill="#FFAF07"/>
<mask id="mask2_7151_6768" style="mask-type:luminance" maskUnits="userSpaceOnUse" x="22" y="0" width="40" height="39">
<path d="M22.6705 0H61.6496V38.8864H22.6705V0Z" fill="white"/>
</mask>
<g mask="url(#mask2_7151_6768)">
<path d="M42.0866 38.7175C36.925 38.7175 32.0803 36.7063 28.4329 33.0506C24.7869 29.3935 22.7812 24.5488 22.7812 19.3581C22.7812 14.1687 24.7869 9.32398 28.4329 5.66692C32.0872 2.00294 36.925 0 42.0866 0C47.2483 0 52.093 2.01124 55.7404 5.66692C59.3933 9.3309 61.3921 14.1825 61.3921 19.3581C61.3921 24.5336 59.3795 29.4004 55.7404 33.0506C52.1 36.7063 47.2483 38.7175 42.0866 38.7175ZM42.0866 2.94558C37.7181 2.94558 33.6153 4.64123 30.5092 7.74876C27.403 10.8563 25.7268 14.9632 25.7268 19.3581C25.7268 23.7543 27.4169 27.8529 30.5161 30.9687C33.6153 34.0763 37.7112 35.7719 42.0936 35.7719C46.469 35.7719 50.5649 34.0763 53.671 30.9687C56.7703 27.8598 58.4604 23.7543 58.4604 19.3581C58.4604 14.9632 56.7703 10.8632 53.6641 7.74876C50.558 4.64123 46.4552 2.94558 42.0866 2.94558Z" fill="#FFE14D"/>
</g>
<path d="M40.3965 32.5379L40.3896 29.4719C38.2579 29.3944 36.1331 28.8241 34.9192 28.1209L35.8521 24.3448C37.2128 25.0618 39.1272 25.7304 41.2311 25.7235C43.0541 25.7096 44.3027 24.9704 44.3027 23.6984C44.2958 22.4609 43.2507 21.7079 40.8657 20.9272C37.4163 19.788 35.0742 18.192 35.0313 15.0914C35.0105 12.2566 36.9955 10.0072 40.4311 9.30406L40.4242 6.23805L43.5871 6.20898L43.6078 9.04383C45.7326 9.12134 47.1915 9.56429 48.2781 10.0695L47.3175 13.7404C46.505 13.375 45.0183 12.6234 42.7109 12.658C40.6484 12.6649 39.9618 13.6006 39.9688 14.4934C39.9757 15.5551 41.0913 16.2306 43.839 17.2286C47.6898 18.5505 49.2041 20.3375 49.2457 23.2347C49.2678 26.0958 47.269 28.55 43.5801 29.2047L43.5871 32.5088L40.3965 32.5379Z" fill="#FFE14D"/>
</svg>
