<svg width="175" height="148" viewBox="0 0 175 148" fill="none" xmlns="http://www.w3.org/2000/svg">
<rect width="175" height="148" rx="10" fill="#5994A9" fill-opacity="0.2"/>
<mask id="mask0_7151_6704" style="mask-type:luminance" maskUnits="userSpaceOnUse" x="57" y="65" width="59" height="62">
<path d="M57.6391 65.0078H115.359V126.325H57.6391V65.0078Z" fill="white"/>
</mask>
<g mask="url(#mask0_7151_6704)">
<path fill-rule="evenodd" clip-rule="evenodd" d="M115.069 65.2637V113.651C115.069 120.651 102.278 126.325 86.5003 126.325C70.7217 126.325 57.9304 120.651 57.9304 113.651V65.2637H115.069Z" fill="#FFD064"/>
</g>
<mask id="mask1_7151_6704" style="mask-type:luminance" maskUnits="userSpaceOnUse" x="85" y="65" width="31" height="62">
<path d="M85.1246 65.0078H115.359V126.325H85.1246V65.0078Z" fill="white"/>
</mask>
<g mask="url(#mask1_7151_6704)">
<path fill-rule="evenodd" clip-rule="evenodd" d="M115.069 65.2637V113.651C115.069 120.651 102.278 126.325 86.5002 126.325C86.1352 126.325 85.7728 126.321 85.4118 126.316C100.686 126.062 112.893 120.49 112.893 113.651V65.2637H115.069Z" fill="#FFC338"/>
</g>
<mask id="mask2_7151_6704" style="mask-type:luminance" maskUnits="userSpaceOnUse" x="57" y="101" width="59" height="26">
<path d="M57.6391 101.425H115.359V126.324H57.6391V101.425Z" fill="white"/>
</mask>
<g mask="url(#mask2_7151_6704)">
<path fill-rule="evenodd" clip-rule="evenodd" d="M57.9304 113.65C57.9304 120.65 70.7217 126.325 86.5003 126.325C102.278 126.325 115.069 120.65 115.069 113.65V101.553C115.069 108.553 102.278 114.229 86.5003 114.229C70.7217 114.229 57.9304 108.553 57.9304 101.553V113.65Z" fill="#FFC338"/>
</g>
<mask id="mask3_7151_6704" style="mask-type:luminance" maskUnits="userSpaceOnUse" x="85" y="101" width="31" height="26">
<path d="M85.1246 101.425H115.359V126.324H85.1246V101.425Z" fill="white"/>
</mask>
<g mask="url(#mask3_7151_6704)">
<path fill-rule="evenodd" clip-rule="evenodd" d="M85.4119 126.315C85.7729 126.321 86.1352 126.325 86.5003 126.325C102.278 126.325 115.069 120.65 115.069 113.65V101.553C115.069 103.275 114.293 104.915 112.893 106.411V113.65C112.893 120.488 100.686 126.062 85.4119 126.315Z" fill="#F5B829"/>
</g>
<path fill-rule="evenodd" clip-rule="evenodd" d="M57.9303 89.4568C57.9303 96.457 70.7215 102.131 86.5002 102.131C102.278 102.131 115.069 96.457 115.069 89.4568V77.3594C115.069 84.3596 102.278 90.0352 86.5002 90.0352C70.7215 90.0352 57.9303 84.3596 57.9303 77.3594V89.4568Z" fill="#FFC338"/>
<path fill-rule="evenodd" clip-rule="evenodd" d="M112.893 94.315C114.293 92.8186 115.069 91.1773 115.069 89.4568V77.3594C115.069 79.0812 114.293 80.7213 112.893 82.2177V94.315Z" fill="#F5B829"/>
<path d="M115.069 65.2637C115.069 65.4704 115.057 65.6784 115.034 65.8851C115.011 66.0918 114.976 66.2984 114.931 66.5051C114.885 66.7118 114.827 66.9171 114.759 67.1225C114.69 67.3278 114.611 67.5318 114.52 67.7358C114.429 67.9398 114.325 68.1411 114.213 68.3424C114.098 68.5437 113.974 68.7437 113.838 68.9423C113.703 69.1409 113.556 69.3382 113.398 69.5328C113.241 69.7288 113.073 69.922 112.893 70.1139C112.715 70.3058 112.526 70.4951 112.326 70.683C112.126 70.8695 111.915 71.0547 111.695 71.2386C111.475 71.4211 111.244 71.6009 111.004 71.7794C110.763 71.9579 110.514 72.1324 110.253 72.3055C109.994 72.4773 109.725 72.6464 109.447 72.8142C109.168 72.9806 108.881 73.1443 108.584 73.304C108.287 73.4651 107.981 73.6221 107.667 73.7751C107.353 73.9294 107.031 74.0797 106.701 74.226C106.369 74.3723 106.031 74.5159 105.685 74.6541C105.339 74.7937 104.984 74.9293 104.623 75.0608C104.262 75.1923 103.893 75.3198 103.518 75.4433C103.142 75.5681 102.761 75.6862 102.371 75.8016C101.982 75.917 101.588 76.0284 101.186 76.1344C100.786 76.2418 100.379 76.3438 99.9665 76.4418C99.5545 76.5397 99.1371 76.6323 98.7143 76.7209C98.2916 76.8095 97.8648 76.8941 97.4327 76.9732C97.0005 77.0524 96.5644 77.1276 96.1242 77.1974C95.684 77.2671 95.2397 77.3316 94.7928 77.392C94.3446 77.4524 93.895 77.5074 93.4414 77.5584C92.9878 77.6094 92.5314 77.6537 92.0725 77.6953C91.6148 77.7355 91.1545 77.7704 90.6915 77.8013C90.2285 77.8322 89.7654 77.8563 89.2998 77.8778C88.8341 77.8979 88.3684 77.9127 87.9013 77.9234C87.4343 77.9328 86.9672 77.9382 86.5002 77.9382C86.0318 77.9382 85.5648 77.9328 85.0977 77.9234C84.6307 77.9127 84.165 77.8979 83.6993 77.8778C83.2336 77.8563 82.7706 77.8322 82.3076 77.8013C81.8446 77.7704 81.3842 77.7355 80.9266 77.6953C80.4676 77.6537 80.0113 77.6094 79.5577 77.5584C79.1041 77.5074 78.6545 77.4524 78.2062 77.392C77.7593 77.3316 77.3151 77.2671 76.8749 77.1974C76.4347 77.1276 75.9985 77.0524 75.5664 76.9732C75.1342 76.8941 74.7075 76.8095 74.2847 76.7209C73.862 76.6323 73.4446 76.5397 73.0326 76.4418C72.6206 76.3438 72.2139 76.2418 71.8126 76.1344C71.4114 76.0284 71.0168 75.917 70.6276 75.8016C70.2384 75.6862 69.8572 75.5681 69.4815 75.4433C69.1057 75.3198 68.7366 75.1923 68.3756 75.0608C68.0146 74.9293 67.6603 74.7937 67.314 74.6541C66.9678 74.5159 66.6296 74.3723 66.2981 74.226C65.9679 74.0797 65.6458 73.9294 65.3318 73.7751C65.0177 73.6221 64.7118 73.4651 64.4152 73.304C64.1186 73.1443 63.8314 72.9806 63.5536 72.8142C63.2744 72.6464 63.0047 72.4773 62.7456 72.3055C62.4853 72.1324 62.2356 71.9579 61.9954 71.7794C61.7552 71.6009 61.5244 71.4211 61.3043 71.2386C61.0842 71.0547 60.8734 70.8695 60.6735 70.683C60.4735 70.4951 60.2843 70.3058 60.1058 70.1139C59.926 69.922 59.7582 69.7288 59.6012 69.5328C59.4428 69.3382 59.2965 69.1409 59.161 68.9423C59.0254 68.7437 58.9006 68.5437 58.7865 68.3424C58.6738 68.1411 58.5705 67.9398 58.4792 67.7358C58.3879 67.5318 58.3088 67.3278 58.2403 67.1225C58.1719 66.9171 58.1142 66.7118 58.0685 66.5051C58.0229 66.2984 57.988 66.0918 57.9652 65.8851C57.9424 65.6784 57.9303 65.4704 57.9303 65.2637C57.9303 65.0557 57.9424 64.8477 57.9652 64.641C57.988 64.4343 58.0229 64.2276 58.0685 64.021C58.1142 63.8143 58.1719 63.6089 58.2403 63.4036C58.3088 63.1983 58.3879 62.9943 58.4792 62.7903C58.5705 62.5863 58.6738 62.385 58.7865 62.1837C58.9006 61.9824 59.0254 61.7824 59.161 61.5838C59.2965 61.3851 59.4428 61.1879 59.6012 60.9933C59.7582 60.7973 59.926 60.6041 60.1058 60.4121C60.2843 60.2202 60.4735 60.031 60.6735 59.8431C60.8734 59.6566 61.0842 59.4713 61.3043 59.2875C61.5244 59.105 61.7552 58.9251 61.9954 58.7466C62.2356 58.5681 62.4853 58.3937 62.7456 58.2205C63.0047 58.0488 63.2744 57.8797 63.5536 57.7119C63.8314 57.5455 64.1186 57.3818 64.4152 57.222C64.7118 57.061 65.0177 56.904 65.3318 56.751C65.6458 56.5966 65.9679 56.4463 66.2981 56.3C66.6296 56.1538 66.9678 56.0102 67.314 55.8719C67.6603 55.7324 68.0146 55.5968 68.3756 55.4653C68.7366 55.3338 69.1057 55.2063 69.4815 55.0828C69.8572 54.958 70.2384 54.8399 70.6276 54.7245C71.0168 54.609 71.4114 54.4977 71.8126 54.3916C72.2139 54.2843 72.6206 54.1823 73.0326 54.0843C73.4446 53.9863 73.862 53.8937 74.2847 53.8051C74.7075 53.7166 75.1342 53.632 75.5664 53.5528C75.9985 53.4737 76.4347 53.3985 76.8749 53.3287C77.3151 53.2589 77.7593 53.1932 78.2062 53.1341C78.6545 53.0737 79.1041 53.0187 79.5577 52.9677C80.0113 52.9167 80.4676 52.8724 80.9266 52.8308C81.3842 52.7905 81.8446 52.7556 82.3076 52.7248C82.7706 52.6939 83.2336 52.6698 83.6993 52.6483C84.165 52.6282 84.6307 52.6134 85.0977 52.6027C85.5648 52.5933 86.0318 52.5879 86.5002 52.5879C86.9672 52.5879 87.4343 52.5933 87.9013 52.6027C88.3684 52.6134 88.8341 52.6282 89.2998 52.6483C89.7654 52.6698 90.2285 52.6939 90.6915 52.7248C91.1545 52.7556 91.6148 52.7905 92.0725 52.8308C92.5314 52.8724 92.9878 52.9167 93.4414 52.9677C93.895 53.0187 94.3446 53.0737 94.7928 53.1341C95.2397 53.1932 95.684 53.2589 96.1242 53.3287C96.5644 53.3985 97.0005 53.4737 97.4327 53.5528C97.8648 53.632 98.2916 53.7166 98.7143 53.8051C99.1371 53.8937 99.5545 53.9863 99.9665 54.0843C100.379 54.1823 100.786 54.2843 101.186 54.3916C101.588 54.4977 101.982 54.609 102.371 54.7245C102.761 54.8399 103.142 54.958 103.518 55.0828C103.893 55.2063 104.262 55.3338 104.623 55.4653C104.984 55.5968 105.339 55.7324 105.685 55.8719C106.031 56.0102 106.369 56.1538 106.701 56.3C107.031 56.4463 107.353 56.5966 107.667 56.751C107.981 56.904 108.287 57.061 108.584 57.222C108.881 57.3818 109.168 57.5455 109.447 57.7119C109.725 57.8797 109.994 58.0488 110.253 58.2205C110.514 58.3937 110.763 58.5681 111.004 58.7466C111.244 58.9251 111.475 59.105 111.695 59.2875C111.915 59.4713 112.126 59.6566 112.326 59.8431C112.526 60.031 112.715 60.2202 112.893 60.4121C113.073 60.6041 113.241 60.7973 113.398 60.9933C113.556 61.1879 113.703 61.3851 113.838 61.5838C113.974 61.7824 114.098 61.9824 114.213 62.1837C114.325 62.385 114.429 62.5863 114.52 62.7903C114.611 62.9943 114.69 63.1983 114.759 63.4036C114.827 63.6089 114.885 63.8143 114.931 64.021C114.976 64.2276 115.011 64.4343 115.034 64.641C115.057 64.8477 115.069 65.0557 115.069 65.2637Z" fill="#FFC338"/>
<path fill-rule="evenodd" clip-rule="evenodd" d="M85.4118 52.5986C85.7728 52.5919 86.1352 52.5879 86.5002 52.5879C102.278 52.5879 115.069 58.2635 115.069 65.2637C115.069 66.9842 114.293 68.6256 112.893 70.122V65.2637C112.893 58.4245 100.686 52.8523 85.4118 52.5986Z" fill="#F5B829"/>
<path fill-rule="evenodd" clip-rule="evenodd" d="M93.1368 60.2796C93.5837 61.1305 93.2575 62.1813 92.4094 62.6296C91.5612 63.0765 90.5103 62.7503 90.0634 61.9008C89.6058 61.0365 88.6529 60.5346 87.594 60.3413C86.8344 60.2031 86.0252 60.2273 85.279 60.391C84.6052 60.54 84.0228 60.7963 83.6376 61.1412C83.3853 61.3667 83.235 61.6351 83.2524 61.9303C83.2739 62.2699 83.5799 62.5463 84.0107 62.7691C84.7529 63.153 85.7688 63.365 86.7324 63.4912C88.0772 63.6656 89.5481 63.9595 90.7868 64.5527C92.3141 65.2842 93.4723 66.4209 93.7474 68.2206C93.7729 68.3843 93.7863 68.5763 93.7903 68.7937C93.8199 70.3572 93.0321 71.5248 91.8175 72.3488C90.8365 73.0145 89.5776 73.4278 88.3241 73.6197L88.2396 73.6332V73.9553C88.2396 74.9189 87.4612 75.6986 86.5002 75.6986C85.538 75.6986 84.7596 74.9189 84.7596 73.9553V73.6023C83.8228 73.4426 82.9277 73.1567 82.1439 72.742C80.7911 72.028 79.7443 70.9423 79.2826 69.4754C78.9967 68.5588 79.5081 67.5831 80.4247 67.2973C81.3413 67.0114 82.3143 67.5241 82.6002 68.4407C82.7599 68.9507 83.1894 69.3614 83.7624 69.6647C84.573 70.0928 85.6252 70.2968 86.6989 70.2766C87.0304 70.2699 87.4048 70.2364 87.8061 70.1747C88.6086 70.0525 89.3629 69.8217 89.8729 69.4754C90.148 69.2889 90.3278 69.0755 90.3238 68.8487L90.3077 68.7373C90.2379 68.285 89.8353 67.9455 89.2904 67.6851C88.4583 67.2865 87.3444 67.0731 86.2976 66.9362C84.9904 66.7658 83.5732 66.4571 82.419 65.8599C80.9521 65.1003 79.8959 63.934 79.7859 62.1343C79.696 60.6701 80.2986 59.4583 81.3252 58.5403C82.1681 57.7874 83.2994 57.2586 84.5314 56.9875C84.6066 56.9701 84.6831 56.9553 84.7596 56.9405V56.5715C84.7596 55.6079 85.538 54.8281 86.4989 54.8281C87.4612 54.8281 88.2396 55.6079 88.2396 56.5715V56.9298C90.2594 57.3056 92.1275 58.3752 93.1368 60.2796Z" fill="#5893A9"/>
<path fill-rule="evenodd" clip-rule="evenodd" d="M80.5844 40.6544C80.0476 39.8612 80.2542 38.7822 81.0461 38.244C81.8392 37.7072 82.9169 37.9139 83.4537 38.7071L84.7596 40.6356V21.7433C84.7596 20.7811 85.5379 20 86.5002 20C87.4611 20 88.2395 20.7811 88.2395 21.7433V40.6356L89.5467 38.7071C90.0835 37.9139 91.1599 37.7072 91.953 38.244C92.7448 38.7822 92.9515 39.8612 92.4147 40.6544L87.955 47.2386C87.8315 47.4278 87.6705 47.5969 87.4719 47.7325C86.68 48.2693 85.6024 48.0626 85.0655 47.2694L80.5844 40.6544ZM50.4724 33.6971C50.4724 32.7349 51.2522 31.9538 52.2131 31.9538C53.174 31.9538 53.9538 32.7349 53.9538 33.6971V52.5894L55.2596 50.6608C55.7964 49.8677 56.8741 49.661 57.6659 50.1978C58.4577 50.736 58.6658 51.815 58.1289 52.6082L53.6679 59.1924C53.5458 59.3816 53.3834 59.5507 53.1848 59.6849C52.3929 60.2231 51.3153 60.0164 50.7784 59.2219L46.2986 52.6082C45.7618 51.815 45.9685 50.736 46.7603 50.1978C47.5521 49.6597 48.6298 49.8677 49.1666 50.6608L50.4724 52.5894V33.6971ZM119.045 33.6971C119.045 32.7349 119.825 31.9538 120.786 31.9538C121.747 31.9538 122.527 32.7349 122.527 33.6971V52.5894L123.832 50.6608C124.369 49.8677 125.447 49.661 126.239 50.1978C127.031 50.736 127.239 51.815 126.702 52.6082L122.241 59.1924C122.119 59.3816 121.956 59.5507 121.758 59.6862C120.966 60.2231 119.888 60.0164 119.351 59.2232L114.871 52.6082C114.335 51.815 114.541 50.736 115.333 50.1978C116.125 49.661 117.203 49.8677 117.739 50.6608L119.045 52.5894V33.6971Z" fill="#5893A9"/>
</svg>
