<svg width="175" height="148" viewBox="0 0 175 148" fill="none" xmlns="http://www.w3.org/2000/svg">
<rect width="175" height="148" rx="10" fill="#5994A9" fill-opacity="0.2"/>
<path fill-rule="evenodd" clip-rule="evenodd" d="M91.6709 54.4927L94.0606 61.631C100.276 68.3151 104.807 73.9748 107.651 78.9792C116.736 94.9674 103.811 111.206 86.4987 110.913C69.1918 111.206 56.2632 94.9674 65.3516 78.9792C68.1941 73.9748 72.7216 68.3151 78.9422 61.631L81.3358 54.5007L75.5095 48.6585C74.0883 47.2332 74.0883 44.9035 75.5095 43.4743C76.719 42.2635 78.6318 42.0597 80.0744 42.9854C80.6098 43.3304 81.2199 43.385 81.81 43.1386C82.3961 42.8962 82.7904 42.4246 82.9262 41.7999C83.2832 40.1589 84.7551 38.9121 86.4987 38.9121C88.213 38.9121 89.7062 40.1242 90.0752 41.7999C90.211 42.4246 90.6066 42.8962 91.1914 43.1386C91.7775 43.385 92.3929 43.3304 92.927 42.9854C94.3403 42.0757 96.2584 42.2422 97.4932 43.4743C98.9144 44.9035 98.9144 47.2332 97.4932 48.6585L91.6709 54.4927Z" fill="#FFBB4F"/>
<path fill-rule="evenodd" clip-rule="evenodd" d="M91.6708 54.4927L94.0605 61.631C100.276 68.3151 104.807 73.9748 107.651 78.9792C116.735 94.9674 103.811 111.206 86.4986 110.913C86.1589 110.917 85.8246 110.913 85.4889 110.908C102.287 110.568 114.536 94.6531 105.626 78.9792C102.784 73.9748 98.2563 68.3151 92.0358 61.631L89.6515 54.4927L95.4684 48.6585C96.8897 47.2332 96.8897 44.9035 95.4684 43.4743C95.0142 43.024 94.4721 42.7137 93.894 42.5485C95.1287 42.1955 96.5207 42.5059 97.4931 43.4743C98.9143 44.9035 98.9143 47.2332 97.4931 48.6585L91.6708 54.4927ZM77.0879 42.5485C78.0762 42.2675 79.1672 42.4033 80.0743 42.9854L80.0796 42.9907C79.9904 43.0454 79.8918 43.096 79.7866 43.1386C79.2005 43.385 78.5851 43.3304 78.0509 42.9854C77.7459 42.7896 77.4222 42.6458 77.0879 42.5485ZM85.4889 39.0573C85.8113 38.9627 86.1509 38.9121 86.4986 38.9121C88.2129 38.9121 89.7061 40.1242 90.0751 41.7999C90.1856 42.3141 90.4747 42.727 90.8983 42.9907C90.3641 43.3304 89.7527 43.385 89.168 43.1386C88.5819 42.8962 88.1876 42.4246 88.0517 41.7999C87.7587 40.4639 86.753 39.4263 85.4889 39.0573Z" fill="#E3A76F"/>
<path fill-rule="evenodd" clip-rule="evenodd" d="M78.5598 61.6303H94.4375C96.3982 61.6303 97.998 60.0279 97.998 58.0631C97.998 56.1024 96.3982 54.5 94.4375 54.5H78.5598C76.6044 54.5 75.0007 56.1024 75.0007 58.0631C75.0007 60.0279 76.6044 61.6303 78.5598 61.6303Z" fill="#5893A9"/>
<path fill-rule="evenodd" clip-rule="evenodd" d="M92.4182 61.6303H94.4375C96.3982 61.6303 97.998 60.0279 97.998 58.0631C97.998 56.1024 96.3982 54.5 94.4375 54.5H92.4182C94.3736 54.5 95.9773 56.1024 95.9773 58.0631C95.9773 60.0279 94.3736 61.6303 92.4182 61.6303Z" fill="#5893A9"/>
<mask id="mask0_7151_6409" style="mask-type:luminance" maskUnits="userSpaceOnUse" x="46" y="25" width="81" height="100">
<path d="M46 25.3438H127V124.485H46V25.3438Z" fill="white"/>
</mask>
<g mask="url(#mask0_7151_6409)">
<path fill-rule="evenodd" clip-rule="evenodd" d="M123.052 94.1809L124.646 93.5868C125.471 93.2791 126.389 93.7014 126.696 94.5272C127.003 95.3544 126.582 96.2748 125.757 96.5825L120.89 98.3954C120.131 98.6791 119.281 98.3461 118.913 97.6242L116.556 92.9861C116.156 92.2015 116.468 91.2385 117.252 90.8375C118.036 90.4366 118.997 90.7496 119.397 91.5355L120.107 92.9328C121.956 87.389 122.975 81.3003 122.975 74.9146C122.975 49.4278 106.741 28.5764 86.5 28.5764C77.5635 28.5764 69.3903 32.6803 63.0632 39.435C62.4611 40.077 61.4514 40.1103 60.8094 39.5056C60.1674 38.9022 60.1354 37.8898 60.7388 37.2478C67.6853 29.8298 76.687 25.3809 86.5 25.3809C108.281 25.3809 126.165 47.4884 126.165 74.9146C126.165 81.7505 125.054 88.2614 123.052 94.1809ZM52.8932 56.8977C51.0444 62.4416 50.0254 68.5302 50.0254 74.9146C50.0254 100.403 66.2587 121.253 86.5 121.253C95.4365 121.253 103.61 117.15 109.937 110.396C110.539 109.752 111.549 109.72 112.191 110.324C112.833 110.928 112.865 111.939 112.263 112.583C105.315 120.001 96.313 124.45 86.5 124.45C64.7189 124.45 46.8365 102.342 46.8365 74.9146C46.8365 68.08 47.9461 61.5691 49.9481 55.6496L48.355 56.2437C47.5292 56.5514 46.6114 56.1292 46.3037 55.3033C45.9974 54.4761 46.4183 53.5557 47.2428 53.248L52.11 51.4338C52.8692 51.1514 53.7191 51.4844 54.0867 52.2064L56.4457 56.8431C56.844 57.629 56.5323 58.5921 55.7477 58.993C54.9645 59.3926 54.0028 59.0809 53.6032 58.295L52.8932 56.8977Z" fill="#5893A9"/>
</g>
<path fill-rule="evenodd" clip-rule="evenodd" d="M99.3673 76.3776V99.6399C99.3673 101.745 93.6077 103.455 86.5 103.455C79.3937 103.455 73.6328 101.745 73.6328 99.6399V76.3776C73.6328 74.2717 79.3937 72.5693 86.5 72.5693C93.6077 72.5693 99.3673 74.2717 99.3673 76.3776Z" fill="#FFE177"/>
<path fill-rule="evenodd" clip-rule="evenodd" d="M86.5 87.9429C93.6077 87.9429 99.3673 86.2405 99.3673 84.136V76.377C99.3673 78.4895 93.6077 80.1919 86.5 80.1919C81.5796 80.1919 77.3038 79.3793 75.1419 78.1698C74.6517 77.9048 74.2774 77.6157 74.0244 77.312C73.7713 77.015 73.6328 76.7033 73.6328 76.377V84.136C73.6328 84.2039 73.6407 84.2732 73.6487 84.3411C74.0164 86.3471 79.6295 87.9429 86.5 87.9429Z" fill="#FFD064"/>
<path fill-rule="evenodd" clip-rule="evenodd" d="M86.5 95.7039C79.3937 95.7039 73.6328 93.9936 73.6328 91.8877V99.64C73.6328 101.745 79.3937 103.455 86.5 103.455C93.6077 103.455 99.3673 101.745 99.3673 99.64V91.8877C99.3673 93.9936 93.6077 95.7039 86.5 95.7039Z" fill="#FFD064"/>
</svg>
