<svg width="294" height="268" viewBox="0 0 294 268" fill="none" xmlns="http://www.w3.org/2000/svg">
<path d="M245.927 1.25274C241.06 1.42393 236.332 1.59127 231.604 1.7674C227.159 1.933 222.714 2.11334 218.269 2.2772C213.447 2.45496 208.624 2.61902 203.801 2.7934C201.602 2.87292 199.404 2.96606 197.204 3.04747C192.524 3.22077 187.842 3.38656 183.162 3.56274C178.764 3.72828 174.366 3.90736 169.968 4.07293C165.288 4.24916 160.606 4.41068 155.926 4.58948C151.669 4.75207 147.414 4.9349 143.157 5.09845C138.524 5.27648 133.89 5.43607 129.256 5.61583C125.094 5.77731 120.933 5.96687 116.771 6.12287C111.855 6.30713 106.937 6.46262 102.02 6.64323C100.245 6.70843 98.473 6.82401 96.6983 6.89266C92.0649 7.07191 87.4308 7.2357 82.7972 7.41022C80.6925 7.4895 78.5888 7.58918 76.4839 7.66287C71.4253 7.83998 66.3657 7.99226 61.3078 8.18324C57.4285 8.32972 53.5518 8.535 49.6727 8.68696C44.8981 8.87399 40.1218 9.0289 35.3466 9.20498C30.8542 9.37064 26.3623 9.54574 21.8702 9.71674C17.3781 9.88774 12.8858 10.0552 8.39389 10.2315C6.47791 10.3068 4.56354 10.4177 2.64713 10.4814C0.674042 10.547 -0.21579 11.475 0.044342 13.2091C0.152161 13.9279 0.226624 14.6544 0.251526 15.3792C0.361145 18.5662 0.426605 21.7544 0.5466 24.941C0.715912 29.4354 0.933807 33.9284 1.10303 38.4228C1.22302 41.6094 1.26675 44.7984 1.39938 47.9845C1.55447 51.7101 1.77759 55.4333 1.95584 59.1581C2.15454 63.3096 2.34506 67.4615 2.52167 71.6138C2.63358 74.2448 2.71771 76.8769 2.80692 79.5087C2.90622 82.4394 2.96417 85.3717 3.10068 88.3009C3.25043 91.5139 3.47318 94.724 3.65707 97.9357C3.8508 101.318 4.04391 104.7 4.22253 108.083C4.33209 110.158 4.4183 112.235 4.50705 114.311C4.6991 118.805 4.8829 123.299 5.07648 127.792C5.16226 129.783 5.27002 131.773 5.35635 133.764C5.45782 136.103 5.54626 138.444 5.64157 140.783C5.73517 143.081 5.83163 145.378 5.92432 147.675C6.02048 150.057 6.11288 152.44 6.20819 154.823C6.30182 157.163 6.39563 159.503 6.49179 161.843C6.58444 164.097 6.68234 166.351 6.77414 168.606C6.87119 170.988 6.9599 173.371 7.05948 175.754C7.14828 177.88 7.25204 180.006 7.34 182.132C7.44037 184.557 7.52551 186.983 7.62668 189.408C7.71356 191.492 7.82108 193.575 7.90613 195.659C8.00861 198.169 8.09332 200.681 8.19263 203.191C8.28183 205.446 8.3837 207.7 8.47375 209.955C8.57233 212.423 8.65952 214.891 8.75974 217.359C8.84784 219.528 8.95331 221.697 9.0397 223.866C9.14142 226.419 9.22043 228.973 9.32895 231.527C9.40479 233.311 9.53156 235.094 9.60388 236.879C9.71429 239.603 9.78894 242.329 9.8945 245.053C9.97525 247.137 10.0422 249.222 10.1841 251.303C10.3711 254.043 10.6689 256.777 10.8369 259.518C10.9655 261.615 10.9798 263.718 11.0204 265.819C11.0499 267.349 11.1764 267.505 12.9127 267.474C16.6703 267.409 20.428 267.332 24.1841 267.218C29.0076 267.071 33.8305 266.9 38.652 266.706C44.5412 266.469 50.4287 266.199 56.3167 265.939C58.0909 265.861 59.8634 265.736 61.6385 265.692C65.9145 265.585 70.1926 265.545 74.4678 265.42C79.0085 265.287 83.547 265.091 88.0861 264.914C92.3423 264.749 96.5982 264.575 100.854 264.402C105.016 264.233 109.177 264.061 113.339 263.89C117.5 263.719 121.662 263.545 125.824 263.377C130.127 263.204 134.43 263.032 138.733 262.865C143.225 262.69 147.718 262.524 152.21 262.35C156.56 262.182 160.91 262.007 165.261 261.838C169.706 261.665 174.151 261.498 178.596 261.324C182.852 261.157 187.108 260.983 191.364 260.812C195.62 260.641 199.876 260.476 204.132 260.296C207.963 260.135 211.794 259.955 215.625 259.786C219.55 259.613 223.476 259.448 227.401 259.271C231.044 259.106 234.685 258.917 238.328 258.764C242.772 258.577 247.217 258.418 251.662 258.247C256.107 258.076 260.552 257.908 264.997 257.733C269.253 257.566 273.509 257.399 277.765 257.219C281.549 257.058 285.333 256.887 289.116 256.704C290.325 256.645 291.542 256.603 292.734 256.43C293.905 256.26 293.99 255.336 294.009 254.496C294.02 253.963 293.817 253.428 293.8 252.892C293.689 249.363 293.614 245.833 293.504 242.304C293.43 239.928 293.174 237.549 293.274 235.18C293.345 233.49 293.803 231.824 292.679 230.269C292.591 230.148 292.663 229.934 292.658 229.763C292.564 226.276 292.496 222.789 292.368 219.303C292.207 214.894 291.998 210.486 291.807 206.078C291.715 203.959 291.616 201.841 291.525 199.722C291.334 195.271 291.151 190.82 290.957 186.369C290.773 182.174 290.579 177.979 290.392 173.785C290.201 169.505 290.016 165.224 289.823 160.944C289.638 156.835 289.441 152.726 289.259 148.617C289.064 144.209 288.885 139.8 288.69 135.392C288.508 131.282 288.318 127.173 288.123 123.064C287.941 119.212 287.748 115.359 287.558 111.506C287.37 107.696 287.17 103.887 286.994 100.076C286.794 95.7541 286.611 91.4309 286.425 87.1079C286.325 84.7757 286.234 82.4432 286.142 80.1107C285.951 75.2749 285.772 70.4387 285.572 65.6033C285.396 61.3655 285.197 57.1285 285.008 52.8911C284.819 48.6537 284.631 44.4163 284.441 40.1789C284.253 35.9843 284.062 31.7897 283.875 27.595C283.684 23.3149 283.504 19.0345 283.305 14.7547C283.127 10.9017 282.946 7.04857 282.73 3.19717C282.676 2.24034 282.481 1.29002 282.345 0.294566C277.686 -0.339643 273.045 0.207547 268.401 0.476189C268.025 0.497956 267.645 0.475084 267.268 0.484352C263.841 0.568476 260.413 0.624285 256.988 0.749468C253.346 0.88261 249.706 1.08218 245.927 1.25274ZM255.241 75.3039C257.878 79.0589 261.066 84.3649 263.741 88.0972C265.324 90.3053 269.586 97.3102 269.741 100.076C269.94 103.615 270.463 108.563 270.741 112.097C271.03 115.759 270.956 119.402 271.241 123.064C271.523 126.684 271.502 128.975 271.741 132.597C271.98 136.219 272.793 141.547 272.741 145.097C273.241 148.617 273.584 155.311 273.241 159.097C273.075 160.929 272.741 163.597 272.741 165.597C272.184 168.898 272.344 170.303 271.741 173.597C271.262 176.217 270.741 185.097 269.741 189.408C269.241 194.097 264.907 203.412 263.241 206.097C261.868 208.312 258.481 214.231 256.241 216.097C253.241 218.597 251.433 220.474 248.741 222.597C244.741 226.597 233.741 233.597 227.401 235.097C221.371 237.212 218.537 237.363 212.241 238.097C209.77 238.385 206.208 239.276 203.741 239.597C200.956 239.96 197.541 240.403 194.741 240.597C193.298 240.697 185.704 240.292 184.241 240.097C179.104 239.413 172.447 239.703 167.241 240.097C161.465 240.535 161.241 240.597 153.741 240.597C146.741 241.097 149.714 240.856 145.741 241.097C144.031 241.201 141.951 241.546 140.241 241.597C138.323 241.654 130.605 241.923 128.741 241.597C125.1 240.96 116.371 238.295 112.741 237.597C105.954 236.292 95.1919 231.875 88.7412 229.597C84.7752 228.196 76.7412 225.097 72.7412 223.097C69.7412 221.597 67.3862 217.726 64.7412 216.097C63.0811 215.075 58.2327 209.353 56.7412 208.097C54.6191 206.31 51.7407 200.988 49.7412 199.097C47.8882 197.345 45.3818 193.523 43.7412 191.597C40.7412 187.597 37.7361 181.105 34.7412 177.097C31.6064 172.902 31.5106 169.502 28.7412 165.097C27.7412 163.097 28.0495 159.238 27.2412 157.097C27.2412 155.597 26.5219 152.076 26.2412 150.597C25.6325 147.391 24.8464 142.804 24.2412 139.597C23.6208 136.31 23.3182 133.391 22.7412 130.097C22.271 127.413 22.0941 123.796 21.7412 121.097C21.4734 119.049 21.5344 116.642 21.2412 114.597C20.2412 111.597 20.3515 105.862 20.7412 102.597C21.0993 99.5972 20.5154 97.463 20.7412 94.5972C20.8064 93.7697 21.4867 89.8932 21.7412 89.0972C22.9754 85.2366 25.6254 76.8251 27.2412 73.0972C28.8602 69.3619 31.0643 64.6023 33.2412 61.0972C34.4271 59.1877 37.717 55.8332 39.2412 54.0972C41.7412 50.5972 48.2412 43.0972 51.7412 40.0972C54.2478 37.7268 59.7412 33.5972 63.2412 32.0972C65.9055 30.1373 70.4721 29.4795 73.7412 28.5972C79.3552 27.0819 87.0646 24.9157 92.7412 23.5972C95.3165 22.999 98.6215 23.0027 101.241 22.5972C104.425 22.1043 108.578 21.1694 111.741 20.5972C116.22 19.7869 124.566 19.9856 129.256 20.5972C133.946 21.2088 137.029 21.5977 141.741 22.0972C145.622 22.5085 148.896 23.9471 152.741 24.5972C156.489 25.2307 162.492 25.9717 166.241 26.5972C169.324 27.1115 172.638 27.6901 175.741 28.0972C179.126 28.5411 181.359 28.6376 184.741 29.0972C187.196 29.4308 192.925 30.8687 195.241 31.5972C198.644 32.6675 206.047 36.5817 209.241 38.0972C214.725 40.6993 219.567 44.0401 224.741 47.0972C230.768 50.6576 234.457 54.2064 240.241 58.0972C242.835 59.8418 245.866 62.7214 247.741 65.0972C249.615 67.4703 253.224 72.7931 255.241 75.3039Z" fill="#FFBB4F"/>
</svg>
