<svg width="294" height="268" viewBox="0 0 294 268" fill="none" xmlns="http://www.w3.org/2000/svg">
<path d="M48.0824 1.25274C52.9491 1.42393 57.6775 1.59127 62.4055 1.7674C66.8506 1.933 71.2951 2.11334 75.7403 2.2772C80.5627 2.45496 85.3857 2.61902 90.2082 2.7934C92.4073 2.87292 94.6058 2.96606 96.8048 3.04747C101.486 3.22077 106.167 3.38656 110.848 3.56274C115.246 3.72828 119.643 3.90736 124.041 4.07293C128.722 4.24916 133.403 4.41068 138.084 4.58948C142.34 4.75207 146.596 4.9349 150.852 5.09845C155.485 5.27648 160.12 5.43607 164.753 5.61583C168.915 5.77731 173.076 5.96687 177.238 6.12287C182.155 6.30713 187.072 6.46262 191.989 6.64323C193.764 6.70843 195.536 6.82401 197.311 6.89266C201.944 7.07191 206.578 7.2357 211.212 7.41022C213.317 7.4895 215.421 7.58918 217.525 7.66287C222.584 7.83998 227.644 7.99226 232.701 8.18324C236.581 8.32972 240.457 8.535 244.337 8.68696C249.111 8.87399 253.887 9.0289 258.663 9.20498C263.155 9.37064 267.647 9.54574 272.139 9.71674C276.631 9.88774 281.124 10.0552 285.615 10.2315C287.531 10.3068 289.446 10.4177 291.362 10.4814C293.335 10.547 294.225 11.475 293.965 13.2091C293.857 13.9279 293.783 14.6544 293.758 15.3792C293.648 18.5662 293.583 21.7544 293.463 24.941C293.293 29.4354 293.075 33.9284 292.906 38.4228C292.786 41.6094 292.743 44.7984 292.61 47.9845C292.455 51.7101 292.232 55.4333 292.053 59.1581C291.855 63.3096 291.664 67.4615 291.488 71.6138C291.376 74.2448 291.292 76.8769 291.202 79.5087C291.103 82.4394 291.045 85.3717 290.909 88.3009C290.759 91.5139 290.536 94.724 290.352 97.9357C290.158 101.318 289.965 104.7 289.787 108.083C289.677 110.158 289.591 112.235 289.502 114.311C289.31 118.805 289.126 123.299 288.933 127.792C288.847 129.783 288.739 131.773 288.653 133.764C288.551 136.103 288.463 138.444 288.368 140.783C288.274 143.081 288.178 145.378 288.085 147.675C287.989 150.057 287.896 152.44 287.801 154.823C287.707 157.163 287.614 159.503 287.517 161.843C287.425 164.097 287.327 166.351 287.235 168.606C287.138 170.988 287.049 173.371 286.95 175.754C286.861 177.88 286.757 180.006 286.669 182.132C286.569 184.557 286.484 186.983 286.383 189.408C286.296 191.492 286.188 193.575 286.103 195.659C286.001 198.169 285.916 200.681 285.817 203.191C285.727 205.446 285.626 207.7 285.536 209.955C285.437 212.423 285.35 214.891 285.25 217.359C285.161 219.528 285.056 221.697 284.97 223.866C284.868 226.419 284.789 228.973 284.68 231.527C284.604 233.311 284.478 235.094 284.405 236.879C284.295 239.603 284.22 242.329 284.115 245.053C284.034 247.137 283.967 249.222 283.825 251.303C283.638 254.043 283.34 256.777 283.172 259.518C283.044 261.615 283.029 263.718 282.989 265.819C282.959 267.349 282.833 267.505 281.097 267.474C277.339 267.409 273.581 267.332 269.825 267.218C265.002 267.071 260.179 266.9 255.357 266.706C249.468 266.469 243.581 266.199 237.693 265.939C235.918 265.861 234.146 265.736 232.371 265.692C228.095 265.585 223.817 265.545 219.542 265.42C215.001 265.287 210.462 265.091 205.923 264.914C201.667 264.749 197.411 264.575 193.155 264.402C188.993 264.233 184.832 264.061 180.67 263.89C176.509 263.719 172.347 263.545 168.186 263.377C163.883 263.204 159.579 263.032 155.276 262.865C150.784 262.69 146.292 262.524 141.8 262.35C137.449 262.182 133.099 262.007 128.748 261.838C124.303 261.665 119.858 261.498 115.414 261.324C111.157 261.157 106.902 260.983 102.646 260.812C98.3895 260.641 94.1332 260.476 89.8776 260.296C86.0461 260.135 82.2156 259.955 78.3845 259.786C74.4591 259.613 70.5333 259.448 66.6082 259.271C62.9657 259.106 59.3246 258.917 55.6816 258.764C51.2375 258.577 46.792 258.418 42.3471 258.247C37.9022 258.076 33.4571 257.908 29.0124 257.733C24.7562 257.566 20.5 257.399 16.2445 257.219C12.4602 257.058 8.67634 256.887 4.89325 256.704C3.68468 256.645 2.46719 256.603 1.27562 256.43C0.103991 256.26 0.0188285 255.336 0.000480677 254.496C-0.0111646 253.963 0.192491 253.428 0.209371 252.892C0.320414 249.363 0.39571 245.833 0.505348 242.304C0.579157 239.928 0.835602 237.549 0.735467 235.18C0.663994 233.49 0.20585 231.824 1.33069 230.269C1.41817 230.148 1.34673 229.934 1.35134 229.763C1.44556 226.276 1.51362 222.789 1.64125 219.303C1.80269 214.894 2.01161 210.486 2.20219 206.078C2.29379 203.959 2.39313 201.841 2.484 199.722C2.67489 195.271 2.85831 190.82 3.05266 186.369C3.23583 182.174 3.43052 177.979 3.61753 173.785C3.80834 169.505 3.99314 165.224 4.18582 160.944C4.37081 156.835 4.5678 152.726 4.74985 148.617C4.94513 144.209 5.12416 139.8 5.31951 135.392C5.50162 131.282 5.69127 127.173 5.88608 123.064C6.06875 119.212 6.26173 115.359 6.45165 111.506C6.63947 107.696 6.83895 103.887 7.01541 100.076C7.21558 95.7541 7.39836 91.4309 7.58378 87.1079C7.68382 84.7757 7.77569 82.4432 7.86753 80.1107C8.05792 75.2749 8.23681 70.4387 8.43747 65.6033C8.61333 61.3655 8.81244 57.1285 9.00134 52.8911C9.19023 48.6537 9.37848 44.4163 9.56831 40.1789C9.75623 35.9843 9.94719 31.7897 10.1342 27.595C10.325 23.3149 10.5054 19.0345 10.7038 14.7547C10.8824 10.9017 11.063 7.04857 11.2794 3.19717C11.3331 2.24034 11.5285 1.29002 11.6645 0.294566C16.3236 -0.339643 20.9641 0.207547 25.6083 0.476189C25.9846 0.497956 26.3638 0.475084 26.7413 0.484352C30.168 0.568476 33.5959 0.624285 37.0208 0.749468C40.6634 0.88261 44.303 1.08218 48.0824 1.25274ZM38.7681 75.3039C36.1311 79.0589 32.9436 84.3649 30.2681 88.0972C28.6851 90.3053 24.4232 97.3102 24.2681 100.076C24.0696 103.615 23.5463 108.563 23.2681 112.097C22.9798 115.759 23.0531 119.402 22.7681 123.064C22.4863 126.684 22.5069 128.975 22.2681 132.597C22.0292 136.219 21.2164 141.547 21.2681 145.097C20.7681 148.617 20.4255 155.311 20.7681 159.097C20.9338 160.929 21.2681 163.597 21.2681 165.597C21.825 168.898 21.6655 170.303 22.2681 173.597C22.7473 176.217 23.2681 185.097 24.2681 189.408C24.7681 194.097 29.1026 203.412 30.7681 206.097C32.1417 208.312 35.5283 214.231 37.7681 216.097C40.7681 218.597 42.5763 220.474 45.2681 222.597C49.2681 226.597 60.2681 233.597 66.6082 235.097C72.638 237.212 75.4726 237.363 81.7681 238.097C84.2395 238.385 87.8012 239.276 90.2681 239.597C93.0535 239.96 96.4681 240.403 99.2681 240.597C100.711 240.697 108.305 240.292 109.768 240.097C114.906 239.413 121.562 239.703 126.768 240.097C132.544 240.535 132.768 240.597 140.268 240.597C147.268 241.097 144.295 240.856 148.268 241.097C149.979 241.201 152.058 241.546 153.768 241.597C155.687 241.654 163.404 241.923 165.268 241.597C168.909 240.96 177.638 238.295 181.268 237.597C188.055 236.292 198.817 231.875 205.268 229.597C209.234 228.196 217.268 225.097 221.268 223.097C224.268 221.597 226.623 217.726 229.268 216.097C230.928 215.075 235.777 209.353 237.268 208.097C239.39 206.31 242.269 200.988 244.268 199.097C246.121 197.345 248.627 193.523 250.268 191.597C253.268 187.597 256.273 181.105 259.268 177.097C262.403 172.902 262.499 169.502 265.268 165.097C266.268 163.097 265.96 159.238 266.768 157.097C266.768 155.597 267.487 152.076 267.768 150.597C268.377 147.391 269.163 142.804 269.768 139.597C270.389 136.31 270.691 133.391 271.268 130.097C271.738 127.413 271.915 123.796 272.268 121.097C272.536 119.049 272.475 116.642 272.768 114.597C273.768 111.597 273.658 105.862 273.268 102.597C272.91 99.5972 273.494 97.463 273.268 94.5972C273.203 93.7697 272.523 89.8932 272.268 89.0972C271.034 85.2366 268.384 76.8251 266.768 73.0972C265.149 69.3619 262.945 64.6023 260.768 61.0972C259.582 59.1877 256.292 55.8332 254.768 54.0972C252.268 50.5972 245.768 43.0972 242.268 40.0972C239.762 37.7268 234.268 33.5972 230.768 32.0972C228.104 30.1373 223.537 29.4795 220.268 28.5972C214.654 27.0819 206.945 24.9157 201.268 23.5972C198.693 22.999 195.388 23.0027 192.768 22.5972C189.584 22.1043 185.432 21.1694 182.268 20.5972C177.789 19.7869 169.443 19.9856 164.753 20.5972C160.063 21.2088 156.98 21.5977 152.268 22.0972C148.387 22.5085 145.114 23.9471 141.268 24.5972C137.52 25.2307 131.518 25.9717 127.768 26.5972C124.685 27.1115 121.372 27.6901 118.268 28.0972C114.883 28.5411 112.65 28.6376 109.268 29.0972C106.813 29.4308 101.084 30.8687 98.7681 31.5972C95.365 32.6675 87.962 36.5817 84.7681 38.0972C79.2839 40.6993 74.4426 44.0401 69.2681 47.0972C63.2416 50.6576 59.5523 54.2064 53.7681 58.0972C51.1744 59.8418 48.1436 62.7214 46.2681 65.0972C44.3946 67.4703 40.7852 72.7931 38.7681 75.3039Z" fill="#5994A9"/>
</svg>
