<svg width="175" height="148" viewBox="0 0 175 148" fill="none" xmlns="http://www.w3.org/2000/svg">
<rect width="175" height="148" rx="10" fill="#5994A9" fill-opacity="0.2"/>
<path d="M150.971 28.5414V94.6917C150.971 94.9368 150.947 95.1797 150.898 95.4226C150.85 95.6632 150.779 95.8972 150.684 96.1247C150.591 96.3521 150.474 96.5684 150.337 96.7716C150.201 96.9769 150.046 97.1668 149.872 97.339C149.697 97.5134 149.507 97.668 149.302 97.8049C149.097 97.9417 148.88 98.0566 148.653 98.1515C148.425 98.2464 148.189 98.3171 147.949 98.3657C147.706 98.412 147.463 98.4363 147.216 98.4363H94.6039C94.573 98.4363 94.5443 98.4297 94.5134 98.4275C94.3545 97.1292 94.105 95.8465 93.7627 94.5836C93.1534 92.23 92.8354 89.8344 92.3453 87.4587C91.9214 85.4098 91.2943 83.4139 90.8483 81.3672V28.5414C90.8483 28.2964 90.8726 28.0535 90.9212 27.8106C90.9698 27.57 91.0404 27.3359 91.1354 27.1085C91.2281 26.8811 91.3451 26.6669 91.482 26.4616C91.6189 26.2563 91.7734 26.0686 91.9479 25.8942C92.1223 25.7198 92.3122 25.5652 92.5175 25.4283C92.7228 25.2914 92.9392 25.1766 93.1666 25.0817C93.394 24.9868 93.6281 24.9161 93.8709 24.8675C94.1116 24.8212 94.3567 24.7969 94.6039 24.7969H147.216C147.463 24.7969 147.706 24.8212 147.949 24.8675C148.189 24.9161 148.425 24.9868 148.653 25.0817C148.88 25.1766 149.097 25.2914 149.302 25.4283C149.507 25.5652 149.697 25.7198 149.872 25.8942C150.046 26.0686 150.201 26.2563 150.337 26.4616C150.474 26.6669 150.591 26.8811 150.684 27.1085C150.779 27.3359 150.85 27.57 150.898 27.8106C150.947 28.0535 150.971 28.2964 150.971 28.5414ZM100.841 103.243C98.0924 103.386 95.3436 103.53 92.5904 103.506C89.8393 103.484 87.0883 103.013 84.3417 103.099C83.3504 103.13 82.3612 103.205 81.3765 103.291C79.3762 103.121 77.3736 103.091 75.3711 103.203C73.8631 103.294 72.3573 103.492 70.8449 103.38C69.4606 103.278 68.127 103.055 66.778 103.479C66.3144 103.45 65.8529 103.466 65.3915 103.523C64.6143 103.603 63.9387 103.907 63.3624 104.433C63.347 104.296 63.3337 104.157 63.3183 104.02C64.5437 103.534 65.8132 103.249 67.1269 103.163C67.1843 103.152 67.2395 103.139 67.2925 103.119C67.9261 103.11 68.5576 103.119 69.1912 103.119C69.348 103.137 69.5048 103.137 69.6637 103.119C70.0589 103.121 70.4564 103.113 70.8516 103.119C72.0681 103.141 73.4966 103.406 74.6822 103.068C75.8127 102.748 76.6649 101.624 76.2874 100.437C76.2454 100.309 76.1814 100.192 76.0931 100.088C76.3624 91.1724 75.5146 82.3629 73.5474 73.6617C73.5099 73.5027 73.4502 73.3504 73.3641 73.2113C73.4326 73.0788 73.4657 72.9375 73.4657 72.7874C73.4657 72.6527 73.4392 72.5246 73.3884 72.3988C73.3354 72.2751 73.2626 72.1647 73.1676 72.0698C73.0705 71.9727 72.9623 71.8998 72.8365 71.849C72.7106 71.796 72.5803 71.7717 72.4457 71.7717C71.8319 71.7872 71.2335 71.8976 70.6529 72.1029C70.6418 72.1051 70.6352 72.1162 70.6242 72.1184C70.4387 72.1007 70.2554 72.114 70.0744 72.1603C66.1444 73.1671 61.9406 72.5842 58.0569 71.6437C57.9951 71.6326 57.9333 71.6238 57.8736 71.6194C57.6573 71.5399 57.4431 71.4648 57.2289 71.3876C56.5467 71.1425 55.8645 70.8996 55.18 70.6545C55.0454 70.6192 54.9195 70.6347 54.7981 70.7031C54.6766 70.7694 54.5972 70.8709 54.5574 71.0034C54.4735 71.063 54.4161 71.1403 54.383 71.2374C54.3499 71.3346 54.3455 71.4317 54.3719 71.5289C54.6788 72.5622 54.9747 73.5999 55.2639 74.6398C55.2706 74.6574 55.2794 74.6751 55.2904 74.6928C55.3456 74.8826 55.4119 75.0681 55.4913 75.2469C55.679 76.4282 55.9837 77.5763 56.4076 78.6934C56.4341 78.7464 56.4628 78.7972 56.4959 78.848C57.1185 82.6522 58.0856 86.3945 58.6707 90.2097C59.4103 95.034 59.8166 99.9178 60.3376 104.771C60.3619 104.978 60.4237 105.175 60.5209 105.358C60.6202 105.543 60.7483 105.702 60.9095 105.839C61.0684 105.974 61.2473 106.076 61.446 106.142C61.6447 106.21 61.8478 106.237 62.0576 106.226C61.9781 106.365 61.8986 106.504 61.8213 106.643C60.4547 109.107 59.3308 111.723 58.1165 114.262C57.6573 115.223 57.8184 116.506 58.8473 117.047C59.757 117.526 61.1479 117.342 61.6381 116.318C62.7001 114.097 63.7267 111.856 64.8351 109.659C65.0956 109.147 65.365 108.641 65.6586 108.147C65.7845 107.937 65.9192 107.729 66.0538 107.524C66.1135 107.522 66.1687 107.52 66.1863 107.52C66.3541 107.513 66.5771 107.506 66.7846 107.52C67.149 107.906 67.5971 108.118 68.1292 108.153C72.6333 108.524 77.0491 107.734 81.5068 107.35C82.3635 107.422 83.2179 107.515 84.0657 107.645C84.4013 107.709 84.7369 107.701 85.0703 107.619C85.4015 107.537 85.704 107.389 85.9733 107.18C87.7882 107.241 89.6075 107.453 91.4246 107.533C91.3186 107.652 91.2237 107.782 91.1398 107.921C91.0559 108.065 90.9874 108.215 90.9322 108.374C90.877 108.531 90.8373 108.694 90.8152 108.86C90.7931 109.025 90.7865 109.191 90.7953 109.356C90.8064 109.524 90.8329 109.688 90.8748 109.849C90.9168 110.012 90.9764 110.167 91.0493 110.317C91.1221 110.467 91.2082 110.608 91.3098 110.743C91.4113 110.876 91.5239 110.997 91.6498 111.107C91.7757 111.218 91.9103 111.317 92.056 111.401C92.6765 111.748 93.33 111.834 94.0189 111.657C94.1889 111.611 94.3589 111.584 94.5311 111.549C95.125 111.511 95.7211 111.511 96.3173 111.551C97.0481 111.591 97.7811 111.628 98.5141 111.668C98.7658 111.668 99.0109 111.631 99.2515 111.56C99.4922 111.487 99.7174 111.381 99.9271 111.242C100.137 111.103 100.32 110.937 100.481 110.743C100.64 110.549 100.768 110.337 100.865 110.105C100.963 109.873 101.024 109.635 101.049 109.383C101.075 109.133 101.064 108.886 101.016 108.641C100.969 108.394 100.885 108.16 100.768 107.939C100.651 107.716 100.503 107.517 100.327 107.338C100.499 107.33 100.669 107.321 100.841 107.312C103.453 107.175 103.469 103.106 100.841 103.243Z" fill="#E8E8E2"/>
<path d="M92.0648 85.9325L95.0565 102.52H75.9716L76.104 91.971L75.1723 82.0201L72.9777 71.6033L75.265 70.6297L79.0206 66.5605L80.1643 63.7764H81.2065L84.1518 64.9687L86.3464 66.8917L88.0089 69.2807L92.0648 85.9325ZM57.7499 84.8065L55.4913 75.2463L53.8243 70.6297L49.9186 68.8766L45.8252 65.8739L43.7763 64.6375L42.52 64.2908L39.6608 64.6618L36.4682 65.6487L33.9247 66.8917L31.6307 69.0819L28.9857 75.699L26.8418 85.354L24.996 99.8333L22.8522 117V122.325L25.2455 127.052L28.7362 129.951L33.8253 131.481L44.0478 133.024L44.7985 132.411L46.0725 129.735L46.5935 127.151L43.2839 128.147V120.285L43.7763 117.446H46.8386L47.2846 116.549L48.2384 115.308L50.6339 114.065L53.332 112.507L54.3697 111.418L55.372 110.252L56.5091 110.144L57.5601 110.784L58.0679 112.074L60.6091 107.031L59.6112 97.8771L57.7499 84.8065ZM102.875 53.98H100.596V62.7453H102.875V53.98ZM111.845 55.3092H109.567V62.7453H111.845V55.3092ZM116.329 52.9512H114.053V62.7453H116.329V52.9512ZM97.5006 76.1979V79.3994H125.85V76.1979H97.5006Z" fill="#FEBB4E"/>
<path d="M75.795 19.9482C75.7288 19.8224 75.6449 19.712 75.5477 19.6104C74.5145 18.65 73.3708 17.8441 72.1145 17.1994C71.4565 16.8263 70.7831 16.4885 70.0877 16.1904C69.8492 16.0955 69.6019 16.0182 69.3502 15.9608C68.6172 15.6782 67.8577 15.5082 67.0739 15.4486C65.5703 14.9474 64.027 14.6626 62.4418 14.5963C60.8587 14.5279 59.2955 14.6825 57.7566 15.0534C57.5557 15.1042 57.3769 15.1947 57.2201 15.3249C56.3878 15.4111 55.5819 15.6053 54.8003 15.9078C53.4314 16.4664 51.9477 17.0515 50.8658 18.0936C50.6583 18.1797 50.4463 18.2504 50.2432 18.3453C49.1879 18.8642 48.3709 19.6347 47.7903 20.657C47.7351 20.7541 47.6931 20.8579 47.6622 20.9661C47.6357 21.0014 47.6136 21.0389 47.5871 21.0743C45.037 23.3484 43.8691 26.7838 42.5532 29.8793C41.765 31.6809 41.277 33.562 41.0894 35.5182C40.9436 36.9798 40.8796 38.4459 40.8465 39.9141C40.6102 42.1021 40.2261 44.2636 39.6962 46.4009C39.1265 48.5182 38.3891 50.587 37.7974 52.6977C37.2719 53.8922 36.8171 55.1154 36.4373 56.365C36.0333 57.2548 35.7397 58.1777 35.5586 59.1381C35.4703 59.2022 35.4151 59.2883 35.3886 59.3942C34.8896 61.4542 34.4878 63.5936 35.2517 65.6425C35.2915 65.775 35.3731 65.8766 35.4946 65.945C35.616 66.0135 35.7441 66.0311 35.8788 65.998C35.9627 65.9715 36.0355 65.9251 36.0951 65.8611C38.4686 65.223 40.8708 64.7241 43.3039 64.3664C44.6573 65.0994 45.9533 65.9229 47.1941 66.8348C47.7991 67.3007 48.3356 67.846 48.9494 68.2986C49.6537 68.7733 50.4066 69.1531 51.2081 69.4379C54.3433 70.714 57.5668 71.7054 60.8764 72.4097C61.0243 72.4406 61.1722 72.4516 61.3224 72.4406C61.4394 72.487 61.5564 72.5333 61.6756 72.5687C61.9693 72.6415 62.2673 72.6901 62.5698 72.7144C62.6957 72.7298 62.8237 72.7365 62.9518 72.732C63.1108 72.7365 63.2675 72.7166 63.4199 72.6724C64.8395 72.8976 66.268 72.9882 67.7053 72.9418C69.8006 72.8314 71.6972 72.2154 73.6203 71.4228C74.5476 71.085 75.3976 70.6103 76.1682 69.9943C76.7621 69.4887 77.3339 68.9301 77.9124 68.4024C79.3122 67.1196 79.7339 65.0243 80.3234 63.2911C80.341 63.2293 80.3543 63.1675 80.3631 63.1035C80.5685 62.5118 80.5265 61.9377 80.2373 61.3813C80.054 61.0126 79.873 60.6439 79.6986 60.2708C79.6478 60.1604 79.5992 60.05 79.5506 59.9396C79.5418 59.9153 79.4446 59.6835 79.4204 59.6217C79.2746 59.2397 79.1488 58.8511 79.0472 58.4537C79.0053 58.2837 78.9744 58.1115 78.9368 57.9415C78.9214 57.8531 78.9148 57.8112 78.9103 57.7913C78.9081 57.767 78.9037 57.7405 78.9015 57.7162C78.8176 56.9258 78.7602 56.1288 78.7227 55.3362C78.705 54.9255 78.694 54.5148 78.7028 54.1042C78.7072 53.9143 78.7138 53.7266 78.7271 53.5367C78.7315 53.4572 78.8198 52.6889 78.7558 53.1393C78.7823 52.9583 78.7955 52.775 78.7977 52.5918C79.1378 50.6444 79.5462 48.7103 80.0364 46.7961C80.107 46.5046 80.0982 46.2176 80.0055 45.9328C80.096 45.8158 80.1556 45.6877 80.1887 45.5442C81.1425 41.5678 81.6172 37.5362 81.615 33.4494C81.6305 33.4075 81.6415 33.3633 81.6503 33.3214C81.9594 28.2035 79.6875 23.2247 75.795 19.9482ZM78.6542 32.648C78.6697 32.7584 78.6962 32.8643 78.7381 32.9681C78.5328 36.2777 78.1 39.5586 77.4377 42.8064C77.0292 44.6765 76.2653 46.4494 75.6316 48.2555C75.5345 48.3504 75.4594 48.4586 75.4042 48.5822C75.051 49.4168 74.6315 50.2139 74.1435 50.9756C74.0155 51.1743 73.883 51.3708 73.7461 51.5651C73.6843 51.6512 73.6225 51.7395 73.5584 51.8256C73.5452 51.8411 73.4701 51.9382 73.4282 51.9912C73.1588 52.318 72.8895 52.6425 72.6002 52.9516C72.2911 53.2806 71.9666 53.5963 71.631 53.8988C71.4698 54.0423 71.3086 54.1836 71.143 54.3205C71.0613 54.389 70.9774 54.453 70.8957 54.5192C70.8692 54.5391 70.8317 54.5678 70.7898 54.5987C70.2996 54.9542 69.7918 55.2832 69.2663 55.5856C69.061 55.6762 68.8534 55.7579 68.6393 55.8285C67.5066 56.184 66.3585 56.524 65.195 56.7691C62.7177 57.2923 60.4503 56.8574 58.0503 56.1774C57.973 56.1575 57.8935 56.142 57.814 56.1332C57.7368 56.089 57.6573 56.0405 57.5866 56.0029C56.8315 55.6099 56.0742 55.2169 55.3213 54.8173C53.948 54.1351 52.7558 53.2166 51.7446 52.0641C49.9341 49.9379 49.1547 47.4099 48.5343 44.7714C48.5321 44.151 48.5476 43.5328 48.5939 42.9124C48.6072 42.8572 48.6182 42.802 48.6248 42.7468C48.6977 39.7154 48.8081 36.6553 49.6581 33.7232C50.1152 32.2528 50.7135 30.8397 51.4531 29.4863C52.142 28.1594 52.7933 26.7463 53.884 25.6954C58.4499 21.3039 64.7424 19.9394 70.7611 21.6461C70.9774 21.7168 71.1982 21.7322 71.4212 21.6925C71.6464 21.6549 71.8473 21.5666 72.0284 21.4275C73.3288 22.1605 74.4681 23.0901 75.4462 24.2139C76.0776 25.0529 76.6539 25.925 77.1749 26.8346C78.1751 28.6031 78.4246 30.6653 78.6542 32.648ZM107.359 62.7458H105.083V50.7018H107.359V62.7458ZM120.816 62.7458H118.537V47.8735H120.816V62.7458ZM143.804 68.9544V72.1536H97.5007V68.9544H143.804ZM97.5007 83.4425H136.823V86.6439H97.5007V83.4425Z" fill="#CCD877"/>
<path d="M78.7226 34.0604C78.3164 37.2287 78.0492 40.4522 77.4641 43.5918C77.0093 46.0315 75.8104 48.1577 74.4349 50.1757C73.7019 51.6219 72.7128 52.8649 71.4653 53.9026C69.7586 55.298 67.7605 56.3644 65.557 56.6978C65.4003 56.7221 65.2524 56.7353 65.1066 56.7442C65.0713 56.753 65.0404 56.7707 65.0051 56.7795C62.2055 57.3359 58.993 57.0776 56.4341 55.6667C56.1846 55.5917 55.9417 55.4945 55.7077 55.3775C55.5774 55.3179 55.4538 55.2472 55.3346 55.1678C55.2705 55.1258 55.2087 55.0816 55.1469 55.0353C54.9305 54.8719 54.7097 54.7107 54.5044 54.5341C54.4183 54.4546 54.3388 54.3707 54.2659 54.2824C54.1313 54.2117 54.0054 54.1278 53.884 54.0329C53.4777 53.8033 53.1112 53.5185 52.7867 53.1807C52.1552 52.4962 51.5701 51.7764 51.027 51.0191C50.5589 50.4076 50.1151 49.7783 49.6934 49.1314C49.3843 48.6081 49.285 48.0473 49.3954 47.449C49.3821 47.3651 49.3755 47.2768 49.3733 47.1907C49.2938 46.3826 49.2607 45.5723 49.2717 44.7598C49.2761 44.6295 49.2894 44.4993 49.3137 44.369V44.3668C49.4108 42.181 49.6449 40.0107 50.018 37.8536C50.3337 35.9945 50.6693 33.8043 52.1663 32.4862C53.9193 29.2605 57.3636 26.9047 60.8035 25.878C62.9186 25.2466 65.1596 25.1582 67.3454 25.3503C68.9528 25.4916 70.4784 25.655 71.7811 26.3417C72.6112 26.6817 73.3619 27.1475 74.0375 27.737C74.6381 28.2294 75.2033 28.7593 75.7398 29.3223C76.5126 30.1127 77.144 31.0047 77.6364 31.996C78.323 32.4774 78.8242 33.2567 78.7226 34.0604ZM102.846 117.841C102.632 116.761 101.994 115.772 100.918 115.41C100.868 115.35 100.808 115.297 100.742 115.255C100.625 115.189 100.499 115.149 100.366 115.132C100.232 115.114 100.102 115.123 99.9713 115.158C99.841 115.191 99.7218 115.249 99.6136 115.328C99.5054 115.408 99.4171 115.505 99.3464 115.62C99.1257 115.971 98.9711 116.35 98.8784 116.754C98.8386 116.935 98.8188 117.121 98.7768 117.3C98.7614 117.377 98.7393 117.452 98.7128 117.527C98.7084 117.54 98.704 117.554 98.6995 117.567C98.5604 117.836 98.4059 118.097 98.2668 118.368C98.2072 118.488 98.1696 118.607 98.1211 118.724C97.4278 118.744 96.7367 118.708 96.0479 118.613C95.242 118.516 94.4383 118.523 93.6347 118.638C93.1158 118.722 92.6301 118.956 92.4181 119.468C92.3055 119.737 92.2901 120.011 92.3695 120.291C92.4027 120.391 92.4446 120.488 92.4954 120.581C91.8573 120.287 91.2016 120.159 90.6584 120.669C89.7444 121.532 90.4134 122.486 91.2457 123.104C90.994 123.038 90.7534 123.069 90.5282 123.199C90.4112 123.268 90.314 123.356 90.2323 123.464C90.1506 123.57 90.0932 123.689 90.0601 123.82C90.0248 123.95 90.0182 124.082 90.0358 124.215C90.0535 124.347 90.0954 124.473 90.1617 124.59C90.5127 125.118 90.9764 125.511 91.5548 125.771C91.3848 125.851 91.2546 125.97 91.1618 126.131C91.0956 126.248 91.0536 126.374 91.036 126.507C91.0205 126.641 91.0272 126.772 91.0625 126.902C91.0956 127.032 91.153 127.151 91.2347 127.259C91.3142 127.365 91.4135 127.454 91.5283 127.524C91.9942 127.785 92.4821 127.999 92.9878 128.167C93.4934 128.31 94.01 128.399 94.5355 128.432C95.5688 128.522 96.6175 128.582 97.5801 128.136C97.695 128.068 97.7943 127.979 97.876 127.871C97.9577 127.763 98.0151 127.646 98.0504 127.513C98.0835 127.383 98.0924 127.253 98.0747 127.118C98.0548 126.986 98.0129 126.86 97.9444 126.743C97.9224 126.716 97.8981 126.69 97.8716 126.663C98.598 126.553 99.2802 126.317 99.9205 125.957C100.042 125.888 100.143 125.796 100.227 125.683C100.309 125.568 100.364 125.445 100.395 125.308C100.424 125.171 100.424 125.034 100.395 124.897C100.366 124.76 100.311 124.634 100.232 124.522C101.1 124.186 101.749 123.608 102.181 122.784C102.241 122.678 102.281 122.563 102.298 122.442C102.316 122.32 102.312 122.201 102.285 122.08C102.259 121.961 102.21 121.85 102.144 121.749C102.075 121.645 101.989 121.559 101.89 121.488C102.177 121.362 102.42 121.177 102.616 120.934C102.786 120.74 102.934 120.528 103.06 120.302C103.217 119.987 103.294 119.653 103.296 119.302C103.283 118.772 103.133 118.287 102.846 117.841ZM68.7717 119.656C69.1647 118.978 68.8556 118.015 68.2065 117.54C67.6965 117.167 67.0032 117.284 66.4159 117.309C65.7889 117.333 65.1618 117.359 64.5348 117.377C63.2851 117.412 62.0377 117.377 60.7924 117.269C58.8296 117.103 56.4959 117.094 54.8775 115.845C55.4891 115.498 56.0234 115.061 56.4827 114.531C56.816 114.109 57.1119 113.661 57.3724 113.189C57.686 112.628 57.9531 112.052 57.8295 111.391C57.7632 111.067 57.6087 110.789 57.368 110.559C57.1252 110.332 56.8403 110.193 56.5092 110.144C55.8026 110.049 55.3787 110.488 54.9658 110.979C54.6192 111.394 54.2395 111.773 53.8266 112.124C53.7361 112.202 53.6455 112.277 53.5528 112.35C53.5373 112.361 53.5263 112.367 53.502 112.385C53.4446 112.427 53.3894 112.467 53.332 112.506C53.1046 112.668 52.8706 112.816 52.6299 112.957C52.5217 113.023 52.4312 113.107 52.3561 113.206C52.036 113.376 51.7181 113.549 51.3913 113.705C50.9563 113.913 50.5059 114.089 50.0666 114.288C49.5146 114.538 49.0112 114.864 48.5564 115.266C48.3952 115.377 48.223 115.472 48.0662 115.597C47.7549 115.871 47.4944 116.189 47.2846 116.549C47.1036 116.832 46.9534 117.13 46.8386 117.445C46.6134 117.454 46.3882 117.459 46.1652 117.463C45.6044 117.441 45.0525 117.492 44.5049 117.615C44.315 117.679 44.1583 117.788 44.0302 117.942C43.8999 118.004 43.8227 118.103 43.7962 118.245C43.1581 121.234 43.1117 124.23 43.6571 127.237C43.6637 127.262 43.6725 127.286 43.6858 127.308C43.6902 127.379 43.7123 127.445 43.7476 127.505C43.8072 127.599 43.8867 127.668 43.9905 127.71C44.0942 127.75 44.198 127.756 44.3062 127.728C44.3857 127.745 44.4652 127.747 44.5446 127.734C46.0769 127.427 47.5739 127.003 49.0377 126.467C50.6649 126.774 52.2192 127.299 53.6985 128.039C55.5929 128.962 57.5535 129.315 59.6488 129.443C59.7371 129.443 59.8276 129.434 59.9137 129.414C60.4127 129.45 60.9117 129.434 61.4062 129.368C62.2099 129.284 63.0047 129.154 63.793 128.975C65.1265 128.673 66.3541 128.189 66.9127 126.853C66.9966 126.604 66.9723 126.367 66.8376 126.14C67.8422 126.076 68.7806 125.787 69.4142 124.977C69.752 124.544 69.8359 123.961 69.4142 123.539C69.2354 123.374 69.0234 123.283 68.7806 123.265C68.7872 123.228 68.7872 123.19 68.7894 123.151C68.8887 123.122 68.9859 123.111 69.0874 123.076C69.975 122.771 70.7986 122.214 70.655 121.141C70.5159 120.119 69.6593 119.788 68.7717 119.656Z" fill="#B57041"/>
<mask id="mask0_6699_13833" style="mask-type:luminance" maskUnits="userSpaceOnUse" x="22" y="14" width="130" height="120">
<path d="M22 14H152V133.53H22V14Z" fill="white"/>
</mask>
<g mask="url(#mask0_6699_13833)">
<path d="M147.216 23.7788H139.444V22.9773C139.444 22.8007 139.411 22.6329 139.344 22.4695C139.276 22.3083 139.181 22.1648 139.055 22.0412C138.932 21.9176 138.788 21.8226 138.627 21.7542C138.463 21.6879 138.296 21.6548 138.119 21.6548H104.473C104.299 21.6548 104.129 21.6879 103.968 21.7542C103.804 21.8226 103.661 21.9176 103.537 22.0412C103.413 22.1648 103.316 22.3083 103.25 22.4695C103.182 22.6329 103.148 22.8007 103.148 22.9773V23.7788H94.6039C94.2904 23.7788 93.9791 23.8097 93.6722 23.8715C93.3653 23.9311 93.065 24.0217 92.7758 24.1409C92.4866 24.2623 92.2106 24.408 91.9501 24.5825C91.6895 24.7547 91.4489 24.9534 91.2281 25.1742C91.0051 25.395 90.8086 25.6356 90.6342 25.8962C90.4597 26.1567 90.3118 26.4305 90.1926 26.7197C90.0734 27.0089 89.9828 27.307 89.921 27.6117C89.8592 27.9186 89.8283 28.2299 89.8283 28.5412V73.6084C89.3315 71.5794 88.7199 69.5393 87.6381 67.7509C86.1323 65.2627 83.58 63.8916 80.7892 63.3264C80.9813 62.6993 80.9791 62.0745 80.7826 61.4496C80.5243 60.6791 80.054 59.9991 79.7648 59.2418C79.2812 57.853 79.0737 56.4245 79.1422 54.9563C79.1907 52.181 79.7758 49.4587 80.3322 46.7518C81.498 41.0974 82.9331 35.0522 81.8578 29.2742C81.5134 27.3975 80.882 25.6202 79.9657 23.9444C79.0494 22.2686 77.8925 20.7783 76.4971 19.4734C71.1364 14.5211 63.0798 13.1456 56.1736 15.1879C54.3874 15.7068 52.7006 16.4553 51.1197 17.4356C49.5367 18.4136 48.1148 19.5882 46.8541 20.9549C43.624 24.5118 41.9018 29.2588 40.9789 33.9041C40.3916 36.8583 40.2835 39.8522 39.8684 42.8262C39.44 45.6589 38.7534 48.4276 37.8084 51.1344C37.0489 53.3798 36.1635 55.5811 35.4107 57.8287C34.7925 59.6657 34.2361 61.591 34.2361 63.5449C34.2339 64.3928 34.3575 65.2229 34.6092 66.031C34.6114 66.042 34.618 66.0465 34.6224 66.0575C33.5538 66.5918 32.6221 67.3072 31.8317 68.2014C30.6063 69.6563 29.9329 71.4867 29.3699 73.2618C28.5044 76.0106 27.7957 78.7992 27.2393 81.6275C26.4047 85.8291 25.6253 90.0682 25.0093 94.3139C24.4706 98.0298 24.1416 101.77 23.7862 105.508C23.6073 107.396 23.4197 109.283 23.1923 111.167C22.9825 112.918 22.6756 114.655 22.4592 116.404C21.9316 120.656 22.5056 125.268 25.8461 128.291C27.6765 129.947 30.0036 130.945 32.3682 131.574C34.1897 132.02 36.0267 132.373 37.8835 132.632C39.9677 132.965 42.0586 133.252 44.1561 133.491C44.1627 133.491 44.1693 133.493 44.1759 133.493C44.2024 133.497 44.2289 133.499 44.2554 133.504C44.3371 133.517 44.4188 133.506 44.4939 133.471C44.5712 133.433 44.6286 133.378 44.6683 133.303C45.4433 132.683 45.8804 131.828 46.2514 130.921C46.7018 129.87 46.9976 128.777 47.1389 127.642C47.1367 127.624 47.1345 127.607 47.1301 127.591L48.2914 127.214C48.8456 127.035 49.4064 127.013 49.9738 127.15C52.0713 127.649 53.9083 128.874 55.9991 129.415C58.0326 129.938 60.3133 129.861 62.3954 129.733C63.8305 129.644 65.471 129.302 66.6323 128.408H91.8463C91.9766 128.465 92.1068 128.518 92.2305 128.567C93.5949 129.095 95.2199 129.413 96.6528 129.02C97.1673 128.878 97.6265 128.633 98.0306 128.284C98.4346 127.936 98.7437 127.516 98.9579 127.028C99.0727 126.986 99.1919 126.957 99.3045 126.909C100.06 126.584 101.272 125.461 100.945 124.513C102.184 123.855 103.12 122.694 102.945 121.21C103.378 120.747 103.625 120.199 103.685 119.568C103.915 117.481 102.537 115.273 100.45 114.81L104.462 106.656C104.694 106.21 104.815 105.738 104.826 105.234C104.837 104.733 104.736 104.256 104.524 103.801C104.396 103.545 104.237 103.311 104.045 103.101C103.853 102.889 103.634 102.708 103.391 102.558C103.148 102.408 102.89 102.295 102.614 102.216C102.34 102.139 102.06 102.101 101.773 102.101H95.5202C95.359 101.218 95.1934 100.337 95.0301 99.4539H117.851V127.781C117.851 127.9 117.873 128.015 117.919 128.123C117.966 128.234 118.03 128.331 118.113 128.415C118.197 128.499 118.294 128.563 118.405 128.609C118.515 128.653 118.63 128.677 118.749 128.677H123.072C123.189 128.677 123.304 128.653 123.415 128.609C123.525 128.563 123.622 128.499 123.706 128.415C123.79 128.331 123.856 128.234 123.9 128.123C123.947 128.015 123.969 127.9 123.969 127.781V99.4539H147.216C147.529 99.4539 147.84 99.423 148.147 99.3634C148.454 99.3016 148.752 99.211 149.044 99.0918C149.333 98.9726 149.607 98.8246 149.869 98.6502C150.13 98.478 150.371 98.2793 150.591 98.0585C150.814 97.8377 151.011 97.5971 151.185 97.3365C151.36 97.076 151.508 96.8022 151.627 96.513C151.746 96.2238 151.837 95.9257 151.898 95.6188C151.96 95.3119 151.991 95.0028 151.991 94.6893V28.5434C151.991 28.2299 151.96 27.9208 151.898 27.6139C151.837 27.307 151.746 27.0089 151.627 26.7197C151.508 26.4305 151.36 26.1567 151.185 25.8962C151.011 25.6356 150.814 25.395 150.591 25.1742C150.371 24.9534 150.13 24.7547 149.869 24.5825C149.609 24.408 149.333 24.2623 149.044 24.1409C148.754 24.0217 148.454 23.9311 148.147 23.8715C147.84 23.8097 147.529 23.7788 147.216 23.7788ZM81.9484 64.6798C83.8516 65.2936 85.5627 66.36 86.6644 68.1108C87.9604 70.1752 88.561 72.6171 89.1041 74.9663C90.4244 80.656 91.5482 86.3943 92.6367 92.1304C93.2682 95.4532 93.8842 98.7761 94.4869 102.101H86.6114C87.3621 98.6767 87.7021 95.2126 87.6314 91.7064C87.563 88.2025 87.0839 84.7538 86.1985 81.3625C86.0307 80.7289 85.0482 80.9982 85.2138 81.6319C86.0926 84.9812 86.5606 88.3858 86.6224 91.8455C86.6821 95.3053 86.3332 98.7253 85.5737 102.101H80.5419C81.0983 98.7849 81.6017 95.4576 82.0566 92.1237C82.1272 91.596 82.359 90.8785 82.2751 90.3398C82.2023 90.1079 82.0853 89.9004 81.9285 89.7149C81.6569 89.3065 81.3876 88.8958 81.1182 88.4874C80.7495 87.9266 80.3786 87.3635 80.0098 86.8027C80.8179 86.4958 81.626 86.189 82.4341 85.8799C82.5666 85.8379 82.6659 85.7584 82.7344 85.637C82.8028 85.5178 82.8227 85.3897 82.7896 85.255C82.7631 85.0585 82.7741 85.1446 82.7542 84.9967C82.7101 84.6589 82.6681 84.3211 82.6262 83.9833C82.4805 82.791 82.3502 81.5944 82.2354 80.3977C81.9042 76.9423 81.679 73.4716 81.6834 69.9986C81.6768 68.2212 81.7651 66.4483 81.9484 64.6798ZM94.7055 107.44H98.8563C99.7395 107.44 100.287 108.188 100.082 109.111C99.8764 110.036 98.9932 110.785 98.1123 110.785H93.9614C93.0805 110.785 92.5307 110.036 92.7383 109.111C92.9436 108.188 93.8246 107.44 94.7055 107.44ZM80.9614 64.406C80.5508 67.8834 80.6148 71.416 80.8003 74.9067C80.957 77.8498 81.222 80.7885 81.573 83.7139C81.6282 84.1621 81.6878 84.6103 81.7474 85.0585C80.8643 85.3941 79.9834 85.7297 79.1024 86.0653C79.0251 86.0874 78.9589 86.1249 78.8993 86.1779C78.8419 86.2287 78.7977 86.2927 78.769 86.3656C78.7381 86.4384 78.7271 86.5135 78.7315 86.5908C78.7359 86.6703 78.758 86.7431 78.7955 86.8116C79.1731 87.3834 79.5506 87.9575 79.9259 88.5293C80.2041 88.9488 80.4801 89.3683 80.7561 89.7878C80.893 90.0572 81.0564 90.3111 81.2418 90.5495C81.2374 90.5959 81.2352 90.6423 81.233 90.6511C81.1668 90.9933 81.1425 91.3466 81.0961 91.691C80.9107 93.051 80.7186 94.4111 80.5177 95.7689C80.2041 97.8841 79.8708 99.9948 79.5153 102.101H76.623C76.9497 94.1881 76.4287 86.3303 75.0554 78.5276C74.6601 76.3043 74.1722 74.1008 73.5893 71.9172C73.841 71.8068 74.0927 71.6986 74.3378 71.575C77.3361 70.0692 79.4027 67.4308 80.4514 64.2912C80.6214 64.3243 80.7914 64.3663 80.9614 64.406ZM50.9762 93.698C51.2147 93.1526 51.4884 92.6227 51.7953 92.1127C52.3937 90.9447 52.992 89.7745 53.5903 88.6066C53.6345 88.5293 53.6566 88.4432 53.6544 88.3527C53.6544 88.2622 53.6323 88.1783 53.5859 88.101C53.5418 88.0215 53.48 87.9597 53.4027 87.9133C53.3254 87.8669 53.2393 87.8427 53.1488 87.8427C51.7821 87.8316 50.4154 87.8206 49.0487 87.8095C47.5363 81.4001 45.4896 74.8559 41.7959 69.3428C40.8862 67.9761 39.8529 66.7088 38.7004 65.5386C40.1024 65.1655 41.5221 64.8741 42.9572 64.6621C43.1073 64.7372 43.2575 64.81 43.4054 64.8962C44.9421 65.7749 46.2756 66.9539 47.7306 67.9541C49.5477 69.1574 51.4862 70.1178 53.5462 70.8376C56.7255 80.2144 58.3174 90.1543 59.3264 99.9772C59.587 102.512 59.7967 105.053 59.9535 107.599L58.2092 111.145C57.7787 109.924 56.476 109.058 55.2176 109.921C54.3918 106.705 53.5197 103.499 52.6564 100.293C52.0735 98.1203 51.3979 95.9412 50.9961 93.7267C51.0027 93.762 51.038 93.5235 50.9762 93.698ZM59.2204 115.536L63.7908 106.248C63.8526 106.122 63.9497 106.036 64.0822 105.991C64.2169 105.945 64.3471 105.954 64.473 106.016C64.5988 106.078 64.6849 106.175 64.7313 106.307C64.7755 106.44 64.7688 106.57 64.707 106.696L60.1367 115.984C60.0749 116.11 59.9777 116.194 59.8453 116.24C59.7106 116.285 59.5825 116.278 59.4545 116.216C59.3286 116.154 59.2425 116.057 59.1984 115.925C59.152 115.79 59.1586 115.662 59.2204 115.536ZM64.5723 102.101C64.2853 102.101 64.0027 102.139 63.7267 102.218C63.4507 102.295 63.1902 102.41 62.9451 102.563C62.7023 102.715 62.4837 102.896 62.2916 103.11C62.0995 103.322 61.9383 103.558 61.8147 103.817L60.8432 105.791C60.2007 96.5925 58.9555 87.379 56.7851 78.4194C56.2001 76.0062 55.52 73.6173 54.7429 71.2526C55.1955 71.405 55.6481 71.5617 56.0963 71.6986C61.2583 73.2729 67.4006 74.167 72.6333 72.2926C74.722 80.1239 75.5698 88.2975 75.6802 96.3849C75.7067 98.2903 75.6802 100.196 75.6029 102.101H64.5723ZM35.6513 60.6107C36.1503 58.5529 36.9253 56.5702 37.6561 54.5898C38.5613 52.2185 39.3451 49.8075 40.0008 47.3568C40.725 44.5174 40.9988 41.6648 41.2991 38.7593C41.8268 33.6701 42.9771 28.2939 45.8186 23.9466C46.832 22.4187 48.0419 21.0653 49.4484 19.8863C50.8548 18.7073 52.4003 17.7535 54.0871 17.0249C60.4591 14.2319 68.3544 14.7817 74.0795 18.8199C75.5411 19.8554 76.804 21.094 77.866 22.5358C78.928 23.9775 79.7361 25.5495 80.288 27.2518C82.008 32.5441 80.9791 38.3155 79.9282 43.6365C79.0273 48.2046 77.5216 53.0862 78.3164 57.7779C78.5063 58.8267 78.8507 59.8224 79.3475 60.7652C79.6742 61.4011 79.9524 61.8758 79.9149 62.5293C79.8641 62.9333 79.7537 63.3219 79.5837 63.6929C78.7028 66.5609 76.9232 68.9918 74.276 70.4578C71.6994 71.8863 68.6812 72.3235 65.769 72.2881C62.6095 72.2131 59.5207 71.703 56.5048 70.7581C53.672 69.9058 50.7665 68.7975 48.3113 67.1217C46.7238 66.0376 45.2821 64.7306 43.5754 63.8275C42.6437 63.333 41.6568 63.0018 40.6146 62.8318C39.5725 62.6596 38.5304 62.6596 37.4883 62.8296C36.8414 62.9245 37.1151 63.9048 37.7598 63.8099C38.8726 63.6443 39.9766 63.6951 41.0695 63.9622C39.1663 64.2956 37.3271 64.8432 35.552 65.6049C35.0773 63.9622 35.2539 62.2533 35.6513 60.6107ZM33.6355 130.837C31.4652 130.351 29.3125 129.605 27.4844 128.309C24.0357 125.865 23.0708 121.791 23.3468 117.77C23.4484 116.258 23.7354 114.768 23.9429 113.266C24.1836 111.505 24.3845 109.738 24.5656 107.97C24.9321 104.362 25.2213 100.746 25.654 97.1423C26.0934 93.5147 26.7425 89.9114 27.385 86.3148C28.0121 82.8065 28.7142 79.307 29.6658 75.8693C30.1625 74.0677 30.6593 72.202 31.5182 70.5329C32.2159 69.1375 33.2359 68.0402 34.5783 67.2409C35.5387 66.6757 36.5477 66.2209 37.6053 65.8742C37.6097 65.8787 37.6097 65.8809 37.6141 65.8853C40.6036 68.7555 42.6878 72.4405 44.3062 76.2204C45.9908 80.1526 47.1853 84.2902 48.1568 88.4498C48.1877 88.5602 48.2495 88.6507 48.34 88.7192C48.4305 88.7876 48.5321 88.823 48.6469 88.8252C49.8723 88.834 51.0954 88.8428 52.3208 88.8517C51.9102 89.6553 51.4995 90.4568 51.0888 91.2605C50.8195 91.7859 50.5501 92.3136 50.2785 92.8413C50.1262 93.0731 50.0224 93.3248 49.9694 93.5964C49.9209 94.2168 50.2167 94.9763 50.3624 95.5658C51.1109 98.6105 51.9653 101.633 52.7778 104.662C53.3188 106.676 53.8553 108.689 54.3697 110.71C53.9856 111.142 53.6301 111.61 53.215 112.003C52.3738 112.798 51.3781 113.249 50.3116 113.675C48.6138 114.355 47.1102 115.322 46.386 117.037C46.1277 117.06 45.8672 117.082 45.6089 117.104C45.6022 117.082 45.5956 117.06 45.5868 117.037C45.2887 116.552 44.8869 116.176 44.3791 115.916C44.3614 115.907 44.3415 115.905 44.3239 115.896C44.2356 115.83 44.1384 115.805 44.0324 115.823C42.2109 116.066 40.5263 115.419 38.8748 114.708C38.8991 114.671 38.9146 114.631 38.9278 114.591C40.6787 106.133 42.8203 97.7605 44.5734 89.3021C44.7058 88.664 43.7211 88.3902 43.5886 89.0327C41.8378 97.4867 39.6984 105.855 37.9453 114.309C37.581 114.152 37.2167 113.997 36.8546 113.858C35.7352 113.392 34.5673 113.138 33.3551 113.099C31.8339 113.094 30.3899 113.622 29.0012 114.189C28.4006 114.432 28.6634 115.417 29.2728 115.17C30.6306 114.615 32.0481 114.072 33.5428 114.119C34.7814 114.158 35.9781 114.584 37.1151 115.05C39.1685 115.892 41.2505 116.984 43.5158 116.872C42.3787 121.952 42.626 127.322 43.6262 132.411C40.268 132.06 36.9385 131.534 33.6355 130.837ZM70.2024 121.917C69.7565 122.771 68.2992 122.948 67.4691 123.096C64.9653 123.542 62.391 123.359 59.8696 123.191C59.216 123.147 59.2182 124.164 59.8696 124.209C61.5365 124.346 63.2035 124.401 64.8748 124.37C66.3033 124.319 67.8466 124.187 69.2177 123.716C69.2398 123.76 69.2707 123.8 69.306 123.833C69.9794 124.418 69.0168 125.143 68.5178 125.381C67.8775 125.659 67.2108 125.84 66.5175 125.924C64.4399 126.251 62.3534 126.302 60.2626 126.079C59.6112 126.006 59.6157 127.024 60.2626 127.094C62.4042 127.335 64.5392 127.275 66.6632 126.916C65.7249 128.459 63.3116 128.695 61.6911 128.748C59.5958 128.814 57.4541 128.854 55.4428 128.189C53.6146 127.585 51.9102 126.474 50.0025 126.118C49.4749 125.99 48.945 125.984 48.4151 126.103C47.9183 126.244 47.4304 126.425 46.9402 126.584C45.9422 126.909 44.9443 127.236 43.9463 127.56C43.6306 124.438 43.7388 121.33 44.2709 118.236C45.0922 118.166 45.9135 118.095 46.7327 118.024C46.8475 118.02 46.949 117.985 47.0396 117.916C47.1279 117.848 47.1919 117.759 47.225 117.651C47.7726 116.035 49.1967 115.212 50.6892 114.613C52.1464 114.03 53.3894 113.353 54.4625 112.182C54.8908 111.714 55.3147 110.966 55.9042 110.681C56.7476 110.275 57.3702 111.273 57.3482 112.008C57.3062 113.505 55.8137 114.894 54.6148 115.587L54.6126 115.589C54.5949 115.602 54.5795 115.618 54.564 115.633C54.4625 115.711 54.4006 115.81 54.3786 115.934C54.3587 116.059 54.383 116.174 54.4514 116.278C54.4779 116.322 54.511 116.362 54.5508 116.397C54.5596 116.406 54.5662 116.415 54.5751 116.424C54.5905 116.437 54.5971 116.452 54.6148 116.466C55.7717 117.263 57.3724 117.486 58.7325 117.687C60.7748 117.976 62.8281 118.124 64.8925 118.133C65.5416 118.139 66.1951 118.126 66.8443 118.139C67.3521 118.148 68.0696 118.163 68.3898 118.638C69.0742 119.652 67.1997 119.983 66.5926 120.076C64.2942 120.407 62.0068 120.358 59.7238 119.925C59.0836 119.806 58.8076 120.786 59.4545 120.906C61.4372 121.277 63.4375 121.38 65.4489 121.224C66.5594 121.133 68.4141 121.029 69.1846 120.016C69.9993 120.146 70.6021 121.149 70.2024 121.917ZM89.5214 105.638H66.8156C66.6765 105.638 66.5572 105.587 66.4579 105.49C66.3585 105.391 66.3077 105.269 66.3077 105.13C66.3077 104.991 66.3585 104.87 66.4579 104.77C66.5572 104.671 66.6765 104.623 66.8156 104.623H89.5214C89.6627 104.62 89.7841 104.671 89.8835 104.77C89.9828 104.87 90.0336 104.989 90.0336 105.13C90.0336 105.272 89.9828 105.391 89.8835 105.49C89.7841 105.59 89.6627 105.64 89.5214 105.638ZM96.0744 128.11C95.2994 128.225 94.5333 128.181 93.776 127.978C93.096 127.836 92.4535 127.6 91.8419 127.271C91.7315 127.211 91.6277 127.139 91.5306 127.055C91.4798 127.008 91.4312 126.957 91.3871 126.904C91.4555 126.982 91.3385 126.763 91.376 126.889C91.365 126.854 91.3606 126.838 91.3584 126.829C91.3606 126.838 91.365 126.849 91.3584 126.812C91.3782 126.911 91.3893 126.746 91.3584 126.799C91.4356 126.673 91.535 126.564 91.652 126.474C91.6674 126.461 91.6719 126.447 91.6829 126.434C91.8485 126.496 92.0141 126.56 92.1797 126.613C93.7804 127.141 95.7101 127.558 97.4852 127.366C97.0966 127.768 96.6264 128.015 96.0744 128.11ZM99.2957 125.754C98.8894 126.028 98.4412 126.196 97.9533 126.258C96.761 126.443 95.5754 126.401 94.3964 126.136C93.3675 125.973 92.3806 125.672 91.4334 125.238C90.9963 125.05 90.643 124.763 90.3692 124.376C90.1462 123.994 90.3582 123.703 90.6496 123.473C91.1309 123.769 91.641 124.001 92.1819 124.169C93.4558 124.56 94.7585 124.814 96.0854 124.931C97.0768 125.083 98.0725 125.136 99.0749 125.092C99.3752 125.061 99.671 125.003 99.9625 124.917C99.8984 125.189 99.4723 125.617 99.2957 125.754ZM98.9888 124.083C98.2425 124.109 97.4985 124.076 96.7588 123.981C95.7344 123.897 94.7188 123.747 93.7142 123.531C92.82 123.33 91.8132 123.087 91.0669 122.522C90.7887 122.343 90.6121 122.094 90.537 121.771C90.4355 121.034 91.1861 120.778 91.7955 120.691C92.1377 121.272 92.8156 121.614 93.4338 121.82C94.3257 122.085 95.2354 122.252 96.1627 122.321C97.0635 122.438 97.9665 122.509 98.874 122.533C99.9095 122.559 100.907 122.378 101.866 121.985C101.563 123.197 100.245 123.981 98.9888 124.083ZM102.689 119.073C102.7 119.698 102.543 120.351 102.033 120.758C101.258 121.378 100.121 121.489 99.1654 121.511C97.6199 121.535 96.092 121.387 94.5819 121.069C93.9924 120.945 93.1754 120.793 92.7515 120.318C92.6787 120.223 92.6301 120.117 92.608 120C92.5859 119.883 92.5903 119.766 92.6235 119.652C92.6566 119.539 92.714 119.437 92.7979 119.349C92.8796 119.263 92.9767 119.199 93.0893 119.159C93.9173 118.824 95.0389 119.055 95.8978 119.117C97.1496 119.25 98.3927 119.199 99.6269 118.963C100.267 118.819 99.9978 117.839 99.3575 117.982C99.1875 118.02 99.0175 118.049 98.8475 118.071L99.9934 115.739C101.592 116.011 102.663 117.483 102.689 119.073ZM101.548 104.623C101.689 104.62 101.81 104.671 101.91 104.77C102.009 104.87 102.06 104.989 102.06 105.13C102.06 105.272 102.009 105.391 101.91 105.49C101.81 105.59 101.689 105.64 101.548 105.638H94.275C94.1359 105.638 94.0144 105.587 93.9173 105.49C93.8179 105.391 93.7672 105.269 93.7672 105.13C93.7672 104.989 93.8179 104.87 93.9173 104.77C94.0144 104.671 94.1359 104.623 94.275 104.623H101.548ZM149.951 94.6915C149.951 94.8703 149.933 95.047 149.898 95.2236C149.863 95.398 149.81 95.568 149.741 95.7336C149.673 95.8992 149.589 96.0582 149.49 96.2061C149.39 96.354 149.275 96.4931 149.15 96.619C149.022 96.747 148.885 96.8596 148.735 96.959C148.584 97.0583 148.428 97.1422 148.262 97.2107C148.096 97.2791 147.924 97.3321 147.75 97.3675C147.573 97.4006 147.394 97.4182 147.216 97.4204H94.6547C93.7804 92.6845 92.8906 87.9531 91.9302 83.2348C91.9103 83.1377 91.8882 83.0405 91.8684 82.9434V28.5434C91.8684 28.3624 91.886 28.1857 91.9214 28.0113C91.9567 27.8347 92.0097 27.6647 92.0781 27.4991C92.1466 27.3335 92.2305 27.1767 92.3298 27.0266C92.4292 26.8787 92.544 26.7396 92.6698 26.6137C92.7979 26.4879 92.9348 26.3753 93.0849 26.2737C93.2328 26.1743 93.3918 26.0904 93.5574 26.022C93.723 25.9536 93.893 25.9028 94.0696 25.8674C94.2463 25.8321 94.4229 25.8145 94.6039 25.8145H103.148V26.6159C103.148 26.7903 103.182 26.9603 103.25 27.1215C103.316 27.2849 103.413 27.4262 103.537 27.5521C103.661 27.6757 103.804 27.7706 103.968 27.8369C104.129 27.9053 104.299 27.9384 104.473 27.9384H138.119C138.296 27.9384 138.463 27.9053 138.627 27.8369C138.788 27.7706 138.932 27.6757 139.055 27.5521C139.181 27.4262 139.276 27.2849 139.342 27.1215C139.411 26.9603 139.444 26.7903 139.444 26.6159V25.8145H147.216C147.394 25.8145 147.573 25.8321 147.75 25.8674C147.924 25.9006 148.096 25.9536 148.262 26.022C148.428 26.0904 148.584 26.1743 148.735 26.2737C148.885 26.3731 149.022 26.4879 149.15 26.6137C149.275 26.7396 149.39 26.8787 149.49 27.0266C149.589 27.1767 149.673 27.3335 149.741 27.4991C149.81 27.6647 149.863 27.8347 149.898 28.0091C149.933 28.1857 149.951 28.3624 149.951 28.5434V94.6915ZM29.6547 110.431C30.9066 110.202 32.1629 110.189 33.4192 110.396C34.6776 110.604 35.8633 111.017 36.976 111.635C37.5501 111.955 37.0335 112.834 36.4616 112.514C35.4681 111.959 34.4105 111.586 33.2889 111.399C32.1673 111.209 31.0457 111.213 29.9263 111.412C29.2816 111.529 29.01 110.548 29.6547 110.431ZM39.9501 129.099C40.0759 129.739 39.0934 130.011 38.9653 129.368C38.2301 125.639 38.2036 121.904 38.8837 118.163C39.0007 117.521 39.9832 117.795 39.8662 118.435C39.2215 121.994 39.2502 125.549 39.9501 129.099ZM97.037 109.111C97.1077 108.864 97.2446 108.659 97.4455 108.497C97.6464 108.336 97.876 108.248 98.1343 108.232C98.2447 108.228 98.3485 108.25 98.4456 108.299C98.5428 108.345 98.6245 108.413 98.6885 108.502C98.7525 108.59 98.7901 108.689 98.8055 108.798C98.8188 108.906 98.8055 109.01 98.768 109.111C98.6973 109.361 98.5605 109.564 98.3595 109.725C98.1586 109.888 97.929 109.977 97.6707 109.99C97.5603 109.994 97.4587 109.972 97.3594 109.926C97.2622 109.877 97.1805 109.809 97.1165 109.721C97.0547 109.632 97.0149 109.535 96.9995 109.427C96.9862 109.319 96.9995 109.213 97.037 109.111ZM66.1775 50.567C64.9366 50.5206 63.7046 50.386 62.4837 50.163C61.9383 50.0791 61.3952 49.9841 60.8521 49.8914C60.9249 50.227 61.0618 50.5383 61.2627 50.8187C61.4659 51.0991 61.7131 51.3309 62.009 51.5098C62.5036 51.81 63.0379 51.9977 63.6097 52.0706C64.1838 52.1434 64.7468 52.0971 65.3009 51.9315C65.9346 51.7482 66.2018 52.7307 65.5725 52.914C64.8748 53.1193 64.1661 53.1723 63.4441 53.0752C62.7243 52.978 62.0554 52.7374 61.4372 52.3532C60.9117 52.0198 60.4966 51.5782 60.1985 51.0329C59.8983 50.4875 59.7503 49.9024 59.7547 49.2798C59.7547 49.2003 59.7746 49.1253 59.8099 49.0546C59.8453 48.9862 59.8938 48.9266 59.9579 48.878C60.0197 48.8316 60.0903 48.7985 60.1676 48.783C60.2449 48.7676 60.3222 48.7698 60.3995 48.7897C61.159 48.9288 61.9207 49.0546 62.6846 49.1716C63.8393 49.3814 65.0051 49.5072 66.1775 49.5514C66.8354 49.5558 66.8354 50.5736 66.1775 50.567ZM58.9687 37.3374C58.9687 35.7808 59.6753 34.5179 60.5474 34.5179C60.894 34.5378 61.1766 34.6835 61.3886 34.9595C61.4659 34.944 61.5431 34.9242 61.6182 34.8977C61.7109 34.8557 61.797 34.8049 61.8809 34.7453C61.9648 34.6769 62.0421 34.5996 62.1106 34.5157C62.1834 34.3943 62.2872 34.317 62.4241 34.2839C62.5588 34.2508 62.6868 34.2684 62.8083 34.3391C62.9275 34.4119 63.0047 34.5135 63.0401 34.6504C63.0754 34.7851 63.0577 34.9131 62.9871 35.0324C62.7133 35.4342 62.3468 35.7124 61.8876 35.8714C62.0465 36.3461 62.126 36.8362 62.1238 37.3374C62.1238 38.8939 61.4173 40.1569 60.5474 40.1569C59.6753 40.1569 58.9687 38.8939 58.9687 37.3374ZM59.1763 32.4911C59.0549 32.5617 58.9268 32.5772 58.7899 32.5419C58.6552 32.5065 58.5515 32.4293 58.4786 32.31C58.4102 32.1886 58.3947 32.0606 58.43 31.9259C58.4653 31.7912 58.5426 31.6874 58.6618 31.6146C58.8893 31.4446 59.1343 31.3099 59.3993 31.2061C59.6642 31.1045 59.9358 31.0383 60.2184 31.0096C60.501 30.9809 60.7814 30.9897 61.0596 31.0361C61.34 31.0825 61.6094 31.1642 61.8655 31.2834C61.9869 31.354 62.0664 31.4578 62.1017 31.5925C62.1371 31.7294 62.1194 31.8574 62.0487 31.9789C61.9781 32.1003 61.8743 32.1776 61.7374 32.2129C61.6027 32.2504 61.4725 32.2328 61.351 32.1621C61.3356 32.1533 61.2252 32.1069 61.2362 32.1113C61.1921 32.0937 61.1479 32.0782 61.1016 32.065C61.0464 32.0495 60.9912 32.0363 60.9338 32.0252C60.9073 32.0186 60.883 32.0142 60.8565 32.0098C60.7417 32.0009 60.6269 31.9965 60.5121 32.0009C60.4569 32.0031 60.3994 32.0076 60.342 32.0142C60.3156 32.0164 60.2913 32.0208 60.267 32.0252C60.1566 32.0473 60.0484 32.0738 59.9402 32.1069C59.8872 32.1224 59.8342 32.14 59.7835 32.1599C59.7702 32.1643 59.7238 32.1842 59.6951 32.1952C59.5141 32.2791 59.3397 32.3785 59.1763 32.4911ZM70.5425 32.6324C70.474 32.511 70.4563 32.3829 70.4917 32.2482C70.527 32.1113 70.6065 32.0076 70.7257 31.9369C70.9686 31.8155 71.2225 31.7338 71.4896 31.6874C71.7546 31.6433 72.0217 31.6388 72.2911 31.6742C72.5582 31.7095 72.8144 31.7824 73.0616 31.895C73.3067 32.0054 73.5319 32.1511 73.7328 32.3299C73.8322 32.4315 73.8808 32.5507 73.8808 32.6898C73.8808 32.8311 73.8322 32.9503 73.7328 33.0497C73.6335 33.1468 73.5121 33.1932 73.373 33.1932C73.2339 33.1932 73.1124 33.1468 73.0131 33.0497C73.0042 33.0431 72.9954 33.0364 72.9866 33.0276H72.9844C72.9468 33.0011 72.9093 32.9746 72.8718 32.9503C72.7923 32.8995 72.7106 32.8554 72.6245 32.8134C72.609 32.8068 72.5914 32.798 72.5737 32.7914C72.5295 32.7737 72.4854 32.7582 72.4412 32.7428C72.3529 32.7141 72.2624 32.692 72.1697 32.6743C72.1542 32.6699 72.1388 32.6677 72.1211 32.6655C72.0769 32.6567 72.0306 32.6545 71.9864 32.6545C71.8826 32.6412 71.7811 32.6456 71.6773 32.6655C71.812 32.6236 71.6486 32.6721 71.6199 32.6788C71.5669 32.6898 71.5161 32.7053 71.4631 32.7207C71.4521 32.7251 71.3947 32.745 71.3682 32.7538C71.324 32.7715 71.2821 32.7936 71.2401 32.8156C71.1187 32.8841 70.9907 32.8995 70.856 32.8642C70.7213 32.8289 70.6153 32.7516 70.5425 32.6324ZM70.1053 43.8815C70.2223 44.1973 70.2069 44.5064 70.0633 44.8111C69.8646 45.129 69.6306 45.4182 69.3634 45.681C68.8468 46.1645 68.2882 46.595 67.6899 46.9726C67.1467 47.3457 66.6367 46.4626 67.1754 46.0938C67.6722 45.7803 68.1381 45.4249 68.573 45.0296C68.69 44.9148 68.8049 44.7934 68.9108 44.6653C68.9506 44.619 68.9881 44.5726 69.0256 44.5218C69.0367 44.5086 69.125 44.3894 69.1559 44.3629C69.1581 44.3518 69.1603 44.3408 69.1581 44.3275C69.1515 44.279 69.1382 44.2304 69.1272 44.1818C69.1029 44.0736 69.0742 43.9654 69.0389 43.8595C68.6326 42.5899 67.6833 41.497 66.9767 40.3843C66.6235 39.8301 67.5066 39.3201 67.8577 39.872C68.6613 41.1349 69.752 42.3912 70.1053 43.8815ZM37.9718 61.0743C41.7473 56.9323 48.4659 58.6169 53.2415 59.4471C56.1382 59.9527 59.1034 60.3479 62.0355 59.9306C64.6916 59.5332 67.1158 58.5617 69.3105 57.0184C71.3373 55.6054 73.1433 53.7795 74.3179 51.5937C74.3223 51.5848 74.3201 51.5738 74.3246 51.565C76.4662 48.4695 77.6849 44.683 78.376 41.029C79.1863 36.7324 79.4093 32.0208 77.9985 27.8214C75.9275 20.8026 67.2814 18.4887 60.7792 19.6545C53.9193 20.8865 49.1061 26.5872 47.3641 33.0872C46.8629 34.9595 46.6002 36.8627 46.5759 38.8012C46.5538 40.7375 46.7702 42.6495 47.2294 44.5329C47.7108 46.0077 48.3025 47.4384 49.0002 48.825C49.0024 48.8294 49.0068 48.8338 49.009 48.8404C50.1174 50.9998 51.5459 52.9714 53.4932 54.4992C56.4231 56.7976 60.395 57.8022 64.0844 57.513C65.5107 57.4026 66.8862 57.0803 68.2131 56.5459C66.1885 57.8486 63.9806 58.6567 61.5917 58.9724C58.7193 59.319 55.902 58.8819 53.0847 58.3829C53.0295 58.3277 52.9633 58.288 52.8882 58.2637C51.5746 57.8331 50.3779 57.1884 49.296 56.3274C48.2164 55.4685 47.32 54.4463 46.609 53.2628C46.2734 52.6998 45.3925 53.212 45.7281 53.7773C46.7062 55.4177 47.9978 56.7557 49.6051 57.7912C47.9205 57.5108 46.2249 57.3938 44.5182 57.4423C41.8334 57.5594 39.1089 58.3145 37.2498 60.3568C36.8105 60.8403 37.528 61.56 37.9718 61.0743ZM65.6034 56.2898C64.7048 56.4598 63.7996 56.5482 62.8855 56.5526C61.9715 56.557 61.064 56.4775 60.1654 56.3141C59.2646 56.1507 58.3881 55.9057 57.5358 55.5811C56.6814 55.2565 55.8645 54.8547 55.0851 54.38C52.8021 52.9493 51.1816 50.8408 49.9672 48.4938C49.7685 42.5347 50.0092 35.5071 54.1092 30.7447C55.0939 29.6076 56.2376 28.6604 57.5402 27.9031C58.8407 27.148 60.2317 26.6225 61.7087 26.3267C64.9168 25.6643 68.732 25.7041 71.7634 27.0774C72.5671 27.4373 73.3156 27.8899 74.0088 28.433C74.7021 28.9739 75.3203 29.5921 75.8612 30.2854C76.4044 30.9787 76.8548 31.7272 77.2147 32.5308C77.5746 33.3323 77.8307 34.1669 77.9874 35.0324C77.9653 36.3637 77.8616 37.6906 77.6783 39.011C77.1705 42.729 76.1174 46.5133 74.2473 49.792C72.3463 53.1237 69.4253 55.5392 65.6034 56.2898ZM34.4635 69.95C36.5411 71.0142 38.3957 72.3787 40.0318 74.0412C41.6656 75.7059 42.9969 77.5826 44.0236 79.6757C44.3084 80.263 43.4297 80.7774 43.1427 80.1901C42.1579 78.1743 40.8796 76.3661 39.3076 74.7632C37.7356 73.1625 35.9494 71.851 33.949 70.8287C33.364 70.5307 33.8806 69.6519 34.4635 69.95ZM84.4963 76.0393C84.2048 73.6769 84.0988 71.3056 84.1761 68.9277C84.196 68.2742 85.216 68.272 85.1962 68.9277C85.1189 71.3056 85.2249 73.6769 85.5163 76.0393C85.5141 76.1806 85.4655 76.2999 85.3662 76.3992C85.2668 76.4986 85.1454 76.5471 85.0063 76.5493C84.8672 76.5449 84.748 76.4919 84.6508 76.3948C84.5515 76.2976 84.5007 76.1784 84.4963 76.0393ZM59.4412 65.8146C56.7675 65.5806 54.2483 64.7107 51.7424 63.7988C49.1525 62.8561 46.492 61.8758 43.688 62.2003C43.0367 62.2754 43.0433 61.2576 43.688 61.1825C46.4125 60.8668 49.0421 61.7389 51.5679 62.6552C54.1247 63.5847 56.7079 64.5583 59.4412 64.799C60.0903 64.8564 60.0948 65.872 59.4412 65.8146ZM73.2294 62.4057C72.2182 63.4632 71.0481 64.3044 69.7233 64.9271C68.3964 65.5519 67.0032 65.9162 65.5416 66.0222C64.8859 66.0707 64.8903 65.0529 65.5416 65.0065C66.8685 64.9028 68.1337 64.5628 69.3347 63.9909C70.5358 63.4191 71.5934 62.6507 72.5097 61.6859C72.9623 61.209 73.6821 61.931 73.2294 62.4057ZM44.5314 51.0903C43.6483 49.4631 43.4363 47.4627 43.3811 45.6412C43.3612 44.9855 44.3791 44.9899 44.4011 45.6412C44.421 46.4935 44.5071 47.3369 44.6528 48.1759C44.7787 49.0171 45.0304 49.8163 45.4102 50.578C45.7237 51.1543 44.8427 51.6665 44.5314 51.0903ZM71.1695 40.4152C70.3018 40.3313 69.7211 39.0088 69.8713 37.4588C70.0214 35.9089 70.8449 34.7188 71.7126 34.8027C72.035 34.8513 72.2889 35.0125 72.4721 35.2819C72.5008 35.273 72.5318 35.2686 72.5605 35.2576C72.6532 35.2156 72.7393 35.1648 72.8232 35.1052C72.9071 35.0368 72.9844 34.9595 73.0528 34.8756C73.1257 34.7564 73.2294 34.6791 73.3663 34.6438C73.501 34.6107 73.6291 34.6283 73.7483 34.7012C73.8697 34.7718 73.947 34.8756 73.9823 35.0103C74.0177 35.145 74 35.273 73.9293 35.3945C73.671 35.7698 73.3288 36.0392 72.9027 36.2025C73.0285 36.7148 73.0661 37.2336 73.0109 37.7613C72.8607 39.3112 72.0372 40.4991 71.1695 40.4152ZM136.823 82.9345H97.5029C97.3616 82.9345 97.2401 82.9831 97.1408 83.0825C97.0414 83.1818 96.9929 83.301 96.9929 83.4424V86.6438C96.9929 86.7851 97.0414 86.9043 97.1408 87.0037C97.2401 87.103 97.3616 87.1516 97.5029 87.1516H136.823C136.962 87.1516 137.084 87.103 137.183 87.0037C137.282 86.9043 137.333 86.7851 137.333 86.6438V83.4424C137.333 83.301 137.282 83.1818 137.183 83.0825C137.084 82.9831 136.962 82.9345 136.823 82.9345ZM136.313 86.136H98.0129V83.9502H136.313V86.136ZM97.5029 79.9075H125.85C125.989 79.9075 126.11 79.859 126.21 79.7596C126.309 79.6602 126.36 79.5388 126.36 79.3997V76.1983C126.36 76.057 126.309 75.9378 126.21 75.8384C126.11 75.7391 125.989 75.6883 125.85 75.6905H97.5029C97.3616 75.6883 97.2401 75.7391 97.1408 75.8384C97.0414 75.9378 96.9929 76.057 96.9929 76.1983V79.3997C96.9929 79.5388 97.0414 79.6602 97.1408 79.7596C97.2401 79.859 97.3616 79.9075 97.5029 79.9075ZM98.0129 76.7061H125.34V78.8897H98.0129V76.7061ZM127.071 38.3C127.071 38.1587 127.119 38.0395 127.219 37.9401C127.318 37.8408 127.44 37.79 127.581 37.79H139.369C139.51 37.79 139.629 37.8386 139.731 37.9379C139.83 38.0373 139.881 38.1587 139.881 38.3C139.881 38.4391 139.83 38.5606 139.731 38.6599C139.629 38.7593 139.51 38.8078 139.369 38.8078H127.581C127.44 38.8078 127.318 38.7593 127.219 38.6599C127.119 38.5606 127.071 38.4391 127.071 38.3ZM134.419 47.2397C134.277 47.2397 134.156 47.1912 134.057 47.0918C133.955 46.9925 133.906 46.8732 133.906 46.7319C133.906 46.5906 133.955 46.4714 134.057 46.3698C134.156 46.2705 134.277 46.2219 134.419 46.2219H143.592C143.734 46.2219 143.853 46.2705 143.954 46.3698C144.054 46.4714 144.105 46.5906 144.105 46.7319C144.105 46.8732 144.054 46.9925 143.954 47.0918C143.853 47.1912 143.734 47.2397 143.592 47.2397H134.419ZM144.314 42.5789C144.314 42.7202 144.266 42.8394 144.166 42.9388C144.065 43.0381 143.946 43.0867 143.804 43.0867H127.581C127.44 43.0867 127.318 43.0381 127.219 42.9388C127.119 42.8394 127.071 42.7202 127.071 42.5789C127.071 42.4376 127.119 42.3184 127.219 42.219C127.318 42.1197 127.44 42.0711 127.581 42.0711H143.804C143.946 42.0689 144.065 42.1197 144.166 42.219C144.266 42.3184 144.314 42.4376 144.314 42.5789ZM127.071 46.7319C127.071 46.5906 127.119 46.4714 127.219 46.372C127.318 46.2727 127.44 46.2219 127.581 46.2219H130.712C130.853 46.2219 130.972 46.2705 131.074 46.3698C131.173 46.4714 131.224 46.5906 131.224 46.7319C131.224 46.8732 131.173 46.9925 131.074 47.0918C130.972 47.1912 130.853 47.2397 130.712 47.2397H127.581C127.44 47.2397 127.318 47.1912 127.219 47.0918C127.119 46.9925 127.071 46.871 127.071 46.7319ZM138.086 57.895C137.945 57.895 137.825 57.8442 137.726 57.7448C137.627 57.6455 137.576 57.5262 137.576 57.3849C137.576 57.2458 137.627 57.1244 137.726 57.0251C137.825 56.9257 137.945 56.8771 138.086 56.8771H143.592C143.731 56.8771 143.853 56.9257 143.952 57.0251C144.052 57.1244 144.102 57.2458 144.102 57.3849C144.102 57.5262 144.052 57.6455 143.952 57.7448C143.853 57.8442 143.731 57.895 143.592 57.895H138.086ZM144.314 53.2319C144.314 53.3732 144.266 53.4925 144.166 53.5918C144.065 53.6912 143.946 53.7419 143.804 53.7419H127.581C127.44 53.7419 127.318 53.6912 127.219 53.5918C127.119 53.4925 127.071 53.3732 127.071 53.2319C127.071 53.0928 127.119 52.9714 127.219 52.872C127.318 52.7749 127.44 52.7241 127.581 52.7241H143.804C143.946 52.7241 144.065 52.7727 144.166 52.872C144.266 52.9714 144.314 53.0928 144.314 53.2319ZM127.071 61.538C127.071 61.3989 127.119 61.2774 127.219 61.1781C127.318 61.0787 127.44 61.0302 127.581 61.0302H140.08C140.221 61.0302 140.34 61.0809 140.44 61.1803C140.539 61.2796 140.587 61.3989 140.587 61.538C140.587 61.6793 140.539 61.7985 140.44 61.8979C140.34 61.9972 140.221 62.048 140.08 62.048H127.581C127.44 62.048 127.318 61.9972 127.219 61.8979C127.119 61.7985 127.071 61.6793 127.071 61.538ZM127.071 57.3849C127.071 57.2458 127.119 57.1244 127.219 57.0251C127.318 56.9257 127.44 56.8771 127.581 56.8771H135.026C135.167 56.8771 135.289 56.9257 135.388 57.0251C135.487 57.1244 135.536 57.2458 135.536 57.3849C135.536 57.5262 135.487 57.6455 135.388 57.7448C135.289 57.8442 135.167 57.895 135.026 57.895H127.581C127.44 57.895 127.318 57.8442 127.219 57.7448C127.119 57.6455 127.071 57.5262 127.071 57.3849ZM143.804 68.4442H97.5029C97.3616 68.4442 97.2401 68.495 97.1408 68.5944C97.0414 68.6937 96.9929 68.8129 96.9929 68.9542V72.1535C96.9929 72.2948 97.0414 72.414 97.1408 72.5133C97.2401 72.6127 97.3616 72.6635 97.5029 72.6635H143.804C143.946 72.6635 144.065 72.6127 144.166 72.5133C144.266 72.414 144.314 72.2948 144.314 72.1535V68.9542C144.314 68.8129 144.266 68.6937 144.166 68.5944C144.065 68.495 143.946 68.4442 143.804 68.4442ZM143.294 71.6456H98.0129V69.462H143.294V71.6456Z" fill="#215068"/>
</g>
</svg>
