<svg width="157" height="146" viewBox="0 0 157 146" fill="none" xmlns="http://www.w3.org/2000/svg">
<path d="M138.278 21.417C140.553 23.4937 141.178 26.103 141.333 29.1524C141.343 29.8547 141.339 30.5559 141.331 31.2583C141.329 31.5289 141.328 31.7995 141.326 32.0783C141.32 32.998 141.31 33.9176 141.3 34.8373C141.295 35.3363 141.295 35.3363 141.291 35.8453C141.244 40.7431 141.174 45.6406 141.103 50.538C141.067 53.0598 141.033 55.5816 141.003 58.1035C140.982 59.8934 140.957 61.6833 140.93 63.4731C140.913 64.5357 140.899 65.5982 140.888 66.6609C140.875 67.8435 140.856 69.026 140.837 70.2085C140.834 70.5533 140.832 70.898 140.829 71.2532C140.751 75.1123 139.798 79.095 137.12 81.9865C135.693 83.3075 134.277 84.1238 132.351 84.4013C130.655 84.1569 129.375 83.6854 128.206 82.3799C126.352 79.7514 125.582 76.8916 125.07 73.7522C125.033 73.524 124.995 73.2959 124.956 73.0608C124.33 68.8235 124.28 64.4886 124.285 60.2131C124.285 59.9832 124.285 59.7533 124.285 59.5165C124.292 53.4346 124.591 47.3649 124.93 41.2939C124.969 40.5839 125.007 39.8738 125.043 39.1637C125.105 37.9916 125.174 36.8203 125.247 35.6489C125.264 35.3253 125.281 35.0018 125.298 34.6684C125.549 31.0629 126.747 28.002 128.74 25.0195C128.921 24.7387 129.103 24.4578 129.29 24.1684C131.704 21.6654 134.877 19.7658 138.278 21.417ZM132.508 32.9371C132.173 35.7913 132.089 38.6401 132.02 41.5103C132.013 41.7704 132.007 42.0305 132 42.2985C131.857 48.0194 131.831 53.7393 131.839 59.4617C131.841 60.8394 131.84 62.217 131.838 63.5946C131.837 64.6765 131.837 65.7584 131.838 66.8403C131.838 67.3491 131.838 67.8579 131.837 68.3668C131.836 69.0703 131.838 69.7738 131.839 70.4774C131.84 70.8743 131.84 71.2712 131.84 71.6801C131.884 72.9435 131.982 74.1291 132.194 75.3753C132.401 75.4798 132.609 75.5843 132.822 75.692C133.182 74.9657 133.188 74.5253 133.21 73.7166C133.218 73.4349 133.226 73.1532 133.235 72.8629C133.246 72.3978 133.246 72.3978 133.258 71.9233C133.267 71.5972 133.277 71.2711 133.286 70.9351C133.316 69.8498 133.345 68.7645 133.373 67.6792C133.393 66.922 133.414 66.1649 133.435 65.4078C133.478 63.8143 133.521 62.2208 133.562 60.6273C133.615 58.6029 133.67 56.5785 133.726 54.5542C133.769 52.9861 133.811 51.4179 133.853 49.8498C133.873 49.1048 133.893 48.3598 133.913 47.6149C133.977 45.2561 134.034 42.8973 134.078 40.538C134.084 40.2135 134.09 39.889 134.096 39.5547C134.111 38.6234 134.121 37.6922 134.129 36.7608C134.134 36.483 134.139 36.2051 134.143 35.9188C134.154 34.3339 134.154 34.3339 133.45 32.9371C133.139 32.9371 132.828 32.9371 132.508 32.9371Z" fill="#282626"/>
<path d="M20.724 21.8525C21.229 22.0043 21.7339 22.1564 22.2388 22.3085C22.5199 22.3932 22.8011 22.4778 23.0908 22.565C27.7405 23.9942 32.6591 25.8691 35.482 30.0868C36.7108 32.5241 37.0908 34.8016 37.0964 37.5275C37.0971 37.7574 37.0977 37.9873 37.0984 38.2242C37.0997 38.9827 37.0982 39.7411 37.0961 40.4997C37.0958 40.7633 37.0954 41.0269 37.0951 41.2985C37.0852 46.9558 36.9357 52.6057 36.7185 58.2584C36.6672 59.6004 36.6237 60.9426 36.5816 62.2849C36.5473 63.3389 36.5077 64.3928 36.4667 65.4466C36.4482 65.9423 36.4317 66.4382 36.4172 66.9341C36.2652 72.0086 36.2652 72.0086 34.1659 74.1902C33.9202 74.3853 33.6745 74.5804 33.4213 74.7815C33.1813 74.9783 32.9413 75.175 32.694 75.3778C30.02 77.0993 26.9877 78.0919 24.0013 79.1164C23.6328 79.2452 23.2643 79.374 22.8845 79.5067C20.182 80.4426 20.182 80.4426 19.468 80.4426C19.435 74.7385 19.5243 69.0392 19.6478 63.3368C19.6684 62.3807 19.6885 61.4246 19.7086 60.4685C19.7561 58.2091 19.8044 55.9496 19.8532 53.6902C19.903 51.3814 19.9517 49.0725 19.9998 46.7637C20.0415 44.7586 20.084 42.7535 20.127 40.7484C20.1524 39.5608 20.1777 38.3731 20.2023 37.1855C20.3086 32.0706 20.4437 26.9612 20.724 21.8525ZM27.318 34.8374C27.0687 40.0947 26.9275 45.3496 26.8461 50.6122C26.8273 51.8216 26.8069 53.031 26.7862 54.2403C26.71 58.8577 26.6713 63.4732 26.69 68.0911C27.3117 67.7776 27.9334 67.4641 28.574 67.141C28.8036 61.1689 28.9998 55.1961 29.1179 49.2207C29.1419 48.0119 29.1692 46.8034 29.2035 45.5949C29.2374 44.3978 29.2634 43.2009 29.284 42.0035C29.293 41.5542 29.3047 41.1049 29.3194 40.6558C29.5059 37.9101 29.5059 37.9101 28.4306 35.5009C27.764 34.8038 27.764 34.8038 27.318 34.8374Z" fill="#272526"/>
<path d="M121.204 28.8202C122.068 29.6515 122.068 29.6515 122.46 30.7204C122.568 30.9972 122.675 31.274 122.786 31.5592C123.161 32.8776 123.235 34.1054 123.284 35.4709C123.296 35.7523 123.307 36.0337 123.318 36.3236C123.411 38.968 123.456 41.6136 123.481 44.2594C123.487 44.6624 123.494 45.0653 123.501 45.4805C123.516 49.7144 123.516 49.7144 122.46 51.6228C121.855 52.1948 121.324 52.5039 120.576 52.8896C120.822 53.0594 121.068 53.2293 121.322 53.4042C122.552 54.5268 122.744 55.5872 122.85 57.235C122.851 57.6797 122.85 58.1244 122.845 58.5691C122.845 58.8134 122.846 59.0577 122.846 59.3094C122.845 60.1114 122.84 60.9132 122.835 61.7152C122.834 62.2734 122.833 62.8317 122.833 63.3899C122.83 64.855 122.824 66.3201 122.817 67.7852C122.811 69.2819 122.808 70.7786 122.805 72.2753C122.798 75.2089 122.787 78.1425 122.774 81.0761C120.262 80.6037 118.348 79.8222 115.866 78.8592C115.711 67.5719 115.711 67.5719 115.552 56.0566C115.345 56.0566 115.138 56.0566 114.924 56.0566C114.927 56.4082 114.927 56.4082 114.929 56.7669C114.971 63.8196 114.824 70.8599 114.61 77.9091C112.669 77.349 110.784 76.727 108.919 75.9495C108.538 75.7922 108.156 75.6349 107.764 75.4728C107.267 75.2679 107.267 75.2679 106.76 75.0588C106.732 69.2294 106.806 63.4012 106.877 57.5725C106.891 56.4517 106.904 55.3308 106.916 54.21C107.001 46.5886 107.152 38.972 107.388 31.3538C109.45 30.7649 109.45 30.7649 110.067 30.589C110.907 30.3494 111.747 30.1093 112.586 29.8637C115.437 29.0292 118.215 28.3885 121.204 28.8202ZM114.924 38.3213C114.924 41.4566 114.924 44.592 114.924 47.8223C115.442 47.8223 115.96 47.8223 116.494 47.8223C117.015 47.2965 116.849 46.6701 116.85 45.9481C116.85 45.6291 116.851 45.31 116.851 44.9813C116.85 44.6451 116.849 44.3089 116.847 43.9625C116.849 43.6325 116.85 43.3024 116.851 42.9623C116.849 41.3817 116.829 39.8738 116.494 38.3213C115.976 38.3213 115.458 38.3213 114.924 38.3213Z" fill="#262424"/>
<path d="M7.22197 15.2017C8.63777 15.4569 9.84011 15.9562 11.1322 16.5773C11.3523 16.6816 11.5724 16.7858 11.7991 16.8932C12.2618 17.1128 12.7242 17.3333 13.1861 17.5545C13.8956 17.8942 14.6063 18.2312 15.3173 18.5679C15.7671 18.7817 16.2168 18.9958 16.6665 19.2099C16.8797 19.3112 17.093 19.4125 17.3127 19.5169C18.8033 20.232 18.8033 20.232 19.154 20.5856C19.1853 21.0863 19.195 21.5883 19.1957 22.0899C19.1963 22.4047 19.1969 22.7195 19.1975 23.0438C19.1961 23.3822 19.1947 23.7206 19.1932 24.0693C19.1926 24.411 19.192 24.7528 19.1914 25.1048C19.1764 27.9386 19.0401 30.7442 18.84 33.5704C17.2857 33.0479 15.7314 32.5253 14.13 31.9869C14.2336 32.7185 14.3372 33.4501 14.444 34.2038C14.4681 34.9454 14.4779 35.6875 14.4746 36.4294C14.4736 36.8366 14.4726 37.2439 14.4716 37.6634C14.4689 38.0872 14.4663 38.5109 14.4636 38.9346C14.462 39.367 14.4606 39.7993 14.4593 40.2317C14.4556 41.2839 14.4505 42.336 14.444 43.3882C14.637 43.3845 14.8301 43.3809 15.029 43.3771C15.2828 43.3742 15.5366 43.3714 15.7981 43.3684C16.1751 43.3629 16.1751 43.3629 16.5598 43.3573C17.27 43.3882 17.27 43.3882 18.212 43.7049C18.212 47.8854 18.212 52.0659 18.212 56.373C16.8649 56.4775 15.5178 56.5821 14.13 56.6897C14.13 60.7657 14.13 64.8417 14.13 69.0411C15.1662 68.7276 16.2024 68.4141 17.27 68.091C17.5808 68.091 17.8917 68.091 18.212 68.091C18.212 72.376 18.212 76.661 18.212 81.0759C14.6741 82.86 14.6741 82.86 12.9328 83.5761C12.5633 83.7281 12.1937 83.8802 11.813 84.0369C11.2502 84.2662 11.2502 84.2662 10.676 84.5002C10.2871 84.6607 9.89829 84.8214 9.5095 84.9821C6.67475 86.1431 6.67475 86.1431 5.96597 86.1431C5.91892 78.2311 6.04765 70.3274 6.21959 62.4175C6.25559 60.7501 6.29032 59.0827 6.3252 57.4152C6.39104 54.2761 6.45799 51.137 6.52537 47.9979C6.60218 44.4164 6.67772 40.8348 6.75317 37.2532C6.90805 29.9027 7.06448 22.5522 7.22197 15.2017Z" fill="#262424"/>
<path d="M38.308 29.1367C39.2635 29.3328 40.2184 29.5314 41.1732 29.7305C41.442 29.7857 41.7108 29.8408 41.9877 29.8975C43.4145 30.1964 44.785 30.533 46.158 31.0369C46.124 34.6603 46.0886 38.2837 46.0514 41.9071C46.0342 43.5901 46.0175 45.2731 46.0018 46.9561C45.9867 48.5846 45.9703 50.213 45.953 51.8414C45.9466 52.4583 45.9408 53.0753 45.9353 53.6923C45.9021 57.4459 45.7897 61.1791 45.53 64.9241C45.9963 64.7674 45.9963 64.7674 46.472 64.6074C46.4827 64.0925 46.4827 64.0925 46.4937 63.5672C46.5618 60.3154 46.631 57.0637 46.7014 53.812C46.7375 52.1406 46.7732 50.4693 46.808 48.798C46.8416 47.1819 46.8764 45.5658 46.9118 43.9497C46.9251 43.3364 46.938 42.723 46.9505 42.1097C47.0197 38.7256 47.127 35.3609 47.414 31.987C49.381 32.1174 51.2633 32.3633 53.1911 32.7924C53.581 32.8786 53.971 32.9648 54.3727 33.0537C54.6669 33.1197 54.961 33.1858 55.264 33.2539C55.1153 40.9242 54.9266 48.5937 54.6944 56.2619C54.6683 57.1257 54.6436 57.9895 54.6199 58.8534C54.5863 60.0771 54.5482 61.3006 54.5097 62.5241C54.5002 62.8894 54.4907 63.2548 54.4809 63.6312C54.3898 66.3345 54.2387 68.7907 52.438 70.9415C49.8113 72.9218 47.1593 73.2058 43.96 72.8417C41.5262 72.1444 39.8747 70.6439 38.604 68.4745C38.2549 67.6489 38.2306 67.0516 38.2325 66.1553C38.2316 65.8284 38.2307 65.5016 38.2299 65.1648C38.2321 64.8081 38.2344 64.4514 38.2367 64.0838C38.2366 63.7068 38.2365 63.3297 38.2364 62.9413C38.2368 61.9088 38.2399 60.8764 38.2443 59.8439C38.2482 58.7644 38.2486 57.6849 38.2494 56.6054C38.2513 54.5618 38.2565 52.5182 38.2628 50.4746C38.2698 48.1478 38.2732 45.821 38.2764 43.4942C38.283 38.7084 38.294 33.9225 38.308 29.1367Z" fill="#262424"/>
<path d="M51.2801 76.6024C54.5982 79.2485 55.7242 82.0602 56.3066 86.2296C56.6227 91.7771 53.5553 96.0231 50.24 100.078C49.8142 100.618 49.389 101.16 48.9644 101.701C47.1391 103.994 45.215 106.115 43.1426 108.181C42.3004 109.023 41.4873 109.871 40.7219 110.786C37.9266 114.081 34.7761 117.039 31.4 119.714C31.0223 120.027 30.6454 120.341 30.2691 120.656C15.2186 133.233 15.2186 133.233 9.26793 133.347C8.91578 133.3 8.91578 133.3 8.55652 133.253C8.31852 133.225 8.08052 133.197 7.8353 133.168C7.22202 133.015 7.22202 133.015 6.59402 132.382C6.30313 131.273 6.32317 130.327 6.59402 129.215C10.1076 124.34 17.4059 120.854 22.3314 117.591C25.6716 115.376 28.9338 113.097 32.1043 110.64C32.8549 110.058 33.6092 109.482 34.3633 108.905C41.3319 103.516 50.1227 95.3904 52.0259 86.341C52.2723 84.1425 51.8214 82.5332 50.4755 80.7987C48.301 79.1039 46.0469 78.796 43.332 78.8589C41.0596 79.1776 39.0418 79.8816 36.9392 80.7838C36.6342 80.9116 36.3292 81.0395 36.015 81.1711C35.3628 81.4445 34.7112 81.7189 34.0599 81.9944C28.7764 84.2268 23.472 86.3887 18.0943 88.3797C17.8506 88.4706 17.607 88.5614 17.3559 88.655C9.87634 91.437 9.87634 91.437 7.85002 91.2103C7.22202 90.2602 7.22202 90.2602 7.27936 89.6267C8.05958 87.7014 10.391 86.6324 12.1675 85.8065C12.5448 85.6297 12.5448 85.6297 12.9298 85.4492C19.6777 82.3797 26.7828 80.0578 33.7943 77.691C34.0787 77.5947 34.3631 77.4984 34.6562 77.3992C35.4714 77.1239 36.2873 76.8509 37.1035 76.5788C37.3425 76.4982 37.5815 76.4176 37.8278 76.3345C42.3215 74.8496 46.9857 74.1506 51.2801 76.6024Z" fill="#CC2128"/>
<path d="M87.3509 35.134C88.1686 35.141 88.9863 35.1473 89.804 35.1538C90.291 39.1321 90.686 43.1146 91.0428 47.1068C91.0982 47.7227 91.1537 48.3387 91.2091 48.9546C91.3241 50.2347 91.4386 51.5149 91.5526 52.7951C91.6982 54.4275 91.8458 56.0597 91.994 57.6919C92.1087 58.9596 92.222 60.2274 92.335 61.4953C92.3888 62.097 92.4431 62.6988 92.498 63.3005C92.5746 64.1425 92.6492 64.9846 92.7234 65.8268C92.7459 66.0694 92.7684 66.312 92.7916 66.5619C92.956 68.4655 92.944 70.2753 92.944 72.208C90.3535 71.8945 87.763 71.5809 85.094 71.2579C84.8157 70.4157 84.7235 69.8389 84.6807 68.968C84.6675 68.7139 84.6543 68.4597 84.6408 68.1979C84.6284 67.934 84.6161 67.67 84.6034 67.3981C84.5898 67.1305 84.5763 66.8629 84.5623 66.5872C84.529 65.9272 84.4974 65.2672 84.466 64.6071C83.9479 64.6071 83.4298 64.6071 82.896 64.6071C82.8996 64.886 82.9033 65.1648 82.907 65.4521C82.9099 65.8199 82.9127 66.1878 82.9156 66.5667C82.9193 66.9305 82.9229 67.2942 82.9267 67.669C82.8997 68.5954 82.795 69.4094 82.582 70.3078C79.7363 70.3465 76.9381 70.2478 74.104 69.9911C74.3256 66.2474 74.8061 62.54 75.2729 58.8211C75.357 58.1454 75.4411 57.4696 75.525 56.7938C75.7446 55.0282 75.9653 53.2628 76.1863 51.4974C76.4122 49.6906 76.637 47.8838 76.8619 46.0769C77.3022 42.5413 77.7437 39.0058 78.186 35.4705C79.1424 35.4179 80.0989 35.3659 81.0553 35.3141C81.4593 35.2918 81.4593 35.2918 81.8714 35.2691C83.6994 35.1706 85.5201 35.1121 87.3509 35.134ZM83.838 48.4553C83.4235 51.3816 83.009 54.308 82.582 57.323C83.3073 57.323 84.0327 57.323 84.78 57.323C84.7455 56.0824 84.7045 54.8421 84.6623 53.6017C84.6525 53.2498 84.6428 52.8979 84.6328 52.5353C84.6207 52.1965 84.6085 51.8576 84.596 51.5085C84.5862 51.1967 84.5763 50.8849 84.5661 50.5637C84.5008 49.6141 84.5008 49.6141 83.838 48.4553Z" fill="#272525"/>
<path d="M69.394 34.5204C71.7305 36.0484 72.8908 37.989 73.5349 40.6763C74.1695 44.03 74.129 47.2673 74.104 50.6722C71.6171 50.6722 69.1302 50.6722 66.568 50.6722C66.4644 47.4324 66.3607 44.1925 66.254 40.8544C65.9431 40.8544 65.6323 40.8544 65.312 40.8544C65.0531 42.7072 64.9357 44.522 64.8986 46.3918C64.8921 46.6755 64.8856 46.9591 64.8789 47.2514C64.8653 47.8508 64.8525 48.4502 64.8401 49.0496C64.8217 49.9439 64.8012 50.8382 64.7803 51.7324C64.6936 55.6023 64.6676 59.4696 64.684 63.3403C64.9948 63.3403 65.3057 63.3403 65.626 63.3403C65.7296 60.7275 65.8332 58.1147 65.94 55.4228C68.6341 55.4228 71.3282 55.4228 74.104 55.4228C74.1299 56.7161 74.1558 58.0094 74.1825 59.342C74.1939 59.743 74.2054 60.1441 74.2171 60.5573C74.245 63.4553 73.7937 65.826 71.8667 68.0513C69.3104 70.3377 66.4919 70.5597 63.2072 70.4266C61.2243 70.2873 59.627 69.8769 58.1341 68.5041C56.0806 66.068 56.1089 62.9725 56.2023 59.9259C56.2127 59.4488 56.2127 59.4488 56.2234 58.9621C56.2467 57.9406 56.2751 56.9192 56.3041 55.8978C56.3222 55.1956 56.34 54.4933 56.3577 53.7911C56.3929 52.4183 56.4305 51.0455 56.4697 49.6728C56.5072 48.3402 56.5373 47.0078 56.5588 45.6749C56.5742 44.7476 56.5966 43.8204 56.6181 42.8932C56.6213 42.5821 56.6244 42.271 56.6277 41.9505C56.6951 39.7219 57.2468 38.1071 58.6407 36.3662C61.8178 33.5701 65.4915 32.7833 69.394 34.5204Z" fill="#262424"/>
<path d="M153.86 2.85021C154.174 3.16691 154.174 3.16691 154.292 3.89928C154.174 4.75042 154.174 4.75042 153.52 5.36264C152.52 6.07746 151.486 6.65378 150.394 7.20734C150.077 7.3709 150.077 7.3709 149.753 7.53776C149.069 7.89029 148.383 8.24036 147.698 8.59044C146.982 8.95813 146.268 9.32643 145.553 9.69478C145.083 9.93664 144.614 10.1783 144.144 10.4197C142.526 11.2518 140.919 12.1018 139.318 12.9649C111.282 27.9327 84.8447 32.9483 32.9699 22.4858C25.9364 20.2797 18.4471 17.5743 12.5599 12.9847C12.2446 12.7393 11.9293 12.494 11.6044 12.2412C8.87217 10.0487 8.87217 10.0487 8.16394 8.86756C8.20196 7.77457 8.27945 6.97728 8.85082 6.03703C9.71486 5.52616 10.3115 5.60221 11.3039 5.70053C12.0446 6.10884 12.6965 6.52258 13.3842 7.00693C22.6542 13.1394 33.5278 17.0073 43.9599 20.5856C44.2953 20.701 44.6306 20.8165 44.9761 20.9355C56.1735 24.7595 67.6314 26.862 79.4419 27.2363C79.7756 27.2474 79.7756 27.2474 80.1161 27.2587C95.7393 27.7032 110.953 24.6204 124.918 17.5959C125.911 17.1035 126.909 16.6281 127.912 16.1579C132.331 14.0802 136.519 11.756 140.672 9.18426C142.235 8.22305 143.803 7.26932 145.382 6.33394C145.637 6.18253 145.893 6.03112 146.156 5.87512C146.994 5.38224 147.836 4.89725 148.679 4.41393C149.073 4.18115 149.073 4.18115 149.476 3.94367C151.023 3.06908 152.08 2.62585 153.86 2.85021Z" fill="#FFF12D"/>
<path d="M130.793 93.2991C131.517 93.7156 132.242 94.1288 132.968 94.5406C133.371 94.7698 133.773 94.9991 134.176 95.2284C134.512 95.4191 134.847 95.6097 135.193 95.8062C135.962 96.2775 135.962 96.2775 136.59 96.9109C136.416 98.3537 136.416 98.3537 135.962 98.8111C134.094 98.7087 132.923 98.1068 131.389 97.1286C130.914 96.837 130.437 96.5463 129.96 96.2565C129.71 96.1037 129.46 95.951 129.202 95.7936C121.821 91.3569 113.953 87.3716 105.818 84.5595C105.562 84.4698 105.305 84.3802 105.041 84.2878C98.7694 82.1176 91.1952 80.0783 84.7052 82.517C81.1374 84.4053 79.2973 87.6295 77.8279 91.2696C74.4533 102.409 79.4517 114.21 84.5768 123.948C86.3686 127.292 88.3281 130.497 90.432 133.648C90.6742 134.014 90.9163 134.381 91.1581 134.747C91.333 135.012 91.5079 135.276 91.688 135.549C91.2168 136.758 90.5942 137.414 89.49 138.082C87.7886 138.082 86.9555 137.634 85.722 136.499C83.1308 132.915 81.6501 128.502 80.0007 124.432C79.6607 123.596 79.3165 122.763 78.9727 121.929C74.4269 110.894 70.361 99.9508 74.4965 88.0432C75.2565 86.2082 76.2122 84.7414 77.558 83.2927C77.7377 83.0984 77.9174 82.904 78.1026 82.7038C92.7143 68.4702 117.297 85.5117 130.793 93.2991Z" fill="#32A457"/>
<path d="M106.446 31.987C106.641 35.1569 106.816 38.3103 106.76 41.4881C105.728 41.8349 104.959 41.8364 103.875 41.8246C103.363 41.8203 103.363 41.8203 102.841 41.816C102.58 41.8123 102.319 41.8086 102.05 41.8048C102.054 42.1028 102.057 42.4009 102.061 42.7079C102.064 43.1023 102.067 43.4967 102.07 43.903C102.073 44.2925 102.077 44.6819 102.081 45.0832C102.05 46.2387 102.05 46.2387 101.736 48.1389C103.912 48.2957 103.912 48.2957 106.132 48.4556C106.161 51.3324 106.07 54.1411 105.818 57.0066C104.264 57.0066 102.709 57.0066 101.108 57.0066C101.108 62.3367 101.108 67.6668 101.108 73.1584C94.0429 72.6833 94.0429 72.6833 93.5719 72.2083C93.5413 71.7823 93.5323 71.3548 93.5321 70.9277C93.5312 70.6517 93.5303 70.3756 93.5294 70.0912C93.53 69.7859 93.5307 69.4806 93.5313 69.1661C93.5308 68.8462 93.5302 68.5264 93.5296 68.1968C93.5283 67.1315 93.5292 66.0662 93.5302 65.0008C93.53 64.26 93.5297 63.5192 93.5293 62.7784C93.5289 61.2197 93.5295 59.6611 93.531 58.1025C93.5328 56.1159 93.5318 54.1293 93.5299 52.1427C93.5287 50.6092 93.5291 49.0756 93.5299 47.5421C93.5301 46.8105 93.5299 46.079 93.5291 45.3475C93.5261 41.5142 93.5503 37.7078 93.8859 33.8873C95.3716 33.6149 96.8574 33.344 98.3437 33.0754C98.8488 32.9838 99.3537 32.8917 99.8585 32.7989C100.586 32.6653 101.314 32.5338 102.043 32.4027C102.266 32.3611 102.49 32.3196 102.721 32.2768C103.978 32.0528 105.17 31.9448 106.446 31.987Z" fill="#262424"/>
<path d="M49.336 131.379C49.8484 131.378 50.3609 131.377 50.8734 131.375C51.9445 131.374 53.0157 131.373 54.0868 131.373C55.1629 131.373 56.239 131.371 57.3151 131.367C62.7839 131.345 68.242 131.37 73.7029 131.693C74.1087 131.715 74.5146 131.737 74.9327 131.759C75.3037 131.785 75.6746 131.81 76.0567 131.836C76.5399 131.868 76.5399 131.868 77.0329 131.9C77.98 132.087 78.442 132.337 79.1279 133.015C79.3634 134.025 79.3634 134.025 79.4419 134.916C79.2656 134.906 79.0892 134.897 78.9074 134.888C73.2707 134.603 67.6383 134.521 61.9953 134.52C61.7719 134.52 61.5485 134.52 61.3183 134.519C45.7408 134.518 29.9767 135.614 15.0327 140.339C14.3576 140.551 13.6823 140.762 13.0068 140.972C12.4024 141.16 11.7985 141.35 11.1946 141.541C7.62455 142.607 7.62455 142.607 5.86782 142.615C5.60999 142.621 5.35215 142.626 5.0865 142.632C4.23808 142.49 3.96048 142.257 3.45395 141.566C3.39507 140.715 3.39507 140.715 3.45395 139.983C3.66119 139.983 3.86843 139.983 4.08195 139.983C4.14216 139.79 4.20236 139.598 4.2644 139.399C4.9266 138.384 5.67755 138.278 6.81473 137.923C7.02511 137.857 7.23549 137.79 7.45225 137.722C17.9 134.474 28.6852 132.66 39.5639 131.749C39.8845 131.721 40.205 131.693 40.5353 131.664C43.4734 131.429 46.391 131.38 49.336 131.379Z" fill="#262424"/>
</svg>
