<svg width="237" height="146" viewBox="0 0 237 146" fill="none" xmlns="http://www.w3.org/2000/svg">
<path fill-rule="evenodd" clip-rule="evenodd" d="M51.9918 18.0694C51.8289 18.1145 51.3845 18.223 51.0041 18.3103C50.001 18.5401 48.1145 19.3316 48.009 19.5667C47.9907 19.6072 47.9302 19.64 47.874 19.64C47.5836 19.64 45.7178 21.2974 45.1787 22.0337C45.0211 22.2489 44.867 22.4465 44.8368 22.4735C44.601 22.681 43.7863 24.2235 43.4895 25.0255C42.6718 27.2311 42.676 30.1038 43.4995 32.3428C43.7401 32.9965 44.4386 34.3719 44.5962 34.5009C44.6721 34.563 44.7337 34.6744 44.7337 34.7483C44.7337 34.8227 44.7669 34.8837 44.8078 34.8837C44.8486 34.8843 44.9932 35.049 45.1289 35.2501C46.2606 36.9269 48.8018 38.5192 51.3502 39.1483C52.3586 39.3969 55.2091 39.3623 56.1885 39.0897C56.5961 38.9759 57.0773 38.8446 57.2574 38.7971C58.728 38.4119 61.172 36.6836 62.171 35.3228C62.3292 35.1077 62.4826 34.9101 62.5129 34.8831C62.687 34.726 63.3957 33.4684 63.6131 32.9291C64.0539 31.8363 64.1108 31.6358 64.3846 30.2123C64.6938 28.5994 64.3626 26.0814 63.6273 24.4586C63.5011 24.1795 63.3975 23.9257 63.3975 23.894C63.3975 23.8295 62.6248 22.6018 62.4418 22.3761C62.3766 22.2952 62.1449 22.0021 61.9263 21.7248C61.1685 20.7598 59.4277 19.4483 58.2623 18.964C57.9636 18.8397 57.6419 18.699 57.5471 18.6509C56.5973 18.1708 52.9855 17.7926 51.9918 18.0694ZM21.33 58.8102V78.3402L22.0955 78.3994C22.5161 78.4322 23.3936 78.4838 24.0454 78.5143C25.3957 78.5776 27.9446 78.9036 29.3287 79.1903C29.6818 79.2635 30.2038 79.3714 30.4888 79.4306C31.6732 79.6757 32.0643 79.766 32.4393 79.8832C32.6568 79.9507 33.0342 80.0609 33.2789 80.1277C35.2839 80.6753 37.6367 81.5055 39.5493 82.3386C40.6555 82.8205 43.9623 84.4316 44.1412 84.5752C44.2224 84.6409 44.5115 84.8115 44.7829 84.9545C45.0548 85.0976 45.6722 85.4546 46.1557 85.7472C46.6386 86.0403 47.0439 86.2801 47.0551 86.2801C47.1037 86.2801 49.626 87.9709 49.671 88.0336C49.6983 88.0712 49.8648 88.1855 50.0413 88.2869C50.2179 88.3883 50.3625 88.5062 50.3625 88.5484C50.3625 88.5906 50.4069 88.6252 50.4614 88.6252C50.5153 88.6252 50.6415 88.702 50.7417 88.7958C50.8418 88.8902 51.2956 89.2525 51.7501 89.6019C52.2051 89.9513 52.8006 90.445 53.0743 90.6988C53.684 91.2634 53.6556 91.2634 54.2765 90.6988C54.824 90.2005 55.1007 89.9725 56.0902 89.2062C56.4433 88.9324 56.8047 88.6504 56.8936 88.5795C56.9825 88.5085 57.5376 88.1163 58.1278 87.7083C58.7179 87.2996 59.2541 86.9209 59.3199 86.8669C59.3856 86.813 59.4686 86.7685 59.5041 86.7685C59.5397 86.7685 59.7808 86.6149 60.0398 86.4267C60.2987 86.2385 60.5452 86.0843 60.5872 86.0843C60.6287 86.0843 60.8088 85.9746 60.9866 85.8404C61.1649 85.7055 61.3397 85.5959 61.3758 85.5959C61.412 85.5959 61.5595 85.5144 61.7035 85.4142C61.9565 85.2394 62.4672 84.9463 63.3975 84.4439C64.1144 84.0563 66.4654 82.8961 67.0016 82.6651C67.2736 82.5479 67.6954 82.3644 67.9402 82.2565C68.41 82.0495 68.4183 82.046 69.4214 81.6561C70.8784 81.0898 72.6736 80.4865 74.0133 80.1142C74.1762 80.0691 74.5317 79.9683 74.8031 79.8903C75.0744 79.8129 75.5413 79.6974 75.84 79.6347C76.1386 79.5713 76.5385 79.484 76.7287 79.4394C77.4527 79.2712 78.5838 79.0607 79.296 78.9622C79.7036 78.9059 80.5035 78.7945 81.0735 78.7148C81.6441 78.6345 82.6661 78.5436 83.3452 78.5125C84.0242 78.4815 84.8791 78.4299 85.2459 78.3982L85.9125 78.3402V58.8102V39.2802H85.0741C83.9329 39.2802 80.5284 39.6103 78.9506 39.8735C77.9937 40.033 76.8354 40.2687 75.9881 40.4756C75.5538 40.5817 75.0205 40.7054 74.8031 40.7506C74.303 40.8555 72.279 41.4535 71.6925 41.6698C71.4478 41.7601 71.1592 41.8563 71.0508 41.8844C70.9418 41.912 70.764 41.97 70.6556 42.0128C70.5471 42.0556 70.1472 42.2104 69.7668 42.3564C69.0078 42.6478 68.7305 42.7568 68.2856 42.9409C68.1226 43.0083 67.8785 43.1092 67.7423 43.1648C66.2669 43.7716 62.4749 45.6694 62.1058 45.986C62.0199 46.0599 61.9186 46.1203 61.8801 46.1203C61.8167 46.1203 60.7697 46.7605 59.3489 47.6686C58.6663 48.1042 56.8474 49.3606 56.781 49.4409C56.7538 49.4743 56.5541 49.6285 56.3366 49.7839C56.1198 49.9393 55.8976 50.1128 55.8431 50.1697C55.7886 50.2265 55.5664 50.403 55.3495 50.5625C55.1321 50.7213 54.7766 51.0151 54.5591 51.2138C54.3423 51.4132 54.0508 51.6641 53.9115 51.7719L53.6591 51.9678L53.1709 51.531C52.9025 51.2906 52.4386 50.9095 52.14 50.6832C51.8413 50.4575 51.5522 50.2236 51.4983 50.1632C51.1724 49.8027 47.1007 46.9997 46.9017 46.9997C46.8501 46.9997 46.8075 46.9557 46.8075 46.9018C46.8075 46.8478 46.7689 46.8039 46.7215 46.8039C46.6741 46.8039 46.1984 46.54 45.6639 46.2176C45.1295 45.8951 44.6383 45.6313 44.5731 45.6313C44.5074 45.6313 44.4392 45.5985 44.4209 45.558C44.3717 45.4484 40.5157 43.482 40.3492 43.482C40.3172 43.482 39.954 43.3278 39.5428 43.1396C39.131 42.9514 38.74 42.7978 38.673 42.7978C38.6067 42.7978 38.5095 42.7597 38.4579 42.7134C38.4064 42.6671 38.2085 42.5745 38.0189 42.5082C37.8287 42.4414 37.251 42.2362 36.735 42.0515C35.8782 41.7455 34.4633 41.2747 33.7233 41.0496C33.5603 41.0003 33.1823 40.9059 32.8837 40.8403C32.5851 40.7752 32.2071 40.6785 32.0441 40.6257C30.2992 40.0629 24.5549 39.2778 22.1938 39.2796L21.33 39.2802V58.8102Z" fill="#FCB41C"/>
<path fill-rule="evenodd" clip-rule="evenodd" d="M181.575 18.0586C181.425 18.0756 181.323 18.1231 181.348 18.1647C181.374 18.2057 181.332 18.2392 181.256 18.2392C181.179 18.2392 181.142 18.1981 181.173 18.1483C181.204 18.0979 181.138 18.1061 181.025 18.1659C180.912 18.2257 180.784 18.2685 180.741 18.2614C180.698 18.2544 180.641 18.2573 180.614 18.2679C180.586 18.279 180.454 18.3019 180.317 18.3201C179.967 18.3658 179.792 18.4127 179.651 18.5001C179.583 18.5423 179.527 18.5464 179.527 18.51C179.527 18.4731 179.461 18.4983 179.379 18.5651C179.298 18.632 179.231 18.6507 179.231 18.6073C179.231 18.5634 179.175 18.6038 179.106 18.697C179.037 18.7903 178.848 18.8811 178.686 18.8999C178.524 18.9187 178.381 18.9439 178.367 18.9568C178.354 18.9697 178.299 18.9855 178.247 18.9925C178.194 18.999 178.065 19.0781 177.959 19.1678C177.853 19.2575 177.74 19.305 177.709 19.2733C177.677 19.2423 177.651 19.2675 177.651 19.3302C177.651 19.393 177.573 19.4457 177.479 19.4481C177.383 19.4498 177.172 19.5647 177.009 19.7031C176.846 19.8415 176.775 19.9206 176.852 19.8796C176.947 19.8286 176.967 19.8426 176.916 19.9247C176.875 19.9904 176.779 20.0203 176.703 19.9915C176.625 19.9616 176.565 19.9992 176.565 20.0765C176.565 20.1528 176.513 20.246 176.451 20.2841C176.376 20.3298 176.364 20.3105 176.415 20.2284C176.467 20.1451 176.448 20.1176 176.356 20.1463C176.281 20.1703 176.176 20.2853 176.122 20.4025C176.069 20.5192 175.959 20.6042 175.878 20.5913C175.796 20.5784 175.727 20.6341 175.723 20.7144C175.719 20.7953 175.663 20.8504 175.597 20.8369C175.532 20.8235 175.479 20.868 175.479 20.9354C175.479 21.0034 175.379 21.1043 175.257 21.1594C175.134 21.2139 175.045 21.3124 175.059 21.3775C175.072 21.4432 175.035 21.4854 174.976 21.4719C174.917 21.4584 174.816 21.5334 174.754 21.639C174.691 21.7445 174.539 21.9122 174.417 22.0124C174.295 22.1127 174.195 22.2821 174.195 22.3888C174.195 22.4955 174.159 22.5612 174.116 22.5342C174.072 22.5078 173.98 22.5758 173.911 22.6855C173.808 22.849 173.809 22.8713 173.916 22.8109C173.988 22.7705 173.902 22.8813 173.726 23.0566C173.441 23.3398 173.355 23.5256 173.393 23.7683C173.4 23.8082 173.362 23.8416 173.309 23.8416C173.256 23.8416 173.236 23.8991 173.264 23.97C173.291 24.0404 173.223 24.1793 173.112 24.2778C173.002 24.3769 172.911 24.5363 172.911 24.6325C172.911 24.7286 172.864 24.8359 172.806 24.8717C172.747 24.9069 172.722 24.9919 172.748 25.0599C172.775 25.1279 172.71 25.3243 172.605 25.4955C172.499 25.6673 172.435 25.8426 172.462 25.8854C172.489 25.9282 172.462 26.1122 172.404 26.2946C172.194 26.9494 172.101 29.6879 172.262 30.4859C172.3 30.6741 172.336 30.8828 172.341 30.9502C172.347 31.017 172.383 31.0721 172.42 31.0721C172.458 31.0721 172.481 31.1712 172.47 31.292C172.46 31.4128 172.51 31.6092 172.583 31.7282C172.655 31.8478 172.726 32.0237 172.742 32.1192C172.756 32.2154 172.808 32.3555 172.855 32.4305C172.919 32.5325 172.906 32.5478 172.803 32.4897C172.727 32.4464 172.764 32.5073 172.887 32.6252C173.009 32.7424 173.109 32.9529 173.109 33.0924C173.109 33.2326 173.187 33.4096 173.281 33.487C173.394 33.5785 173.403 33.6054 173.306 33.5638C173.175 33.5075 173.175 33.5151 173.306 33.63C173.387 33.7016 173.469 33.8259 173.486 33.9062C173.504 33.9865 173.566 34.0961 173.624 34.1501C173.698 34.2181 173.706 34.2058 173.651 34.1108C173.598 34.0187 173.61 33.9965 173.686 34.0428C173.749 34.0815 173.8 34.1759 173.8 34.2538C173.8 34.3312 173.855 34.3951 173.924 34.3957C174.006 34.3969 173.998 34.4291 173.899 34.4919C173.8 34.5552 173.791 34.5874 173.874 34.588C173.942 34.5892 173.998 34.6554 173.998 34.7363C173.998 34.8167 174.044 34.8829 174.102 34.8829C174.159 34.8829 174.179 34.9269 174.146 34.9808C174.112 35.0342 174.151 35.0781 174.233 35.0781C174.314 35.0781 174.412 35.1292 174.452 35.1913C174.498 35.2652 174.474 35.2798 174.383 35.2329C174.241 35.1596 174.433 35.322 174.754 35.5472C174.925 35.6668 174.925 35.6709 174.758 35.6216C174.655 35.5911 174.605 35.6099 174.64 35.6656C174.673 35.7189 174.764 35.7623 174.843 35.7623C174.921 35.7623 174.974 35.7952 174.961 35.8356C174.918 35.9669 175.881 36.844 175.993 36.776C176.056 36.7373 176.074 36.7537 176.036 36.8153C175.999 36.8733 176.059 36.9489 176.169 36.9835C176.278 37.0175 176.413 37.1289 176.468 37.2309C176.526 37.3388 176.63 37.3928 176.715 37.3605C176.803 37.3271 176.861 37.3611 176.861 37.4455C176.861 37.5774 177.047 37.7011 177.503 37.87C177.612 37.9099 177.734 37.9362 177.775 37.9274C177.815 37.9192 177.838 37.9667 177.824 38.0341C177.81 38.1016 177.855 38.1455 177.923 38.1321C177.991 38.1186 178.046 38.1514 178.046 38.2053C178.046 38.2587 178.135 38.3027 178.244 38.3027C178.353 38.3027 178.441 38.3419 178.441 38.39C178.441 38.4639 178.822 38.6075 178.985 38.5958C179.013 38.5934 179.17 38.6609 179.334 38.7447C179.498 38.8285 179.682 38.8667 179.743 38.8291C179.815 38.7846 179.827 38.8057 179.774 38.8895C179.715 38.9851 179.748 39.0038 179.907 38.9628C180.024 38.9323 180.12 38.9523 180.12 39.0074C180.12 39.0625 180.216 39.0824 180.333 39.0519C180.451 39.022 180.631 39.0414 180.734 39.0965C181.227 39.3568 184.784 39.3685 185.189 39.1105C185.252 39.0701 185.393 39.0343 185.502 39.0308C185.818 39.0208 186.736 38.6873 186.736 38.5823C186.736 38.5295 186.777 38.512 186.828 38.543C186.879 38.5741 186.95 38.5512 186.986 38.4932C187.023 38.4352 187.113 38.4105 187.187 38.4387C187.261 38.4668 187.349 38.4469 187.382 38.3947C187.414 38.3425 187.482 38.3249 187.533 38.356C187.584 38.3871 187.625 38.363 187.625 38.3027C187.625 38.2429 187.665 38.2176 187.713 38.2475C187.762 38.2774 187.828 38.2335 187.861 38.1496C187.893 38.0658 187.965 38.0248 188.019 38.0576C188.073 38.091 188.237 37.9949 188.381 37.8442C188.526 37.6935 188.613 37.6249 188.573 37.6923C188.459 37.887 188.622 37.8336 188.815 37.6126C188.913 37.5012 189.014 37.4244 189.041 37.4414C189.14 37.5053 189.794 36.9097 189.732 36.8118C189.697 36.7549 189.715 36.7379 189.774 36.7737C189.949 36.8809 190.21 36.7297 190.143 36.5591C190.11 36.4735 190.11 36.4295 190.142 36.4618C190.21 36.528 190.785 35.9875 190.785 35.8585C190.785 35.8116 190.836 35.7424 190.899 35.7043C190.976 35.6574 190.986 35.6797 190.932 35.7717C190.889 35.8473 190.96 35.7993 191.092 35.6644C191.241 35.5132 191.293 35.393 191.231 35.3484C191.174 35.3074 191.204 35.2763 191.303 35.2751C191.466 35.274 191.526 35.1573 191.48 34.9316C191.469 34.8782 191.492 34.8665 191.532 34.9058C191.617 34.9902 192.068 34.4983 192.068 34.3213C192.069 34.2538 192.113 34.1987 192.167 34.1987C192.222 34.1987 192.266 34.136 192.266 34.0592C192.266 33.9824 192.322 33.8616 192.391 33.7907C192.502 33.6764 192.623 33.4178 192.979 32.5378C193.175 32.0524 193.329 31.472 193.275 31.4192C193.246 31.3893 193.271 31.3653 193.332 31.3653C193.397 31.3653 193.426 31.2451 193.404 31.0721C193.384 30.9109 193.401 30.779 193.442 30.779C193.483 30.779 193.523 30.7239 193.531 30.657C193.538 30.5896 193.576 30.2707 193.615 29.9482C193.738 28.9158 193.689 27.1353 193.544 27.368C193.483 27.4665 193.464 27.446 193.476 27.2912C193.485 27.1746 193.527 27.1007 193.57 27.1271C193.613 27.1535 193.606 27.0667 193.556 26.9348C193.505 26.8029 193.49 26.6686 193.524 26.6364C193.556 26.6041 193.536 26.5772 193.479 26.5772C193.333 26.5772 193.251 26.2037 193.388 26.158C193.468 26.1316 193.461 26.073 193.364 25.9569C193.289 25.8672 193.212 25.6655 193.194 25.5096C193.176 25.353 193.07 25.0646 192.958 24.8682C192.846 24.6718 192.812 24.544 192.881 24.5838C192.95 24.6237 192.932 24.5721 192.841 24.4689C192.75 24.3657 192.669 24.2491 192.66 24.2098C192.586 23.878 192.526 23.7437 192.452 23.7437C192.404 23.7437 192.372 23.7109 192.381 23.6704C192.389 23.63 192.347 23.4875 192.288 23.3527C192.228 23.2184 192.173 23.1527 192.164 23.2061C192.155 23.26 192.115 23.1944 192.075 23.0595C192.035 22.9253 191.947 22.8273 191.88 22.842C191.813 22.8572 191.786 22.8238 191.821 22.7681C191.902 22.6374 191.501 22.0793 191.347 22.1086C191.283 22.1215 191.242 22.0546 191.258 21.9602C191.274 21.8664 191.241 21.7896 191.184 21.7896C191.127 21.7896 191.081 21.7123 191.079 21.6184C191.078 21.486 191.059 21.4772 190.994 21.5798C190.931 21.6782 190.875 21.636 190.776 21.4138C190.697 21.2385 190.542 21.0908 190.398 21.055C190.204 21.007 190.183 20.9759 190.296 20.905C190.402 20.8387 190.406 20.8147 190.311 20.8141C190.24 20.8129 190.085 20.7115 189.966 20.5878C189.846 20.4641 189.814 20.4482 189.896 20.5526C190.037 20.7332 190.034 20.7361 189.822 20.6071C189.7 20.5327 189.6 20.4224 189.6 20.3609C189.6 20.2999 189.525 20.1897 189.433 20.1158C189.289 20.0003 189.276 20.0021 189.342 20.1281C189.383 20.209 189.344 20.1868 189.255 20.0795C189.165 19.9722 189.051 19.8948 189 19.9083C188.95 19.9218 188.92 19.8837 188.933 19.8239C188.947 19.7635 188.87 19.7002 188.762 19.6826C188.655 19.665 188.551 19.604 188.532 19.5466C188.513 19.4897 188.459 19.4662 188.413 19.495C188.366 19.5231 188.23 19.4463 188.11 19.3244C187.99 19.2024 187.928 19.1684 187.972 19.2487C188.016 19.3296 187.939 19.2945 187.802 19.1708C187.664 19.047 187.457 18.9386 187.341 18.9298C187.226 18.921 187.131 18.8794 187.131 18.8372C187.131 18.7949 187.084 18.7604 187.027 18.7604C186.969 18.7604 186.949 18.8037 186.982 18.8571C187.017 18.9122 186.978 18.9286 186.89 18.8958C186.806 18.8635 186.76 18.8014 186.787 18.7574C186.852 18.6542 186.475 18.5323 186.342 18.6132C186.287 18.6466 186.242 18.6279 186.242 18.571C186.242 18.5135 186.161 18.4672 186.062 18.4672C185.962 18.4672 185.851 18.4379 185.814 18.4021C185.739 18.3277 185.364 18.265 184.845 18.2403C184.647 18.2304 184.503 18.1928 184.525 18.1565C184.61 18.0211 184.155 17.966 183.997 18.0926C183.908 18.1641 183.861 18.1788 183.894 18.1243C183.95 18.031 182.243 17.9824 181.575 18.0586ZM151.26 39.358L150.692 39.3873V58.8762V78.3652L151.063 78.3675C151.448 78.3699 153.04 78.4443 154.149 78.5123C154.501 78.534 154.924 78.5797 155.087 78.6143C155.25 78.6489 155.528 78.6835 155.704 78.6917C155.881 78.6999 156.025 78.7398 156.025 78.7802C156.025 78.8207 156.072 78.8535 156.13 78.8535C156.187 78.8535 156.21 78.8142 156.179 78.7662C156.148 78.7158 156.271 78.7117 156.47 78.7562C156.66 78.7984 156.815 78.8101 156.815 78.7826C156.815 78.7544 156.87 78.7732 156.938 78.8242C157.007 78.8752 157.173 78.9133 157.309 78.9098C157.444 78.9057 157.588 78.9462 157.628 79.0001C157.674 79.0622 157.701 79.0564 157.702 78.9849C157.703 78.9098 157.873 78.9356 158.212 79.0634C158.491 79.1684 158.78 79.2317 158.854 79.2035C158.927 79.1754 158.987 79.1895 158.987 79.234C158.987 79.2786 159.087 79.3079 159.209 79.2985C159.332 79.2891 159.56 79.3431 159.717 79.4187C159.954 79.533 160.015 79.5342 160.085 79.4246C160.155 79.3149 160.17 79.3155 160.171 79.4269C160.172 79.5107 160.244 79.5418 160.365 79.5102C160.471 79.4832 160.571 79.4967 160.588 79.5406C160.604 79.5846 160.746 79.6526 160.903 79.6913C161.095 79.7382 161.168 79.7271 161.125 79.6579C161.089 79.6016 161.236 79.6386 161.45 79.7412C161.664 79.8432 161.91 79.9 161.997 79.8672C162.084 79.8338 162.235 79.8783 162.332 79.9657C162.43 80.053 162.539 80.0947 162.575 80.0589C162.612 80.0231 162.641 80.0448 162.641 80.1076C162.641 80.1703 162.688 80.2213 162.746 80.2213C162.804 80.2213 162.82 80.1732 162.783 80.1134C162.746 80.0542 162.825 80.0765 162.958 80.1627C163.091 80.2495 163.228 80.2922 163.262 80.2588C163.295 80.2254 163.395 80.2694 163.483 80.3562C163.571 80.4435 163.773 80.5144 163.932 80.5144C164.091 80.5144 164.221 80.549 164.221 80.5913C164.221 80.6329 164.339 80.6768 164.483 80.6892C164.627 80.7009 164.8 80.756 164.867 80.8111C164.935 80.8668 165.028 80.9037 165.075 80.8932C165.121 80.8826 165.286 80.9254 165.439 80.9882C165.593 81.0509 165.755 81.0802 165.799 81.0532C165.843 81.0263 165.904 81.0667 165.933 81.1429C165.968 81.2315 166.066 81.2608 166.206 81.2244C166.371 81.1816 166.405 81.1998 166.344 81.2977C166.286 81.3909 166.307 81.4103 166.42 81.3675C166.506 81.3346 166.632 81.3733 166.699 81.4531C166.766 81.5328 166.876 81.5768 166.945 81.551C167.091 81.4959 167.577 81.6987 167.578 81.8154C167.579 81.8588 167.618 81.8699 167.666 81.8406C167.714 81.8113 167.809 81.8523 167.876 81.9326C167.943 82.0124 168.048 82.0775 168.109 82.0763C168.17 82.0757 168.154 82.0323 168.073 81.9801C167.991 81.9279 167.974 81.8852 168.036 81.884C168.097 81.8834 168.202 81.9485 168.27 82.0294C168.338 82.1097 168.479 82.1759 168.584 82.1759C168.705 82.1759 168.749 82.2176 168.704 82.2903C168.656 82.3671 168.686 82.3841 168.797 82.3419C168.887 82.3079 168.961 82.3266 168.961 82.3847C168.961 82.4427 169.03 82.4638 169.114 82.4316C169.199 82.3993 169.243 82.4116 169.214 82.4591C169.165 82.5383 169.509 82.6989 169.677 82.6749C169.718 82.669 169.751 82.7083 169.751 82.7622C169.751 82.8156 169.784 82.8525 169.825 82.8437C169.866 82.8355 170.024 82.8795 170.177 82.9416C170.33 83.0044 170.497 83.0554 170.548 83.0554C170.598 83.0554 170.64 83.104 170.64 83.1632C170.64 83.223 170.706 83.2459 170.788 83.2154C170.869 83.1843 170.936 83.2013 170.936 83.2529C170.936 83.3479 172.207 83.9776 172.343 83.9494C172.384 83.9412 172.417 83.9834 172.417 84.0438C172.417 84.1048 172.505 84.13 172.615 84.1019C172.724 84.0737 172.788 84.0901 172.758 84.1394C172.727 84.188 172.768 84.2279 172.849 84.2279C172.93 84.2279 173.062 84.2936 173.143 84.3739C173.224 84.4542 173.382 84.5334 173.493 84.5504C173.605 84.5674 173.73 84.6184 173.773 84.6641C173.815 84.7098 173.794 84.7157 173.726 84.6776C173.658 84.6389 173.602 84.6283 173.602 84.6547C173.602 84.6805 173.736 84.7679 173.9 84.8488C174.089 84.942 174.174 84.9537 174.13 84.8804C174.092 84.8171 174.191 84.8904 174.348 85.0428C174.684 85.3682 175.152 85.6256 175.273 85.5517C175.32 85.5236 175.383 85.5969 175.414 85.7147C175.445 85.8325 175.503 85.8982 175.541 85.8601C175.579 85.822 175.692 85.8636 175.792 85.9527C175.891 86.0418 175.972 86.0776 175.972 86.0319C175.972 85.9862 176.042 86.0348 176.128 86.1386C176.214 86.2429 176.254 86.2623 176.22 86.182C176.177 86.0858 176.204 86.0946 176.297 86.2066C176.375 86.3004 176.489 86.3772 176.551 86.3772C176.613 86.3772 176.664 86.4182 176.664 86.4687C176.664 86.5642 177.05 86.7249 177.189 86.6873C177.234 86.6756 177.246 86.7055 177.216 86.7548C177.185 86.804 177.226 86.8984 177.307 86.9646C177.387 87.0309 177.454 87.0579 177.454 87.0244C177.454 86.991 177.544 87.0532 177.655 87.1628C177.765 87.2719 177.899 87.3352 177.951 87.3035C178.004 87.2713 178.046 87.2994 178.046 87.3651C178.046 87.4307 178.075 87.4559 178.11 87.4213C178.146 87.3862 178.274 87.4641 178.396 87.5943C178.518 87.7244 178.639 87.8106 178.664 87.7854C178.69 87.7596 178.783 87.8493 178.872 87.9836C178.972 88.1331 179.091 88.2058 179.182 88.1712C179.274 88.1366 179.33 88.1724 179.33 88.2656C179.33 88.3483 179.421 88.445 179.533 88.4796C179.644 88.5148 179.868 88.6719 180.03 88.8284C180.192 88.9849 180.39 89.1133 180.469 89.1133C180.548 89.1133 180.614 89.1743 180.614 89.2494C180.614 89.3244 180.683 89.4118 180.767 89.444C180.868 89.4821 180.899 89.4604 180.858 89.3807C180.824 89.3144 180.86 89.3361 180.937 89.4293C181.015 89.5226 181.106 89.57 181.142 89.5355C181.177 89.5003 181.206 89.5378 181.206 89.6193C181.206 89.8122 181.521 90.0907 181.738 90.0907C181.832 90.0907 181.881 90.1346 181.848 90.1892C181.814 90.2431 181.881 90.3222 181.997 90.365C182.113 90.4072 182.205 90.4729 182.201 90.5104C182.197 90.548 182.22 90.5755 182.252 90.5714C182.285 90.5673 182.425 90.6992 182.563 90.8645C182.839 91.1946 183.108 91.2644 183.062 90.9941C183.046 90.8985 183.088 90.8341 183.157 90.8475C183.225 90.861 183.28 90.7954 183.282 90.701C183.283 90.555 183.297 90.5515 183.379 90.6769C183.46 90.8012 183.475 90.7965 183.476 90.6464C183.477 90.5491 183.522 90.4969 183.576 90.5304C183.631 90.5632 183.675 90.5315 183.675 90.4594C183.675 90.3879 183.808 90.2789 183.971 90.2179C184.134 90.1575 184.267 90.0379 184.267 89.9523C184.267 89.8673 184.329 89.7975 184.405 89.7975C184.481 89.7975 184.568 89.7313 184.599 89.651C184.631 89.5701 184.724 89.5044 184.807 89.5044C184.891 89.5044 184.959 89.4604 184.959 89.4065C184.959 89.3525 185.037 89.308 185.131 89.3074C185.271 89.3062 185.278 89.2892 185.165 89.2183C185.058 89.1514 185.08 89.1227 185.263 89.0957C185.395 89.0758 185.49 89.0025 185.475 88.9328C185.46 88.863 185.496 88.8349 185.554 88.8706C185.612 88.9064 185.743 88.8407 185.845 88.7252C185.947 88.6091 186.054 88.5282 186.083 88.5452C186.113 88.5622 186.228 88.4989 186.339 88.4051C186.45 88.3107 186.585 88.2339 186.639 88.2339C186.693 88.2339 186.736 88.1677 186.736 88.0874C186.736 88.0053 186.824 87.9408 186.936 87.9408C187.053 87.9408 187.182 87.8399 187.248 87.6963C187.315 87.5515 187.444 87.4512 187.566 87.4489C187.812 87.4454 188.119 87.2343 188.119 87.069C188.119 87.0051 188.163 86.9793 188.218 87.0127C188.272 87.0455 188.316 87.0057 188.316 86.9236C188.316 86.8374 188.373 86.7958 188.452 86.8257C188.526 86.8538 188.658 86.8069 188.744 86.7213C188.831 86.6357 188.926 86.5671 188.955 86.5695C189.153 86.5824 189.211 86.5636 189.17 86.4986C189.145 86.4581 189.297 86.3414 189.507 86.24C189.718 86.1386 189.868 86.0213 189.842 85.9791C189.816 85.9375 189.895 85.8877 190.018 85.8689C190.141 85.8507 190.23 85.778 190.215 85.7083C190.2 85.6367 190.236 85.6104 190.297 85.6479C190.357 85.6848 190.472 85.6221 190.552 85.5083C190.632 85.3946 190.805 85.3026 190.938 85.3026C191.071 85.3026 191.18 85.2691 191.18 85.2281C191.18 85.1876 191.274 85.0962 191.388 85.0258C191.56 84.9191 191.583 84.9197 191.521 85.0264C191.481 85.0979 191.545 85.0569 191.663 84.9361C191.782 84.8154 191.965 84.7163 192.069 84.7163C192.174 84.7163 192.309 84.6248 192.369 84.5122C192.43 84.4003 192.506 84.3346 192.538 84.3663C192.57 84.3979 192.685 84.3463 192.794 84.2525C192.935 84.1294 192.968 84.1224 192.908 84.2279C192.848 84.3329 192.881 84.3258 193.022 84.2033C193.131 84.1095 193.272 84.0321 193.336 84.0321C193.399 84.0321 193.539 83.9453 193.647 83.8392C193.766 83.7208 193.906 83.6704 194.008 83.7091C194.121 83.7519 194.152 83.7354 194.104 83.6581C194.061 83.5906 194.095 83.5385 194.186 83.5314C194.494 83.5068 194.534 83.4921 194.723 83.3321C194.829 83.2424 194.942 83.1949 194.973 83.226C195.005 83.2576 195.031 83.2295 195.031 83.1632C195.031 83.0976 195.076 83.0706 195.13 83.104C195.184 83.1374 195.229 83.1152 195.229 83.0554C195.229 82.995 195.273 82.9733 195.328 83.0061C195.382 83.0395 195.426 83.0202 195.426 82.9633C195.426 82.9064 195.492 82.8595 195.571 82.8595C195.651 82.8595 195.869 82.7751 196.056 82.6713C196.242 82.5676 196.421 82.5089 196.453 82.5412C196.486 82.5729 196.513 82.5476 196.513 82.4849C196.513 82.4228 196.612 82.37 196.735 82.3688C196.857 82.3677 197.068 82.2809 197.204 82.1759C197.34 82.0704 197.526 81.9837 197.618 81.9825C197.71 81.9813 197.811 81.9385 197.843 81.8869C197.875 81.8353 197.962 81.8166 198.036 81.8447C198.111 81.8728 198.201 81.8488 198.236 81.7914C198.272 81.7339 198.388 81.687 198.493 81.687C198.599 81.687 198.685 81.6524 198.685 81.6102C198.685 81.568 198.78 81.5264 198.896 81.5176C199.011 81.5088 199.334 81.3974 199.611 81.2701C200.659 80.7888 200.873 80.7085 200.963 80.763C201.013 80.7941 201.055 80.7701 201.055 80.7091C201.055 80.6452 201.134 80.6241 201.244 80.6587C201.348 80.6915 201.462 80.6716 201.498 80.6147C201.534 80.5578 201.604 80.5367 201.654 80.5678C201.705 80.5989 201.746 80.5701 201.746 80.5039C201.746 80.4382 201.775 80.413 201.811 80.4488C201.847 80.484 201.944 80.4582 202.028 80.3919C202.153 80.2911 202.165 80.2952 202.094 80.4171C202.025 80.535 202.045 80.5326 202.198 80.4054C202.303 80.318 202.444 80.267 202.512 80.2911C202.579 80.3157 202.635 80.2881 202.635 80.2295C202.635 80.1715 202.782 80.124 202.961 80.124C203.14 80.124 203.34 80.0712 203.405 80.0067C203.47 79.9422 203.524 79.9252 203.524 79.9698C203.524 80.0138 203.599 79.9897 203.691 79.9159C203.835 79.8004 203.846 79.8021 203.771 79.9282C203.698 80.0501 203.709 80.0542 203.835 79.9534C203.918 79.8871 204.015 79.8613 204.051 79.8965C204.087 79.9323 204.116 79.9094 204.116 79.8467C204.116 79.7839 204.149 79.7382 204.19 79.7447C204.454 79.7857 204.908 79.7177 204.863 79.6444C204.832 79.5958 204.896 79.5788 205.005 79.6069C205.113 79.635 205.202 79.6104 205.202 79.5518C205.202 79.4937 205.264 79.4697 205.34 79.4984C205.417 79.5272 205.507 79.5061 205.541 79.4509C205.576 79.3958 205.669 79.3753 205.749 79.4058C205.829 79.4357 205.971 79.4275 206.067 79.387C206.162 79.3466 206.362 79.3143 206.511 79.3149C206.66 79.3155 206.782 79.2727 206.782 79.2205C206.782 79.1684 206.851 79.1519 206.936 79.1842C207.02 79.2158 207.065 79.2041 207.036 79.1572C207.006 79.1103 207.104 79.0728 207.253 79.0746C207.762 79.0787 208.363 79.0107 208.363 78.9485C208.363 78.8758 208.404 78.8694 209.251 78.8113C209.604 78.7867 210.004 78.7462 210.14 78.721C210.397 78.6735 211.263 78.5463 211.524 78.5182C211.607 78.5094 211.725 78.4713 211.787 78.4332C211.85 78.3951 211.918 78.4144 211.938 78.476C211.966 78.5592 212.036 78.5569 212.206 78.4672C212.389 78.3699 212.42 78.3699 212.358 78.4678C212.304 78.5551 212.322 78.5663 212.421 78.5059C212.553 78.4244 213.039 78.3939 214.509 78.374L215.175 78.3652L215.201 58.8469L215.226 39.3286L214.445 39.3486C214.015 39.3597 213.604 39.3914 213.532 39.4189C213.458 39.4465 213.399 39.4236 213.399 39.3679C213.399 39.3122 213.321 39.2905 213.226 39.3198C213.131 39.3492 212.909 39.3832 212.732 39.3961C212.556 39.409 212.411 39.4541 212.411 39.4963C212.411 39.5385 212.364 39.5731 212.306 39.5731C212.249 39.5731 212.233 39.5233 212.271 39.4617C212.322 39.3814 212.235 39.372 211.956 39.4277C211.567 39.5063 211.374 39.5309 210.486 39.6159C210.214 39.6417 209.814 39.6898 209.597 39.722C209.379 39.7549 209.106 39.7895 208.988 39.7994C208.87 39.8094 208.741 39.8504 208.7 39.8909C208.659 39.9307 208.578 39.9636 208.519 39.9624C208.46 39.9618 208.479 39.9137 208.56 39.8557C208.68 39.7707 208.67 39.7631 208.511 39.817C208.402 39.8539 208.224 39.8985 208.116 39.9155C208.007 39.9331 207.763 39.9946 207.573 40.0533C207.145 40.1852 207.15 40.1852 207.24 40.0374C207.299 39.9395 207.284 39.9395 207.163 40.0363C207.079 40.1031 206.982 40.1289 206.946 40.0931C206.91 40.058 206.881 40.0779 206.881 40.1377C206.881 40.1969 206.793 40.2292 206.684 40.208C206.575 40.1875 206.486 40.2057 206.486 40.2491C206.486 40.2925 206.331 40.3106 206.141 40.2901C205.951 40.2696 205.795 40.2901 205.795 40.3364C205.795 40.4197 205.684 40.4455 205.184 40.4766C205.039 40.4859 204.946 40.5352 204.978 40.5862C205.011 40.639 204.945 40.6554 204.823 40.6237C204.706 40.5932 204.585 40.6091 204.554 40.6589C204.523 40.7081 204.459 40.7251 204.412 40.697C204.366 40.6683 204.301 40.6865 204.27 40.7375C204.238 40.7885 204.07 40.826 203.898 40.8213C203.725 40.8166 203.566 40.8635 203.546 40.9256C203.522 40.9948 203.41 41.0142 203.254 40.9755C203.06 40.9274 203.02 40.9427 203.081 41.0411C203.139 41.1344 203.115 41.1525 202.997 41.1074C202.906 41.0728 202.832 41.0781 202.832 41.1185C202.832 41.159 202.743 41.2018 202.635 41.2135C202.527 41.2246 202.352 41.2434 202.247 41.2551C202.143 41.2669 202.077 41.3079 202.101 41.3472C202.125 41.3859 202.067 41.4175 201.971 41.4169C201.747 41.4152 201.529 41.4656 201.392 41.55C201.333 41.587 201.141 41.6415 200.966 41.6726C200.79 41.7031 200.552 41.815 200.437 41.9206C200.194 42.1451 200.103 42.1609 200.034 41.9915C199.994 41.8936 199.983 41.8936 199.976 41.9915C199.972 42.0607 199.838 42.1134 199.667 42.1134C199.461 42.1134 199.387 42.1504 199.436 42.2278C199.483 42.304 199.454 42.3222 199.35 42.2823C199.262 42.2495 199.177 42.2665 199.158 42.321C199.14 42.3749 198.999 42.433 198.845 42.4494C198.69 42.4664 198.525 42.5402 198.478 42.6141C198.431 42.6886 198.391 42.7144 198.39 42.6722C198.389 42.63 198.289 42.6505 198.166 42.7173C198.044 42.7841 197.904 42.8275 197.855 42.8135C197.805 42.7988 197.739 42.8234 197.707 42.868C197.639 42.9606 197.103 43.225 196.957 43.2379C196.903 43.2426 196.764 43.2977 196.649 43.3604C196.534 43.4232 196.411 43.4472 196.378 43.4132C196.343 43.3792 196.315 43.4027 196.315 43.4654C196.315 43.5281 196.193 43.5797 196.043 43.5809C195.832 43.5821 195.805 43.6032 195.92 43.677C196.046 43.7574 196.042 43.772 195.892 43.7732C195.795 43.7744 195.608 43.8447 195.476 43.9297C195.345 44.0147 195.191 44.0564 195.135 44.0218C195.078 43.9872 195.031 44.0024 195.031 44.0558C195.031 44.1525 194.652 44.319 194.513 44.2827C194.472 44.2721 194.439 44.3073 194.439 44.3612C194.439 44.4146 194.35 44.4585 194.241 44.4585C194.133 44.4585 194.044 44.5025 194.044 44.5564C194.044 44.6104 193.98 44.6544 193.903 44.6544C193.826 44.6544 193.631 44.764 193.469 44.8982C193.308 45.0331 193.109 45.1427 193.026 45.1427C192.803 45.1427 192.069 45.5531 192.128 45.6463C192.155 45.6903 192.101 45.6979 192.008 45.6622C191.894 45.6188 191.862 45.6346 191.91 45.7126C191.955 45.7841 191.913 45.8269 191.797 45.8269C191.695 45.8269 191.516 45.9154 191.398 46.0239C191.28 46.1329 191.172 46.2144 191.157 46.2051C191.059 46.1447 190.696 46.3493 190.749 46.4349C190.787 46.4947 190.77 46.5128 190.71 46.4765C190.653 46.4413 190.531 46.4407 190.44 46.4753C190.308 46.5252 190.301 46.5545 190.406 46.6207C190.509 46.6852 190.504 46.7034 190.379 46.7046C190.291 46.7057 190.113 46.7872 189.983 46.8869C189.854 46.9866 189.681 47.0464 189.6 47.02C189.518 46.9942 189.485 47.0077 189.525 47.0505C189.608 47.1372 189.08 47.4878 188.868 47.4878C188.793 47.4878 188.704 47.5599 188.67 47.6485C188.636 47.7364 188.581 47.7827 188.549 47.7505C188.469 47.6725 188.218 47.9299 188.216 48.0917C188.215 48.1873 188.189 48.1826 188.117 48.0741C188.036 47.9522 188.009 47.9662 187.957 48.1556C187.922 48.2811 187.865 48.3379 187.83 48.2822C187.792 48.2207 187.651 48.2846 187.473 48.4446C186.966 48.9007 186.782 49.0286 186.88 48.8556C186.962 48.7126 186.771 48.865 186.3 49.3199C186.174 49.4407 186.019 49.5398 185.954 49.5398C185.889 49.5398 185.868 49.5908 185.906 49.6524C185.949 49.7209 185.934 49.7391 185.866 49.6981C185.806 49.6606 185.669 49.7086 185.563 49.8048C185.457 49.9009 185.23 50.0897 185.057 50.224C184.885 50.3582 184.667 50.5376 184.572 50.6221C184.478 50.7071 184.323 50.8056 184.229 50.8413C184.131 50.8788 184.088 50.9551 184.128 51.0201C184.167 51.0823 184.158 51.1087 184.109 51.0782C183.967 50.9914 183.645 51.2693 183.729 51.4047C183.776 51.4798 183.763 51.4991 183.694 51.4569C183.633 51.4194 183.497 51.4751 183.391 51.58C183.284 51.685 183.174 51.7471 183.145 51.7184C183.116 51.6897 183.063 51.7805 183.028 51.9201C182.972 52.1399 182.937 52.1598 182.763 52.0678C182.601 51.9822 182.589 51.9447 182.699 51.8761C182.808 51.8075 182.8 51.7899 182.663 51.7887C182.568 51.7876 182.49 51.7407 182.49 51.6838C182.49 51.6269 182.457 51.5994 182.416 51.6222C182.375 51.6457 182.253 51.5753 182.145 51.4663C182.036 51.3578 182.014 51.3039 182.095 51.3467C182.177 51.3901 182.143 51.3285 182.02 51.2101C181.897 51.0922 181.751 51.0231 181.696 51.0565C181.642 51.0905 181.608 51.0623 181.624 50.9943C181.639 50.9263 181.562 50.8525 181.453 50.8296C181.202 50.778 180.997 50.615 181.058 50.5165C181.112 50.4298 180.607 50.0698 180.483 50.1067C180.438 50.1202 180.429 50.088 180.461 50.0352C180.494 49.9824 180.375 49.8652 180.197 49.7749C180.019 49.6846 179.837 49.5503 179.793 49.4759C179.749 49.4014 179.671 49.3657 179.62 49.3967C179.569 49.4284 179.527 49.4102 179.527 49.3569C179.527 49.3035 179.435 49.2308 179.322 49.1956C179.21 49.1599 179.144 49.1054 179.175 49.0743C179.257 48.9928 178.723 48.6615 178.51 48.661C178.411 48.6604 178.355 48.6211 178.385 48.5736C178.464 48.447 178.174 48.24 178.036 48.325C177.966 48.3678 177.943 48.3561 177.98 48.2963C178.016 48.2388 177.913 48.1697 177.742 48.1362C177.576 48.1034 177.466 48.0372 177.495 47.9885C177.575 47.8607 177.286 47.6537 177.147 47.7388C177.075 47.7827 177.054 47.7698 177.094 47.7053C177.131 47.6473 177.071 47.5717 176.961 47.5371C176.852 47.5025 176.762 47.4339 176.762 47.3835C176.762 47.3336 176.715 47.2926 176.658 47.2926C176.601 47.2926 176.587 47.3471 176.627 47.4145C176.679 47.4984 176.65 47.4949 176.535 47.4034C176.444 47.3301 176.391 47.2357 176.417 47.1941C176.444 47.1519 176.396 47.0915 176.313 47.0593C176.213 47.0217 176.18 47.0434 176.219 47.1226C176.252 47.1888 176.204 47.1449 176.113 47.0235C176.022 46.9027 175.887 46.8036 175.812 46.8036C175.737 46.8036 175.676 46.7597 175.676 46.7063C175.676 46.6524 175.629 46.6084 175.571 46.6084C175.514 46.6084 175.494 46.6518 175.527 46.7051C175.561 46.7591 175.524 46.7773 175.442 46.7462C175.362 46.7157 175.272 46.6283 175.243 46.5521C175.213 46.4753 175.118 46.4132 175.032 46.4132C174.945 46.4132 174.902 46.3692 174.936 46.3153C174.996 46.2185 174.863 46.1775 174.605 46.2127C174.522 46.2238 174.5 46.1845 174.547 46.1095C174.6 46.0257 174.572 46.0081 174.458 46.0515C174.348 46.0931 174.294 46.0632 174.294 45.96C174.294 45.8545 174.24 45.8263 174.124 45.8703C174.03 45.9055 173.986 45.9031 174.025 45.865C174.102 45.7882 173.544 45.4153 173.306 45.3843C173.032 45.3491 172.765 45.2131 172.508 44.9792C172.368 44.8513 172.151 44.7276 172.026 44.7036C171.9 44.6796 171.711 44.5817 171.603 44.4861C171.497 44.3905 171.381 44.3178 171.346 44.3243C171.236 44.3448 170.997 44.2387 170.715 44.0458C170.566 43.9438 170.392 43.8916 170.329 43.9303C170.252 43.9772 170.241 43.9573 170.295 43.8711C170.354 43.7767 170.331 43.7585 170.212 43.8037C170.122 43.8383 170.047 43.8213 170.047 43.7662C170.047 43.7105 170.003 43.6929 169.949 43.7257C169.895 43.7591 169.85 43.7351 169.85 43.6723C169.85 43.6096 169.781 43.5844 169.697 43.6167C169.609 43.6501 169.569 43.6337 169.604 43.578C169.664 43.4824 169.53 43.4414 169.272 43.4765C169.199 43.4865 169.166 43.4513 169.199 43.3986C169.232 43.3452 169.114 43.2713 168.937 43.2338C168.761 43.1963 168.56 43.1218 168.492 43.0673C168.424 43.0134 168.369 43.0016 168.369 43.0421C168.369 43.082 168.304 43.0614 168.225 42.9964C168.146 42.9319 168.043 42.902 167.996 42.9307C167.949 42.9594 167.849 42.8967 167.772 42.7923C167.696 42.688 167.566 42.603 167.483 42.6036C167.349 42.6047 167.349 42.6159 167.48 42.6997C167.583 42.766 167.59 42.7953 167.501 42.7959C167.432 42.797 167.35 42.732 167.318 42.6516C167.287 42.5713 167.222 42.5297 167.173 42.5596C167.125 42.5895 167.085 42.5625 167.085 42.4998C167.085 42.4371 167.016 42.4119 166.932 42.4441C166.838 42.4793 166.804 42.4617 166.843 42.399C166.878 42.3427 166.847 42.3081 166.774 42.3227C166.7 42.338 166.54 42.2946 166.417 42.2272C166.293 42.1598 166.152 42.1287 166.104 42.1586C166.055 42.1885 165.998 42.1609 165.977 42.0982C165.956 42.0349 165.799 41.9833 165.627 41.9833C165.456 41.9833 165.336 41.951 165.361 41.9112C165.413 41.8285 164.873 41.6251 164.601 41.6251C164.501 41.6251 164.419 41.587 164.419 41.5407C164.419 41.4943 164.319 41.4627 164.197 41.4703C164.074 41.4779 163.946 41.4439 163.911 41.3947C163.876 41.3454 163.709 41.3003 163.541 41.2938C163.372 41.288 163.234 41.2522 163.234 41.2141C163.234 41.1766 163.067 41.1156 162.863 41.0793C162.66 41.0423 162.376 40.9544 162.234 40.8829C162.092 40.8119 161.752 40.741 161.479 40.7251C161.206 40.7093 160.999 40.6689 161.021 40.6349C161.041 40.6003 160.97 40.5498 160.863 40.5217C160.739 40.4895 160.69 40.5094 160.731 40.5745C160.769 40.636 160.748 40.6495 160.68 40.6073C160.616 40.5686 160.444 40.5153 160.296 40.4889C160.149 40.4625 159.995 40.388 159.954 40.3241C159.901 40.2421 159.878 40.2508 159.876 40.3546C159.874 40.476 159.858 40.4783 159.787 40.3669C159.74 40.2925 159.654 40.2602 159.598 40.2948C159.541 40.3294 159.467 40.3124 159.432 40.2573C159.397 40.2016 159.326 40.1828 159.273 40.2151C159.22 40.2473 159.113 40.2227 159.037 40.16C158.961 40.0967 158.807 40.0744 158.696 40.109C158.579 40.1459 158.494 40.1289 158.494 40.0691C158.494 40.007 158.354 39.9829 158.148 40.0087C157.958 40.0328 157.802 40.0181 157.802 39.9759C157.802 39.9337 157.747 39.895 157.679 39.8897C157.611 39.8844 157.334 39.8481 157.062 39.8088C156.79 39.7695 156.424 39.7338 156.247 39.7296C156.07 39.7255 155.926 39.6933 155.926 39.6587C155.926 39.6241 155.604 39.5919 155.21 39.5878C154.433 39.5796 153.912 39.5233 153.763 39.4324C153.711 39.4008 153.641 39.4189 153.607 39.474C153.572 39.5286 153.478 39.5731 153.396 39.5731C153.31 39.5731 153.277 39.5262 153.319 39.4605C153.369 39.3796 153.274 39.3632 152.979 39.4025C152.753 39.4324 152.569 39.4213 152.569 39.3779C152.569 39.3011 152.411 39.2987 151.26 39.358Z" fill="#EC542C"/>
<path fill-rule="evenodd" clip-rule="evenodd" d="M116.133 18.1794C114.651 18.4971 112.285 19.5219 111.883 20.0197C111.856 20.0531 111.674 20.1985 111.479 20.3421C110.59 20.997 109.253 22.5506 108.853 23.3943C108.774 23.5596 108.644 23.8152 108.564 23.9624C107.156 26.5402 107.155 30.7948 108.563 33.3938C108.643 33.5409 108.786 33.8153 108.882 34.0035C109.317 34.8536 110.44 36.1698 111.342 36.8862C111.613 37.1008 111.856 37.3031 111.883 37.3353C112.124 37.6208 113.892 38.5055 114.846 38.8174C117.724 39.759 121.371 39.4066 123.684 37.9644C123.902 37.829 124.146 37.6877 124.228 37.6513C124.309 37.6144 124.398 37.5587 124.425 37.5276C124.452 37.4965 124.652 37.3435 124.869 37.1882C125.285 36.8903 126.695 35.485 127.056 35.0096C127.487 34.4415 128.473 32.5607 128.473 32.3074C128.473 32.2253 128.513 32.1345 128.562 32.1046C128.61 32.0753 128.674 31.9076 128.704 31.7329C128.734 31.5576 128.804 31.1941 128.859 30.9256C129.195 29.2963 129.226 28.0722 128.963 26.8838C128.908 26.6346 128.815 26.2107 128.756 25.9422C128.626 25.3442 127.99 23.7431 127.813 23.5655C127.742 23.4945 127.684 23.3738 127.684 23.297C127.684 23.2202 127.639 23.1574 127.585 23.1574C127.531 23.1574 127.486 23.1064 127.486 23.0443C127.486 22.9452 126.959 22.2041 126.503 21.6613C126.106 21.1887 125.297 20.4518 124.82 20.1281C124.63 19.9992 124.452 19.8673 124.425 19.835C124.175 19.5389 122.452 18.7264 121.462 18.4385C119.723 17.9314 117.739 17.8346 116.133 18.1794ZM86.0114 58.8082C86.0114 69.5646 86.0446 78.3652 86.0854 78.3657C86.6442 78.3734 90.781 78.6648 90.8403 78.7011C90.8847 78.7287 91.2941 78.7949 91.7497 78.8494C93.2399 79.0271 93.8211 79.1344 96.0341 79.6403C97.7725 80.0384 100.773 80.9336 100.967 81.1119C101.018 81.1599 101.133 81.1986 101.222 81.1986C101.652 81.1986 106.427 83.3069 108.082 84.2273C108.408 84.4091 108.808 84.6213 108.971 84.6993C109.356 84.8845 110.322 85.4427 110.946 85.8408C111.217 86.0137 111.661 86.2939 111.933 86.4628C112.66 86.9148 112.634 86.8972 113.809 87.711C114.968 88.5136 116.844 89.9382 117.414 90.4489C117.603 90.6189 117.883 90.8546 118.034 90.9713L118.309 91.1841L118.873 90.7115C119.184 90.4518 119.482 90.1915 119.537 90.1329C119.591 90.0742 119.835 89.8796 120.08 89.6996C120.324 89.5196 120.569 89.3232 120.623 89.2634C120.677 89.2036 120.9 89.0242 121.117 88.8653C121.334 88.7059 121.598 88.4989 121.703 88.4051C121.808 88.3107 121.928 88.2339 121.968 88.2339C122.008 88.2339 122.099 88.1788 122.171 88.112C122.385 87.9115 123.025 87.4524 123.089 87.4524C123.123 87.4524 123.203 87.4079 123.269 87.3539C123.535 87.1352 124.706 86.3655 125.215 86.0747C125.514 85.9041 125.78 85.7376 125.807 85.7047C125.834 85.6713 125.99 85.5787 126.153 85.4978C126.316 85.4175 126.471 85.3242 126.499 85.2902C126.526 85.2562 126.881 85.0534 127.288 84.8388C127.696 84.6242 128.207 84.3487 128.424 84.2273C130.004 83.3426 134.848 81.1986 135.266 81.1986C135.342 81.1986 135.523 81.1377 135.667 81.0626C135.812 80.9876 136.262 80.8287 136.67 80.7097C137.077 80.5901 137.566 80.4341 137.756 80.3626C137.946 80.2917 138.407 80.1609 138.781 80.073C139.154 79.985 139.554 79.8778 139.669 79.8344C139.865 79.7599 140.107 79.7048 141.434 79.4304C141.72 79.3712 142.242 79.2633 142.595 79.1901C144.008 78.8975 146.539 78.5762 147.928 78.5123C148.607 78.4812 149.462 78.4297 149.828 78.398L150.495 78.34V58.7953V39.2513L149.137 39.3075C148.39 39.3386 147.335 39.4125 146.792 39.4717C145.032 39.6646 144.136 39.7766 143.632 39.8668C143.36 39.9155 142.961 39.9806 142.743 40.0117C142.526 40.0427 142.193 40.1072 142.003 40.1541C141.812 40.2016 141.413 40.2895 141.114 40.3499C140.815 40.4103 140.304 40.5276 139.978 40.6108C139.652 40.6935 139.23 40.7996 139.04 40.8465C138.448 40.9931 136.942 41.4416 136.374 41.6415C136.075 41.7464 135.586 41.9124 135.287 42.0103C134.689 42.2067 133.447 42.6997 132.652 43.0562C132.37 43.1828 132.113 43.286 132.08 43.286C131.927 43.286 129.161 44.6198 128.227 45.1445C126.966 45.8521 126.641 46.0262 126.474 46.0831C126.379 46.1159 126.301 46.1816 126.301 46.2291C126.301 46.2766 126.259 46.3153 126.207 46.3153C126.093 46.3153 123.439 47.9656 123.084 48.2564C123.025 48.3045 122.781 48.4652 122.541 48.6141C122.301 48.763 122.082 48.9125 122.055 48.9465C122.028 48.9805 121.65 49.2689 121.215 49.5879C120.781 49.9074 120.376 50.2134 120.316 50.2691C120.256 50.3248 120.036 50.5025 119.828 50.6637C119.489 50.9269 119.251 51.135 118.525 51.7993L118.303 52.0027L117.981 51.7225C117.805 51.5683 117.527 51.3238 117.364 51.1802C116.807 50.6865 115.787 49.8816 115.144 49.4272C114.79 49.1775 114.423 48.9025 114.328 48.8169C114.233 48.7307 114.13 48.6604 114.098 48.6604C114.067 48.6604 113.723 48.4382 113.333 48.1667C112.546 47.618 110.524 46.3153 110.46 46.3153C110.437 46.3153 109.982 46.0603 109.448 45.7489C108.597 45.2535 105.36 43.6337 104.675 43.3616C104.539 43.3077 104.351 43.2244 104.257 43.177C104.162 43.1295 104.032 43.0908 103.968 43.0908C103.904 43.0908 103.781 43.0327 103.695 42.9618C103.609 42.8903 103.339 42.7724 103.095 42.6997C102.851 42.6264 102.606 42.535 102.552 42.4957C102.439 42.4148 101.416 42.0396 100.972 41.9165C100.809 41.8713 100.298 41.6984 99.8362 41.533C99.3746 41.3671 98.8414 41.1918 98.6512 41.1438C98.461 41.0951 97.8614 40.938 97.3181 40.7943C96.7747 40.6507 96.0193 40.4695 95.6395 40.3927C95.2591 40.3153 94.6814 40.1899 94.3556 40.1143C92.9282 39.783 89.5735 39.3925 87.4186 39.307L86.0114 39.2513V58.8082ZM59.8424 101.908C58.869 102.12 58.4323 102.249 58.0158 102.445C57.851 102.522 57.6057 102.633 57.4707 102.691C56.7662 102.994 55.3098 104.039 54.8554 104.566C54.1177 105.424 53.226 106.757 53.226 107.003C53.226 107.054 53.1839 107.171 53.1324 107.265C52.0979 109.133 51.9764 114.302 52.9428 115.344C52.9902 115.395 53.0287 115.495 53.0287 115.565C53.0287 115.755 53.428 116.576 53.6893 116.922C53.8149 117.088 53.9174 117.275 53.9174 117.337C53.9174 117.399 53.9589 117.45 54.0093 117.45C54.0602 117.45 54.1278 117.532 54.1598 117.632C54.2279 117.844 55.3768 119.013 55.8869 119.389C56.0801 119.531 56.2602 119.669 56.2874 119.697C56.3455 119.755 56.6761 119.946 57.2254 120.238C59.5249 121.459 63.3299 121.713 65.7183 120.804C66.1727 120.631 67.5704 119.969 67.6439 119.892C67.6705 119.863 67.8181 119.76 67.9709 119.664C68.5605 119.293 69.816 118.062 70.1507 117.527C70.2615 117.35 70.3848 117.182 70.4257 117.153C70.4665 117.124 70.5714 116.948 70.6585 116.763C70.7462 116.576 70.8991 116.27 70.9986 116.082C71.1918 115.716 71.6012 114.475 71.7807 113.711C71.9383 113.04 71.9199 110.02 71.7535 109.233C71.5248 108.15 70.8149 106.332 70.5815 106.229C70.5406 106.211 70.5074 106.155 70.5074 106.103C70.5074 105.963 69.7419 104.96 69.2288 104.427C67.1705 102.29 63.1 101.198 59.8424 101.908ZM174.837 101.908C173.628 102.193 173.371 102.265 173.157 102.375C173.049 102.432 172.716 102.599 172.417 102.748C171.148 103.378 169.589 104.721 169.236 105.487C169.176 105.618 169.096 105.724 169.059 105.724C168.942 105.724 168.193 107.297 167.941 108.069C167.566 109.221 167.48 109.872 167.48 111.561C167.48 113.329 167.58 113.978 168.093 115.544C169.433 119.634 173.784 121.971 178.648 121.214C179.989 121.005 180.225 120.936 181.404 120.402C182.169 120.055 183.873 118.613 183.872 118.313C183.871 118.242 183.494 117.798 183.034 117.328C182.019 116.291 181.902 116.268 181.051 116.923C178.289 119.048 173.684 118.349 172.289 115.594C172.193 115.405 172.078 115.186 172.031 115.105C171.003 113.323 171.003 109.656 172.031 107.874C172.078 107.793 172.193 107.573 172.288 107.386C172.489 106.988 173.749 105.724 173.946 105.724C174.02 105.724 174.095 105.691 174.113 105.651C174.184 105.493 175.081 105.136 175.762 104.994C177.493 104.634 179.326 105 180.663 105.974C181.504 106.586 182.061 106.506 182.626 105.691C182.818 105.414 183.111 104.998 183.276 104.768C183.441 104.538 183.576 104.293 183.576 104.223C183.576 103.902 181.366 102.499 180.367 102.187C179.337 101.865 178.869 101.8 177.306 101.762C175.896 101.728 175.5 101.751 174.837 101.908ZM36.636 111.529V121.163H38.5124H40.3889V117.8V114.437L42.5859 114.4C46.1385 114.34 47.8408 113.734 49.271 112.021C51.0799 109.855 50.9656 105.883 49.0382 103.912C48.5298 103.392 47.5208 102.696 47.2761 102.696C47.2032 102.696 47.1007 102.66 47.0492 102.618C46.9976 102.575 46.7802 102.481 46.5657 102.409C45.373 102.008 45.1644 101.991 40.8575 101.942L36.636 101.895V111.529ZM75.2474 111.538V121.163H76.8768H78.5062V114.595C78.5062 108.395 78.5157 108.039 78.6733 108.268C78.7651 108.401 78.8688 108.531 78.9038 108.558C78.9387 108.585 79.3126 109.047 79.7344 109.584C80.1563 110.121 80.5414 110.576 80.59 110.594C80.6386 110.611 80.6789 110.689 80.6789 110.765C80.6789 110.841 80.7121 110.903 80.7529 110.904C80.7932 110.904 80.9378 111.066 81.0735 111.263C81.2098 111.46 81.3668 111.669 81.4231 111.727C81.4793 111.785 81.6541 112.007 81.8123 112.223C81.9699 112.437 82.1465 112.657 82.2034 112.711C82.2609 112.765 82.4398 112.985 82.6004 113.199C82.8326 113.509 84.3577 115.438 84.9579 116.18C85.0231 116.26 85.2091 116.502 85.3709 116.717C85.5332 116.932 85.7216 117.167 85.7904 117.239C85.8591 117.31 86.0369 117.529 86.1856 117.725C86.3343 117.921 86.5298 118.17 86.6199 118.279C86.7105 118.387 87.0791 118.85 87.4387 119.306C88.9597 121.238 88.8376 121.163 90.4498 121.163H91.6401V111.538V101.913H90.0108H88.3814V108.412C88.3814 112.678 88.347 114.909 88.2824 114.909C88.2279 114.909 88.1835 114.863 88.1835 114.804C88.1835 114.747 88.1254 114.642 88.0537 114.572C87.9826 114.501 87.6378 114.079 87.2882 113.635C86.9392 113.19 86.5754 112.745 86.48 112.646C86.3852 112.547 86.3076 112.422 86.3076 112.369C86.3076 112.315 86.2739 112.271 86.2336 112.271C86.1927 112.27 86.0493 112.11 85.9142 111.914C85.7797 111.718 85.5249 111.399 85.349 111.206C85.1724 111.012 85.0272 110.821 85.0261 110.781C85.0249 110.741 84.9461 110.63 84.8507 110.533C84.7559 110.438 84.5455 110.185 84.3832 109.972C84.2214 109.758 84.0354 109.518 83.9696 109.438C83.9039 109.357 83.482 108.829 83.0317 108.265C82.582 107.701 82.1797 107.225 82.1376 107.206C82.0955 107.189 82.0612 107.111 82.0612 107.035C82.0612 106.96 82.028 106.897 81.9871 106.896C81.9462 106.896 81.8082 106.743 81.6796 106.556C81.551 106.37 81.3573 106.117 81.2489 105.995C81.1398 105.873 80.9342 105.619 80.7915 105.431C80.6487 105.243 80.5094 105.068 80.4816 105.041C80.4543 105.014 80.2114 104.706 79.9418 104.356C79.6722 104.007 79.4275 103.699 79.3985 103.672C79.3689 103.645 79.2142 103.448 79.0554 103.233C78.896 103.018 78.6632 102.737 78.537 102.609C78.4114 102.48 78.3089 102.347 78.3089 102.312C78.3089 102.051 77.682 101.913 76.4911 101.913H75.2474V111.538ZM94.3064 103.428V104.943H97.2191H100.132V113.053V121.163H101.959H103.786V113.053V104.943H106.749H109.711V103.428V101.913H102.009H94.3064V103.428ZM112.378 111.538V121.163H118.5H124.622V119.648V118.134H120.376H116.13V115.544V112.955H119.488H122.845V111.49V110.024H119.488H116.13V107.434V104.845H120.376H124.622V103.379V101.913H118.5H112.378V111.538ZM127.98 111.53V121.163H132.079C136.095 121.163 137.612 121.072 138.367 120.784C138.493 120.737 138.907 120.598 139.287 120.476C139.667 120.354 140.048 120.195 140.134 120.123C140.22 120.05 140.337 119.991 140.394 119.991C140.745 119.991 142.658 118.408 143.289 117.595C143.909 116.797 144.608 115.34 144.859 114.323C145.231 112.816 145.327 110.824 145.081 109.731C145.026 109.489 144.927 109.027 144.86 108.705C144.793 108.382 144.678 108.021 144.605 107.902C144.531 107.783 144.471 107.641 144.471 107.587C144.471 107.534 144.349 107.241 144.2 106.938C143.785 106.097 143.739 106.017 143.657 106.017C143.617 106.017 143.582 105.952 143.582 105.871C143.582 105.791 143.541 105.724 143.49 105.724C143.439 105.724 143.372 105.644 143.341 105.546C143.097 104.786 139.93 102.508 139.108 102.502C139.009 102.5 138.835 102.451 138.72 102.39C138.067 102.044 137.352 101.991 132.646 101.944L127.98 101.897V111.53ZM148.227 107.752C148.232 115.112 148.269 115.53 149.074 117.246C149.548 118.255 150.849 119.774 151.382 119.941C151.492 119.975 151.581 120.035 151.581 120.073C151.581 120.189 152.808 120.768 153.507 120.981C155.017 121.443 157.683 121.459 159.037 121.013C159.564 120.84 160.522 120.426 160.551 120.359C160.569 120.317 160.625 120.284 160.676 120.284C160.892 120.284 162.17 119.257 162.536 118.789C162.756 118.509 162.984 118.224 163.042 118.155C163.224 117.941 163.883 116.542 163.996 116.131C164.054 115.916 164.159 115.542 164.229 115.3C164.324 114.969 164.364 113.267 164.391 108.387L164.426 101.913H162.546H160.666L160.664 107.703C160.662 113.594 160.643 114.23 160.45 115.007C160.319 115.533 159.878 116.473 159.762 116.473C159.716 116.473 159.679 116.515 159.679 116.567C159.679 116.737 158.891 117.414 158.416 117.653C156.294 118.718 153.547 117.959 152.578 116.039C152.012 114.921 152.04 115.292 152.002 108.338L151.966 101.913H150.095H148.224L148.227 107.752ZM191.571 102.361C191.465 102.608 191.377 102.863 191.377 102.928C191.377 102.993 191.34 103.089 191.295 103.14C191.249 103.191 191.135 103.452 191.04 103.722C190.87 104.205 190.784 104.424 190.539 104.991C190.434 105.236 189.879 106.624 189.601 107.337C189.112 108.592 189.015 108.834 188.859 109.193C188.789 109.354 188.634 109.75 188.514 110.073C188.394 110.395 188.238 110.791 188.168 110.952C188.023 111.287 187.91 111.568 187.696 112.125C187.557 112.489 186.715 114.62 186.538 115.056C186.495 115.163 186.34 115.559 186.194 115.935C186.048 116.312 185.871 116.752 185.801 116.913C185.73 117.074 185.507 117.623 185.305 118.134C185.103 118.645 184.902 119.15 184.859 119.258C184.482 120.198 184.269 120.758 184.217 120.943L184.155 121.163H185.823H187.491L187.887 120.827C188.105 120.643 188.288 120.434 188.293 120.363C188.307 120.202 188.737 119.005 188.838 118.848C188.879 118.784 188.998 118.476 189.102 118.164C189.206 117.852 189.382 117.355 189.495 117.06C189.607 116.766 189.699 116.512 189.699 116.498C189.699 116.483 191.481 116.482 193.658 116.496L197.617 116.522L197.744 116.863C197.813 117.052 197.948 117.426 198.044 117.694C198.139 117.963 198.258 118.263 198.308 118.361C198.358 118.459 198.53 118.935 198.691 119.421C199.238 121.078 199.377 121.163 201.544 121.163C203.226 121.163 203.28 121.146 203.037 120.698C202.986 120.605 202.783 120.11 202.585 119.6C202.387 119.089 202.168 118.54 202.099 118.378C202.029 118.217 201.872 117.821 201.75 117.499C201.628 117.177 201.469 116.781 201.396 116.62C201.324 116.458 200.992 115.623 200.659 114.763C200.326 113.903 200.014 113.111 199.966 113.004C199.917 112.897 199.718 112.391 199.523 111.88C199.327 111.37 199.11 110.82 199.04 110.659C198.969 110.498 198.813 110.102 198.692 109.78C198.572 109.457 198.416 109.061 198.345 108.9C198.193 108.555 197.852 107.699 197.353 106.408C196.983 105.452 196.881 105.202 196.658 104.698C196.586 104.537 196.396 104.053 196.236 103.624C196.075 103.194 195.863 102.633 195.763 102.378L195.581 101.913H193.673H191.766L191.571 102.361ZM44.4303 104.956C46.3589 105.566 47.2524 107.246 46.6658 109.159C46.1083 110.978 45.075 111.488 41.9442 111.489L40.3889 111.49V108.167V104.845H42.2333C43.3419 104.845 44.2182 104.889 44.4303 104.956ZM63.3483 104.983C64.4817 105.21 64.9427 105.402 65.7674 105.99C66.4245 106.46 67.446 107.74 67.446 108.094C67.446 108.167 67.4851 108.268 67.5331 108.319C67.6338 108.427 67.8299 109.007 67.8998 109.405C67.9265 109.557 67.9911 109.836 68.0426 110.024C68.7957 112.768 67.2362 116.491 64.8805 117.57C61.0559 119.323 57.0186 117.317 56.2371 113.275C55.9432 111.756 56.2051 108.796 56.6749 108.331C56.7336 108.273 56.781 108.15 56.781 108.058C56.781 107.966 56.8148 107.876 56.855 107.858C56.8959 107.84 57.0174 107.655 57.1246 107.447C57.4671 106.782 58.4187 105.9 59.2126 105.511C60.4823 104.891 61.9494 104.704 63.3483 104.983ZM136.568 104.991C138.056 105.25 139.258 105.979 140.135 107.153C140.347 107.437 140.521 107.693 140.521 107.721C140.521 107.749 140.628 108.003 140.758 108.287C141.522 109.945 141.563 113.917 140.825 114.648C140.767 114.706 140.719 114.812 140.719 114.882C140.719 115.14 139.905 116.28 139.387 116.748C138.128 117.887 137.175 118.134 134.048 118.134H131.634V111.49V104.845L133.683 104.845C135.057 104.845 136.007 104.894 136.568 104.991ZM193.846 106.213C193.993 106.743 194.129 107.14 194.298 107.532C194.368 107.694 194.493 108.023 194.576 108.265C194.736 108.728 195.204 109.999 195.727 111.392C196.265 112.821 196.434 113.288 196.517 113.566L196.597 113.835H193.646H190.694L190.99 113.029C191.153 112.585 191.391 111.936 191.52 111.587C191.649 111.238 191.874 110.623 192.019 110.219C192.165 109.816 192.346 109.348 192.423 109.179C192.5 109.009 192.562 108.807 192.562 108.731C192.562 108.654 192.593 108.561 192.629 108.524C192.709 108.446 193.086 107.4 193.356 106.506C193.595 105.721 193.664 105.551 193.698 105.676C193.712 105.73 193.778 105.971 193.846 106.213Z" fill="#243C74"/>
<path fill-rule="evenodd" clip-rule="evenodd" d="M150.544 58.8225C150.544 69.5983 150.555 74.0059 150.569 68.6186C150.583 63.2308 150.583 54.4149 150.569 49.0271C150.555 43.6392 150.544 48.0474 150.544 58.8225Z" fill="#44446C"/>
<path fill-rule="evenodd" clip-rule="evenodd" d="M182.564 18.0495C182.741 18.0712 183.029 18.0712 183.206 18.0495C183.382 18.0278 183.238 18.0103 182.885 18.0103C182.532 18.0103 182.387 18.0278 182.564 18.0495ZM178.861 18.732C178.739 18.7554 178.639 18.8111 178.639 18.8562C178.639 18.9571 179.017 18.8674 179.09 18.749C179.12 18.7015 179.131 18.6692 179.114 18.6763C179.097 18.6839 178.983 18.7085 178.861 18.732ZM173.038 24.1966C172.921 24.4464 172.923 24.4481 173.112 24.2781C173.309 24.1022 173.367 23.9387 173.232 23.9404C173.191 23.9404 173.104 24.0559 173.038 24.1966ZM173.639 34.1258C173.669 34.3269 173.804 34.4928 173.93 34.4846C174.014 34.4793 174.012 34.4635 173.924 34.4277C173.855 34.4007 173.8 34.3187 173.8 34.246C173.8 34.1727 173.759 34.0883 173.71 34.0578C173.661 34.0279 173.629 34.0584 173.639 34.1258ZM177.355 37.8844C177.437 37.9143 177.554 37.9788 177.618 38.028C177.69 38.0843 177.759 38.0737 177.806 37.9999C177.851 37.9278 177.838 37.9078 177.772 37.9477C177.713 37.9835 177.637 37.9688 177.603 37.9137C177.569 37.8592 177.466 37.8181 177.374 37.8222C177.238 37.8287 177.235 37.8404 177.355 37.8844ZM85.9611 58.8226C85.9611 69.5983 85.9723 74.0059 85.9865 68.6187C86.0008 63.2308 86.0008 54.415 85.9865 49.0271C85.9723 43.6393 85.9611 48.0475 85.9611 58.8226ZM150.618 58.8472L150.643 78.4141L150.668 58.9012L150.693 39.3876L151.26 39.3524L151.828 39.3172L151.211 39.2991L150.594 39.2803L150.618 58.8472ZM213.399 39.3612C213.399 39.4058 213.532 39.4228 213.695 39.3987C213.858 39.3753 213.991 39.3389 213.991 39.3178C213.991 39.2973 213.858 39.2803 213.695 39.2803C213.532 39.2803 213.399 39.3167 213.399 39.3612ZM214.633 39.3507L215.176 39.3876L215.201 58.8519L215.226 78.3162V58.8226L215.226 39.329L214.657 39.3213L214.089 39.3131L214.633 39.3507ZM153.309 39.4755C153.276 39.5295 153.315 39.5734 153.396 39.5734C153.478 39.5734 153.572 39.5295 153.606 39.4755C153.639 39.4222 153.6 39.3782 153.519 39.3782C153.437 39.3782 153.343 39.4222 153.309 39.4755ZM207.224 40.0659C207.183 40.1327 207.257 40.1445 207.441 40.1011C207.819 40.0108 207.855 39.9645 207.546 39.9645C207.404 39.9645 207.259 40.0102 207.224 40.0659ZM200.314 41.9203C200.279 41.9748 200.21 41.9942 200.16 41.9631C200.109 41.932 200.068 41.9537 200.068 42.0106C200.068 42.1507 200.178 42.136 200.407 41.9643C200.513 41.8851 200.549 41.8206 200.487 41.8206C200.426 41.8206 200.347 41.8658 200.314 41.9203ZM195.284 43.9248C195.178 44.0039 195.137 44.0684 195.191 44.0684C195.245 44.0684 195.376 44.0039 195.481 43.9248C195.587 43.8456 195.629 43.7811 195.574 43.7811C195.52 43.7811 195.389 43.8456 195.284 43.9248ZM193.353 44.8974C193.287 44.9777 193.195 45.0211 193.151 44.9935C193.106 44.9666 193.042 44.9889 193.008 45.044C192.91 45.2005 193.216 45.1595 193.352 44.9977C193.419 44.9173 193.52 44.8804 193.576 44.915C193.636 44.9513 193.65 44.9302 193.609 44.8652C193.518 44.7203 193.5 44.7227 193.353 44.8974ZM172.557 45.0317C172.65 45.1812 173.207 45.435 173.207 45.3277C173.207 45.2767 173.13 45.2111 173.035 45.1817C172.939 45.1524 172.78 45.085 172.679 45.0311C172.556 44.9654 172.516 44.9654 172.557 45.0317ZM175.059 46.4164C175.181 46.4651 175.281 46.5454 175.281 46.5952C175.281 46.6451 175.358 46.7148 175.452 46.75C175.576 46.7975 175.557 46.7465 175.385 46.5654C175.255 46.4282 175.078 46.3185 174.992 46.322C174.894 46.3256 174.918 46.3602 175.059 46.4164ZM189.97 46.7623C189.821 46.8427 189.699 46.9576 189.699 47.018C189.699 47.0813 189.772 47.0619 189.874 46.9711C189.97 46.8849 190.159 46.7711 190.293 46.7178C190.428 46.6644 190.472 46.6199 190.39 46.6187C190.309 46.6175 190.12 46.682 189.97 46.7623ZM181.108 50.664C181.175 50.7443 181.275 50.8106 181.329 50.8106C181.384 50.8106 181.374 50.7455 181.305 50.664C181.237 50.5831 181.138 50.5174 181.083 50.5174C181.028 50.5174 181.039 50.5819 181.108 50.664ZM182.729 52.0341C182.834 52.1121 182.944 52.1525 182.973 52.1232C183.036 52.0617 182.785 51.8876 182.638 51.8899C182.584 51.8905 182.625 51.9556 182.729 52.0341ZM151.805 78.4352C151.955 78.4581 152.177 78.4575 152.299 78.4341C152.42 78.4106 152.297 78.3925 152.025 78.393C151.754 78.3942 151.655 78.413 151.805 78.4352ZM212.181 78.4874C212.117 78.5279 212.238 78.5396 212.45 78.5144C212.661 78.4892 212.856 78.4464 212.883 78.42C212.96 78.3432 212.309 78.4059 212.181 78.4874ZM156.208 78.7812C156.258 78.8304 156.403 78.8538 156.532 78.8339C156.73 78.8034 156.716 78.7894 156.441 78.7448C156.245 78.7126 156.153 78.7266 156.208 78.7812ZM161.95 79.908C161.95 79.9502 162.04 79.9912 162.149 79.9994C162.26 80.0076 162.324 79.973 162.292 79.9226C162.222 79.8118 161.95 79.8001 161.95 79.908ZM167.085 81.5859C167.382 81.8034 167.579 81.8884 167.579 81.7999C167.579 81.7506 167.501 81.6832 167.406 81.6498C167.311 81.617 167.166 81.5642 167.085 81.5337C166.953 81.4833 166.953 81.4892 167.085 81.5859ZM190.588 85.4494C190.502 85.5509 190.499 85.596 190.575 85.596C190.636 85.596 190.686 85.555 190.686 85.5051C190.686 85.4553 190.786 85.3949 190.908 85.372C191.122 85.331 191.122 85.3287 190.921 85.3164C190.805 85.3087 190.655 85.3685 190.588 85.4494Z" fill="#E4542C"/>
</svg>
