<svg width="144" height="130" viewBox="0 0 144 130" fill="none" xmlns="http://www.w3.org/2000/svg">
<g clip-path="url(#clip0_6053_13063)">
<path d="M6.01355 5.72119C14.2732 5.72119 22.5329 5.72119 31.0429 5.72119C31.2038 6.92743 31.3647 8.13366 31.5305 9.37645C31.6914 10.2418 31.6914 10.2418 31.8555 11.1246C31.9116 11.5687 31.9634 12.0106 32.0079 12.4556C32.1151 13.4637 32.2443 14.4667 32.3939 15.4696C32.4252 15.6817 32.4252 15.6817 32.4572 15.8981C32.5029 16.2075 32.5487 16.5169 32.5946 16.8263C32.6717 17.3461 32.7481 17.866 32.8244 18.3859C32.9632 19.3312 33.1027 20.2765 33.2426 21.2216C33.3003 21.6119 33.3578 22.0021 33.4151 22.3924C33.4995 22.9662 33.5844 23.5399 33.6694 24.1136C33.6946 24.2861 33.7198 24.4586 33.7458 24.6364C33.88 25.5373 34.0336 26.4295 34.2245 27.3207C34.3199 27.78 34.3851 28.2408 34.4458 28.7056C34.4726 28.9088 34.4995 29.1121 34.5271 29.3214C34.5956 29.8544 34.6629 30.3875 34.7303 30.9206C35.0962 33.8174 35.4977 36.6982 36.0246 39.5715C36.2153 40.6305 36.359 41.6749 36.4063 42.7505C36.7281 42.803 37.0499 42.8554 37.3815 42.9095C37.3838 42.756 37.3861 42.6026 37.3885 42.4445C37.4646 39.8171 37.9095 37.2329 38.309 34.6384C38.4188 33.9226 38.5254 33.2064 38.6309 32.49C38.6503 32.359 38.6697 32.2281 38.6896 32.0931C38.8258 31.1567 38.9328 30.2189 39.0329 29.2783C39.1762 27.9828 39.3825 26.6966 39.5819 25.4084C39.7469 24.3363 39.8959 23.2661 40.0166 22.1883C40.1384 21.1289 40.3007 20.0758 40.4594 19.0212C40.6803 17.5464 40.8664 16.0743 41.0181 14.5911C41.3509 11.6248 41.8154 8.67386 42.2573 5.72119C50.4634 5.72119 58.6694 5.72119 67.1242 5.72119C67.1242 25.2832 67.1242 44.8452 67.1242 64.9999C62.0825 64.9999 57.0409 64.9999 51.8465 64.9999C51.8465 53.1998 51.8465 41.3997 51.8465 29.242C51.3102 29.242 50.7738 29.242 50.2212 29.242C50.2015 29.4434 50.1818 29.6447 50.1615 29.8522C50.1341 30.1223 50.1066 30.3923 50.079 30.6624C50.0662 30.7944 50.0535 30.9264 50.0403 31.0625C49.9608 31.8306 49.8352 32.5654 49.6545 33.3165C49.4914 34.0507 49.3947 34.7958 49.2867 35.5393C49.038 37.215 48.7803 38.8889 48.5155 40.5622C48.1509 42.8668 47.7914 45.1722 47.4379 47.4785C47.407 47.68 47.407 47.68 47.3755 47.8856C47.181 49.1534 46.9873 50.4213 46.7992 51.69C46.4601 53.9738 46.0851 56.2502 45.6876 58.5248C45.4687 59.7831 45.2696 61.0404 45.1067 62.3071C44.9827 63.2065 44.8364 64.1029 44.6953 64.9999C39.3855 64.9999 34.0757 64.9999 28.605 64.9999C28.4977 64.3181 28.3904 63.6364 28.2799 62.9339C28.1677 62.3066 28.1677 62.3066 28.0533 61.6796C27.7458 60.0102 27.4858 58.3373 27.2457 56.6575C26.9183 54.3781 26.5549 52.1043 26.1942 49.8298C26.0519 48.932 25.911 48.034 25.7709 47.1358C25.3404 44.3789 24.8981 41.624 24.4446 38.8705C23.6611 34.1122 23.6611 34.1122 23.3228 31.8146C23.2968 31.6396 23.2708 31.4646 23.244 31.2843C23.2214 31.1272 23.1988 30.9701 23.1755 30.8082C23.1566 30.6766 23.1376 30.5449 23.1181 30.4092C23.0775 30.0219 23.079 29.6313 23.079 29.242C22.489 29.242 21.8991 29.242 21.2912 29.242C21.2912 41.0421 21.2912 52.8422 21.2912 64.9999C16.2496 64.9999 11.208 64.9999 6.01355 64.9999C6.01355 45.4379 6.01355 25.876 6.01355 5.72119Z" fill="#4A2712"/>
<path d="M98.8171 5.72119C126.058 5.72119 126.058 5.72119 132.014 11.2537C134.259 13.5502 135.987 16.5907 136.686 19.7065C136.728 19.8849 136.728 19.8849 136.771 20.0669C137.083 21.579 137.066 23.0958 137.063 24.6316C137.062 25.0985 137.066 25.5652 137.07 26.0321C137.076 27.6557 137.001 29.1081 136.524 30.6723C136.467 30.901 136.411 31.1298 136.355 31.3589C135.65 33.9132 134.448 36.1813 132.623 38.1417C132.45 38.3467 132.277 38.5519 132.105 38.7576C131.672 39.25 131.195 39.6479 130.673 40.0488C130.876 41.4593 131.284 42.784 131.721 44.1377C132.315 45.9799 132.887 47.824 133.385 49.6935C133.841 51.3998 134.376 53.0734 134.935 54.7499C135.368 56.0529 135.742 57.369 136.106 58.692C136.191 59.0001 136.276 59.3083 136.361 59.6164C136.403 59.7679 136.445 59.9195 136.488 60.0756C136.787 61.1494 137.127 62.2 137.499 63.2518C137.699 63.8565 137.824 64.3545 137.824 64.9999C132.836 64.9999 127.848 64.9999 122.709 64.9999C122.408 63.7253 122.12 62.4717 121.896 61.1857C121.862 60.9898 121.828 60.7939 121.793 60.5921C121.716 60.147 121.639 59.7018 121.562 59.2567C121.239 57.3812 120.91 55.5094 120.515 53.6468C120.164 51.9875 119.867 50.3213 119.58 48.6506C119.548 48.4663 119.548 48.4663 119.516 48.2784C119.28 46.9152 119.075 45.5609 118.971 44.1809C117.898 44.1809 116.825 44.1809 115.72 44.1809C115.72 51.0511 115.72 57.9214 115.72 64.9999C110.142 64.9999 104.564 64.9999 98.8171 64.9999C98.8171 45.4379 98.8171 25.876 98.8171 5.72119Z" fill="#4A2712"/>
<path d="M96.0542 71.0391C109.892 71.0391 123.73 71.0391 137.986 71.0391C137.986 84.5699 137.986 98.1007 137.986 112.042C124.149 112.042 110.311 112.042 96.0542 112.042C96.0542 98.5107 96.0542 84.9799 96.0542 71.0391Z" fill="#8C1B11"/>
<path d="M6.01355 71.0391C19.8512 71.0391 33.6889 71.0391 47.9458 71.0391C47.9458 84.5699 47.9458 98.1007 47.9458 112.042C34.1082 112.042 20.2705 112.042 6.01355 112.042C6.01355 98.5107 6.01355 84.9799 6.01355 71.0391Z" fill="#4F2B13"/>
<path d="M51.0338 71.0391C64.8715 71.0391 78.7091 71.0391 92.9661 71.0391C92.9661 84.5699 92.9661 98.1007 92.9661 112.042C79.1284 112.042 65.2908 112.042 51.0338 112.042C51.0338 98.5107 51.0338 84.9799 51.0338 71.0391Z" fill="#233DF1"/>
<path d="M74.438 5.72119C80.0696 5.72119 85.7012 5.72119 91.5035 5.72119C91.5035 25.3356 91.5035 44.95 91.5035 65.1588C85.8718 65.1588 80.2402 65.1588 74.438 65.1588C74.438 45.5444 74.438 25.93 74.438 5.72119Z" fill="#4B2813"/>
<path d="M90.2032 73.7408C90.3719 79.8479 88.923 85.5207 85.9775 90.9047C85.8777 91.0884 85.778 91.2722 85.6753 91.4615C81.1622 99.4761 73.3228 105.497 64.3733 108.087C60.8367 109.059 57.4575 109.372 53.7969 109.34C53.4435 100.091 57.2601 91.4924 63.5486 84.7066C70.404 77.6163 80.2011 73.4294 90.2032 73.7408Z" fill="#502915"/>
<path d="M96.0542 71.0391C109.892 71.0391 123.73 71.0391 137.986 71.0391C137.986 84.5699 137.986 98.1007 137.986 112.042C124.149 112.042 110.311 112.042 96.0542 112.042C96.0542 98.5107 96.0542 84.9799 96.0542 71.0391ZM98.6547 73.7408C98.6547 85.5409 98.6547 97.341 98.6547 109.499C110.776 109.499 122.897 109.499 135.386 109.499C135.386 99.8112 131.813 91.2221 124.984 84.2298C124.908 84.1512 124.832 84.0726 124.754 83.9916C123.52 82.7197 122.2 81.6164 120.758 80.5745C120.595 80.4557 120.432 80.3369 120.265 80.2145C116.709 77.7172 112.755 75.9704 108.559 74.7835C108.284 74.7056 108.01 74.6242 107.736 74.5422C104.789 73.6921 101.696 73.7408 98.6547 73.7408Z" fill="#419028"/>
<path d="M6.01355 71.0391C19.8512 71.0391 33.6889 71.0391 47.9458 71.0391C47.9458 84.5699 47.9458 98.1007 47.9458 112.042C34.1082 112.042 20.2705 112.042 6.01355 112.042C6.01355 98.5107 6.01355 84.9799 6.01355 71.0391ZM22.4289 73.4229C22.2682 73.4592 22.1075 73.4954 21.9419 73.5328C19.2028 74.1977 16.745 75.5926 14.6275 77.396C14.4725 77.5228 14.3175 77.6497 14.1577 77.7803C10.5959 80.7639 8.33299 85.2781 7.91659 89.8327C7.61746 94.9005 9.05153 99.8003 12.4563 103.681C15.6461 107.13 19.8508 109.765 24.7043 110.134C30.1655 110.349 35.0996 109.442 39.3318 105.843C39.467 105.732 39.6021 105.621 39.7413 105.507C42.8009 102.924 44.7018 99.4738 45.6704 95.6723C45.714 95.5281 45.714 95.5281 45.7585 95.381C46.0683 94.2521 46.0503 93.1076 46.0468 91.9477C46.0463 91.5934 46.0501 91.2393 46.0542 90.885C46.076 86.0935 43.8792 81.6588 40.4695 78.28C36.6447 74.6263 31.7367 72.8332 26.4303 72.8811C25.0532 72.9176 23.7656 73.0973 22.4289 73.4229Z" fill="#EA8131"/>
<path d="M88.5779 74.6946C87.8393 75.5603 87.0564 76.3638 86.2402 77.1596C86.1054 77.2916 85.9706 77.4237 85.8317 77.5597C85.4602 77.9235 85.0883 78.287 84.7163 78.6502C84.3142 79.0431 83.9126 79.4364 83.5108 79.8296C82.7252 80.5986 81.939 81.3671 81.1528 82.1355C80.5141 82.7596 79.8756 83.3839 79.2372 84.0083C79.1463 84.0973 79.0553 84.1862 78.9616 84.2779C78.7769 84.4586 78.5922 84.6393 78.4074 84.82C76.6772 86.5123 74.9465 88.2041 73.2156 89.8958C71.7292 91.3485 70.2432 92.8017 68.7575 94.2551C67.0321 95.9432 65.3063 97.6309 63.5802 99.3183C63.3964 99.498 63.2126 99.6777 63.0288 99.8574C62.9383 99.9458 62.8479 100.034 62.7547 100.125C62.1162 100.75 61.4778 101.374 60.8395 101.998C60.0628 102.758 59.2859 103.518 58.5086 104.277C58.1117 104.665 57.715 105.053 57.3186 105.441C56.8899 105.86 56.4607 106.28 56.0314 106.699C55.9048 106.823 55.7782 106.947 55.6477 107.075C55.5337 107.186 55.4196 107.297 55.302 107.412C55.2029 107.508 55.1037 107.605 55.0016 107.705C54.772 107.91 54.772 107.91 54.6095 107.91C54.7464 105.467 54.9478 103.127 55.5847 100.758C55.623 100.592 55.6613 100.426 55.7008 100.255C55.9229 99.3022 56.2216 98.3829 56.5497 97.4605C56.5888 97.3497 56.628 97.2388 56.6683 97.1246C56.911 96.46 57.199 95.8405 57.5308 95.2143C57.7113 94.8502 57.8582 94.481 58.0048 94.1026C58.3464 93.2509 58.7935 92.4877 59.2822 91.7094C59.3684 91.5707 59.4547 91.4319 59.5436 91.2889C60.1807 90.2739 60.8471 89.3006 61.5982 88.3621C61.7028 88.2295 61.8073 88.097 61.915 87.9604C63.95 85.4232 66.2477 83.1138 68.912 81.2105C68.9997 81.1477 69.0874 81.0849 69.1778 81.0201C71.3533 79.4768 73.5785 78.2286 76.0632 77.2374C76.2738 77.1514 76.4844 77.0653 76.6949 76.9791C78.7751 76.1404 80.8716 75.5495 83.0824 75.1316C83.1917 75.1107 83.301 75.0897 83.4136 75.068C85.1445 74.7395 86.814 74.5668 88.5779 74.6946Z" fill="#6F3E13"/>
<path d="M26.6546 73.7408C26.7536 78.6708 26.2375 82.7857 22.7539 86.6136C22.642 86.7382 22.5302 86.8627 22.4149 86.9911C20.3099 89.1948 17.1755 90.6428 14.1399 91.0635C13.7291 91.0761 13.318 91.0806 12.907 91.079C12.7929 91.0788 12.6789 91.0786 12.5614 91.0783C12.2004 91.0774 11.8395 91.0755 11.4785 91.0734C11.2324 91.0726 10.9863 91.0719 10.7402 91.0713C10.1398 91.0695 9.5394 91.0668 8.93902 91.0635C8.91919 90.0262 8.9315 89.0263 9.12186 88.0042C9.14319 87.8896 9.16452 87.775 9.1865 87.6569C9.7108 85.0724 11.0706 82.3994 12.8397 80.4156C12.9516 80.2871 13.0634 80.1587 13.1787 80.0263C15.9471 76.9252 19.4549 74.8549 23.5869 74.0189C23.7905 73.977 23.7905 73.977 23.9983 73.9344C24.8989 73.7623 25.7371 73.7155 26.6546 73.7408Z" fill="#5DC93B"/>
<path d="M27.4673 73.8997C28.6563 73.8675 29.7457 73.9057 30.9007 74.1877C31.0271 74.2174 31.1536 74.247 31.2838 74.2776C31.5304 74.3362 31.7767 74.3958 32.0226 74.4567C32.2789 74.5196 32.5366 74.5774 32.7945 74.6334C34.9566 75.1611 36.9899 76.4996 38.6818 77.8728C38.8297 77.9895 38.9776 78.1063 39.13 78.2266C42.0959 80.6971 43.9037 84.0802 44.8578 87.7261C44.9134 87.9375 44.9134 87.9375 44.9702 88.1532C45.1414 88.8835 45.1968 89.5674 45.1905 90.3173C45.1894 90.4873 45.1883 90.6573 45.1872 90.8325C45.185 91.0255 45.185 91.0255 45.1829 91.2224C40.4137 91.2908 35.9367 90.9572 32.3352 87.5576C32.1203 87.3497 31.9066 87.1406 31.693 86.9314C31.587 86.8391 31.481 86.7467 31.3718 86.6515C29.8186 85.2749 28.8163 83.2656 28.1174 81.3691C28.0502 81.1935 27.9829 81.018 27.9136 80.8371C27.2025 78.6104 27.4095 76.2059 27.4673 73.8997Z" fill="#FD5400"/>
<path d="M41.199 92.0015C41.3133 92.0018 41.4276 92.002 41.5454 92.0022C41.908 92.0031 42.2706 92.0051 42.6332 92.0071C42.8801 92.0079 43.1269 92.0087 43.3738 92.0093C43.9768 92.0111 44.5798 92.0138 45.1829 92.0171C45.2566 96.8546 42.9598 101.062 39.6264 104.503C37.9718 106.07 36.0508 107.143 33.9684 108.068C33.8195 108.135 33.6705 108.202 33.517 108.271C31.8436 108.974 29.9811 109.351 28.1606 109.343C27.9652 109.342 27.9652 109.342 27.7658 109.342C27.6673 109.341 27.5688 109.34 27.4673 109.34C27.4591 108.721 27.4533 108.103 27.4494 107.484C27.447 107.173 27.4429 106.862 27.4387 106.551C27.4188 102.723 28.6127 99.5144 31.2054 96.6259C31.3117 96.5068 31.4179 96.3878 31.5273 96.2652C33.9486 93.7288 37.6383 91.9877 41.199 92.0015Z" fill="#5DCA3B"/>
<path d="M8.93909 92.0173C14.1382 91.9175 14.1382 91.9175 16.0903 92.4941C16.2445 92.5384 16.3987 92.5826 16.5576 92.6282C18.3704 93.2124 20.0021 94.1528 21.4538 95.3547C21.5598 95.4355 21.6658 95.5162 21.775 95.5993C24.0612 97.4074 25.6692 100.208 26.3296 102.983C26.3586 103.104 26.3875 103.225 26.4173 103.349C26.6897 104.617 26.6921 105.854 26.675 107.145C26.6734 107.359 26.6719 107.573 26.6705 107.787C26.6667 108.305 26.6614 108.822 26.6547 109.34C25.3789 109.383 24.234 109.303 22.9978 108.992C22.8498 108.956 22.7017 108.92 22.5492 108.883C21.4304 108.601 20.3775 108.255 19.3409 107.751C19.1699 107.669 18.999 107.588 18.8228 107.504C17.5372 106.86 16.4019 106.092 15.2777 105.208C15.1591 105.117 15.0405 105.025 14.9184 104.931C13.9848 104.177 13.2423 103.29 12.5147 102.347C12.448 102.261 12.3813 102.175 12.3126 102.087C10.0793 99.1596 8.86231 95.6627 8.93909 92.0173Z" fill="#FD5400"/>
<path d="M26.9797 80.7334C27.3048 81.0512 27.3048 81.0512 27.4876 81.6273C28.7706 85.5226 31.5839 88.5892 35.2782 90.4526C35.9869 90.7905 36.719 91.0105 37.4723 91.2336C37.8691 91.3813 37.8691 91.3813 38.0316 91.6992C37.8703 91.7533 37.709 91.8073 37.5428 91.8631C33.4008 93.2901 30.1478 95.7656 28.2121 99.6794C27.7992 100.548 27.4428 101.435 27.1423 102.347C26.7473 101.961 26.6646 101.651 26.482 101.135C25.5987 98.8605 24.3706 97.0497 22.5915 95.3544C22.4695 95.2338 22.3476 95.1131 22.222 94.9888C20.7244 93.587 18.8168 92.7366 16.903 92.017C16.632 91.9113 16.3611 91.8054 16.0903 91.6992C16.521 91.1746 17.0801 91.0079 17.7055 90.7854C21.5002 89.3592 24.3512 86.6934 26.0074 83.0737C26.3483 82.2999 26.6685 81.519 26.9797 80.7334Z" fill="#EB8131"/>
<path d="M96.0542 71.0391C109.892 71.0391 123.73 71.0391 137.986 71.0391C137.986 84.5699 137.986 98.1007 137.986 112.042C124.149 112.042 110.311 112.042 96.0542 112.042C96.0542 98.5107 96.0542 84.9799 96.0542 71.0391ZM96.8668 71.9926C96.8668 84.9465 96.8668 97.9004 96.8668 111.247C110.115 111.247 123.362 111.247 137.011 111.247C137.011 98.293 137.011 85.3391 137.011 71.9926C123.764 71.9926 110.516 71.9926 96.8668 71.9926Z" fill="#53331C"/>
<path d="M51.0338 71.0391C64.8715 71.0391 78.7091 71.0391 92.9661 71.0391C92.9661 84.5699 92.9661 98.1007 92.9661 112.042C79.1284 112.042 65.2908 112.042 51.0338 112.042C51.0338 98.5107 51.0338 84.9799 51.0338 71.0391ZM51.8465 71.9926C51.8465 84.9465 51.8465 97.9004 51.8465 111.247C65.0941 111.247 78.3418 111.247 91.9909 111.247C91.9909 98.293 91.9909 85.3391 91.9909 71.9926C78.7432 71.9926 65.4956 71.9926 51.8465 71.9926Z" fill="#503021"/>
<path d="M6.01355 71.0391C19.8512 71.0391 33.6889 71.0391 47.9458 71.0391C47.9458 84.5699 47.9458 98.1007 47.9458 112.042C34.1082 112.042 20.2705 112.042 6.01355 112.042C6.01355 98.5107 6.01355 84.9799 6.01355 71.0391ZM6.98872 71.8337C6.98872 84.84 6.98872 97.8464 6.98872 111.247C20.2364 111.247 33.4841 111.247 47.1332 111.247C47.1332 98.2405 47.1332 85.2342 47.1332 71.8337C33.8855 71.8337 20.6378 71.8337 6.98872 71.8337Z" fill="#56321C"/>
<path d="M101.093 85.8188C101.468 85.8188 101.843 85.8188 102.23 85.8188C102.237 85.9066 102.243 85.9944 102.25 86.0849C102.625 90.9792 104.113 95.1553 107.269 99.0096C107.373 99.1392 107.477 99.2689 107.584 99.4025C108.341 100.3 109.257 101.002 110.194 101.711C110.331 101.818 110.468 101.924 110.609 102.034C114.242 104.755 118.368 105.814 122.871 106.002C122.871 106.369 122.871 106.736 122.871 107.115C115.684 107.115 108.497 107.115 101.093 107.115C101.093 100.087 101.093 93.0594 101.093 85.8188Z" fill="#EC8231"/>
<path d="M115.233 83.7529C115.558 83.9119 115.558 83.9119 115.761 84.5029C115.834 84.7558 115.904 85.0091 115.974 85.2627C116.01 85.3864 116.046 85.5102 116.083 85.6377C116.323 86.4926 116.452 87.3199 116.533 88.2028C117.412 87.6581 118.172 87.0216 118.951 86.3488C119.475 85.9014 119.982 85.5114 120.596 85.1832C120.252 86.2388 119.854 87.2659 119.428 88.2922C119.368 88.4373 119.308 88.5825 119.247 88.732C119.101 89.0855 118.955 89.4389 118.808 89.792C119.014 89.766 119.22 89.74 119.432 89.7132C120.286 89.6204 121.129 89.6152 121.988 89.6232C122.21 89.6243 122.21 89.6243 122.437 89.6254C122.799 89.6272 123.16 89.6298 123.521 89.6331C122.934 90.2502 122.205 90.6481 121.48 91.0932C121.266 91.2265 121.266 91.2265 121.048 91.3624C120.912 91.4462 120.776 91.5301 120.636 91.6166C120.511 91.6934 120.387 91.7703 120.258 91.8495C119.946 92.017 119.946 92.017 119.621 92.017C119.621 92.1219 119.621 92.2268 119.621 92.3348C119.779 92.3868 119.779 92.3868 119.94 92.4398C120.618 92.7322 121.216 93.1205 121.835 93.5168C121.959 93.5948 122.083 93.6727 122.211 93.753C122.763 94.1039 123.214 94.4184 123.684 94.8776C122.129 94.8776 120.573 94.8776 118.971 94.8776C119.448 96.0903 119.923 97.2847 120.447 98.4751C120.596 98.8507 120.596 98.8507 120.596 99.1686C120.149 98.9661 119.793 98.7488 119.425 98.4304C119.329 98.349 119.234 98.2676 119.135 98.1837C119.037 98.099 118.94 98.0143 118.839 97.927C118.097 97.2873 117.346 96.6999 116.533 96.149C116.519 96.3391 116.506 96.5292 116.492 96.7251C116.395 97.6065 116.137 98.429 115.872 99.2747C115.73 99.7687 115.633 100.251 115.558 100.758C115.45 100.758 115.343 100.758 115.233 100.758C114.857 99.3418 114.482 97.9258 114.095 96.4669C113.582 96.4669 113.343 96.7851 112.957 97.1026C112.328 97.615 111.698 98.1233 111.058 98.6223C110.923 98.7274 110.788 98.8325 110.649 98.9407C110.553 99.0159 110.456 99.0911 110.357 99.1686C110.194 98.8507 110.194 98.8507 110.322 98.455C110.39 98.2922 110.458 98.1294 110.528 97.9617C110.601 97.785 110.674 97.6082 110.75 97.426C110.828 97.2406 110.906 97.0552 110.986 96.8642C111.063 96.6788 111.14 96.4934 111.219 96.3024C111.78 94.9547 111.78 94.9547 111.982 94.5598C111.679 94.5942 111.679 94.5942 111.369 94.6293C109.945 94.7863 108.542 94.9344 107.106 94.8776C107.536 94.4333 107.956 94.0922 108.49 93.7738C108.694 93.65 108.694 93.65 108.903 93.5237C109.044 93.4395 109.185 93.3553 109.331 93.2685C109.613 93.1 109.895 92.9307 110.176 92.7607C110.3 92.6865 110.425 92.6123 110.553 92.5359C110.867 92.3527 110.867 92.3527 111.007 92.017C110.889 91.9744 110.771 91.9318 110.65 91.8879C110.198 91.7005 109.815 91.4833 109.404 91.2217C109.26 91.1303 109.116 91.0388 108.967 90.9446C108.819 90.8494 108.671 90.7542 108.518 90.6562C108.367 90.5604 108.215 90.4647 108.059 90.366C107.232 89.8382 107.232 89.8382 106.944 89.6331C106.944 89.5807 106.944 89.5282 106.944 89.4742C108.625 89.5609 110.304 89.6579 111.982 89.792C111.934 89.6807 111.885 89.5693 111.835 89.4545C111.616 88.9482 111.398 88.4414 111.179 87.9346C111.103 87.7594 111.027 87.5841 110.949 87.4035C110.876 87.234 110.803 87.0645 110.728 86.8898C110.661 86.7342 110.594 86.5786 110.524 86.4182C110.367 86.0057 110.268 85.6166 110.194 85.1832C111.175 85.8735 112.088 86.6241 112.998 87.4C113.513 87.8486 113.513 87.8486 114.095 88.2028C114.135 88.0225 114.175 87.8422 114.217 87.6565C114.392 86.8874 114.573 86.1196 114.755 85.3521C114.783 85.2317 114.812 85.1112 114.841 84.9871C115.051 84.1074 115.051 84.1074 115.233 83.7529Z" fill="#FCCC00"/>
<path d="M0 0C47.4127 0 94.8255 0 143.675 0C143.675 0.052445 143.675 0.10489 143.675 0.158924C96.4231 0.211369 49.1713 0.263814 0.487585 0.317848C0.43395 43.0605 0.380316 85.8032 0.325056 129.841C47.6842 129.841 95.0433 129.841 143.837 129.841C143.837 87.0984 143.837 44.3557 143.837 0.317848C143.891 0.317848 143.945 0.317848 144 0.317848C144 43.113 144 85.9081 144 130C96.48 130 48.96 130 0 130C0 87.1 0 44.2 0 0Z" fill="#FDDCC6"/>
<path d="M98.6547 73.7407C102.417 73.7407 102.417 73.7407 103.724 73.8798C103.859 73.8923 103.995 73.9048 104.135 73.9176C105.036 74.0068 105.902 74.1667 106.781 74.3764C106.953 74.4158 106.953 74.4158 107.127 74.456C112.385 75.6801 117.386 77.8286 121.571 81.2102C121.738 81.3415 121.906 81.4728 122.078 81.6081C124.167 83.2705 126.119 85.149 127.747 87.2493C127.815 87.3341 127.882 87.4189 127.952 87.5062C133.009 93.868 135.386 101.494 135.386 109.499C123.265 109.499 111.143 109.499 98.6547 109.499C98.6547 97.6985 98.6547 85.8984 98.6547 73.7407ZM99.4673 74.3764C99.4673 85.7045 99.4673 97.0327 99.4673 108.704C111.052 108.704 122.637 108.704 134.573 108.704C134.573 107.344 134.532 106.105 134.37 104.771C134.348 104.589 134.326 104.408 134.304 104.222C134.124 102.815 133.848 101.482 133.436 100.122C133.359 99.8577 133.282 99.5933 133.206 99.3288C133.124 99.0501 133.041 98.7716 132.958 98.4932C132.921 98.3673 132.884 98.2414 132.846 98.1118C131.768 94.5989 129.868 91.2564 127.585 88.3617C127.407 88.1331 127.407 88.1331 127.225 87.8999C126.47 86.9543 125.662 86.057 124.822 85.1833C124.736 85.0945 124.651 85.0058 124.563 84.9143C123.041 83.342 121.423 81.9897 119.621 80.7334C119.519 80.6615 119.416 80.5897 119.311 80.5156C116.945 78.866 114.38 77.585 111.657 76.6014C111.559 76.5644 111.462 76.5275 111.361 76.4895C109.036 75.6153 106.644 74.9881 104.181 74.6247C103.922 74.5857 103.922 74.5857 103.659 74.5459C102.229 74.3526 100.945 74.3764 99.4673 74.3764Z" fill="#4D2712"/>
<path d="M88.903 91.0635C89.2248 91.0635 89.5466 91.0635 89.8781 91.0635C89.8781 96.6226 89.8781 102.182 89.8781 107.909C84.1929 107.909 78.5077 107.909 72.6501 107.909C72.6501 107.595 72.6501 107.28 72.6501 106.956C72.8077 106.952 72.9652 106.948 73.1276 106.943C75.7513 106.847 77.9657 106.234 80.289 105.049C80.5451 104.921 80.5451 104.921 80.8064 104.791C82.1108 104.1 83.1489 103.205 84.1896 102.188C84.3323 102.052 84.475 101.917 84.622 101.777C86.2347 100.156 87.3149 98.1089 88.0903 95.9901C88.1383 95.86 88.1863 95.73 88.2357 95.5959C88.7063 94.134 88.7758 92.5831 88.903 91.0635Z" fill="#F89CB4"/>
<path d="M54.1219 74.2178C59.8072 74.2178 65.4924 74.2178 71.3499 74.2178C71.3499 74.48 71.3499 74.7422 71.3499 75.0124C71.1614 75.0298 70.9728 75.0472 70.7786 75.0652C65.9646 75.5321 61.782 77.3017 58.6645 81.0055C56.2963 83.9463 55.4002 87.2299 55.0971 90.9048C54.7753 90.9048 54.4535 90.9048 54.1219 90.9048C54.1219 85.3981 54.1219 79.8914 54.1219 74.2178Z" fill="#FACC05"/>
<path d="M132.471 74.615C133.524 75.2747 134.44 76.1427 134.828 77.3322C135.063 78.6039 135.102 79.9258 134.411 81.0514C134.347 81.1553 134.284 81.2591 134.218 81.3662C133.517 82.4015 132.523 83.0442 131.323 83.4353C129.973 83.5308 128.717 83.6138 127.585 82.7996C127.435 82.7012 127.435 82.7012 127.283 82.6009C126.304 81.8823 125.704 80.7928 125.472 79.6211C125.351 78.1857 125.536 76.9184 126.483 75.7839C128.058 74.1765 130.374 73.5687 132.471 74.615Z" fill="#492712"/>
<path d="M115.72 17.1636C118.369 17.1636 118.369 17.1636 119.133 17.7993C119.905 18.7226 120.127 19.5211 120.135 20.7016C120.136 20.9032 120.138 21.1049 120.139 21.3126C120.14 21.5325 120.141 21.7524 120.141 21.9723C120.142 22.0837 120.142 22.1951 120.143 22.3099C120.145 22.9001 120.147 23.4903 120.147 24.0805C120.148 24.6864 120.152 25.2923 120.157 25.8982C120.16 26.3673 120.161 26.8363 120.161 27.3053C120.161 27.5285 120.163 27.7516 120.165 27.9747C120.191 30.9022 120.191 30.9022 119.245 32.1024C118.098 32.9367 117.184 32.7381 115.72 32.7381C115.72 27.5985 115.72 22.4589 115.72 17.1636Z" fill="#FCDAC3"/>
<path d="M26.6546 84.8657C26.9227 84.8657 27.1909 84.8657 27.4672 84.8657C27.4775 84.9794 27.4877 85.0931 27.4983 85.2103C27.7338 87.084 28.5046 88.6685 30.0296 89.8594C31.2551 90.7058 32.4985 90.9562 33.9683 91.2227C33.9683 91.4849 33.9683 91.7471 33.9683 92.0173C33.8347 92.031 33.701 92.0448 33.5633 92.0589C31.6398 92.2956 30.0687 92.9126 28.8233 94.4061C27.9709 95.5665 27.6235 96.8096 27.4672 98.2154C27.199 98.2154 26.9309 98.2154 26.6546 98.2154C26.6424 98.1113 26.6303 98.0072 26.6177 97.9C26.3475 96.0658 25.5887 94.4293 24.0541 93.2887C23.5281 92.9817 22.9931 92.7263 22.4288 92.4941C22.2277 92.408 22.2277 92.408 22.0225 92.3203C21.6152 92.1759 21.2643 92.1146 20.834 92.0769C20.7056 92.065 20.5772 92.0531 20.4449 92.0409C20.3487 92.0331 20.2525 92.0253 20.1534 92.0173C20.1534 91.7026 20.1534 91.388 20.1534 91.0638C20.2871 91.05 20.4208 91.0363 20.5585 91.0222C22.2648 90.8122 23.8761 90.3183 25.0293 88.9978C25.7198 87.939 26.2758 86.8496 26.5124 85.6107C26.5396 85.4703 26.5668 85.33 26.5949 85.1854C26.6244 85.0272 26.6244 85.0272 26.6546 84.8657Z" fill="#E83423"/>
<path d="M79.9639 84.23C80.0712 84.23 80.1785 84.23 80.289 84.23C80.3306 85.8961 80.3623 87.5621 80.3816 89.2286C80.3909 90.0026 80.4035 90.7763 80.4239 91.5501C80.4434 92.2983 80.454 93.0461 80.4586 93.7944C80.4619 94.0786 80.4683 94.3627 80.478 94.6467C80.5585 97.0998 80.5585 97.0998 79.6719 98.1185C79.302 98.494 78.9096 98.8341 78.5012 99.1689C78.2641 99.3807 78.0271 99.5926 77.7901 99.8046C77.5947 99.9647 77.3985 100.124 77.201 100.281C77.0468 100.409 76.8926 100.537 76.7337 100.669C76.3883 100.917 76.3883 100.917 76.0633 100.917C75.9796 99.2994 75.9165 97.6822 75.878 96.0629C75.8595 95.3105 75.8345 94.5594 75.7935 93.8078C75.5034 88.354 75.5034 88.354 77.0994 86.5871C77.858 85.814 78.7021 85.1058 79.6389 84.5478C79.7461 84.5478 79.8534 84.5478 79.9639 84.5478C79.9639 84.4429 79.9639 84.338 79.9639 84.23Z" fill="#FD5400"/>
<path d="M85.4899 79.144C85.5279 80.5036 85.5566 81.863 85.5741 83.2229C85.5825 83.8548 85.5938 84.4863 85.6125 85.1179C85.765 90.4296 85.765 90.4296 83.8646 92.8115C83.6495 93.1229 83.4344 93.4343 83.2195 93.7458C83.03 93.9953 82.8388 94.2434 82.6456 94.4902C82.5471 94.6199 82.4487 94.7497 82.3472 94.8834C81.6381 95.8071 81.6381 95.8071 81.2641 95.99C81.1689 94.3807 81.0973 92.7721 81.0536 91.1606C81.0326 90.4117 81.0043 89.6646 80.9576 88.9168C80.6348 83.6153 80.6348 83.6153 82.181 81.8128C84.6367 79.144 84.6367 79.144 85.4899 79.144Z" fill="#FE5500"/>
<path d="M75.0881 89.3154C75.1296 90.9303 75.1613 92.5451 75.1807 94.1605C75.19 94.9106 75.2026 95.6605 75.2229 96.4104C75.2424 97.1349 75.2531 97.859 75.2577 98.5837C75.261 98.8595 75.2674 99.1352 75.2771 99.4109C75.3498 101.568 75.3498 101.568 74.7016 102.316C74.2475 102.644 73.8059 102.899 73.3003 103.142C73.077 103.274 72.8545 103.408 72.6336 103.544C72.4434 103.649 72.2525 103.754 72.061 103.857C71.9619 103.912 71.8628 103.967 71.7607 104.023C71.0503 104.413 71.0503 104.413 70.8623 104.413C70.7708 103.008 70.7021 101.604 70.6602 100.197C70.6401 99.5432 70.613 98.8911 70.5681 98.2382C70.2585 93.6215 70.2585 93.6215 71.7366 91.911C74.1339 89.3154 74.1339 89.3154 75.0881 89.3154Z" fill="#FD5400"/>
<path d="M69.8872 94.4009C69.8872 97.9147 69.8872 101.429 69.8872 105.049C66.7991 106.32 66.7991 106.32 65.6614 106.638C64.9543 98.7151 64.9543 98.7151 66.5185 96.8065C67.2408 96.0077 68.746 94.4009 69.8872 94.4009Z" fill="#FC5400"/>
<path d="M42.2573 5.72119C50.4634 5.72119 58.6694 5.72119 67.1241 5.72119C67.1241 25.2832 67.1241 44.8452 67.1241 64.9999C67.0169 64.9999 66.9096 64.9999 66.7991 64.9999C66.7991 45.5428 66.7991 26.0857 66.7991 6.03904C58.8612 6.09148 50.9233 6.14393 42.7449 6.19796C42.6376 6.46019 42.5304 6.72241 42.4199 6.99259C42.3662 6.99259 42.3126 6.99259 42.2573 6.99259C42.2573 6.57303 42.2573 6.15347 42.2573 5.72119Z" fill="#57341F"/>
<path d="M64.6863 99.4863C64.6863 101.951 64.6863 104.416 64.6863 106.956C64.2036 107.113 63.7209 107.27 63.2235 107.433C63.0693 107.492 62.9151 107.551 62.7563 107.611C62.2658 107.746 61.8289 107.797 61.3227 107.839C61.0807 107.859 61.0807 107.859 60.8338 107.879C60.7106 107.889 60.5875 107.899 60.4606 107.909C59.8178 104.145 59.8178 104.145 60.8382 102.708C61.5636 101.812 63.4821 99.4863 64.6863 99.4863Z" fill="#FC5400"/>
<path d="M89.2279 75.4888C89.3849 78.4267 88.7565 81.26 87.9277 84.0707C87.8898 84.2227 87.8519 84.3747 87.8128 84.5313C87.5147 85.7211 87.0163 86.7873 86.465 87.8849C86.4113 87.8849 86.3577 87.8849 86.3024 87.8849C86.2722 86.6194 86.2492 85.3541 86.2351 84.0884C86.2283 83.5005 86.2191 82.913 86.2043 82.3253C86.1902 81.7575 86.1824 81.1899 86.1791 80.6219C86.1767 80.4059 86.172 80.1899 86.165 79.974C86.112 78.2826 86.112 78.2826 86.585 77.659C86.9108 77.3792 87.2395 77.1495 87.6027 76.9191C87.8733 76.6606 88.1414 76.3996 88.4051 76.1344C89.0478 75.4888 89.0478 75.4888 89.2279 75.4888Z" fill="#F65300"/>
<path d="M98.4921 118.875C99.0703 118.861 99.0703 118.861 99.6602 118.846C99.8401 118.839 99.8401 118.839 100.024 118.833C100.742 118.824 101.172 118.926 101.743 119.352C102.255 119.939 102.316 120.479 102.287 121.225C102.168 121.967 101.775 122.384 101.184 122.829C100.605 123.008 100.605 123.008 98.4921 123.008C98.4921 121.644 98.4921 120.28 98.4921 118.875Z" fill="#583520"/>
<path d="M88.4154 118.876C90.8751 118.748 90.8751 118.748 91.5644 119.332C92.1432 119.933 92.2092 120.4 92.1999 121.208C92.1286 121.776 91.884 122.107 91.5034 122.531C90.9096 122.935 90.2881 122.885 89.5937 122.868C89.2049 122.862 88.816 122.855 88.4154 122.849C88.4154 121.538 88.4154 120.226 88.4154 118.876Z" fill="#512E18"/>
<path d="M47.9458 118.875C48.5945 119.299 49.0005 119.805 49.1819 120.551C49.2213 121.239 49.1569 121.742 48.7178 122.292C48.1277 122.817 47.8619 122.977 47.0722 123.077C46.2817 122.984 46.0601 122.765 45.5079 122.213C45.0988 121.543 45.0282 120.909 45.1828 120.147C45.8451 119.076 46.6621 118.599 47.9458 118.875Z" fill="#532F1A"/>
<path d="M53.4718 118.875C55.605 118.79 55.605 118.79 56.184 119.163C56.6046 119.552 56.864 119.816 56.9338 120.389C56.9403 121.943 56.9403 121.943 56.3973 122.531C55.5534 123.085 54.4373 122.866 53.4718 122.848C53.4718 121.537 53.4718 120.226 53.4718 118.875Z" fill="#54311C"/>
<path d="M110.844 118.875C111.23 118.859 111.615 118.842 112.012 118.826C112.132 118.818 112.252 118.811 112.376 118.804C113 118.791 113.264 118.861 113.764 119.234C114.249 119.873 114.173 120.167 114.095 120.941C114.041 121.046 113.988 121.151 113.932 121.259C113.825 121.259 113.718 121.259 113.607 121.259C113.875 121.784 114.144 122.308 114.42 122.848C113.562 122.932 113.562 122.932 113.12 122.848C112.744 122.381 112.744 122.381 112.47 121.895C112.309 121.842 112.148 121.79 111.982 121.736C111.982 122.155 111.982 122.575 111.982 123.007C111.606 123.007 111.231 123.007 110.844 123.007C110.844 121.644 110.844 120.28 110.844 118.875Z" fill="#502D18"/>
<path d="M71.0368 119.018C71.3106 119.171 71.575 119.34 71.8374 119.511C71.7838 119.668 71.7302 119.825 71.6749 119.988C71.2584 120.176 71.2584 120.176 70.8622 120.305C70.755 120.2 70.6477 120.096 70.5372 119.988C70.1309 119.935 70.1309 119.935 69.7246 119.988C69.3365 120.296 69.3365 120.296 69.369 120.862C69.3603 121.394 69.3603 121.394 69.562 121.736C69.9375 121.736 70.3129 121.736 70.6997 121.736C70.5388 121.683 70.3779 121.631 70.2121 121.577C70.2121 121.315 70.2121 121.052 70.2121 120.782C70.8021 120.782 71.3921 120.782 71.9999 120.782C71.9999 121.516 71.9999 122.251 71.9999 123.007C71.6781 123.007 71.3563 123.007 71.0248 123.007C71.0248 122.902 71.0248 122.797 71.0248 122.689C70.9376 122.742 70.8505 122.794 70.7607 122.848C70.2603 123.054 69.9396 123.07 69.3995 123.007C68.805 122.683 68.478 122.45 68.0993 121.895C67.9922 121.04 67.948 120.252 68.3837 119.491C69.1757 118.846 70.0486 118.599 71.0368 119.018Z" fill="#53301B"/>
<path d="M73.6253 118.875C74.0007 118.875 74.3761 118.875 74.763 118.875C74.7728 119.055 74.7826 119.235 74.7928 119.421C74.8065 119.656 74.8203 119.892 74.8341 120.127C74.8405 120.246 74.8468 120.364 74.8534 120.486C74.8793 121.132 74.8793 121.132 75.088 121.736C75.3562 121.684 75.6244 121.631 75.9007 121.577C75.9543 120.686 76.0079 119.794 76.0632 118.875C76.4923 118.875 76.9213 118.875 77.3634 118.875C77.5313 121.749 77.5313 121.749 76.9063 122.461C76.4269 122.888 76.0006 122.998 75.3521 123.057C74.6593 122.999 74.4293 122.854 73.9503 122.372C73.668 121.913 73.5857 121.581 73.5935 121.048C73.5946 120.921 73.5956 120.794 73.5967 120.663C73.5994 120.532 73.6021 120.401 73.6049 120.266C73.6064 120.133 73.6079 119.999 73.6094 119.861C73.6132 119.533 73.619 119.204 73.6253 118.875Z" fill="#56331E"/>
<path d="M37.7065 118.875C39.8203 118.778 39.8203 118.778 40.5305 119.203C40.8573 119.78 40.8809 120.131 40.7946 120.782C40.6337 121.018 40.6337 121.018 40.4695 121.259C40.3623 121.259 40.255 121.259 40.1445 121.259C40.3054 121.52 40.3054 121.52 40.4695 121.785C40.7271 122.202 40.7946 122.344 40.7946 122.848C40.4187 122.818 40.4187 122.818 39.9819 122.689C39.4944 122.048 39.4944 122.048 39.4944 121.577C39.1725 121.577 38.8507 121.577 38.5192 121.577C38.5192 121.996 38.5192 122.416 38.5192 122.848C38.251 122.901 37.9828 122.953 37.7065 123.007C37.7065 121.644 37.7065 120.28 37.7065 118.875Z" fill="#65422C"/>
<path d="M79.8014 118.875C80.2305 118.875 80.6595 118.875 81.1016 118.875C81.6982 120.076 82.4018 121.498 82.4018 122.849C82.0264 122.849 81.651 122.849 81.2641 122.849C81.2105 122.639 81.1569 122.429 81.1016 122.213C80.7262 122.265 80.3507 122.318 79.9639 122.372C79.9103 122.529 79.8567 122.686 79.8014 122.849C79.426 122.849 79.0505 122.849 78.6637 122.849C78.7635 121.928 79.014 121.109 79.324 120.236C79.3697 120.105 79.4155 119.973 79.4627 119.838C79.5747 119.517 79.6879 119.196 79.8014 118.875Z" fill="#53301B"/>
<path d="M103.855 118.875C104.821 118.875 105.786 118.875 106.781 118.875C106.781 119.243 106.781 119.61 106.781 119.988C106.191 119.988 105.601 119.988 104.993 119.988C104.993 120.145 104.993 120.303 104.993 120.465C105.476 120.465 105.959 120.465 106.456 120.465C106.456 120.779 106.456 121.094 106.456 121.418C105.973 121.418 105.491 121.418 104.993 121.418C104.993 121.576 104.993 121.733 104.993 121.895C105.583 121.895 106.173 121.895 106.781 121.895C106.781 122.21 106.781 122.524 106.781 122.849C105.816 122.849 104.85 122.849 103.855 122.849C103.855 121.537 103.855 120.226 103.855 118.875Z" fill="#53301B"/>
<path d="M130.16 118.86C130.494 118.865 130.827 118.87 131.16 118.875C131.351 119.418 131.54 119.961 131.729 120.504C131.783 120.658 131.838 120.812 131.894 120.971C131.945 121.119 131.996 121.268 132.049 121.421C132.121 121.625 132.121 121.625 132.194 121.834C132.298 122.213 132.298 122.213 132.298 122.848C131.923 122.848 131.547 122.848 131.16 122.848C131.107 122.691 131.053 122.534 130.998 122.372C130.622 122.319 130.247 122.267 129.86 122.213C129.806 122.423 129.753 122.632 129.698 122.848C129.322 122.848 128.947 122.848 128.56 122.848C128.672 121.998 128.929 121.223 129.21 120.415C129.254 120.284 129.299 120.153 129.345 120.019C129.736 118.882 129.736 118.882 130.16 118.86Z" fill="#522F1A"/>
<path d="M117.158 118.86C117.491 118.865 117.825 118.87 118.158 118.875C118.737 120.093 119.371 121.488 119.296 122.848C118.974 122.848 118.652 122.848 118.321 122.848C118.267 122.639 118.213 122.429 118.158 122.213C117.729 122.213 117.3 122.213 116.858 122.213C116.858 122.423 116.858 122.632 116.858 122.848C116.482 122.848 116.107 122.848 115.72 122.848C115.813 121.933 115.998 121.11 116.289 120.236C116.326 120.122 116.362 120.008 116.4 119.89C116.729 118.882 116.729 118.882 117.158 118.86Z" fill="#53301B"/>
<path d="M6.5011 118.875C6.76927 118.875 7.03744 118.875 7.31374 118.875C7.64197 119.281 7.64197 119.281 7.93338 119.809C8.03164 119.982 8.1299 120.156 8.23114 120.334C8.45144 120.783 8.45144 120.783 8.45144 121.1C8.91624 120.701 9.16895 120.252 9.45708 119.72C9.54319 119.562 9.6293 119.404 9.71801 119.241C9.78275 119.12 9.84749 119 9.91419 118.875C10.1824 118.875 10.4505 118.875 10.7268 118.875C10.7268 120.187 10.7268 121.498 10.7268 122.849C10.5123 122.849 10.2978 122.849 10.0767 122.849C10.0767 122.009 10.0767 121.17 10.0767 120.306C9.96945 120.306 9.86218 120.306 9.75166 120.306C9.73176 120.397 9.71186 120.488 9.69135 120.581C9.58464 120.957 9.43681 121.271 9.25392 121.617C9.19505 121.729 9.13618 121.841 9.07552 121.957C9.03048 122.042 8.98543 122.126 8.93902 122.213C8.6419 122.179 8.6419 122.179 8.28891 122.054C7.95753 121.603 7.73419 121.121 7.47627 120.624C7.42263 121.41 7.369 122.197 7.31374 123.008C7.04557 123.008 6.7774 123.008 6.5011 123.008C6.5011 121.644 6.5011 120.28 6.5011 118.875Z" fill="#4F2C17"/>
<path d="M94.429 118.875C94.9117 118.875 95.3944 118.875 95.8917 118.875C96.0821 119.478 96.2714 120.081 96.4606 120.683C96.5148 120.855 96.5691 121.027 96.625 121.203C96.6763 121.367 96.7277 121.531 96.7805 121.7C96.8282 121.852 96.8759 122.003 96.925 122.159C97.0294 122.531 97.0294 122.531 97.0294 122.849C96.654 122.849 96.2785 122.849 95.8917 122.849C95.8381 122.639 95.7844 122.429 95.7292 122.213C95.3537 122.265 94.9783 122.318 94.5915 122.372C94.5379 122.529 94.4842 122.686 94.429 122.849C94.0535 122.849 93.6781 122.849 93.2913 122.849C93.5133 121.471 93.9604 120.187 94.429 118.875Z" fill="#502D18"/>
<path d="M59.6479 104.413C59.6479 105.672 59.6479 106.93 59.6479 108.227C58.2207 108.432 56.8676 108.598 55.4221 108.545C55.6661 107.986 55.9964 107.629 56.4373 107.204C56.5734 107.072 56.7094 106.94 56.8496 106.803C56.992 106.667 57.1344 106.53 57.281 106.39C57.4228 106.253 57.5645 106.115 57.7105 105.974C57.9738 105.719 58.2375 105.465 58.5015 105.211C58.7061 105.014 58.9075 104.814 59.1032 104.609C59.3228 104.413 59.3228 104.413 59.6479 104.413Z" fill="#EF5101"/>
<path d="M123.196 118.875C123.615 119.052 123.952 119.262 124.334 119.511C124.28 119.668 124.227 119.826 124.172 119.988C123.755 120.177 123.755 120.177 123.359 120.306C123.252 120.201 123.144 120.096 123.034 119.988C122.627 119.935 122.627 119.935 122.221 119.988C121.833 120.297 121.833 120.297 121.866 120.862C121.857 121.394 121.857 121.394 122.059 121.736C122.727 121.756 122.727 121.756 123.379 121.637C123.79 121.556 123.985 121.687 124.334 121.895C124.163 122.381 124.014 122.528 123.562 122.809C122.991 123.023 122.663 123.094 122.059 123.007C121.357 122.644 120.888 122.307 120.596 121.577C120.513 121.031 120.496 120.532 120.596 119.988C121.303 119.09 122.037 118.697 123.196 118.875Z" fill="#502D18"/>
<path d="M15.4402 118.875C16.3705 119.057 16.5808 119.34 17.0959 120.048C17.1671 120.141 17.2382 120.235 17.3115 120.332C17.6196 120.74 17.9152 121.155 18.2032 121.577C18.2568 120.686 18.3104 119.794 18.3657 118.875C18.5802 118.875 18.7948 118.875 19.0158 118.875C19.0158 120.239 19.0158 121.603 19.0158 123.008C18.101 122.829 18.101 122.829 17.7327 122.358C17.6547 122.259 17.5766 122.161 17.4962 122.059C17.4178 121.956 17.3393 121.853 17.2585 121.746C17.1361 121.592 17.1361 121.592 17.0112 121.435C16.4154 120.671 16.4154 120.671 16.4154 120.306C16.3081 120.306 16.2008 120.306 16.0903 120.306C16.0903 121.197 16.0903 122.089 16.0903 123.008C15.8758 123.008 15.6612 123.008 15.4402 123.008C15.4402 121.644 15.4402 120.28 15.4402 118.875Z" fill="#56331E"/>
<path d="M10.7269 73.4229C10.9846 73.6842 10.9846 73.6842 11.2754 74.0288C11.6561 74.4789 12.0242 74.8361 12.5147 75.171C12.265 75.756 11.9001 76.1226 11.4379 76.5616C11.3051 76.6886 11.1723 76.8156 11.0354 76.9465C10.9336 77.0424 10.8318 77.1383 10.7269 77.237C10.1287 76.9929 9.7537 76.6361 9.30476 76.1842C9.17486 76.0543 9.04497 75.9244 8.91114 75.7906C8.81309 75.691 8.71504 75.5914 8.61401 75.4889C8.86304 74.9119 9.21834 74.5375 9.67045 74.0983C9.7995 73.9713 9.92856 73.8442 10.0615 73.7134C10.4018 73.4229 10.4018 73.4229 10.7269 73.4229Z" fill="#4C2812"/>
<path d="M43.5576 105.685C45.0716 106.926 45.0716 106.926 45.5079 107.433C45.4759 108.078 45.0607 108.396 44.6039 108.823C44.4696 108.95 44.3353 109.077 44.1969 109.208C44.0932 109.304 43.9895 109.4 43.8826 109.499C43.2844 109.255 42.9095 108.898 42.4605 108.446C42.3306 108.316 42.2007 108.186 42.0669 108.052C41.9688 107.953 41.8708 107.853 41.7698 107.751C42.0195 107.166 42.3844 106.799 42.8465 106.36C42.9794 106.233 43.1122 106.106 43.249 105.975C43.4018 105.831 43.4018 105.831 43.5576 105.685Z" fill="#4C2812"/>
<path d="M83.8645 118.875C84.2936 118.875 84.7227 118.875 85.1647 118.875C85.1647 119.872 85.1647 120.868 85.1647 121.895C85.7547 121.895 86.3447 121.895 86.9525 121.895C86.9525 122.262 86.9525 122.629 86.9525 123.008C85.9335 123.008 84.9144 123.008 83.8645 123.008C83.8645 121.644 83.8645 120.28 83.8645 118.875Z" fill="#5F3C27"/>
<path d="M59.8104 118.875C60.1844 118.872 60.1844 118.872 60.6231 119.034C60.8712 119.449 61.0004 119.897 61.1411 120.355C61.221 120.6 61.3012 120.844 61.3817 121.088C61.4157 121.197 61.4497 121.306 61.4847 121.418C61.5925 121.745 61.5925 121.745 61.7743 122.064C61.9233 122.372 61.9233 122.372 61.9233 122.848C61.7087 122.848 61.4942 122.848 61.2732 122.848C61.1659 122.586 61.0586 122.324 60.9481 122.054C60.4118 122.054 59.8754 122.054 59.3228 122.054C59.1619 122.447 59.1619 122.447 58.9978 122.848C58.7832 122.848 58.5687 122.848 58.3477 122.848C58.472 122.095 58.727 121.399 58.9876 120.683C59.0522 120.501 59.0522 120.501 59.1181 120.315C59.1603 120.199 59.2025 120.082 59.246 119.962C59.2841 119.856 59.3222 119.75 59.3615 119.642C59.4854 119.352 59.4854 119.352 59.8104 118.875Z" fill="#4F2C17"/>
<path d="M133.761 118.875C134.19 118.875 134.619 118.875 135.061 118.875C135.061 119.872 135.061 120.868 135.061 121.895C135.651 121.895 136.241 121.895 136.849 121.895C136.849 122.21 136.849 122.524 136.849 122.849C135.83 122.849 134.811 122.849 133.761 122.849C133.761 121.537 133.761 120.226 133.761 118.875Z" fill="#593621"/>
<path d="M25.842 118.876C26.2121 119.038 26.2121 119.038 26.4921 119.193C26.4384 119.403 26.3848 119.613 26.3295 119.829C26.2457 119.803 26.1619 119.777 26.0756 119.75C25.5602 119.646 25.0663 119.66 24.5417 119.67C24.5417 119.88 24.5417 120.09 24.5417 120.306C24.7297 120.369 24.7297 120.369 24.9214 120.434C25.0844 120.49 25.2474 120.546 25.4153 120.604C25.6586 120.687 25.6586 120.687 25.9067 120.771C26.3295 120.942 26.3295 120.942 26.6546 121.259C26.7155 121.716 26.7155 121.716 26.6546 122.213C26.3511 122.579 26.1091 122.798 25.6794 123.008C24.8247 123.072 24.3056 122.954 23.5666 122.531C23.6202 122.321 23.6738 122.111 23.7291 121.895C23.8095 121.948 23.89 122 23.9729 122.054C24.5565 122.282 25.0528 122.233 25.6794 122.213C25.6794 122.003 25.6794 121.793 25.6794 121.577C25.5678 121.537 25.4561 121.497 25.341 121.455C25.1946 121.4 25.0481 121.346 24.8973 121.289C24.7521 121.236 24.6069 121.182 24.4573 121.127C24.0606 120.945 23.8346 120.801 23.5666 120.465C23.4853 119.998 23.4853 119.998 23.5666 119.511C24.1854 118.77 24.9257 118.738 25.842 118.876Z" fill="#53301B"/>
<path d="M47.1332 119.412C47.8007 119.548 48.0359 119.768 48.4334 120.306C48.5347 120.85 48.5476 121.202 48.2836 121.701C47.9471 122.154 47.6913 122.356 47.1332 122.481C46.4648 122.331 46.2286 122.123 45.833 121.577C45.7178 121.126 45.7178 120.756 45.833 120.306C46.2292 119.759 46.46 119.549 47.1332 119.412Z" fill="#F5D4BD"/>
<path d="M33.1558 118.875C34.0675 118.875 34.9793 118.875 35.9187 118.875C35.9187 119.085 35.9187 119.295 35.9187 119.511C35.2215 119.511 34.5242 119.511 33.8059 119.511C33.8059 119.878 33.8059 120.245 33.8059 120.624C34.3959 120.624 34.9858 120.624 35.5937 120.624C35.5937 120.781 35.5937 120.938 35.5937 121.1C35.0037 121.1 34.4137 121.1 33.8059 121.1C33.8059 121.52 33.8059 121.94 33.8059 122.372C34.5031 122.372 35.2004 122.372 35.9187 122.372C35.9187 122.529 35.9187 122.686 35.9187 122.849C35.007 122.849 34.0952 122.849 33.1558 122.849C33.1558 121.537 33.1558 120.226 33.1558 118.875Z" fill="#4C2914"/>
<path d="M54.1219 119.511C55.5847 119.511 55.5847 119.511 56.0012 119.739C56.3521 120.351 56.3754 120.893 56.2348 121.577C55.9098 122.063 55.9098 122.063 55.4222 122.371C54.9931 122.371 54.564 122.371 54.1219 122.371C54.1219 121.427 54.1219 120.483 54.1219 119.511Z" fill="#F4D3BC"/>
<path d="M125.797 118.875C126.226 118.875 126.655 118.875 127.097 118.875C127.097 120.239 127.097 121.603 127.097 123.008C126.722 123.008 126.346 123.008 125.959 123.008C125.797 122.849 125.797 122.849 125.778 122.466C125.779 122.3 125.78 122.135 125.781 121.964C125.782 121.785 125.782 121.606 125.783 121.422C125.784 121.234 125.785 121.046 125.787 120.852C125.787 120.663 125.788 120.475 125.789 120.28C125.791 119.812 125.794 119.344 125.797 118.875Z" fill="#613E29"/>
<path d="M65.1738 118.875C65.6029 118.875 66.032 118.875 66.4741 118.875C66.4741 120.239 66.4741 121.603 66.4741 123.008C66.0986 123.008 65.7232 123.008 65.3364 123.008C65.1738 122.849 65.1738 122.849 65.1554 122.466C65.1562 122.3 65.1571 122.135 65.158 121.964C65.1585 121.785 65.159 121.606 65.1596 121.422C65.1609 121.234 65.1623 121.046 65.1637 120.852C65.1644 120.663 65.1652 120.475 65.1659 120.28C65.1678 119.812 65.1705 119.344 65.1738 118.875Z" fill="#613E28"/>
<path d="M27.9548 118.875C29.1348 118.875 30.3147 118.875 31.5305 118.875C31.5305 119.085 31.5305 119.295 31.5305 119.511C31.0477 119.511 30.565 119.511 30.0677 119.511C30.0677 120.613 30.0677 121.714 30.0677 122.849C29.8532 122.849 29.6386 122.849 29.4176 122.849C29.4176 121.747 29.4176 120.646 29.4176 119.511C28.9349 119.511 28.4522 119.511 27.9548 119.511C27.9548 119.301 27.9548 119.092 27.9548 118.875Z" fill="#5A3721"/>
<path d="M6.5011 118.875C6.76927 118.875 7.03744 118.875 7.31374 118.875C7.45045 119.103 7.58559 119.332 7.72006 119.561C7.8332 119.752 7.8332 119.752 7.94862 119.946C8.12638 120.306 8.12638 120.306 8.12638 120.783C7.96548 120.835 7.80458 120.887 7.6388 120.942C7.58516 120.837 7.53153 120.732 7.47627 120.624C7.42263 121.41 7.369 122.197 7.31374 123.008C7.04557 123.008 6.7774 123.008 6.5011 123.008C6.5011 121.644 6.5011 120.28 6.5011 118.875Z" fill="#63402B"/>
<path d="M37.7065 118.875C38.4574 118.875 39.2083 118.875 39.9819 118.875C39.9819 118.98 39.9819 119.085 39.9819 119.193C39.4595 119.449 38.9359 119.361 38.3567 119.352C38.3567 119.929 38.3567 120.506 38.3567 121.1C38.7857 121.1 39.2148 121.1 39.6569 121.1C39.3318 121.418 39.3318 121.418 38.8239 121.438C38.5926 121.428 38.5926 121.428 38.3567 121.418C38.3567 121.943 38.3567 122.467 38.3567 123.008C38.1421 123.008 37.9276 123.008 37.7065 123.008C37.7065 121.644 37.7065 120.28 37.7065 118.875Z" fill="#583520"/>
<path d="M20.9662 118.875C21.2344 118.875 21.5025 118.875 21.7788 118.875C21.7788 120.239 21.7788 121.603 21.7788 123.008C21.5107 123.008 21.2425 123.008 20.9662 123.008C20.9662 121.644 20.9662 120.28 20.9662 118.875Z" fill="#65422C"/>
<path d="M12.6772 118.875C12.9454 118.875 13.2136 118.875 13.4899 118.875C13.4899 120.187 13.4899 121.498 13.4899 122.849C13.2217 122.901 12.9535 122.953 12.6772 123.008C12.6772 121.644 12.6772 120.28 12.6772 118.875Z" fill="#6A4732"/>
<path d="M48.1084 119.034C48.6679 119.433 49.0215 119.876 49.1737 120.541C49.2108 121.246 49.1577 121.744 48.6975 122.302C47.9913 122.944 47.5774 122.863 46.6456 122.849C46.8082 122.531 46.8082 122.531 47.184 122.402C47.7425 122.16 47.9572 121.93 48.2709 121.418C48.3928 120.862 48.3928 120.862 48.2709 120.306C47.8726 119.832 47.4915 119.533 46.9707 119.193C47.4148 118.976 47.6137 118.946 48.1084 119.034Z" fill="#502D18"/>
<path d="M53.9594 119.511C54.013 119.511 54.0667 119.511 54.1219 119.511C54.1219 120.455 54.1219 121.399 54.1219 122.371C54.3834 122.329 54.6449 122.286 54.9143 122.242C55.0613 122.218 55.2084 122.194 55.3599 122.17C55.8031 122.08 55.8031 122.08 56.0723 121.577C56.146 121.215 56.146 121.215 56.1739 120.832C56.186 120.703 56.1982 120.575 56.2107 120.443C56.2186 120.345 56.2266 120.247 56.2348 120.146C56.4493 120.094 56.6639 120.042 56.8849 119.988C56.9775 121.902 56.9775 121.902 56.3973 122.53C55.6036 123.033 54.7079 122.868 53.7969 122.848C53.8505 121.747 53.9041 120.645 53.9594 119.511Z" fill="#502D18"/>
<path d="M59.9729 119.829C60.0801 119.829 60.1874 119.829 60.2979 119.829C60.4588 120.249 60.6197 120.668 60.7855 121.1C60.9464 120.996 61.1073 120.891 61.2731 120.783C61.3825 121.037 61.4906 121.292 61.5981 121.547C61.6585 121.689 61.7188 121.831 61.781 121.978C61.9232 122.372 61.9232 122.372 61.9232 122.849C61.7087 122.849 61.4941 122.849 61.2731 122.849C61.1658 122.586 61.0586 122.324 60.948 122.054C60.4117 122.002 59.8753 121.949 59.3228 121.895C59.3228 121.843 59.3228 121.79 59.3228 121.736C60.0468 121.658 60.0468 121.658 60.7855 121.577C60.3564 121.525 59.9274 121.472 59.4853 121.418C59.5844 120.853 59.7418 120.356 59.9729 119.829Z" fill="#68452F"/>
<path d="M42.7449 118.875C42.9594 118.875 43.1739 118.875 43.395 118.875C43.395 120.239 43.395 121.603 43.395 123.008C43.1804 123.008 42.9659 123.008 42.7449 123.008C42.7449 121.644 42.7449 120.28 42.7449 118.875Z" fill="#55321D"/>
<path d="M33.1558 118.875C34.0675 118.875 34.9793 118.875 35.9187 118.875C35.9187 119.085 35.9187 119.295 35.9187 119.511C35.2215 119.511 34.5242 119.511 33.8059 119.511C33.8059 119.878 33.8059 120.245 33.8059 120.624C33.6986 120.624 33.5913 120.624 33.4808 120.624C33.4272 121.358 33.3735 122.092 33.3183 122.849C33.2647 122.849 33.211 122.849 33.1558 122.849C33.1558 121.537 33.1558 120.226 33.1558 118.875Z" fill="#502D18"/>
<path d="M70.5372 119.829C70.7574 120.037 70.974 120.249 71.1874 120.464C71.6167 120.591 71.6167 120.591 72 120.623C72 120.676 72 120.728 72 120.782C71.41 120.782 70.82 120.782 70.2122 120.782C70.2122 121.044 70.2122 121.307 70.2122 121.577C70.4267 121.629 70.6413 121.682 70.8623 121.736C70.6998 121.895 70.6998 121.895 70.1411 121.934C69.95 121.921 69.7589 121.908 69.5621 121.895C69.1617 121.307 69.1736 120.999 69.237 120.305C69.5691 119.776 69.928 119.727 70.5372 119.829Z" fill="#F5D4BD"/>
<path d="M89.5531 119.829C90.3657 119.829 90.3657 119.829 90.6603 119.988C90.9811 120.516 90.9026 120.97 90.8533 121.577C90.7461 121.682 90.6388 121.787 90.5283 121.895C90.2065 121.895 89.8847 121.895 89.5531 121.895C89.5531 121.213 89.5531 120.532 89.5531 119.829Z" fill="#FBD9C2"/>
<path d="M99.7924 119.988C100.114 119.988 100.436 119.988 100.768 119.988C101.093 120.465 101.093 120.465 101.052 121.031C100.93 121.577 100.93 121.577 100.605 121.895C100.337 121.895 100.069 121.895 99.7924 121.895C99.7924 121.266 99.7924 120.636 99.7924 119.988Z" fill="#F8D9C2"/>
<path d="M38.5192 119.511C39.5032 119.48 39.5032 119.48 39.8194 119.511C40.1444 119.829 40.1444 119.829 40.1851 120.226C40.1444 120.624 40.1444 120.624 39.8194 120.941C39.3825 120.984 38.9594 120.955 38.5192 120.941C38.5192 120.469 38.5192 119.997 38.5192 119.511Z" fill="#F8D8C1"/>
<path d="M25.8419 118.876C26.2121 119.038 26.2121 119.038 26.492 119.193C26.4384 119.403 26.3848 119.613 26.3295 119.829C26.2457 119.803 26.1619 119.777 26.0756 119.75C25.5489 119.644 25.0776 119.631 24.5417 119.67C24.3808 119.906 24.3808 119.906 24.2166 120.147C24.2166 120.042 24.2166 119.937 24.2166 119.829C24.1094 119.829 24.0021 119.829 23.8916 119.829C23.7843 120.039 23.6771 120.249 23.5665 120.465C23.5157 120.028 23.5157 120.028 23.5665 119.511C24.1853 118.77 24.9257 118.738 25.8419 118.876Z" fill="#694631"/>
<path d="M18.3657 118.875C18.5803 118.875 18.7948 118.875 19.0158 118.875C19.0158 120.239 19.0158 121.603 19.0158 123.008C18.8013 123.008 18.5868 123.008 18.3657 123.008C18.3657 122.903 18.3657 122.798 18.3657 122.69C18.473 122.69 18.5803 122.69 18.6908 122.69C18.6371 122.323 18.5835 121.955 18.5283 121.577C18.4746 121.577 18.421 121.577 18.3657 121.577C18.3657 120.686 18.3657 119.794 18.3657 118.875Z" fill="#5C3924"/>
<path d="M59.8104 118.875C60.1863 118.875 60.1863 118.875 60.623 119.034C61.013 119.672 61.1816 120.36 61.1106 121.1C60.9497 121.1 60.7888 121.1 60.623 121.1C60.4188 120.639 60.298 120.338 60.298 119.829C60.0298 119.777 59.7616 119.724 59.4854 119.67C59.5926 119.408 59.6999 119.146 59.8104 118.875Z" fill="#5D3A25"/>
<path d="M9.91418 118.875C10.1824 118.875 10.4505 118.875 10.7268 118.875C10.7268 120.187 10.7268 121.498 10.7268 122.849C10.5123 122.796 10.2978 122.744 10.0767 122.69C10.184 122.69 10.2913 122.69 10.4018 122.69C10.4018 121.536 10.4018 120.382 10.4018 119.193C10.2409 119.246 10.08 119.298 9.91418 119.352C9.91418 119.195 9.91418 119.038 9.91418 118.875Z" fill="#593621"/>
<path d="M53.9594 119.511C54.013 119.511 54.0667 119.511 54.1219 119.511C54.1219 120.455 54.1219 121.399 54.1219 122.371C54.8192 122.371 55.5164 122.371 56.2348 122.371C55.7472 122.848 55.7472 122.848 55.273 122.895C54.5349 122.871 54.5349 122.871 53.7969 122.848C53.8505 121.747 53.9041 120.645 53.9594 119.511Z" fill="#4A2712"/>
<path d="M18.5282 119.193C18.5818 119.193 18.6355 119.193 18.6907 119.193C18.6907 120.347 18.6907 121.501 18.6907 122.69C18.5298 122.742 18.3689 122.795 18.2031 122.849C17.935 122.482 17.6668 122.114 17.3905 121.736C17.4441 121.631 17.4978 121.526 17.553 121.418C17.8212 121.471 18.0894 121.523 18.3657 121.577C18.4193 120.791 18.4729 120.004 18.5282 119.193Z" fill="#4D2A15"/>
<path d="M8.12645 120.464C8.23372 120.674 8.34099 120.884 8.4515 121.1C8.66604 120.943 8.88058 120.785 9.10162 120.623C9.30165 121.484 9.30165 121.484 9.11178 121.954C9.05479 122.039 8.9978 122.125 8.93909 122.213C8.64451 122.183 8.64451 122.183 8.28898 122.054C7.94084 121.592 7.80139 121.361 7.80139 120.782C7.90866 120.782 8.01593 120.782 8.12645 120.782C8.12645 120.677 8.12645 120.572 8.12645 120.464Z" fill="#56331E"/>
<path d="M45.8329 121.736C45.9637 121.805 45.9637 121.805 46.097 121.875C46.5404 122.08 46.9911 122.226 47.4582 122.372C47.1364 122.529 47.1364 122.529 46.8081 122.689C47.0763 122.742 47.3445 122.794 47.6207 122.848C47.6207 122.901 47.6207 122.953 47.6207 123.007C46.9308 123.06 46.5878 123.077 46.0056 122.689C45.895 122.584 45.7844 122.48 45.6704 122.372C45.724 122.162 45.7777 121.952 45.8329 121.736Z" fill="#63402B"/>
<path d="M40.6321 119.352C40.5248 119.719 40.4175 120.087 40.307 120.465C40.2567 120.363 40.2065 120.262 40.1547 120.157C40.0089 119.839 40.0089 119.839 39.8194 119.67C39.6004 119.633 39.38 119.605 39.1592 119.581C38.948 119.558 38.7368 119.535 38.5192 119.511C38.5192 119.983 38.5192 120.455 38.5192 120.942C38.4656 120.942 38.4119 120.942 38.3567 120.942C38.3567 120.417 38.3567 119.893 38.3567 119.352C40.011 118.969 40.011 118.969 40.6321 119.352Z" fill="#6E4B35"/>
<path d="M10.7269 73.4229C10.4892 73.9667 10.1798 74.3005 9.74155 74.7042C9.22306 75.1782 9.22306 75.1782 8.93907 75.8067C8.8318 75.5969 8.72453 75.3872 8.61401 75.171C8.90424 74.8787 9.19554 74.5875 9.4876 74.2969C9.57015 74.2136 9.6527 74.1302 9.73774 74.0443C10.365 73.4229 10.365 73.4229 10.7269 73.4229Z" fill="#562E16"/>
<path d="M59.9729 119.829C60.0802 119.829 60.1874 119.829 60.2979 119.829C60.5414 120.365 60.623 120.656 60.623 121.259C60.3012 121.259 59.9794 121.259 59.6478 121.259C59.79 120.187 59.79 120.187 59.9729 119.829Z" fill="#ECCEB7"/>
<path d="M89.5531 119.829C89.8213 119.829 90.0894 119.829 90.3657 119.829C90.3657 119.934 90.3657 120.039 90.3657 120.147C90.2048 120.147 90.0439 120.147 89.8782 120.147C89.8782 120.671 89.8782 121.196 89.8782 121.736C89.9854 121.789 90.0927 121.841 90.2032 121.895C89.9887 121.895 89.7741 121.895 89.5531 121.895C89.5531 121.213 89.5531 120.532 89.5531 119.829Z" fill="#D5B9A2"/>
<path d="M111.982 119.829C112.25 119.829 112.518 119.829 112.795 119.829C112.857 120.092 112.911 120.357 112.957 120.624C112.795 120.783 112.795 120.783 112.378 120.793C112.182 120.788 112.182 120.788 111.982 120.783C111.982 120.468 111.982 120.153 111.982 119.829Z" fill="#DCBCA6"/>
<path d="M33.3182 119.193C34.1764 119.246 35.0345 119.298 35.9187 119.352C35.9187 119.405 35.9187 119.457 35.9187 119.511C35.2214 119.511 34.5242 119.511 33.8058 119.511C33.8058 119.878 33.8058 120.245 33.8058 120.624C33.6449 120.624 33.484 120.624 33.3182 120.624C33.3182 120.152 33.3182 119.68 33.3182 119.193Z" fill="#68452F"/>
<path d="M47.6818 118.965C48.1084 119.034 48.1084 119.034 48.4842 119.432C48.62 119.628 48.62 119.628 48.7585 119.829C48.5046 119.948 48.5046 119.948 48.1084 119.988C47.7016 119.808 47.3494 119.587 46.9707 119.352C47.2958 119.034 47.2958 119.034 47.6818 118.965Z" fill="#4B2813"/>
<path d="M24.8668 119.034C26.1264 119.014 26.1264 119.014 26.4921 119.193C26.4385 119.403 26.3848 119.613 26.3296 119.829C25.8469 119.671 25.3642 119.514 24.8668 119.352C24.8668 119.247 24.8668 119.142 24.8668 119.034Z" fill="#53301B"/>
<path d="M95.079 120.146C95.4959 120.554 95.4919 120.858 95.5665 121.418C95.2984 121.418 95.0302 121.418 94.7539 121.418C94.8612 120.998 94.9684 120.579 95.079 120.146Z" fill="#C8A993"/>
<path d="M40.1445 121.895C40.2517 121.895 40.359 121.895 40.4695 121.895C40.7946 122.372 40.7946 122.372 40.7946 122.849C40.5264 122.796 40.2582 122.744 39.9819 122.69C40.0356 122.427 40.0892 122.165 40.1445 121.895Z" fill="#53301B"/>
<path d="M60.623 119.988C60.8643 120.145 60.8643 120.145 61.1106 120.306C61.141 120.723 61.141 120.723 61.1106 121.1C60.9497 121.1 60.7888 121.1 60.623 121.1C60.561 120.784 60.5071 120.466 60.4604 120.147C60.5141 120.094 60.5677 120.042 60.623 119.988Z" fill="#4D2A15"/>
<path d="M46.483 118.875C46.9657 118.875 47.4484 118.875 47.9458 118.875C47.624 119.033 47.624 119.033 47.2957 119.193C47.3493 119.298 47.4029 119.403 47.4582 119.511C47.19 119.511 46.9219 119.511 46.6456 119.511C46.5919 119.301 46.5383 119.092 46.483 118.875Z" fill="#67442E"/>
<path d="M23.7292 121.895C24.0441 122.024 24.0441 122.024 24.3793 122.213C24.4329 122.37 24.4866 122.528 24.5418 122.69C24.3809 122.768 24.3809 122.768 24.2168 122.849C23.8714 122.7 23.8714 122.7 23.5667 122.531C23.6203 122.321 23.6739 122.111 23.7292 121.895Z" fill="#4C2914"/>
<path d="M40.4695 119.67C40.5768 119.67 40.6841 119.67 40.7946 119.67C40.7946 120.037 40.7946 120.404 40.7946 120.782C40.6873 120.782 40.5801 120.782 40.4695 120.782C40.4076 120.466 40.3536 120.148 40.307 119.829C40.3606 119.776 40.4143 119.724 40.4695 119.67Z" fill="#502D18"/>
<path d="M106.944 89.4741C107.319 89.4741 107.694 89.4741 108.081 89.4741C108.081 89.6315 108.081 89.7888 108.081 89.9509C107.431 89.9509 107.431 89.9509 107.147 89.7125C107.08 89.6338 107.013 89.5552 106.944 89.4741Z" fill="#E5AC03"/>
<path d="M70.5372 119.829C70.4333 119.845 70.3294 119.862 70.2223 119.879C70.1117 119.915 70.0011 119.951 69.8871 119.988C69.8335 120.145 69.7799 120.303 69.7246 120.465C69.6173 120.465 69.5101 120.465 69.3995 120.465C69.3995 120.779 69.3995 121.094 69.3995 121.418C69.3459 121.418 69.2923 121.418 69.237 121.418C69.1781 120.4 69.1781 120.4 69.43 119.998C69.8157 119.777 70.0979 119.794 70.5372 119.829Z" fill="#D9B8A1"/>
<path d="M55.5847 119.034C55.7992 119.139 56.0138 119.244 56.2348 119.352C55.7188 119.655 55.405 119.695 54.8127 119.61C54.6828 119.593 54.5529 119.575 54.4191 119.557C54.321 119.542 54.223 119.527 54.1219 119.511C54.1219 119.459 54.1219 119.406 54.1219 119.352C54.4553 119.316 54.7886 119.28 55.1219 119.243C55.424 119.222 55.424 119.222 55.5847 119.034Z" fill="#5F3C27"/>
<path d="M17.3906 91.2223C17.1492 91.537 17.1492 91.537 16.903 91.858C16.6348 91.8055 16.3666 91.7531 16.0903 91.6991C16.4911 91.204 16.7581 91.1722 17.3906 91.2223Z" fill="#D9782F"/>
<path d="M130.348 120.306C130.731 120.681 130.753 120.906 130.835 121.418C130.621 121.418 130.406 121.418 130.185 121.418C130.239 121.051 130.292 120.684 130.348 120.306Z" fill="#DCBEA7"/>
<path d="M80.4515 120.306C80.7766 120.782 80.7766 120.782 80.7766 121.418C80.562 121.418 80.3475 121.418 80.1265 121.418C80.2337 121.051 80.341 120.684 80.4515 120.306Z" fill="#DDBFA8"/>
<path d="M120.433 85.1836C120.487 85.2885 120.541 85.3934 120.596 85.5014C120.444 85.8765 120.282 86.2478 120.108 86.6139C120.088 86.5123 120.068 86.4107 120.047 86.306C119.997 86.1437 119.997 86.1437 119.946 85.9782C119.839 85.9258 119.731 85.8733 119.621 85.8193C119.889 85.6095 120.157 85.3997 120.433 85.1836Z" fill="#EDB902"/>
<path d="M117.345 120.464C117.453 120.464 117.56 120.464 117.67 120.464C117.724 120.779 117.778 121.094 117.833 121.418C117.618 121.418 117.404 121.418 117.183 121.418C117.236 121.103 117.29 120.789 117.345 120.464Z" fill="#E0C2AB"/>
<path d="M110.194 85.1836C110.472 85.3871 110.742 85.5996 111.007 85.8193C111.007 85.9242 111.007 86.0291 111.007 86.1371C110.846 86.1896 110.685 86.242 110.519 86.2961C110.282 85.8753 110.194 85.6771 110.194 85.1836Z" fill="#EEBB02"/>
<path d="M26.9797 80.7334C27.3047 81.0512 27.3047 81.0512 27.325 81.5479C27.3183 81.6987 27.3116 81.8494 27.3047 82.0048C27.1438 81.9523 26.9829 81.8999 26.8171 81.8459C26.8708 81.4788 26.9244 81.1116 26.9797 80.7334Z" fill="#E07C2F"/>
</g>
<defs>
<clipPath id="clip0_6053_13063">
<rect width="144" height="130" fill="white"/>
</clipPath>
</defs>
</svg>
