<svg width="387" height="185" viewBox="0 0 387 185" fill="none" xmlns="http://www.w3.org/2000/svg">
<g filter="url(#filter0_d_6053_12386)">
<rect width="379" height="177" rx="28" fill="#5893A9"/>
</g>
<path d="M86.343 54L95.7923 31.033H98.4171L107.801 54H103.732L96.3829 35.3967H97.7609L90.3458 54H86.343ZM91.002 49.5706V46.2896H103.175V49.5706H91.002ZM119.027 54.3281C117.824 54.3281 116.752 54.0766 115.811 53.5735C114.871 53.0485 114.127 52.3376 113.58 51.4408C113.055 50.544 112.793 49.5269 112.793 48.3895V43.8617C112.793 42.7243 113.066 41.7072 113.613 40.8104C114.16 39.9136 114.904 39.2136 115.844 38.7105C116.785 38.1856 117.845 37.9231 119.027 37.9231C120.448 37.9231 121.728 38.2949 122.865 39.0386C124.025 39.7605 124.932 40.7448 125.589 41.9915C126.267 43.2164 126.606 44.6054 126.606 46.1584C126.606 47.6895 126.267 49.0785 125.589 50.3253C124.932 51.5502 124.025 52.5235 122.865 53.2454C121.728 53.9672 120.448 54.3281 119.027 54.3281ZM110.594 60.562V38.2512H114.204V42.4837L113.58 46.3225L114.204 50.1284V60.562H110.594ZM118.436 50.9159C119.311 50.9159 120.077 50.719 120.733 50.3253C121.411 49.9097 121.936 49.341 122.308 48.6192C122.701 47.8973 122.898 47.0662 122.898 46.1256C122.898 45.185 122.701 44.3539 122.308 43.632C121.936 42.9102 121.411 42.3524 120.733 41.9587C120.077 41.5431 119.311 41.3353 118.436 41.3353C117.561 41.3353 116.785 41.5431 116.107 41.9587C115.428 42.3524 114.904 42.9102 114.532 43.632C114.16 44.3539 113.974 45.185 113.974 46.1256C113.974 47.0662 114.16 47.8973 114.532 48.6192C114.904 49.341 115.428 49.9097 116.107 50.3253C116.785 50.719 117.561 50.9159 118.436 50.9159ZM136.845 54.3281C135.314 54.3281 133.925 53.9672 132.678 53.2454C131.431 52.5017 130.436 51.5064 129.692 50.2597C128.971 49.0129 128.61 47.6239 128.61 46.0928C128.61 44.5617 128.971 43.1836 129.692 41.9587C130.436 40.7338 131.431 39.7605 132.678 39.0386C133.925 38.2949 135.314 37.9231 136.845 37.9231C138.398 37.9231 139.798 38.284 141.045 39.0058C142.292 39.7276 143.276 40.7119 143.998 41.9587C144.741 43.1836 145.113 44.5617 145.113 46.0928C145.113 47.6239 144.741 49.0129 143.998 50.2597C143.276 51.5064 142.292 52.5017 141.045 53.2454C139.798 53.9672 138.398 54.3281 136.845 54.3281ZM136.845 50.8502C137.742 50.8502 138.529 50.6534 139.207 50.2597C139.907 49.8441 140.443 49.2754 140.815 48.5535C141.209 47.8317 141.406 47.0115 141.406 46.0928C141.406 45.1741 141.209 44.3648 140.815 43.6648C140.421 42.9649 139.885 42.4181 139.207 42.0243C138.529 41.6088 137.742 41.401 136.845 41.401C135.97 41.401 135.183 41.6088 134.483 42.0243C133.805 42.4181 133.269 42.9649 132.875 43.6648C132.503 44.3648 132.317 45.1741 132.317 46.0928C132.317 47.0115 132.503 47.8317 132.875 48.5535C133.269 49.2754 133.805 49.8441 134.483 50.2597C135.183 50.6534 135.97 50.8502 136.845 50.8502ZM148.147 54V38.2512H151.756V54H148.147ZM149.952 35.3639C149.339 35.3639 148.825 35.1561 148.41 34.7405C148.016 34.3249 147.819 33.8109 147.819 33.1985C147.819 32.586 148.016 32.072 148.41 31.6564C148.825 31.2408 149.339 31.033 149.952 31.033C150.586 31.033 151.1 31.2408 151.494 31.6564C151.888 32.072 152.085 32.586 152.085 33.1985C152.085 33.8109 151.888 34.3249 151.494 34.7405C151.1 35.1561 150.586 35.3639 149.952 35.3639ZM163.121 54.3281C161.546 54.3281 160.124 53.9781 158.856 53.2782C157.609 52.5564 156.614 51.5721 155.87 50.3253C155.148 49.0785 154.787 47.6786 154.787 46.1256C154.787 44.5726 155.148 43.1836 155.87 41.9587C156.592 40.7119 157.565 39.7276 158.79 39.0058C160.037 38.284 161.415 37.9231 162.924 37.9231C164.39 37.9231 165.68 38.2621 166.796 38.9402C167.933 39.6183 168.819 40.5479 169.453 41.7291C170.11 42.9102 170.438 44.2554 170.438 45.7647C170.438 46.0272 170.416 46.3006 170.372 46.5849C170.35 46.8474 170.306 47.1427 170.241 47.4708H157.314V44.5179H168.371L167.025 45.6991C166.982 44.7366 166.796 43.9273 166.468 43.2711C166.14 42.6149 165.669 42.1118 165.057 41.7619C164.466 41.4119 163.733 41.2369 162.859 41.2369C161.94 41.2369 161.141 41.4338 160.463 41.8275C159.785 42.2212 159.26 42.779 158.888 43.5008C158.517 44.2007 158.331 45.0429 158.331 46.0272C158.331 47.0115 158.528 47.8755 158.921 48.6192C159.315 49.3629 159.873 49.9425 160.595 50.3581C161.316 50.7518 162.148 50.9487 163.088 50.9487C163.897 50.9487 164.641 50.8065 165.319 50.5221C166.019 50.2378 166.61 49.8222 167.091 49.2754L169.388 51.6049C168.622 52.5017 167.693 53.1797 166.599 53.6391C165.505 54.0984 164.346 54.3281 163.121 54.3281ZM187.117 54.3281C185.586 54.3281 184.197 53.9672 182.951 53.2454C181.704 52.5017 180.709 51.5064 179.965 50.2597C179.243 49.0129 178.882 47.6239 178.882 46.0928C178.882 44.5617 179.243 43.1836 179.965 41.9587C180.709 40.7338 181.704 39.7605 182.951 39.0386C184.197 38.2949 185.586 37.9231 187.117 37.9231C188.67 37.9231 190.07 38.284 191.317 39.0058C192.564 39.7276 193.548 40.7119 194.27 41.9587C195.014 43.1836 195.386 44.5617 195.386 46.0928C195.386 47.6239 195.014 49.0129 194.27 50.2597C193.548 51.5064 192.564 52.5017 191.317 53.2454C190.07 53.9672 188.67 54.3281 187.117 54.3281ZM187.117 50.8502C188.014 50.8502 188.802 50.6534 189.48 50.2597C190.18 49.8441 190.716 49.2754 191.087 48.5535C191.481 47.8317 191.678 47.0115 191.678 46.0928C191.678 45.1741 191.481 44.3648 191.087 43.6648C190.694 42.9649 190.158 42.4181 189.48 42.0243C188.802 41.6088 188.014 41.401 187.117 41.401C186.242 41.401 185.455 41.6088 184.755 42.0243C184.077 42.4181 183.541 42.9649 183.147 43.6648C182.776 44.3648 182.59 45.1741 182.59 46.0928C182.59 47.0115 182.776 47.8317 183.147 48.5535C183.541 49.2754 184.077 49.8441 184.755 50.2597C185.455 50.6534 186.242 50.8502 187.117 50.8502ZM208.039 45.3382V42.0572H213.781C214.569 42.0572 215.258 41.904 215.848 41.5978C216.461 41.2697 216.942 40.8213 217.292 40.2526C217.642 39.662 217.817 38.973 217.817 38.1856C217.817 37.3981 217.642 36.7201 217.292 36.1514C216.942 35.5608 216.461 35.1124 215.848 34.8061C215.258 34.478 214.569 34.314 213.781 34.314H208.039V31.033H213.978C215.422 31.033 216.712 31.3283 217.85 31.9189C219.009 32.5094 219.917 33.3406 220.573 34.4124C221.251 35.4842 221.59 36.7419 221.59 38.1856C221.59 39.6292 221.251 40.8869 220.573 41.9587C219.917 43.0305 219.009 43.8617 217.85 44.4523C216.712 45.0429 215.422 45.3382 213.978 45.3382H208.039ZM205.447 54V31.033H209.221V54H205.447ZM231.174 54.3281C229.643 54.3281 228.254 53.9672 227.007 53.2454C225.76 52.5017 224.765 51.5064 224.021 50.2597C223.299 49.0129 222.938 47.6239 222.938 46.0928C222.938 44.5617 223.299 43.1836 224.021 41.9587C224.765 40.7338 225.76 39.7605 227.007 39.0386C228.254 38.2949 229.643 37.9231 231.174 37.9231C232.727 37.9231 234.127 38.284 235.373 39.0058C236.62 39.7276 237.605 40.7119 238.326 41.9587C239.07 43.1836 239.442 44.5617 239.442 46.0928C239.442 47.6239 239.07 49.0129 238.326 50.2597C237.605 51.5064 236.62 52.5017 235.373 53.2454C234.127 53.9672 232.727 54.3281 231.174 54.3281ZM231.174 50.8502C232.071 50.8502 232.858 50.6534 233.536 50.2597C234.236 49.8441 234.772 49.2754 235.144 48.5535C235.538 47.8317 235.734 47.0115 235.734 46.0928C235.734 45.1741 235.538 44.3648 235.144 43.6648C234.75 42.9649 234.214 42.4181 233.536 42.0243C232.858 41.6088 232.071 41.401 231.174 41.401C230.299 41.401 229.511 41.6088 228.811 42.0243C228.133 42.4181 227.598 42.9649 227.204 43.6648C226.832 44.3648 226.646 45.1741 226.646 46.0928C226.646 47.0115 226.832 47.8317 227.204 48.5535C227.598 49.2754 228.133 49.8441 228.811 50.2597C229.511 50.6534 230.299 50.8502 231.174 50.8502ZM242.443 54V38.2512H246.052V54H242.443ZM246.052 45.2397L244.806 44.6163C244.806 42.6259 245.243 41.0182 246.118 39.7933C247.015 38.5465 248.36 37.9231 250.154 37.9231C250.941 37.9231 251.652 38.0653 252.286 38.3496C252.921 38.634 253.511 39.0933 254.058 39.7276L251.696 42.1556C251.411 41.8494 251.094 41.6306 250.744 41.4994C250.394 41.3681 249.99 41.3025 249.53 41.3025C248.524 41.3025 247.693 41.6197 247.037 42.254C246.38 42.8883 246.052 43.8836 246.052 45.2397ZM258.232 54V31.6892H261.841V54H258.232ZM254.458 41.5322V38.2512H265.614V41.5322H254.458ZM274.383 54.3281C272.961 54.3281 271.67 53.9672 270.511 53.2454C269.374 52.5235 268.466 51.5502 267.788 50.3253C267.131 49.0785 266.803 47.6895 266.803 46.1584C266.803 44.6054 267.131 43.2164 267.788 41.9915C268.466 40.7448 269.374 39.7605 270.511 39.0386C271.67 38.2949 272.961 37.9231 274.383 37.9231C275.586 37.9231 276.646 38.1856 277.565 38.7105C278.506 39.2136 279.249 39.9136 279.796 40.8104C280.343 41.7072 280.616 42.7243 280.616 43.8617V48.3895C280.616 49.5269 280.343 50.544 279.796 51.4408C279.271 52.3376 278.538 53.0485 277.598 53.5735C276.657 54.0766 275.586 54.3281 274.383 54.3281ZM274.973 50.9159C276.307 50.9159 277.379 50.4675 278.188 49.5706C279.02 48.6738 279.435 47.5255 279.435 46.1256C279.435 45.185 279.249 44.3539 278.877 43.632C278.506 42.9102 277.981 42.3524 277.303 41.9587C276.646 41.5431 275.87 41.3353 274.973 41.3353C274.098 41.3353 273.322 41.5431 272.644 41.9587C271.987 42.3524 271.462 42.9102 271.069 43.632C270.697 44.3539 270.511 45.185 270.511 46.1256C270.511 47.0662 270.697 47.8973 271.069 48.6192C271.462 49.341 271.987 49.9097 272.644 50.3253C273.322 50.719 274.098 50.9159 274.973 50.9159ZM279.206 54V49.7675L279.829 45.9287L279.206 42.1228V38.2512H282.815V54H279.206ZM286.82 54V30.3768H290.429V54H286.82Z" fill="white"/>
<g filter="url(#filter1_d_6053_12386)">
<rect x="48.1006" y="83" width="274.505" height="48" rx="12" fill="white" shape-rendering="crispEdges"/>
<rect x="48.6006" y="83.5" width="273.505" height="47" rx="11.5" stroke="#5994A9" shape-rendering="crispEdges"/>
<path d="M107.063 113V101.19H109.348V113H107.063ZM108.743 108.162V106.129H114.69V108.162H108.743ZM108.743 103.206V101.19H114.976V103.206H108.743ZM121.614 113.168C120.875 113.168 120.208 112.983 119.615 112.614C119.021 112.244 118.556 111.74 118.22 111.102C117.884 110.463 117.716 109.746 117.716 108.951C117.716 108.145 117.884 107.422 118.22 106.784C118.556 106.146 119.021 105.642 119.615 105.272C120.208 104.902 120.875 104.718 121.614 104.718C122.196 104.718 122.717 104.835 123.176 105.07C123.635 105.306 123.999 105.636 124.268 106.062C124.548 106.476 124.699 106.946 124.722 107.473V110.396C124.699 110.934 124.548 111.41 124.268 111.824C123.999 112.238 123.635 112.569 123.176 112.815C122.717 113.05 122.196 113.168 121.614 113.168ZM122.017 111.135C122.633 111.135 123.131 110.934 123.512 110.53C123.893 110.116 124.083 109.584 124.083 108.934C124.083 108.509 123.994 108.134 123.815 107.809C123.647 107.473 123.406 107.215 123.092 107.036C122.79 106.846 122.431 106.75 122.017 106.75C121.614 106.75 121.255 106.846 120.942 107.036C120.639 107.215 120.399 107.473 120.219 107.809C120.051 108.134 119.967 108.509 119.967 108.934C119.967 109.371 120.051 109.758 120.219 110.094C120.399 110.418 120.639 110.676 120.942 110.866C121.255 111.046 121.614 111.135 122.017 111.135ZM123.966 113V110.816L124.319 108.834L123.966 106.885V104.886H126.15V113H123.966ZM133.607 113.168C132.778 113.168 132.034 112.983 131.373 112.614C130.712 112.244 130.191 111.74 129.81 111.102C129.43 110.463 129.239 109.746 129.239 108.951C129.239 108.145 129.43 107.422 129.81 106.784C130.191 106.146 130.712 105.642 131.373 105.272C132.045 104.891 132.79 104.701 133.607 104.701C134.246 104.701 134.834 104.818 135.371 105.054C135.909 105.289 136.374 105.625 136.766 106.062L135.354 107.49C135.142 107.254 134.884 107.075 134.582 106.952C134.29 106.829 133.966 106.767 133.607 106.767C133.204 106.767 132.84 106.862 132.515 107.053C132.202 107.232 131.95 107.484 131.759 107.809C131.58 108.122 131.49 108.498 131.49 108.934C131.49 109.36 131.58 109.741 131.759 110.077C131.95 110.402 132.202 110.659 132.515 110.85C132.84 111.029 133.204 111.118 133.607 111.118C133.977 111.118 134.307 111.057 134.598 110.934C134.901 110.799 135.158 110.609 135.371 110.362L136.799 111.79C136.385 112.238 135.909 112.58 135.371 112.815C134.834 113.05 134.246 113.168 133.607 113.168ZM133.019 116.562C132.594 116.562 132.224 116.511 131.91 116.41C131.597 116.31 131.283 116.164 130.97 115.974L131.759 114.982C131.894 115.083 132.045 115.167 132.213 115.234C132.392 115.302 132.599 115.335 132.834 115.335C133.092 115.335 133.277 115.296 133.389 115.218C133.512 115.15 133.574 115.066 133.574 114.966C133.574 114.842 133.512 114.736 133.389 114.646C133.277 114.568 133.092 114.529 132.834 114.529H132.129L132.683 112.782H134.078L133.658 113.991L132.952 113.437C133.669 113.426 134.234 113.566 134.649 113.857C135.074 114.159 135.287 114.54 135.287 114.999C135.287 115.447 135.08 115.817 134.666 116.108C134.251 116.41 133.702 116.562 133.019 116.562ZM143.119 113.168C142.38 113.168 141.713 112.983 141.12 112.614C140.526 112.244 140.061 111.74 139.725 111.102C139.389 110.463 139.221 109.746 139.221 108.951C139.221 108.145 139.389 107.422 139.725 106.784C140.061 106.146 140.526 105.642 141.12 105.272C141.713 104.902 142.38 104.718 143.119 104.718C143.701 104.718 144.222 104.835 144.681 105.07C145.141 105.306 145.505 105.636 145.773 106.062C146.053 106.476 146.205 106.946 146.227 107.473V110.396C146.205 110.934 146.053 111.41 145.773 111.824C145.505 112.238 145.141 112.569 144.681 112.815C144.222 113.05 143.701 113.168 143.119 113.168ZM143.522 111.135C144.138 111.135 144.637 110.934 145.017 110.53C145.398 110.116 145.589 109.584 145.589 108.934C145.589 108.509 145.499 108.134 145.32 107.809C145.152 107.473 144.911 107.215 144.597 107.036C144.295 106.846 143.937 106.75 143.522 106.75C143.119 106.75 142.761 106.846 142.447 107.036C142.145 107.215 141.904 107.473 141.725 107.809C141.557 108.134 141.473 108.509 141.473 108.934C141.473 109.371 141.557 109.758 141.725 110.094C141.904 110.418 142.145 110.676 142.447 110.866C142.761 111.046 143.119 111.135 143.522 111.135ZM145.471 113V110.816L145.824 108.834L145.471 106.885V104.886H147.655V113H145.471ZM159.704 113.168C158.987 113.168 158.349 113.017 157.789 112.714C157.24 112.412 156.809 111.992 156.495 111.454C156.182 110.917 156.025 110.295 156.025 109.59V104.886H158.242V109.539C158.242 109.875 158.298 110.166 158.41 110.413C158.522 110.648 158.69 110.827 158.914 110.95C159.138 111.074 159.402 111.135 159.704 111.135C160.163 111.135 160.522 110.995 160.779 110.715C161.037 110.435 161.166 110.043 161.166 109.539V104.886H163.366V109.59C163.366 110.306 163.21 110.934 162.896 111.471C162.594 112.009 162.162 112.429 161.602 112.731C161.054 113.022 160.421 113.168 159.704 113.168ZM166.799 113V104.886H169V113H166.799ZM172.091 113V108.212C172.091 107.742 171.94 107.378 171.637 107.12C171.346 106.851 170.982 106.717 170.545 106.717C170.254 106.717 169.991 106.778 169.756 106.902C169.521 107.014 169.336 107.182 169.201 107.406C169.067 107.63 169 107.898 169 108.212L168.143 107.792C168.143 107.165 168.277 106.622 168.546 106.162C168.826 105.703 169.201 105.35 169.672 105.104C170.142 104.846 170.674 104.718 171.268 104.718C171.828 104.718 172.337 104.846 172.797 105.104C173.256 105.35 173.62 105.703 173.889 106.162C174.157 106.61 174.292 107.154 174.292 107.792V113H172.091ZM177.383 113V108.212C177.383 107.742 177.232 107.378 176.929 107.12C176.638 106.851 176.274 106.717 175.837 106.717C175.557 106.717 175.294 106.778 175.048 106.902C174.813 107.014 174.628 107.182 174.493 107.406C174.359 107.63 174.292 107.898 174.292 108.212L173.032 107.91C173.077 107.26 173.25 106.7 173.553 106.23C173.855 105.748 174.253 105.378 174.745 105.121C175.238 104.852 175.787 104.718 176.392 104.718C176.997 104.718 177.54 104.846 178.021 105.104C178.503 105.35 178.884 105.709 179.164 106.179C179.444 106.65 179.584 107.21 179.584 107.859V113H177.383ZM186.441 113.168C185.702 113.168 185.036 112.983 184.442 112.614C183.849 112.244 183.384 111.74 183.048 111.102C182.712 110.463 182.544 109.746 182.544 108.951C182.544 108.145 182.712 107.422 183.048 106.784C183.384 106.146 183.849 105.642 184.442 105.272C185.036 104.902 185.702 104.718 186.441 104.718C187.024 104.718 187.545 104.835 188.004 105.07C188.463 105.306 188.827 105.636 189.096 106.062C189.376 106.476 189.527 106.946 189.549 107.473V110.396C189.527 110.934 189.376 111.41 189.096 111.824C188.827 112.238 188.463 112.569 188.004 112.815C187.545 113.05 187.024 113.168 186.441 113.168ZM186.845 111.135C187.461 111.135 187.959 110.934 188.34 110.53C188.721 110.116 188.911 109.584 188.911 108.934C188.911 108.509 188.821 108.134 188.642 107.809C188.474 107.473 188.233 107.215 187.92 107.036C187.617 106.846 187.259 106.75 186.845 106.75C186.441 106.75 186.083 106.846 185.769 107.036C185.467 107.215 185.226 107.473 185.047 107.809C184.879 108.134 184.795 108.509 184.795 108.934C184.795 109.371 184.879 109.758 185.047 110.094C185.226 110.418 185.467 110.676 185.769 110.866C186.083 111.046 186.441 111.135 186.845 111.135ZM188.793 113V110.816L189.146 108.834L188.793 106.885V104.886H190.977V113H188.793ZM202.993 113.168C202.242 113.168 201.57 112.983 200.977 112.614C200.383 112.244 199.913 111.74 199.566 111.102C199.23 110.463 199.062 109.746 199.062 108.951C199.062 108.145 199.23 107.422 199.566 106.784C199.913 106.146 200.378 105.642 200.96 105.272C201.554 104.902 202.231 104.718 202.993 104.718C203.575 104.718 204.096 104.835 204.555 105.07C205.026 105.306 205.401 105.636 205.681 106.062C205.972 106.476 206.129 106.946 206.151 107.473V110.362C206.129 110.889 205.978 111.365 205.698 111.79C205.418 112.216 205.042 112.552 204.572 112.798C204.102 113.045 203.575 113.168 202.993 113.168ZM203.362 111.135C203.777 111.135 204.135 111.046 204.438 110.866C204.751 110.676 204.992 110.418 205.16 110.094C205.339 109.758 205.429 109.371 205.429 108.934C205.429 108.509 205.339 108.134 205.16 107.809C204.992 107.473 204.751 107.215 204.438 107.036C204.135 106.846 203.782 106.75 203.379 106.75C202.965 106.75 202.601 106.846 202.287 107.036C201.985 107.226 201.744 107.484 201.565 107.809C201.397 108.134 201.313 108.509 201.313 108.934C201.313 109.371 201.397 109.758 201.565 110.094C201.744 110.418 201.99 110.676 202.304 110.866C202.618 111.046 202.97 111.135 203.362 111.135ZM207.495 113H205.311V110.816L205.664 108.834L205.294 106.885V100.854H207.495V113ZM214.936 113.168C214.118 113.168 213.379 112.983 212.718 112.614C212.069 112.233 211.548 111.723 211.156 111.085C210.775 110.435 210.585 109.713 210.585 108.918C210.585 108.122 210.775 107.411 211.156 106.784C211.537 106.146 212.057 105.642 212.718 105.272C213.379 104.891 214.113 104.701 214.919 104.701C215.748 104.701 216.487 104.891 217.137 105.272C217.797 105.642 218.318 106.146 218.699 106.784C219.08 107.411 219.27 108.122 219.27 108.918C219.27 109.713 219.08 110.435 218.699 111.085C218.318 111.723 217.797 112.233 217.137 112.614C216.487 112.983 215.753 113.168 214.936 113.168ZM214.919 111.118C215.333 111.118 215.697 111.029 216.011 110.85C216.336 110.659 216.582 110.402 216.75 110.077C216.929 109.741 217.019 109.36 217.019 108.934C217.019 108.509 216.929 108.134 216.75 107.809C216.571 107.484 216.325 107.232 216.011 107.053C215.697 106.862 215.333 106.767 214.919 106.767C214.516 106.767 214.157 106.862 213.844 107.053C213.53 107.232 213.284 107.484 213.105 107.809C212.925 108.134 212.836 108.509 212.836 108.934C212.836 109.36 212.925 109.741 213.105 110.077C213.284 110.402 213.53 110.659 213.844 110.85C214.157 111.029 214.516 111.118 214.919 111.118ZM225.761 113.168C225.021 113.168 224.355 112.983 223.761 112.614C223.168 112.244 222.703 111.74 222.367 111.102C222.031 110.463 221.863 109.746 221.863 108.951C221.863 108.145 222.031 107.422 222.367 106.784C222.703 106.146 223.168 105.642 223.761 105.272C224.355 104.902 225.021 104.718 225.761 104.718C226.343 104.718 226.864 104.835 227.323 105.07C227.782 105.306 228.146 105.636 228.415 106.062C228.695 106.476 228.846 106.946 228.869 107.473V110.396C228.846 110.934 228.695 111.41 228.415 111.824C228.146 112.238 227.782 112.569 227.323 112.815C226.864 113.05 226.343 113.168 225.761 113.168ZM226.164 111.135C226.78 111.135 227.278 110.934 227.659 110.53C228.04 110.116 228.23 109.584 228.23 108.934C228.23 108.509 228.141 108.134 227.961 107.809C227.793 107.473 227.553 107.215 227.239 107.036C226.937 106.846 226.578 106.75 226.164 106.75C225.761 106.75 225.402 106.846 225.089 107.036C224.786 107.215 224.545 107.473 224.366 107.809C224.198 108.134 224.114 108.509 224.114 108.934C224.114 109.371 224.198 109.758 224.366 110.094C224.545 110.418 224.786 110.676 225.089 110.866C225.402 111.046 225.761 111.135 226.164 111.135ZM228.113 113V110.816L228.465 108.834L228.113 106.885V104.886H230.297V113H228.113ZM237.754 113.168C236.925 113.168 236.18 112.983 235.52 112.614C234.859 112.244 234.338 111.74 233.957 111.102C233.576 110.463 233.386 109.746 233.386 108.951C233.386 108.145 233.576 107.422 233.957 106.784C234.338 106.146 234.859 105.642 235.52 105.272C236.192 104.891 236.936 104.701 237.754 104.701C238.392 104.701 238.98 104.818 239.518 105.054C240.056 105.289 240.52 105.625 240.912 106.062L239.501 107.49C239.288 107.254 239.031 107.075 238.728 106.952C238.437 106.829 238.112 106.767 237.754 106.767C237.351 106.767 236.987 106.862 236.662 107.053C236.348 107.232 236.096 107.484 235.906 107.809C235.727 108.122 235.637 108.498 235.637 108.934C235.637 109.36 235.727 109.741 235.906 110.077C236.096 110.402 236.348 110.659 236.662 110.85C236.987 111.029 237.351 111.118 237.754 111.118C238.124 111.118 238.454 111.057 238.745 110.934C239.048 110.799 239.305 110.609 239.518 110.362L240.946 111.79C240.532 112.238 240.056 112.58 239.518 112.815C238.98 113.05 238.392 113.168 237.754 113.168ZM237.166 116.562C236.74 116.562 236.371 116.511 236.057 116.41C235.744 116.31 235.43 116.164 235.116 115.974L235.906 114.982C236.04 115.083 236.192 115.167 236.36 115.234C236.539 115.302 236.746 115.335 236.981 115.335C237.239 115.335 237.424 115.296 237.536 115.218C237.659 115.15 237.72 115.066 237.72 114.966C237.72 114.842 237.659 114.736 237.536 114.646C237.424 114.568 237.239 114.529 236.981 114.529H236.276L236.83 112.782H238.224L237.804 113.991L237.099 113.437C237.816 113.426 238.381 113.566 238.796 113.857C239.221 114.159 239.434 114.54 239.434 114.999C239.434 115.447 239.227 115.817 238.812 116.108C238.398 116.41 237.849 116.562 237.166 116.562ZM247.266 113.168C246.527 113.168 245.86 112.983 245.267 112.614C244.673 112.244 244.208 111.74 243.872 111.102C243.536 110.463 243.368 109.746 243.368 108.951C243.368 108.145 243.536 107.422 243.872 106.784C244.208 106.146 244.673 105.642 245.267 105.272C245.86 104.902 246.527 104.718 247.266 104.718C247.848 104.718 248.369 104.835 248.828 105.07C249.288 105.306 249.652 105.636 249.92 106.062C250.2 106.476 250.352 106.946 250.374 107.473V110.396C250.352 110.934 250.2 111.41 249.92 111.824C249.652 112.238 249.288 112.569 248.828 112.815C248.369 113.05 247.848 113.168 247.266 113.168ZM247.669 111.135C248.285 111.135 248.784 110.934 249.164 110.53C249.545 110.116 249.736 109.584 249.736 108.934C249.736 108.509 249.646 108.134 249.467 107.809C249.299 107.473 249.058 107.215 248.744 107.036C248.442 106.846 248.084 106.75 247.669 106.75C247.266 106.75 246.908 106.846 246.594 107.036C246.292 107.215 246.051 107.473 245.872 107.809C245.704 108.134 245.62 108.509 245.62 108.934C245.62 109.371 245.704 109.758 245.872 110.094C246.051 110.418 246.292 110.676 246.594 110.866C246.908 111.046 247.266 111.135 247.669 111.135ZM249.618 113V110.816L249.971 108.834L249.618 106.885V104.886H251.802V113H249.618ZM249.097 103.844C248.728 103.844 248.414 103.777 248.156 103.642C247.899 103.508 247.658 103.379 247.434 103.256C247.21 103.133 246.969 103.071 246.712 103.071C246.443 103.071 246.219 103.122 246.04 103.222C245.872 103.323 245.709 103.48 245.552 103.693L244.444 102.584C244.768 102.158 245.099 101.834 245.435 101.61C245.782 101.386 246.185 101.274 246.644 101.274C247.014 101.274 247.328 101.341 247.585 101.475C247.843 101.598 248.084 101.727 248.308 101.862C248.532 101.985 248.772 102.046 249.03 102.046C249.31 102.046 249.534 101.996 249.702 101.895C249.881 101.783 250.044 101.626 250.189 101.425L251.298 102.517C250.973 102.942 250.637 103.273 250.29 103.508C249.954 103.732 249.556 103.844 249.097 103.844ZM259.243 113.168C258.425 113.168 257.686 112.983 257.025 112.614C256.375 112.233 255.855 111.723 255.463 111.085C255.082 110.435 254.891 109.713 254.891 108.918C254.891 108.122 255.082 107.411 255.463 106.784C255.843 106.146 256.364 105.642 257.025 105.272C257.686 104.891 258.419 104.701 259.226 104.701C260.055 104.701 260.794 104.891 261.443 105.272C262.104 105.642 262.625 106.146 263.006 106.784C263.387 107.411 263.577 108.122 263.577 108.918C263.577 109.713 263.387 110.435 263.006 111.085C262.625 111.723 262.104 112.233 261.443 112.614C260.794 112.983 260.06 113.168 259.243 113.168ZM259.226 111.118C259.64 111.118 260.004 111.029 260.318 110.85C260.643 110.659 260.889 110.402 261.057 110.077C261.236 109.741 261.326 109.36 261.326 108.934C261.326 108.509 261.236 108.134 261.057 107.809C260.878 107.484 260.631 107.232 260.318 107.053C260.004 106.862 259.64 106.767 259.226 106.767C258.823 106.767 258.464 106.862 258.151 107.053C257.837 107.232 257.591 107.484 257.411 107.809C257.232 108.134 257.143 108.509 257.143 108.934C257.143 109.36 257.232 109.741 257.411 110.077C257.591 110.402 257.837 110.659 258.151 110.85C258.464 111.029 258.823 111.118 259.226 111.118Z" fill="#5994A9"/>
</g>
<defs>
<filter id="filter0_d_6053_12386" x="0" y="0" width="387" height="185" filterUnits="userSpaceOnUse" color-interpolation-filters="sRGB">
<feFlood flood-opacity="0" result="BackgroundImageFix"/>
<feColorMatrix in="SourceAlpha" type="matrix" values="0 0 0 0 0 0 0 0 0 0 0 0 0 0 0 0 0 0 127 0" result="hardAlpha"/>
<feOffset dx="4" dy="4"/>
<feGaussianBlur stdDeviation="2"/>
<feComposite in2="hardAlpha" operator="out"/>
<feColorMatrix type="matrix" values="0 0 0 0 0 0 0 0 0 0 0 0 0 0 0 0 0 0 0.25 0"/>
<feBlend mode="normal" in2="BackgroundImageFix" result="effect1_dropShadow_6053_12386"/>
<feBlend mode="normal" in="SourceGraphic" in2="effect1_dropShadow_6053_12386" result="shape"/>
</filter>
<filter id="filter1_d_6053_12386" x="44.1006" y="83" width="282.505" height="56" filterUnits="userSpaceOnUse" color-interpolation-filters="sRGB">
<feFlood flood-opacity="0" result="BackgroundImageFix"/>
<feColorMatrix in="SourceAlpha" type="matrix" values="0 0 0 0 0 0 0 0 0 0 0 0 0 0 0 0 0 0 127 0" result="hardAlpha"/>
<feOffset dy="4"/>
<feGaussianBlur stdDeviation="2"/>
<feComposite in2="hardAlpha" operator="out"/>
<feColorMatrix type="matrix" values="0 0 0 0 0 0 0 0 0 0 0 0 0 0 0 0 0 0 0.25 0"/>
<feBlend mode="normal" in2="BackgroundImageFix" result="effect1_dropShadow_6053_12386"/>
<feBlend mode="normal" in="SourceGraphic" in2="effect1_dropShadow_6053_12386" result="shape"/>
</filter>
</defs>
</svg>
