<svg width="83" height="83" viewBox="0 0 83 83" fill="none" xmlns="http://www.w3.org/2000/svg">
<path d="M19.4505 2.07808C19.4788 2.02832 19.9038 2.24017 20.1658 2.48329C20.4293 2.725 21.1021 2.934 21.4307 2.87855C21.7593 2.8231 21.8471 3.1103 22.1431 3.0321C22.4392 2.95533 22.3513 2.57429 22.5482 2.70509C22.7451 2.83447 22.9321 2.9994 23.0737 3.26385C23.2182 3.52688 23.7111 3.71598 23.7763 3.34063C23.8414 2.9667 23.5567 2.68092 23.8967 2.6141C24.2366 2.54869 24.5001 2.47618 24.6743 2.36386C24.8499 2.25154 24.8612 2.42642 25.2012 2.41647C25.5411 2.40652 26.0666 1.91031 26.2323 2.07524C26.3966 2.24017 26.3187 1.59041 26.5383 1.65723C26.7578 1.72264 26.6813 1.316 26.9434 1.49088C27.2068 1.66861 27.4802 1.75676 27.6672 1.38283C27.8527 1.00748 28.3357 1.30463 28.3683 0.777147C28.4009 0.248242 27.9306 0.137342 28.2153 0.0605656C28.5 -0.0162107 28.5114 0.236867 28.8612 0.0605656C29.2125 -0.115736 29.551 0.116015 29.585 0.457244C29.619 0.798474 29.4745 1.27193 29.323 1.53638C29.1686 1.80083 29.4972 1.44681 29.8485 1.61316C30.1997 1.77809 30.1884 1.83354 30.2097 2.22879C30.2323 2.62547 30.8343 2.57144 30.5935 2.97807C30.3527 3.38471 29.7932 3.38471 29.9037 3.62783C30.0128 3.86954 30.0014 4.22072 29.881 4.43114C29.7606 4.64014 29.619 5.05815 29.6615 5.42071C29.7054 5.78468 29.6289 6.1515 29.9363 6.28373C30.2422 6.41596 30.4264 6.69463 30.2932 7.06856C30.1615 7.44249 30.2422 7.47235 30.4618 7.64154C30.6813 7.81073 30.8924 7.8022 31.0609 8.11073C31.2295 8.41926 31.7111 8.28561 31.9674 8.59556C32.2224 8.90266 32.1572 8.72636 32.4632 8.59556C32.7705 8.46333 32.9094 8.43347 33.0198 8.1548C33.1289 7.87613 33.3045 7.68561 33.4873 7.81073C33.67 7.93443 33.6246 7.85338 33.881 7.70694C34.1374 7.5605 34.2252 7.5605 34.5609 7.55339C34.898 7.54486 34.9632 7.27472 35.1388 7.12685C35.3144 6.98041 35.5793 6.85245 36.0085 7.01737C36.4362 7.1823 36.2054 7.39273 36.6331 7.13823C37.0595 6.88515 37.5637 7.13823 37.7946 7.22638C38.0241 7.31453 38.7153 7.54486 38.2776 6.89652C37.8385 6.24676 37.8597 6.37899 38.0241 6.09321C38.1898 5.80601 38.0807 5.55435 38.4192 5.76336C38.7592 5.97236 39.0765 6.08184 39.3512 5.99369C39.6246 5.90554 39.9419 5.60838 40.2167 5.71928C40.49 5.82876 40.973 6.20269 41.2917 6.36762C41.609 6.53397 41.7294 6.73159 42.1897 6.47709C42.6501 6.22544 43.6798 6.12591 43.9334 6.37899C44.1841 6.63207 44.3597 6.84107 44.6557 6.48989C44.9518 6.13729 45.1047 6.29084 45.4447 5.45341C45.7846 4.61882 45.752 4.9046 46.1246 4.26621C46.4971 3.62783 46.5084 3.56101 46.9914 2.86718C47.473 2.17334 47.5934 1.81079 47.5821 1.74538C47.5722 1.67856 48.3498 1.97571 48.4489 2.98945C48.5466 4.00176 48.4815 4.50792 48.8101 5.10223C49.1387 5.69653 49.0622 6.48989 49.3243 6.56667C49.5891 6.64202 49.8838 6.64202 50.235 7.1823C50.5849 7.72258 51.2761 7.37993 51.1444 7.92021C51.0126 8.45907 50.49 9.31498 50.592 9.76995C50.6954 10.2249 50.4319 10.5463 50.7832 10.5463C51.133 10.5463 51.2945 10.3572 51.6741 10.7226C52.0537 11.0894 52.7109 11.6766 53.2095 11.6624C53.7067 11.6481 54.4659 11.6766 54.1146 12.1031C53.7647 12.5282 54.4361 12.5282 54.8752 12.5282C55.3129 12.5282 55.2987 12.0889 55.752 12.4401C56.2038 12.7927 56.3214 12.1472 56.7449 12.4401C57.1698 12.7344 57.3001 12.7628 57.6811 12.9093C58.0607 13.0571 59.1132 13.2917 59.8582 13.6145C60.6032 13.9372 60.3837 13.8348 60.5891 14.2159C60.793 14.5969 60.7647 14.142 61.1287 14.2159C61.4956 14.2898 61.9332 14.378 62.1684 14.9211C62.4007 15.4642 62.2689 16.3585 62.81 16.387C63.3511 16.4168 63.9913 16.4609 64.2434 15.9889C64.4941 15.514 64.3964 15.9107 64.6485 16.0983C64.9007 16.2846 65.6783 16.5945 65.9516 16.6827C66.2264 16.7694 66.4346 17.0779 67.2236 16.9343C68.0125 16.7922 68.1768 17.0893 68.6811 17.2429C69.1853 17.3964 70.7165 17.1362 71.14 17.122C71.5635 17.1078 72.5139 17.2983 72.7051 17.5912C72.8935 17.8855 73.3723 18.0903 73.6357 18.2339C73.8992 18.376 74.2391 18.8509 74.6329 18.9376C75.0281 19.0258 75.0819 19.1139 75.521 19.6429C75.9601 20.1703 76.4204 20.3253 76.7051 20.5556C76.9898 20.7874 76.7589 20.931 77.1314 21.0191C77.504 21.1059 77.5479 21.1499 77.8439 21.5793C78.1399 22.0087 78.4686 21.5466 78.7221 21.7898C78.9742 22.0315 79.8212 22.1992 80.2887 22.067C80.7561 21.9362 81.1229 21.4073 81.6484 22.3613C82.1739 23.3153 82.4374 23.9466 82.5549 24.5338C82.6711 25.1196 82.4076 25.3115 82.7008 25.8106C82.9926 26.3096 83.0365 26.1617 82.977 27.1598C82.9189 28.1594 82.1952 30.1982 80.9246 31.6285C79.6527 33.0603 80.113 33.1484 79.3906 33.5223C78.6654 33.8977 78.5139 33.8977 77.8991 35.1517C77.2858 36.4057 75.8156 38.6294 74.9176 38.9152C74.0196 39.2024 74.1074 39.6062 74.1074 40.3839C74.1074 41.1616 73.6102 41.9834 73.7561 42.2479C73.902 42.5123 74.7207 44.4857 74.1286 45.6516C73.5366 46.8189 73.4488 48.6601 73.6244 48.8961C73.8 49.1307 72.9516 49.1307 72.8071 49.7321C72.6612 50.3336 72.8354 51.5222 72.5876 52.3155C72.3383 53.1075 71.9148 52.6966 71.8128 53.2838C71.7094 53.871 71.038 55.0013 70.2335 55.543C69.4304 56.0861 69.6202 56.6008 69.7519 57.1283C69.8836 57.6572 69.9417 58.024 69.3865 58.2586C68.8312 58.4932 67.8964 58.7733 67.7788 59.3889C67.6627 60.006 67.7505 60.1368 67.2519 60.0202C66.7562 59.9036 66.0097 60.0842 65.5281 60.0586C65.0465 60.0344 65.674 59.4031 65.3086 59.4188C64.9446 59.433 65.4403 59.8382 65.1924 60.0614C64.9446 60.2847 64.4616 59.8681 64.3893 60.0614C64.3157 60.2548 63.3369 59.7828 63.1457 60.1283C62.9559 60.4752 61.9474 59.888 62.1089 60.2989C62.2689 60.7098 62.606 61.0041 61.8157 60.9458C61.0267 60.8861 61.378 60.9742 61.0862 61.1363C60.793 61.297 60.4134 61.0766 60.4276 61.341C60.4418 61.6055 60.9545 62.0463 60.6188 62.0306C60.2817 62.0164 60.0919 61.5913 59.7845 61.6638C59.4786 61.7377 59.0395 61.5316 59.0253 61.6936C59.0098 61.8543 58.776 62.2439 58.4616 62.1927C58.1486 62.1401 57.9659 62.3093 57.878 62.3974C57.7902 62.4856 57.286 62.6178 56.9786 63.087C56.6727 63.5562 56.2916 63.4396 56.1599 63.6159C56.0296 63.7922 55.2548 64.1732 55.2392 64.4974C55.2251 64.8187 54.9035 64.9367 54.6854 65.0107C54.4659 65.0832 54.6557 65.2154 54.4659 65.4657C54.2761 65.7145 53.2166 66.2434 53.6401 66.6457C54.0636 67.0495 53.8087 66.94 53.6826 67.3296C53.5594 67.7178 53.4135 67.9083 53.5367 68.1002C53.6613 68.2907 53.8951 69.3827 53.6911 69.8021C53.4857 70.2201 53.9036 70.6609 53.6104 71.2324C53.3186 71.8054 54.0849 71.7016 52.7846 72.2447C51.4843 72.7879 50.7973 74.5196 50.5636 75.0343C50.3299 75.5475 48.3271 78.438 47.0268 78.8788C45.7266 79.3195 45.5212 80.6887 45.4348 81.0186C45.347 81.3484 44.558 82.3494 43.7251 82.8783C42.8909 83.4072 43.3512 82.0636 43.0878 81.6897C42.8257 81.3157 43.9433 80.9631 44.0198 80.7328C44.0977 80.5011 43.8342 80.5565 43.5268 80.3248C43.2195 80.093 43.0339 79.3451 42.9022 79.2243C42.7705 79.1034 42.3654 79.1475 42.0807 78.9598C41.796 78.7736 41.4447 78.4537 41.3243 78.1892C41.2039 77.9248 40.6543 78.2006 40.4362 78.0129C40.2167 77.8267 40.1175 77.7385 39.8442 77.7058C39.5708 77.6717 39.3512 77.1869 39.143 76.8798C38.9348 76.5712 38.8357 77.275 38.4419 77.2651C38.0467 77.2537 38.0467 77.1442 37.9688 76.7916C37.8923 76.439 36.5453 75.2618 36.4022 75.2504C36.2606 75.239 35.8328 75.03 35.6133 75.5376C35.3952 76.0423 34.9122 75.4708 34.7918 75.3385C34.67 75.2063 34.9787 75.4267 35.153 75.1182C35.3286 74.8096 35.4277 74.6234 35.7663 74.3803C36.1062 74.1386 36.6331 73.5329 36.6331 73.5329C36.6331 73.5329 36.7903 73.0097 37.1331 72.876C37.4759 72.7438 37.4405 72.2888 37.7691 72.1793C38.0977 72.0699 38.6175 71.5708 38.711 71.3646C38.8073 71.1599 38.9022 70.9168 39.1643 70.8514C39.4277 70.7846 40.534 70.4519 40.6218 70.0879C40.7096 69.7253 41.1713 69.714 41.5538 69.4936C41.9376 69.2746 42.5835 68.8438 42.7591 68.6348C42.9348 68.4258 42.8795 68.2723 42.8795 68.0078C42.8795 67.7434 43.2195 67.1931 43.0438 66.8846C42.8696 66.5775 43.0226 65.8837 42.7152 65.7074C42.4093 65.5311 42.058 65.4657 41.7294 65.5638C41.3994 65.6633 40.8753 65.7074 41.0283 65.3121C41.1813 64.9154 41.9999 63.3813 41.6784 62.5439C41.3569 61.7079 40.7422 61.9567 40.3923 62.0463C40.041 62.1344 39.1784 62.3534 39.2223 61.6197C39.2663 60.8861 39.2082 60.461 38.8867 60.2548C38.5651 60.0501 39.1784 59.3449 38.8725 59.096C38.5651 58.8458 38.4773 58.3468 38.0835 58.5529C37.6884 58.7577 37.3385 57.9515 37.1331 58.0695C36.9292 58.1861 36.9575 58.6269 36.1827 58.479C35.4093 58.3325 34.9263 58.3325 34.6926 58.2145C34.4589 58.0979 33.6402 58.3766 33.8456 57.906C34.0496 57.4382 34.211 55.2942 33.8371 54.6999C33.4646 54.1056 33.728 54.0615 34.0127 53.6435C34.2974 53.2255 33.3994 53.4672 33.772 52.7407C34.1445 52.0141 35.3074 50.6279 34.8017 49.725C34.2974 48.8222 34.3414 48.0729 33.9249 48.2506C33.5085 48.4269 32.5878 47.6336 32.9179 46.5331C33.2465 45.4327 32.8074 46.1364 31.5793 45.9829C30.3527 45.8279 29.0383 45.6744 29.0383 45.6744C29.0383 45.6744 29.4094 44.9478 28.7961 44.1118C28.1813 43.2744 28.7734 43.5388 28.949 43.0554C29.1247 42.5706 28.6204 41.6237 28.6643 41.3592C28.7082 41.0962 28.8612 40.5232 28.051 40.2147C27.2394 39.9076 27.306 39.818 26.823 39.9289C26.34 40.0384 25.9023 40.3683 25.4207 39.6858C24.9377 39.0048 25.0256 39.1142 24.4774 39.0929C23.9292 39.0702 23.3598 38.146 23.0539 38.2114C22.7451 38.2782 22.1757 37.9484 22.0666 37.7706C21.9562 37.5943 21.5185 37.8147 21.2777 37.8602C21.0369 37.9043 20.3117 37.7266 20.1148 37.2872C19.9179 36.8465 18.9817 37.0669 18.9534 36.582C18.9236 36.0986 18.2806 35.5413 18.2522 35.2029C18.2225 34.8645 18.4576 34.8204 18.34 34.1166C18.2225 33.4129 18.4279 33.0304 18.442 32.4731C18.4576 31.9157 18.1927 31.6228 17.9307 31.9299C17.6672 32.2385 17.1262 31.7835 16.7607 32.0181C16.3967 32.2527 14.0129 32.8399 13.7806 33.3972C13.5469 33.956 13.02 33.4129 12.6545 33.9261C12.2891 34.4408 11.2962 35.0422 11.0908 34.8503C10.8868 34.6598 9.14747 34.3811 8.6064 34.5574C8.06674 34.7337 7.11632 35.1005 7.26221 33.5152C7.4081 31.9299 7.81745 30.7555 6.95485 31.5347C6.09366 32.311 6.06392 32.4574 5.33305 32.5029C4.60217 32.5456 3.84297 32.5896 3.84297 32.2968C3.84297 32.0039 3.74099 31.2844 3.09793 31.2844C2.45488 31.2844 1.79624 31.2404 1.70984 31.1963C1.62061 31.1522 2.4393 30.7854 2.16168 30.1982C1.88406 29.611 1.37273 29.392 1.40106 29.2157C1.43081 29.038 1.03704 29.112 1.02146 28.8631C1.0073 28.6129 0.933641 28.5105 0.699932 28.1878C0.466222 27.865 0.84724 27.865 0.699932 27.703C0.55404 27.5423 -0.380798 26.911 0.174439 26.7489C0.729677 26.5883 0.218348 26.0594 0.495967 25.8546C0.773586 25.6485 2.04412 25.2532 1.86848 24.7826C1.69426 24.3134 1.88406 23.7845 2.08802 23.3736C2.29341 22.9641 2.42513 22.4935 2.35856 22.2078C2.29341 21.9206 2.68717 22.0315 3.25799 21.612C3.82739 21.194 4.44212 20.6225 5.07667 20.6452C5.71265 20.6651 6.56817 20.6651 6.69989 20.3353C6.83162 20.0054 7.62057 19.8305 7.97042 20.1817C8.32169 20.5343 8.62906 21.1727 8.82594 19.7865C9.02282 18.3988 9.952 14.0979 9.81885 13.7168C9.68854 13.3358 9.19846 13.0116 9.30894 12.7557C9.41659 12.4984 9.08798 12.2638 8.7537 11.9183C8.41659 11.5742 8.1758 10.1581 8.40101 10.0188C8.62906 9.87943 9.2282 9.99744 9.34435 9.79128C9.46191 9.58512 10.1843 10.151 10.2282 9.64484C10.2721 9.13868 9.97324 8.77897 9.58514 8.8529C9.19846 8.92541 8.75937 9.19697 8.75937 8.77186C8.75937 8.34532 8.4605 7.55339 9.08798 7.53064C9.71687 7.50931 12.0044 7.63443 12.2353 7.44675C12.4647 7.25908 12.2239 6.89652 12.4973 7.08278C12.7721 7.27045 13.4066 7.1823 13.6489 6.75292C13.8896 6.32354 14.0979 6.42307 14.2296 6.91785C14.3613 7.41263 14.7777 7.15955 14.6234 8.40362C14.4704 9.64768 14.7777 8.26144 15.0624 8.51452C15.3471 8.76617 15.6984 9.60361 16.2466 9.5709C16.7947 9.5382 17.2763 8.81167 17.714 9.13015C18.1531 9.45005 17.5058 9.51688 17.8471 9.70313C18.1857 9.89081 18.2961 9.54816 18.7664 9.042C19.2381 8.53726 20.2465 7.64438 20.3882 7.93158C20.5312 8.21736 20.9052 7.76666 21.0142 7.31453C21.1233 6.86382 21.4533 7.12685 21.7734 6.86382C22.0964 6.59937 22.5921 6.98041 22.578 6.4515C22.5624 5.92402 22.1984 6.02639 21.8471 6.1444C21.4958 6.2624 20.7366 6.15861 20.9987 5.74772C21.2635 5.33682 20.7508 5.11787 20.663 4.67711C20.5766 4.23636 21.1899 3.91361 20.6786 3.51693C20.1658 3.12025 19.34 2.27287 19.4505 2.07808Z" fill="#FFBB4F"/>
</svg>
