<svg width="142" height="141" viewBox="0 0 142 141" fill="none" xmlns="http://www.w3.org/2000/svg">
<g opacity="0.7">
<g clip-path="url(#clip0_7637_13869)">
<path d="M138.842 -38.7758C138.835 -39.1219 138.828 -39.468 138.822 -39.8142C138.813 -40.289 138.801 -40.7638 138.788 -41.2386C138.782 -41.5074 138.776 -41.7763 138.769 -42.0533C138.75 -42.284 138.725 -42.506 138.694 -42.723C138.529 -43.8674 137.579 -44.715 136.444 -44.9372C135.828 -45.0579 135.212 -45.1785 134.595 -45.299C134.176 -45.3811 133.756 -45.4633 133.336 -45.5457C132.731 -45.6645 132.126 -45.7828 131.52 -45.901C131.334 -45.9376 131.148 -45.9742 130.957 -46.0119C124.666 -47.2378 118.496 -46.1884 112.217 -45.3047C110.369 -45.0454 108.52 -44.7932 106.671 -44.5408C106.035 -44.4532 105.399 -44.3639 104.763 -44.2741C103.321 -44.0731 101.882 -43.9039 100.439 -43.7754C98.9033 -43.6385 97.552 -44.746 97.3375 -46.2734C96.8316 -49.8756 96.3935 -53.4906 95.9675 -57.1091C95.9193 -57.517 95.8712 -57.925 95.8231 -58.333C95.6252 -60.0115 95.4276 -61.6901 95.2322 -63.369C95.1107 -64.4118 94.9879 -65.4545 94.8642 -66.4969C94.8179 -66.89 94.772 -67.2832 94.7267 -67.6765C94.6638 -68.2211 94.5993 -68.7654 94.5343 -69.3097C94.4982 -69.6182 94.4621 -69.9268 94.4249 -70.2447C94.3627 -70.626 94.3035 -70.9467 94.2102 -71.2557C94.0543 -71.772 93.6661 -72.1956 93.1674 -72.4008C93.0525 -72.4481 92.9079 -72.5038 92.7008 -72.5836C92.5708 -72.6339 92.4408 -72.6841 92.3068 -72.7359C90.0049 -73.6013 87.6599 -74.298 85.3277 -75.0278C84.83 -75.1847 84.3323 -75.3416 83.8347 -75.4986C81.5087 -76.2318 81.5087 -76.2318 80.5056 -76.5424C80.1759 -76.6461 79.8469 -76.7529 79.5191 -76.8653C75.737 -78.1374 71.4919 -76.81 67.7049 -76.0605C66.498 -75.8219 65.2906 -75.5878 64.0826 -75.3577C63.6677 -75.2778 63.2532 -75.1946 62.8387 -75.1112C62.1402 -74.9766 61.4532 -74.876 60.7665 -74.8101C59.1947 -74.6592 57.9267 -75.961 57.9604 -77.5396C58.0196 -80.3084 58.2462 -83.0576 58.4687 -85.8284C58.5415 -86.742 58.6137 -87.6556 58.6847 -88.5694C58.7286 -89.1333 58.7734 -89.6972 58.8195 -90.2609C59.1813 -94.8884 59.2169 -95.3443 58.4477 -96.5541C58.2652 -96.841 58.0329 -97.0992 57.7392 -97.2705C56.8791 -97.7723 56.1532 -97.7205 55.1382 -97.4787C54.19 -97.1962 53.2514 -96.876 52.3123 -96.5516C52.0484 -96.4619 51.7845 -96.3722 51.5206 -96.2826C50.2902 -95.8626 49.0666 -95.427 47.8547 -94.9324C44.4946 -93.5627 41.2764 -94.1138 37.8656 -94.9015C36.2208 -95.2795 34.611 -95.6004 32.9345 -95.6246C32.7251 -95.6313 32.7251 -95.6313 32.5115 -95.6382C30.1075 -95.6045 27.6773 -94.3745 25.4293 -93.4303C22.7818 -92.3201 20.1188 -91.2785 17.4424 -90.2784C17.2844 -90.2191 17.1264 -90.1599 16.9637 -90.0988C16.5147 -89.9306 16.0655 -89.7634 15.6162 -89.5966C15.4836 -89.547 15.351 -89.4974 15.2144 -89.4464C14.2002 -89.0726 13.2222 -89.8985 13.3816 -90.9675C13.5762 -92.273 13.8552 -93.5532 14.137 -94.852C14.2089 -95.188 14.2806 -95.5241 14.3523 -95.8602C14.4229 -96.1905 14.4936 -96.5208 14.5644 -96.851C14.5989 -97.0122 14.6333 -97.1734 14.6688 -97.3395C14.8235 -98.0576 14.9836 -98.7721 15.1567 -99.4838C15.2121 -99.7125 15.2674 -99.9413 15.3245 -100.177C15.3975 -100.465 15.3975 -100.465 15.472 -100.758C15.5691 -101.394 15.5856 -101.944 15.5817 -102.589C15.5807 -102.789 15.5798 -102.99 15.5788 -103.196C15.5768 -103.453 15.3687 -103.66 15.1123 -103.66C10.788 -103.668 6.46373 -103.672 2.13947 -103.675C1.88268 -103.675 1.88268 -103.675 1.62071 -103.675C-11.9033 -103.683 -25.4264 -103.611 -38.9501 -103.504C-39.5055 -103.5 -40.061 -103.496 -40.6165 -103.491C-42.1664 -103.479 -43.7163 -103.467 -45.2662 -103.454C-47.0474 -103.439 -48.8285 -103.425 -50.6096 -103.415C-50.8962 -103.413 -51.1828 -103.411 -51.4694 -103.409C-52.3216 -103.404 -53.1738 -103.399 -54.026 -103.397C-54.4066 -103.395 -54.7872 -103.393 -55.1678 -103.39C-58.1765 -103.385 -61.242 -103.524 -64.2075 -104.169C-65.1958 -104.382 -66.1321 -104.463 -67.1336 -104.432C-67.2767 -104.43 -67.4198 -104.427 -67.5672 -104.425C-68.1972 -104.415 -68.7764 -104.041 -68.9783 -103.444C-69.2013 -102.786 -69.3307 -102.138 -69.401 -101.337C-69.4292 -101.027 -69.4575 -100.716 -69.4866 -100.396C-69.5148 -100.057 -69.5429 -99.7177 -69.5708 -99.3783C-69.6015 -99.019 -69.6323 -98.6598 -69.6632 -98.3006C-69.7278 -97.5416 -69.7904 -96.7825 -69.8519 -96.0231C-69.9131 -95.2695 -69.9774 -94.5164 -70.0451 -93.7636C-71.2084 -80.7991 -70.5169 -67.674 -70.2673 -54.663C-70.2151 -51.9423 -70.1639 -49.2215 -70.1128 -46.5007C-70.106 -46.1383 -70.1061 -46.1383 -70.0991 -45.7686C-70.0116 -41.107 -69.9252 -36.4454 -69.8407 -31.7837C-69.8235 -30.8314 -69.8062 -29.8791 -69.7885 -28.9268C-69.4941 -13.0018 -69.5269 2.9021 -69.9496 18.8222C-69.9878 20.2617 -70.0247 21.7013 -70.0609 23.1409C-70.3699 35.4249 -70.7117 47.7075 -71.0559 59.99C-71.087 61.1001 -71.118 62.2103 -71.1491 63.3204C-71.2114 65.5465 -71.2738 67.7726 -71.3363 69.9986C-71.3414 70.1827 -71.3466 70.3667 -71.3519 70.5564C-71.4814 75.1716 -71.612 79.7867 -71.7445 84.4017C-71.8254 87.218 -71.9055 90.0343 -71.9851 92.8506C-72.0316 94.4937 -72.0785 96.1368 -72.1265 97.7798C-72.4631 109.33 -72.4631 109.33 -72.4893 113.666C-72.4925 114.153 -72.4982 114.641 -72.5039 115.129C-72.504 115.552 -72.504 115.552 -72.504 115.984C-72.5049 116.223 -72.5058 116.461 -72.5067 116.707C-72.45 117.201 -72.3436 117.57 -72.178 117.935C-71.9755 118.382 -71.6147 118.756 -71.1409 118.882C-69.7421 119.253 -67.9146 118.655 -66.6282 118.408C-66.3897 118.364 -66.1512 118.32 -65.9055 118.275C-65.1497 118.136 -64.3943 117.994 -63.639 117.852C-62.6423 117.664 -61.6454 117.479 -60.6483 117.296C-60.3101 117.231 -60.3101 117.231 -59.9651 117.164C-57.9165 116.747 -57.8346 116.73 -55.9462 116.956C-55.7837 116.976 -55.6223 117.01 -55.4639 117.052C-51.8993 117.985 -47.5082 116.843 -43.9145 116.477C-43.0245 116.387 -42.1344 116.3 -41.2442 116.212C-39.7526 116.064 -38.261 115.915 -36.7695 115.764C-35.0527 115.591 -33.3358 115.42 -31.6187 115.25C-29.7769 115.068 -27.9352 114.885 -26.0936 114.7C-25.5682 114.648 -25.0428 114.596 -24.5175 114.544C-23.6889 114.462 -22.8605 114.378 -22.0321 114.294C-21.7306 114.264 -21.4291 114.234 -21.1275 114.204C-14.3018 113.53 -14.3018 113.53 -11.6227 110.321C-6.9798 105.056 -1.834 101.628 4.5052 101.304C4.96347 101.28 5.42151 101.253 5.87961 101.225C7.01918 101.156 8.15897 101.092 9.29878 101.029C15.3486 100.694 21.2406 100.039 27.1691 98.4294C28.6162 98.0386 30.0647 97.6655 31.5215 97.3324C31.6905 97.2934 31.8595 97.2545 32.0336 97.2143C36.7161 96.1914 41.5459 96.4812 46.2827 96.4828C47.5175 96.4832 48.7521 96.4798 49.9867 96.4708C50.5593 96.4681 51.1316 96.4711 51.7041 96.4742C52.0556 96.472 52.4071 96.4695 52.7585 96.4667C52.9932 96.4703 52.9932 96.4703 53.2327 96.474C54.4025 96.4553 55.4196 96.1016 56.2818 95.1666C56.4428 94.9921 56.5669 94.7871 56.6615 94.5693C57.1034 93.5508 57.3608 92.577 57.4792 91.3923C57.5018 91.1947 57.5244 90.9971 57.5477 90.7935C57.8725 87.8494 58.1141 84.8909 58.3657 81.9362C58.4572 80.8616 58.5506 79.7872 58.6444 78.7128C58.6758 78.3537 58.7071 77.9946 58.7384 77.6355C58.7538 77.4591 58.7692 77.2827 58.7851 77.101C58.9598 75.0983 59.1336 73.0955 59.3057 71.0925C59.3918 70.0931 59.4802 69.0941 59.5712 68.0953C59.6149 67.6099 59.6557 67.124 59.6964 66.6381C60.0933 62.3466 61.3897 58.8772 64.0898 56.0434C66.1064 54.192 68.3581 53.4138 70.8385 53.1549C71.2018 53.1123 71.2018 53.1123 71.5724 53.0687C74.2413 52.7692 76.9169 52.5924 79.593 52.4243C81.1242 52.3281 82.6551 52.2238 84.1859 52.1187C84.343 52.108 84.5001 52.0972 84.6619 52.0861C88.1958 51.8429 91.7259 51.5406 95.2556 51.2203C95.7088 51.1792 96.162 51.1385 96.6152 51.0978C97.4575 51.022 98.2997 50.9448 99.1419 50.8672C99.391 50.8445 99.6402 50.8219 99.8968 50.7986C100.241 50.7662 100.241 50.7662 100.593 50.7332C100.791 50.7148 100.99 50.6964 101.194 50.6774C102.285 50.5439 103.121 49.6608 103.258 48.571C103.412 47.3524 103.492 46.1347 103.538 44.8749C103.556 44.4445 103.556 44.4445 103.574 44.0054C103.599 43.392 103.623 42.7786 103.647 42.1651C103.684 41.204 103.723 40.243 103.762 39.2821C103.883 36.3128 103.995 33.3433 104.094 30.3728C104.118 29.6688 104.142 28.9649 104.166 28.2609C104.188 27.616 104.206 26.971 104.224 26.326C104.299 22.9707 104.305 22.73 105.503 20.3078C105.699 19.9112 105.978 19.5551 106.345 19.3071C107.156 18.758 107.933 18.4452 108.904 18.2087C109.072 18.1653 109.24 18.122 109.413 18.0773C109.979 17.9318 110.547 17.7907 111.114 17.6496C111.524 17.5454 111.933 17.441 112.342 17.3364C113.795 16.9667 115.249 16.6045 116.703 16.2435C116.918 16.19 116.918 16.19 117.138 16.1355C118.074 15.9032 119.01 15.6711 119.946 15.4391C120.272 15.3584 120.598 15.2776 120.923 15.1968C122.546 14.7945 124.17 14.3926 125.793 13.9947C129.166 13.168 132.526 12.2967 135.88 11.3695C137.093 11.0341 137.962 9.97046 138.043 8.71458C138.284 4.98839 138.421 1.2644 138.504 -2.47712C138.516 -3.00256 138.528 -3.52799 138.541 -4.05341C139.088 -27.2522 139.088 -27.2522 138.842 -38.7758Z" fill="#FFBB4E"/>
</g>
</g>
<defs>
<clipPath id="clip0_7637_13869">
<rect width="141" height="142" rx="10" transform="matrix(0 -1 -1 0 142 141)" fill="white"/>
</clipPath>
</defs>
</svg>
