<svg width="72" height="72" viewBox="0 0 72 72" fill="none" xmlns="http://www.w3.org/2000/svg">
<path d="M45 13.5H27L20.25 3.51562C19.2656 2.10938 20.3906 0 22.0781 0H49.7812C51.4688 0 52.5938 2.10938 51.6094 3.51562L45 13.5ZM27 18H45C45.4219 18.4219 46.125 18.8438 46.8281 19.2656C54.7031 24.3281 72 35.2969 72 58.5C72 65.9531 65.9531 72 58.5 72H13.5C6.04688 72 0 65.9531 0 58.5C0 35.2969 17.1562 24.3281 25.1719 19.2656C25.7344 18.8438 26.4375 18.4219 27 18ZM38.8125 30.375C38.8125 28.8281 37.5469 27.5625 36 27.5625C34.4531 27.5625 33.1875 28.8281 33.1875 30.375V32.3438C32.0625 32.625 30.9375 33.0469 29.9531 33.6094C27.9844 34.7344 26.2969 36.8438 26.4375 39.7969C26.4375 42.6094 28.125 44.4375 29.8125 45.5625C31.3594 46.4062 33.3281 46.9688 34.875 47.5312H35.1562C36.8438 48.0938 38.1094 48.5156 39.0938 49.0781C39.7969 49.5 39.7969 49.7812 39.7969 50.2031C39.9375 50.9062 39.6562 51.3281 39.0938 51.6094C38.3906 52.1719 37.2656 52.3125 36 52.3125C34.4531 52.3125 33.0469 51.75 31.0781 51.1875C30.7969 51.0469 30.375 50.9062 30.0938 50.7656C28.5469 50.3438 27 51.0469 26.5781 52.5938C26.0156 54 26.8594 55.6875 28.2656 56.1094C28.5469 56.25 28.8281 56.25 29.1094 56.3906C30.375 56.8125 31.6406 57.2344 33.0469 57.6562V59.625C33.0469 61.1719 34.3125 62.4375 35.8594 62.4375C37.4062 62.4375 38.6719 61.1719 38.6719 59.625V57.7969C39.7969 57.5156 40.9219 57.0938 42.0469 56.5312C44.0156 55.2656 45.5625 53.1562 45.4219 50.2031C45.4219 47.25 43.875 45.4219 42.0469 44.2969C40.3594 43.3125 38.3906 42.6094 36.8438 42.1875H36.7031C34.875 41.625 33.6094 41.2031 32.7656 40.6406C32.0625 40.2188 31.9219 39.9375 31.9219 39.7969C31.9219 39.2344 32.2031 38.8125 32.9062 38.3906C33.6094 37.9688 34.7344 37.6875 35.8594 37.6875C37.2656 37.6875 38.6719 38.1094 40.2188 38.5312C41.7656 38.8125 43.3125 37.9688 43.7344 36.4219C44.1562 35.0156 43.1719 33.4688 41.7656 33.0469C40.7812 32.7656 39.7969 32.4844 38.8125 32.3438V30.375Z" fill="#FFBB4F"/>
</svg>
