<svg width="20" height="16" viewBox="0 0 20 16" fill="none" xmlns="http://www.w3.org/2000/svg">
<path d="M4 3C3.4375 3 3 3.46875 3 4V5.25L9.09375 9.75C9.625 10.125 10.3438 10.125 10.875 9.75L17 5.25V4C17 3.46875 16.5312 3 16 3H4ZM3 6.5V12C3 12.5625 3.4375 13 4 13H16C16.5312 13 17 12.5625 17 12V6.5L11.4688 10.5625C10.5938 11.1875 9.375 11.1875 8.5 10.5625L3 6.5ZM2 4C2 2.90625 2.875 2 4 2H16C17.0938 2 18 2.90625 18 4V12C18 13.125 17.0938 14 16 14H4C2.875 14 2 13.125 2 12V4Z" fill="#767676"/>
</svg>
