<svg width="10" height="8" viewBox="0 0 10 8" fill="none" xmlns="http://www.w3.org/2000/svg">
<path d="M1.25 1.125C0.898438 1.125 0.625 1.41797 0.625 1.75V2.53125L4.43359 5.34375C4.76562 5.57812 5.21484 5.57812 5.54688 5.34375L9.375 2.53125V1.75C9.375 1.41797 9.08203 1.125 8.75 1.125H1.25ZM0.625 3.3125V6.75C0.625 7.10156 0.898438 7.375 1.25 7.375H8.75C9.08203 7.375 9.375 7.10156 9.375 6.75V3.3125L5.91797 5.85156C5.37109 6.24219 4.60938 6.24219 4.0625 5.85156L0.625 3.3125ZM0 1.75C0 1.06641 0.546875 0.5 1.25 0.5H8.75C9.43359 0.5 10 1.06641 10 1.75V6.75C10 7.45312 9.43359 8 8.75 8H1.25C0.546875 8 0 7.45312 0 6.75V1.75Z" fill="#4C4C4C"/>
</svg>
