<svg width="76" height="72" viewBox="0 0 76 72" fill="none" xmlns="http://www.w3.org/2000/svg">
<path d="M38 72C25.0625 72 13.25 65.25 6.78125 54C0.3125 42.8906 0.3125 29.25 6.78125 18C13.25 6.89062 25.0625 0 38 0C50.7969 0 62.6094 6.89062 69.0781 18C75.5469 29.25 75.5469 42.8906 69.0781 54C62.6094 65.25 50.7969 72 38 72ZM38 18C36.0312 18 34.625 19.5469 34.625 21.375V37.125C34.625 39.0938 36.0312 40.5 38 40.5C39.8281 40.5 41.375 39.0938 41.375 37.125V21.375C41.375 19.5469 39.8281 18 38 18ZM33.5 49.5C33.5 52.0312 35.4688 54 38 54C40.3906 54 42.5 52.0312 42.5 49.5C42.5 47.1094 40.3906 45 38 45C35.4688 45 33.5 47.1094 33.5 49.5Z" fill="#FFBB4F"/>
</svg>
