<svg width="16" height="12" viewBox="0 0 16 12" fill="none" xmlns="http://www.w3.org/2000/svg">
<path d="M1.28125 0H9.6875C10.4062 0 11 0.59375 11 1.3125C11 1.625 10.875 1.9375 10.6562 2.1875L7.75 5.3125V11C7.75 11.5625 7.28125 12 6.71875 12C6.53125 12 6.3125 11.9688 6.15625 11.8438L3.8125 10.2812C3.4375 10.0625 3.25 9.65625 3.25 9.25V5.3125L0.34375 2.1875C0.09375 1.9375 0 1.625 0 1.3125C0 0.59375 0.5625 0 1.28125 0ZM4.53125 4.5C4.65625 4.65625 4.75 4.8125 4.75 5V9.125L6.25 10.0938V5C6.25 4.8125 6.3125 4.65625 6.4375 4.5L9.21875 1.5H1.75L4.53125 4.5ZM10.75 10.25H15.25C15.6562 10.25 16 10.5938 16 11C16 11.4375 15.6562 11.75 15.25 11.75H10.75C10.3125 11.75 10 11.4375 10 11C10 10.5938 10.3125 10.25 10.75 10.25ZM10 6C10 5.59375 10.3125 5.25 10.75 5.25H15.25C15.6562 5.25 16 5.59375 16 6C16 6.4375 15.6562 6.75 15.25 6.75H10.75C10.3125 6.75 10 6.4375 10 6ZM12.75 0.25H15.25C15.6562 0.25 16 0.59375 16 1C16 1.4375 15.6562 1.75 15.25 1.75H12.75C12.3125 1.75 12 1.4375 12 1C12 0.59375 12.3125 0.25 12.75 0.25Z" fill="#215068"/>
</svg>
