<svg width="65" height="64" viewBox="0 0 65 64" fill="none" xmlns="http://www.w3.org/2000/svg">
<path d="M33.375 0.375L62.5 16.75C63.75 17.5 64.5 18.75 64.5 20.125C64.5 22.25 62.75 24 60.5 24H32.5H4.375C2.25 24 0.5 22.25 0.5 20.125C0.5 18.75 1.25 17.5 2.375 16.75L31.5 0.375C32.125 0 32.875 0 33.375 0.375ZM38.75 20H60.125L32.5 4.375L4.75 20H26.125C25.625 19.125 25.5 18.125 25.5 17C25.5 13.25 28.625 10 32.5 10C36.25 10 39.5 13.25 39.5 17C39.5 18.125 39.25 19.125 38.75 20ZM32.5 14C30.75 14 29.5 15.375 29.5 17C29.5 18.75 30.75 20 32.5 20C34.125 20 35.5 18.75 35.5 17C35.5 15.375 34.125 14 32.5 14ZM8.5 44V28H12.5V44H22.5V28H26.5V44H38.5V28H42.5V44H52.5V28H56.5V44C57.5 44 58.5 45 58.5 46C58.5 47.125 57.5 48 56.5 48H8.5C7.375 48 6.5 47.125 6.5 46C6.5 45 7.375 44 8.5 44ZM5.5 52H59.5C60.5 52 61.5 53 61.5 54C61.5 55.125 60.5 56 59.5 56H5.5C4.375 56 3.5 55.125 3.5 54C3.5 53 4.375 52 5.5 52ZM2.5 60H62.5C63.5 60 64.5 61 64.5 62C64.5 63.125 63.5 64 62.5 64H2.5C1.375 64 0.5 63.125 0.5 62C0.5 61 1.375 60 2.5 60Z" fill="#215068"/>
</svg>
