<svg width="10" height="12" viewBox="0 0 10 12" fill="none" xmlns="http://www.w3.org/2000/svg">
<path d="M4.3125 0.614502C4.67773 0.614502 5 0.936768 5 1.302V3.70825H3.625V1.302C3.625 0.936768 3.92578 0.614502 4.3125 0.614502ZM1.5625 1.9895C1.5625 1.62427 1.86328 1.302 2.25 1.302C2.61523 1.302 2.9375 1.62427 2.9375 1.9895V3.70825H1.5625V1.9895ZM5.6875 1.9895C5.6875 1.62427 5.98828 1.302 6.375 1.302C6.74023 1.302 7.0625 1.62427 7.0625 1.9895V4.052C7.0625 4.43872 6.74023 4.7395 6.375 4.7395C5.98828 4.7395 5.6875 4.43872 5.6875 4.052V1.9895ZM7.75 3.3645C7.75 2.99927 8.05078 2.677 8.4375 2.677C8.80273 2.677 9.125 2.99927 9.125 3.3645V4.7395C9.125 5.12622 8.80273 5.427 8.4375 5.427C8.05078 5.427 7.75 5.12622 7.75 4.7395V3.3645ZM5.6875 5.25513C5.88086 5.36255 6.11719 5.427 6.375 5.427C6.6543 5.427 6.91211 5.34106 7.12695 5.21216C7.32031 5.74927 7.83594 6.1145 8.4375 6.1145C8.67383 6.1145 8.91016 6.05005 9.125 5.94263V6.1145C9.125 7.25317 8.56641 8.24146 7.75 8.8645V10.927C7.75 11.3137 7.42773 11.6145 7.0625 11.6145H3.625C3.23828 11.6145 2.9375 11.3137 2.9375 10.927V9.25122C2.55078 9.07935 2.20703 8.84302 1.92773 8.56372L1.66992 8.30591C1.1543 7.79028 0.875 7.0813 0.875 6.35083V5.77075C0.875 5.0188 1.47656 4.39575 2.25 4.39575H4.14062C4.61328 4.39575 5 4.78247 5 5.25513C5 5.74927 4.61328 6.1145 4.14062 6.1145H2.9375C2.74414 6.1145 2.59375 6.28638 2.59375 6.45825C2.59375 6.65161 2.74414 6.802 2.9375 6.802H4.14062C4.97852 6.802 5.6875 6.1145 5.6875 5.25513Z" fill="black"/>
</svg>
