<svg width="16" height="15" viewBox="0 0 16 15" fill="none" xmlns="http://www.w3.org/2000/svg">
<path d="M0 1.74242C0 1.23736 0.180185 0.820697 0.540541 0.492424C0.900896 0.164136 1.36937 0 1.94595 0C2.51223 0 2.97039 0.161606 3.32046 0.484848C3.68082 0.818182 3.861 1.25252 3.861 1.78788C3.861 2.27273 3.68598 2.67676 3.33591 3C2.97555 3.33333 2.50193 3.5 1.91506 3.5H1.89961C1.33333 3.5 0.875166 3.33333 0.525097 3C0.175027 2.66667 0 2.24747 0 1.74242ZM0.200772 15V4.87879H3.62934V15H0.200772ZM5.52896 15H8.95753V9.34848C8.95753 8.99494 8.99872 8.72221 9.08108 8.5303C9.22522 8.18686 9.44402 7.89645 9.73745 7.65909C10.0309 7.42171 10.399 7.30303 10.8417 7.30303C11.9949 7.30303 12.5714 8.06565 12.5714 9.59091V15H16V9.19697C16 7.70202 15.6396 6.56818 14.9189 5.79545C14.1982 5.02273 13.2458 4.63636 12.0618 4.63636C10.7336 4.63636 9.69884 5.19697 8.95753 6.31818V6.34848H8.94208L8.95753 6.31818V4.87879H5.52896C5.54954 5.20202 5.55985 6.20706 5.55985 7.89394C5.55985 9.5808 5.54954 11.9495 5.52896 15Z" fill="white"/>
</svg>
