<svg width="17" height="16" viewBox="0 0 17 16" fill="none" xmlns="http://www.w3.org/2000/svg">
<path fill-rule="evenodd" clip-rule="evenodd" d="M12.5196 2.62939C13.0516 2.62939 13.4833 3.0306 13.4833 3.52634C13.4833 4.02128 13.0516 4.42248 12.5196 4.42248C11.9871 4.42248 11.5557 4.02128 11.5557 3.52634C11.5557 3.0306 11.9871 2.62939 12.5196 2.62939Z" fill="white"/>
<path fill-rule="evenodd" clip-rule="evenodd" d="M12.4233 7.5156C12.4233 5.30013 10.4931 3.50439 8.11177 3.50439C5.73101 3.50439 3.80078 5.30013 3.80078 7.5156C3.80078 9.73108 5.73101 11.5271 8.11177 11.5271C10.4931 11.5271 12.4233 9.73108 12.4233 7.5156ZM7.61854 4.87642C8.54666 4.72203 9.35979 4.98553 9.95519 5.46008C10.4032 5.80805 10.7353 6.2797 10.891 6.82019C10.9112 6.88719 10.9283 6.95498 10.9428 7.02278C11.2803 8.64876 10.0078 9.95088 8.61695 10.185C6.87172 10.4787 5.4871 9.30657 5.23721 7.98195C4.98704 6.65415 5.78565 5.57687 6.86945 5.10019C7.03822 5.02498 7.21667 4.96461 7.40167 4.92065C7.47339 4.9037 7.54568 4.8886 7.61854 4.87642Z" fill="white"/>
<path fill-rule="evenodd" clip-rule="evenodd" d="M8.44302 0.000806533C7.97398 1.20601e-05 7.49555 -0.000517611 7.03278 0.000806533C5.50527 0.00424916 4.14854 0.019079 3.85767 0.0569481C1.76237 0.328917 0.0857291 1.87519 0.0259609 3.9768C-0.0019309 4.94895 -0.0261228 10.8716 0.0586911 11.4833C0.32594 13.4046 2.05495 14.918 4.28657 15.0099C4.67307 15.0258 5.88551 15.0372 7.26047 15.0401H8.52926C10.2958 15.0364 12.0024 15.0176 12.3464 14.9755C14.4369 14.7205 16.0896 13.1326 16.1656 11.0416C16.1813 10.6071 16.1944 9.20856 16.1952 7.72928V7.33523C16.1941 5.60172 16.1756 3.86504 16.1258 3.52396C15.8503 1.64056 14.1162 0.0704539 11.8831 0.0243754C11.4132 0.0148419 9.97735 0.00345469 8.44302 0.000806533ZM5.83713 1.30027C6.54809 1.29498 7.36008 1.29683 8.118 1.30027H11.7055C12.2215 1.30027 12.7093 1.42024 13.1374 1.63262C13.229 1.67579 13.3184 1.72531 13.4058 1.78171C13.4186 1.78992 13.4317 1.79787 13.4448 1.80687C13.5452 1.87122 13.6411 1.94087 13.7322 2.01634C14.1702 2.37014 14.557 2.86217 14.7044 3.55044C14.7505 3.74561 14.7745 3.94846 14.7745 4.15581V4.82686C14.7853 5.65469 14.781 6.77116 14.7745 7.75417V10.8729C14.7745 11.2199 14.7073 11.5525 14.5843 11.8607C14.5146 12.0554 14.4193 12.2442 14.2878 12.429C14.0063 12.8239 13.5868 13.2078 13.0261 13.4491C12.6254 13.6281 12.1777 13.7285 11.7055 13.7285H10.0781C9.57121 13.7311 9.02903 13.7306 8.5008 13.7285H4.46702C2.77899 13.7285 1.39807 12.4436 1.39807 10.8729V9.59387C1.39266 8.95698 1.39437 8.23694 1.39807 7.55847V4.15581C1.39807 2.5857 2.77899 1.30027 4.46702 1.30027H5.83713Z" fill="white"/>
</svg>
