<svg width="132" height="132" viewBox="0 0 132 132" fill="none" xmlns="http://www.w3.org/2000/svg">
<mask id="mask0_6699_13861" style="mask-type:luminance" maskUnits="userSpaceOnUse" x="0" y="80" width="132" height="52">
<path d="M0 80.6616H132V131.57H0V80.6616Z" fill="white"/>
</mask>
<g mask="url(#mask0_6699_13861)">
<path d="M80.5496 87.0237C88.6159 92.7096 99.327 93.1149 109.053 91.4399C113.171 90.73 117.5 89.5274 120.245 86.381C121.8 84.5985 122.908 82.1687 125.145 81.4051C128.547 80.2473 131.879 84.0856 131.937 87.6776C131.996 91.2159 130.034 94.5706 127.338 96.8637C124.641 99.1569 121.276 100.516 117.881 101.528C107.129 104.733 95.4461 104.751 84.6835 101.582C84.9567 110.932 85.2299 120.281 85.5054 129.631C85.521 130.233 85.4964 130.93 85.0217 131.301C84.6813 131.566 84.2155 131.572 83.7833 131.57C72.4742 131.469 61.1652 131.371 49.8562 131.27C49.3993 131.268 48.8954 131.245 48.5662 130.93C48.2057 130.589 48.1855 130.032 48.19 129.537C48.246 121.383 48.302 113.229 48.358 105.076C43.8859 107.682 38.4978 108.41 33.345 107.915C28.1898 107.42 23.2183 105.772 18.3991 103.88C12.9573 101.741 7.53795 99.2062 3.2965 95.1842C1.5923 93.5695 -0.00215814 91.3234 0.595765 89.0549C0.99662 87.5254 2.33355 86.3945 3.78245 85.7607C7.52899 84.1192 11.9294 85.2613 15.5774 87.1178C19.2232 88.9743 22.5331 91.5227 26.3871 92.891C33.4905 95.4148 42.0115 93.2896 47.0927 87.7269C48.3647 86.3362 50.4697 86.1974 52.3553 86.1548C59.4005 85.9958 66.448 85.8369 73.4932 85.6756C75.9319 85.6219 78.5565 85.6196 80.5496 87.0237Z" fill="white"/>
</g>
<path d="M59.123 77.3809C55.41 74.6869 53.0139 70.2148 52.9803 65.6307C52.9467 61.0489 55.3339 56.4827 59.1991 54.0149C62.1507 52.1293 65.8569 51.4933 69.2899 52.2009C72.7207 52.9064 75.8492 54.9285 77.9744 57.7121C80.4041 60.8988 81.5037 65.0932 80.8184 69.0413C80.1354 72.9872 77.6407 76.6083 74.1338 78.5476C69.4982 81.1095 63.4092 80.4892 59.123 77.3809Z" fill="white"/>
<mask id="mask1_6699_13861" style="mask-type:luminance" maskUnits="userSpaceOnUse" x="35" y="0" width="52" height="43">
<path d="M35.4636 0H86.4864V42.251H35.4636V0Z" fill="white"/>
</mask>
<g mask="url(#mask1_6699_13861)">
<path d="M49.5585 41.7831C49.0859 41.8592 48.5619 41.9242 48.1588 41.6666C47.8453 41.4651 47.6729 41.1068 47.5184 40.7686C43.6039 32.2499 39.6894 23.7312 35.7726 15.2124C35.6338 14.9079 35.4905 14.5585 35.6159 14.245C35.8017 13.7814 36.4198 13.7143 36.9192 13.721C43.9689 13.8173 51.0186 13.9136 58.066 14.0076C58.3459 14.0121 58.59 13.8307 58.8117 13.656C64.2804 9.34965 69.749 5.04102 75.2177 0.734623C75.67 0.378557 76.2926 0.00905329 76.7785 0.320332C77.0473 0.492767 77.1637 0.821961 77.2622 1.12652C80.1153 9.96325 82.966 18.8 85.819 27.6367C85.9243 27.9659 86.0296 28.3175 85.9288 28.6467C85.8034 29.0475 85.4115 29.2916 85.0465 29.5021C80.7065 32.0013 76.3665 34.5027 72.0265 37.0019C70.6045 37.8215 69.1399 38.6546 67.5208 38.9144C61.5326 39.8706 55.5444 40.8268 49.5585 41.7831ZM83.9402 27.4172C81.2529 19.1135 78.5656 10.8097 75.8783 2.50376C70.9964 6.24582 66.1525 10.0416 61.3512 13.8912C61.1273 14.0703 60.8877 14.2741 60.8317 14.554C60.7936 14.7534 60.8541 14.9571 60.9123 15.152C63.192 22.5711 65.4695 29.9903 67.7492 37.4073C73.0118 34.4064 78.2745 31.4056 83.5371 28.4026C83.7252 28.2951 83.9267 28.1719 83.9962 27.9659C84.0544 27.789 83.9962 27.5964 83.9402 27.4172ZM59.0872 15.9492C58.8699 15.7768 58.5676 15.7656 58.2899 15.7611C51.4709 15.6693 44.6541 15.5842 37.8351 15.5058C41.4764 23.4378 45.1177 31.3698 48.759 39.2996C48.8732 39.5481 49.0053 39.8169 49.2517 39.9333C49.4644 40.0341 49.7107 40.0005 49.9414 39.9647C55.0585 39.1719 60.1733 38.3792 65.2903 37.5864C65.4337 37.564 65.5927 37.5327 65.68 37.4162C65.783 37.2751 65.736 37.0803 65.6845 36.9146C63.6041 30.1448 61.5214 23.3751 59.441 16.6031C59.3671 16.3635 59.2842 16.106 59.0872 15.9492Z" fill="white"/>
</g>
<path d="M110.231 40.464C116.32 40.5536 122.409 40.6409 128.495 40.7283C128.975 40.735 129.523 40.7753 129.817 41.1515C130.063 41.4673 130.043 41.9085 130.009 42.3071C129.344 50.1965 128.681 58.086 128.016 65.9754C127.987 66.3181 127.944 66.692 127.703 66.9384C127.351 67.2922 126.769 67.2093 126.281 67.1019C125.255 66.8757 124.229 66.6495 123.204 66.4211C122.413 66.2464 121.869 67.2609 121.916 68.0693C121.963 68.8777 122.29 69.7175 121.988 70.4677C121.694 71.1933 120.877 71.5941 120.095 71.6255C119.314 71.6591 118.555 71.3926 117.818 71.1328C117.175 70.9044 116.671 71.7554 116.662 72.4361C116.653 73.1169 116.799 73.9097 116.313 74.3867C115.934 74.7607 115.337 74.7607 114.806 74.736C109.908 74.5098 105.013 74.2837 100.117 74.0575C99.1165 74.0127 98.0236 73.9925 97.2242 74.5972C96.9286 74.8211 96.4717 74.6308 96.2859 74.3105C96.1 73.9903 96.1067 73.5984 96.1201 73.2289C96.3799 66.1837 96.6374 59.1385 96.8972 52.0911C96.9129 51.679 96.951 51.2155 97.2622 50.9467C97.5377 50.7116 97.9318 50.7004 98.2946 50.7026C99.5957 50.7116 100.899 50.7205 102.202 50.7273C102.142 49.6479 102.261 48.5573 102.55 47.5137C102.637 47.2002 102.749 46.8777 102.982 46.6515C103.36 46.2843 103.947 46.2641 104.475 46.2686C105.978 46.2775 107.481 46.2865 108.983 46.2977C108.618 44.86 108.484 43.3641 108.587 41.8838C108.616 41.4852 108.679 41.053 108.968 40.7775C109.29 40.4707 109.785 40.4573 110.231 40.464ZM104.361 48.1945C104.225 48.302 104.155 48.4722 104.104 48.6356C103.9 49.2761 103.886 49.9771 104.063 50.6242C108.276 50.6825 112.488 50.7385 116.7 50.7944C117.065 50.7989 117.457 50.8124 117.746 51.0385C118.174 51.3722 118.176 52.0082 118.14 52.5524C117.786 57.8508 117.433 63.1493 117.081 68.4477C117.045 68.974 117.486 69.4376 117.986 69.61C118.485 69.7802 119.032 69.7264 119.556 69.6705C119.712 69.6548 119.88 69.6346 120.001 69.5339C120.165 69.3973 120.194 69.1599 120.21 68.9449C120.747 62.0968 121.282 55.2486 121.817 48.4005C121.829 48.2572 121.833 48.0937 121.735 47.9885C121.636 47.8877 121.479 47.8832 121.34 47.8854C115.892 47.9392 110.443 47.9929 104.993 48.0467C104.773 48.0489 104.534 48.0579 104.361 48.1945ZM123.394 46.0693C123.851 46.3873 123.862 47.0457 123.824 47.601C123.443 53.222 123.065 58.8407 122.684 64.4616C123.573 58.8451 123.869 53.1525 124.164 47.4734C124.198 46.8464 124.182 46.1118 123.678 45.7378C123.334 45.4803 122.868 45.4826 122.438 45.4938C118.729 45.608 115.019 45.7222 111.31 45.8364C115.025 45.8476 118.74 45.861 122.453 45.8745C122.778 45.8767 123.127 45.8834 123.394 46.0693ZM126.325 64.4549C126.843 57.4186 127.358 50.3824 127.875 43.3462C127.228 50.3354 126.578 57.3246 125.929 64.3138C125.918 64.4213 125.902 64.5377 125.821 64.6071C125.734 64.6788 125.609 64.6676 125.497 64.6542C124.749 64.5579 123.999 64.4616 123.251 64.3653C124.001 64.7527 124.832 64.9834 125.674 65.0371C125.846 65.0483 126.036 65.0461 126.164 64.9296C126.292 64.8154 126.312 64.6251 126.325 64.4549ZM127.147 42.578C121.961 42.5198 116.774 42.4638 111.59 42.4078C111.209 42.4034 110.784 42.419 110.524 42.6945C116.342 42.8154 122.162 42.896 127.983 42.9363C127.868 42.634 127.47 42.5803 127.147 42.578ZM110.609 43.1379C110.526 43.8948 110.537 44.6585 110.641 45.4131C110.665 45.5856 110.726 45.7961 110.898 45.8319C111.259 45.3012 110.661 44.598 110.77 43.9665C110.8 43.8052 110.876 43.6507 110.88 43.485C110.882 43.3215 110.773 43.1334 110.609 43.1379Z" fill="white"/>
<path d="M28.2011 74.3037C28.228 74.6687 27.9413 74.9957 27.6032 75.1368C27.2673 75.2779 26.891 75.2756 26.526 75.2801C22.5555 75.307 18.6231 76.0863 14.6526 76.1647C13.739 76.1826 12.7715 76.1467 12.0034 75.6541C12.4849 75.5063 12.9865 75.4369 13.4837 75.3585C17.9065 74.6755 22.2711 73.3161 26.7432 73.4572C27.3613 73.4774 28.1541 73.6879 28.2011 74.3037Z" fill="white"/>
<path d="M101.555 19.8725C102.059 19.3529 102.98 19.3148 103.526 19.7896C104.072 20.2666 104.158 21.1825 103.71 21.7536C103.233 22.3627 102.225 22.4567 101.64 21.9484C101.058 21.4378 101.016 20.4278 101.555 19.8725Z" fill="white"/>
<path d="M8.95778 77.3719C7.31853 76.8949 5.45758 75.9297 5.32993 74.23C5.27171 73.4305 5.21124 72.6333 5.15078 71.836C5.08807 70.9918 5.02537 70.1475 4.96491 69.3055C4.64243 64.8087 4.39386 60.3075 4.14528 55.8063C4.06018 54.2522 3.97509 52.698 3.88999 51.1461C3.8564 50.5325 3.82281 49.9122 3.95493 49.3142C4.40505 47.254 6.58176 46.0917 8.59948 45.4736C14.5339 43.6552 20.9409 44.1591 27.0276 45.3706C27.5718 45.4804 28.1675 45.6259 28.4899 46.0761C28.752 46.4433 28.7699 46.9248 28.7788 47.3749C28.9177 54.7627 29.0565 62.1506 29.1931 69.5384C29.2088 70.3065 29.1215 71.2471 28.4228 71.5718C28.116 71.7151 28.322 72.2078 28.1675 72.5101C28.0421 72.7542 27.7218 72.8035 27.4486 72.8236C21.7314 73.2536 16.0119 73.6813 10.2947 74.1113C10.2074 73.4865 11.0068 73.164 11.6294 73.0655C15.2976 72.472 18.9657 71.8808 22.6339 71.2896C17.5728 71.0164 12.458 71.8159 7.72386 73.6186C7.28046 73.7866 7.21776 74.4427 7.49544 74.8256C7.77089 75.2108 8.25013 75.3855 8.70249 75.5266C15.0333 77.5107 21.8546 77.1546 28.4317 76.2857C28.8617 76.2298 29.3723 76.2029 29.6432 76.5388C29.9254 76.8881 29.7418 77.448 29.3812 77.7167C29.0207 77.9855 28.5482 78.0414 28.1003 78.0862C21.7068 78.7401 15.1296 79.1656 8.95778 77.3719ZM5.95697 51.5828C6.32199 52.062 6.19658 52.7338 6.10925 53.3295C5.92785 54.5657 5.9928 55.822 6.0555 57.0671C6.31079 62.0162 6.56385 66.9653 6.8169 71.9144C13.2261 69.619 20.1728 68.8464 26.9291 69.6795C27.2829 69.7243 27.415 69.2293 27.4083 68.8733C27.265 61.9669 27.1217 55.0628 26.9783 48.1587C26.9716 47.8743 26.9582 47.5675 26.7813 47.348C26.5887 47.1084 26.2595 47.0368 25.9549 46.983C20.2489 45.9574 14.2406 45.4557 8.75399 47.3279C7.8112 47.6504 6.85497 48.0669 6.2145 48.8305C5.57627 49.5919 5.3568 50.79 5.95697 51.5828Z" fill="white"/>
<path d="M112.417 30.7069C112.076 31.2712 111.31 31.5355 110.692 31.3026C110.076 31.0719 109.676 30.3687 109.79 29.7193C109.935 28.8975 110.916 28.3376 111.698 28.631C112.482 28.9266 112.851 29.9925 112.417 30.7069Z" fill="white"/>
<path d="M114.714 33.9115C114.696 34.5631 114.163 35.1633 113.516 35.2551C112.871 35.3492 112.188 34.9214 111.989 34.3011C111.74 33.5308 112.318 32.6081 113.12 32.4917C113.921 32.3775 114.737 33.1008 114.714 33.9115Z" fill="white"/>
<path d="M99.5667 19.8256C98.9755 20.1056 98.2007 19.913 97.811 19.3867C97.4213 18.8627 97.4639 18.0655 97.9051 17.5817C98.4694 16.9659 99.5981 17.0241 100.097 17.6959C100.595 18.3678 100.321 19.4651 99.5667 19.8256Z" fill="white"/>
<path d="M96.2681 16.1104C96.501 16.6905 96.2972 17.416 95.7933 17.7855C95.1618 18.2468 94.1518 18.0498 93.7443 17.3847C93.3345 16.7173 93.6144 15.7297 94.3131 15.3782C95.0118 15.0243 95.9747 15.3871 96.2681 16.1104Z" fill="white"/>
<path d="M106.303 24.788C105.501 25.1082 104.478 24.4991 104.379 23.6436C104.299 22.9539 104.811 22.244 105.492 22.1029C106.173 21.9618 106.925 22.4097 107.127 23.0748C107.326 23.7422 106.948 24.5282 106.303 24.788Z" fill="white"/>
<path d="M32.5902 25.6278C32.1356 26.0981 31.3362 26.1832 30.792 25.8182C30.25 25.4531 30.0261 24.6805 30.2904 24.0826C30.5524 23.4847 31.2757 23.1286 31.9117 23.2831C32.3887 23.3996 32.794 23.7848 32.9306 24.2595C33.0672 24.732 32.9329 25.274 32.5902 25.6278Z" fill="white"/>
<path d="M109.87 25.8517C109.984 26.0689 110.038 26.3175 110.027 26.5616C109.989 27.4081 109.046 28.0844 108.233 27.8493C107.418 27.6141 106.981 26.5392 107.4 25.8025C107.648 25.368 108.148 25.0836 108.65 25.0948C109.153 25.1038 109.639 25.4061 109.87 25.8517Z" fill="white"/>
<path d="M29.3811 26.4855C29.4572 26.8013 29.4214 27.1439 29.2759 27.4373C28.8907 28.2144 27.7038 28.4316 27.0678 27.8404C26.434 27.2492 26.5662 26.0489 27.3141 25.6099C28.0643 25.1733 29.1751 25.6435 29.3811 26.4855Z" fill="white"/>
<path d="M113.469 36.5474C113.91 36.0704 114.701 35.9674 115.249 36.3145C115.892 36.7221 116.08 37.6984 115.635 38.3165C115.189 38.9324 114.201 39.0622 113.612 38.5808C113.023 38.0993 112.954 37.1072 113.469 36.5474Z" fill="white"/>
<path d="M34.6618 24.0918C34.3079 23.8499 34.0773 23.4379 34.0549 23.0124C34.0347 22.6003 34.2049 22.1838 34.5117 21.9084C35.0246 21.4426 35.9002 21.4493 36.4063 21.9263C36.9124 22.4033 36.9706 23.2744 36.5362 23.8164C36.0995 24.356 35.2351 24.4837 34.6618 24.0918Z" fill="white"/>
<path d="M92.6043 14.9616C92.929 15.8014 92.199 16.8562 91.2987 16.8495C90.4992 16.845 89.8073 16.0254 89.9372 15.2371C90.0648 14.4488 90.9807 13.8912 91.7421 14.142C92.1318 14.2697 92.4565 14.5787 92.6043 14.9616Z" fill="white"/>
<path d="M23.2005 29.4552C23.2005 28.8394 23.6663 28.2549 24.2665 28.1183C24.8689 27.9817 25.5407 28.3064 25.8072 28.8618C26.161 29.6008 25.6751 30.6063 24.8756 30.7877C24.0784 30.9713 23.2027 30.2748 23.2005 29.4552Z" fill="white"/>
<path d="M22.3717 33.3203C21.738 33.9317 20.5085 33.6652 20.1838 32.8478C19.8569 32.0304 20.5668 30.9936 21.4469 31.0003C21.9798 31.0048 22.4927 31.3563 22.6897 31.8513C22.8868 32.3439 22.7547 32.9508 22.3717 33.3203Z" fill="white"/>
<path d="M88.4279 15.1318C88.2869 15.6088 87.8614 15.9873 87.3709 16.0746C86.8805 16.162 86.3498 15.9492 86.0542 15.5506C85.51 14.8183 86.0027 13.5844 86.9007 13.4254C87.8009 13.2664 88.6855 14.2562 88.4279 15.1318Z" fill="white"/>
<path d="M6.38446 50.1069C6.28817 49.0007 7.55119 48.3176 8.61716 47.9974C14.4016 46.2596 20.6876 46.2216 26.4944 47.8899C26.5168 54.9194 26.6489 61.9467 26.8908 68.9718C20.2867 68.7165 13.4274 68.506 7.3586 71.1149C7.20409 67.4601 7.04733 63.8054 6.89281 60.1485C6.83234 58.713 6.77188 57.2753 6.71141 55.8376C6.62856 53.9251 6.54794 52.0149 6.38446 50.1069Z" fill="white"/>
<path d="M19.8884 35.806C19.7719 36.5182 18.9837 37.0444 18.2805 36.8809C17.5751 36.7152 17.1025 35.8956 17.3153 35.2036C17.5101 34.5699 18.2379 34.1533 18.8829 34.3034C19.5278 34.4557 19.9936 35.1521 19.8884 35.806Z" fill="white"/>
</svg>
