<svg width="20" height="18" viewBox="0 0 20 18" fill="none" xmlns="http://www.w3.org/2000/svg">
<path d="M13.7188 9.625L17.2188 11.125C17.7812 11.3438 18.0938 11.9375 17.9688 12.5312L17.2188 16.0312C17.0938 16.5938 16.5938 17.0312 16 17.0312C15.7812 17.0312 15.5938 17 15.4062 17C15.2812 17 15.125 17 15 16.9688C7.71875 16.4688 2 10.4062 2 3C2 2.4375 2.40625 1.90625 2.96875 1.78125L6.46875 1.03125C7.0625 0.90625 7.65625 1.21875 7.875 1.78125L9.375 5.28125C9.59375 5.78125 9.46875 6.375 9.03125 6.71875L7.75 7.78125C8.59375 9.21875 9.78125 10.4062 11.2188 11.25L12.2812 9.96875C12.625 9.53125 13.2188 9.40625 13.7188 9.625ZM15.9688 16C16.0938 16 16.1875 15.9375 16.2188 15.8125L16.9688 12.3125C17 12.1875 16.9375 12.0938 16.8438 12.0312L13.3438 10.5312C13.2188 10.5 13.125 10.5312 13.0312 10.5938L12 11.875C11.6875 12.25 11.1562 12.3438 10.7188 12.0938C9.125 11.1875 7.8125 9.875 6.90625 8.28125C6.65625 7.84375 6.75 7.3125 7.125 7L8.40625 5.96875C8.46875 5.875 8.5 5.78125 8.46875 5.65625L6.96875 2.15625C6.90625 2.0625 6.8125 2 6.6875 2.03125L3.1875 2.78125C3.0625 2.78125 3 2.90625 3 3C3 10.1875 8.8125 16 15.9688 16Z" fill="#767676"/>
</svg>
