<svg width="11" height="11" viewBox="0 0 11 11" fill="none" xmlns="http://www.w3.org/2000/svg">
<path d="M7.32422 5.64062L9.51172 6.57812C9.86328 6.71484 10.0586 7.08594 9.98047 7.45703L9.51172 9.64453C9.43359 9.99609 9.12109 10.2695 8.75 10.2695C8.61328 10.2695 8.49609 10.25 8.37891 10.25C8.30078 10.25 8.20312 10.25 8.125 10.2305C3.57422 9.91797 0 6.12891 0 1.5C0 1.14844 0.253906 0.816406 0.605469 0.738281L2.79297 0.269531C3.16406 0.191406 3.53516 0.386719 3.67188 0.738281L4.60938 2.92578C4.74609 3.23828 4.66797 3.60938 4.39453 3.82422L3.59375 4.48828C4.12109 5.38672 4.86328 6.12891 5.76172 6.65625L6.42578 5.85547C6.64062 5.58203 7.01172 5.50391 7.32422 5.64062ZM8.73047 9.625C8.80859 9.625 8.86719 9.58594 8.88672 9.50781L9.35547 7.32031C9.375 7.24219 9.33594 7.18359 9.27734 7.14453L7.08984 6.20703C7.01172 6.1875 6.95312 6.20703 6.89453 6.24609L6.25 7.04688C6.05469 7.28125 5.72266 7.33984 5.44922 7.18359C4.45312 6.61719 3.63281 5.79688 3.06641 4.80078C2.91016 4.52734 2.96875 4.19531 3.20312 4L4.00391 3.35547C4.04297 3.29688 4.0625 3.23828 4.04297 3.16016L3.10547 0.972656C3.06641 0.914062 3.00781 0.875 2.92969 0.894531L0.742188 1.36328C0.664062 1.36328 0.625 1.44141 0.625 1.5C0.625 5.99219 4.25781 9.625 8.73047 9.625Z" fill="#4C4C4C"/>
</svg>
