<svg width="81" height="64" viewBox="0 0 81 64" fill="none" xmlns="http://www.w3.org/2000/svg">
<path d="M41.5 0.375L59 12H72.5C76.875 12 80.5 15.625 80.5 20V56C80.5 60.5 76.875 64 72.5 64H48.5H44.5H36.5H32.5H8.5C4 64 0.5 60.5 0.5 56V20C0.5 15.625 4 12 8.5 12H21.875L39.375 0.375C40 0 40.875 0 41.5 0.375ZM48.5 48V60H72.5C74.625 60 76.5 58.25 76.5 56V20C76.5 17.875 74.625 16 72.5 16H58.5C58 16 57.625 16 57.375 15.75L40.5 4.5L23.5 15.75C23.25 16 22.875 16 22.5 16H8.5C6.25 16 4.5 17.875 4.5 20V56C4.5 58.25 6.25 60 8.5 60H32.5V48C32.5 43.625 36 40 40.5 40C44.875 40 48.5 43.625 48.5 48ZM44.5 60V48C44.5 45.875 42.625 44 40.5 44C38.25 44 36.5 45.875 36.5 48V60H44.5ZM12.5 24C12.5 21.875 14.25 20 16.5 20H20.5C22.625 20 24.5 21.875 24.5 24V32C24.5 34.25 22.625 36 20.5 36H16.5C14.25 36 12.5 34.25 12.5 32V24ZM20.5 24H16.5V32H20.5V24ZM60.5 20H64.5C66.625 20 68.5 21.875 68.5 24V32C68.5 34.25 66.625 36 64.5 36H60.5C58.25 36 56.5 34.25 56.5 32V24C56.5 21.875 58.25 20 60.5 20ZM60.5 24V32H64.5V24H60.5ZM12.5 44C12.5 41.875 14.25 40 16.5 40H20.5C22.625 40 24.5 41.875 24.5 44V52C24.5 54.25 22.625 56 20.5 56H16.5C14.25 56 12.5 54.25 12.5 52V44ZM20.5 44H16.5V52H20.5V44ZM60.5 40H64.5C66.625 40 68.5 41.875 68.5 44V52C68.5 54.25 66.625 56 64.5 56H60.5C58.25 56 56.5 54.25 56.5 52V44C56.5 41.875 58.25 40 60.5 40ZM60.5 44V52H64.5V44H60.5ZM40.5 16C37.625 16 35 17.625 33.5 20C32.125 22.5 32.125 25.625 33.5 28C35 30.5 37.625 32 40.5 32C43.25 32 45.875 30.5 47.375 28C48.75 25.625 48.75 22.5 47.375 20C45.875 17.625 43.25 16 40.5 16ZM40.5 36C36.125 36 32.25 33.75 30 30C27.875 26.375 27.875 21.75 30 18C32.25 14.375 36.125 12 40.5 12C44.75 12 48.625 14.375 50.875 18C53 21.75 53 26.375 50.875 30C48.625 33.75 44.75 36 40.5 36ZM42.5 20V22H43.5C44.5 22 45.5 23 45.5 24C45.5 25.125 44.5 26 43.5 26H40.5C39.375 26 38.5 25.125 38.5 24V20C38.5 19 39.375 18 40.5 18C41.5 18 42.5 19 42.5 20Z" fill="#215068"/>
</svg>
