<svg width="91" height="64" viewBox="0 0 91 64" fill="none" xmlns="http://www.w3.org/2000/svg">
<path d="M46 0.5C47.125 0.5 48.25 0.78125 49.2344 1.20312L88.75 15.4062C90.0156 15.8281 91 17.0938 91 18.5C91 20.0469 90.0156 21.3125 88.75 21.7344L49.2344 35.9375C48.25 36.3594 47.125 36.5 45.8594 36.5C44.7344 36.5 43.6094 36.3594 42.625 35.9375L20.125 27.7812C21.3906 26.5156 22.9375 25.5312 24.625 24.8281L46.7031 16.1094C47.9688 15.6875 48.5312 14.4219 47.9688 13.1562C47.5469 12.0312 46.2812 11.4688 45.1562 11.8906L23.0781 20.6094C20.2656 21.7344 17.875 23.4219 16.0469 25.6719C13.6562 28.9062 12.25 32.8438 12.25 37.0625V40.5781C13.0938 42.4062 13.6562 44.5156 14.0781 46.4844C14.9219 50.2812 15.625 55.7656 14.3594 61.8125C14.2188 62.375 13.9375 62.9375 13.375 63.2188C12.8125 63.5 12.25 63.6406 11.6875 63.5L2.6875 61.25C1.84375 61.1094 1.28125 60.5469 1 59.8438C0.859375 59.1406 1 58.2969 1.42188 57.7344C2.54688 56.0469 3.67188 54.2188 4.51562 52.3906C6.20312 49.1562 7.75 45.0781 7.75 41V37.0625C7.75 32.5625 9.01562 28.3438 11.2656 24.6875L3.10938 21.7344C1.84375 21.3125 1 20.0469 1 18.5C1 17.0938 1.84375 15.8281 3.10938 15.4062L42.625 1.20312C43.6094 0.78125 44.7344 0.5 46 0.5ZM19 53.375L21.1094 32.9844L41.0781 40.1562C42.625 40.7188 44.3125 41 46 41C47.5469 41 49.2344 40.7188 50.7812 40.1562L70.75 32.9844L73 53.375C73 58.4375 60.9062 63.5 46 63.5C31.0938 63.5 19 58.4375 19 53.375Z" fill="#FFBB4F"/>
</svg>
