<svg width="21" height="17" viewBox="0 0 21 17" fill="none" xmlns="http://www.w3.org/2000/svg">
<path d="M14.3496 6.5C14.3496 4.5625 13.2871 2.75 11.5996 1.75C9.88086 0.78125 7.78711 0.78125 6.09961 1.75C4.38086 2.75 3.34961 4.5625 3.34961 6.5C3.34961 8.46875 4.38086 10.2812 6.09961 11.2812C7.78711 12.25 9.88086 12.25 11.5996 11.2812C13.2871 10.2812 14.3496 8.46875 14.3496 6.5ZM13.0684 11.4375C11.9434 12.4375 10.4434 13 8.84961 13C5.25586 13 2.34961 10.0938 2.34961 6.5C2.34961 2.9375 5.25586 0 8.84961 0C12.4121 0 15.3496 2.9375 15.3496 6.5C15.3496 8.125 14.7559 9.59375 13.7871 10.75L18.1934 15.1562C18.3809 15.3438 18.3809 15.6875 18.1934 15.875C18.0059 16.0625 17.6621 16.0625 17.4746 15.875L13.0684 11.4375Z" fill="#215068"/>
</svg>
