<svg width="12" height="11" viewBox="0 0 12 11" fill="none" xmlns="http://www.w3.org/2000/svg">
<path d="M6 9.625C6.3125 9.625 6.78125 9.35156 7.19141 8.51172C7.38672 8.12109 7.5625 7.65234 7.67969 7.125H4.32031C4.41797 7.65234 4.59375 8.12109 4.78906 8.51172C5.19922 9.35156 5.66797 9.625 6 9.625ZM4.20312 6.5H7.77734C7.83594 6.10938 7.875 5.69922 7.875 5.25C7.875 4.82031 7.83594 4.41016 7.77734 4H4.20312C4.14453 4.41016 4.125 4.82031 4.125 5.25C4.125 5.69922 4.14453 6.10938 4.20312 6.5ZM4.32031 3.375H7.67969C7.5625 2.84766 7.38672 2.39844 7.19141 2.00781C6.78125 1.16797 6.3125 0.875 6 0.875C5.66797 0.875 5.19922 1.16797 4.78906 2.00781C4.59375 2.39844 4.41797 2.84766 4.32031 3.375ZM8.42188 4C8.46094 4.41016 8.5 4.82031 8.5 5.25C8.5 5.69922 8.46094 6.10938 8.42188 6.5H10.1797C10.2969 6.10938 10.375 5.69922 10.375 5.25C10.375 4.82031 10.2969 4.41016 10.1797 4H8.42188ZM9.94531 3.375C9.4375 2.32031 8.51953 1.5 7.38672 1.10938C7.79688 1.65625 8.12891 2.45703 8.30469 3.375H9.94531ZM3.67578 3.375C3.87109 2.45703 4.18359 1.65625 4.59375 1.10938C3.46094 1.5 2.54297 2.32031 2.03516 3.375H3.67578ZM1.80078 4C1.68359 4.41016 1.625 4.82031 1.625 5.25C1.625 5.69922 1.68359 6.10938 1.80078 6.5H3.57812C3.51953 6.10938 3.5 5.69922 3.5 5.25C3.5 4.82031 3.51953 4.41016 3.57812 4H1.80078ZM7.38672 9.41016C8.51953 9.01953 9.4375 8.19922 9.94531 7.125H8.30469C8.12891 8.0625 7.79688 8.84375 7.38672 9.41016ZM4.59375 9.41016C4.18359 8.84375 3.87109 8.0625 3.67578 7.125H2.03516C2.54297 8.19922 3.46094 9.01953 4.59375 9.41016ZM6 10.25C4.20312 10.25 2.5625 9.3125 1.66406 7.75C0.765625 6.20703 0.765625 4.3125 1.66406 2.75C2.5625 1.20703 4.20312 0.25 6 0.25C7.77734 0.25 9.41797 1.20703 10.3164 2.75C11.2148 4.3125 11.2148 6.20703 10.3164 7.75C9.41797 9.3125 7.77734 10.25 6 10.25Z" fill="#4C4C4C"/>
</svg>
