<svg width="24" height="26" viewBox="0 0 24 26" fill="none" xmlns="http://www.w3.org/2000/svg">
<path fill-rule="evenodd" clip-rule="evenodd" d="M12.7088 16.8826C12.7286 21.9299 7.55879 21.946 5.67186 20.0476C4.59768 18.9669 4.37917 16.8746 5.32505 15.5026C6.33122 14.0435 7.51297 13.8043 9.85668 13.9412L9.87887 9.5465C5.86576 8.63992 2.30461 11.4723 1.06209 13.5103C-0.775164 16.5254 -0.109527 20.8002 2.14254 22.9316C8.12024 28.5879 17.4739 24.7044 17.4729 17.2776L17.4777 9.10891C18.6879 10.0967 20.2744 10.6945 22.0108 10.6945C22.6157 10.6945 23.2036 10.6218 23.7627 10.4854L23.9469 10.4782L24 6.18361C20.408 6.06423 17.5187 3.38488 17.374 0.0471244L12.7141 0L12.7088 16.8826Z" fill="#215068"/>
</svg>
