<svg width="27" height="27" viewBox="0 0 27 27" fill="none" xmlns="http://www.w3.org/2000/svg">
<path d="M0 3.13636C0 2.22725 0.304063 1.47725 0.912162 0.886364C1.52026 0.295445 2.31082 0 3.28378 0C4.23939 0 5.01254 0.290891 5.60328 0.872727C6.21138 1.47273 6.51544 2.25453 6.51544 3.21818C6.51544 4.09091 6.22009 4.81816 5.62934 5.4C5.02124 6 4.22201 6.3 3.23166 6.3H3.2056C2.24999 6.3 1.47684 6 0.8861 5.4C0.295358 4.8 0 4.04545 0 3.13636ZM0.338803 27V8.78182H6.12452V27H0.338803ZM9.33012 27H15.1158V16.8273C15.1158 16.1909 15.1853 15.7 15.3243 15.3545C15.5676 14.7364 15.9368 14.2136 16.4319 13.7864C16.9271 13.3591 17.5483 13.1455 18.2954 13.1455C20.2413 13.1455 21.2143 14.5182 21.2143 17.2636V27H27V16.5545C27 13.8636 26.3919 11.8227 25.1757 10.4318C23.9594 9.04091 22.3523 8.34545 20.3542 8.34545C18.1129 8.34545 16.3668 9.35455 15.1158 11.3727V11.4273H15.0898L15.1158 11.3727V8.78182H9.33012C9.36486 9.36363 9.38224 11.1727 9.38224 14.2091C9.38224 17.2454 9.36486 21.5091 9.33012 27Z" fill="#215068"/>
</svg>
