<svg width="17" height="16" viewBox="0 0 17 16" fill="none" xmlns="http://www.w3.org/2000/svg">
<path d="M9.32031 1.40234L11.2246 5.29883L15.4141 5.91406C15.7656 5.97266 16.0586 6.20703 16.1758 6.55859C16.293 6.88086 16.2051 7.26172 15.9414 7.49609L12.8945 10.5137L13.627 14.791C13.6855 15.1426 13.5391 15.4941 13.2461 15.6992C12.9531 15.9336 12.5723 15.9336 12.25 15.7871L8.5 13.7656L4.7207 15.7871C4.42773 15.9336 4.04688 15.9336 3.75391 15.6992C3.46094 15.4941 3.31445 15.1426 3.37305 14.791L4.07617 10.5137L1.0293 7.49609C0.794922 7.26172 0.707031 6.88086 0.794922 6.55859C0.912109 6.20703 1.20508 5.97266 1.55664 5.91406L5.77539 5.29883L7.65039 1.40234C7.79688 1.08008 8.11914 0.875 8.5 0.875C8.85156 0.875 9.17383 1.08008 9.32031 1.40234Z" fill="#FFBB4F"/>
</svg>
