<svg width="57" height="64" viewBox="0 0 57 64" fill="none" xmlns="http://www.w3.org/2000/svg">
<path d="M29 0.125L55 8.125C55.875 8.375 56.5 9.125 56.5 10C56.5 10.875 55.875 11.75 55 12L29 20C28.625 20.125 28.25 20.125 27.875 20L8.5 14V21.75L12.375 33.375C12.5 34 12.5 34.75 12.125 35.25C11.75 35.75 11.125 36 10.5 36H2.5C1.75 36 1.25 35.75 0.875 35.25C0.5 34.75 0.375 34 0.5 33.375L4.5 21.75V12.75L1.875 12C1 11.75 0.5 10.875 0.5 10C0.5 9.125 1 8.375 1.875 8.125L27.875 0.125C28.25 0 28.625 0 29 0.125ZM28.5 16L47.625 10L28.5 4.125L9.25 10L28.5 16ZM24 55L15.125 45C8.875 47.25 4.5 53.125 4.5 60H52.5C52.375 53.125 48 47.25 41.875 45L32.875 55C30.5 57.75 26.375 57.75 24 55ZM14.125 41.125C15.5 40.625 17 41.125 18 42.25L27 52.375C27.75 53.25 29.125 53.25 30 52.375L39 42.25C39.875 41.125 41.375 40.625 42.75 41.125C50.75 43.75 56.5 51.375 56.5 60.25C56.5 62.375 54.75 64 52.625 64H4.25C2.125 64 0.5 62.375 0.5 60.25C0.5 51.375 6.125 43.75 14.125 41.125ZM6.5 28.375L5.25 32H7.625L6.5 28.375ZM12.5 19.375L16.5 20.625V22C16.5 28.625 21.875 34 28.5 34C35.125 34 40.5 28.625 40.5 22V20.625L44.5 19.375V22C44.5 30.875 37.25 38 28.5 38C19.625 38 12.5 30.875 12.5 22V19.375Z" fill="#215068"/>
</svg>
