<svg width="15" height="16" viewBox="0 0 15 16" fill="none" xmlns="http://www.w3.org/2000/svg">
<path fill-rule="evenodd" clip-rule="evenodd" d="M7.6942 10.2732C7.70587 13.2514 4.65542 13.2609 3.54202 12.1407C2.9082 11.503 2.77927 10.2684 3.33739 9.45889C3.93108 8.59797 4.62838 8.45682 6.0113 8.53759L6.02439 5.94448C3.65644 5.40955 1.55516 7.08082 0.822003 8.28336C-0.262077 10.0624 0.130685 12.5848 1.45953 13.8424C4.9867 17.18 10.5059 14.8885 10.5053 10.5063L10.5081 5.68629C11.2222 6.26915 12.1583 6.62189 13.1829 6.62189C13.5398 6.62189 13.8867 6.57899 14.2166 6.49848L14.3253 6.49425L14.3566 3.9602C12.2371 3.88975 10.5323 2.30879 10.4469 0.339329L7.69733 0.311523L7.6942 10.2732Z" fill="white"/>
</svg>
