<svg width="34" height="16" viewBox="0 0 34 16" fill="none" xmlns="http://www.w3.org/2000/svg">
<path d="M12.2482 5.71875C11.842 5.34375 11.842 4.6875 12.2482 4.3125L16.2482 0.3125C16.4357 0.125 16.6857 0 16.967 0C17.217 0 17.467 0.125 17.6545 0.3125L21.6545 4.3125C22.0607 4.6875 22.0607 5.34375 21.6545 5.71875C21.2795 6.125 20.6232 6.125 20.2482 5.71875L17.967 3.4375V11C17.967 11.5625 17.4982 12 16.967 12C16.4045 12 15.967 11.5625 15.967 11V3.4375L13.6545 5.71875C13.2795 6.125 12.6232 6.125 12.2482 5.71875ZM23.967 11C24.4982 11 24.967 11.4688 24.967 12V15C24.967 15.5625 24.4982 16 23.967 16H9.96696C9.40446 16 8.96696 15.5625 8.96696 15V12C8.96696 11.4688 9.40446 11 9.96696 11H14.967C14.967 12.125 15.842 13 16.967 13C18.0607 13 18.967 12.125 18.967 11H23.967ZM22.467 14.25C22.8732 14.25 23.217 13.9375 23.217 13.5C23.217 13.0938 22.8732 12.75 22.467 12.75C22.0295 12.75 21.717 13.0938 21.717 13.5C21.717 13.9375 22.0295 14.25 22.467 14.25Z" fill="#5994A9"/>
</svg>