<svg width="11" height="12" viewBox="0 0 11 12" fill="none" xmlns="http://www.w3.org/2000/svg">
<path d="M5.5 0.614258C6.27344 0.614258 6.96094 1.06543 7.30469 1.73145C8.01367 1.49512 8.83008 1.66699 9.38867 2.22559C9.94727 2.78418 10.1191 3.60059 9.88281 4.30957C10.5488 4.65332 11 5.34082 11 6.11426C11 6.90918 10.5488 7.59668 9.88281 7.94043C10.1191 8.64941 9.94727 9.44434 9.38867 10.0029C8.83008 10.5615 8.01367 10.7334 7.30469 10.5186C6.96094 11.1846 6.27344 11.6143 5.5 11.6143C4.70508 11.6143 4.01758 11.1846 3.67383 10.5186C2.96484 10.7334 2.16992 10.5615 1.61133 10.0029C1.05273 9.44434 0.880859 8.64941 1.0957 7.94043C0.429688 7.59668 0 6.90918 0 6.11426C0 5.34082 0.429688 4.65332 1.0957 4.30957C0.880859 3.60059 1.05273 2.78418 1.61133 2.22559C2.16992 1.66699 2.96484 1.49512 3.67383 1.73145C4.01758 1.06543 4.70508 0.614258 5.5 0.614258ZM7.92773 5.10449C8.12109 4.91113 8.12109 4.58887 7.92773 4.39551C7.71289 4.18066 7.39062 4.18066 7.19727 4.39551L4.8125 6.78027L3.80273 5.77051C3.58789 5.55566 3.26562 5.55566 3.07227 5.77051C2.85742 5.96387 2.85742 6.28613 3.07227 6.47949L4.44727 7.85449C4.64062 8.06934 4.96289 8.06934 5.17773 7.85449L7.92773 5.10449Z" fill="black"/>
</svg>
