<svg width="16" height="15" viewBox="0 0 16 15" fill="none" xmlns="http://www.w3.org/2000/svg">
<path fill-rule="evenodd" clip-rule="evenodd" d="M0.367586 14.8741C1.46561 14.7581 2.80698 14.5039 3.90187 14.3172C4.87609 14.1514 4.72155 14.2963 5.55233 14.5455C8.39245 15.3974 11.7301 14.5216 13.4372 12.8784C14.9906 11.3822 15.9429 9.88889 15.977 7.56298C16.0419 3.17414 12.0921 -0.261353 7.47288 0.0156472C4.79897 0.176127 3.21625 1.32067 1.93266 2.56161C0.112575 4.32107 -0.502467 7.42501 0.4339 9.9249C0.651058 10.5049 0.954737 10.7286 0.851993 11.4179C0.69688 12.4513 0.414831 13.8384 0.367586 14.8741Z" fill="white"/>
<path fill-rule="evenodd" clip-rule="evenodd" d="M1.99548 13.3416C2.69277 13.2748 4.49037 12.8289 4.96624 12.996C5.97091 13.3487 6.44365 13.6154 7.72326 13.658C14.0416 13.867 16.9284 6.62816 12.5633 2.90507C7.99648 -0.988826 0.665211 2.42813 1.33262 8.06241C1.44334 8.99352 1.74047 9.77923 2.16311 10.4842C2.52685 11.0917 2.07944 12.5702 1.99548 13.3416Z" fill="#215068"/>
<path fill-rule="evenodd" clip-rule="evenodd" d="M6.00294 6.46209C6.28214 6.11492 6.69881 6.01243 6.39883 5.22857C6.23973 4.8128 5.98842 4.01993 5.61103 3.94075C5.11865 3.83668 3.71524 4.8038 4.16919 6.2934C4.89922 8.69028 7.23074 10.5896 9.5913 11.1099C10.4468 11.2985 10.8089 11.0842 11.2278 10.6685C11.5019 10.3957 12.0526 9.8809 11.5944 9.47414C9.77288 7.85636 9.84717 9.37907 9.14048 9.48818C8.66461 9.56153 6.25965 7.86113 6.00294 6.46209Z" fill="white"/>
</svg>
