<svg width="10" height="13" viewBox="0 0 10 13" fill="none" xmlns="http://www.w3.org/2000/svg">
<path d="M9.27539 6.1145L9.01758 9.50903C8.93164 10.3684 7.64258 10.261 7.70703 9.40161L7.92188 6.75903L7.04102 6.802C7.25586 7.25317 7.38477 7.74731 7.38477 8.28442C7.38477 9.16528 7.04102 9.98169 6.46094 10.5618L5.62305 9.72388C6.86914 8.34888 5.90234 6.13599 4.0332 6.13599C3.47461 6.13599 2.98047 6.35083 2.59375 6.69458L1.75586 5.85669C2.22852 5.40552 2.83008 5.10474 3.49609 4.97583L5.10742 3.14966L4.20508 2.61255L3.08789 3.60083C2.44336 4.18091 1.5625 3.19263 2.22852 2.63403L3.68945 1.32349C3.88281 1.13013 4.20508 1.10864 4.44141 1.23755C4.44141 1.23755 7.42773 2.97778 7.44922 2.97778C7.79297 3.19263 7.87891 3.75122 7.57812 4.11646L6.31055 5.53442L8.58789 5.427C8.99609 5.38403 9.31836 5.72778 9.27539 6.1145ZM7.90039 2.80591C8.50195 2.80591 8.97461 2.31177 8.97461 1.71021C8.97461 1.10864 8.50195 0.614502 7.90039 0.614502C7.27734 0.614502 6.80469 1.10864 6.80469 1.71021C6.80469 2.31177 7.27734 2.80591 7.90039 2.80591ZM4.0332 10.4329C2.31445 10.4329 1.30469 8.47778 2.25 7.0813L1.41211 6.22192C0.960938 6.78052 0.703125 7.51099 0.703125 8.28442C0.703125 11.0989 3.92578 12.6028 6.0957 10.9055L5.23633 10.0676C4.89258 10.304 4.48438 10.4329 4.0332 10.4329Z" fill="black"/>
</svg>
