<svg width="21" height="17" viewBox="0 0 21 17" fill="none" xmlns="http://www.w3.org/2000/svg">
<path d="M15.0225 5.48889L11.7412 8.77014L15.0225 12.0826C15.4287 12.4576 15.4287 13.1139 15.0225 13.4889C14.6475 13.8951 13.9912 13.8951 13.6162 13.4889L10.335 10.2076L7.02246 13.4889C6.64746 13.8951 5.99121 13.8951 5.61621 13.4889C5.20996 13.1139 5.20996 12.4576 5.61621 12.0826L8.89746 8.77014L5.61621 5.48889C5.20996 5.11389 5.20996 4.45764 5.61621 4.08264C5.99121 3.67639 6.64746 3.67639 7.02246 4.08264L10.335 7.36389L13.6162 4.08264C13.9912 3.67639 14.6475 3.67639 15.0225 4.08264C15.4287 4.45764 15.4287 5.11389 15.0225 5.48889Z" fill="#F44848"/>
</svg>
