<svg width="20" height="16" viewBox="0 0 20 16" fill="none" xmlns="http://www.w3.org/2000/svg">
<path d="M15.9766 2.85156L11.2891 7.53906L15.9375 12.1875C16.3281 12.5391 16.3281 13.125 15.9375 13.4766C15.5859 13.8672 15 13.8672 14.6484 13.4766L9.96094 8.82812L5.3125 13.4766C4.96094 13.8672 4.375 13.8672 4.02344 13.4766C3.63281 13.125 3.63281 12.5391 4.02344 12.1484L8.67188 7.5L4.02344 2.85156C3.63281 2.5 3.63281 1.91406 4.02344 1.52344C4.375 1.17188 4.96094 1.17188 5.35156 1.52344L10 6.21094L14.6484 1.5625C15 1.17188 15.5859 1.17188 15.9766 1.5625C16.3281 1.91406 16.3281 2.5 15.9766 2.85156Z" fill="#F44848"/>
</svg>
