<svg width="32" height="40" viewBox="0 0 32 40" fill="none" xmlns="http://www.w3.org/2000/svg">
<path opacity="0.997" fill-rule="evenodd" clip-rule="evenodd" d="M29.9805 0.45822C30.1495 0.451776 30.318 0.458259 30.4861 0.477664C30.5634 0.528955 30.6087 0.600254 30.6222 0.691553C30.8532 2.92988 31.0347 5.17249 31.1666 7.41933C31.2389 7.71321 31.2843 8.01134 31.3028 8.31378C31.1591 9.77005 31.0424 11.2284 30.9528 12.6888C31.0205 14.0825 31.0917 15.476 31.1666 16.8693C31.1926 17.5045 31.1926 18.1397 31.1666 18.7749C31.0459 19.8612 30.9551 20.9501 30.8944 22.0416C30.8335 22.4756 30.7428 22.9034 30.6222 23.3249C30.5065 24.8802 30.5 26.4357 30.6028 27.9916C30.5252 31.2967 30.4669 34.6022 30.4278 37.9082C30.4043 38.427 30.3784 38.9454 30.35 39.4638C30.2475 39.7387 30.0725 39.7971 29.825 39.6388C28.7938 38.8054 27.7697 37.9631 26.7528 37.111C25.2957 36.0447 23.8957 34.904 22.5528 33.6888C18.9038 31.012 15.2223 28.3806 11.5083 25.7943C10.2898 24.8869 9.07126 23.9795 7.85275 23.0721C6.07036 21.941 4.26852 20.8391 2.4472 19.7666C1.86231 19.2923 1.29192 18.7997 0.736085 18.2888C0.616735 18.1649 0.59729 18.0288 0.677751 17.8804C0.784423 17.7915 0.894635 17.7072 1.00831 17.6277C3.1927 16.3604 5.38346 15.103 7.58053 13.8554C9.34822 12.5684 11.189 11.3888 13.1028 10.3166C14.3403 9.47084 15.5977 8.65417 16.875 7.86655C17.2776 7.3862 17.7313 6.95842 18.2361 6.58322C20.3097 5.42989 22.3579 4.23729 24.3805 3.00544C24.7824 2.68137 25.1842 2.35729 25.5861 2.03322C26.9111 1.10982 28.3759 0.584823 29.9805 0.45822Z" fill="#883D05"/>
</svg>
