<svg width="42" height="42" viewBox="0 0 42 42" fill="none" xmlns="http://www.w3.org/2000/svg">
<path opacity="0.997" fill-rule="evenodd" clip-rule="evenodd" d="M34.9805 1.45822C35.1495 1.45178 35.318 1.45826 35.4861 1.47766C35.5634 1.52895 35.6087 1.60025 35.6222 1.69155C35.8532 3.92988 36.0347 6.17249 36.1666 8.41933C36.2389 8.71321 36.2843 9.01134 36.3028 9.31378C36.1591 10.77 36.0424 12.2284 35.9528 13.6888C36.0205 15.0825 36.0917 16.476 36.1666 17.8693C36.1926 18.5045 36.1926 19.1397 36.1666 19.7749C36.0459 20.8612 35.9551 21.9501 35.8944 23.0416C35.8335 23.4756 35.7428 23.9034 35.6222 24.3249C35.5065 25.8802 35.5 27.4357 35.6028 28.9916C35.5252 32.2967 35.4669 35.6022 35.4278 38.9082C35.4043 39.427 35.3784 39.9454 35.35 40.4638C35.2475 40.7387 35.0725 40.7971 34.825 40.6388C33.7938 39.8054 32.7697 38.9631 31.7528 38.111C30.2957 37.0447 28.8957 35.904 27.5528 34.6888C23.9038 32.012 20.2223 29.3806 16.5083 26.7943C15.2898 25.8869 14.0713 24.9795 12.8528 24.0721C11.0704 22.941 9.26852 21.8391 7.4472 20.7666C6.86231 20.2923 6.29192 19.7997 5.73608 19.2888C5.61673 19.1649 5.59729 19.0288 5.67775 18.8804C5.78442 18.7915 5.89463 18.7072 6.00831 18.6277C8.1927 17.3604 10.3835 16.103 12.5805 14.8554C14.3482 13.5684 16.189 12.3888 18.1028 11.3166C19.3403 10.4708 20.5977 9.65417 21.875 8.86655C22.2776 8.3862 22.7313 7.95842 23.2361 7.58322C25.3097 6.42989 27.3579 5.23729 29.3805 4.00544C29.7824 3.68137 30.1842 3.35729 30.5861 3.03322C31.9111 2.10982 33.3759 1.58482 34.9805 1.45822Z" fill="#49503B"/>
</svg>
