<svg width="25" height="40" viewBox="0 0 25 40" fill="none" xmlns="http://www.w3.org/2000/svg">
<path d="M16.2667 1.02234C16.3008 1.03321 16.3348 1.04409 16.37 1.05529C17.5534 1.43817 18.6678 2.00783 19.65 2.77234C19.6722 2.78937 19.6944 2.80639 19.7173 2.82393C19.7501 2.8493 19.7501 2.8493 19.7835 2.87519C19.8025 2.88986 19.8216 2.90454 19.8412 2.91967C20.3802 3.36758 20.6918 3.91186 20.9941 4.5345C21.03 4.60749 21.0659 4.68048 21.1019 4.75347C21.6988 5.97373 22.1225 7.14978 22.1141 8.51985C22.1141 8.58705 22.1141 8.65426 22.1142 8.72146C22.1142 8.86091 22.1138 9.00034 22.1131 9.13978C22.1122 9.31665 22.1122 9.49351 22.1124 9.67038C22.1126 9.80869 22.1123 9.94699 22.1119 10.0853C22.1118 10.1504 22.1117 10.2156 22.1118 10.2808C22.1119 10.8234 22.0844 11.3584 21.9343 11.8834C21.9217 11.9292 21.9217 11.9292 21.9089 11.9759C21.8825 12.0712 21.8553 12.1662 21.8278 12.2612C21.8188 12.2923 21.8098 12.3234 21.8006 12.3554C21.7456 12.5449 21.6888 12.7337 21.6308 12.9222C21.6018 13.0169 21.5733 13.1117 21.5448 13.2065C21.3073 13.9881 20.9817 14.7152 20.6174 15.4453C20.1842 16.1759 20.1842 16.1759 19.9611 16.9668C20.0441 17.0307 20.1254 17.0864 20.2139 17.1418C20.2678 17.1767 20.3218 17.2116 20.3757 17.2466C20.4037 17.2646 20.4316 17.2826 20.4605 17.3012C21.0954 17.7132 21.71 18.152 22.2556 18.6779C22.2833 18.7037 22.3111 18.7294 22.3397 18.756C23.2028 19.5778 23.7067 20.7555 24.1611 21.8352C24.1715 21.8598 24.1819 21.8844 24.1926 21.9098C24.6871 23.0849 24.7862 24.1148 24.596 25.3704C24.5844 25.4501 24.5729 25.5298 24.5614 25.6094C24.5373 25.7754 24.5128 25.9412 24.4879 26.1071C24.4568 26.3146 24.4265 26.5222 24.3964 26.7299C24.2016 28.0741 23.9798 29.412 23.6969 30.7407C23.6803 30.819 23.6638 30.8973 23.6472 30.9755C23.6142 31.1315 23.581 31.2874 23.5477 31.4433C23.5092 31.6232 23.4714 31.8033 23.4339 31.9835C23.4068 32.1129 23.3792 32.2421 23.3515 32.3714C23.3389 32.4305 23.3265 32.4897 23.3143 32.5489C23.1955 33.1228 22.9881 33.5017 22.5428 33.8809C22.4286 33.9798 22.3177 34.0821 22.2069 34.1848C22.163 34.2255 22.1191 34.2662 22.0752 34.3068C22.0425 34.3372 22.0425 34.3372 22.0091 34.3681C21.8901 34.4782 21.7706 34.5876 21.6509 34.697C21.5536 34.7861 21.4565 34.8753 21.3599 34.9652C21.1416 35.1678 20.9186 35.3617 20.6865 35.5485C20.5836 35.6332 20.4849 35.7211 20.3865 35.8109C20.2347 35.9488 20.0788 36.0786 19.9178 36.2055C19.8051 36.2949 19.6936 36.3857 19.5822 36.4768C19.3254 36.6866 19.0661 36.8923 18.8025 37.0935C18.6238 37.2299 18.4475 37.3693 18.271 37.5085C18.1795 37.5806 18.0877 37.6524 17.9957 37.7239C17.95 37.7595 17.9043 37.7951 17.8587 37.8307C17.8361 37.8482 17.8136 37.8658 17.7903 37.8839C17.6561 37.9892 17.5266 38.0982 17.3986 38.211C16.805 38.7311 16.1477 38.9284 15.3921 39.1126C15.2879 39.1381 15.1839 39.1643 15.0799 39.1904C13.2097 39.6531 11.2158 39.4821 9.35677 39.0535C9.02676 38.9798 8.69423 38.929 8.3601 38.8784C7.11366 38.6893 5.93387 38.4028 4.79444 37.8501C4.76975 37.8386 4.74505 37.827 4.71961 37.8151C4.16202 37.5532 3.71481 37.1197 3.40903 36.5862C3.39274 36.5582 3.37644 36.5301 3.35966 36.5012C3.15832 36.1503 2.97451 35.79 2.78941 35.4304C2.73786 35.3311 2.68539 35.2323 2.63231 35.1338C2.25687 34.4368 1.92896 33.7455 1.71636 32.9806C1.6522 32.7513 1.5831 32.5305 1.48934 32.3115C1.35535 31.9977 1.25016 31.6863 1.16806 31.3549C1.15656 31.3086 1.14506 31.2623 1.13321 31.2146C0.973842 30.554 0.855083 29.8849 0.733119 29.2166C0.706708 29.0726 0.67983 28.9286 0.652956 28.7847C0.626893 28.6448 0.601102 28.5049 0.575395 28.3649C0.563209 28.2988 0.550946 28.2326 0.5386 28.1664C0.521499 28.0746 0.504761 27.9826 0.488117 27.8907C0.48309 27.864 0.478064 27.8374 0.472885 27.81C0.353706 27.1406 0.676501 26.544 0.921392 25.9363C0.973181 25.8078 1.02461 25.6791 1.076 25.5504C1.22667 25.1742 1.37918 24.799 1.54327 24.4284C1.55531 24.4012 1.56735 24.374 1.57976 24.3459C1.96888 23.4797 2.57175 22.7851 3.21551 22.0999C3.37159 21.9329 3.5169 21.7592 3.65983 21.5807C3.74951 21.4717 3.84328 21.3678 3.93889 21.264C4.09581 21.0933 4.24371 20.9176 4.3893 20.7372C4.49714 20.6055 4.60787 20.4765 4.7191 20.3477C4.87437 20.1675 5.02594 19.9853 5.17346 19.7987C5.29109 19.6515 5.41099 19.5062 5.5309 19.3609C5.56647 19.3178 5.56647 19.3178 5.60276 19.2738C5.64921 19.2175 5.69565 19.1612 5.74209 19.1049C5.88042 18.9371 6.01797 18.7686 6.15555 18.6001C6.25465 18.4788 6.35381 18.3575 6.45311 18.2364C6.49092 18.1902 6.52872 18.144 6.56651 18.0978C6.7049 17.9288 6.84376 17.7601 6.98318 17.5919C7.02514 17.5413 7.06702 17.4905 7.10877 17.4396C7.3218 17.1806 7.54273 16.9395 7.78497 16.7072C8.20339 16.3042 8.52764 15.8935 8.60555 15.2946C8.59177 15.1367 8.55289 15.0702 8.43542 14.9664C7.74447 14.3062 7.28333 13.4233 6.81986 12.5994C6.68683 12.363 6.55251 12.1274 6.41805 11.8918C6.40511 11.8691 6.39217 11.8464 6.37884 11.823C6.17481 11.4655 5.96628 11.1109 5.75299 10.7588C5.72809 10.7176 5.72809 10.7176 5.70267 10.6756C5.66477 10.6133 5.62647 10.5513 5.58791 10.4894C5.56719 10.4558 5.54647 10.4222 5.52513 10.3876C5.50626 10.3573 5.48739 10.327 5.46795 10.2958C5.17481 9.74873 5.37004 9.05915 5.49232 8.48719C5.50837 8.40988 5.52438 8.33257 5.54034 8.25525C5.57374 8.0941 5.60757 7.93305 5.64176 7.77207C5.68503 7.56824 5.72746 7.36424 5.7696 7.16017C5.80258 7.00069 5.83589 6.84128 5.8693 6.68189C5.88503 6.60682 5.90069 6.53173 5.91627 6.45663C5.99803 6.06395 6.08779 5.675 6.19655 5.28884C6.2057 5.25604 6.21485 5.22323 6.22428 5.18943C6.34835 4.7612 6.54774 4.37321 6.77292 3.99005C6.94936 3.68971 7.08805 3.37424 7.2291 3.05611C7.24461 3.0219 7.26012 2.98768 7.2761 2.95243C7.30658 2.88482 7.33618 2.81681 7.36485 2.74842C7.57064 2.28774 7.93872 2.09384 8.38194 1.89005C8.42621 1.86897 8.47047 1.84789 8.51608 1.82617C9.09884 1.55199 9.61949 1.37592 10.2626 1.33755C10.3513 1.33175 10.4401 1.32592 10.5288 1.32009C10.5751 1.31713 10.6213 1.31417 10.669 1.31112C11.4314 1.26189 12.192 1.20352 12.9514 1.11956C12.9883 1.1155 13.0251 1.11143 13.0631 1.10724C13.5054 1.05794 13.9455 0.999698 14.3854 0.932412C15.04 0.833805 15.6313 0.813558 16.2667 1.02234Z" fill="#D4CEC7"/>
</svg>
