<svg width="42" height="42" viewBox="0 0 42 42" fill="none" xmlns="http://www.w3.org/2000/svg">
<g clip-path="url(#clip0_7813_13198)">
<path d="M26.1399 18.46C26.2501 18.45 26.3381 18.4524 26.4309 18.5165C26.7707 18.8727 26.858 19.4215 26.9548 19.8867C26.9615 19.9183 26.9683 19.95 26.9752 19.9826C27.0923 20.5407 27.1552 21.0959 27.1897 21.6648C27.1915 21.694 27.1933 21.7233 27.1951 21.7535C27.1996 21.8317 27.2036 21.9099 27.2076 21.9881C27.2172 22.1364 27.2393 22.2814 27.2615 22.4282C27.3129 22.8044 27.313 23.1787 27.3147 23.5577C27.3153 23.6347 27.316 23.7116 27.3167 23.7885C27.3185 23.9896 27.3198 24.1908 27.3211 24.3919C27.3231 24.7134 27.3257 25.0348 27.3284 25.3563C27.3293 25.4673 27.3299 25.5783 27.3305 25.6893C27.3329 26.0342 27.3414 26.377 27.364 26.7212C27.3797 26.9638 27.3828 27.2053 27.3815 27.4483C27.3815 27.5129 27.3815 27.5129 27.3814 27.5789C27.3812 27.7135 27.3807 27.8482 27.3802 27.9829C27.38 28.0754 27.3798 28.1679 27.3796 28.2605C27.3792 28.4847 27.3786 28.709 27.3777 28.9332C27.5881 29.0204 27.7759 29.0227 27.9997 29.0204C28.058 29.0201 28.058 29.0201 28.1174 29.0197C28.612 29.0138 29.1049 28.9779 29.5981 28.9435C29.842 28.9267 30.0861 28.9107 30.3301 28.8948C30.3705 28.8921 30.3705 28.8921 30.4116 28.8894C30.9094 28.8569 31.4074 28.8336 31.9059 28.8141C32.8211 28.7773 33.7225 28.7013 34.628 28.558C35.629 28.4045 35.629 28.4045 36.0111 28.5054C36.0186 30.3835 36.0186 30.3835 35.9965 31.0429C35.9953 31.0832 35.9941 31.1234 35.9929 31.1649C35.9855 31.3494 35.9683 31.5244 35.9329 31.7056C35.8671 32.1267 35.8841 32.5538 35.8855 32.9789C35.8855 33.0739 35.8855 33.1688 35.8855 33.2638C35.8856 33.4624 35.8859 33.661 35.8864 33.8596C35.8871 34.1119 35.8872 34.3642 35.8872 34.6164C35.8872 34.8126 35.8874 35.0087 35.8877 35.2048C35.8878 35.2977 35.8879 35.3906 35.8879 35.4835C35.8882 35.958 35.8921 36.431 35.9209 36.9048C35.9338 37.1264 35.9306 37.3448 35.9212 37.5666C35.9063 38.2058 36.0534 38.8455 36.1666 39.4721C35.906 39.6087 35.6377 39.6322 35.3483 39.6669C35.2949 39.6735 35.2415 39.6803 35.188 39.687C35.0763 39.701 34.9645 39.7148 34.8528 39.7284C34.7108 39.7456 34.5689 39.7632 34.427 39.781C34.2901 39.7982 34.1532 39.8152 34.0164 39.8321C33.966 39.8384 33.9157 39.8446 33.8638 39.851C33.4072 39.9065 32.9623 39.9448 32.5021 39.9344C31.4265 39.9176 30.3665 39.9385 29.2955 40.0433C29.2689 40.0459 29.2424 40.0485 29.2151 40.0511C28.4559 40.1258 27.6972 40.2097 26.9409 40.3092C26.4751 40.3698 26.0484 40.4007 25.5889 40.2888C25.5311 39.7883 25.4916 39.2899 25.4698 38.7867C25.4674 38.734 25.4674 38.734 25.465 38.6802C25.4262 37.8139 25.4078 36.9472 25.396 36.0802C25.3945 35.978 25.3928 35.8759 25.391 35.7737C25.38 35.1167 25.3947 34.4712 25.4585 33.8171C25.5063 33.3262 25.5258 32.8382 25.5347 32.3452C25.5438 31.8479 25.5634 31.3523 25.5913 30.8558C25.6142 30.4402 25.6355 30.0253 25.6375 29.6089C25.638 29.5561 25.638 29.5561 25.6385 29.5022C25.6377 29.3339 25.6287 29.203 25.55 29.0499C25.2576 28.9899 25.0058 29.0439 24.7163 29.1034C24.2359 29.1992 23.7921 29.2519 23.3017 29.2516C23.2514 29.2516 23.2011 29.2517 23.1493 29.2517C22.8733 29.2502 22.6033 29.2393 22.3295 29.2054C22.0126 29.1685 21.6957 29.1506 21.3769 29.1442C21.3227 29.1429 21.2685 29.1411 21.2143 29.1386C20.8306 29.122 20.6009 29.1839 20.2949 29.401C19.9919 29.6092 19.6695 29.6445 19.3115 29.6437C19.2737 29.6436 19.2359 29.6436 19.197 29.6435C18.6037 29.6367 18.0116 29.5857 17.4203 29.5399C17.2443 29.5263 17.0681 29.5134 16.892 29.5007C16.7548 29.4908 16.6177 29.4803 16.4805 29.4698C16.4156 29.4649 16.3506 29.4601 16.2856 29.4554C16.1951 29.4489 16.1047 29.4418 16.0142 29.4345C15.9749 29.4319 15.9749 29.4319 15.9348 29.4292C15.6325 29.4035 15.4041 29.3234 15.2055 29.0888C15.1479 28.9735 15.1615 28.8695 15.1618 28.7412C15.1617 28.6927 15.1616 28.6443 15.1615 28.5943C15.1635 28.4739 15.1734 28.356 15.1861 28.2362C15.2096 27.9818 15.2113 27.729 15.2112 27.4736C15.2113 27.4227 15.2114 27.3718 15.2116 27.3193C15.2119 27.1807 15.212 27.042 15.212 26.9034C15.2121 26.8161 15.2121 26.7288 15.2122 26.6415C15.2126 26.3351 15.2128 26.0286 15.2127 25.7222C15.2127 25.4399 15.2131 25.1576 15.2137 24.8752C15.2143 24.6305 15.2145 24.3857 15.2144 24.141C15.2144 23.9959 15.2145 23.8508 15.2149 23.7057C15.2176 22.7269 15.189 21.751 15.0451 20.7811C14.9058 19.8286 14.9058 19.8286 15.05 19.5221C15.1409 19.4695 15.1409 19.4695 15.2549 19.4372C15.297 19.4251 15.3391 19.4129 15.3824 19.4004C15.6038 19.3445 15.8252 19.2929 16.0489 19.2475C16.0977 19.2375 16.1464 19.2275 16.1967 19.2172C17.0158 19.0546 17.8456 18.9767 18.6803 18.9667C18.7278 18.966 18.7752 18.9653 18.8241 18.9646C18.9742 18.9623 19.1242 18.9602 19.2743 18.9582C20.0676 18.9486 20.0676 18.9486 20.8605 18.9207C20.891 18.9193 20.9215 18.9178 20.953 18.9164C21.16 18.9052 21.3608 18.876 21.5649 18.839C21.7119 18.8132 21.8227 18.8018 21.9722 18.8221C22.038 18.8757 22.038 18.8757 22.1034 18.9412C22.1991 19.0331 22.1991 19.0331 22.3246 19.0634C22.6139 19.0285 22.8849 18.9504 23.1632 18.8659C23.836 18.6675 24.4769 18.5532 25.1781 18.5304C25.5003 18.5199 25.8205 18.5059 26.1399 18.46Z" fill="#883D05"/>
<path d="M29.742 1.43547C29.7964 1.43569 29.7964 1.43569 29.852 1.43592C30.3042 1.43838 30.7564 1.4456 31.2086 1.45344C31.3571 1.45598 31.5056 1.4583 31.6541 1.46061C33.2509 1.48679 33.2509 1.48679 33.4833 1.6723C33.5775 1.80991 33.6214 1.9273 33.6518 2.09062C33.6645 2.15738 33.6645 2.15738 33.6774 2.22549C33.6905 2.29786 33.6905 2.29786 33.7039 2.37169C33.7134 2.42292 33.723 2.47415 33.7326 2.52537C33.7582 2.66288 33.7832 2.80049 33.8081 2.93814C33.8236 3.02369 33.8392 3.10922 33.8549 3.19474C33.9937 3.95318 34.1218 4.71254 34.2295 5.47611C34.235 5.51524 34.2406 5.55436 34.2463 5.59467C34.3189 6.11374 34.3781 6.62536 34.3842 7.15002C34.3918 7.80154 34.4469 8.41637 34.5699 9.05678C34.6046 9.24506 34.6322 9.41472 34.6111 9.60563C34.5353 9.69851 34.442 9.74116 34.3389 9.80007C34.361 10.0982 34.4346 10.3671 34.5188 10.6532C34.7543 11.4821 34.918 12.3261 35.0646 13.1748C35.0774 13.2495 35.0906 13.3241 35.1037 13.3987C35.1112 13.4437 35.1187 13.4888 35.1264 13.5352C35.1363 13.5941 35.1363 13.5941 35.1464 13.6541C35.1589 13.8076 35.1584 13.9476 35.0602 14.0712C34.746 14.3198 34.4568 14.3516 34.0601 14.364C33.9974 14.3664 33.9346 14.3688 33.8719 14.3713C33.8391 14.3725 33.8063 14.3738 33.7725 14.3751C33.2076 14.3979 32.6522 14.4408 32.0931 14.5251C31.5068 14.6129 30.9257 14.6686 30.3333 14.7001C30.2729 14.7035 30.2125 14.707 30.1521 14.7105C28.8245 14.7874 27.503 14.844 26.1823 14.6516C26.1374 14.6451 26.1374 14.6451 26.0915 14.6384C25.9688 14.6205 25.846 14.6026 25.7233 14.5843C25.3272 14.5255 24.9433 14.4829 24.5418 14.5128C24.3843 14.5217 24.318 14.5151 24.19 14.4181C24.0566 14.2373 24.0689 14.0948 24.0769 13.8728C24.0779 13.8451 24.0788 13.8174 24.0797 13.7889C24.0817 13.7296 24.0838 13.6704 24.0859 13.6111C24.0915 13.4559 24.096 13.3008 24.1006 13.1456C24.1016 13.115 24.1025 13.0843 24.1034 13.0528C24.1202 12.4962 24.122 11.9667 24.0373 11.4153C23.9185 10.5989 24.0235 9.79046 24.1306 8.97855C24.1501 8.82635 24.1695 8.67413 24.1888 8.5219C24.2007 8.42821 24.2128 8.33454 24.2252 8.24091C24.2306 8.19878 24.2361 8.15665 24.2417 8.11325C24.2465 8.07651 24.2514 8.03978 24.2563 8.00193C24.2674 7.88694 24.2725 7.7766 24.2667 7.66118C24.2057 7.58617 24.2057 7.58617 24.1208 7.52993C23.9162 7.36662 23.813 7.17771 23.7611 6.9223C23.7118 6.26811 23.8187 5.61297 23.9021 4.96556C23.9225 4.80759 23.9421 4.64954 23.9614 4.49145C23.9767 4.36752 23.9923 4.24365 24.0081 4.11978C24.0155 4.06159 24.0227 4.00338 24.0298 3.94516C24.1849 2.68872 24.1849 2.68872 24.5764 2.34389C25.0306 2.01126 25.6081 1.96702 26.1482 1.88937C26.2286 1.87752 26.3089 1.86563 26.3893 1.8537C26.5569 1.82891 26.7246 1.80438 26.8923 1.78008C27.1065 1.74906 27.3205 1.71759 27.5346 1.68595C27.74 1.65558 27.9455 1.62541 28.151 1.59528C28.1897 1.58959 28.2285 1.5839 28.2684 1.57804C28.3789 1.56185 28.4894 1.54579 28.5999 1.52978C28.632 1.52507 28.664 1.52036 28.697 1.51551C29.0459 1.46527 29.3893 1.43268 29.742 1.43547Z" fill="#883D05"/>
<path d="M15.75 1.74988C15.8773 1.82821 15.9292 1.89299 15.9788 2.03298C15.9911 2.06682 16.0033 2.10065 16.016 2.13551C16.0288 2.17238 16.0415 2.20925 16.0547 2.24723C16.0686 2.28591 16.0824 2.32458 16.0967 2.36443C16.1421 2.49158 16.1867 2.61897 16.2312 2.74641C16.2625 2.83476 16.2937 2.92309 16.325 3.01142C16.3885 3.19121 16.4517 3.37112 16.5146 3.55113C16.5846 3.75149 16.6554 3.95155 16.7266 4.15148C16.9486 4.77552 17.1621 5.39004 17.2904 6.0411C17.4338 6.74085 17.6739 7.41975 17.8932 8.09856C17.9263 8.20083 17.9592 8.30313 17.9921 8.40544C18.2169 9.10352 18.4562 9.79115 18.7381 10.4686C18.8138 10.651 18.8872 10.8343 18.9607 11.0176C18.9738 11.0497 18.9868 11.0818 19.0002 11.1148C19.0121 11.1443 19.024 11.1739 19.0362 11.2043C19.0466 11.2299 19.057 11.2554 19.0676 11.2818C19.1401 11.481 19.162 11.6726 19.1079 11.8809C18.9493 12.1739 18.4176 12.2861 18.1173 12.3801C18.0802 12.3918 18.043 12.4035 18.0048 12.4156C17.6029 12.5407 17.1973 12.6507 16.7903 12.7579C16.7333 12.773 16.7333 12.773 16.6752 12.7884C16.1957 12.9157 15.7159 13.0364 15.2316 13.1436C14.9514 13.2064 14.6763 13.2816 14.401 13.3631C14.362 13.3746 14.3229 13.3862 14.2827 13.3981C14.1472 13.4384 14.0118 13.4788 13.8766 13.5202C13.6257 13.5967 13.3918 13.6523 13.1308 13.6686C12.5782 13.7057 12.0622 13.8624 11.533 14.0169C11.3937 14.0569 11.2543 14.0968 11.1149 14.1366C11.029 14.1611 10.9432 14.1858 10.8575 14.2108C10.432 14.3338 10.0167 14.4366 9.57394 14.4641C9.31011 14.4837 9.06293 14.5158 8.80832 14.5881C8.52889 14.6648 8.1684 14.753 7.89263 14.6237C7.77351 14.4993 7.76296 14.3571 7.7331 14.1911C7.72619 14.1556 7.71927 14.1201 7.71214 14.0834C7.68969 13.9674 7.66812 13.8512 7.64651 13.7349C7.63112 13.655 7.61566 13.575 7.60013 13.495C7.55494 13.2616 7.51068 13.028 7.46665 12.7943C7.28836 11.8464 7.28836 11.8464 6.99999 10.9277C6.76898 10.3178 6.57129 9.70344 6.38749 9.078C6.21642 8.49658 6.04272 7.91651 5.85519 7.34016C5.84514 7.30921 5.83509 7.27826 5.82474 7.24638C5.70121 6.86724 5.57202 6.49034 5.43866 6.11455C5.42514 6.07633 5.41162 6.03812 5.39769 5.99874C5.33195 5.8131 5.26567 5.62769 5.19835 5.44261C5.17438 5.37554 5.15042 5.30846 5.12648 5.24137C5.11533 5.21134 5.10418 5.18131 5.09268 5.15038C5.0238 4.95537 4.99593 4.7959 5.01665 4.58877C5.09248 4.46717 5.19197 4.44655 5.32716 4.41346C5.36829 4.40335 5.40942 4.39324 5.4518 4.38283C5.49749 4.37218 5.54318 4.36154 5.59026 4.35057C5.63836 4.3391 5.68646 4.32763 5.73602 4.31581C6.30384 4.18291 6.87798 4.07872 7.45157 3.9742C7.90655 3.89235 7.90655 3.89235 8.35077 3.76648C8.66684 3.66175 8.99369 3.64448 9.3236 3.61655C9.80561 3.57537 10.2652 3.50857 10.7333 3.38321C10.7959 3.36662 10.7959 3.36662 10.8597 3.3497C11.2241 3.25282 11.5877 3.15323 11.951 3.05266C11.979 3.04492 12.007 3.03718 12.0358 3.02921C12.7226 2.83919 13.4087 2.64813 14.0851 2.42314C14.1252 2.40998 14.1252 2.40998 14.1661 2.39656C14.592 2.2558 15.0077 2.0828 15.3805 1.83009C15.5078 1.7477 15.5961 1.72191 15.75 1.74988Z" fill="#883D05"/>
<path d="M26.1399 18.46C26.2501 18.45 26.3381 18.4524 26.4309 18.5165C26.7707 18.8727 26.858 19.4215 26.9548 19.8867C26.9615 19.9183 26.9683 19.95 26.9752 19.9826C27.0923 20.5407 27.1552 21.0959 27.1897 21.6648C27.1915 21.694 27.1933 21.7233 27.1951 21.7535C27.1996 21.8317 27.2036 21.9099 27.2076 21.9881C27.2172 22.1364 27.2393 22.2814 27.2615 22.4282C27.3129 22.8044 27.313 23.1787 27.3147 23.5577C27.3153 23.6347 27.316 23.7116 27.3167 23.7885C27.3185 23.9896 27.3198 24.1908 27.3211 24.3919C27.3231 24.7134 27.3257 25.0348 27.3284 25.3563C27.3293 25.4673 27.3299 25.5783 27.3305 25.6893C27.3329 26.0342 27.3414 26.377 27.364 26.7212C27.3797 26.9638 27.3828 27.2053 27.3815 27.4483C27.3815 27.5129 27.3815 27.5129 27.3814 27.5789C27.3812 27.7135 27.3807 27.8482 27.3802 27.9829C27.38 28.0754 27.3798 28.1679 27.3796 28.2605C27.3792 28.4847 27.3786 28.709 27.3777 28.9332C27.5881 29.0204 27.7759 29.0227 27.9997 29.0204C28.058 29.0201 28.058 29.0201 28.1174 29.0197C28.612 29.0138 29.1049 28.9779 29.5981 28.9435C29.842 28.9267 30.0861 28.9107 30.3301 28.8948C30.3705 28.8921 30.3705 28.8921 30.4116 28.8894C30.9094 28.8569 31.4074 28.8336 31.9059 28.8141C32.8211 28.7773 33.7225 28.7013 34.628 28.558C35.629 28.4045 35.629 28.4045 36.0111 28.5054C36.0186 30.3835 36.0186 30.3835 35.9965 31.0429C35.9953 31.0832 35.9941 31.1234 35.9929 31.1649C35.9855 31.3494 35.9683 31.5244 35.9329 31.7056C35.8671 32.1267 35.8841 32.5538 35.8855 32.9789C35.8855 33.0739 35.8855 33.1688 35.8855 33.2638C35.8856 33.4624 35.8859 33.661 35.8864 33.8596C35.8871 34.1119 35.8872 34.3642 35.8872 34.6164C35.8872 34.8126 35.8874 35.0087 35.8877 35.2048C35.8878 35.2977 35.8879 35.3906 35.8879 35.4835C35.8882 35.958 35.8921 36.431 35.9209 36.9048C35.9338 37.1264 35.9306 37.3448 35.9212 37.5666C35.9063 38.2058 36.0534 38.8455 36.1666 39.4721C35.906 39.6087 35.6377 39.6322 35.3483 39.6669C35.2949 39.6735 35.2415 39.6803 35.188 39.687C35.0763 39.701 34.9645 39.7148 34.8528 39.7284C34.7108 39.7456 34.5689 39.7632 34.427 39.781C34.2901 39.7982 34.1532 39.8152 34.0164 39.8321C33.966 39.8384 33.9157 39.8446 33.8638 39.851C33.4072 39.9065 32.9623 39.9448 32.5021 39.9344C31.4265 39.9176 30.3665 39.9385 29.2955 40.0433C29.2689 40.0459 29.2424 40.0485 29.2151 40.0511C28.4559 40.1258 27.6972 40.2097 26.9409 40.3092C26.4751 40.3698 26.0484 40.4007 25.5889 40.2888C25.5311 39.7883 25.4916 39.2899 25.4698 38.7867C25.4674 38.734 25.4674 38.734 25.465 38.6802C25.4262 37.8139 25.4078 36.9472 25.396 36.0802C25.3945 35.978 25.3928 35.8759 25.391 35.7737C25.38 35.1167 25.3947 34.4712 25.4585 33.8171C25.5063 33.3262 25.5258 32.8382 25.5347 32.3452C25.5438 31.8479 25.5634 31.3523 25.5913 30.8558C25.6142 30.4402 25.6355 30.0253 25.6375 29.6089C25.638 29.5561 25.638 29.5561 25.6385 29.5022C25.6377 29.3339 25.6287 29.203 25.55 29.0499C25.2576 28.9899 25.0058 29.0439 24.7163 29.1034C24.2359 29.1992 23.7921 29.2519 23.3017 29.2516C23.2514 29.2516 23.2011 29.2517 23.1493 29.2517C22.8733 29.2502 22.6033 29.2393 22.3295 29.2054C22.0126 29.1685 21.6957 29.1506 21.3769 29.1442C21.3227 29.1429 21.2685 29.1411 21.2143 29.1386C20.8306 29.122 20.6009 29.1839 20.2949 29.401C19.9919 29.6092 19.6695 29.6445 19.3115 29.6437C19.2737 29.6436 19.2359 29.6436 19.197 29.6435C18.6037 29.6367 18.0116 29.5857 17.4203 29.5399C17.2443 29.5263 17.0681 29.5134 16.892 29.5007C16.7548 29.4908 16.6177 29.4803 16.4805 29.4698C16.4156 29.4649 16.3506 29.4601 16.2856 29.4554C16.1951 29.4489 16.1047 29.4418 16.0142 29.4345C15.9749 29.4319 15.9749 29.4319 15.9348 29.4292C15.6325 29.4035 15.4041 29.3234 15.2055 29.0888C15.1479 28.9735 15.1615 28.8695 15.1618 28.7412C15.1617 28.6927 15.1616 28.6443 15.1615 28.5943C15.1635 28.4739 15.1734 28.356 15.1861 28.2362C15.2096 27.9818 15.2113 27.729 15.2112 27.4736C15.2113 27.4227 15.2114 27.3718 15.2116 27.3193C15.2119 27.1807 15.212 27.042 15.212 26.9034C15.2121 26.8161 15.2121 26.7288 15.2122 26.6415C15.2126 26.3351 15.2128 26.0286 15.2127 25.7222C15.2127 25.4399 15.2131 25.1576 15.2137 24.8752C15.2143 24.6305 15.2145 24.3857 15.2144 24.141C15.2144 23.9959 15.2145 23.8508 15.2149 23.7057C15.2176 22.7269 15.189 21.751 15.0451 20.7811C14.9058 19.8286 14.9058 19.8286 15.05 19.5221C15.1409 19.4695 15.1409 19.4695 15.2549 19.4372C15.297 19.4251 15.3391 19.4129 15.3824 19.4004C15.6038 19.3445 15.8252 19.2929 16.0489 19.2475C16.0977 19.2375 16.1464 19.2275 16.1967 19.2172C17.0158 19.0546 17.8456 18.9767 18.6803 18.9667C18.7278 18.966 18.7752 18.9653 18.8241 18.9646C18.9742 18.9623 19.1242 18.9602 19.2743 18.9582C20.0676 18.9486 20.0676 18.9486 20.8605 18.9207C20.891 18.9193 20.9215 18.9178 20.953 18.9164C21.16 18.9052 21.3608 18.876 21.5649 18.839C21.7119 18.8132 21.8227 18.8018 21.9722 18.8221C22.038 18.8757 22.038 18.8757 22.1034 18.9412C22.1991 19.0331 22.1991 19.0331 22.3246 19.0634C22.6139 19.0285 22.8849 18.9504 23.1632 18.8659C23.836 18.6675 24.4769 18.5532 25.1781 18.5304C25.5003 18.5199 25.8205 18.5059 26.1399 18.46Z" fill="#883D05"/>
<path d="M29.742 1.43547C29.7964 1.43569 29.7964 1.43569 29.852 1.43592C30.3042 1.43838 30.7564 1.4456 31.2086 1.45344C31.3571 1.45598 31.5056 1.4583 31.6541 1.46061C33.2509 1.48679 33.2509 1.48679 33.4833 1.6723C33.5775 1.80991 33.6214 1.9273 33.6518 2.09062C33.6645 2.15738 33.6645 2.15738 33.6774 2.22549C33.6905 2.29786 33.6905 2.29786 33.7039 2.37169C33.7134 2.42292 33.723 2.47415 33.7326 2.52537C33.7582 2.66288 33.7832 2.80049 33.8081 2.93814C33.8236 3.02369 33.8392 3.10922 33.8549 3.19474C33.9937 3.95318 34.1218 4.71254 34.2295 5.47611C34.235 5.51524 34.2406 5.55436 34.2463 5.59467C34.3189 6.11374 34.3781 6.62536 34.3842 7.15002C34.3918 7.80154 34.4469 8.41637 34.5699 9.05678C34.6046 9.24506 34.6322 9.41472 34.6111 9.60563C34.5353 9.69851 34.442 9.74116 34.3389 9.80007C34.361 10.0982 34.4346 10.3671 34.5188 10.6532C34.7543 11.4821 34.918 12.3261 35.0646 13.1748C35.0774 13.2495 35.0906 13.3241 35.1037 13.3987C35.1112 13.4437 35.1187 13.4888 35.1264 13.5352C35.1363 13.5941 35.1363 13.5941 35.1464 13.6541C35.1589 13.8076 35.1584 13.9476 35.0602 14.0712C34.746 14.3198 34.4568 14.3516 34.0601 14.364C33.9974 14.3664 33.9346 14.3688 33.8719 14.3713C33.8391 14.3725 33.8063 14.3738 33.7725 14.3751C33.2076 14.3979 32.6522 14.4408 32.0931 14.5251C31.5068 14.6129 30.9257 14.6686 30.3333 14.7001C30.2729 14.7035 30.2125 14.707 30.1521 14.7105C28.8245 14.7874 27.503 14.844 26.1823 14.6516C26.1374 14.6451 26.1374 14.6451 26.0915 14.6384C25.9688 14.6205 25.846 14.6026 25.7233 14.5843C25.3272 14.5255 24.9433 14.4829 24.5418 14.5128C24.3843 14.5217 24.318 14.5151 24.19 14.4181C24.0566 14.2373 24.0689 14.0948 24.0769 13.8728C24.0779 13.8451 24.0788 13.8174 24.0797 13.7889C24.0817 13.7296 24.0838 13.6704 24.0859 13.6111C24.0915 13.4559 24.096 13.3008 24.1006 13.1456C24.1016 13.115 24.1025 13.0843 24.1034 13.0528C24.1202 12.4962 24.122 11.9667 24.0373 11.4153C23.9185 10.5989 24.0235 9.79046 24.1306 8.97855C24.1501 8.82635 24.1695 8.67413 24.1888 8.5219C24.2007 8.42821 24.2128 8.33454 24.2252 8.24091C24.2306 8.19878 24.2361 8.15665 24.2417 8.11325C24.2465 8.07651 24.2514 8.03978 24.2563 8.00193C24.2674 7.88694 24.2725 7.7766 24.2667 7.66118C24.2057 7.58617 24.2057 7.58617 24.1208 7.52993C23.9162 7.36662 23.813 7.17771 23.7611 6.9223C23.7118 6.26811 23.8187 5.61297 23.9021 4.96556C23.9225 4.80759 23.9421 4.64954 23.9614 4.49145C23.9767 4.36752 23.9923 4.24365 24.0081 4.11978C24.0155 4.06159 24.0227 4.00338 24.0298 3.94516C24.1849 2.68872 24.1849 2.68872 24.5764 2.34389C25.0306 2.01126 25.6081 1.96702 26.1482 1.88937C26.2286 1.87752 26.3089 1.86563 26.3893 1.8537C26.5569 1.82891 26.7246 1.80438 26.8923 1.78008C27.1065 1.74906 27.3205 1.71759 27.5346 1.68595C27.74 1.65558 27.9455 1.62541 28.151 1.59528C28.1897 1.58959 28.2285 1.5839 28.2684 1.57804C28.3789 1.56185 28.4894 1.54579 28.5999 1.52978C28.632 1.52507 28.664 1.52036 28.697 1.51551C29.0459 1.46527 29.3893 1.43268 29.742 1.43547Z" fill="#883D05"/>
<path d="M15.75 1.74988C15.8773 1.82821 15.9292 1.89299 15.9788 2.03298C15.9911 2.06682 16.0033 2.10065 16.016 2.13551C16.0288 2.17238 16.0415 2.20925 16.0547 2.24723C16.0686 2.28591 16.0824 2.32458 16.0967 2.36443C16.1421 2.49158 16.1867 2.61897 16.2312 2.74641C16.2625 2.83476 16.2937 2.92309 16.325 3.01142C16.3885 3.19121 16.4517 3.37112 16.5146 3.55113C16.5846 3.75149 16.6554 3.95155 16.7266 4.15148C16.9486 4.77552 17.1621 5.39004 17.2904 6.0411C17.4338 6.74085 17.6739 7.41975 17.8932 8.09856C17.9263 8.20083 17.9592 8.30313 17.9921 8.40544C18.2169 9.10352 18.4562 9.79115 18.7381 10.4686C18.8138 10.651 18.8872 10.8343 18.9607 11.0176C18.9738 11.0497 18.9868 11.0818 19.0002 11.1148C19.0121 11.1443 19.024 11.1739 19.0362 11.2043C19.0466 11.2299 19.057 11.2554 19.0676 11.2818C19.1401 11.481 19.162 11.6726 19.1079 11.8809C18.9493 12.1739 18.4176 12.2861 18.1173 12.3801C18.0802 12.3918 18.043 12.4035 18.0048 12.4156C17.6029 12.5407 17.1973 12.6507 16.7903 12.7579C16.7333 12.773 16.7333 12.773 16.6752 12.7884C16.1957 12.9157 15.7159 13.0364 15.2316 13.1436C14.9514 13.2064 14.6763 13.2816 14.401 13.3631C14.362 13.3746 14.3229 13.3862 14.2827 13.3981C14.1472 13.4384 14.0118 13.4788 13.8766 13.5202C13.6257 13.5967 13.3918 13.6523 13.1308 13.6686C12.5782 13.7057 12.0622 13.8624 11.533 14.0169C11.3937 14.0569 11.2543 14.0968 11.1149 14.1366C11.029 14.1611 10.9432 14.1858 10.8575 14.2108C10.432 14.3338 10.0167 14.4366 9.57394 14.4641C9.31011 14.4837 9.06293 14.5158 8.80832 14.5881C8.52889 14.6648 8.1684 14.753 7.89263 14.6237C7.77351 14.4993 7.76296 14.3571 7.7331 14.1911C7.72619 14.1556 7.71927 14.1201 7.71214 14.0834C7.68969 13.9674 7.66812 13.8512 7.64651 13.7349C7.63112 13.655 7.61566 13.575 7.60013 13.495C7.55494 13.2616 7.51068 13.028 7.46665 12.7943C7.28836 11.8464 7.28836 11.8464 6.99999 10.9277C6.76898 10.3178 6.57129 9.70344 6.38749 9.078C6.21642 8.49658 6.04272 7.91651 5.85519 7.34016C5.84514 7.30921 5.83509 7.27826 5.82474 7.24638C5.70121 6.86724 5.57202 6.49034 5.43866 6.11455C5.42514 6.07633 5.41162 6.03812 5.39769 5.99874C5.33195 5.8131 5.26567 5.62769 5.19835 5.44261C5.17438 5.37554 5.15042 5.30846 5.12648 5.24137C5.11533 5.21134 5.10418 5.18131 5.09268 5.15038C5.0238 4.95537 4.99593 4.7959 5.01665 4.58877C5.09248 4.46717 5.19197 4.44655 5.32716 4.41346C5.36829 4.40335 5.40942 4.39324 5.4518 4.38283C5.49749 4.37218 5.54318 4.36154 5.59026 4.35057C5.63836 4.3391 5.68646 4.32763 5.73602 4.31581C6.30384 4.18291 6.87798 4.07872 7.45157 3.9742C7.90655 3.89235 7.90655 3.89235 8.35077 3.76648C8.66684 3.66175 8.99369 3.64448 9.3236 3.61655C9.80561 3.57537 10.2652 3.50857 10.7333 3.38321C10.7959 3.36662 10.7959 3.36662 10.8597 3.3497C11.2241 3.25282 11.5877 3.15323 11.951 3.05266C11.979 3.04492 12.007 3.03718 12.0358 3.02921C12.7226 2.83919 13.4087 2.64813 14.0851 2.42314C14.1252 2.40998 14.1252 2.40998 14.1661 2.39656C14.592 2.2558 15.0077 2.0828 15.3805 1.83009C15.5078 1.7477 15.5961 1.72191 15.75 1.74988Z" fill="#883D05"/>
</g>
<defs>
<clipPath id="clip0_7813_13198">
<rect width="42" height="42" fill="white"/>
</clipPath>
</defs>
</svg>
