<svg width="39" height="40" viewBox="0 0 39 40" fill="none" xmlns="http://www.w3.org/2000/svg">
<path d="M1.99443 0.749879C2.81031 0.743238 3.62235 0.757199 4.43744 0.796102C4.58944 0.803277 4.74145 0.810074 4.89346 0.816914C5.16359 0.829105 5.4337 0.841472 5.70382 0.85395C6.43762 0.887818 7.17147 0.920493 7.90533 0.953155C8.03575 0.958962 8.16617 0.964778 8.2966 0.970594C9.98696 1.04592 11.6775 1.1171 13.3681 1.18738C13.401 1.18875 13.4339 1.19012 13.4678 1.19152C14.4101 1.23069 15.3523 1.2697 16.2946 1.30865C16.6238 1.32226 16.953 1.33588 17.2822 1.34949C17.8255 1.37196 18.3688 1.39443 18.9121 1.4169C18.9432 1.41818 18.9743 1.41947 19.0064 1.4208C19.3488 1.43496 19.6912 1.44911 20.0335 1.46326C22.2116 1.55326 24.3896 1.6444 26.5676 1.73621C27.1711 1.76166 27.7747 1.787 28.3782 1.8123C28.6086 1.82195 28.8389 1.83162 29.0693 1.84128C29.1118 1.84307 29.1544 1.84485 29.1982 1.84669C30.6352 1.90699 32.0721 1.96739 33.509 2.02941C34.1198 2.05575 34.7307 2.08158 35.3415 2.10704C35.4687 2.11235 35.5959 2.11766 35.7231 2.12297C35.7651 2.12473 35.8071 2.12649 35.8504 2.12829C35.9354 2.13184 36.0203 2.13539 36.1052 2.13894C36.3539 2.14933 36.6026 2.15965 36.8513 2.16994C37.0064 2.17637 37.1616 2.18285 37.3167 2.18934C37.3887 2.19235 37.4608 2.19533 37.5328 2.19829C37.7254 2.2062 37.918 2.21445 38.1105 2.22348C38.1707 2.22629 38.2309 2.22901 38.291 2.23164C38.3773 2.23551 38.4635 2.23986 38.5497 2.24435C38.6232 2.24795 38.6232 2.24795 38.6981 2.25163C38.812 2.26531 38.8813 2.28476 38.9778 2.34432C38.9847 2.87766 38.9777 3.40958 38.9536 3.94241C38.9524 3.96972 38.9511 3.99703 38.9499 4.02517C38.9408 4.22323 38.9314 4.42128 38.9219 4.61932C38.9111 4.84333 38.9006 5.06734 38.8904 5.29137C38.8891 5.31973 38.8878 5.34808 38.8865 5.37729C38.8655 5.84272 38.8526 6.30808 38.8426 6.77386C38.8256 7.55574 38.7928 8.33656 38.7573 9.11779C38.7392 9.51462 38.7217 9.91147 38.7045 10.3083C38.7028 10.3477 38.7011 10.387 38.6993 10.4276C38.6742 11.0078 38.6531 11.588 38.6369 12.1685C38.6354 12.2224 38.6338 12.2764 38.6323 12.3303C38.6295 12.4307 38.6267 12.5311 38.6239 12.6315C38.6036 13.3585 38.571 14.0842 38.5316 14.8104C38.4684 15.9739 38.4139 17.1377 38.37 18.3021C38.3688 18.3351 38.3675 18.3681 38.3662 18.402C38.3507 18.8151 38.3355 19.2282 38.3205 19.6413C38.3068 20.0161 38.2929 20.391 38.279 20.7658C38.2538 21.4431 38.2288 22.1203 38.2039 22.7975C38.1705 23.7087 38.1368 24.6199 38.1031 25.5311C38.0944 25.7663 38.0857 26.0015 38.077 26.2367C38.0755 26.2756 38.0741 26.3144 38.0726 26.3545C38.0712 26.3933 38.0697 26.4322 38.0683 26.4722C38.0639 26.5899 38.0595 26.7076 38.0552 26.8252C38.0393 27.2555 38.0234 27.6857 38.0075 28.1159C37.9229 30.4053 37.8376 32.6948 37.7513 34.9842C37.7408 35.2623 37.7304 35.5405 37.7199 35.8187C37.7073 36.1546 37.6947 36.4905 37.682 36.8264C37.6755 36.9971 37.6691 37.1678 37.6627 37.3385C37.6568 37.4952 37.6509 37.6519 37.6449 37.8086C37.6428 37.8648 37.6407 37.921 37.6386 37.9772C37.6276 38.2734 37.6145 38.5695 37.5981 38.8654C37.5966 38.8926 37.5952 38.9198 37.5937 38.9479C37.5848 39.1025 37.5737 39.2543 37.5389 39.4054C37.3945 39.4776 37.2212 39.4506 37.0623 39.4501C36.9984 39.45 36.9984 39.45 36.9332 39.4498C36.3254 39.4461 35.7183 39.4195 35.1111 39.3948C34.982 39.3896 34.853 39.3846 34.7239 39.3797C34.595 39.3747 34.4661 39.3696 34.3372 39.3645C34.2778 39.3621 34.2184 39.3598 34.1591 39.3575C33.8419 39.3452 33.525 39.3299 33.2082 39.31C32.4139 39.2603 31.6202 39.2291 30.8247 39.2057C29.3559 39.1623 27.8878 39.1043 26.4197 39.0392C26.3719 39.0371 26.324 39.0349 26.2748 39.0328C25.6769 39.0062 25.0791 38.9794 24.4813 38.9525C23.9241 38.9273 23.3669 38.9025 22.8097 38.8776C22.5934 38.868 22.377 38.8583 22.1607 38.8487C22.1067 38.8463 22.0526 38.8439 21.9986 38.8415C21.6217 38.8246 21.2449 38.8078 20.8681 38.7909C19.5574 38.7323 18.2466 38.6744 16.9358 38.6178C16.8581 38.6144 16.7804 38.6111 16.7027 38.6077C16.4008 38.5946 16.0989 38.5816 15.797 38.5685C13.2696 38.4592 10.7425 38.3444 8.21577 38.2213C7.96273 38.209 7.70969 38.1967 7.45665 38.1844C7.42932 38.1831 7.402 38.1817 7.37384 38.1804C6.53939 38.1398 5.70486 38.1013 4.87023 38.0647C4.81896 38.0624 4.7677 38.0602 4.71487 38.0578C4.23362 38.0367 3.75235 38.0158 3.27107 37.9953C2.76769 37.9739 2.26436 37.9516 1.7611 37.9277C1.71176 37.9253 1.71176 37.9253 1.66142 37.923C1.48169 37.9144 1.30201 37.9053 1.12236 37.8951C1.046 37.8909 0.96961 37.8872 0.893221 37.8834C0.849071 37.8808 0.804921 37.8781 0.759433 37.8753C0.72154 37.8732 0.683646 37.8711 0.644605 37.8689C0.555541 37.8499 0.555541 37.8499 0.477764 37.7332C0.471887 37.6098 0.471887 37.6098 0.477308 37.4569C0.478176 37.4294 0.479045 37.4019 0.47994 37.3735C0.482879 37.2835 0.486395 37.1936 0.489916 37.1037C0.492049 37.0415 0.494147 36.9792 0.496211 36.917C0.508031 36.5692 0.522945 36.2215 0.538527 35.8738C0.551871 35.5716 0.560596 35.2697 0.562833 34.9672C0.563337 34.932 0.563842 34.8967 0.564362 34.8603C0.564578 34.7082 0.560486 34.5971 0.508905 34.4523C0.498628 34.4185 0.488352 34.3847 0.477764 34.3499C0.516419 34.2979 0.555333 34.246 0.59443 34.1943C0.615845 34.1147 0.615845 34.1147 0.619479 34.028C0.621992 33.9936 0.624504 33.9592 0.627092 33.9237C0.629147 33.8847 0.631202 33.8456 0.633319 33.8054C0.636799 33.7399 0.636799 33.7399 0.640349 33.6731C0.647868 33.5153 0.654204 33.3574 0.660309 33.1994C0.662761 33.1382 0.665223 33.0771 0.667694 33.0159C0.674429 32.8484 0.68102 32.6809 0.687587 32.5135C0.694715 32.3323 0.70198 32.1512 0.709228 31.97C0.721799 31.6554 0.734287 31.3408 0.746721 31.0262C0.76489 30.5665 0.783207 30.1068 0.801562 29.6471C0.831596 28.8948 0.86154 28.1425 0.891414 27.3902C0.893202 27.3452 0.894989 27.3001 0.896831 27.2538C0.904059 27.0718 0.911286 26.8897 0.918513 26.7077C0.976073 25.2581 1.03372 23.8084 1.09158 22.3587C1.09841 22.1876 1.10523 22.0165 1.11205 21.8454C1.20042 19.6295 1.2916 17.4137 1.39066 15.1982C1.39792 15.0359 1.40517 14.8736 1.41241 14.7113C1.41411 14.6732 1.41581 14.6351 1.41756 14.5958C1.46043 13.6333 1.4964 12.6705 1.53 11.7076C1.54851 11.1778 1.56794 10.6481 1.58746 10.1183C1.58851 10.0898 1.58956 10.0612 1.59065 10.0318C1.65352 8.32525 1.72359 6.61893 1.79377 4.91262C1.80616 4.61132 1.81847 4.31002 1.83076 4.00872C1.84581 3.63999 1.86095 3.27127 1.87624 2.90255C1.88413 2.71213 1.89198 2.52171 1.89973 2.33128C1.9069 2.15519 1.9142 1.97911 1.92159 1.80303C1.92426 1.73907 1.92688 1.6751 1.92945 1.61113C1.93297 1.52391 1.93665 1.4367 1.94036 1.34949C1.94237 1.30096 1.94437 1.25243 1.94644 1.20243C1.95624 1.05015 1.9741 0.901075 1.99443 0.749879ZM21.7881 6.07441C21.6373 6.08724 21.4866 6.09941 21.3358 6.11153C20.4757 6.18283 19.6437 6.31691 18.8041 6.51448C17.8347 6.74107 16.8627 6.88934 15.8763 7.01813C15.7959 7.02863 15.7154 7.03916 15.635 7.04972C15.4417 7.07506 15.2484 7.10004 15.055 7.12412C14.563 7.18345 14.563 7.18345 14.0889 7.3221C14.0572 7.33427 14.0256 7.34644 13.993 7.35899C12.1709 8.08971 10.4676 9.19789 8.91665 10.3943C8.88397 10.419 8.85128 10.4437 8.81761 10.4691C7.65171 11.3806 6.90617 12.6479 6.13325 13.8838C6.07251 13.9805 6.01123 14.0768 5.94986 14.1731C5.91793 14.2233 5.91793 14.2233 5.88536 14.2745C5.84481 14.3382 5.80419 14.4018 5.76347 14.4654C5.57995 14.7545 5.46284 14.9935 5.4381 15.3384C5.43521 15.3778 5.43233 15.4172 5.42936 15.4578C5.42634 15.5007 5.42333 15.5435 5.42023 15.5877C5.41694 15.6332 5.41364 15.6787 5.41025 15.7256C5.40123 15.8506 5.39233 15.9757 5.38348 16.1007C5.376 16.2064 5.36844 16.3121 5.36088 16.4178C5.34292 16.6691 5.32509 16.9204 5.30734 17.1717C5.29133 17.3985 5.27515 17.6253 5.25881 17.8521C5.03572 20.3058 5.03572 20.3058 5.0861 22.761C5.09336 22.8446 5.1006 22.9283 5.10782 23.0119C5.16657 23.6644 5.26511 24.3057 5.38958 24.9485C5.43912 25.2153 5.47783 25.484 5.51509 25.7527C5.58075 26.1899 5.75282 26.5632 5.95867 26.9513C5.98052 26.9928 6.00237 27.0344 6.02489 27.0772C6.1821 27.3744 6.34344 27.6692 6.50797 27.9624C6.5288 27.9996 6.54962 28.0368 6.57108 28.0752C6.71473 28.3282 6.85346 28.5316 7.08401 28.7134C7.25522 28.8507 7.42333 28.9907 7.58957 29.1339C7.61255 29.1536 7.63553 29.1734 7.6592 29.1937C7.77128 29.2899 7.8831 29.3864 7.99456 29.4833C8.68798 30.0831 9.39826 30.4978 10.272 30.7831C10.3773 30.8183 10.4806 30.8582 10.584 30.8985C11.0688 31.0732 11.584 31.1201 12.0924 31.1807C12.6854 31.2515 13.2755 31.3225 13.8589 31.4537C14.2517 31.5394 14.6233 31.5236 15.0173 31.4551C16.0411 31.2921 17.0776 31.3502 18.109 31.4065C18.2089 31.4117 18.3088 31.4169 18.4088 31.4222C19.1051 31.4591 19.801 31.5023 20.4964 31.5532C21.0285 31.5917 21.5318 31.6255 22.0538 31.4915C22.0964 31.4811 22.139 31.4707 22.1828 31.46C22.2751 31.4374 22.3673 31.4146 22.4594 31.3915C22.6111 31.3541 22.7631 31.3183 22.9153 31.283C24.22 30.9784 25.4692 30.5792 26.692 30.0266C26.9338 29.9189 27.1737 29.8298 27.4278 29.7561C27.9926 29.59 28.4549 29.3284 28.8667 28.9054C28.8983 28.8738 28.9299 28.8423 28.9625 28.8097C29.0294 28.7427 29.0962 28.6754 29.1627 28.608C29.48 28.2875 29.48 28.2875 29.6469 28.1471C29.9848 27.8567 30.2555 27.5043 30.5226 27.1501C30.6039 27.0433 30.6867 26.9378 30.7694 26.8322C30.8875 26.6811 31.005 26.5295 31.1222 26.3777C31.1584 26.3308 31.1584 26.3308 31.1954 26.2829C31.7547 25.556 32.2378 24.7952 32.6925 23.9991C32.7331 23.928 32.7738 23.8571 32.8148 23.7862C32.8683 23.6934 32.9214 23.6003 32.9743 23.5072C32.9894 23.481 33.0046 23.4548 33.0202 23.4278C33.2791 22.9658 33.3598 22.4791 33.4458 21.9636C33.4591 21.8856 33.4725 21.8075 33.4859 21.7295C33.521 21.5244 33.5555 21.3192 33.59 21.114C33.6178 20.9492 33.646 20.7845 33.6741 20.6198C33.9576 18.9907 33.9576 18.9907 34.1628 17.3506C34.1724 17.2552 34.1821 17.1597 34.1918 17.0643C34.1977 17.0062 34.2035 16.9482 34.2092 16.8901C34.2225 16.756 34.2372 16.6222 34.2543 16.4886C34.3722 15.5394 34.2415 14.4159 33.9611 13.5054C33.9475 13.4609 33.9339 13.4164 33.9199 13.3706C33.7271 12.7496 33.5114 12.1445 33.2222 11.561C33.2093 11.5343 33.1964 11.5077 33.1831 11.4802C32.9584 11.019 32.6656 10.6409 32.3351 10.2509C32.1746 10.0608 32.0293 9.86316 31.8854 9.66029C31.5457 9.18417 31.2014 8.7664 30.7333 8.41099C30.6793 8.3682 30.6253 8.3253 30.5714 8.28232C29.7244 7.60974 28.9522 7.1757 27.8857 6.94423C27.6395 6.88948 27.3964 6.82677 27.1536 6.75927C27.1225 6.75067 27.0913 6.74206 27.0593 6.73319C26.9037 6.69005 26.7482 6.64633 26.593 6.6018C26.1979 6.49043 25.8139 6.427 25.4055 6.38877C24.8213 6.32169 24.255 6.203 23.6841 6.06275C23.0636 5.92282 22.4144 6.02071 21.7881 6.07441Z" fill="#FFBB4F"/>
</svg>
