<svg width="42" height="42" viewBox="0 0 42 42" fill="none" xmlns="http://www.w3.org/2000/svg">
<path d="M25.6527 3.60599C25.7202 3.60549 25.7202 3.60549 25.7892 3.60498C26.1721 3.60688 26.5382 3.66415 26.911 3.75C27.2014 3.81536 27.4924 3.87693 27.7841 3.93648C27.8673 3.95366 27.9503 3.97153 28.0333 3.98949C28.3058 4.04676 28.5714 4.08748 28.8495 4.10461C29.4365 4.14174 29.9893 4.28538 30.5545 4.43898C30.6832 4.4738 30.812 4.50788 30.9409 4.54198C31.0937 4.58245 31.2465 4.62297 31.3991 4.66391C31.7932 4.76942 32.1885 4.86906 32.5851 4.96491C32.9124 5.04509 33.2165 5.14503 33.5222 5.28884C33.5682 5.31 33.6142 5.33115 33.6615 5.35295C33.9708 5.50105 34.255 5.67258 34.5333 5.87218C34.575 5.90192 34.575 5.90192 34.6174 5.93226C34.9961 6.20409 35.3645 6.48344 35.7155 6.79028C35.7832 6.84911 35.8516 6.90712 35.9201 6.96502C35.9683 7.00583 36.0164 7.04664 36.0646 7.08746C36.0863 7.10578 36.1081 7.12411 36.1305 7.143C36.3957 7.36923 36.6258 7.61063 36.8351 7.88954C36.8566 7.918 36.8782 7.94646 36.9004 7.97578C37.0723 8.20406 37.2377 8.43668 37.4016 8.67074C37.6228 8.98652 37.8479 9.29476 38.1038 9.58364C38.9852 10.6394 39.4373 12.1275 39.8028 13.4312C39.8155 13.4762 39.8282 13.5212 39.8412 13.5676C39.9798 14.08 40.0306 14.5993 40.0724 15.1267C40.0797 15.2187 40.0877 15.3106 40.0957 15.4025C40.1633 16.2191 40.1398 17.0236 40.0556 17.8378C40.0491 17.9013 40.0491 17.9013 40.0426 17.966C39.8472 19.8863 39.4981 21.791 39.1678 23.692C39.137 23.8695 39.1067 24.0471 39.0767 24.2247C39.057 24.341 39.0368 24.4572 39.0165 24.5734C39.0072 24.6273 38.998 24.6813 38.9891 24.7352C38.9044 25.2437 38.7393 25.6896 38.4878 26.1381C38.468 26.1739 38.4482 26.2097 38.4278 26.2466C38.1637 26.7202 37.8855 27.1856 37.6056 27.65C37.5828 27.6879 37.5601 27.7258 37.5367 27.7648C37.1347 28.4333 36.6845 29.0573 36.2056 29.6722C36.1406 29.7563 36.0759 29.8407 36.0111 29.925C35.9787 29.9671 35.9462 30.0093 35.9137 30.0515C35.8493 30.1352 35.785 30.2189 35.7208 30.3028C34.4846 31.9147 34.4846 31.9147 33.9465 32.3415C33.8224 32.4422 33.7032 32.5466 33.5854 32.6545C33.5642 32.6739 33.543 32.6933 33.5212 32.7133C33.3866 32.8389 33.2633 32.9707 33.142 33.109C32.8744 33.4124 32.598 33.611 32.2389 33.7944C32.2157 33.8067 32.1926 33.8189 32.1688 33.8315C31.8873 33.9796 31.607 34.0843 31.3007 34.1687C30.9635 34.2623 30.6509 34.3945 30.3333 34.5406C28.8741 35.2095 27.3761 35.6794 25.8176 36.0537C25.5899 36.1084 25.3626 36.1646 25.1356 36.2222C25.1066 36.2296 25.0775 36.2369 25.0476 36.2445C24.9388 36.2721 24.8299 36.2997 24.7211 36.3275C24.6492 36.3458 24.5773 36.3639 24.5053 36.382C24.4456 36.3972 24.4456 36.3972 24.3846 36.4127C24.0941 36.4771 23.8157 36.4846 23.5187 36.4839C23.4725 36.4838 23.4262 36.4837 23.3786 36.4836C22.9259 36.4808 22.4755 36.4569 22.0239 36.4273C21.8784 36.4178 21.7329 36.4088 21.5874 36.3999C21.1745 36.3745 20.7617 36.3483 20.3489 36.3218C19.3236 36.2562 18.3002 36.1926 17.2724 36.1937C17.2362 36.1937 17.2 36.1937 17.1628 36.1937C16.5371 36.1949 15.9275 36.2445 15.3091 36.3428C14.7718 36.4276 14.3227 36.4168 13.7899 36.3091C13.3119 36.213 12.8332 36.1346 12.3496 36.0727C12.3075 36.0673 12.3075 36.0673 12.2646 36.0618C12.0653 36.0363 11.866 36.0115 11.6667 35.9868C11.4647 35.9617 11.2627 35.9365 11.0608 35.9106C10.9823 35.9006 10.9037 35.8911 10.8251 35.8816C10.3464 35.8205 9.8768 35.7168 9.42447 35.5462C9.38269 35.5308 9.38269 35.5308 9.34007 35.5151C9.28226 35.4937 9.2245 35.4722 9.16682 35.4504C9.08077 35.4181 8.99448 35.3865 8.90813 35.355C7.89043 34.9784 7.06431 34.4033 6.25034 33.6968C6.14362 33.6045 6.0359 33.5135 5.92812 33.4225C5.9075 33.4051 5.88688 33.3877 5.86564 33.3697C5.73806 33.2618 5.61024 33.1543 5.48232 33.0469C5.41838 32.9929 5.35483 32.9385 5.29131 32.884C5.21804 32.8213 5.14438 32.762 5.0677 32.7032C4.77125 32.4656 4.62132 32.1728 4.45042 31.8412C4.36642 31.6793 4.27953 31.519 4.19287 31.3586C4.1458 31.2714 4.09885 31.1842 4.05202 31.0969C3.89965 30.8129 3.74503 30.5304 3.58537 30.2504C3.41547 29.9492 3.28922 29.66 3.22777 29.3185C3.22146 29.2852 3.21514 29.2519 3.20863 29.2176C3.18848 29.1099 3.16912 29.0022 3.15 28.8944C3.14358 28.8584 3.13716 28.8224 3.13055 28.7854C3.08314 28.5174 3.03828 28.2491 2.99444 27.9805C2.98431 27.9186 2.98431 27.9186 2.97398 27.8555C2.85927 27.1507 2.76399 26.4461 2.69727 25.7352C2.68483 25.6046 2.67105 25.4742 2.6569 25.3438C2.60152 24.7943 2.59755 24.2448 2.59583 23.693C2.59562 23.6577 2.59541 23.6223 2.5952 23.5859C2.58827 22.0337 2.70768 20.4828 2.82609 18.9363C2.84342 18.7089 2.86038 18.4816 2.87739 18.2543C2.90673 17.8629 2.93665 17.4716 2.96697 17.0803C2.98474 16.8504 3.00198 16.6205 3.0186 16.3905C3.02831 16.2568 3.03836 16.1231 3.04849 15.9894C3.05298 15.9291 3.05732 15.8688 3.0615 15.8085C3.09346 15.3481 3.16056 14.9673 3.4125 14.576C3.43087 14.5467 3.44924 14.5173 3.46817 14.4871C3.64952 14.1994 3.83673 13.9153 4.02349 13.6311C4.16702 13.4122 4.30623 13.1916 4.44062 12.967C4.63778 12.6391 4.84857 12.3205 5.06041 12.002C5.07682 11.9773 5.09322 11.9525 5.11012 11.927C5.66623 11.0888 6.29604 10.2479 7.07777 9.60551C7.11291 9.57473 7.14806 9.54395 7.18426 9.51224C7.50628 9.23097 7.84704 8.98051 8.19608 8.73393C8.27702 8.67664 8.35763 8.6189 8.43813 8.56098C9.10364 8.08403 9.78447 7.61182 10.4945 7.20348C10.5959 7.14508 10.6969 7.08601 10.7979 7.027C12.9965 5.74651 12.9965 5.74651 13.9319 5.36905C13.9562 5.359 13.9804 5.34894 14.0054 5.33859C14.6473 5.09229 15.3482 5.04115 16.0253 4.96308C16.3087 4.93034 16.592 4.89583 16.8752 4.86122C16.9168 4.85614 16.9168 4.85614 16.9592 4.85096C18.2557 4.69229 19.5249 4.42878 20.798 4.14012C20.9072 4.11539 21.0165 4.09091 21.1258 4.06644C21.1972 4.05029 21.2685 4.03366 21.3398 4.01699C22.1116 3.84303 22.9044 3.78381 23.6913 3.71919C23.8428 3.70663 23.9943 3.69335 24.1457 3.68004C24.6482 3.63742 25.1483 3.60813 25.6527 3.60599Z" fill="#F46F0B"/>
</svg>
