<svg width="39" height="39" viewBox="0 0 39 39" fill="none" xmlns="http://www.w3.org/2000/svg">
<path d="M15.7333 0.555601C15.7884 1.11525 15.8267 1.67534 15.8599 2.23663C15.8619 2.27168 15.864 2.30673 15.8661 2.34283C15.8834 2.63532 15.9004 2.92783 15.9173 3.22033C15.93 3.4403 15.9429 3.66026 15.9559 3.88022C15.9618 3.98234 15.9677 4.08448 15.9735 4.18661C15.9772 4.24896 15.9808 4.3113 15.9845 4.37364C15.9861 4.40172 15.9876 4.4298 15.9892 4.45873C15.9977 4.59967 16.0125 4.73463 16.0444 4.87227C16.5293 4.96734 17.0202 4.98233 17.5125 5.00595C17.5609 5.00835 17.6092 5.01076 17.659 5.01324C18.8366 5.07136 20.0151 5.10484 21.1937 5.13766C22.1745 5.16504 23.1551 5.19513 24.1338 5.27013C24.4837 5.29654 24.8336 5.31243 25.1842 5.32449C25.2451 5.32666 25.306 5.32884 25.3668 5.33102C25.4979 5.33571 25.6289 5.34033 25.7599 5.34491C25.9723 5.35232 26.1846 5.35987 26.397 5.36744C26.7027 5.37831 27.0083 5.38913 27.314 5.39991C27.7864 5.41659 28.2589 5.4335 28.7314 5.45046C28.8907 5.45617 29.0501 5.46189 29.2094 5.46761C29.2689 5.46974 29.2689 5.46974 29.3297 5.47192C29.7771 5.48797 30.2245 5.50396 30.6719 5.51993C30.7328 5.52211 30.7328 5.52211 30.795 5.52433C30.8357 5.52578 30.8763 5.52724 30.9182 5.52873C31.0005 5.53167 31.0828 5.53461 31.165 5.53755C31.2058 5.539 31.2466 5.54046 31.2886 5.54196C31.6214 5.55385 31.9541 5.56575 32.2869 5.57765C32.6164 5.58943 32.9459 5.60121 33.2754 5.61298C33.4751 5.62011 33.6748 5.62724 33.8745 5.63439C34.9613 5.6733 34.9613 5.6733 36.0483 5.71042C36.1306 5.71317 36.213 5.71593 36.2954 5.7187C36.5363 5.72677 36.7772 5.73474 37.0181 5.74245C37.0999 5.74516 37.1816 5.74788 37.2633 5.7506C37.2985 5.75168 37.3337 5.75275 37.37 5.75386C37.5456 5.75983 37.7208 5.76909 37.896 5.7823C37.9474 5.78615 37.9474 5.78615 37.9999 5.79007C38.1015 5.80675 38.1666 5.82242 38.25 5.88338C38.2875 6.02062 38.2919 6.14533 38.2858 6.28685C38.2834 6.3482 38.2834 6.3482 38.2809 6.4108C38.2789 6.45491 38.2769 6.49903 38.2748 6.54448C38.2719 6.61428 38.2719 6.61428 38.269 6.68549C38.2649 6.78384 38.2607 6.88219 38.2564 6.98054C38.2503 7.12018 38.2445 7.25982 38.2389 7.39948C38.2273 7.68493 38.2153 7.97036 38.2033 8.25579C38.1987 8.36393 38.1942 8.47206 38.1897 8.5802C38.1787 8.84076 38.1678 9.10132 38.1568 9.36189C38.1478 9.57634 38.1387 9.79079 38.1297 10.0052C38.0934 10.8693 38.057 11.7333 38.0205 12.5973C38.0167 12.6871 38.013 12.7768 38.0092 12.8666C37.9378 14.5588 37.8659 16.2509 37.7935 17.943C37.7883 18.0642 37.7831 18.1854 37.7779 18.3066C37.6308 21.7484 37.4801 25.19 37.1903 31.5938C37.1878 31.6473 37.1878 31.6473 37.1854 31.7019C37.1375 32.7557 37.0895 33.8094 37.0414 34.8632C37.04 34.894 37.0386 34.9248 37.0371 34.9565C37.0186 35.3638 37 35.771 36.9813 36.1782C36.9778 36.2554 36.9743 36.3326 36.9707 36.4098C36.9602 36.6393 36.9497 36.8689 36.9391 37.0984C36.9316 37.2596 36.9244 37.4209 36.9174 37.5822C36.9142 37.6552 36.9109 37.7283 36.9076 37.8013C36.9063 37.8335 36.905 37.8657 36.9036 37.8989C36.8948 38.0918 36.8763 38.2809 36.85 38.4723C36.6655 38.5465 36.5294 38.5536 36.3323 38.5355C36.0568 38.5128 35.7855 38.5091 35.5092 38.5136C35.3667 38.5137 35.226 38.5041 35.0839 38.4932C34.8057 38.4729 34.5275 38.4582 34.2488 38.4457C34.1979 38.4434 34.147 38.441 34.0946 38.4386C33.9568 38.4324 33.819 38.4262 33.6813 38.4202C33.5949 38.4163 33.5086 38.4125 33.4222 38.4086C32.4299 38.3645 31.4374 38.3312 30.4444 38.3051C30.3636 38.303 30.2829 38.3008 30.2022 38.2986C30.1042 38.296 30.0062 38.2935 29.9083 38.2911C29.6661 38.2846 29.4293 38.269 29.1889 38.2389C29.0788 38.2304 28.9687 38.2246 28.8583 38.2195C28.8254 38.2179 28.7924 38.2163 28.7585 38.2147C28.4984 38.2033 28.2383 38.1964 27.978 38.1903C27.9429 38.1895 27.9079 38.1887 27.8717 38.1879C27.6937 38.1838 27.5156 38.1799 27.3376 38.1764C27.2703 38.175 27.2031 38.1735 27.1358 38.1721C27.0904 38.1713 27.0904 38.1713 27.0441 38.1705C26.8934 38.1671 26.7449 38.1588 26.5951 38.1423C26.4046 38.1228 26.2149 38.1121 26.0236 38.1048C25.9717 38.1027 25.9717 38.1027 25.9187 38.1006C25.8037 38.0959 25.6887 38.0914 25.5737 38.087C25.4907 38.0836 25.4078 38.0803 25.3248 38.077C25.0995 38.0679 24.8743 38.0591 24.649 38.0502C24.4108 38.0408 24.1726 38.0313 23.9344 38.0218C23.5324 38.0058 23.1304 37.9899 22.7284 37.9741C22.27 37.956 21.8116 37.9378 21.3532 37.9195C20.8591 37.8998 20.3651 37.8803 19.8711 37.8607C19.7322 37.8552 19.5932 37.8497 19.4543 37.8441C18.3357 37.7996 17.2172 37.758 16.0984 37.7205C15.4752 37.6995 14.8524 37.675 14.2296 37.6454C13.963 37.6328 13.6964 37.6206 13.4298 37.6085C13.4021 37.6072 13.3743 37.606 13.3458 37.6047C12.8881 37.5839 12.4304 37.5651 11.9727 37.5471C11.9403 37.5459 11.908 37.5446 11.8747 37.5433C11.5596 37.531 11.2445 37.5188 10.9294 37.5069C10.26 37.4815 9.59086 37.4522 8.92175 37.4185C8.3954 37.3921 7.86896 37.3702 7.34231 37.3505C7.21809 37.3459 7.09388 37.3412 6.96966 37.3364C6.88682 37.3333 6.80398 37.3301 6.72113 37.3269C6.68007 37.3254 6.63901 37.3238 6.59671 37.3222C6.38491 37.3142 6.1731 37.3063 5.96128 37.2988C5.7514 37.2914 5.54154 37.2834 5.33169 37.2751C5.2529 37.2721 5.17411 37.2692 5.09531 37.2666C4.98636 37.2629 4.87746 37.2586 4.76854 37.2541C4.72086 37.2527 4.72086 37.2527 4.67221 37.2513C4.47087 37.2422 4.32524 37.201 4.14444 37.1112C4.13483 36.2231 4.15603 35.3403 4.20285 34.4535C4.2197 34.1343 4.23533 33.815 4.25103 33.4957C4.25469 33.4212 4.25836 33.3467 4.26205 33.2722C4.30396 32.4234 4.33872 31.5744 4.372 30.7253C4.37489 30.6517 4.37778 30.5781 4.38068 30.5045C4.39662 30.0983 4.41237 29.6922 4.42804 29.286C4.4425 28.9115 4.45716 28.537 4.47182 28.1625C4.50574 27.2954 4.53919 26.4283 4.57222 25.5612C4.57332 25.5322 4.57443 25.5032 4.57557 25.4733C4.5883 25.1392 4.60092 24.8051 4.61329 24.471C4.6165 24.3846 4.61973 24.2981 4.623 24.2117C4.64315 23.6765 4.65675 23.1414 4.66524 22.6059C4.67511 22.0061 4.69918 21.41 4.74479 20.8119C4.79262 20.1843 4.82706 19.5571 4.85173 18.9282C4.85339 18.8883 4.85504 18.8483 4.85675 18.8072C4.8867 18.077 4.88679 17.3474 4.88333 16.6167C4.829 16.6204 4.829 16.6204 4.77357 16.6241C4.42982 16.6472 4.08605 16.6701 3.74227 16.6928C3.56559 16.7044 3.38892 16.7162 3.21225 16.7281C3.0413 16.7396 2.87034 16.7509 2.69937 16.7621C2.63462 16.7664 2.56986 16.7707 2.50512 16.7751C2.10443 16.8024 1.70724 16.817 1.30555 16.8112C1.23692 16.6613 1.21477 16.5349 1.20539 16.3708C1.2024 16.3211 1.1994 16.2715 1.19631 16.2204C1.19335 16.1656 1.19039 16.1109 1.18743 16.0561C1.18406 15.9982 1.18066 15.9403 1.17724 15.8824C1.16802 15.7251 1.15922 15.5679 1.15049 15.4105C1.14124 15.245 1.13163 15.0796 1.12205 14.9141C1.10598 14.6354 1.09016 14.3567 1.0745 14.078C1.05261 13.6881 1.03025 13.2983 1.00781 12.9085C0.992126 12.6358 0.976564 12.3631 0.96102 12.0904C0.957293 12.0251 0.953563 11.9597 0.949829 11.8943C0.939128 11.707 0.928502 11.5197 0.917988 11.3323C0.914829 11.2762 0.911649 11.2201 0.908442 11.164C0.863451 10.3759 0.832918 9.58939 0.834468 8.79997C0.834479 8.71937 0.834472 8.63878 0.83445 8.55818C0.834439 8.34275 0.834666 8.12731 0.83494 7.91188C0.835186 7.68549 0.835207 7.4591 0.835253 7.2327C0.835373 6.8055 0.83569 6.3783 0.836082 5.95109C0.836519 5.4641 0.836731 4.97711 0.836926 4.49011C0.837331 3.48972 0.838013 2.48933 0.838883 1.48893C1.12734 1.44168 1.41288 1.39999 1.70477 1.38351C1.75409 1.38043 1.75409 1.38043 1.80442 1.3773C1.91358 1.37054 2.02276 1.36412 2.13194 1.35768C2.21206 1.35278 2.29218 1.34786 2.37231 1.34292C2.54653 1.33221 2.72076 1.32164 2.895 1.31118C3.32955 1.28507 3.76405 1.25822 4.19857 1.23149C4.33033 1.22338 4.46209 1.2153 4.59385 1.20723C5.47463 1.15324 6.35531 1.09765 7.23595 1.04141C7.26859 1.03932 7.30122 1.03724 7.33485 1.03509C7.63312 1.01604 7.93139 0.996975 8.22966 0.977893C8.69371 0.948207 9.15777 0.918602 9.62184 0.889062C9.6703 0.885977 9.6703 0.885977 9.71973 0.88283C10.0071 0.86454 10.2944 0.846256 10.5817 0.827974C10.7647 0.81633 10.9477 0.804684 11.1307 0.793036C11.16 0.791174 11.1892 0.789312 11.2194 0.787394C11.6469 0.760182 12.0744 0.73284 12.5019 0.70542C12.8072 0.685852 13.1125 0.666445 13.4178 0.647212C13.5786 0.637079 13.7394 0.626873 13.9002 0.616439C14.5116 0.576799 15.1203 0.543176 15.7333 0.555601ZM16.2389 8.9556C16.2217 9.03597 16.2217 9.03597 16.2254 9.13003C16.2255 9.18457 16.2256 9.18457 16.2257 9.24021C16.2264 9.28 16.2272 9.31978 16.228 9.36076C16.2284 9.4024 16.2288 9.44405 16.2293 9.48695C16.2365 9.97568 16.2663 10.4631 16.2971 10.9508C16.3031 11.0498 16.3091 11.1488 16.3151 11.2478C16.3292 11.4796 16.3435 11.7113 16.3579 11.9431C16.3758 12.2306 16.3934 12.5181 16.4109 12.8056C16.4289 13.1004 16.4469 13.3951 16.4652 13.6898C16.4889 14.0729 16.5126 14.4559 16.5343 14.839C16.5359 14.8665 16.5374 14.894 16.5391 14.9224C16.5507 15.1325 16.5548 15.3418 16.5524 15.5521C16.5523 15.5842 16.5521 15.6163 16.5519 15.6494C16.5515 15.7255 16.5508 15.8017 16.55 15.8778C16.4997 15.877 16.4494 15.8763 16.3976 15.8754C16.0939 15.8756 15.7912 15.8971 15.4882 15.9159C15.4206 15.92 15.3531 15.924 15.2855 15.9281C15.103 15.9392 14.9206 15.9504 14.7381 15.9616C14.6241 15.9687 14.51 15.9757 14.3959 15.9827C13.9978 16.0071 13.5997 16.0316 13.2016 16.0563C12.8306 16.0793 12.4597 16.1019 12.0887 16.1244C11.7698 16.1438 11.451 16.1634 11.1321 16.1832C10.9418 16.195 10.7515 16.2067 10.5612 16.2182C10.3825 16.2289 10.2038 16.24 10.025 16.2513C9.95948 16.2554 9.8939 16.2594 9.82832 16.2632C9.73881 16.2685 9.64933 16.2742 9.55986 16.28C9.50978 16.2831 9.4597 16.2862 9.40811 16.2894C9.28499 16.3047 9.1931 16.3263 9.08333 16.3834C9.0419 16.4698 9.0419 16.4698 9.02864 16.5749C9.02148 16.6144 9.01433 16.6538 9.00695 16.6944C9.00007 16.737 8.99319 16.7795 8.98611 16.8233C8.97025 16.9122 8.95425 17.0011 8.9381 17.0899C8.93011 17.1346 8.92211 17.1793 8.91387 17.2253C8.87157 17.4459 8.81583 17.6632 8.7571 17.8799C8.60442 18.4793 8.66713 19.0831 8.71874 19.6914C8.72231 19.7345 8.72588 19.7777 8.72956 19.8222C8.80996 20.7849 8.96754 21.7129 9.18159 22.6544C9.3494 23.3934 9.47438 24.1355 9.55926 24.8887C9.56337 24.9248 9.56748 24.9609 9.57171 24.9981C9.59185 25.1758 9.61125 25.3535 9.62924 25.5315C9.69284 26.1323 9.84451 26.6533 10.1139 27.1969C10.1339 27.238 10.1539 27.279 10.1746 27.3213C10.3724 27.7214 10.5896 28.1097 10.8144 28.4952C10.8665 28.5846 10.9177 28.6744 10.9687 28.7645C11.3609 29.4522 11.8082 30.1102 12.2927 30.7362C12.3535 30.8157 12.4128 30.8962 12.472 30.9769C12.8952 31.5501 13.3718 32.0217 13.9444 32.4445C13.9652 32.4601 13.986 32.4757 14.0075 32.4918C14.3623 32.7571 14.735 32.9936 15.1097 33.2296C15.2754 33.3339 15.4403 33.4393 15.6047 33.5455C15.6484 33.5738 15.6922 33.602 15.7359 33.6302C15.8197 33.6843 15.9034 33.7385 15.9871 33.7928C16.0962 33.8631 16.2061 33.9319 16.3167 34C16.342 34.0164 16.3673 34.0328 16.3934 34.0497C16.8026 34.2885 17.4191 34.2543 17.8841 34.2893C17.9478 34.2942 18.0115 34.2991 18.0753 34.304C18.2436 34.317 18.4119 34.3297 18.5802 34.3423C18.6846 34.3501 18.789 34.358 18.8934 34.3658C20.3843 34.4783 20.3843 34.4783 21.8778 34.5445C21.9269 34.546 21.976 34.5475 22.0267 34.549C23.1583 34.579 24.2782 34.471 25.3948 34.2941C25.4307 34.2885 25.4666 34.2829 25.5036 34.2771C26.3293 34.1482 26.3293 34.1482 27.1083 33.8566C27.1357 33.8434 27.1631 33.8301 27.1913 33.8164C27.4526 33.6869 27.7014 33.5394 27.9482 33.3843C28.0247 33.3374 28.1023 33.2933 28.1805 33.2495C28.5462 33.0402 28.7993 32.8058 29.0571 32.474C29.1261 32.3866 29.1988 32.3029 29.2719 32.219C29.5329 31.9179 29.7753 31.6029 30.0056 31.2778C30.0295 31.2444 30.0295 31.2444 30.0539 31.2102C30.6294 30.3872 30.8759 29.3414 30.986 28.3571C31.0052 28.1857 31.0257 28.0145 31.0464 27.8433C31.0525 27.7936 31.0525 27.7936 31.0586 27.7428C31.0898 27.4914 31.1307 27.2433 31.1819 26.9952C31.2716 26.5563 31.313 26.1556 31.2333 25.7105C31.1672 25.2654 31.163 24.8168 31.1625 24.3678C31.1624 24.335 31.1623 24.3023 31.1623 24.2686C31.1618 23.4768 31.2139 22.6887 31.2673 21.8991C31.2878 21.5889 31.3025 21.2786 31.3145 20.9679C31.3214 20.7931 31.3303 20.6188 31.3435 20.4443C31.456 18.903 30.6926 17.1187 30.1222 15.7223C30.0669 15.5862 30.0119 15.4501 29.9569 15.3139C29.9445 15.2833 29.932 15.2526 29.9192 15.221C29.8416 15.0279 29.7724 14.8332 29.7067 14.6357C29.5246 14.0919 29.2822 13.74 28.8711 13.341C28.7378 13.2116 28.6134 13.0868 28.5059 12.9344C28.3297 12.6919 28.085 12.5109 27.8571 12.3193C27.7697 12.2448 27.6857 12.1669 27.6017 12.0886C26.7605 11.3342 25.7838 10.7279 24.8212 10.1417C24.7781 10.1155 24.7351 10.0892 24.6908 10.0621C23.9859 9.63832 23.3387 9.45429 22.5334 9.33199C22.3177 9.29923 22.1021 9.2654 21.8866 9.23162C21.8432 9.22485 21.7998 9.21807 21.7551 9.21109C21.2797 9.13638 20.806 9.05236 20.3326 8.96566C19.6063 8.83376 18.9045 8.78737 18.1655 8.78991C18.0203 8.79032 17.8752 8.78991 17.7301 8.78941C16.9565 8.74431 16.9565 8.74431 16.2389 8.9556Z" fill="#49503B"/>
</svg>
