<svg width="42" height="42" viewBox="0 0 42 42" fill="none" xmlns="http://www.w3.org/2000/svg">
<path opacity="0.998" fill-rule="evenodd" clip-rule="evenodd" d="M17.1694 1.34174C18.3145 1.31822 19.4552 1.37655 20.5917 1.51674C22.3633 1.76448 24.1262 2.06263 25.8805 2.41118C26.2274 2.46549 26.5644 2.55623 26.8917 2.68341C28.2987 3.40589 29.6338 4.2355 30.8972 5.1723C31.7121 5.79265 32.5158 6.42786 33.3083 7.07785C33.6015 7.38391 33.8802 7.70151 34.1444 8.03063C34.4308 8.33 34.7289 8.61517 35.0389 8.88618C35.4573 9.51875 35.7555 10.2058 35.9333 10.9473C36.5715 12.2887 37.09 13.6757 37.4889 15.1084C37.7044 16.0174 37.9247 16.9248 38.15 17.8306C38.2096 18.3736 38.2226 18.9181 38.1889 19.464C38.059 21.2901 37.9617 23.1179 37.8972 24.9473C37.8882 25.8353 37.9596 26.7168 38.1111 27.5917C38.137 27.851 38.137 28.1102 38.1111 28.3695C38.0078 28.8729 37.917 29.3784 37.8389 29.8862C37.722 30.8214 37.5924 31.7548 37.45 32.6862C37.1835 33.6025 36.8335 34.484 36.4 35.3306C35.649 36.38 34.8258 37.3717 33.9305 38.3056C33.0344 38.8186 32.1269 39.3113 31.2083 39.7834C31.0187 39.8534 30.8243 39.9055 30.625 39.939C29.4391 40.0957 28.2595 40.2901 27.0861 40.5223C26.3154 40.567 25.5441 40.5997 24.7722 40.6195C21.8709 40.4951 18.9737 40.3072 16.0805 40.0556C15.8317 40.0245 15.5984 39.9467 15.3805 39.8223C14.1943 39.0671 13.0147 38.3024 11.8417 37.5279C10.9826 36.9022 10.2243 36.1698 9.56666 35.3306C8.28974 33.6076 7.14901 31.7928 6.14444 29.8862C5.69928 29.0822 5.40111 28.2266 5.24999 27.3195C5.15864 26.2777 5.02903 25.2406 4.8611 24.2084C4.58818 22.8056 4.30297 21.4056 4.00555 20.0084C3.91482 18.9714 3.82407 17.9343 3.73333 16.8973C3.66034 16.1508 3.75108 15.4249 4.00555 14.7195C4.09845 14.1598 4.20217 13.6024 4.31666 13.0473C4.36387 12.9871 4.4222 12.9417 4.49166 12.9112C7.9635 12.662 11.4376 12.4416 14.9139 12.2501C15.1866 12.2194 15.4589 12.187 15.7305 12.1529C15.7249 12.0022 15.7379 11.8531 15.7694 11.7056C15.6308 9.0536 15.4688 6.4027 15.2833 3.75285C15.2377 3.05328 15.2248 2.35328 15.2444 1.65285C15.3062 1.54073 15.4035 1.4824 15.5361 1.47785C16.0855 1.41949 16.63 1.37413 17.1694 1.34174Z" fill="#215068"/>
</svg>
