<svg width="38" height="28" viewBox="0 0 38 28" fill="none" xmlns="http://www.w3.org/2000/svg">
<path d="M0.41111 0.0666504C12.7054 0.0666504 24.9998 0.0666504 37.6667 0.0666504C37.7121 7.7065 37.7121 7.7065 37.7069 10.1628C37.7067 10.2691 37.7065 10.3754 37.7062 10.4817C37.7062 10.5098 37.7061 10.5378 37.7061 10.5667C37.7054 10.9097 37.7048 11.2526 37.7043 11.5955C37.7009 13.5932 37.6969 15.5909 37.6924 17.5885C37.6919 17.7762 37.6915 17.9638 37.6911 18.1515C37.691 18.1981 37.6909 18.2446 37.6908 18.2926C37.689 19.0587 37.6874 19.8247 37.6859 20.5908C37.6844 21.3856 37.6826 22.1804 37.6808 22.9752C37.6798 23.4183 37.6788 23.8614 37.678 24.3045C37.6773 24.6782 37.6765 25.052 37.6755 25.4257C37.675 25.6161 37.6746 25.8064 37.6743 25.9967C37.6741 26.1704 37.6736 26.3442 37.6731 26.5179C37.6729 26.581 37.6728 26.6441 37.6728 26.7071C37.6727 26.7922 37.6724 26.8774 37.6721 26.9625C37.672 27.0099 37.6719 27.0573 37.6717 27.1062C37.6667 27.2111 37.6667 27.2111 37.6278 27.25C37.5088 27.2539 37.3908 27.2553 37.2718 27.255C37.2344 27.2551 37.1971 27.2552 37.1586 27.2552C37.0343 27.2554 36.9101 27.2553 36.7859 27.2551C36.6999 27.2552 36.6139 27.2552 36.5279 27.2553C36.3474 27.2553 36.1669 27.2552 35.9864 27.2551C35.7547 27.2548 35.523 27.255 35.2913 27.2552C35.1136 27.2553 34.9359 27.2553 34.7582 27.2552C34.6728 27.2552 34.5874 27.2552 34.5019 27.2553C34.3826 27.2554 34.2632 27.2552 34.1438 27.255C34.1083 27.2551 34.0728 27.2552 34.0362 27.2553C34.0037 27.2551 33.9712 27.255 33.9377 27.2549C33.8954 27.2549 33.8954 27.2549 33.8522 27.2549C33.7778 27.25 33.7778 27.25 33.6611 27.2111C33.6237 26.9608 33.6169 26.7176 33.6177 26.4648C33.6177 26.4209 33.6177 26.377 33.6177 26.3318C33.6178 26.2089 33.618 26.086 33.6184 25.9631C33.6186 25.8556 33.6188 25.7481 33.6189 25.6406C33.6212 23.7762 33.6337 21.9118 33.6438 20.0474C33.6468 19.4853 33.6498 18.9232 33.6526 18.3611C33.6528 18.3189 33.653 18.2766 33.6532 18.2331C33.6625 16.3776 33.6633 14.5221 33.6611 12.6667C32.02 12.6617 30.3789 12.6567 28.7378 12.6518C28.5431 12.6512 28.3484 12.6506 28.1537 12.65C28.1149 12.6499 28.0762 12.6498 28.0362 12.6497C27.4126 12.6478 26.7889 12.6459 26.1652 12.644C25.5231 12.6421 24.8809 12.6401 24.2387 12.6382C23.879 12.6372 23.5192 12.6361 23.1595 12.635C21.0214 12.6283 21.0214 12.6283 18.8833 12.6278C18.8776 13.3417 18.8722 14.0557 18.867 14.7696C18.8663 14.8586 18.8657 14.9475 18.865 15.0365C18.8519 16.8096 18.8422 18.5827 18.8352 20.3558C18.8344 20.5567 18.8336 20.7575 18.8327 20.9584C18.8291 21.8623 18.8255 22.7662 18.8224 23.6702C18.8211 24.0538 18.8196 24.4374 18.8181 24.8211C18.817 25.0892 18.8161 25.3573 18.8153 25.6254C18.8148 25.7895 18.8141 25.9537 18.8134 26.1178C18.8131 26.1935 18.8128 26.2691 18.8127 26.3448C18.8124 26.4477 18.812 26.5506 18.8114 26.6535C18.8114 26.6832 18.8114 26.7129 18.8114 26.7435C18.8103 26.9034 18.7977 27.0543 18.7667 27.2111C17.6418 27.212 16.5169 27.2127 15.392 27.2131C15.2583 27.2131 15.1247 27.2132 14.991 27.2132C14.9644 27.2132 14.9378 27.2133 14.9104 27.2133C14.4831 27.2134 14.0558 27.2137 13.6285 27.2141C13.188 27.2145 12.7476 27.2147 12.3071 27.2148C12.0606 27.2148 11.814 27.2149 11.5675 27.2152C11.2903 27.2155 11.0132 27.2156 10.736 27.2155C10.6926 27.2155 10.6492 27.2155 10.6044 27.2155C9.97695 27.2149 9.35018 27.2056 8.72309 27.1824C8.68178 27.181 8.68178 27.181 8.63963 27.1795C8.567 27.177 8.49437 27.1742 8.42175 27.1713C8.32024 27.1721 8.24651 27.1844 8.15 27.2111C8.09329 27.2144 8.03645 27.2159 7.97964 27.2158C7.94553 27.2159 7.91142 27.2159 7.87628 27.216C7.8389 27.2159 7.80152 27.2157 7.76301 27.2156C7.72305 27.2156 7.68309 27.2156 7.64192 27.2156C7.50705 27.2155 7.37219 27.2151 7.23733 27.2147C7.14048 27.2146 7.04363 27.2145 6.94678 27.2143C5.7267 27.2121 4.50663 27.2028 3.28658 27.1938C2.95907 27.1914 2.63155 27.189 2.30404 27.1867C1.63417 27.182 0.964307 27.1771 0.294443 27.1722C0.290889 23.7081 0.2889 20.2441 0.309592 13.4724C0.310825 13.1374 0.312029 12.8023 0.313201 12.4672C0.323989 9.3836 0.343901 6.30015 0.372221 3.21665C0.465195 3.30963 0.462411 3.33854 0.472247 3.46613C0.47516 3.50208 0.478073 3.53803 0.481073 3.57508C0.483871 3.61456 0.486669 3.65405 0.489552 3.69474C0.492735 3.73625 0.495918 3.77776 0.499197 3.82052C0.537644 4.33568 0.566359 4.85146 0.59492 5.36724C0.600893 5.47387 0.606897 5.58049 0.612897 5.68712C0.625338 5.9086 0.637676 6.13008 0.64995 6.35156C0.664072 6.60637 0.678373 6.86117 0.692766 7.11597C0.706746 7.36355 0.72059 7.61115 0.734378 7.85874C0.740193 7.96314 0.746057 8.06753 0.751961 8.17191C0.760172 8.31756 0.768228 8.46322 0.776244 8.60889C0.778667 8.65134 0.78109 8.69379 0.783587 8.73752C0.797702 8.99766 0.802102 9.25613 0.799999 9.51665C1.04383 9.51665 1.28767 9.51665 1.53889 9.51665C1.51365 11.1623 1.45661 12.8067 1.39987 14.4515C1.39084 14.7135 1.3819 14.9755 1.37302 15.2376C1.30366 17.2845 1.22948 19.3312 1.15 21.3778C1.19786 21.3788 1.19786 21.3788 1.24669 21.3799C2.5192 21.4093 3.79128 21.4523 5.06341 21.4947C5.38373 21.5054 5.70405 21.516 6.02438 21.5266C6.59664 21.5456 7.16891 21.5646 7.74117 21.5836C8.29326 21.602 8.84535 21.6203 9.39744 21.6386C9.43153 21.6397 9.46562 21.6409 9.50074 21.642C9.53478 21.6431 9.56882 21.6443 9.60388 21.6454C9.67246 21.6477 9.74103 21.65 9.8096 21.6522C9.84344 21.6534 9.87727 21.6545 9.91214 21.6556C10.4432 21.6732 10.9743 21.6909 11.5054 21.7085C11.6961 21.7148 11.8868 21.7212 12.0775 21.7275C12.3799 21.7375 12.6823 21.7475 12.9847 21.7576C13.1223 21.7622 13.26 21.7668 13.3976 21.7713C13.689 21.781 13.9804 21.7908 14.2717 21.8008C14.3662 21.804 14.4607 21.8072 14.5552 21.8104C14.6961 21.8152 14.837 21.8201 14.9778 21.825C15.0192 21.8264 15.0605 21.8278 15.1031 21.8292C15.3917 21.8396 15.6789 21.8593 15.9667 21.8833C15.9687 21.8223 15.9687 21.8223 15.9707 21.7601C16.0629 18.975 16.161 16.19 16.261 13.4052C16.2656 13.2767 16.2702 13.1483 16.2748 13.0198C16.294 12.4861 16.3132 11.9524 16.3324 11.4186C16.3365 11.3053 16.3406 11.1919 16.3447 11.0785C16.3523 10.8673 16.3599 10.656 16.3675 10.4448C16.3687 10.4119 16.3699 10.3791 16.3711 10.3453C16.3868 9.91118 16.4032 9.47711 16.4214 9.0431C16.4377 8.64935 16.4466 8.25543 16.4552 7.86144C16.4569 7.78718 16.4586 7.71293 16.4603 7.63867C16.4632 7.51249 16.466 7.38632 16.4688 7.26014C16.4699 7.20912 16.4711 7.1581 16.4722 7.10554C16.4316 7.10574 16.3909 7.10594 16.349 7.10615C15.9665 7.10745 15.5849 7.10125 15.2026 7.08831C15.1452 7.08645 15.0878 7.08459 15.0304 7.08275C14.8769 7.07779 14.7234 7.07269 14.5698 7.06756C14.441 7.06326 14.3122 7.05904 14.1833 7.05481C13.8794 7.04484 13.5755 7.03476 13.2716 7.0246C12.959 7.01416 12.6465 7.00389 12.3339 6.99372C12.0642 6.98494 11.7945 6.97604 11.5248 6.96707C11.3642 6.96172 11.2037 6.95642 11.0432 6.95122C10.8925 6.94633 10.7419 6.94131 10.5912 6.93618C10.5362 6.93433 10.4811 6.93253 10.4261 6.93078C10.145 6.9218 9.86783 6.90831 9.58889 6.87221C9.51617 6.71594 9.4977 6.58287 9.48873 6.4113C9.48726 6.38499 9.48579 6.35867 9.48428 6.33156C9.47946 6.24369 9.47512 6.15579 9.47077 6.06789C9.4674 6.00477 9.464 5.94165 9.46058 5.87853C9.45328 5.74278 9.44618 5.60701 9.43926 5.47124C9.42831 5.2567 9.41688 5.04218 9.40539 4.82766C9.38728 4.48855 9.36948 4.14942 9.35182 3.81028C9.32017 3.20244 9.28815 2.59461 9.25577 1.9868C9.24441 1.77339 9.23325 1.55996 9.22224 1.34653C9.21537 1.21404 9.20837 1.08156 9.20133 0.949078C9.19808 0.887469 9.1949 0.825857 9.19178 0.764242C9.18753 0.680399 9.18307 0.59657 9.17855 0.512741C9.17611 0.465747 9.17366 0.418752 9.17114 0.370334C9.16796 0.263015 9.16796 0.263015 9.12222 0.183317C8.22606 0.234797 7.33021 0.29048 6.43445 0.348541C6.21641 0.362667 5.99837 0.376696 5.78032 0.390706C5.74305 0.393101 5.70578 0.395496 5.66738 0.397964C5.59138 0.402848 5.51537 0.407731 5.43937 0.412614C4.9342 0.445076 4.42903 0.477598 3.92388 0.510379C3.57948 0.532727 3.23507 0.554924 2.89064 0.57695C2.70964 0.58853 2.52865 0.600185 2.34766 0.612027C2.17801 0.623128 2.00834 0.634026 1.83865 0.644779C1.77703 0.648719 1.71541 0.652729 1.6538 0.65682C1.23897 0.684311 0.826829 0.693466 0.41111 0.688873C0.374846 0.580081 0.36698 0.512192 0.36736 0.399637C0.367259 0.37001 0.367159 0.340383 0.367056 0.309858C0.372221 0.222206 0.372221 0.222206 0.41111 0.0666504ZM26.1944 0.572206C26.2582 0.928251 26.2582 0.928251 26.35 1.27221C26.2187 1.23502 26.0875 1.19772 25.9562 1.1604C25.9193 1.14992 25.8823 1.13945 25.8441 1.12865C25.79 1.11324 25.79 1.11324 25.7348 1.09751C25.6996 1.08752 25.6645 1.07752 25.6283 1.06722C25.5527 1.04464 25.478 1.01862 25.4039 0.991477C25.2856 0.956897 25.2031 0.960576 25.0812 0.975678C24.6759 1.01616 24.3558 1.01428 23.9667 0.878456C23.8611 0.838463 23.8611 0.838463 23.7444 0.844428C23.7661 1.20781 23.7899 1.57069 23.8222 1.93332C23.8011 1.92978 23.78 1.92625 23.7582 1.92261C23.206 1.83146 22.733 1.76782 22.184 1.90658C22.1512 1.91485 22.1185 1.92312 22.0847 1.93165C22.054 1.94007 22.0233 1.94849 21.9917 1.95717C21.9641 1.9647 21.9366 1.97224 21.9081 1.98C21.8246 2.01014 21.8246 2.01014 21.7611 2.12776C21.7443 2.20572 21.7309 2.28444 21.7195 2.36337C21.7127 2.40967 21.706 2.45596 21.699 2.50366C21.6922 2.55206 21.6854 2.60046 21.6785 2.65033C21.6714 2.69858 21.6643 2.74683 21.6571 2.79654C21.6183 3.06388 21.6183 3.06388 21.6056 3.33332C21.5611 3.32799 21.5167 3.32267 21.4709 3.31719C21.3024 3.29726 21.1337 3.27868 20.9649 3.26045C20.8926 3.25246 20.8203 3.24413 20.7481 3.23542C20.2332 3.17369 19.7801 3.18669 19.2722 3.29443C19.2681 3.81345 19.2742 4.33188 19.2867 4.85074C19.2884 4.91993 19.29 4.98913 19.2916 5.05832C19.2938 5.15674 19.2963 5.25515 19.2988 5.35356C19.2995 5.38343 19.3001 5.41329 19.3008 5.44406C19.3042 5.56649 19.311 5.66636 19.35 5.78332C19.4655 5.82363 19.4655 5.82363 19.6082 5.85016C19.6346 5.85576 19.661 5.86136 19.6881 5.86713C19.773 5.88505 19.858 5.90225 19.9431 5.91943C19.9986 5.93098 20.0541 5.94257 20.1095 5.95422C20.1917 5.97145 20.2739 5.98863 20.3561 6.00556C20.5721 6.05011 20.7866 6.09964 21.0009 6.15147C21.1022 6.17619 21.1022 6.17619 21.2167 6.17221C21.2162 6.20574 21.2158 6.23928 21.2153 6.27383C21.2131 6.56767 21.218 6.86058 21.2312 7.15415C21.2324 7.1861 21.2336 7.21805 21.2349 7.25096C21.2424 7.40119 21.2483 7.48354 21.3333 7.6111C21.4351 7.63419 21.4351 7.63419 21.5564 7.63862C21.6031 7.64172 21.6498 7.64483 21.6979 7.64803C21.7739 7.65223 21.7739 7.65223 21.8513 7.65652C21.9036 7.65979 21.9558 7.66311 22.008 7.66648C22.1454 7.67521 22.2828 7.68328 22.4203 7.69122C22.5606 7.69943 22.7008 7.70827 22.841 7.71705C23.1162 7.7342 23.3914 7.75065 23.6667 7.76665C23.6688 7.80425 23.671 7.84185 23.6732 7.88059C23.6962 8.27159 23.7383 8.65885 23.7858 9.04755C23.7931 9.10859 23.8004 9.16964 23.8077 9.23068C23.8254 9.37788 23.8432 9.52505 23.8611 9.67221C23.9794 9.71164 24.0525 9.71409 24.1759 9.71079C24.6662 9.70174 25.1256 9.72188 25.6073 9.8128C25.9695 9.87922 26.333 9.91522 26.7006 9.92774C26.9897 9.94002 27.2224 9.9909 27.4656 10.151C27.5003 10.1733 27.5349 10.1956 27.5706 10.2186C27.6722 10.2944 27.6722 10.2944 27.7504 10.3932C27.9166 10.53 28.0625 10.5279 28.2724 10.5405C28.3324 10.5452 28.3324 10.5452 28.3936 10.5499C28.5217 10.5595 28.6499 10.568 28.7781 10.5764C28.8618 10.5826 28.9455 10.5889 29.0292 10.5952C29.4646 10.6275 29.9002 10.6529 30.3366 10.6695C30.5771 10.6791 30.816 10.6985 31.0556 10.7222C31.0644 9.78169 31.042 8.84446 31.0057 7.9047C30.9407 6.21941 30.9195 4.54114 30.9639 2.85493C30.9971 1.92245 30.9971 1.92245 30.9413 0.992692C30.9379 0.959932 30.9346 0.927172 30.9311 0.893419C30.9158 0.727604 30.9158 0.727604 30.8611 0.572206C29.3211 0.572206 27.7811 0.572206 26.1944 0.572206Z" fill="#AFC441"/>
</svg>
