<svg width="38" height="28" viewBox="0 0 38 28" fill="none" xmlns="http://www.w3.org/2000/svg">
<path d="M0.411125 0.0666504C12.7055 0.0666504 24.9998 0.0666504 37.6667 0.0666504C37.7122 7.7065 37.7122 7.7065 37.7069 10.1628C37.7067 10.2691 37.7065 10.3754 37.7063 10.4817C37.7062 10.5098 37.7062 10.5378 37.7061 10.5667C37.7054 10.9097 37.7049 11.2526 37.7043 11.5955C37.7009 13.5932 37.6969 15.5909 37.6924 17.5885C37.6919 17.7762 37.6915 17.9638 37.6911 18.1515C37.691 18.1981 37.6909 18.2446 37.6908 18.2926C37.689 19.0587 37.6875 19.8247 37.6859 20.5908C37.6844 21.3856 37.6827 22.1804 37.6808 22.9752C37.6798 23.4183 37.6788 23.8614 37.678 24.3045C37.6773 24.6782 37.6765 25.052 37.6755 25.4257C37.675 25.6161 37.6746 25.8064 37.6743 25.9967C37.6741 26.1704 37.6737 26.3442 37.6731 26.5179C37.6729 26.581 37.6728 26.6441 37.6728 26.7071C37.6727 26.7922 37.6724 26.8774 37.6721 26.9625C37.672 27.0099 37.6719 27.0573 37.6718 27.1062C37.6667 27.2111 37.6667 27.2111 37.6278 27.25C37.5088 27.2539 37.3908 27.2553 37.2718 27.255C37.2344 27.2551 37.1971 27.2552 37.1586 27.2552C37.0343 27.2554 36.9101 27.2553 36.7859 27.2551C36.6999 27.2552 36.6139 27.2552 36.528 27.2553C36.3474 27.2553 36.1669 27.2552 35.9864 27.2551C35.7547 27.2548 35.523 27.255 35.2913 27.2552C35.1136 27.2553 34.9359 27.2553 34.7582 27.2552C34.6728 27.2552 34.5874 27.2552 34.5019 27.2553C34.3826 27.2554 34.2632 27.2552 34.1438 27.255C34.1083 27.2551 34.0728 27.2552 34.0362 27.2553C34.0037 27.2551 33.9712 27.255 33.9377 27.2549C33.8954 27.2549 33.8954 27.2549 33.8522 27.2549C33.7778 27.25 33.7778 27.25 33.6611 27.2111C33.6238 26.9608 33.6169 26.7176 33.6178 26.4648C33.6178 26.4209 33.6178 26.377 33.6178 26.3318C33.6178 26.2089 33.6181 26.086 33.6184 25.9631C33.6187 25.8556 33.6188 25.7481 33.6189 25.6406C33.6212 23.7762 33.6337 21.9118 33.6438 20.0474C33.6469 19.4853 33.6498 18.9232 33.6526 18.3611C33.6528 18.3189 33.653 18.2766 33.6533 18.2331C33.6626 16.3776 33.6633 14.5221 33.6611 12.6667C32.02 12.6617 30.3789 12.6567 28.7378 12.6518C28.5431 12.6512 28.3484 12.6506 28.1537 12.65C28.1149 12.6499 28.0762 12.6498 28.0362 12.6497C27.4126 12.6478 26.7889 12.6459 26.1653 12.644C25.5231 12.6421 24.8809 12.6401 24.2387 12.6382C23.879 12.6372 23.5192 12.6361 23.1595 12.635C21.0214 12.6283 21.0214 12.6283 18.8833 12.6278C18.8776 13.3417 18.8722 14.0557 18.867 14.7696C18.8663 14.8586 18.8657 14.9475 18.865 15.0365C18.8519 16.8096 18.8423 18.5827 18.8352 20.3558C18.8344 20.5567 18.8336 20.7575 18.8328 20.9584C18.8291 21.8623 18.8255 22.7662 18.8224 23.6702C18.8211 24.0538 18.8196 24.4374 18.8181 24.8211C18.817 25.0892 18.8161 25.3573 18.8153 25.6254C18.8148 25.7895 18.8141 25.9537 18.8134 26.1178C18.8131 26.1935 18.8129 26.2691 18.8127 26.3448C18.8125 26.4477 18.812 26.5506 18.8115 26.6535C18.8114 26.6832 18.8114 26.7129 18.8114 26.7435C18.8103 26.9034 18.7977 27.0543 18.7667 27.2111C17.6418 27.212 16.5169 27.2127 15.392 27.2131C15.2584 27.2131 15.1247 27.2132 14.991 27.2132C14.9644 27.2132 14.9378 27.2133 14.9104 27.2133C14.4831 27.2134 14.0558 27.2137 13.6285 27.2141C13.1881 27.2145 12.7476 27.2147 12.3071 27.2148C12.0606 27.2148 11.814 27.2149 11.5675 27.2152C11.2903 27.2155 11.0132 27.2156 10.736 27.2155C10.6926 27.2155 10.6492 27.2155 10.6045 27.2155C9.97696 27.2149 9.3502 27.2056 8.72311 27.1824C8.68179 27.181 8.68179 27.181 8.63965 27.1795C8.56701 27.177 8.49439 27.1742 8.42177 27.1713C8.32025 27.1721 8.24652 27.1844 8.15001 27.2111C8.0933 27.2144 8.03646 27.2159 7.97965 27.2158C7.94554 27.2159 7.91143 27.2159 7.87629 27.216C7.83891 27.2159 7.80153 27.2157 7.76302 27.2156C7.72306 27.2156 7.6831 27.2156 7.64193 27.2156C7.50707 27.2155 7.37221 27.2151 7.23734 27.2147C7.14049 27.2146 7.04365 27.2145 6.9468 27.2143C5.72671 27.2121 4.50665 27.2028 3.2866 27.1938C2.95908 27.1914 2.63157 27.189 2.30405 27.1867C1.63419 27.182 0.964322 27.1771 0.294458 27.1722C0.290905 23.7081 0.288915 20.2441 0.309608 13.4724C0.310841 13.1374 0.312044 12.8023 0.313216 12.4672C0.324004 9.3836 0.343916 6.30015 0.372236 3.21665C0.465211 3.30963 0.462426 3.33854 0.472263 3.46613C0.475175 3.50208 0.478088 3.53803 0.481089 3.57508C0.483887 3.61456 0.486685 3.65405 0.489567 3.69474C0.49275 3.73625 0.495933 3.77776 0.499212 3.82052C0.537659 4.33568 0.566374 4.85146 0.594936 5.36724C0.600909 5.47387 0.606912 5.58049 0.612912 5.68712C0.625354 5.9086 0.637691 6.13008 0.649965 6.35156C0.664087 6.60637 0.678389 6.86117 0.692781 7.11597C0.706761 7.36355 0.720606 7.61115 0.734393 7.85874C0.740209 7.96314 0.746072 8.06753 0.751977 8.17191C0.760187 8.31756 0.768243 8.46322 0.776259 8.60889C0.778682 8.65134 0.781106 8.69379 0.783602 8.73752C0.797717 8.99766 0.802117 9.25613 0.800014 9.51665C1.04385 9.51665 1.28768 9.51665 1.5389 9.51665C1.51367 11.1623 1.45662 12.8067 1.39989 14.4515C1.39086 14.7135 1.38192 14.9755 1.37304 15.2376C1.30367 17.2845 1.2295 19.3312 1.15001 21.3778C1.19788 21.3788 1.19788 21.3788 1.24671 21.3799C2.51922 21.4093 3.79129 21.4523 5.06342 21.4947C5.38374 21.5054 5.70407 21.516 6.02439 21.5266C6.59666 21.5456 7.16892 21.5646 7.74119 21.5836C8.29328 21.602 8.84537 21.6203 9.39746 21.6386C9.43155 21.6397 9.46564 21.6409 9.50076 21.642C9.53479 21.6431 9.56883 21.6443 9.6039 21.6454C9.67247 21.6477 9.74104 21.65 9.80961 21.6522C9.84345 21.6534 9.87729 21.6545 9.91215 21.6556C10.4432 21.6732 10.9743 21.6909 11.5054 21.7085C11.6961 21.7148 11.8868 21.7212 12.0775 21.7275C12.3799 21.7375 12.6823 21.7475 12.9847 21.7576C13.1223 21.7622 13.26 21.7668 13.3976 21.7713C13.689 21.781 13.9804 21.7908 14.2718 21.8008C14.3663 21.804 14.4607 21.8072 14.5552 21.8104C14.6961 21.8152 14.837 21.8201 14.9779 21.825C15.0192 21.8264 15.0605 21.8278 15.1031 21.8292C15.3917 21.8396 15.6789 21.8593 15.9667 21.8833C15.9687 21.8223 15.9687 21.8223 15.9708 21.7601C16.063 18.975 16.161 16.19 16.261 13.4052C16.2656 13.2767 16.2703 13.1483 16.2749 13.0198C16.294 12.4861 16.3132 11.9524 16.3324 11.4186C16.3365 11.3053 16.3406 11.1919 16.3447 11.0785C16.3523 10.8673 16.3599 10.656 16.3675 10.4448C16.3687 10.4119 16.3699 10.3791 16.3711 10.3453C16.3869 9.91118 16.4032 9.47711 16.4214 9.0431C16.4377 8.64935 16.4466 8.25543 16.4552 7.86144C16.4569 7.78718 16.4586 7.71293 16.4603 7.63867C16.4632 7.51249 16.466 7.38632 16.4688 7.26014C16.47 7.20912 16.4711 7.1581 16.4722 7.10554C16.4316 7.10574 16.3909 7.10594 16.349 7.10615C15.9665 7.10745 15.5849 7.10125 15.2026 7.08831C15.1452 7.08645 15.0878 7.08459 15.0304 7.08275C14.8769 7.07779 14.7234 7.07269 14.5698 7.06756C14.441 7.06326 14.3122 7.05904 14.1833 7.05481C13.8794 7.04484 13.5755 7.03476 13.2716 7.0246C12.959 7.01416 12.6465 7.00389 12.3339 6.99372C12.0642 6.98494 11.7945 6.97604 11.5248 6.96707C11.3643 6.96172 11.2037 6.95642 11.0432 6.95122C10.8925 6.94633 10.7419 6.94131 10.5912 6.93618C10.5362 6.93433 10.4811 6.93253 10.4261 6.93078C10.1451 6.9218 9.86785 6.90831 9.5889 6.87221C9.51619 6.71594 9.49772 6.58287 9.48875 6.4113C9.48728 6.38499 9.48581 6.35867 9.4843 6.33156C9.47947 6.24369 9.47513 6.15579 9.47078 6.06789C9.46742 6.00477 9.46402 5.94165 9.46059 5.87853C9.45329 5.74278 9.4462 5.60701 9.43927 5.47124C9.42832 5.2567 9.4169 5.04218 9.40541 4.82766C9.3873 4.48855 9.3695 4.14942 9.35184 3.81028C9.32018 3.20244 9.28817 2.59461 9.25578 1.9868C9.24443 1.77339 9.23326 1.55996 9.22225 1.34653C9.21539 1.21404 9.20838 1.08156 9.20134 0.949078C9.1981 0.887469 9.19492 0.825857 9.1918 0.764242C9.18754 0.680399 9.18308 0.59657 9.17857 0.512741C9.17612 0.465747 9.17368 0.418752 9.17116 0.370334C9.16798 0.263015 9.16798 0.263015 9.12224 0.183317C8.22607 0.234797 7.33023 0.29048 6.43447 0.348541C6.21643 0.362667 5.99838 0.376696 5.78034 0.390706C5.74307 0.393101 5.70579 0.395496 5.66739 0.397964C5.59139 0.402848 5.51539 0.407731 5.43939 0.412614C4.93422 0.445076 4.42905 0.477598 3.9239 0.510379C3.57949 0.532727 3.23508 0.554924 2.89066 0.57695C2.70966 0.58853 2.52866 0.600185 2.34768 0.612027C2.17802 0.623128 2.00835 0.634026 1.83867 0.644779C1.77705 0.648719 1.71543 0.652729 1.65381 0.65682C1.23899 0.684311 0.826844 0.693466 0.411125 0.688873C0.374861 0.580081 0.366995 0.512192 0.367375 0.399637C0.367275 0.37001 0.367174 0.340383 0.367071 0.309858C0.372236 0.222206 0.372236 0.222206 0.411125 0.0666504ZM26.1945 0.572206C26.2582 0.928251 26.2582 0.928251 26.35 1.27221C26.2187 1.23502 26.0875 1.19772 25.9563 1.1604C25.9193 1.14992 25.8823 1.13945 25.8442 1.12865C25.79 1.11324 25.79 1.11324 25.7348 1.09751C25.6996 1.08752 25.6645 1.07752 25.6283 1.06722C25.5527 1.04464 25.4781 1.01862 25.4039 0.991477C25.2857 0.956897 25.2031 0.960576 25.0813 0.975678C24.6759 1.01616 24.3558 1.01428 23.9667 0.878456C23.8611 0.838463 23.8611 0.838463 23.7445 0.844428C23.7661 1.20781 23.79 1.57069 23.8222 1.93332C23.8011 1.92978 23.78 1.92625 23.7582 1.92261C23.206 1.83146 22.733 1.76782 22.184 1.90658C22.1513 1.91485 22.1185 1.92312 22.0847 1.93165C22.054 1.94007 22.0233 1.94849 21.9917 1.95717C21.9641 1.9647 21.9366 1.97224 21.9082 1.98C21.8246 2.01014 21.8246 2.01014 21.7611 2.12776C21.7443 2.20572 21.7309 2.28444 21.7195 2.36337C21.7127 2.40967 21.706 2.45596 21.699 2.50366C21.6922 2.55206 21.6855 2.60046 21.6785 2.65033C21.6714 2.69858 21.6644 2.74683 21.6571 2.79654C21.6183 3.06388 21.6183 3.06388 21.6056 3.33332C21.5611 3.32799 21.5167 3.32267 21.4709 3.31719C21.3024 3.29726 21.1337 3.27868 20.9649 3.26045C20.8926 3.25246 20.8203 3.24413 20.7481 3.23542C20.2332 3.17369 19.7801 3.18669 19.2722 3.29443C19.2681 3.81345 19.2742 4.33188 19.2868 4.85074C19.2884 4.91993 19.29 4.98913 19.2916 5.05832C19.2938 5.15674 19.2963 5.25515 19.2988 5.35356C19.2995 5.38343 19.3001 5.41329 19.3008 5.44406C19.3042 5.56649 19.311 5.66636 19.35 5.78332C19.4655 5.82363 19.4655 5.82363 19.6083 5.85016C19.6346 5.85576 19.661 5.86136 19.6882 5.86713C19.773 5.88505 19.858 5.90225 19.9431 5.91943C19.9986 5.93098 20.0541 5.94257 20.1096 5.95422C20.1917 5.97145 20.2739 5.98863 20.3562 6.00556C20.5721 6.05011 20.7866 6.09964 21.0009 6.15147C21.1022 6.17619 21.1022 6.17619 21.2167 6.17221C21.2162 6.20574 21.2158 6.23928 21.2153 6.27383C21.2131 6.56767 21.218 6.86058 21.2313 7.15415C21.2325 7.1861 21.2337 7.21805 21.2349 7.25096C21.2424 7.40119 21.2483 7.48354 21.3333 7.6111C21.4351 7.63419 21.4351 7.63419 21.5564 7.63862C21.6031 7.64172 21.6498 7.64483 21.6979 7.64803C21.7739 7.65223 21.7739 7.65223 21.8514 7.65652C21.9036 7.65979 21.9558 7.66311 22.008 7.66648C22.1454 7.67521 22.2829 7.68328 22.4203 7.69122C22.5606 7.69943 22.7008 7.70827 22.8411 7.71705C23.1162 7.7342 23.3914 7.75065 23.6667 7.76665C23.6688 7.80425 23.671 7.84185 23.6732 7.88059C23.6962 8.27159 23.7384 8.65885 23.7858 9.04755C23.7931 9.10859 23.8004 9.16964 23.8077 9.23068C23.8254 9.37788 23.8432 9.52505 23.8611 9.67221C23.9794 9.71164 24.0526 9.71409 24.1759 9.71079C24.6662 9.70174 25.1256 9.72188 25.6073 9.8128C25.9695 9.87922 26.333 9.91522 26.7006 9.92774C26.9897 9.94002 27.2224 9.9909 27.4656 10.151C27.5003 10.1733 27.5349 10.1956 27.5706 10.2186C27.6722 10.2944 27.6722 10.2944 27.7505 10.3932C27.9166 10.53 28.0625 10.5279 28.2724 10.5405C28.3324 10.5452 28.3324 10.5452 28.3936 10.5499C28.5217 10.5595 28.6499 10.568 28.7781 10.5764C28.8618 10.5826 28.9455 10.5889 29.0292 10.5952C29.4646 10.6275 29.9002 10.6529 30.3366 10.6695C30.5771 10.6791 30.816 10.6985 31.0556 10.7222C31.0644 9.78169 31.0421 8.84446 31.0057 7.9047C30.9407 6.21941 30.9195 4.54114 30.9639 2.85493C30.9971 1.92245 30.9971 1.92245 30.9413 0.992692C30.938 0.959932 30.9346 0.927172 30.9311 0.893419C30.9159 0.727604 30.9159 0.727604 30.8611 0.572206C29.3211 0.572206 27.7811 0.572206 26.1945 0.572206Z" fill="#FFBB4F"/>
</svg>
