<svg width="42" height="42" viewBox="0 0 42 42" fill="none" xmlns="http://www.w3.org/2000/svg">
<path d="M0.0334492 2.55743C0.0735691 2.54036 0.112908 2.51065 0.153927 2.50815C0.69585 2.4751 1.23847 2.45239 1.78 2.41413C2.52699 2.36135 3.27313 2.29679 4.01977 2.23893C4.25681 2.22056 4.49417 2.20566 4.73156 2.1924C5.28861 2.16129 5.84599 2.1357 6.40283 2.10125C7.0624 2.06046 7.72141 2.01064 8.38091 1.96863C8.90032 1.93555 9.42006 1.90756 9.93973 1.8788C10.4968 1.84798 11.0541 1.82081 11.6111 1.78859C12.3531 1.74567 13.0951 1.70199 13.8368 1.6538C14.4663 1.6129 15.0955 1.56513 15.7248 1.52039C16.3541 1.47566 16.9833 1.42927 17.6127 1.38663C18.3019 1.33993 18.9913 1.29598 19.6807 1.25221C20.1703 1.22114 20.6599 1.19158 21.1495 1.16274C21.9214 1.11727 22.6935 1.07513 23.4652 1.02752C24.1398 0.985909 24.8139 0.937544 25.4883 0.894282C26.2076 0.848143 26.9271 0.804857 27.6464 0.759649C28.3508 0.71538 29.0552 0.67122 29.7595 0.625236C30.4265 0.581692 31.0932 0.534989 31.7601 0.491239C32.4569 0.445527 33.1537 0.399827 33.8507 0.357616C34.3926 0.324796 34.9351 0.300115 35.477 0.266802C36.159 0.224875 36.8411 0.182668 37.5225 0.131365C38.0023 0.0952374 38.4801 0.0270952 38.9603 0.00389008C39.4252 -0.0185738 39.4864 0.044715 39.5187 0.502009C39.5579 1.05511 39.5793 1.60942 39.6118 2.163C39.6551 2.90049 39.7009 3.63785 39.7472 4.37516C39.7754 4.82459 39.8061 5.27386 39.8367 5.72314C39.8813 6.3785 39.9258 7.03387 39.9724 7.68909C40.0158 8.29976 40.0655 8.91 40.1058 9.52086C40.1548 10.2654 40.1961 11.0105 40.2425 11.7553C40.2705 12.2047 40.3017 12.654 40.3319 13.1033C40.3768 13.7735 40.4216 14.4438 40.4674 15.114C40.5117 15.7619 40.5582 16.4097 40.6017 17.0576C40.6482 17.7502 40.6923 18.4429 40.7373 19.1355C40.7824 19.8281 40.8272 20.5207 40.8722 21.2134C40.9172 21.906 40.9622 22.5986 41.0075 23.2912C41.0523 23.9764 41.0967 24.6616 41.1427 25.3467C41.1866 26.0021 41.1977 26.662 41.2843 27.3118C41.5047 28.9673 41.4502 30.6294 41.4608 32.2905C41.4614 32.3785 41.513 32.4658 41.5387 32.5541C41.5874 32.7213 41.6638 32.8866 41.6776 33.0568C41.7706 34.2069 41.8621 35.3553 41.8823 36.5122C41.8982 37.4194 42.0173 38.3271 41.9979 39.2392C41.9964 39.3057 41.9977 39.3722 41.9977 39.4639C41.766 39.4964 41.5438 39.5389 41.3195 39.5563C40.993 39.5818 40.6646 39.5831 40.3378 39.6055C39.5309 39.661 38.7246 39.7231 37.9179 39.7816C37.6808 39.7987 37.4436 39.8168 37.2061 39.8269C36.4464 39.859 35.6864 39.8832 34.9269 39.9187C34.0722 39.9587 33.2176 40.0022 32.3636 40.0543C31.7938 40.0891 31.2253 40.1466 30.6556 40.1849C29.9141 40.2348 29.1718 40.2735 28.4301 40.3212C27.7857 40.3627 27.1418 40.4128 26.4973 40.4539C25.963 40.4879 25.4273 40.5037 24.8938 40.5471C24.3264 40.5933 23.7612 40.6655 23.1944 40.7203C22.9505 40.7439 22.7052 40.7586 22.4602 40.7666C21.8854 40.7854 21.3101 40.7927 20.7353 40.8141C20.0954 40.838 19.4554 40.8641 18.8164 40.9043C18.0018 40.9556 17.1881 41.0219 16.3741 41.0818C15.9746 41.1113 15.5748 41.1387 15.1756 41.1712C14.4739 41.2283 13.7725 41.2888 13.071 41.3475C12.8788 41.3636 12.6868 41.383 12.4943 41.3929C12.1371 41.4114 11.7796 41.4233 11.4223 41.4393C10.7675 41.4687 10.1125 41.4933 9.45828 41.5307C8.80616 41.5679 8.15499 41.6211 7.50308 41.6623C6.74638 41.7102 5.98933 41.7527 5.23243 41.7975C4.72785 41.8273 4.22286 41.8515 3.71884 41.8886C3.34285 41.9163 2.96811 41.9607 2.56966 42C2.53215 41.7245 2.4845 41.4814 2.46855 41.2362C2.42964 40.6383 2.40892 40.0392 2.37438 39.441C2.33309 38.7257 2.28588 38.0108 2.23967 37.2959C2.19586 36.6181 2.1497 35.9405 2.10518 35.2628C2.05969 34.5702 2.0151 33.8775 1.96981 33.1849C1.92501 32.4997 1.87984 31.8146 1.83483 31.1294C1.78982 30.4442 1.74519 29.759 1.69969 29.0739C1.65518 28.4036 1.60962 27.7334 1.5648 27.0631C1.51949 26.3855 1.47522 25.7077 1.4292 25.0301C1.3852 24.3821 1.33801 23.7344 1.29504 23.0864C1.24812 22.379 1.20512 21.6713 1.15914 20.9638C1.1151 20.2861 1.0691 19.6084 1.02458 18.9307C0.979088 18.2381 0.934517 17.5454 0.889236 16.8528C0.844441 16.1676 0.798883 15.4825 0.75436 14.7973C0.708871 14.0972 0.663863 13.3972 0.619323 12.697C0.573838 11.9821 0.528812 11.267 0.484257 10.552C0.438775 9.82211 0.396093 9.09203 0.348494 8.36227C0.306225 7.71422 0.259467 7.06646 0.213636 6.41865C0.169382 5.79312 0.117454 5.16805 0.0805377 4.5421C0.043079 3.90694 0.0198577 3.27095 0 2.60884C0.0180847 2.57455 0.0260347 2.56624 0.0334492 2.55743ZM8.54038 13.2168C8.37502 13.4411 8.20009 13.6592 8.04616 13.891C7.63711 14.5071 7.25431 15.1411 6.82934 15.7459C6.24195 16.5819 5.82081 17.498 5.48707 18.4517C5.30256 18.979 5.19829 19.5354 5.07792 20.083C4.97291 20.5608 4.84484 21.0418 4.81835 21.5263C4.77526 22.3146 4.80646 23.1068 4.80722 23.8974C4.80728 23.964 4.80827 24.0315 4.81901 24.097C4.91854 24.7033 5.03397 25.3073 5.11815 25.9157C5.23861 26.7861 5.41448 27.6396 5.68448 28.4796C5.88894 29.1157 6.19781 29.6551 6.69857 30.1047C7.1546 30.514 7.57232 30.9655 8.00857 31.3968C8.31565 31.7004 8.58649 32.0506 9.02408 32.1897C9.03728 32.1939 9.04579 32.2113 9.05894 32.2171C9.50827 32.4146 9.94752 32.6419 10.411 32.7982C10.7407 32.9093 11.1029 32.9263 11.451 32.9822C11.7417 33.0288 12.0453 33.1453 12.3217 33.1004C13.0591 32.9804 13.7961 32.8275 14.5122 32.6172C15.2143 32.4109 15.8912 32.1194 16.5779 31.8622C17.5811 31.4865 18.563 31.09 19.4432 30.4439C20.4546 29.7014 21.453 28.9559 22.2677 27.9966C22.6868 27.503 23.1002 27.0031 23.4895 26.4862C24.0851 25.6955 24.6598 24.8897 25.3967 24.2165C25.5341 24.0909 25.6656 23.9567 25.7851 23.8143C26.2217 23.294 26.4311 22.6575 26.6889 22.0457C26.8536 21.6551 27.0024 21.2558 27.1978 20.8808C27.4207 20.4531 27.7094 20.0593 27.9306 19.6309C28.3854 18.75 28.8199 17.8586 29.2505 16.9658C29.3929 16.6704 29.5077 16.3607 29.6178 16.0515C29.8526 15.3914 30.0837 14.7298 30.3024 14.0644C30.5754 13.2339 31.0095 12.459 31.1691 11.5899C31.2306 11.2549 31.2051 10.9689 30.8841 10.8073C30.7938 10.7618 30.7245 10.6767 30.6399 10.6179C30.1997 10.3117 29.7628 9.99592 29.2206 9.88806C28.4499 9.73478 27.6744 9.60376 26.9076 9.43351C26.0198 9.23639 25.1361 9.01909 24.2568 8.78752C23.6548 8.62899 23.0481 8.55077 22.4297 8.59679C21.8323 8.64123 21.237 8.71252 20.6406 8.76992C20.4413 8.78911 20.2415 8.80782 20.0415 8.81629C19.6168 8.83428 19.1919 8.85036 18.7669 8.85792C18.3525 8.86529 17.9352 8.83101 17.5241 8.86863C16.8191 8.93315 16.1154 9.02343 15.416 9.13335C14.8802 9.21757 14.3338 9.29685 13.8241 9.47085C13.0059 9.75017 12.217 10.1131 11.4103 10.427C10.8368 10.6501 10.3548 10.9948 9.9628 11.4597C9.48329 12.0285 9.01845 12.6094 8.54038 13.2168Z" fill="#F46F0B"/>
</svg>
