<svg width="42" height="42" viewBox="0 0 42 42" fill="none" xmlns="http://www.w3.org/2000/svg">
<path d="M2.17609 39.1267C1.87742 39.0686 1.77778 38.9631 1.79252 38.6671C1.80394 38.4378 1.72495 38.2 1.87785 37.9766C1.91944 37.9159 1.83372 37.7779 1.83053 37.6746C1.82257 37.4176 1.82848 37.1601 1.84343 36.8848C1.87388 36.8667 1.88973 36.8667 1.91556 36.8724C1.95383 36.8568 1.98211 36.8356 2.01039 36.8144C1.96465 36.78 1.91891 36.7456 1.87316 36.7112C1.87135 36.3862 1.86953 36.0612 1.88232 35.7181C1.91277 35.7001 1.92862 35.7001 1.95445 35.7057C1.99272 35.6901 2.021 35.669 2.04928 35.6478C2.00354 35.6134 1.9578 35.5789 1.91205 35.5445C1.91024 35.2065 1.90842 34.8686 1.92121 34.5126C1.95166 34.4945 1.96751 34.4945 1.99334 34.5001C2.0316 34.4846 2.05989 34.4634 2.08817 34.4422C2.04243 34.4078 1.99669 34.3734 1.95094 34.3389C1.94912 34.0139 1.94731 33.689 1.9601 33.3459C1.99055 33.3278 2.00639 33.3278 2.03222 33.3335C2.07049 33.3179 2.09878 33.2967 2.12706 33.2756C2.08132 33.2411 2.03557 33.2067 1.98983 33.1723C1.98801 32.8473 1.9862 32.5223 1.99899 32.1792C2.02944 32.1612 2.04528 32.1612 2.07111 32.1668C2.10938 32.1513 2.13767 32.1301 2.16595 32.1089C2.12021 32.0745 2.07446 32.04 2.02872 32.0056C2.0269 31.6677 2.02509 31.3297 2.03788 30.9737C2.06833 30.9556 2.08417 30.9556 2.11 30.9613C2.14827 30.9457 2.17655 30.9245 2.20484 30.9033C2.15909 30.8689 2.11335 30.8345 2.06761 30.8001C2.06579 30.4751 2.06397 30.1501 2.07677 29.807C2.10722 29.789 2.12306 29.789 2.14889 29.7946C2.18716 29.779 2.21544 29.7579 2.24373 29.7367C2.19798 29.7022 2.15224 29.6678 2.1065 29.6334C2.10468 29.3084 2.10286 28.9834 2.11565 28.6403C2.14611 28.6223 2.16195 28.6223 2.18778 28.6279C2.22605 28.6124 2.25433 28.5912 2.28261 28.57C2.23687 28.5356 2.19113 28.5011 2.14539 28.4667C2.14357 28.1288 2.14175 27.7908 2.15454 27.4348C2.18499 27.4167 2.20084 27.4167 2.22667 27.4224C2.26494 27.4068 2.29322 27.3856 2.3215 27.3644C2.27576 27.33 2.23002 27.2956 2.18428 27.2612C2.18246 26.9362 2.18064 26.6112 2.19343 26.2681C2.22388 26.2501 2.23973 26.2501 2.26556 26.2557C2.30383 26.2401 2.33211 26.219 2.36039 26.1978C2.31465 26.1634 2.26891 26.1289 2.22316 26.0945C2.22135 25.7695 2.21953 25.4445 2.23232 25.1015C2.26277 25.0834 2.27862 25.0834 2.30445 25.089C2.34272 25.0735 2.371 25.0523 2.39928 25.0311C2.35354 24.9967 2.3078 24.9623 2.26205 24.9278C2.26024 24.5899 2.25842 24.2519 2.27121 23.8959C2.30166 23.8778 2.31751 23.8778 2.34334 23.8835C2.3816 23.8679 2.40989 23.8467 2.43817 23.8256C2.39243 23.7911 2.34668 23.7567 2.30094 23.7223C2.29912 23.3973 2.29731 23.0723 2.3101 22.7292C2.34055 22.7112 2.35639 22.7112 2.38222 22.7168C2.42049 22.7013 2.44878 22.6801 2.47706 22.6589C2.43132 22.6245 2.38557 22.59 2.33983 22.5556C2.33801 22.2306 2.3362 21.9056 2.34899 21.5626C2.37944 21.5445 2.39528 21.5445 2.42111 21.5501C2.45938 21.5346 2.48767 21.5134 2.51595 21.4922C2.47021 21.4578 2.42446 21.4234 2.37872 21.3889C2.3769 21.051 2.37509 20.713 2.38788 20.357C2.41833 20.339 2.43417 20.339 2.46 20.3446C2.49827 20.329 2.52655 20.3079 2.55484 20.2867C2.50909 20.2522 2.46335 20.2178 2.41761 20.1834C2.41579 19.8584 2.41397 19.5334 2.42677 19.1903C2.45722 19.1723 2.47306 19.1723 2.49889 19.1779C2.53716 19.1624 2.56544 19.1412 2.59373 19.12C2.54798 19.0856 2.50224 19.0511 2.4565 19.0167C2.45468 18.6917 2.45286 18.3667 2.46565 18.0237C2.49611 18.0056 2.51195 18.0056 2.53778 18.0113C2.57605 17.9957 2.60433 17.9745 2.63262 17.9533C2.58687 17.9189 2.54113 17.8845 2.49539 17.8501C2.49357 17.5121 2.49175 17.1741 2.50454 16.8181C2.53499 16.8001 2.55084 16.8001 2.57667 16.8057C2.61494 16.7901 2.64322 16.769 2.6715 16.7478C2.62576 16.7134 2.58002 16.6789 2.53427 16.6445C2.53246 16.3195 2.53064 15.9945 2.54343 15.6515C2.57388 15.6334 2.58973 15.6334 2.61556 15.639C2.65383 15.6235 2.68211 15.6023 2.71039 15.5811C2.66465 15.5467 2.61891 15.5123 2.57316 15.4778C2.57135 15.1528 2.56953 14.8278 2.58232 14.4848C2.61277 14.4667 2.62862 14.4667 2.65445 14.4724C2.69271 14.4568 2.721 14.4356 2.74928 14.4144C2.70354 14.38 2.6578 14.3456 2.61205 14.3112C2.61024 13.9732 2.60842 13.6352 2.62121 13.2792C2.65166 13.2612 2.66751 13.2612 2.69333 13.2668C2.7316 13.2513 2.75989 13.2301 2.78817 13.2089C2.74243 13.1745 2.69668 13.14 2.65094 13.1056C2.64912 12.7806 2.64731 12.4556 2.6601 12.1126C2.69055 12.0945 2.70639 12.0945 2.73222 12.1001C2.77049 12.0846 2.79878 12.0634 2.82706 12.0422C2.78132 12.0078 2.73557 11.9734 2.68983 11.9389C2.68801 11.6139 2.6862 11.2889 2.69899 10.9459C2.72944 10.9278 2.74528 10.9278 2.77111 10.9335C2.80938 10.9179 2.83767 10.8967 2.86595 10.8756C2.82021 10.8411 2.77446 10.8067 2.72872 10.7723C2.7269 10.4343 2.72508 10.0964 2.73788 9.74035C2.76833 9.7223 2.78417 9.72229 2.81 9.72792C2.84827 9.71237 2.87655 9.69118 2.90484 9.67C2.85909 9.63557 2.81335 9.60115 2.76761 9.56672C2.76579 9.24173 2.76397 8.91673 2.77677 8.57368C2.80722 8.55563 2.82306 8.55563 2.84889 8.56126C2.88716 8.5457 2.91544 8.52452 2.94373 8.50333C2.89798 8.46891 2.85224 8.43448 2.8065 8.40006C2.80468 8.07506 2.80286 7.75006 2.81565 7.40701C2.84611 7.38896 2.86195 7.38896 2.88778 7.39459C2.92605 7.37904 2.95433 7.35785 2.98261 7.33667C2.93687 7.30224 2.89113 7.26782 2.84539 7.23339C2.84357 6.90839 2.84175 6.58339 2.85454 6.24035C2.88499 6.2223 2.90084 6.22229 2.92667 6.22792C2.96494 6.21237 2.99322 6.19118 3.0215 6.17C2.97576 6.13557 2.93002 6.10115 2.88427 6.06672C2.88246 5.72876 2.88064 5.3908 2.89343 5.03479C2.92388 5.01674 2.93973 5.01674 2.96556 5.02237C3.00383 5.00681 3.03211 4.98563 3.06039 4.96444C3.01465 4.93002 2.96891 4.89559 2.92316 4.86117C2.92135 4.53617 2.91953 4.21117 2.93232 3.86812C2.96277 3.85007 2.97862 3.85007 3.00445 3.8557C3.04272 3.84015 3.071 3.81896 3.09928 3.79778C3.05354 3.76335 3.0078 3.72893 2.96205 3.6945C2.96024 3.3695 2.95842 3.0445 2.97121 2.70146C3.00166 2.68341 3.01751 2.68341 3.04334 2.68903C3.0816 2.67348 3.10989 2.6523 3.13817 2.63111C3.09243 2.59669 3.04668 2.56226 3.00094 2.52783C2.99912 2.31948 2.99731 2.11112 3.0101 1.88475C3.04055 1.86674 3.05639 1.86674 3.08147 1.87259C3.12344 1.86157 3.15617 1.84471 3.20385 1.82197C3.45005 1.81998 3.68139 1.82081 3.91252 1.82832C4.64949 1.85226 5.38636 1.8791 6.1233 1.90403C6.91852 1.93093 7.71378 1.95667 8.509 1.98341C9.25889 2.00862 10.0087 2.03615 10.7587 2.05962C11.6575 2.08775 12.5565 2.11184 13.4554 2.1392C14.2507 2.16341 15.0459 2.19014 15.8412 2.21493C16.7077 2.24195 17.5743 2.26584 18.4408 2.29523C19.0741 2.31671 19.7072 2.34636 20.3405 2.36974C21.4458 2.41054 22.5511 2.45041 23.6565 2.48843C24.1156 2.50422 24.5749 2.51325 25.0341 2.52708C25.8812 2.55257 26.7283 2.57856 27.5754 2.6058C28.3318 2.63013 29.0882 2.65423 29.8444 2.68242C30.8397 2.71953 31.8349 2.75928 32.83 2.80039C33.3726 2.82281 33.9148 2.85486 34.4575 2.8746C35.298 2.90519 36.1386 2.93258 36.9793 2.95451C37.6911 2.97308 38.4032 2.9797 39.1151 2.99641C39.3671 3.00232 39.6189 3.01926 39.8704 3.0373C40.0061 3.04704 40.1395 3.0846 40.1468 3.25117C40.157 3.4834 40.1591 3.71683 40.1482 3.94897C40.1228 4.49091 40.0795 5.03206 40.058 5.57411C40.025 6.40148 40.0043 7.22933 39.9785 8.05698C39.9524 8.8911 39.9268 9.72524 39.9003 10.5594C39.8749 11.3611 39.8485 12.1628 39.8228 12.9645C39.7967 13.7792 39.7711 14.5939 39.7451 15.4086C39.7192 16.2168 39.6931 17.025 39.6671 17.8332C39.6412 18.6349 39.6155 19.4366 39.5894 20.2384C39.5637 21.0271 39.5377 21.8159 39.5117 22.6046C39.4859 23.3869 39.4596 24.1692 39.4337 24.9515C39.4078 25.7338 39.3818 26.516 39.3565 27.2983C39.3299 28.1195 39.3044 28.9407 39.2779 29.7618C39.2526 30.5441 39.2261 31.3264 39.2013 32.1087C39.1743 32.9622 39.1493 33.8158 39.1221 34.6694C39.0977 35.4323 39.0719 36.1951 39.046 36.9579C39.0075 38.0957 38.9683 39.2334 38.9294 40.3712C38.7334 40.3953 38.5373 40.4194 38.3186 40.431C38.2597 40.4157 38.2234 40.4129 38.1872 40.41C37.8239 40.4082 37.4605 40.4064 37.0743 40.3921C37.0152 40.3768 36.979 40.374 36.9428 40.3711C36.5924 40.3693 36.242 40.3675 35.8688 40.3533C35.8097 40.338 35.7734 40.3351 35.7372 40.3322C35.4128 40.3304 35.0883 40.3286 34.741 40.3144C34.6819 40.2991 34.6457 40.2962 34.6094 40.2934C34.285 40.2915 33.9605 40.2897 33.6132 40.2755C33.5541 40.2602 33.5179 40.2573 33.4816 40.2545C33.1961 40.2527 32.9105 40.2508 32.6021 40.2366C32.543 40.2213 32.5068 40.2184 32.4705 40.2156C32.185 40.2138 31.8994 40.212 31.591 40.1977C31.5319 40.1824 31.4957 40.1795 31.4594 40.1767C31.1609 40.1749 30.8624 40.1731 30.541 40.1588C30.4819 40.1435 30.4457 40.1407 30.4094 40.1378C30.1109 40.136 29.8124 40.1342 29.491 40.1199C29.4319 40.1046 29.3957 40.1018 29.3594 40.0989C29.0479 40.0971 28.7365 40.0953 28.4021 40.081C28.343 40.0657 28.3068 40.0629 28.2705 40.06C27.9591 40.0582 27.6476 40.0564 27.3132 40.0422C27.2541 40.0268 27.2179 40.024 27.1816 40.0211C26.8702 40.0193 26.5587 40.0175 26.2234 40.0025C26.151 39.987 26.1024 39.9846 26.0539 39.9822C25.7554 39.9804 25.4568 39.9786 25.1354 39.9644C25.0763 39.9491 25.0401 39.9462 25.0039 39.9434C24.6924 39.9415 24.3809 39.9397 24.0466 39.9255C23.9874 39.9102 23.9512 39.9073 23.915 39.9045C23.5905 39.9027 23.2661 39.9008 22.9188 39.8866C22.8597 39.8713 22.8234 39.8684 22.7872 39.8656C22.4628 39.8638 22.1383 39.862 21.791 39.8477C21.7319 39.8324 21.6957 39.8295 21.6594 39.8267C21.335 39.8249 21.0105 39.8231 20.6632 39.8088C20.6041 39.7935 20.5679 39.7907 20.5316 39.7878C20.2202 39.786 19.9087 39.7842 19.5743 39.7699C19.5152 39.7546 19.479 39.7518 19.4428 39.7489C19.1442 39.7471 18.8457 39.7453 18.5243 39.731C18.4652 39.7157 18.429 39.7129 18.3928 39.71C18.0813 39.7082 17.7698 39.7064 17.4354 39.6922C17.3763 39.6768 17.3401 39.674 17.3039 39.6711C17.0053 39.6693 16.7068 39.6675 16.3854 39.6533C16.3263 39.638 16.2901 39.6351 16.2539 39.6322C15.9424 39.6304 15.6309 39.6286 15.2966 39.6144C15.2374 39.5991 15.2012 39.5962 15.165 39.5934C14.8535 39.5915 14.542 39.5897 14.2077 39.5755C14.1485 39.5602 14.1123 39.5573 14.0761 39.5545C13.7128 39.5527 13.3494 39.5508 12.9632 39.5366C12.9041 39.5213 12.8679 39.5184 12.8316 39.5156C12.4683 39.5138 12.105 39.512 11.7188 39.4977C11.6597 39.4824 11.6234 39.4795 11.5872 39.4767C11.2498 39.4749 10.9124 39.4731 10.55 39.4573C10.4513 39.4416 10.3776 39.4397 10.3039 39.4378C10.0442 39.436 9.78461 39.4342 9.5021 39.4199C9.44299 39.4046 9.40676 39.4018 9.37053 39.3989C9.07202 39.3971 8.7735 39.3953 8.4521 39.381C8.39299 39.3657 8.35676 39.3629 8.32053 39.36C8.03498 39.3582 7.74943 39.3564 7.44099 39.3421C7.38188 39.3268 7.34565 39.324 7.30942 39.3211C7.0109 39.3193 6.71239 39.3175 6.39099 39.3033C6.33188 39.288 6.29565 39.2851 6.25942 39.2822C5.97387 39.2804 5.68831 39.2786 5.37988 39.2644C5.32077 39.2491 5.28454 39.2462 5.24831 39.2433C4.94979 39.2415 4.65128 39.2397 4.32988 39.2255C4.27077 39.2102 4.23454 39.2073 4.19831 39.2045C3.89979 39.2027 3.60128 39.2008 3.27988 39.1866C3.22077 39.1713 3.18454 39.1684 3.14831 39.1656C2.87572 39.1638 2.60312 39.162 2.30765 39.1477C2.24855 39.1324 2.21232 39.1295 2.17609 39.1267ZM37.2142 5.03218C37.2065 4.96219 37.2037 4.88595 37.0634 4.93967C36.7775 4.95024 36.4915 4.9608 36.1959 4.95194C36.1597 4.94911 36.1235 4.94629 36.052 4.93968C35.9217 4.93728 35.7914 4.93488 35.6514 4.91305C35.6152 4.91023 35.5791 4.9074 35.5092 4.90079C35.4302 4.89839 35.3512 4.89599 35.2625 4.87416C35.2264 4.87134 35.1902 4.86851 35.1219 4.8619C35.0683 4.8595 35.0147 4.8571 34.9514 4.83527C34.9152 4.83245 34.8791 4.82962 34.8108 4.82301C34.7572 4.82061 34.7036 4.81821 34.6403 4.79638C34.6041 4.79356 34.5679 4.79073 34.4981 4.78412C34.4191 4.78172 34.3401 4.77932 34.2514 4.75749C34.2152 4.75467 34.1791 4.75185 34.1068 4.74523C33.7276 4.75794 33.3483 4.76657 32.9694 4.78441C32.515 4.8058 32.0608 4.83338 31.6068 4.8613C30.9998 4.89861 30.3934 4.95052 29.786 4.97394C29.334 4.99136 28.8806 4.97351 28.4181 4.95194C28.3819 4.94911 28.3457 4.94629 28.2746 4.93968C28.1571 4.93728 28.0397 4.93488 27.9125 4.91305C27.8764 4.91023 27.8402 4.9074 27.7698 4.90079C27.678 4.89839 27.5862 4.89599 27.4848 4.87416C27.4486 4.87134 27.4124 4.86851 27.342 4.8619C27.2502 4.8595 27.1585 4.8571 27.057 4.83527C27.0208 4.83245 26.9846 4.82962 26.9154 4.82301C26.8492 4.82061 26.7829 4.81821 26.707 4.79638C26.6708 4.79356 26.6346 4.79074 26.5647 4.78412C26.4858 4.78172 26.4068 4.77932 26.3181 4.75749C26.2819 4.75467 26.2457 4.75185 26.1775 4.74523C26.1239 4.74283 26.0703 4.74043 26.007 4.7186C25.9708 4.71578 25.9346 4.71296 25.8654 4.70635C25.7992 4.70394 25.7329 4.70154 25.657 4.67972C25.6208 4.67689 25.5846 4.67407 25.5154 4.66746C25.4492 4.66506 25.3829 4.66266 25.307 4.64083C25.2708 4.638 25.2346 4.63518 25.1654 4.62857C25.0992 4.62617 25.0329 4.62377 24.957 4.60194C24.9208 4.59911 24.8846 4.59629 24.8142 4.58968C24.7224 4.58728 24.6307 4.58488 24.5292 4.56305C24.493 4.56023 24.4568 4.5574 24.3857 4.55079C24.2682 4.54839 24.1508 4.54599 24.0237 4.52416C23.9875 4.52134 23.9513 4.51851 23.879 4.5119C23.6781 4.51166 23.4765 4.52169 23.2764 4.50859C23.024 4.49206 22.8103 4.55829 22.6113 4.75235C22.5538 4.83832 22.4964 4.92429 22.4131 5.01554C22.3958 5.01378 22.3785 5.01202 22.3514 4.99083C22.3152 4.988 22.2791 4.98518 22.2082 4.97857C22.1036 4.97617 21.999 4.97377 21.8848 4.95194C21.8486 4.94911 21.8124 4.94629 21.742 4.93968C21.6502 4.93728 21.5585 4.93488 21.457 4.91305C21.4208 4.91023 21.3846 4.9074 21.3138 4.90079C21.2092 4.89839 21.1046 4.89599 20.9903 4.87416C20.9541 4.87134 20.9179 4.86851 20.8457 4.8619C20.1064 4.8595 19.3671 4.8571 18.6181 4.83527C18.5819 4.83245 18.5457 4.82962 18.4749 4.82301C18.3703 4.82061 18.2657 4.81821 18.1514 4.79638C18.1152 4.79356 18.0791 4.79073 18.0092 4.78412C17.9302 4.78172 17.8512 4.77932 17.7626 4.75749C17.7264 4.75467 17.6902 4.75185 17.621 4.74523C17.5547 4.74283 17.4885 4.74043 17.4126 4.7186C17.3764 4.71578 17.3402 4.71296 17.2719 4.70634C17.2183 4.70394 17.1647 4.70154 17.1014 4.67971C17.0652 4.67689 17.0291 4.67407 16.9608 4.66746C16.9072 4.66506 16.8536 4.66266 16.7903 4.64083C16.7541 4.638 16.7179 4.63518 16.6497 4.62857C16.5961 4.62617 16.5425 4.62377 16.4792 4.60194C16.443 4.59911 16.4068 4.59629 16.3399 4.58967C16.2989 4.58728 16.2578 4.58488 16.207 4.56305C16.1708 4.56022 16.1346 4.5574 16.0677 4.55079C16.0266 4.54839 15.9855 4.54599 15.9348 4.52416C15.8986 4.52134 15.8624 4.51851 15.7955 4.5119C15.7544 4.5095 15.7133 4.5071 15.6626 4.48527C15.6264 4.48245 15.5902 4.47962 15.5253 4.47299C15.4965 4.47059 15.4677 4.4682 15.4292 4.44638C15.393 4.44356 15.3568 4.44073 15.2899 4.43412C15.2489 4.43172 15.2078 4.42932 15.157 4.40749C15.1208 4.40467 15.0846 4.40185 15.0177 4.39523C14.9766 4.39283 14.9355 4.39043 14.8848 4.3686C14.8486 4.36578 14.8124 4.36296 14.7475 4.35632C14.7187 4.35393 14.6899 4.35154 14.6514 4.32971C14.6152 4.32689 14.5791 4.32407 14.5141 4.31743C14.4854 4.31504 14.4566 4.31265 14.4181 4.29083C14.3819 4.288 14.3457 4.28518 14.2808 4.27854C14.252 4.27615 14.2232 4.27376 14.1848 4.25194C14.1486 4.24911 14.1124 4.24629 14.0475 4.23965C14.0187 4.23726 13.9899 4.23487 13.9514 4.21305C13.9152 4.21022 13.8791 4.2074 13.8141 4.20076C13.7854 4.19837 13.7566 4.19598 13.7181 4.17416C13.6819 4.17134 13.6457 4.16851 13.5808 4.16188C13.552 4.15948 13.5232 4.15709 13.4848 4.13527C13.4486 4.13245 13.4124 4.12962 13.3475 4.12299C13.3187 4.12059 13.2899 4.1182 13.2514 4.09638C13.2152 4.09356 13.1791 4.09073 13.1141 4.0841C13.0854 4.08171 13.0566 4.07931 13.0181 4.05749C12.9819 4.05467 12.9457 4.05185 12.8808 4.04521C12.852 4.04282 12.8232 4.04043 12.7848 4.0186C12.7486 4.01578 12.7124 4.01296 12.6475 4.00632C12.6187 4.00393 12.5899 4.00154 12.5514 3.97971C12.5152 3.97689 12.4791 3.97407 12.4141 3.96743C12.3854 3.96504 12.3566 3.96265 12.3181 3.94083C12.2819 3.938 12.2457 3.93518 12.1841 3.92841C12.1672 3.92606 12.1503 3.92371 12.1237 3.90194C12.0875 3.89911 12.0513 3.89629 11.9864 3.88965C11.9576 3.88726 11.9288 3.88487 11.8903 3.86305C11.8541 3.86022 11.8179 3.8574 11.753 3.85076C11.7243 3.84837 11.6955 3.84598 11.657 3.82416C11.6208 3.82134 11.5846 3.81851 11.523 3.81174C11.5061 3.80939 11.4892 3.80705 11.4626 3.78527C11.4264 3.78245 11.3902 3.77962 11.3253 3.77299C11.2965 3.77059 11.2677 3.7682 11.2292 3.74638C11.193 3.74356 11.1568 3.74073 11.0952 3.73396C11.0783 3.73162 11.0614 3.72927 11.0348 3.70749C10.9986 3.70467 10.9624 3.70185 10.8955 3.69523C10.8544 3.69283 10.8133 3.69043 10.7626 3.6686C10.7264 3.66578 10.6902 3.66296 10.6233 3.65634C10.5822 3.65394 10.5411 3.65154 10.4903 3.62971C10.4541 3.62689 10.4179 3.62407 10.3481 3.61746C10.2691 3.61506 10.1901 3.61266 10.1014 3.59083C10.0652 3.588 10.0291 3.58518 9.95918 3.57857C9.8802 3.57617 9.80122 3.57377 9.71255 3.55194C9.67636 3.54911 9.64016 3.54629 9.57238 3.53969C9.41305 3.497 9.32241 3.6085 9.19427 3.70252C9.01034 3.82456 8.94823 3.99205 9.0153 4.24277C9.25968 5.15628 9.5124 6.06756 9.75591 6.9813C10.3246 9.11524 10.8918 11.2496 11.4556 13.3848C11.7763 14.5997 12.0776 15.8199 12.4086 17.0319C12.7446 18.2622 13.0928 19.4895 13.4605 20.7105C13.8115 21.8757 14.2142 23.0254 14.5587 24.1923C15.0667 25.9128 15.5444 27.6422 16.0324 29.3685C16.1364 29.7363 16.3419 29.8546 16.7282 29.8118C17.1771 29.762 17.636 29.6848 18.0796 29.7293C19.012 29.8229 19.9392 29.9764 20.865 30.1273C21.9892 30.3106 23.1148 30.4807 24.2541 30.524C25.2948 30.5634 26.3365 30.5793 27.406 30.6026C27.461 30.5462 27.5396 30.4996 27.5676 30.432C27.9499 29.5109 28.3315 28.5895 28.7008 27.6632C29.4824 25.7026 30.2606 23.7405 31.0329 21.7762C31.9307 19.4924 32.8333 17.2103 33.7101 14.9184C34.3926 13.1343 35.027 11.332 35.7053 9.54633C36.1167 8.46345 36.5682 7.39571 37.0083 6.32385C37.1335 6.01872 37.2891 5.7261 37.4168 5.4219C37.4985 5.22732 37.4167 5.0981 37.2155 5.05674C37.2155 5.05674 37.2143 5.05931 37.2142 5.03218Z" fill="#FFBB4F"/>
<path d="M38.9419 40.3653C38.9683 39.2333 39.0075 38.0956 39.046 36.9578C39.0719 36.195 39.0977 35.4322 39.122 34.6693C39.1493 33.8157 39.1743 32.9621 39.2013 32.1086C39.2261 31.3263 39.2526 30.544 39.2779 29.7617C39.3044 28.9406 39.3299 28.1194 39.3565 27.2982C39.3818 26.5159 39.4078 25.7337 39.4337 24.9514C39.4596 24.1691 39.4858 23.3868 39.5117 22.6045C39.5377 21.8158 39.5637 21.027 39.5893 20.2383C39.6154 19.4365 39.6412 18.6348 39.6671 17.8331C39.6931 17.0249 39.7192 16.2167 39.7451 15.4085C39.7711 14.5938 39.7967 13.7791 39.8228 12.9644C39.8485 12.1627 39.8749 11.361 39.9003 10.5592C39.9268 9.72513 39.9524 8.89099 39.9785 8.05687C40.0043 7.22922 40.025 6.40137 40.058 5.574C40.0795 5.03195 40.1227 4.4908 40.1482 3.94886C40.1591 3.71672 40.157 3.48329 40.1468 3.25107C40.1395 3.0845 40.0061 3.04693 39.8704 3.03719C39.6189 3.01915 39.3671 3.00222 39.1151 2.9963C38.4032 2.97959 37.6911 2.97298 36.9793 2.95441C36.1386 2.93247 35.298 2.90508 34.4575 2.8745C33.9148 2.85475 33.3726 2.8227 32.83 2.80028C31.8349 2.75917 30.8397 2.71942 29.8444 2.68231C29.0882 2.65412 28.3318 2.63003 27.5754 2.6057C26.7283 2.57845 25.8812 2.55247 25.0341 2.52697C24.5749 2.51315 24.1156 2.50411 23.6565 2.48832C22.5511 2.45031 21.4458 2.41044 20.3405 2.36963C19.7072 2.34625 19.0741 2.31661 18.4407 2.29512C17.5743 2.26574 16.7077 2.24185 15.8412 2.21483C15.0459 2.19003 14.2507 2.1633 13.4554 2.1391C12.5565 2.11174 11.6575 2.08764 10.7586 2.05951C10.0087 2.03604 9.25888 2.00852 8.50899 1.9833C7.71377 1.95656 6.91851 1.93082 6.12329 1.90392C5.38635 1.879 4.64948 1.85215 3.91251 1.82821C3.68138 1.82071 3.45003 1.81987 3.19133 1.82298C3.13332 1.84219 3.10277 1.85441 3.07222 1.86663C3.05638 1.86663 3.04054 1.86664 3.01281 1.86664C3.00326 1.64193 3.18596 1.63585 3.32499 1.63887C3.90985 1.65156 4.49426 1.6845 5.07884 1.70995C5.09825 1.71079 5.11771 1.71063 5.13714 1.71103C5.77615 1.724 6.41525 1.73343 7.05413 1.75086C7.87211 1.77317 8.68994 1.80125 9.50778 1.82826C9.83578 1.8391 10.1636 1.85559 10.4916 1.86618C10.9491 1.88095 11.4067 1.89212 11.8642 1.90573C12.2764 1.91799 12.6886 1.93201 13.1008 1.94427C13.5583 1.95788 14.0159 1.96983 14.4734 1.98354C14.8791 1.99569 15.2848 2.00979 15.6905 2.02204C16.1415 2.03567 16.5926 2.0472 17.0437 2.06147C17.404 2.07288 17.7643 2.08699 18.1247 2.09997C18.8453 2.12595 19.566 2.15125 20.2867 2.17837C20.5693 2.189 20.8517 2.2061 21.1344 2.21618C21.9004 2.24349 22.6665 2.268 23.4325 2.29492C23.7475 2.30599 24.0623 2.32419 24.3774 2.33248C24.9774 2.34827 25.5777 2.35763 26.1777 2.37285C26.5641 2.38265 26.9502 2.39846 27.3365 2.41102C28.1414 2.43718 28.9464 2.46145 29.7512 2.48938C30.4331 2.51304 31.1149 2.53904 31.7966 2.5672C32.3618 2.59054 32.9268 2.62005 33.492 2.64409C34.1413 2.6717 34.7907 2.69773 35.4401 2.72169C35.8652 2.73737 36.2904 2.74795 36.7155 2.76121C37.1212 2.77386 37.5269 2.78773 37.9326 2.79978C38.3966 2.81357 38.8608 2.82378 39.3247 2.83994C39.5232 2.84686 39.7214 2.86431 39.9196 2.87803C40.1396 2.89325 40.2777 3.04903 40.2838 3.34819C40.2891 3.6042 40.2436 3.86085 40.2362 4.11766C40.2297 4.34606 40.252 4.57518 40.2485 4.80378C40.2401 5.35861 40.2255 5.91336 40.2105 6.46806C40.2002 6.8479 40.1843 7.22759 40.1725 7.6074C40.1585 8.05843 40.1472 8.50955 40.1329 8.96058C40.1215 9.32095 40.1061 9.68121 40.0948 10.0416C40.0804 10.4991 40.0698 10.9567 40.0549 11.4142C40.0444 11.7357 40.0272 12.057 40.0172 12.3786C40.0021 12.8685 39.9917 13.3585 39.9774 13.8484C39.966 14.2412 39.9516 14.6339 39.9389 15.0266C39.9128 15.838 39.8871 16.6494 39.861 17.4608C39.8484 17.8535 39.8349 18.2463 39.8223 18.639C39.809 19.0512 39.7967 19.4634 39.7831 19.8755C39.7708 20.2489 39.7865 20.6261 39.7367 20.9944C39.6815 21.4024 39.7544 21.8112 39.6977 22.2118C39.6444 22.5877 39.714 22.9636 39.6603 23.3322C39.6008 23.7397 39.6774 24.1491 39.6195 24.5494C39.5643 24.9321 39.6329 25.3132 39.5841 25.6897C39.5305 26.1028 39.5952 26.5191 39.5408 26.926C39.4913 27.2959 39.5503 27.6631 39.5076 28.0276C39.4561 28.466 39.5177 28.9091 39.4605 29.3412C39.4166 29.6734 39.4683 30.0001 39.432 30.3267C39.3797 30.7967 39.4277 31.2706 39.385 31.7379C39.3483 32.1391 39.4011 32.541 39.3486 32.9358C39.2926 33.3564 39.3651 33.7783 39.3087 34.192C39.2565 34.5744 39.3262 34.9568 39.2714 35.3319C39.2091 35.7588 39.2935 36.1886 39.2292 36.6071C39.1712 36.9844 39.2475 37.3583 39.1957 37.7282C39.1406 38.1217 39.2088 38.5199 39.1501 38.9058C39.1016 39.2253 39.1515 39.5383 39.1218 39.8526C39.1086 39.9921 39.0977 40.1325 39.0695 40.2691C39.062 40.3056 38.9944 40.3297 38.9419 40.3653Z" fill="#FFBB4F"/>
<path d="M2.29815 23.7349C2.34666 23.7568 2.39241 23.7912 2.43815 23.8256C2.40987 23.8468 2.38158 23.868 2.33993 23.8726C2.31439 23.8368 2.30221 23.8176 2.29004 23.7984C2.29182 23.7814 2.29359 23.7644 2.29815 23.7349Z" fill="#FFBB4F"/>
<path d="M1.87035 36.7236C1.91887 36.7455 1.96461 36.7799 2.01035 36.8144C1.98207 36.8356 1.95379 36.8567 1.91213 36.8614C1.88659 36.8256 1.87442 36.8064 1.86224 36.7872C1.86402 36.7702 1.8658 36.7532 1.87035 36.7236Z" fill="#FFBB4F"/>
<path d="M2.25927 24.9402C2.30778 24.9621 2.35353 24.9965 2.39927 25.0309C2.37099 25.0521 2.3427 25.0733 2.30105 25.0779C2.27551 25.0421 2.26333 25.0229 2.25116 25.0037C2.25294 24.9867 2.25471 24.9697 2.25927 24.9402Z" fill="#FFBB4F"/>
<path d="M2.22039 26.1069C2.26891 26.1288 2.31465 26.1632 2.36039 26.1977C2.33211 26.2189 2.30383 26.24 2.26217 26.2447C2.23663 26.2089 2.22445 26.1897 2.21228 26.1705C2.21406 26.1535 2.21583 26.1365 2.22039 26.1069Z" fill="#FFBB4F"/>
<path d="M2.18151 27.2737C2.23003 27.2956 2.27577 27.33 2.32151 27.3644C2.29323 27.3856 2.26495 27.4068 2.22329 27.4114C2.19775 27.3756 2.18557 27.3564 2.1734 27.3372C2.17518 27.3202 2.17695 27.3032 2.18151 27.2737Z" fill="#FFBB4F"/>
<path d="M2.14257 28.4792C2.19108 28.5011 2.23683 28.5356 2.28257 28.57C2.25429 28.5912 2.22601 28.6124 2.18435 28.617C2.15881 28.5812 2.14663 28.562 2.13446 28.5428C2.13624 28.5258 2.13801 28.5088 2.14257 28.4792Z" fill="#FFBB4F"/>
<path d="M2.10369 29.6458C2.15221 29.6676 2.19795 29.7021 2.24369 29.7365C2.21541 29.7577 2.18712 29.7789 2.14547 29.7835C2.11993 29.7477 2.10775 29.7285 2.09558 29.7093C2.09736 29.6923 2.09913 29.6753 2.10369 29.6458Z" fill="#FFBB4F"/>
<path d="M2.06481 30.8125C2.11333 30.8344 2.15907 30.8688 2.20481 30.9032C2.17653 30.9244 2.14825 30.9456 2.10659 30.9502C2.08105 30.9144 2.06887 30.8953 2.0567 30.8761C2.05848 30.8591 2.06026 30.842 2.06481 30.8125Z" fill="#FFBB4F"/>
<path d="M2.02593 32.0181C2.07445 32.04 2.12019 32.0744 2.16593 32.1088C2.13765 32.13 2.10937 32.1512 2.06771 32.1558C2.04217 32.12 2.02999 32.1008 2.01782 32.0816C2.0196 32.0646 2.02138 32.0476 2.02593 32.0181Z" fill="#FFBB4F"/>
<path d="M1.98705 33.1848C2.03557 33.2067 2.08131 33.2411 2.12705 33.2756C2.09877 33.2967 2.07049 33.3179 2.02883 33.3225C2.00329 33.2868 1.99112 33.2676 1.97894 33.2484C1.98072 33.2314 1.9825 33.2144 1.98705 33.1848Z" fill="#FFBB4F"/>
<path d="M1.94817 34.3513C1.99669 34.3732 2.04243 34.4076 2.08817 34.4421C2.05989 34.4632 2.03161 34.4844 1.98995 34.489C1.96441 34.4533 1.95224 34.4341 1.94006 34.4149C1.94184 34.3979 1.94362 34.3809 1.94817 34.3513Z" fill="#FFBB4F"/>
<path d="M1.90929 35.5569C1.95781 35.5788 2.00355 35.6132 2.04929 35.6476C2.02101 35.6688 1.99273 35.69 1.95107 35.6946C1.92553 35.6588 1.91336 35.6396 1.90118 35.6204C1.90296 35.6034 1.90474 35.5864 1.90929 35.5569Z" fill="#FFBB4F"/>
<path d="M2.84257 7.24585C2.89109 7.26774 2.93684 7.30216 2.98258 7.33659C2.9543 7.35778 2.92601 7.37896 2.88436 7.38357C2.85882 7.3478 2.84664 7.3286 2.83447 7.30941C2.83625 7.2924 2.83802 7.27539 2.84257 7.24585Z" fill="#FFBB4F"/>
<path d="M2.33702 22.5681C2.38554 22.59 2.43129 22.6244 2.47703 22.6589C2.44875 22.68 2.42046 22.7012 2.37881 22.7058C2.35326 22.6701 2.34109 22.6509 2.32892 22.6317C2.33069 22.6147 2.33247 22.5977 2.33702 22.5681Z" fill="#FFBB4F"/>
<path d="M2.3759 21.4014C2.42442 21.4233 2.47017 21.4577 2.51591 21.4921C2.48763 21.5133 2.45934 21.5345 2.41769 21.5391C2.39214 21.5033 2.37997 21.4841 2.3678 21.4649C2.36957 21.4479 2.37135 21.4309 2.3759 21.4014Z" fill="#FFBB4F"/>
<path d="M2.41484 20.1958C2.46336 20.2177 2.50911 20.2521 2.55485 20.2865C2.52657 20.3077 2.49828 20.3289 2.45663 20.3335C2.43108 20.2977 2.41891 20.2786 2.40674 20.2594C2.40851 20.2424 2.41029 20.2253 2.41484 20.1958Z" fill="#FFBB4F"/>
<path d="M2.45372 19.0293C2.50224 19.0512 2.54798 19.0856 2.59373 19.12C2.56544 19.1412 2.53716 19.1624 2.4955 19.167C2.46996 19.1312 2.45779 19.112 2.44562 19.0929C2.44739 19.0758 2.44917 19.0588 2.45372 19.0293Z" fill="#FFBB4F"/>
<path d="M2.4926 17.8625C2.54112 17.8844 2.58686 17.9189 2.63261 17.9533C2.60432 17.9745 2.57604 17.9957 2.53438 18.0003C2.50884 17.9645 2.49667 17.9453 2.4845 17.9261C2.48627 17.9091 2.48805 17.8921 2.4926 17.8625Z" fill="#FFBB4F"/>
<path d="M2.9204 4.87354C2.96891 4.89543 3.01466 4.92985 3.0604 4.96428C3.03212 4.98546 3.00383 5.00665 2.96218 5.01125C2.93664 4.97548 2.92446 4.95629 2.91229 4.93709C2.91407 4.92008 2.91584 4.90308 2.9204 4.87354Z" fill="#FFBB4F"/>
<path d="M2.53148 16.657C2.58 16.6789 2.62574 16.7133 2.67148 16.7477C2.6432 16.7689 2.61492 16.7901 2.57326 16.7947C2.54772 16.7589 2.53555 16.7397 2.52338 16.7205C2.52515 16.7035 2.52693 16.6865 2.53148 16.657Z" fill="#FFBB4F"/>
<path d="M2.57036 15.4902C2.61888 15.5121 2.66462 15.5466 2.71036 15.581C2.68208 15.6022 2.6538 15.6233 2.61214 15.628C2.5866 15.5922 2.57443 15.573 2.56226 15.5538C2.56403 15.5368 2.56581 15.5198 2.57036 15.4902Z" fill="#FFBB4F"/>
<path d="M2.60924 14.3237C2.65776 14.3456 2.7035 14.38 2.74924 14.4145C2.72096 14.4357 2.69268 14.4568 2.65102 14.4615C2.62548 14.4257 2.61331 14.4065 2.60114 14.3873C2.60291 14.3703 2.60469 14.3533 2.60924 14.3237Z" fill="#FFBB4F"/>
<path d="M2.64818 13.1182C2.6967 13.1401 2.74244 13.1745 2.78818 13.2089C2.7599 13.2301 2.73162 13.2513 2.68996 13.2559C2.66442 13.2201 2.65225 13.2009 2.64008 13.1817C2.64185 13.1647 2.64363 13.1477 2.64818 13.1182Z" fill="#FFBB4F"/>
<path d="M2.68706 11.9514C2.73558 11.9733 2.78132 12.0077 2.82706 12.0422C2.79878 12.0633 2.7705 12.0845 2.72884 12.0891C2.7033 12.0534 2.69113 12.0342 2.67896 12.015C2.68073 11.998 2.68251 11.981 2.68706 11.9514Z" fill="#FFBB4F"/>
<path d="M2.72594 10.7847C2.77446 10.8066 2.8202 10.841 2.86594 10.8754C2.83766 10.8966 2.80938 10.9178 2.76772 10.9224C2.74218 10.8866 2.73001 10.8674 2.71783 10.8482C2.71961 10.8312 2.72139 10.8142 2.72594 10.7847Z" fill="#FFBB4F"/>
<path d="M2.76482 9.5791C2.81333 9.60099 2.85908 9.63542 2.90482 9.66984C2.87654 9.69103 2.84825 9.71221 2.8066 9.71682C2.78106 9.68105 2.76889 9.66185 2.75671 9.64266C2.75849 9.62565 2.76026 9.60864 2.76482 9.5791Z" fill="#FFBB4F"/>
<path d="M2.88145 6.0791C2.92997 6.10099 2.97572 6.13542 3.02146 6.16984C2.99318 6.19103 2.96489 6.21221 2.92324 6.21682C2.8977 6.18105 2.88552 6.16185 2.87335 6.14266C2.87513 6.12565 2.8769 6.10864 2.88145 6.0791Z" fill="#FFBB4F"/>
<path d="M2.8037 8.4126C2.85221 8.43449 2.89796 8.46891 2.9437 8.50334C2.91542 8.52452 2.88713 8.54571 2.84548 8.55032C2.81994 8.51454 2.80777 8.49535 2.79559 8.47615C2.79737 8.45915 2.79914 8.44214 2.8037 8.4126Z" fill="#FFBB4F"/>
<path d="M2.99815 2.54028C3.04667 2.56217 3.09242 2.5966 3.13816 2.63102C3.10988 2.65221 3.08159 2.67339 3.03994 2.678C3.0144 2.64223 3.00222 2.62303 2.99005 2.60384C2.99183 2.58683 2.9936 2.56983 2.99815 2.54028Z" fill="#FFBB4F"/>
<path d="M2.95927 3.70703C3.00779 3.72892 3.05354 3.76335 3.09928 3.79777C3.071 3.81896 3.04271 3.84014 3.00106 3.84475C2.97552 3.80898 2.96334 3.78978 2.95117 3.77059C2.95295 3.75358 2.95472 3.73657 2.95927 3.70703Z" fill="#FFBB4F"/>
<path d="M10.3123 39.4507C10.3775 39.4395 10.4513 39.4414 10.5319 39.4545C10.4661 39.465 10.3934 39.4644 10.3123 39.4507Z" fill="#FFBB4F"/>
<path d="M26.0612 39.9945C26.1024 39.9845 26.151 39.9868 26.2053 39.9997C26.1636 40.0091 26.116 40.008 26.0612 39.9945Z" fill="#FFBB4F"/>
<path d="M31.4658 40.1883C31.4956 40.1794 31.5319 40.1822 31.5729 40.1948C31.5426 40.2031 31.5074 40.2016 31.4658 40.1883Z" fill="#FFBB4F"/>
<path d="M23.9214 39.9161C23.9512 39.9071 23.9874 39.91 24.0285 39.9226C23.9982 39.9309 23.963 39.9294 23.9214 39.9161Z" fill="#FFBB4F"/>
<path d="M25.0103 39.9552C25.0401 39.9462 25.0763 39.9491 25.1174 39.9616C25.087 39.9699 25.0518 39.9685 25.0103 39.9552Z" fill="#FFBB4F"/>
<path d="M27.188 40.0328C27.2179 40.0238 27.2541 40.0267 27.2952 40.0393C27.2648 40.0475 27.2296 40.0461 27.188 40.0328Z" fill="#FFBB4F"/>
<path d="M28.2769 40.0719C28.3067 40.0629 28.343 40.0658 28.384 40.0783C28.3537 40.0866 28.3185 40.0852 28.2769 40.0719Z" fill="#FFBB4F"/>
<path d="M29.3658 40.1107C29.3957 40.1017 29.4319 40.1046 29.473 40.1172C29.4426 40.1254 29.4074 40.124 29.3658 40.1107Z" fill="#FFBB4F"/>
<path d="M30.4158 40.1495C30.4457 40.1405 30.4819 40.1434 30.523 40.156C30.4926 40.1643 30.4574 40.1628 30.4158 40.1495Z" fill="#FFBB4F"/>
<path d="M21.6658 39.8385C21.6957 39.8295 21.7319 39.8324 21.773 39.8449C21.7426 39.8532 21.7074 39.8518 21.6658 39.8385Z" fill="#FFBB4F"/>
<path d="M32.4769 40.2274C32.5067 40.2184 32.543 40.2213 32.584 40.2339C32.5537 40.2421 32.5185 40.2407 32.4769 40.2274Z" fill="#FFBB4F"/>
<path d="M33.488 40.2662C33.5179 40.2572 33.5541 40.2601 33.5952 40.2727C33.5648 40.2809 33.5296 40.2795 33.488 40.2662Z" fill="#FFBB4F"/>
<path d="M34.6158 40.305C34.6457 40.2961 34.6819 40.2989 34.723 40.3115C34.6926 40.3198 34.6574 40.3183 34.6158 40.305Z" fill="#FFBB4F"/>
<path d="M35.7436 40.3441C35.7734 40.3351 35.8096 40.338 35.8507 40.3506C35.8204 40.3588 35.7852 40.3574 35.7436 40.3441Z" fill="#FFBB4F"/>
<path d="M36.9492 40.3829C36.979 40.3739 37.0152 40.3768 37.0563 40.3894C37.0259 40.3976 36.9908 40.3962 36.9492 40.3829Z" fill="#FFBB4F"/>
<path d="M38.1936 40.4217C38.2234 40.4128 38.2597 40.4156 38.3007 40.4282C38.2704 40.4365 38.2352 40.435 38.1936 40.4217Z" fill="#FFBB4F"/>
<path d="M12.838 39.5274C12.8678 39.5185 12.9041 39.5213 12.9451 39.5339C12.9148 39.5422 12.8796 39.5407 12.838 39.5274Z" fill="#FFBB4F"/>
<path d="M2.1825 39.1385C2.21231 39.1296 2.24854 39.1324 2.28961 39.145C2.25927 39.1533 2.22409 39.1518 2.1825 39.1385Z" fill="#FFBB4F"/>
<path d="M4.20471 39.2162C4.23453 39.2072 4.27076 39.21 4.31183 39.2226C4.28148 39.2309 4.2463 39.2294 4.20471 39.2162Z" fill="#FFBB4F"/>
<path d="M5.2547 39.2552C5.28452 39.2463 5.32075 39.2491 5.36182 39.2617C5.33147 39.27 5.29629 39.2685 5.2547 39.2552Z" fill="#FFBB4F"/>
<path d="M6.26581 39.294C6.29563 39.2851 6.33186 39.2879 6.37292 39.3005C6.34258 39.3088 6.3074 39.3073 6.26581 39.294Z" fill="#FFBB4F"/>
<path d="M7.3158 39.3329C7.34561 39.3239 7.38185 39.3267 7.42291 39.3393C7.39257 39.3476 7.35739 39.3461 7.3158 39.3329Z" fill="#FFBB4F"/>
<path d="M8.3269 39.3717C8.35672 39.3627 8.39295 39.3656 8.43402 39.3781C8.40368 39.3864 8.3685 39.385 8.3269 39.3717Z" fill="#FFBB4F"/>
<path d="M9.37695 39.4107C9.40677 39.4018 9.443 39.4046 9.48407 39.4172C9.45373 39.4255 9.41854 39.424 9.37695 39.4107Z" fill="#FFBB4F"/>
<path d="M11.5936 39.4884C11.6234 39.4794 11.6596 39.4823 11.7007 39.4948C11.6703 39.5031 11.6352 39.5017 11.5936 39.4884Z" fill="#FFBB4F"/>
<path d="M22.7936 39.8773C22.8234 39.8683 22.8596 39.8712 22.9007 39.8838C22.8704 39.892 22.8352 39.8906 22.7936 39.8773Z" fill="#FFBB4F"/>
<path d="M14.0825 39.5663C14.1123 39.5573 14.1485 39.5601 14.1896 39.5727C14.1592 39.581 14.1241 39.5795 14.0825 39.5663Z" fill="#FFBB4F"/>
<path d="M15.1714 39.6051C15.2012 39.5961 15.2374 39.599 15.2785 39.6115C15.2482 39.6198 15.213 39.6184 15.1714 39.6051Z" fill="#FFBB4F"/>
<path d="M16.2603 39.6439C16.2901 39.6349 16.3263 39.6378 16.3674 39.6504C16.337 39.6586 16.3018 39.6572 16.2603 39.6439Z" fill="#FFBB4F"/>
<path d="M17.3102 39.683C17.3401 39.674 17.3763 39.6768 17.4174 39.6894C17.387 39.6977 17.3518 39.6962 17.3102 39.683Z" fill="#FFBB4F"/>
<path d="M18.3992 39.7218C18.429 39.7128 18.4652 39.7157 18.5063 39.7282C18.4759 39.7365 18.4408 39.7351 18.3992 39.7218Z" fill="#FFBB4F"/>
<path d="M19.4492 39.7606C19.479 39.7516 19.5152 39.7545 19.5563 39.7671C19.5259 39.7753 19.4908 39.7739 19.4492 39.7606Z" fill="#FFBB4F"/>
<path d="M20.538 39.7997C20.5678 39.7907 20.6041 39.7935 20.6451 39.8061C20.6148 39.8144 20.5796 39.8129 20.538 39.7997Z" fill="#FFBB4F"/>
<path d="M3.15472 39.1773C3.18454 39.1684 3.22077 39.1712 3.26184 39.1838C3.23149 39.1921 3.19631 39.1906 3.15472 39.1773Z" fill="#FFBB4F"/>
<path d="M2.00692 32.0867C2.02999 32.1008 2.04217 32.12 2.05773 32.1501C2.04527 32.161 2.02942 32.161 2.0017 32.161C1.99188 32.138 1.99395 32.1149 2.00692 32.0867Z" fill="#FFBB4F"/>
<path d="M2.86245 6.14795C2.88553 6.16204 2.8977 6.18124 2.91326 6.21138C2.9008 6.22233 2.88495 6.22233 2.85723 6.22233C2.84741 6.19924 2.84948 6.17615 2.86245 6.14795Z" fill="#FFBB4F"/>
<path d="M2.97915 2.60889C3.00223 2.62298 3.0144 2.64217 3.02995 2.67232C3.0175 2.68326 3.00165 2.68327 2.97393 2.68327C2.96411 2.66018 2.96618 2.63708 2.97915 2.60889Z" fill="#FFBB4F"/>
<path d="M2.78469 8.4812C2.80777 8.49529 2.81994 8.51449 2.8355 8.54463C2.82304 8.55558 2.80719 8.55558 2.77947 8.55559C2.76965 8.5325 2.77172 8.5094 2.78469 8.4812Z" fill="#FFBB4F"/>
<path d="M2.08468 29.7146C2.10775 29.7287 2.11993 29.7479 2.13548 29.778C2.12303 29.789 2.10718 29.789 2.07946 29.789C2.06964 29.7659 2.07171 29.7428 2.08468 29.7146Z" fill="#FFBB4F"/>
<path d="M2.74581 9.64795C2.76889 9.66204 2.78106 9.68124 2.79662 9.71138C2.78416 9.72233 2.76831 9.72233 2.74059 9.72233C2.73077 9.69924 2.73284 9.67615 2.74581 9.64795Z" fill="#FFBB4F"/>
<path d="M2.90139 4.94238C2.92447 4.95648 2.93664 4.97567 2.9522 5.00581C2.93974 5.01676 2.92389 5.01676 2.89617 5.01677C2.88635 4.99368 2.88842 4.97058 2.90139 4.94238Z" fill="#FFBB4F"/>
<path d="M2.70693 10.8535C2.73001 10.8676 2.74218 10.8868 2.75774 10.9169C2.74528 10.9279 2.72944 10.9279 2.70171 10.9279C2.69189 10.9048 2.69396 10.8817 2.70693 10.8535Z" fill="#FFBB4F"/>
<path d="M2.12356 28.5479C2.14663 28.5619 2.15881 28.5811 2.17436 28.6113C2.16191 28.6222 2.14606 28.6222 2.11834 28.6222C2.10852 28.5991 2.11059 28.576 2.12356 28.5479Z" fill="#FFBB4F"/>
<path d="M2.66805 12.02C2.69113 12.0341 2.7033 12.0533 2.71886 12.0834C2.7064 12.0944 2.69056 12.0944 2.66283 12.0944C2.65301 12.0713 2.65508 12.0482 2.66805 12.02Z" fill="#FFBB4F"/>
<path d="M2.94027 3.77563C2.96335 3.78973 2.97552 3.80892 2.99108 3.83906C2.97862 3.85001 2.96277 3.85001 2.93505 3.85002C2.92523 3.82693 2.9273 3.80383 2.94027 3.77563Z" fill="#FFBB4F"/>
<path d="M2.0458 30.8811C2.06887 30.8952 2.08105 30.9144 2.09661 30.9445C2.08415 30.9555 2.0683 30.9555 2.04058 30.9555C2.03076 30.9324 2.03283 30.9093 2.0458 30.8811Z" fill="#FFBB4F"/>
<path d="M2.62917 13.1868C2.65225 13.2009 2.66442 13.2201 2.67998 13.2502C2.66752 13.2611 2.65168 13.2611 2.62395 13.2611C2.61413 13.2381 2.6162 13.215 2.62917 13.1868Z" fill="#FFBB4F"/>
<path d="M2.82357 7.31445C2.84665 7.32855 2.85882 7.34774 2.87438 7.37788C2.86192 7.38883 2.84607 7.38883 2.81835 7.38884C2.80853 7.36575 2.8106 7.34265 2.82357 7.31445Z" fill="#FFBB4F"/>
<path d="M2.59023 14.3923C2.61331 14.4064 2.62548 14.4256 2.64104 14.4558C2.62858 14.4667 2.61274 14.4667 2.58501 14.4667C2.57519 14.4436 2.57726 14.4205 2.59023 14.3923Z" fill="#FFBB4F"/>
<path d="M1.85134 36.7922C1.87442 36.8063 1.88659 36.8255 1.90215 36.8557C1.88969 36.8666 1.87385 36.8666 1.84612 36.8666C1.8363 36.8435 1.83837 36.8204 1.85134 36.7922Z" fill="#FFBB4F"/>
<path d="M2.55135 15.5588C2.57443 15.5729 2.5866 15.5921 2.60216 15.6223C2.5897 15.6332 2.57386 15.6332 2.54613 15.6332C2.53631 15.6101 2.53838 15.587 2.55135 15.5588Z" fill="#FFBB4F"/>
<path d="M2.24026 25.009C2.26333 25.0231 2.27551 25.0423 2.29106 25.0725C2.2786 25.0834 2.26276 25.0834 2.23503 25.0834C2.22522 25.0603 2.22728 25.0372 2.24026 25.009Z" fill="#FFBB4F"/>
<path d="M2.51247 16.7256C2.53555 16.7397 2.54772 16.7589 2.56328 16.789C2.55082 16.8 2.53498 16.8 2.50725 16.8C2.49743 16.7769 2.4995 16.7538 2.51247 16.7256Z" fill="#FFBB4F"/>
<path d="M1.96804 33.2534C1.99112 33.2675 2.00329 33.2867 2.01885 33.3168C2.00639 33.3278 1.99054 33.3278 1.96282 33.3278C1.953 33.3047 1.95507 33.2816 1.96804 33.2534Z" fill="#FFBB4F"/>
<path d="M2.1625 27.3423C2.18557 27.3564 2.19775 27.3756 2.2133 27.4057C2.20085 27.4167 2.185 27.4167 2.15728 27.4167C2.14746 27.3936 2.14953 27.3705 2.1625 27.3423Z" fill="#FFBB4F"/>
<path d="M2.47359 17.9312C2.49667 17.9452 2.50884 17.9644 2.5244 17.9946C2.51194 18.0055 2.4961 18.0055 2.46837 18.0055C2.45856 17.9824 2.46062 17.9593 2.47359 17.9312Z" fill="#FFBB4F"/>
<path d="M1.92916 34.4202C1.95224 34.4343 1.96441 34.4535 1.97997 34.4836C1.96751 34.4945 1.95166 34.4945 1.92394 34.4945C1.91412 34.4715 1.91619 34.4484 1.92916 34.4202Z" fill="#FFBB4F"/>
<path d="M2.43471 19.0979C2.45779 19.112 2.46996 19.1312 2.48552 19.1613C2.47306 19.1723 2.45722 19.1723 2.42949 19.1723C2.41968 19.1492 2.42174 19.1261 2.43471 19.0979Z" fill="#FFBB4F"/>
<path d="M2.27913 23.8035C2.30221 23.8176 2.31439 23.8368 2.32994 23.8669C2.31748 23.8778 2.30164 23.8778 2.27391 23.8778C2.2641 23.8548 2.26616 23.8317 2.27913 23.8035Z" fill="#FFBB4F"/>
<path d="M2.39583 20.2644C2.41891 20.2785 2.43108 20.2977 2.44664 20.3278C2.43418 20.3388 2.41834 20.3388 2.39061 20.3388C2.3808 20.3157 2.38286 20.2926 2.39583 20.2644Z" fill="#FFBB4F"/>
<path d="M1.89028 35.6257C1.91336 35.6398 1.92553 35.659 1.94109 35.6892C1.92863 35.7001 1.91279 35.7001 1.88506 35.7001C1.87524 35.677 1.87731 35.6539 1.89028 35.6257Z" fill="#FFBB4F"/>
<path d="M2.35689 21.47C2.37997 21.4841 2.39214 21.5033 2.4077 21.5334C2.39524 21.5443 2.3794 21.5443 2.35167 21.5443C2.34186 21.5213 2.34392 21.4982 2.35689 21.47Z" fill="#FFBB4F"/>
<path d="M2.20138 26.1755C2.22445 26.1896 2.23663 26.2088 2.25218 26.239C2.23973 26.2499 2.22388 26.2499 2.19616 26.2499C2.18634 26.2268 2.1884 26.2037 2.20138 26.1755Z" fill="#FFBB4F"/>
<path d="M2.31801 22.6367C2.34109 22.6508 2.35326 22.67 2.36882 22.7001C2.35636 22.7111 2.34052 22.7111 2.31279 22.7111C2.30298 22.688 2.30504 22.6649 2.31801 22.6367Z" fill="#FFBB4F"/>
<path d="M9.20768 3.69922C9.06171 3.97497 9.20697 4.24012 9.27323 4.50037C9.52284 5.48073 9.78688 6.45743 10.0486 7.43467C10.2878 8.32774 10.5308 9.21979 10.7724 10.1122C10.9614 10.8101 11.1573 11.5063 11.3389 12.2062C11.7121 13.6448 12.0668 15.0883 12.4501 16.5242C12.7351 17.5917 13.0433 18.6533 13.3594 19.7122C13.6429 20.6617 13.9634 21.6002 14.2456 22.55C14.6929 24.0556 15.1221 25.5665 15.5584 27.0753C15.7707 27.8094 15.9802 28.5443 16.1941 29.2778C16.2804 29.5738 16.4656 29.6667 16.7769 29.6388C17.2496 29.5965 17.726 29.5489 18.1987 29.5654C18.6214 29.5801 19.0412 29.6788 19.4624 29.7398C19.8461 29.7954 20.2304 29.8464 20.6133 29.9065C21.1523 29.991 21.6891 30.0891 22.2288 30.1677C22.6008 30.2219 22.9753 30.2735 23.3503 30.2903C24.2194 30.3292 25.0895 30.3422 25.959 30.3742C26.3819 30.3897 26.8042 30.4221 27.2265 30.4513C27.332 30.4586 27.3789 30.4224 27.4197 30.3202C27.7785 29.4221 28.1517 28.5297 28.5083 27.6307C28.8134 26.8615 29.0987 26.0845 29.3995 25.3137C29.6935 24.5601 29.9925 23.8085 30.2959 23.0587C30.5898 22.3322 30.8937 21.6097 31.1902 20.8843C31.5681 19.9598 31.9428 19.0339 32.3194 18.1089C32.4381 17.8175 32.5586 17.5268 32.6901 17.2447C32.6128 17.5032 32.5334 17.7568 32.4331 18.0019C31.6504 19.9137 30.8558 21.8207 30.0817 23.736C29.6935 24.6966 29.3497 25.6749 28.9696 26.6388C28.447 27.9642 27.9091 29.2836 27.3778 30.6055C26.3365 30.5792 25.2948 30.5633 24.254 30.5238C23.1147 30.4806 21.9892 30.3105 20.865 30.1272C19.9392 29.9762 19.012 29.8228 18.0795 29.7292C17.636 29.6847 17.1771 29.7619 16.7282 29.8117C16.3418 29.8545 16.1363 29.7362 16.0324 29.3684C15.5444 27.6421 15.0667 25.9127 14.5587 24.1922C14.2142 23.0253 13.8114 21.8756 13.4605 20.7104C13.0928 19.4893 12.7445 18.2621 12.4086 17.0318C12.0776 15.8197 11.7763 14.5996 11.4555 13.3847C10.8918 11.2495 10.3246 9.11513 9.75588 6.98118C9.51237 6.06744 9.25965 5.15616 9.01527 4.24266C8.9482 3.99194 9.01031 3.82444 9.20768 3.69922Z" fill="#FFBB4F"/>
<path d="M27.3918 30.6039C27.9091 29.2835 28.447 27.9642 28.9696 26.6387C29.3497 25.6748 29.6935 24.6965 30.0817 23.736C30.8557 21.8207 31.6504 19.9137 32.4331 18.0018C32.5334 17.7568 32.6128 17.5032 32.7029 17.2384C33.0724 16.203 33.4354 15.1807 33.811 14.1631C34.3024 12.8312 34.8027 11.5025 35.3014 10.1733C35.6404 9.26953 35.9774 8.36492 36.3271 7.46523C36.4689 7.10022 36.6423 6.74746 36.8002 6.38867C36.8255 6.33126 36.8453 6.27142 36.882 6.19251C37.0155 5.92818 37.1347 5.68404 37.2539 5.4399C37.2413 5.32318 37.2287 5.20646 37.2145 5.07373C37.4167 5.09794 37.4985 5.22716 37.4168 5.42174C37.289 5.72595 37.1335 6.01856 37.0082 6.32369C36.5682 7.39555 36.1167 8.46329 35.7053 9.54617C35.0269 11.3318 34.3926 13.1342 33.7101 14.9182C32.8333 17.2101 31.9307 19.4922 31.0328 21.7761C30.2605 23.7404 29.4823 25.7024 28.7007 27.663C28.3315 28.5894 27.9498 29.5108 27.5676 30.4318C27.5395 30.4994 27.461 30.5461 27.3918 30.6039Z" fill="#FFBB4F"/>
<path d="M22.6246 4.74927C22.5805 4.83318 22.5233 4.92018 22.4525 5.00873C22.4964 4.9243 22.5538 4.83833 22.6246 4.74927Z" fill="#FFBB4F"/>
<path d="M37.2142 5.04578C37.1786 5.02811 37.143 4.99689 37.1028 4.95456C37.2037 4.88599 37.2065 4.96222 37.2142 5.04578Z" fill="#FFBB4F"/>
<path d="M16.2118 4.57266C16.1815 4.58095 16.1464 4.57953 16.1048 4.56629C16.1346 4.5573 16.1708 4.56012 16.2118 4.57266Z" fill="#FFBB4F"/>
<path d="M14.1896 4.26162C14.1593 4.26992 14.1241 4.2685 14.0826 4.25526C14.1124 4.24626 14.1486 4.24908 14.1896 4.26162Z" fill="#FFBB4F"/>
<path d="M14.4229 4.30044C14.3926 4.30874 14.3575 4.30732 14.3159 4.29408C14.3457 4.28508 14.3819 4.2879 14.4229 4.30044Z" fill="#FFBB4F"/>
<path d="M14.6563 4.33926C14.626 4.34755 14.5908 4.34614 14.5493 4.3329C14.579 4.3239 14.6152 4.32672 14.6563 4.33926Z" fill="#FFBB4F"/>
<path d="M14.8896 4.37832C14.8593 4.38662 14.8242 4.3852 14.7826 4.37196C14.8124 4.36296 14.8486 4.36578 14.8896 4.37832Z" fill="#FFBB4F"/>
<path d="M15.1618 4.41714C15.1315 4.42544 15.0964 4.42402 15.0548 4.41078C15.0846 4.40178 15.1208 4.4046 15.1618 4.41714Z" fill="#FFBB4F"/>
<path d="M15.434 4.45596C15.4037 4.46425 15.3686 4.46283 15.327 4.44959C15.3568 4.4406 15.393 4.44342 15.434 4.45596Z" fill="#FFBB4F"/>
<path d="M15.6674 4.49502C15.6371 4.50332 15.6019 4.5019 15.5604 4.48866C15.5901 4.47966 15.6263 4.48248 15.6674 4.49502Z" fill="#FFBB4F"/>
<path d="M15.9396 4.53384C15.9093 4.54214 15.8741 4.54072 15.8326 4.52748C15.8624 4.51848 15.8986 4.5213 15.9396 4.53384Z" fill="#FFBB4F"/>
<path d="M24.0285 4.53384C23.9982 4.54213 23.963 4.54072 23.9214 4.52748C23.9512 4.51848 23.9874 4.5213 24.0285 4.53384Z" fill="#FFBB4F"/>
<path d="M13.9563 4.2228C13.926 4.2311 13.8908 4.22968 13.8492 4.21644C13.879 4.20744 13.9152 4.21027 13.9563 4.2228Z" fill="#FFBB4F"/>
<path d="M24.534 4.57266C24.5037 4.58095 24.4686 4.57953 24.427 4.56629C24.4568 4.5573 24.493 4.56012 24.534 4.57266Z" fill="#FFBB4F"/>
<path d="M16.484 4.61148C16.4537 4.61977 16.4186 4.61835 16.377 4.60511C16.4068 4.59611 16.443 4.59894 16.484 4.61148Z" fill="#FFBB4F"/>
<path d="M24.9618 4.61148C24.9315 4.61977 24.8964 4.61835 24.8548 4.60511C24.8846 4.59611 24.9208 4.59894 24.9618 4.61148Z" fill="#FFBB4F"/>
<path d="M16.7951 4.65054C16.7648 4.65883 16.7297 4.65741 16.6881 4.64417C16.7179 4.63518 16.7541 4.638 16.7951 4.65054Z" fill="#FFBB4F"/>
<path d="M25.3119 4.65054C25.2815 4.65883 25.2464 4.65742 25.2048 4.64417C25.2346 4.63518 25.2708 4.638 25.3119 4.65054Z" fill="#FFBB4F"/>
<path d="M17.1063 4.68936C17.076 4.69765 17.0408 4.69623 16.9993 4.68299C17.0291 4.674 17.0652 4.67682 17.1063 4.68936Z" fill="#FFBB4F"/>
<path d="M25.6618 4.68936C25.6315 4.69765 25.5964 4.69623 25.5548 4.68299C25.5846 4.674 25.6208 4.67682 25.6618 4.68936Z" fill="#FFBB4F"/>
<path d="M26.0118 4.72818C25.9815 4.73647 25.9463 4.73505 25.9048 4.72181C25.9346 4.71281 25.9708 4.71564 26.0118 4.72818Z" fill="#FFBB4F"/>
<path d="M17.7674 4.76724C17.7371 4.77553 17.7019 4.77411 17.6603 4.76087C17.6901 4.75188 17.7263 4.7547 17.7674 4.76724Z" fill="#FFBB4F"/>
<path d="M11.8952 3.87271C11.8649 3.881 11.8297 3.87958 11.7881 3.86634C11.8179 3.85735 11.8541 3.86017 11.8952 3.87271Z" fill="#FFBB4F"/>
<path d="M3.08148 1.87249C3.1028 1.85441 3.13335 1.84219 3.1764 1.82886C3.15618 1.84461 3.12345 1.86147 3.08148 1.87249Z" fill="#FFBB4F"/>
<path d="M9.71737 3.56167C9.68706 3.56997 9.65191 3.56855 9.61035 3.55531C9.64014 3.54631 9.67633 3.54913 9.71737 3.56167Z" fill="#FFBB4F"/>
<path d="M10.1063 3.60049C10.076 3.60879 10.0408 3.60737 9.99927 3.59413C10.0291 3.58513 10.0652 3.58795 10.1063 3.60049Z" fill="#FFBB4F"/>
<path d="M10.4951 3.63931C10.4648 3.6476 10.4297 3.64618 10.3881 3.63294C10.4179 3.62395 10.4541 3.62677 10.4951 3.63931Z" fill="#FFBB4F"/>
<path d="M10.7674 3.67813C10.7371 3.68642 10.7019 3.685 10.6603 3.67176C10.6901 3.66277 10.7263 3.66559 10.7674 3.67813Z" fill="#FFBB4F"/>
<path d="M11.0396 3.71719C11.0093 3.72548 10.9741 3.72407 10.9326 3.71082C10.9623 3.70183 10.9985 3.70465 11.0396 3.71719Z" fill="#FFBB4F"/>
<path d="M11.234 3.75601C11.2037 3.7643 11.1686 3.76288 11.127 3.74964C11.1568 3.74065 11.193 3.74347 11.234 3.75601Z" fill="#FFBB4F"/>
<path d="M11.4674 3.79483C11.4371 3.80312 11.4019 3.8017 11.3604 3.78846C11.3901 3.77946 11.4263 3.78229 11.4674 3.79483Z" fill="#FFBB4F"/>
<path d="M11.6618 3.83389C11.6315 3.84218 11.5964 3.84076 11.5548 3.82752C11.5846 3.81853 11.6208 3.82135 11.6618 3.83389Z" fill="#FFBB4F"/>
<path d="M17.4174 4.72818C17.3871 4.73647 17.3519 4.73505 17.3104 4.72181C17.3401 4.71281 17.3763 4.71564 17.4174 4.72818Z" fill="#FFBB4F"/>
<path d="M12.1285 3.91153C12.0982 3.91982 12.063 3.9184 12.0215 3.90516C12.0513 3.89616 12.0875 3.89899 12.1285 3.91153Z" fill="#FFBB4F"/>
<path d="M12.323 3.95059C12.2927 3.95888 12.2575 3.95746 12.2159 3.94422C12.2457 3.93523 12.2819 3.93805 12.323 3.95059Z" fill="#FFBB4F"/>
<path d="M12.5563 3.98941C12.526 3.9977 12.4908 3.99628 12.4493 3.98304C12.4791 3.97404 12.5153 3.97687 12.5563 3.98941Z" fill="#FFBB4F"/>
<path d="M12.7896 4.02822C12.7593 4.03652 12.7241 4.0351 12.6826 4.02186C12.7123 4.01286 12.7485 4.01569 12.7896 4.02822Z" fill="#FFBB4F"/>
<path d="M13.0229 4.06704C12.9926 4.07534 12.9575 4.07392 12.9159 4.06068C12.9457 4.05168 12.9819 4.0545 13.0229 4.06704Z" fill="#FFBB4F"/>
<path d="M13.2563 4.10611C13.2259 4.1144 13.1908 4.11298 13.1492 4.09974C13.179 4.09074 13.2152 4.09357 13.2563 4.10611Z" fill="#FFBB4F"/>
<path d="M13.4896 4.14492C13.4593 4.15322 13.4241 4.1518 13.3826 4.13856C13.4124 4.12956 13.4485 4.13239 13.4896 4.14492Z" fill="#FFBB4F"/>
<path d="M13.7229 4.18374C13.6926 4.19204 13.6575 4.19062 13.6159 4.17738C13.6457 4.16838 13.6819 4.1712 13.7229 4.18374Z" fill="#FFBB4F"/>
<path d="M26.323 4.76724C26.2927 4.77553 26.2575 4.77411 26.2159 4.76087C26.2457 4.75188 26.2819 4.7547 26.323 4.76724Z" fill="#FFBB4F"/>
<path d="M22.3563 5.00039C22.326 5.00869 22.2908 5.00727 22.2493 4.99403C22.2791 4.98503 22.3152 4.98785 22.3563 5.00039Z" fill="#FFBB4F"/>
<path d="M36.2007 4.96157C36.1704 4.96987 36.1353 4.96845 36.0937 4.95521C36.1235 4.94621 36.1597 4.94904 36.2007 4.96157Z" fill="#FFBB4F"/>
<path d="M28.4229 4.96157C28.3926 4.96987 28.3575 4.96845 28.3159 4.95521C28.3457 4.94621 28.3819 4.94904 28.4229 4.96157Z" fill="#FFBB4F"/>
<path d="M21.8896 4.96157C21.8593 4.96987 21.8242 4.96845 21.7826 4.95521C21.8124 4.94621 21.8486 4.94904 21.8896 4.96157Z" fill="#FFBB4F"/>
<path d="M35.6563 4.92276C35.626 4.93105 35.5908 4.92963 35.5493 4.91639C35.579 4.90739 35.6152 4.91022 35.6563 4.92276Z" fill="#FFBB4F"/>
<path d="M27.9174 4.92276C27.8871 4.93105 27.8519 4.92963 27.8104 4.91639C27.8401 4.90739 27.8763 4.91022 27.9174 4.92276Z" fill="#FFBB4F"/>
<path d="M21.4618 4.92276C21.4315 4.93105 21.3964 4.92963 21.3548 4.91639C21.3846 4.90739 21.4208 4.91022 21.4618 4.92276Z" fill="#FFBB4F"/>
<path d="M35.2674 4.88369C35.2371 4.89199 35.2019 4.89057 35.1603 4.87733C35.1901 4.86833 35.2263 4.87116 35.2674 4.88369Z" fill="#FFBB4F"/>
<path d="M27.4896 4.88369C27.4593 4.89199 27.4241 4.89057 27.3826 4.87733C27.4124 4.86833 27.4485 4.87116 27.4896 4.88369Z" fill="#FFBB4F"/>
<path d="M20.9951 4.88369C20.9648 4.89199 20.9297 4.89057 20.8881 4.87733C20.9179 4.86833 20.9541 4.87116 20.9951 4.88369Z" fill="#FFBB4F"/>
<path d="M34.9563 4.84487C34.926 4.85317 34.8908 4.85175 34.8492 4.83851C34.879 4.82951 34.9152 4.83234 34.9563 4.84487Z" fill="#FFBB4F"/>
<path d="M27.0619 4.84487C27.0315 4.85317 26.9964 4.85175 26.9548 4.83851C26.9846 4.82951 27.0208 4.83234 27.0619 4.84487Z" fill="#FFBB4F"/>
<path d="M18.623 4.84488C18.5926 4.85317 18.5575 4.85175 18.5159 4.83851C18.5457 4.82951 18.5819 4.83234 18.623 4.84488Z" fill="#FFBB4F"/>
<path d="M34.6452 4.80606C34.6149 4.81435 34.5797 4.81293 34.5381 4.79969C34.5679 4.79069 34.6041 4.79352 34.6452 4.80606Z" fill="#FFBB4F"/>
<path d="M26.7118 4.80606C26.6815 4.81435 26.6464 4.81293 26.6048 4.79969C26.6346 4.79069 26.6708 4.79352 26.7118 4.80606Z" fill="#FFBB4F"/>
<path d="M34.2562 4.76724C34.2259 4.77553 34.1908 4.77411 34.1492 4.76087C34.179 4.75188 34.2152 4.7547 34.2562 4.76724Z" fill="#FFBB4F"/>
<path d="M18.1563 4.80606C18.126 4.81435 18.0908 4.81293 18.0493 4.79969C18.079 4.79069 18.1152 4.79352 18.1563 4.80606Z" fill="#FFBB4F"/>
<path d="M37.2414 5.4458C37.1347 5.68402 37.0156 5.92816 36.8848 6.17776C36.9918 5.93938 37.1103 5.69555 37.2414 5.4458Z" fill="#FFBB4F"/>
</svg>
