<svg width="38" height="39" viewBox="0 0 38 39" fill="none" xmlns="http://www.w3.org/2000/svg">
<path d="M8.88889 37.9C7.08071 37.9 5.29197 37.9044 3.50326 37.8983C2.52613 37.8949 1.54909 37.8696 0.571951 37.8643C0.36607 37.8632 0.302214 37.7403 0.301204 37.5861C0.298455 37.1664 0.31798 36.7466 0.328323 36.3268C0.330717 36.2296 0.333124 36.1325 0.333127 36.0353C0.333344 26.1649 0.331425 16.2945 0.33509 6.42403C0.335749 4.64978 0.357879 2.87553 0.373904 1.10131C0.376467 0.817577 0.39256 0.533425 0.41838 0.25093C0.423284 0.197284 0.500907 0.110681 0.549578 0.107393C0.778561 0.0919219 1.00915 0.10002 1.23916 0.10001C2.41869 0.0999615 3.59821 0.100014 4.77774 0.100017C7.03309 0.100023 9.28846 0.0961995 11.5438 0.101787C12.5274 0.104224 13.511 0.136109 14.4945 0.136067C15.4911 0.136023 16.4876 0.100627 17.4841 0.102734C19.5954 0.107199 21.7066 0.13261 23.8179 0.136249C24.957 0.138213 26.0962 0.0963454 27.2352 0.103717C29.196 0.116407 31.1565 0.1574 33.1173 0.176158C34.2613 0.187102 35.4055 0.169357 36.5494 0.183261C36.8752 0.187221 37.2004 0.255499 37.5255 0.296985C37.6888 0.317824 37.7608 0.413753 37.745 0.578372C37.74 0.629736 37.7444 0.681991 37.7444 0.733838C37.7444 13.0152 37.7444 25.2965 37.7444 37.5778C37.7444 37.9804 37.7084 38.0176 37.3003 38.0164C33.2383 38.0039 29.1763 37.9915 25.1143 37.9775C21.7004 37.9657 18.2864 37.9537 14.8725 37.9382C12.8844 37.9292 10.8964 37.913 8.88889 37.9ZM12.115 12.9264C11.7463 12.8372 11.3742 12.7593 11.01 12.6542C10.8149 12.5979 10.6325 12.4965 10.4458 12.4123C10.2779 12.3365 10.1186 12.2335 9.94379 12.1832C9.63068 12.0932 9.31093 11.9881 8.99002 11.973C8.57281 11.9533 8.21185 12.2303 8.22153 12.6189C8.22484 12.7518 8.24312 12.8881 8.2213 13.0173C8.15918 13.3849 8.07764 13.7492 8.00797 14.1156C7.90739 14.6445 7.63994 15.1372 7.67244 15.6962C7.67936 15.8152 7.65024 15.9403 7.6178 16.057C7.4818 16.5464 7.32137 17.0295 7.20215 17.5228C7.0813 18.0228 7.00857 18.5344 6.89481 19.0363C6.83417 19.3039 6.73482 19.5631 6.64594 19.8237C6.60874 19.9327 6.54773 19.9347 6.43608 19.8833C6.09137 19.7248 5.74176 19.5722 5.38276 19.4507C5.02243 19.3287 4.65773 19.6194 4.64883 19.9996C4.64407 20.2027 4.62712 20.4055 4.61344 20.6083C4.60349 20.7559 4.56232 20.9071 4.5827 21.0499C4.669 21.6546 4.64087 22.2571 4.57108 22.8591C4.54837 23.0549 4.48508 23.2458 4.45724 23.4414C4.40378 23.817 4.36732 24.195 4.31471 24.5707C4.24961 25.0356 4.17091 25.4986 4.10623 25.9636C4.05043 26.3647 4.0071 26.7676 3.9563 27.1695C3.90305 27.5907 3.84347 28.0112 3.79406 28.4329C3.74838 28.8228 3.70957 29.2135 3.67301 29.6044C3.62027 30.1683 3.5768 30.7332 3.51986 31.2967C3.49976 31.4956 3.58422 31.5746 3.76976 31.6038C4.21402 31.6736 4.65474 31.7685 5.10043 31.8257C5.35237 31.858 5.61609 31.8676 5.86589 31.83C6.17643 31.7834 6.44989 31.8098 6.70807 31.9969C6.78319 32.0513 6.88311 32.0881 6.97564 32.0989C7.28893 32.1353 7.60398 32.1567 7.91841 32.1833C8.25216 32.2116 8.5859 32.2401 8.91977 32.2669C9.39179 32.3048 9.86393 32.371 10.336 32.3711C11.0503 32.3711 11.7537 32.4574 12.4428 32.6176C13.0044 32.7481 13.5463 32.9627 14.0987 33.1342C14.385 33.2231 14.6765 33.2954 14.9633 33.3827C15.2989 33.4848 15.6285 33.6085 15.9671 33.699C16.5499 33.8547 17.1358 34 17.7239 34.1343C18.1663 34.2354 18.6126 34.3226 19.0604 34.3966C19.352 34.4448 19.6544 34.4331 19.9431 34.4918C20.9581 34.6982 21.9847 34.7723 23.0165 34.7866C23.8329 34.798 24.6496 34.7888 25.4662 34.7891C25.531 34.7891 25.5975 34.7819 25.6603 34.7938C26.3418 34.9241 27.0295 34.9634 27.7219 34.9458C27.8114 34.9435 27.9028 34.9517 27.991 34.9681C28.3451 35.0338 28.6976 35.1087 29.0521 35.1721C29.304 35.2171 29.3863 35.1613 29.421 34.9112C29.4665 34.5839 29.4905 34.2538 29.535 33.9264C29.5817 33.5822 29.6311 33.2378 29.6982 32.8973C29.7949 32.4061 29.883 31.9107 30.0253 31.4321C30.1043 31.1662 30.2256 30.9174 30.203 30.6301C30.1992 30.5818 30.2251 30.5313 30.2366 30.4817C30.2764 30.3096 30.323 30.1386 30.3528 29.9648C30.3702 29.8638 30.3453 29.7551 30.3652 29.655C30.4819 29.0684 30.5916 28.4798 30.7319 27.8986C30.8891 27.2471 31.0832 26.6047 31.2486 25.955C31.4248 25.263 31.577 24.5648 31.7572 23.8738C31.8766 23.4162 31.6633 22.6337 31.146 22.3349C30.9552 22.2247 30.7782 22.1847 30.5847 22.3073C30.3495 22.4564 30.087 22.4342 29.8306 22.4142C29.6488 22.4 29.5181 22.2519 29.5451 22.0665C29.5863 21.7827 29.6265 21.4874 29.738 21.2273C30.1442 20.2793 30.5917 19.349 30.9998 18.4018C31.2377 17.8494 31.3594 17.2761 31.1224 16.678C30.9892 16.3418 30.7734 16.1749 30.4237 16.2474C29.9902 16.3372 29.5806 16.1904 29.1593 16.1707C28.9758 16.1621 28.9526 16.0421 28.9597 15.9063C28.9667 15.7719 28.9937 15.6386 29.0118 15.5048C29.11 14.7787 29.2099 14.053 29.3056 13.3266C29.3467 13.0143 29.3784 12.7007 29.4155 12.3879C29.4707 11.9218 29.5517 11.4562 29.3807 10.9946C29.3409 10.887 29.3256 10.77 29.3022 10.6566C29.2017 10.1705 28.9096 9.96154 28.4169 10.0147C28.2588 10.0317 28.0981 10.0361 27.9392 10.0304C27.8249 10.0263 27.7121 9.99028 27.5977 9.97797C27.2073 9.93598 26.8162 9.90149 26.4261 9.85752C26.1969 9.83167 26.1579 9.75391 26.1925 9.53064C26.2165 9.3752 26.2008 9.21365 26.2035 9.05483C26.2047 8.97774 26.1929 8.89702 26.2114 8.82413C26.5689 7.41436 26.8937 5.99794 27.1162 4.55938C27.1425 4.38964 27.1122 4.30167 26.9319 4.25294C25.9564 3.98922 24.9875 3.70048 24.0085 3.45096C23.6379 3.35652 23.2475 3.33377 22.8643 3.29727C22.566 3.26885 22.2632 3.28559 21.9653 3.2541C21.448 3.19939 20.9346 3.09935 20.4164 3.06259C19.9518 3.02963 19.824 3.16221 19.6964 3.61345C19.5423 4.15822 19.3707 4.69799 19.2114 5.24131C19.1337 5.50665 19.0524 5.77229 18.9981 6.04289C18.9141 6.4618 18.8114 6.86938 18.5833 7.23901C18.5064 7.36375 18.4256 7.42681 18.2759 7.41312C18.0514 7.39256 17.8254 7.37335 17.6002 7.37556C16.8932 7.3825 16.2051 7.26164 15.5147 7.12356C15.2744 7.07552 14.995 7.1255 14.7572 7.20321C14.633 7.24381 14.5584 7.44042 14.465 7.56922C14.4274 7.62105 14.384 7.67658 14.371 7.73648C14.349 7.83679 14.3433 7.94185 14.3417 8.04508C14.3394 8.18485 14.3714 8.32933 14.3459 8.46367C14.2981 8.71578 14.1951 8.95863 14.1596 9.21158C14.1065 9.58989 13.9099 9.91607 13.8431 10.2988C13.6922 11.1642 13.4341 12.011 13.2204 12.8655C13.1815 13.021 13.0949 13.0649 12.9336 13.0347C12.6749 12.9862 12.4113 12.964 12.115 12.9264Z" fill="#215068"/>
</svg>
