<svg width="42" height="42" viewBox="0 0 42 42" fill="none" xmlns="http://www.w3.org/2000/svg">
<path d="M41.9074 0.207046C41.9377 0.300281 41.9942 0.393471 41.9944 0.486758C41.9991 3.17195 42.0027 5.85717 41.9973 8.54236C41.9865 13.9516 41.9704 19.3608 41.9563 24.77C41.9425 30.0343 41.9293 35.2986 41.9127 40.5628C41.9114 40.9882 41.8824 41.4135 41.8747 41.839C41.8723 41.9715 41.8108 42.0014 41.6928 41.9999C41.3559 41.9958 41.019 41.9985 40.682 41.9985C35.0028 41.9985 29.3236 41.9998 23.6443 41.9967C23.0532 41.9964 22.4621 41.9671 21.8709 41.9578C20.8048 41.9412 19.7386 41.9221 18.6724 41.9186C18.0604 41.9166 17.4483 41.9462 16.8362 41.9565C15.8748 41.9727 14.9135 41.9927 13.9521 41.9943C13.6084 41.9948 13.265 41.9384 12.9207 41.9238C12.7499 41.9166 12.5777 41.9535 12.4059 41.9564C11.4306 41.9726 10.4552 41.9963 9.47996 41.9934C8.94029 41.9918 8.40085 41.9218 7.86114 41.9195C5.70964 41.9103 3.558 41.9243 1.40658 41.9082C0.9916 41.9051 0.576914 41.808 0.163425 41.7457C0.118519 41.7389 0.0578502 41.6802 0.0471671 41.6357C0.0189265 41.5178 0.00177024 41.3945 0.0017536 41.2734C-0.000109911 27.6472 5.56102e-07 14.021 1.52013e-06 0.394803C1.52013e-06 0.0161234 0.0150689 0.00110067 0.414535 0.000673113C1.0083 3.76335e-05 1.60208 0.000506723 2.19585 0.000506267C2.78962 0.00050577 3.38339 -0.000753755 3.97716 0.000702342C9.47214 0.0141773 14.9671 0.0273029 20.4621 0.0421791C25.1118 0.0547673 29.7616 0.0672942 34.4113 0.0843232C36.6301 0.0924492 38.8489 0.109739 41.0676 0.126442C41.3234 0.128368 41.5789 0.15323 41.8593 0.176287C41.8914 0.192919 41.8992 0.200229 41.9074 0.207046ZM31.6454 11.8293C31.6594 11.6525 31.6738 11.4758 31.6873 11.2989C31.7029 11.0946 31.7217 10.8904 31.7318 10.6858C31.7472 10.371 31.7864 10.0537 31.7619 9.74163C31.7151 9.14586 31.6209 8.55388 31.5648 7.95863C31.5212 7.49598 31.5058 7.03074 31.4773 6.56668C31.4639 6.34839 31.4504 6.1301 31.4346 5.91197C31.3797 5.15625 31.3252 4.40049 31.2673 3.64499C31.2483 3.39712 31.2193 3.14999 31.1941 2.89381C30.5761 2.9837 29.9958 3.04607 29.425 3.15611C28.494 3.33557 27.6388 3.71781 26.8506 4.23034C26.3874 4.53151 25.9737 4.9061 25.5156 5.21583C25.0417 5.53634 24.5442 5.82347 24.0514 6.11608C23.1243 6.66664 22.1934 7.21102 21.2637 7.75726C20.5163 8.19637 19.7668 8.6319 19.0214 9.07425C18.7416 9.24023 18.4922 9.4375 18.3497 9.74554C18.3089 9.8339 18.219 9.91033 18.1343 9.96679C17.8733 10.1407 17.6043 10.303 17.3376 10.4685C16.7813 10.8138 16.2205 11.1524 15.6688 11.5049C15.1801 11.8172 14.7094 12.1575 14.2163 12.4627C13.0679 13.1737 11.9027 13.8585 10.7595 14.5774C9.50027 15.3691 8.27554 16.2117 6.95442 16.9086C5.82497 17.5044 4.73139 18.1667 3.62247 18.8004C3.4058 18.9242 3.19155 19.0522 2.94775 19.1949C3.26987 19.4752 3.56117 19.7379 3.86261 19.9887C4.2522 20.3128 4.62265 20.6698 5.04947 20.9378C6.11213 21.6051 7.21499 22.2099 8.27729 22.8777C9.28794 23.513 10.2788 24.1807 11.2579 24.8629C12.2718 25.5694 13.2548 26.319 14.2626 27.0342C15.3923 27.8358 16.5351 28.6191 17.6712 29.4119C18.298 29.8493 18.9255 30.2858 19.5477 30.7295C20.6203 31.4944 21.6904 32.2629 22.7588 33.0335C23.2076 33.3572 23.6632 33.6737 24.0907 34.0233C24.6072 34.4455 25.0824 34.9174 25.6021 35.3353C26.5077 36.0636 27.437 36.7631 28.3503 37.4821C29.0927 38.0665 29.8252 38.6631 30.5652 39.2505C30.6496 39.3174 30.7541 39.3595 30.875 39.4276C30.9136 39.1925 30.9674 39.0065 30.9709 38.8196C30.9925 37.6835 31.0036 36.5472 31.0164 35.411C31.0314 34.0746 31.0458 32.7383 31.0582 31.4019C31.0735 29.7618 31.0879 28.1217 31.0998 26.4816C31.1042 25.8605 31.0971 25.2393 31.1025 24.6181C31.1041 24.4344 31.1072 24.2455 31.1493 24.0681C31.3159 23.3668 31.4376 22.6616 31.4841 21.9404C31.5283 21.255 31.6464 20.5737 31.6785 19.8881C31.7064 19.2922 31.6667 18.6925 31.6443 18.095C31.6081 17.1294 31.5506 16.1646 31.5226 15.1988C31.4903 14.0867 31.5296 12.9757 31.6454 11.8293Z" fill="#AFC441"/>
</svg>
