<svg width="40" height="41" viewBox="0 0 40 41" fill="none" xmlns="http://www.w3.org/2000/svg">
<path d="M2.12675 0.928056C2.19361 0.927897 2.19361 0.927897 2.26183 0.927734C2.33574 0.927978 2.33574 0.927978 2.41113 0.928227C2.43685 0.928278 2.46256 0.928329 2.48906 0.928381C3.15089 0.930002 3.8121 0.951183 4.4735 0.973472C4.58604 0.977244 4.69857 0.980936 4.81111 0.984608C5.88781 1.01982 6.96431 1.05966 8.04076 1.10156C8.07014 1.1027 8.09952 1.10384 8.12979 1.10502C8.40472 1.11572 8.67965 1.12643 8.95458 1.13714C9.1453 1.14458 9.33602 1.15201 9.52674 1.15943C9.57471 1.1613 9.57471 1.1613 9.62365 1.16321C11.8467 1.24976 14.0698 1.32706 16.2934 1.39763C16.3304 1.3988 16.3673 1.39998 16.4054 1.40118C16.8209 1.41437 17.2363 1.42754 17.6517 1.4407C17.6897 1.4419 17.7277 1.44311 17.7669 1.44435C17.9602 1.45048 18.1535 1.4566 18.3468 1.46272C20.2629 1.52336 22.1788 1.58724 24.0947 1.65132C24.3524 1.65994 24.6102 1.66855 24.8679 1.67716C24.9513 1.67994 25.0346 1.68273 25.1179 1.68551C25.2413 1.68963 25.3647 1.69375 25.4881 1.69787C25.9301 1.71262 26.3721 1.72743 26.8142 1.74239C26.9716 1.74771 27.1291 1.75303 27.2865 1.75834C27.3251 1.75964 27.3638 1.76094 27.4035 1.76229C27.9246 1.77985 28.4457 1.79656 28.9668 1.81261C31.0777 1.87777 33.1861 1.97485 35.2951 2.08502C35.7276 2.1076 36.1602 2.12976 36.5928 2.15191C36.9674 2.17111 37.342 2.19041 37.7166 2.20974C37.7755 2.21277 37.7755 2.21277 37.8356 2.21587C38.0604 2.22747 38.2852 2.23913 38.51 2.25086C38.5773 2.25437 38.6447 2.25787 38.712 2.26135C39.112 2.28203 39.5116 2.30572 39.9111 2.33339C39.9154 2.82816 39.9021 3.3211 39.8826 3.81546C39.8795 3.89666 39.8764 3.97787 39.8733 4.05907C39.8649 4.28063 39.8563 4.50219 39.8476 4.72374C39.8383 4.96353 39.8291 5.20332 39.82 5.44312C39.804 5.85897 39.7879 6.27483 39.7718 6.69068C39.7548 7.12919 39.7379 7.56769 39.721 8.0062C39.72 8.03365 39.7189 8.06109 39.7178 8.08937C39.7125 8.22887 39.7071 8.36838 39.7017 8.50788C39.6637 9.49673 39.6256 10.4856 39.5874 11.4744C39.5506 12.4244 39.514 13.3744 39.4774 14.3245C39.4762 14.3535 39.4751 14.3825 39.474 14.4124C39.4516 14.9942 39.4292 15.5759 39.4067 16.1577C39.3957 16.4446 39.3846 16.7316 39.3736 17.0185C39.3703 17.1037 39.367 17.1889 39.3638 17.2741C39.3405 17.8786 39.3172 18.4832 39.2938 19.0877C39.2928 19.1139 39.2918 19.1401 39.2908 19.167C39.2817 19.4019 39.2726 19.6369 39.2635 19.8718C39.2422 20.4245 39.2209 20.9773 39.1997 21.53C39.1978 21.5783 39.196 21.6267 39.194 21.6764C39.1866 21.8696 39.1792 22.0628 39.1718 22.2559C39.1498 22.8305 39.1275 23.4051 39.1049 23.9797C39.0902 24.3555 39.0755 24.7313 39.061 25.1072C39.0526 25.3244 39.0441 25.5416 39.0355 25.7588C38.9829 27.0765 38.9563 28.3934 38.9504 29.7122C38.948 30.2124 38.9318 30.7085 38.8918 31.2074C38.8481 31.7586 38.8303 32.3108 38.811 32.8633C38.8076 32.96 38.8041 33.0566 38.8006 33.1533C38.7658 34.1095 38.7345 35.0658 38.7037 36.0221C38.7029 36.0491 38.702 36.0761 38.7011 36.104C38.6836 36.6486 38.6661 37.1933 38.6491 37.7379C38.6419 37.97 38.6346 38.2021 38.6272 38.4342C38.6242 38.5301 38.6212 38.626 38.6183 38.7219C38.6105 38.9744 38.6023 39.2269 38.5929 39.4794C38.5903 39.5508 38.5878 39.6222 38.5855 39.6936C38.5824 39.7867 38.5787 39.8798 38.5746 39.9728C38.5717 40.0485 38.5717 40.0485 38.5687 40.1257C38.5491 40.256 38.5247 40.3126 38.4333 40.4056C38.1156 40.5374 37.6421 40.443 37.3014 40.4258C36.8906 40.4061 36.48 40.3974 36.0688 40.3914C35.209 40.3783 34.3497 40.3538 33.4903 40.3245C33.4616 40.3235 33.4328 40.3225 33.4031 40.3215C33.0443 40.3093 32.6855 40.2967 32.3268 40.2841C31.979 40.2719 31.6313 40.2599 31.2835 40.2479C31.156 40.2435 31.0285 40.239 30.901 40.2346C30.8695 40.2336 30.8381 40.2325 30.8057 40.2313C30.5859 40.2237 30.366 40.2161 30.1461 40.2084C29.4472 40.1841 28.7482 40.1604 28.0492 40.1376C27.9724 40.1351 27.8955 40.1326 27.8187 40.1301C27.7817 40.1289 27.7448 40.1277 27.7067 40.1265C26.5499 40.0887 25.3938 40.0464 24.2377 39.9911C23.3021 39.9463 22.3666 39.9208 21.4301 39.9003C20.3054 39.8757 19.1819 39.835 18.058 39.7858C16.878 39.7343 15.6982 39.6893 14.5176 39.6554C12.7653 39.605 11.0136 39.5425 9.26181 39.4771C9.22819 39.4759 9.19457 39.4746 9.15993 39.4733C8.18477 39.437 7.20963 39.4001 6.2345 39.363C6.07269 39.3569 5.91089 39.3508 5.74909 39.3446C4.97452 39.3152 4.19996 39.2856 3.42541 39.2557C3.23614 39.2484 3.04687 39.2411 2.85759 39.2339C2.60669 39.2243 2.3558 39.2145 2.1049 39.2047C2.01406 39.2011 1.92322 39.1976 1.83238 39.1942C1.70899 39.1895 1.58561 39.1846 1.46223 39.1797C1.42696 39.1784 1.3917 39.1771 1.35536 39.1758C1.25721 39.1718 1.15919 39.1668 1.06111 39.1612C1.0262 39.1593 0.991293 39.1574 0.955325 39.1555C0.903842 39.1517 0.903842 39.1517 0.85132 39.1479C0.82065 39.1458 0.789981 39.1437 0.758382 39.1415C0.649844 39.1173 0.597392 39.0821 0.516667 39.0056C0.498577 38.9147 0.498577 38.9147 0.500521 38.8067C0.500879 38.7664 0.501237 38.7261 0.501606 38.6845C0.502808 38.641 0.504009 38.5974 0.505247 38.5525C0.505907 38.5072 0.506567 38.4618 0.507246 38.4151C0.509538 38.2749 0.512972 38.1347 0.516667 37.9945C0.518439 37.9151 0.520205 37.8358 0.521966 37.7564C0.527799 37.5169 0.535761 37.2775 0.54384 37.0381C0.546812 36.9463 0.549771 36.8546 0.552716 36.7628C0.56076 36.5135 0.569008 36.2641 0.577292 36.0148C0.585339 35.7722 0.593195 35.5295 0.601074 35.2868C0.618246 34.7581 0.635605 34.2294 0.653042 33.7007C0.668488 33.2323 0.683866 32.764 0.699181 32.2956C0.700208 32.2642 0.701236 32.2328 0.702294 32.2004C0.706471 32.0727 0.710648 31.9449 0.714824 31.8172C0.754106 30.6156 0.793573 29.4141 0.833128 28.2126C0.867463 27.1696 0.901666 26.1266 0.935739 25.0837C0.944328 24.8208 0.952918 24.5579 0.961509 24.295C0.962569 24.2625 0.96363 24.2301 0.964723 24.1966C1.0692 20.9995 1.1739 17.8024 1.48225 8.81195C1.48686 8.68053 1.49147 8.54911 1.49607 8.41769C1.53479 7.31324 1.57374 6.20881 1.61351 5.1044C1.63118 4.61356 1.64855 4.12271 1.6653 3.63184C1.67557 3.33079 1.68607 3.02975 1.69676 2.72871C1.70397 2.52519 1.71089 2.32166 1.71758 2.11813C1.72166 1.99638 1.72603 1.87464 1.73049 1.75291C1.73247 1.69734 1.73433 1.64176 1.73605 1.58618C1.73839 1.51112 1.74121 1.43608 1.74406 1.36104C1.74549 1.31943 1.74691 1.27782 1.74838 1.23495C1.76107 1.12817 1.78055 1.06198 1.83889 0.972281C1.93999 0.921729 2.01349 0.928274 2.12675 0.928056ZM19.8133 4.77758C19.3207 4.85526 18.8278 4.91005 18.3307 4.94943C18.2801 4.95346 18.2295 4.95749 18.1773 4.96165C17.9242 4.98156 17.671 5.0004 17.4177 5.01812C16.7295 5.06885 16.1429 5.17486 15.5205 5.48339C15.4865 5.49943 15.4525 5.51547 15.4174 5.532C15.1041 5.68382 14.904 5.82868 14.7549 6.15422C14.7354 6.19483 14.7354 6.19483 14.7155 6.23625C14.6745 6.32205 14.6344 6.40822 14.5944 6.4945C14.5555 6.57791 14.5166 6.66129 14.4776 6.74466C14.4517 6.80008 14.4259 6.85555 14.4003 6.91108C14.3278 7.06669 14.2511 7.21791 14.1651 7.36653C13.7959 8.03457 13.6887 8.79696 13.5396 9.53756C13.5089 9.68883 13.4781 9.84006 13.4472 9.99129C13.4282 10.0846 13.4093 10.178 13.3905 10.2714C13.3379 10.5308 13.2809 10.7886 13.2184 11.0458C13.0981 11.6262 13.3668 12.0048 13.6657 12.476C13.8855 12.8227 14.0831 13.1814 14.2759 13.5437C14.7933 14.5162 14.7933 14.5162 15.4919 15.3621C15.6759 15.5454 15.6759 15.5454 15.697 15.6852C15.6901 15.7897 15.6715 15.8822 15.6444 15.9834C15.635 16.0193 15.6255 16.0553 15.6157 16.0923C15.5328 16.3563 15.412 16.5298 15.2167 16.7223C15.147 16.7911 15.0773 16.86 15.0076 16.9289C14.9893 16.947 14.9709 16.9651 14.952 16.9837C14.7652 17.1697 14.6023 17.3715 14.4389 17.5778C14.3847 17.6444 14.3305 17.7108 14.276 17.7771C14.2473 17.8123 14.2186 17.8474 14.189 17.8836C14.1132 17.9761 14.0371 18.0683 13.9608 18.1604C13.7468 18.4192 13.5339 18.6783 13.3281 18.9438C13.1572 19.164 12.9773 19.375 12.7938 19.5846C12.6712 19.7248 12.551 19.8662 12.4337 20.0108C12.1525 20.3572 11.863 20.6956 11.5587 21.0219C10.7772 21.863 10.2837 22.7414 9.86298 23.8086C9.81317 23.9347 9.7626 24.0604 9.71199 24.1861C9.67982 24.2672 9.64769 24.3483 9.6156 24.4294C9.59313 24.485 9.59313 24.485 9.57019 24.5418C9.39587 24.9886 9.42867 25.3172 9.52081 25.7854C9.53168 25.8423 9.54251 25.8992 9.55331 25.9561C9.57603 26.0753 9.59912 26.1945 9.62247 26.3136C9.65189 26.4637 9.68051 26.6141 9.70888 26.7645C9.85973 27.5621 10.0413 28.3308 10.3373 29.0885C10.3775 29.1943 10.4115 29.3 10.4418 29.409C10.6079 30.0009 10.8887 30.5302 11.1722 31.0723C11.2092 31.1439 11.2462 31.2155 11.2831 31.2871C11.3741 31.4627 11.467 31.6372 11.5611 31.8112C11.575 31.8371 11.5889 31.8631 11.6033 31.8898C12.1021 32.8151 12.9422 33.2446 13.9265 33.5414C14.4296 33.6849 14.9406 33.7751 15.4561 33.8595C15.8526 33.9245 16.2466 33.9984 16.6405 34.0778C18.0947 34.3693 19.4983 34.3903 20.9395 34.0169C21.0377 33.992 21.1361 33.9691 21.235 33.9473C21.7609 33.8305 22.108 33.6068 22.5041 33.2558C22.6383 33.1373 22.7775 33.0265 22.9191 32.9171C23.0969 32.7792 23.2708 32.6381 23.4417 32.4917C23.6103 32.3473 23.7817 32.2076 23.9569 32.0712C24.2513 31.8423 24.5383 31.6048 24.8255 31.367C24.8907 31.3133 24.9562 31.2599 25.022 31.2069C25.2401 31.0307 25.4496 30.8477 25.6559 30.6579C25.7422 30.5789 25.8297 30.502 25.9184 30.4258C26.0521 30.3098 26.176 30.1863 26.2995 30.0596C26.3764 29.9847 26.4568 29.9191 26.5406 29.8521C26.8301 29.5999 26.9181 29.2382 26.9948 28.8752C27.0042 28.8329 27.0135 28.7906 27.0231 28.747C27.0533 28.6091 27.0826 28.4711 27.1118 28.333C27.1221 28.2851 27.1323 28.2372 27.1429 28.1878C27.3141 27.3872 27.4626 26.5862 27.5826 25.7766C27.6129 25.5722 27.6441 25.368 27.6757 25.1639C27.7262 24.8365 27.776 24.509 27.8254 24.1815C27.8453 24.0497 27.8654 23.9181 27.8857 23.7864C27.9099 23.6296 27.9334 23.4727 27.9566 23.3158C27.9652 23.2576 27.9741 23.1994 27.9832 23.1413C28.2032 21.73 27.4783 20.1642 26.6746 19.0186C26.1115 18.2488 25.338 17.6454 24.5116 17.176C24.4333 17.1112 24.4333 17.1112 24.404 17.0234C24.3922 16.8916 24.4212 16.8213 24.4751 16.7009C24.4933 16.6599 24.5114 16.6189 24.5302 16.5767C24.6234 16.3756 24.718 16.1754 24.8149 15.9761C24.8354 15.9335 24.8559 15.8908 24.877 15.8469C24.9641 15.6658 25.0513 15.4851 25.1428 15.3062C25.3709 14.8536 25.5241 14.3762 25.6665 13.8905C25.7021 13.7707 25.7435 13.6543 25.7871 13.5372C26.0368 12.8312 26.0266 12.1421 26.0166 11.4034C26.0153 11.2713 26.0155 11.1393 26.0157 11.0073C26.0252 10.0412 26.0252 10.0412 25.8333 9.10006C25.8193 9.05596 25.8193 9.05596 25.805 9.01097C25.6584 8.56141 25.4648 8.13378 25.2565 7.70989C25.2106 7.61635 25.1656 7.52242 25.1206 7.42844C24.9704 7.11836 24.8219 6.82989 24.5889 6.57228C24.556 6.53463 24.5231 6.49698 24.4892 6.4582C23.6629 5.60939 22.0976 4.7345 20.8916 4.69835C20.5264 4.69428 20.1743 4.72019 19.8133 4.77758Z" fill="#215068"/>
</svg>
