<svg width="42" height="42" viewBox="0 0 42 42" fill="none" xmlns="http://www.w3.org/2000/svg">
<path d="M0.0467783 0.952138C0.0486585 0.93421 0.0505388 0.916283 0.0679126 0.879207C0.187313 0.795841 0.288041 0.682673 0.395669 0.675755C0.901631 0.643232 1.40942 0.636397 1.91668 0.626895C2.79466 0.610448 3.67273 0.598802 4.55077 0.585142C5.4288 0.571482 6.30683 0.557797 7.18486 0.54417C8.06976 0.530436 8.95466 0.516813 9.83956 0.503046C10.7107 0.489494 11.5819 0.475854 12.4531 0.462194C13.3242 0.448534 14.1954 0.434745 15.0665 0.421118C15.9446 0.407385 16.8226 0.393866 17.7006 0.380099C18.5649 0.366547 19.4292 0.352691 20.2935 0.339174C21.1784 0.325334 22.0633 0.311876 22.9482 0.298003C23.8057 0.284561 24.6631 0.270665 25.5205 0.257222C26.4054 0.243349 27.2903 0.229917 28.1752 0.216044C29.0327 0.202601 29.8901 0.188675 30.7475 0.175271C31.6393 0.16133 32.531 0.147949 33.4228 0.133971C34.2734 0.120639 35.1239 0.104485 35.9745 0.0938219C37.244 0.0779081 38.5135 0.0666771 39.7829 0.0507331C39.9401 0.0487592 40.098 0.0377657 40.2539 0.0179095C40.8727 -0.0609037 41.0837 0.110556 41.0946 0.729135C41.113 1.76658 41.1487 2.80459 41.1309 3.84158C41.1107 5.02011 41.2759 6.19761 41.1406 7.3758C41.1375 7.40238 41.1446 7.43011 41.1469 7.45731C41.1849 7.89785 41.2468 8.33788 41.2563 8.77903C41.2832 10.0213 41.289 11.2639 41.3021 12.5064C41.3063 12.9094 41.2944 13.3131 41.3127 13.7154C41.3398 14.3142 41.406 14.9116 41.4219 15.5105C41.45 16.575 41.4482 17.6402 41.4676 18.705C41.49 19.9329 41.5184 21.1607 41.5509 22.3884C41.5706 23.1313 41.6053 23.8738 41.6293 24.6166C41.6598 25.5574 41.6877 26.4982 41.7139 27.4391C41.7302 28.0256 41.7413 28.6123 41.7548 29.1989C41.7825 30.4062 41.8096 31.6135 41.8384 32.8208C41.8497 33.2913 41.8668 33.7617 41.8778 34.2321C41.9068 35.4736 41.935 36.7151 41.9613 37.9566C41.9772 38.7071 41.9938 39.4577 41.9999 40.2083C42.0021 40.4868 41.9753 40.7656 41.9617 41.0443C41.9183 41.0602 41.8755 41.088 41.8314 41.0901C41.4703 41.1071 41.1091 41.1231 40.7478 41.1323C40.0982 41.1489 39.4485 41.1595 38.7989 41.1745C38.2728 41.1866 37.7468 41.2022 37.2207 41.2149C36.6191 41.2295 36.0175 41.2426 35.4159 41.2561C34.8006 41.27 34.1853 41.2861 33.57 41.2965C32.625 41.3125 31.6801 41.3253 30.7351 41.338C29.6528 41.3525 28.5704 41.3633 27.4882 41.38C26.914 41.3888 26.3399 41.4053 25.7658 41.4206C25.329 41.4322 24.8923 41.45 24.4555 41.4606C23.799 41.4765 23.1424 41.4888 22.4859 41.5021C21.795 41.5161 21.1042 41.529 20.4133 41.5433C19.7842 41.5563 19.1552 41.5707 18.5261 41.5841C17.8765 41.598 17.2268 41.6118 16.5771 41.625C15.8863 41.6391 15.1954 41.6521 14.5046 41.6662C13.8549 41.6795 13.2052 41.6932 12.5556 41.7072C11.9402 41.7205 11.3249 41.7345 10.7096 41.7481C10.0943 41.7618 9.47895 41.7753 8.86363 41.7892C8.2689 41.8026 7.67418 41.8163 7.07946 41.8302C6.50534 41.8436 5.93122 41.8573 5.35711 41.8712C4.80358 41.8846 4.25007 41.8986 3.69655 41.9121C3.13617 41.9259 2.57572 41.9373 2.01543 41.954C1.72272 41.9627 1.42928 41.97 1.13812 41.998C0.964803 42.0147 0.91115 41.9236 0.87949 41.7892C0.871825 41.7566 0.876152 41.7212 0.875717 41.6871C0.861893 40.6034 0.84919 39.5198 0.834094 38.4362C0.821948 37.5644 0.807745 36.6926 0.792923 35.8208C0.780423 35.0856 0.765384 34.3505 0.752089 33.6153C0.73793 32.8323 0.724816 32.0493 0.710657 31.2663C0.697363 30.5312 0.683062 29.796 0.669642 29.0608C0.655598 28.2915 0.642349 27.5222 0.628245 26.7529C0.614892 26.0245 0.600642 25.2962 0.587224 24.5679C0.573177 23.8054 0.560937 23.0429 0.545476 22.2804C0.533893 21.7092 0.518661 21.138 0.504677 20.5668C0.491194 20.0161 0.477874 19.4654 0.463277 18.9148C0.45049 18.4324 0.434424 17.9501 0.422707 17.4676C0.407342 16.835 0.391831 16.2023 0.381764 15.5696C0.365502 14.5475 0.351466 13.5254 0.340419 12.5032C0.324647 11.0439 0.324105 9.58423 0.294682 8.12515C0.274173 7.10809 0.218545 6.09168 0.173809 5.07519C0.152991 4.60217 0.120781 4.12965 0.105394 3.63414C0.121101 3.58594 0.125149 3.56052 0.129198 3.53509C0.144021 2.89482 0.142335 2.25668 0.016534 1.62316C-0.0185246 1.44661 0.0112733 1.25731 0.0229755 1.05114C0.0386815 1.003 0.04273 0.977567 0.0467783 0.952138ZM16.6856 19.5642C16.7179 19.538 16.7503 19.5118 16.8092 19.4822C16.8416 19.456 16.8739 19.4298 16.9361 19.3874C17.5344 19.3052 18.1236 19.4266 18.7172 19.4586C19.2501 19.4873 19.7877 19.4927 20.3198 19.4575C20.7208 19.431 21.1161 19.3224 21.5145 19.2535C21.8852 19.1893 22.0233 19.2944 22.0136 19.6644C21.9929 20.4481 21.964 21.2316 21.9276 22.0147C21.8802 23.0354 21.7939 24.0552 21.7765 25.0763C21.7572 26.2154 21.794 27.3555 21.8113 28.4952C21.8186 28.9724 21.8323 29.4497 21.8555 29.9264C21.8707 30.2391 21.9002 30.5519 21.9423 30.8621C21.9512 30.9277 22.0388 31.0288 22.0972 31.0339C22.3961 31.06 22.7 31.0904 22.9971 31.0635C23.8018 30.9908 24.6037 30.8875 25.4072 30.8013C25.9313 30.745 26.4555 30.6836 26.9813 30.6506C27.4104 30.6238 27.8419 30.6338 28.2723 30.6311C28.8076 30.6277 29.3449 30.6575 29.8775 30.6193C30.5532 30.5709 31.2253 30.4709 31.8983 30.3888C32.2181 30.3498 32.5387 30.3112 32.8545 30.2501C32.9625 30.2292 33.1602 30.2446 33.0996 29.9871C32.9572 29.2534 32.7695 28.5252 32.8375 27.7599C32.8416 27.7345 32.8456 27.7091 32.8536 27.6464C32.8401 27.4374 32.8205 27.2285 32.8143 27.0193C32.7972 26.4347 32.7771 25.8499 32.774 25.2651C32.7689 24.3226 32.7765 23.3801 32.7963 22.43C32.8004 22.4046 32.8044 22.3792 32.8124 22.3191C32.8149 22.2492 32.8175 22.1794 32.8375 22.102C32.8416 22.0766 32.8456 22.0512 32.8536 21.9935C32.8562 21.9501 32.8587 21.9068 32.8788 21.856C32.8828 21.8306 32.8868 21.8052 32.8948 21.7419C32.8974 21.5228 32.8999 21.3037 32.92 21.077C32.924 21.0516 32.928 21.0262 32.936 20.9628C32.936 20.1874 32.936 19.4119 32.936 18.5946C32.523 18.6319 32.1384 18.6583 31.7562 18.7036C31.3687 18.7495 30.9848 18.8267 30.5969 18.8674C30.085 18.921 29.5713 18.9622 29.0574 18.991C28.1809 19.0401 27.3035 19.0757 26.4265 19.1164C26.1136 19.131 25.8006 19.1426 25.4877 19.1584C25.2502 19.1704 25.0074 19.1605 24.7768 19.208C24.4706 19.2712 24.1904 19.2271 23.9089 19.084C23.8946 19.0533 23.8802 19.0226 23.8699 18.9571C23.8724 18.8873 23.875 18.8174 23.895 18.7401C23.899 18.7147 23.9031 18.6893 23.9111 18.6259C23.8839 17.7505 23.8444 16.8754 23.8326 15.9998C23.8189 14.9827 23.8295 13.9652 23.8294 12.9478C23.8294 12.8932 23.8334 12.8381 23.8274 12.7841C23.7742 12.2968 23.7168 11.81 23.6654 11.3225C23.6379 11.0614 23.637 10.7964 23.5934 10.5383C23.5201 10.1045 23.4225 9.6748 23.3347 9.24349C23.2665 8.90855 23.1847 8.57675 22.951 8.31229C22.8967 8.25082 22.7972 8.19229 22.7198 8.19389C22.3744 8.20102 22.0292 8.22771 21.6844 8.25255C21.3398 8.27738 20.9886 8.27477 20.6529 8.3444C20.1167 8.4556 19.5917 8.61936 19.0606 8.75537C18.8089 8.81983 18.5525 8.92437 18.3407 8.64611C18.2967 8.58832 18.1642 8.57114 18.0755 8.57738C17.5828 8.612 17.0918 8.68083 16.5988 8.6981C15.7305 8.72851 14.8612 8.72827 13.9924 8.74543C13.8235 8.74877 13.6533 8.76294 13.4864 8.78941C13.0092 8.86513 12.5303 8.93557 12.058 9.03565C11.7201 9.10725 11.3918 9.22329 11.0305 9.32631C10.9713 9.40342 10.8683 9.47676 10.8612 9.55836C10.8415 9.78565 10.8476 10.0176 10.8683 10.2455C10.9382 11.0183 11.0612 11.7888 11.0862 12.5627C11.1322 13.9871 11.1343 15.4134 11.1322 16.8389C11.1311 17.574 11.0774 18.309 11.0563 19.0443C11.0458 19.4103 11.2087 19.5994 11.5802 19.6393C11.9882 19.6831 12.399 19.7001 12.8083 19.7319C13.4494 19.7816 14.0898 19.8409 14.7314 19.882C15.0573 19.9029 15.3894 19.9263 15.711 19.887C15.9913 19.8527 16.261 19.7321 16.562 19.6462C16.5943 19.62 16.6266 19.5938 16.6856 19.5642Z" fill="#D4CEC7"/>
</svg>
