<svg width="42" height="42" viewBox="0 0 42 42" fill="none" xmlns="http://www.w3.org/2000/svg">
<path d="M2.76664 36.766C2.5793 36.5698 2.39197 36.3736 2.19443 36.1464C2.09466 35.9163 1.98211 35.7252 1.91941 35.517C1.60338 34.4674 1.24172 33.428 1.00846 32.3571C0.751558 31.1777 0.630073 29.9654 0.425145 28.7723C0.219311 27.5738 0.12634 26.3686 0.137341 25.1516C0.144584 24.3503 0.146283 23.5488 0.132005 22.7477C0.128956 22.5767 0.0460931 22.4073 0 22.2371C0.127345 21.3669 0.2533 20.4964 0.382377 19.6265C0.556452 18.4533 0.887712 17.3272 1.29851 16.2272C1.80563 14.8693 2.33554 13.5108 3.19904 12.3658C3.90156 11.4342 4.33015 10.3328 4.98293 9.37867C5.6006 8.47589 6.23265 7.58397 6.87321 6.69951C7.22041 6.22011 7.59857 5.76624 7.98917 5.28587C8.05202 5.23505 8.08845 5.19922 8.12489 5.16339C8.11747 5.14881 8.11004 5.13422 8.12475 5.10168C8.18418 5.04679 8.22147 5.00987 8.25877 4.97295C8.25135 4.95836 8.24393 4.94376 8.25863 4.9112C8.31806 4.8563 8.35536 4.81938 8.39266 4.78246C8.48981 4.649 8.58423 4.51312 8.68525 4.38308C8.73572 4.31811 8.79825 4.2638 8.88321 4.19373C8.96147 4.13632 9.01185 4.08986 9.06223 4.0434C9.06223 4.0434 9.06275 4.04617 9.07628 4.04295C9.1373 4.00542 9.18478 3.9711 9.23226 3.93678C9.23226 3.93678 9.22503 3.93526 9.23976 3.92938C9.29157 3.89607 9.32865 3.86863 9.36573 3.8412C9.36573 3.8412 9.35614 3.83807 9.37553 3.8347C9.62689 3.73216 9.85923 3.63396 10.0908 3.53368C11.6703 2.84963 13.2501 2.16635 14.8278 1.47739C14.9098 1.4416 14.9727 1.35615 15.0445 1.29382C15.0644 1.29254 15.0844 1.29127 15.1255 1.29671C15.1721 1.28436 15.1975 1.26528 15.223 1.2462C15.243 1.24492 15.2629 1.24364 15.304 1.24909C15.3506 1.23674 15.376 1.21766 15.4015 1.19858C15.4215 1.1973 15.4414 1.19602 15.4825 1.20147C15.5291 1.18912 15.5545 1.17004 15.58 1.15096C15.6136 1.14949 15.6473 1.14802 15.7038 1.15356C15.7522 1.14149 15.7777 1.12242 15.8032 1.10333C15.8509 1.10178 15.8987 1.10023 15.9705 1.10582C16.02 1.09387 16.0455 1.07479 16.0709 1.05571C16.1476 1.05412 16.2243 1.05252 16.3263 1.05813C16.377 1.04625 16.4025 1.02717 16.428 1.00809C16.5046 1.0065 16.5813 1.0049 16.6833 1.01051C16.734 0.998629 16.7595 0.979549 16.785 0.96047C16.8617 0.958874 16.9384 0.957278 17.0403 0.962885C17.0911 0.951008 17.1165 0.931928 17.142 0.912848C17.2187 0.911253 17.2954 0.909657 17.3973 0.915264C17.4481 0.903386 17.4736 0.884306 17.499 0.865227C17.5757 0.863631 17.6524 0.862035 17.7544 0.867642C17.8051 0.855765 17.8306 0.836685 17.856 0.817605C17.9182 0.816022 17.9804 0.814439 18.0673 0.820039C18.1175 0.808143 18.143 0.789063 18.1684 0.769983C18.2451 0.768388 18.3218 0.766792 18.4238 0.772399C18.4745 0.760522 18.5 0.741442 18.5255 0.722362C18.6022 0.720766 18.6789 0.71917 18.7808 0.724777C18.8316 0.7129 18.857 0.69382 18.8825 0.67474C18.9592 0.673144 19.0359 0.671548 19.1378 0.677155C19.1886 0.665278 19.2141 0.646198 19.2395 0.627118C19.3308 0.625518 19.4221 0.623917 19.5391 0.629527C19.5902 0.617657 19.6157 0.598577 19.6412 0.579497C19.7619 0.577893 19.8826 0.576289 20.0295 0.581901C20.0811 0.570036 20.1066 0.550956 20.1321 0.531875C20.2971 0.530271 20.4621 0.528667 20.6538 0.534278C20.7059 0.522414 20.7314 0.503334 20.7569 0.484254C21.8142 0.49852 22.8715 0.512787 23.9559 0.534274C24.0084 0.522413 24.0339 0.503333 24.0594 0.484253C24.2244 0.48265 24.3894 0.481045 24.581 0.486657C24.6332 0.474792 24.6587 0.455712 24.6841 0.436632C24.8196 0.435028 24.955 0.433425 25.1169 0.439036C25.1687 0.427171 25.1942 0.408091 25.2197 0.38901C25.3404 0.387406 25.4611 0.385803 25.608 0.391414C25.6596 0.379549 25.6851 0.360468 25.7106 0.341389C25.8313 0.339785 25.952 0.338181 26.0989 0.343793C26.1506 0.331927 26.176 0.312847 26.2015 0.293767C26.3075 0.292165 26.4135 0.290563 26.5454 0.296173C26.5968 0.284306 26.6223 0.265226 26.6478 0.246146C26.7538 0.244543 26.8597 0.242941 26.9917 0.248551C27.0431 0.236684 27.0686 0.217604 27.0941 0.198524C27.1854 0.196923 27.2767 0.195322 27.3936 0.200932C27.4448 0.189063 27.4702 0.169982 27.4957 0.150902C27.6017 0.1493 27.7077 0.147697 27.8396 0.153309C27.8911 0.141442 27.9165 0.122362 27.942 0.103281C28.0333 0.10168 28.1246 0.100079 28.2416 0.105689C28.2927 0.093819 28.3182 0.074739 28.3436 0.055659C28.4496 0.0540564 28.5556 0.0524538 28.6876 0.0580646C28.739 0.0461977 28.7645 0.0271174 28.7899 0.00803742C29.4384 -0.0401488 30.061 0.139258 30.6907 0.255277C30.7766 0.271114 30.8604 0.300278 30.9716 0.342194C31.0292 0.382689 31.0604 0.404261 31.0916 0.425833C31.1468 0.423482 31.202 0.421131 31.2831 0.439026C31.4221 0.49504 31.5353 0.530809 31.6484 0.566578C31.6839 0.581936 31.7193 0.597293 31.778 0.629748C31.8325 0.668419 31.8637 0.689991 31.8949 0.711563C32.0883 0.733698 32.2849 0.739136 32.4746 0.780637C33.868 1.0855 35.2603 1.39597 36.6523 1.70811C37.2645 1.84539 37.8752 1.9907 38.5134 2.15155C38.5714 2.19231 38.6025 2.21388 38.6337 2.23546C38.689 2.2331 38.7442 2.23075 38.826 2.24719C38.8838 2.28755 38.9149 2.30913 38.9461 2.3307C39.0608 2.34402 39.1755 2.35734 39.3168 2.38975C39.3747 2.43042 39.4058 2.45199 39.437 2.47356C39.4922 2.47121 39.5475 2.46885 39.6249 2.48187C39.6735 2.50452 39.6998 2.5118 39.7261 2.51907C39.7615 2.53442 39.7969 2.54977 39.8513 2.5788C39.8966 2.59977 39.9229 2.60704 39.9493 2.61431C40.4368 2.93878 40.9272 3.25841 41.4103 3.59018C41.5959 3.71766 41.7648 3.8728 41.9517 4.04908C42.0591 4.86067 41.9901 5.61794 41.7166 6.35021C41.0808 8.05227 40.442 9.75106 39.9355 11.5063C39.3788 13.4352 38.5779 15.2639 37.7437 17.0714C37.0971 18.4726 36.4282 19.8607 35.6724 21.2034C35.2512 21.9519 34.9568 22.787 34.6506 23.6025C34.3316 24.4519 34.0418 25.315 33.4627 26.01C33.0835 26.4651 32.6413 26.8612 32.2706 27.3232C31.5801 28.184 30.8809 29.0425 30.2587 29.9586C29.3323 31.3227 28.3725 32.654 27.2789 33.8687C26.237 35.026 25.118 36.0899 23.8713 36.9987C22.9018 37.7055 21.9811 38.4962 20.8817 38.9733C19.5389 39.5561 18.1903 40.1236 16.8402 40.687C15.3365 41.3144 13.7575 41.6395 12.1818 41.972C11.9822 42.0141 11.7645 42.004 11.5612 41.973C10.7958 41.8563 10.0327 41.7218 9.26904 41.5923C8.76593 41.5069 8.285 41.3505 7.83555 41.0882C7.64676 40.978 7.44533 40.8924 7.25676 40.7818C6.8539 40.5455 6.45723 40.2972 6.05451 40.0607C5.9469 39.9975 5.82659 39.9589 5.71212 39.909C5.69891 39.9043 5.68817 39.896 5.67209 39.8573C5.6387 39.6704 5.53374 39.6257 5.39972 39.6233C4.58759 38.7604 3.77545 37.8975 2.95288 37.0043C2.88384 36.9046 2.82524 36.8353 2.76664 36.766Z" fill="#AFC441"/>
</svg>
