<svg width="42" height="42" viewBox="0 0 42 42" fill="none" xmlns="http://www.w3.org/2000/svg">
<path d="M31.0703 39.466C30.0804 39.2856 29.1105 39.0983 28.137 38.9293C27.3548 38.7934 26.57 38.6683 25.7831 38.56C25.1528 38.4732 24.5157 38.4315 23.8851 38.3461C23.3427 38.2726 22.8041 38.1713 22.2662 38.0711C21.9934 38.0203 21.7468 38.0992 21.5851 38.324C21.4543 38.506 21.2544 38.5493 21.047 38.5544C20.0625 38.579 19.0978 38.4497 18.1386 38.2387C17.1481 38.0208 16.1489 37.8377 15.1514 37.6495C14.4484 37.5169 13.7442 37.3876 13.0363 37.2822C12.512 37.2041 11.9822 37.1522 11.4528 37.1149C10.6765 37.0601 9.8987 37.0223 9.12091 36.9914C8.86523 36.9813 8.60612 37.039 8.35117 37.0245C7.61268 36.9823 6.87365 36.9356 6.13832 36.8599C5.40193 36.7841 4.66821 36.6806 3.93612 36.5721C3.08096 36.4453 2.22903 36.2989 1.3753 36.1633C1.0074 36.1049 0.639545 36.0439 0.269511 36.001C0.123943 35.9841 0.0663512 35.8938 0.0572254 35.796C-0.0413426 34.7391 -0.0856471 33.7031 0.557025 32.7381C0.972317 32.1146 1.27446 31.4226 1.62622 30.7607C2.24768 29.5914 2.88127 28.4277 3.4865 27.2508C4.60315 25.0794 5.69899 22.8983 6.81121 20.7249C7.50313 19.3727 8.20428 18.0249 8.91085 16.6796C9.3157 15.9089 9.73236 15.1435 10.1568 14.3823C10.7684 13.2855 11.3927 12.195 12.0101 11.1011C12.3721 10.4598 12.7429 9.8226 13.0895 9.17375C13.8662 7.71964 14.6161 6.25243 15.404 4.80389C16.0293 3.65421 16.6951 2.52449 17.3422 1.38559C17.5458 1.02736 17.7515 0.670167 17.9487 0.308732C18.1383 -0.0390205 18.132 -0.0307092 18.5215 0.03711C19.1235 0.141927 19.7267 0.243661 20.3327 0.322921C20.9781 0.40731 21.6306 0.444033 22.2742 0.537417C23.2892 0.684678 24.307 0.828323 25.3094 1.0357C26.3468 1.25031 27.3656 1.54526 28.3956 1.79349C29.2574 2.00116 30.123 2.19425 30.9879 2.38969C31.4921 2.50363 31.9941 2.63553 32.5049 2.71191C33.0471 2.79298 33.5979 2.80076 34.1417 2.68313C34.2446 2.66086 34.3508 2.64161 34.4558 2.64051C34.7756 2.63714 35.0023 2.79359 35.0642 3.11179C35.1909 3.76294 35.3275 4.4124 35.4488 5.06443C35.573 5.73108 35.6754 6.40144 35.8028 7.06749C35.9361 7.76479 36.0914 8.45825 36.2303 9.15463C36.3379 9.69404 36.4307 10.2361 36.5379 10.7756C36.6761 11.4721 36.8249 12.1666 36.964 12.863C37.1137 13.6125 37.2508 14.3643 37.4056 15.1128C37.5656 15.8863 37.7455 16.6561 37.907 17.4294C38.0495 18.1118 38.1796 18.7966 38.3134 19.4807C38.4203 20.0269 38.5266 20.5732 38.6293 21.1202C38.7147 21.5753 38.7949 22.0314 38.8768 22.4871C38.9598 22.9496 39.0461 23.4115 39.1235 23.8748C39.1911 24.2795 39.2472 24.6861 39.3106 25.0915C39.376 25.5099 39.4453 25.9277 39.5108 26.346C39.5753 26.7581 39.6357 27.1708 39.7006 27.5828C39.7812 28.0939 39.8656 28.6045 39.9464 29.1157C40.0104 29.521 40.0697 29.9269 40.134 30.3322C40.2077 30.7968 40.2823 31.2613 40.361 31.7252C40.4262 32.1089 40.498 32.4916 40.5668 32.8747C40.6665 33.4295 40.768 33.984 40.8654 34.5392C40.9419 34.976 41.009 35.4143 41.0878 35.8506C41.2284 36.6296 41.3792 37.407 41.5171 38.1864C41.6401 38.881 41.7345 39.5806 41.8739 40.2721C41.9604 40.7016 42.0105 41.1284 41.9981 41.5644C41.9894 41.8728 41.7613 42.0478 41.4425 41.9885C41.2491 41.9526 41.0532 41.9092 40.8578 41.9068C40.5993 41.9035 40.4467 41.783 40.3032 41.5938C39.97 41.1547 39.532 40.816 39.0719 40.5041C38.8665 40.3648 38.6432 40.2485 38.4444 40.1015C38.0418 39.8037 37.5515 39.7738 37.084 39.6714C36.9543 39.643 36.8243 39.6153 36.6939 39.5896C36.2946 39.5111 35.9822 39.6941 35.6727 39.8939C35.4595 40.0315 35.2517 40.1867 35.0185 40.2837C34.7046 40.4141 34.3727 40.3208 34.0604 40.2436C33.0796 40.0009 32.1033 39.7414 31.1255 39.4879C31.1122 39.4845 31.1009 39.4741 31.0703 39.466Z" fill="#5893A9"/>
</svg>
