<svg width="36" height="42" viewBox="0 0 36 42" fill="none" xmlns="http://www.w3.org/2000/svg">
<path d="M25.2158 0.634645C25.2703 0.636061 25.3247 0.637386 25.3792 0.638608C25.4539 0.640368 25.5286 0.642678 25.6032 0.64501C25.6455 0.646232 25.6878 0.647454 25.7314 0.648713C25.8725 0.662801 25.9928 0.696386 26.1278 0.73889C26.1659 0.976871 26.204 1.21486 26.242 1.45287C26.2549 1.53374 26.2678 1.6146 26.2808 1.69547C26.2994 1.81207 26.3181 1.92869 26.3367 2.04531C26.3424 2.08114 26.3482 2.11696 26.3541 2.15387C26.5469 3.36585 26.3819 4.55458 26.2429 5.76432C26.2021 6.12038 26.1624 6.47656 26.1227 6.83274C26.1089 6.95531 26.0949 7.07786 26.0807 7.2004C26.0294 7.65189 25.9912 8.10151 25.9722 8.55556C26.6787 8.68624 27.3888 8.79239 28.0997 8.89492C28.1639 8.90419 28.2281 8.91347 28.2922 8.92274C28.5563 8.96086 28.8203 8.99893 29.0844 9.03658C29.2485 9.05998 29.4125 9.08364 29.5765 9.10747C29.6383 9.1164 29.7001 9.12524 29.762 9.13398C29.8477 9.14608 29.9333 9.15852 30.0189 9.17104C30.0675 9.178 30.116 9.18495 30.166 9.19212C30.2749 9.21386 30.3523 9.23369 30.4444 9.29445C30.4923 9.39213 30.4923 9.39213 30.5339 9.52429C30.5418 9.54933 30.5497 9.57438 30.5579 9.60018C30.694 10.0437 30.8036 10.4955 30.9184 10.9448C30.9431 11.0407 30.9678 11.1366 30.9925 11.2324C31.1078 11.6806 31.1078 11.6806 31.1567 11.8738C31.173 11.9373 31.1898 12.0007 31.2074 12.0639C31.4075 12.7925 31.1987 13.6104 31.0808 14.34C31.0433 14.5725 31.0065 14.8051 30.9703 15.0379C30.9577 15.1178 30.9446 15.1977 30.9315 15.2775C30.8818 15.5934 30.8616 15.897 30.8722 16.2167C31.4582 16.2355 32.0347 16.1768 32.6174 16.1194C32.7611 16.1054 32.9048 16.0915 33.0485 16.0778C33.1372 16.0694 33.2259 16.0607 33.3146 16.0519C34.1221 15.9746 34.1221 15.9746 34.3722 16.1778C34.498 16.3822 34.4941 16.5341 34.45 16.7611C34.4056 16.9438 34.3552 17.1246 34.3042 17.3056C34.2901 17.3564 34.2759 17.4072 34.2619 17.4581C34.1958 17.6951 34.1273 17.9309 34.0495 18.1644C33.834 18.8117 33.9207 19.4317 34.0446 20.0889C34.1041 20.4058 34.1545 20.7159 34.1583 21.0389C34.1594 21.0792 34.1594 21.0792 34.1605 21.1204C34.1552 21.5835 33.9617 22.0517 33.8132 22.4848C33.6385 22.9949 33.4747 23.508 33.3174 24.0236C33.308 24.054 33.2987 24.0845 33.2891 24.1158C33.2627 24.2023 33.2364 24.2889 33.2101 24.3754C33.2023 24.401 33.1945 24.4265 33.1865 24.4528C33.1469 24.5844 33.1131 24.7148 33.0889 24.85C33.4147 24.8263 33.7223 24.744 34.0368 24.6604C34.0897 24.6466 34.1425 24.6327 34.1954 24.6189C34.2474 24.6053 34.2993 24.5917 34.3513 24.5781C34.3766 24.5714 34.402 24.5648 34.4281 24.558C34.5411 24.5282 34.6535 24.4973 34.7654 24.464C34.8014 24.4533 34.8374 24.4426 34.8744 24.4316C34.9197 24.4176 34.9197 24.4176 34.9658 24.4032C35.0659 24.3845 35.1525 24.3813 35.2539 24.3821C35.2854 24.3823 35.3169 24.3825 35.3494 24.3826C35.3734 24.3829 35.3975 24.3831 35.4222 24.3833C35.4235 25.2462 35.4242 26.109 35.4247 26.9719C35.4247 27.0213 35.4247 27.0213 35.4247 27.0718C35.426 29.6774 35.4146 32.2827 35.3979 34.8882C35.3972 34.9952 35.3965 35.1022 35.3958 35.2093C35.3939 35.5079 35.392 35.8065 35.3899 36.1051C35.3875 36.4482 35.3854 36.7914 35.3837 37.1345C35.3835 37.1898 35.3832 37.245 35.3829 37.3002C35.382 37.4644 35.3813 37.6286 35.3809 37.7928C35.3807 37.8661 35.3803 37.9394 35.3799 38.0127C35.3791 38.5924 35.401 39.183 35.5024 39.7543C35.5359 39.9447 35.5486 40.1251 35.5438 40.3181C35.5434 40.3456 35.543 40.3732 35.5427 40.4016C35.5418 40.4677 35.5404 40.5339 35.5389 40.6C35.3755 40.6904 35.2422 40.735 35.0569 40.7549C35.0081 40.7603 34.9593 40.7658 34.909 40.7714C34.8556 40.7768 34.8022 40.7822 34.7488 40.7876C34.6923 40.7935 34.6358 40.7995 34.5793 40.8054C34.4599 40.8179 34.3405 40.8299 34.221 40.8418C34.1025 40.8536 33.984 40.866 33.8656 40.879C31.8262 41.1031 29.7616 40.9699 27.7149 40.9218C27.287 40.9118 26.859 40.9019 26.431 40.892C26.374 40.8907 26.374 40.8907 26.3158 40.8894C25.5825 40.8725 24.8493 40.8559 24.116 40.8396C23.9662 40.8363 23.8164 40.833 23.6666 40.8296C21.1615 40.7728 18.6598 40.7791 16.1555 40.8606C15.929 40.868 15.7026 40.8751 15.4761 40.882C13.5438 40.9416 11.6117 41.0074 9.67964 41.0737C9.50501 41.0797 9.33038 41.0857 9.15576 41.0917C8.80559 41.1037 8.45542 41.1157 8.10525 41.1278C8.0763 41.1287 8.04735 41.1297 8.01752 41.1308C7.29153 41.1557 6.56556 41.1809 5.8396 41.2064C5.39659 41.222 4.95357 41.2374 4.51055 41.2528C4.25209 41.2617 3.99364 41.2708 3.73519 41.28C1.91837 41.3449 1.91837 41.3449 1.2363 41.3499C1.15954 41.3505 1.08279 41.3516 1.00604 41.3527C0.93948 41.3527 0.939479 41.3527 0.871572 41.3527C0.834069 41.3529 0.796566 41.3531 0.757927 41.3532C0.63477 41.336 0.561325 41.2947 0.461117 41.2222C0.323116 40.9462 0.444619 40.5116 0.490283 40.2207C0.497189 40.1747 0.504094 40.1288 0.511209 40.0814C0.533104 39.9359 0.555396 39.7903 0.577783 39.6448C0.60728 39.4528 0.636388 39.2607 0.665283 39.0686C0.675491 39.0034 0.675491 39.0034 0.685905 38.937C0.754372 38.5259 0.754372 38.5259 0.713982 38.1154C0.548693 37.4208 0.735266 36.5525 0.793975 35.8447C0.808131 35.6732 0.821914 35.5017 0.83575 35.3302C0.85899 35.0428 0.882494 34.7555 0.906174 34.4681C0.93343 34.1373 0.960328 33.8066 0.987021 33.4757C1.01566 33.1209 1.04455 32.7661 1.07352 32.4113C1.08176 32.3101 1.08996 32.2088 1.09815 32.1076C1.11108 31.948 1.12419 31.7884 1.13742 31.6288C1.14221 31.5707 1.14694 31.5126 1.15162 31.4545C1.25758 30.1395 1.25758 30.1395 1.76238 29.6233C2.59063 28.7288 3.1299 27.7374 3.18084 26.5161C3.18454 26.4278 3.18883 26.3396 3.19325 26.2513C3.20413 26.0317 3.21411 25.8122 3.22401 25.5926C3.27671 24.427 3.37984 23.2918 3.63299 22.1497C3.69447 21.8709 3.75315 21.5918 3.80556 21.3111C3.81169 21.2786 3.81782 21.246 3.82413 21.2125C3.98503 20.3103 3.93946 19.3798 3.93921 18.4672C3.93914 18.2293 3.93968 17.9915 3.94109 17.7536C3.94151 17.6433 3.94105 17.533 3.94056 17.4227C3.9409 17.355 3.94129 17.2873 3.94174 17.2196C3.94117 17.1744 3.94117 17.1744 3.94059 17.1282C3.9438 16.8822 4.00978 16.6713 4.18894 16.4959C4.36829 16.3933 4.53383 16.3353 4.73996 16.3101C4.77104 16.3057 4.80212 16.3014 4.83414 16.2969C5.29726 16.2343 5.76265 16.1878 6.22743 16.1393C6.39647 16.1217 6.56548 16.1037 6.73448 16.0856C6.79097 16.0796 6.84746 16.0735 6.90395 16.0675C6.93169 16.0645 6.95944 16.0616 6.98803 16.0585C7.30305 16.0248 7.6181 15.9914 7.93318 15.9582C8.09039 15.9416 8.24754 15.9246 8.40464 15.907C8.48101 15.8986 8.55744 15.8908 8.63387 15.8829C9.30894 15.8065 9.85469 15.5567 10.3005 15.0365C10.5917 14.648 10.7141 14.2141 10.7548 13.7363C10.7615 13.6663 10.7615 13.6663 10.7684 13.5949C10.8155 13.0807 10.8433 12.5652 10.8697 12.0496C10.8849 11.7546 10.9013 11.4597 10.9178 11.1648C10.9195 11.1345 10.9212 11.1042 10.9229 11.0731C10.9612 10.3922 11.0088 9.71211 11.0591 9.03207C11.0656 8.94475 11.072 8.85744 11.0784 8.77012C11.0903 8.60784 11.1025 8.44559 11.1147 8.28333C11.1183 8.23534 11.1218 8.18734 11.1255 8.13789C11.1306 8.07152 11.1306 8.07152 11.1358 8.00382C11.1387 7.96557 11.1416 7.92732 11.1445 7.88791C11.1561 7.77227 11.1741 7.65885 11.1944 7.54445C11.4823 7.47735 11.7625 7.4496 12.0573 7.43629C12.125 7.43289 12.125 7.43289 12.1941 7.42942C12.2906 7.42461 12.3871 7.41994 12.4836 7.4154C12.6348 7.40827 12.7859 7.40075 12.9371 7.39314C13.4041 7.36984 13.8713 7.34827 14.3385 7.32934C14.4493 7.32469 14.56 7.32 14.6707 7.31532C14.7722 7.31121 14.8736 7.30769 14.9751 7.3042C15.5437 7.28857 15.5437 7.28857 16.0167 7C16.1434 6.80328 16.2066 6.63077 16.252 6.40254C16.2588 6.3702 16.2656 6.33785 16.2727 6.30453C16.2955 6.19536 16.3177 6.08605 16.3399 5.97674C16.3563 5.89786 16.3727 5.819 16.3892 5.74014C16.4474 5.46026 16.5043 5.18015 16.5611 4.9C16.5695 4.85853 16.5695 4.85853 16.5781 4.81621C16.6147 4.6359 16.6512 4.45558 16.6876 4.27525C16.7003 4.21246 16.713 4.14968 16.7258 4.0869C16.789 3.7742 16.8523 3.46149 16.9149 3.14865C17.071 2.36862 17.2372 1.5917 17.4167 0.816668C18.1127 0.752411 18.8074 0.718867 19.5059 0.699809C19.5886 0.697531 19.6712 0.695163 19.7539 0.692769C23.4031 0.587261 23.4031 0.587261 25.2158 0.634645Z" fill="#49503B"/>
</svg>
